<svg width="375" height="140" viewBox="0 0 375 140" fill="none" xmlns="http://www.w3.org/2000/svg">
<g clip-path="url(#clip0)">
<path d="M114 0H429V140H114V0Z" fill="#007F36"/>
<path d="M114 32C114 14.3269 128.327 0 146 0H397C414.673 0 429 14.3269 429 32V140H114V32Z" fill="#4BA36F"/>
<path d="M283.781 140.85H296.137C296.137 140.85 296.015 132.364 309.361 113.548C322.708 94.7324 333.271 83.1051 326.598 74.8083C319.926 66.5115 299.536 77.9338 290.268 102.838C281 127.743 283.781 140.85 283.781 140.85Z" fill="#0D562A"/>
<path d="M291.649 136.521C291.62 136.523 291.59 136.523 291.561 136.521C291.465 136.51 291.372 136.48 291.288 136.433C291.204 136.386 291.13 136.323 291.07 136.248C291.01 136.172 290.966 136.086 290.939 135.994C290.913 135.901 290.905 135.804 290.917 135.709C295.927 93.7359 316.611 83.7038 317.481 83.2979C317.658 83.2158 317.86 83.2069 318.043 83.2731C318.226 83.3394 318.376 83.4753 318.458 83.651C318.541 83.8268 318.55 84.0279 318.483 84.2103C318.416 84.3926 318.28 84.5411 318.103 84.6232C317.899 84.7206 297.281 94.7953 292.377 135.881C292.354 136.058 292.268 136.22 292.134 136.338C292 136.456 291.828 136.521 291.649 136.521Z" fill="#1E7C40"/>
<path d="M291.192 140.85C291.192 140.85 305.466 97.4986 295.27 73.1481C285.074 48.7976 278.221 61.3321 275.441 68.8942C272.662 76.4563 273.217 95.6436 276.367 111.515C279.518 127.386 278.592 140.85 278.592 140.85H291.192Z" fill="#0E803C"/>
<path d="M276.793 141.218C276.793 141.218 277.109 132.375 264.319 111.715C251.53 91.0538 247.822 81.0908 251.16 76.4796C254.499 71.8685 267.474 71.1297 276.553 93.268C285.631 115.406 283.782 141.218 283.782 141.218H276.793Z" fill="#0D562A"/>
<path d="M287.464 136.521H287.399C287.303 136.513 287.209 136.486 287.124 136.441C287.038 136.397 286.962 136.336 286.9 136.263C286.838 136.189 286.792 136.104 286.763 136.013C286.734 135.921 286.724 135.825 286.732 135.729C290.847 89.6423 283.914 69.6127 283.851 69.4199C283.796 69.2398 283.812 69.0455 283.897 68.8773C283.982 68.7091 284.129 68.5799 284.307 68.5165C284.485 68.453 284.681 68.4603 284.854 68.5366C285.027 68.613 285.163 68.7527 285.235 68.9267C285.307 69.1296 292.354 89.3926 288.205 135.853C288.188 136.037 288.103 136.207 287.966 136.331C287.828 136.455 287.649 136.522 287.464 136.521Z" fill="#48B574"/>
<path d="M280.98 134.231C280.802 134.231 280.63 134.167 280.496 134.05C280.363 133.934 280.276 133.773 280.252 133.598C277.472 113.506 271.573 101.405 267.111 94.8054C262.29 87.6756 258.071 85.2401 258.028 85.2158C257.859 85.1205 257.734 84.962 257.681 84.7751C257.629 84.5882 257.653 84.3883 257.749 84.2192C257.845 84.0502 258.004 83.926 258.192 83.8738C258.38 83.8217 258.58 83.8459 258.75 83.9412C259.464 84.3471 276.287 94.1458 281.708 133.399C281.734 133.591 281.682 133.786 281.565 133.94C281.447 134.095 281.272 134.197 281.079 134.223C281.047 134.229 281.013 134.232 280.98 134.231Z" fill="#0E803C"/>
<path d="M273.673 141.022H278.306C278.306 141.022 280.403 134.934 284.509 131.802C288.616 128.67 291.239 124.583 288.879 121.104C286.52 117.626 273.149 124.41 273.673 141.022Z" fill="#F9C5CE"/>
<path d="M276.852 138.118C276.821 138.119 276.79 138.115 276.76 138.108C276.666 138.084 276.586 138.023 276.537 137.94C276.487 137.856 276.473 137.757 276.497 137.663C278.869 128.514 286.43 123.862 286.506 123.824C286.547 123.797 286.593 123.779 286.642 123.771C286.69 123.762 286.74 123.763 286.788 123.774C286.836 123.785 286.881 123.806 286.921 123.834C286.961 123.863 286.995 123.899 287.02 123.941C287.045 123.983 287.062 124.03 287.069 124.078C287.076 124.127 287.073 124.176 287.061 124.224C287.048 124.271 287.026 124.315 286.996 124.354C286.966 124.393 286.928 124.425 286.885 124.449C286.812 124.494 279.503 128.993 277.207 137.844C277.187 137.922 277.141 137.992 277.077 138.041C277.012 138.091 276.933 138.118 276.852 138.118Z" fill="#FC9381"/>
<path d="M276.383 141.022C276.383 141.022 283.725 124.149 282.762 116.233C281.8 108.318 279.355 106.492 276.732 106.492C274.11 106.492 270.529 114.494 272.45 125.975C274.371 137.456 273.673 141.022 273.673 141.022H276.383Z" fill="#FC9381"/>
<path d="M276.065 135.179C276.041 135.182 276.016 135.182 275.992 135.179C275.945 135.17 275.9 135.151 275.86 135.124C275.82 135.098 275.786 135.063 275.759 135.023C275.733 134.983 275.714 134.938 275.705 134.891C275.696 134.844 275.697 134.796 275.706 134.749C278.227 122.501 277.383 111.742 277.372 111.634C277.369 111.587 277.374 111.539 277.389 111.493C277.404 111.448 277.428 111.405 277.459 111.369C277.49 111.333 277.528 111.303 277.571 111.281C277.614 111.259 277.661 111.246 277.709 111.243C277.757 111.238 277.806 111.242 277.852 111.257C277.898 111.271 277.941 111.294 277.978 111.325C278.015 111.356 278.045 111.394 278.067 111.438C278.089 111.481 278.101 111.528 278.104 111.576C278.104 111.683 278.965 122.535 276.424 134.895C276.406 134.976 276.36 135.048 276.295 135.1C276.23 135.151 276.149 135.179 276.065 135.179Z" fill="#F9C5CE"/>
<path d="M273.673 141.022C273.673 141.022 271.925 134.934 267.645 130.931C263.365 126.929 255.369 119.424 261.089 114.06C267.119 108.405 273.936 117.798 275.771 126.322C277.427 134.014 276.383 141.022 276.383 141.022H273.673Z" fill="#F9C5CE"/>
<path d="M275.144 139.754C275.05 139.753 274.96 139.717 274.893 139.653C274.825 139.589 274.784 139.502 274.779 139.409C274.045 126.069 265.015 119.404 264.925 119.339C264.851 119.28 264.802 119.196 264.789 119.103C264.776 119.009 264.799 118.915 264.854 118.838C264.909 118.762 264.992 118.709 265.085 118.692C265.178 118.675 265.274 118.694 265.354 118.746C265.447 118.815 274.756 125.669 275.511 139.368C275.514 139.416 275.507 139.464 275.491 139.509C275.475 139.555 275.45 139.596 275.418 139.632C275.386 139.668 275.347 139.696 275.303 139.717C275.26 139.738 275.212 139.749 275.164 139.752L275.144 139.754Z" fill="#FC9381"/>
<path d="M333.607 142.139H325.858C325.858 142.139 322.347 131.95 315.475 126.714C308.603 121.478 304.214 114.634 308.162 108.811C312.11 102.989 334.486 114.338 333.607 142.139Z" fill="#0D562A"/>
<path d="M328.289 137.282C328.341 137.282 328.392 137.275 328.442 137.262C328.52 137.242 328.593 137.207 328.658 137.159C328.722 137.11 328.776 137.05 328.817 136.981C328.858 136.912 328.885 136.836 328.896 136.756C328.907 136.677 328.903 136.596 328.883 136.519C324.914 121.208 312.263 113.437 312.135 113.36C311.995 113.276 311.828 113.251 311.67 113.289C311.512 113.328 311.377 113.428 311.292 113.567C311.208 113.705 311.183 113.871 311.222 114.029C311.261 114.186 311.361 114.321 311.5 114.405C311.623 114.478 323.854 122.009 327.696 136.823C327.729 136.954 327.806 137.071 327.913 137.154C328.021 137.237 328.153 137.282 328.289 137.282Z" fill="#007F36"/>
<path d="M329.074 142.139C329.074 142.139 316.79 113.901 318.399 100.665C320.008 87.428 324.109 84.3634 328.489 84.3634C332.869 84.3634 338.873 97.7584 335.657 116.966C332.441 136.174 333.618 142.147 333.618 142.147L329.074 142.139Z" fill="#0E803C"/>
<path d="M329.606 132.362C329.648 132.362 329.689 132.358 329.73 132.35C329.809 132.334 329.884 132.303 329.951 132.258C330.018 132.213 330.075 132.155 330.119 132.088C330.164 132.021 330.194 131.946 330.21 131.868C330.225 131.789 330.224 131.708 330.208 131.629C325.991 111.131 327.404 93.127 327.418 92.9463C327.425 92.8665 327.415 92.7861 327.391 92.7098C327.366 92.6335 327.327 92.5628 327.275 92.5017C327.223 92.4406 327.159 92.3903 327.087 92.3538C327.016 92.3173 326.937 92.2952 326.857 92.2888C326.777 92.2818 326.696 92.2908 326.619 92.3153C326.541 92.3398 326.47 92.3792 326.408 92.4313C326.347 92.4834 326.296 92.5471 326.259 92.6188C326.223 92.6905 326.201 92.7687 326.194 92.8489C326.18 93.0296 324.755 111.206 329.007 131.875C329.035 132.013 329.11 132.136 329.219 132.225C329.328 132.314 329.465 132.362 329.606 132.362Z" fill="#48B574"/>
<path d="M333.607 142.139C333.607 142.139 336.532 131.95 343.697 125.255C350.863 118.559 364.242 105.994 354.668 97.0116C344.576 87.5519 333.169 103.271 330.098 117.534C327.327 130.408 329.078 142.132 329.078 142.132L333.607 142.139Z" fill="#0D562A"/>
<path d="M331.148 140.016C331.305 140.016 331.456 139.956 331.569 139.849C331.683 139.742 331.751 139.595 331.76 139.439C332.983 117.114 348.098 105.952 348.251 105.852C348.382 105.757 348.471 105.614 348.496 105.454C348.522 105.294 348.483 105.131 348.387 105C348.292 104.869 348.148 104.781 347.987 104.755C347.827 104.73 347.663 104.769 347.531 104.864C347.374 104.975 331.796 116.446 330.534 139.366C330.53 139.446 330.541 139.527 330.567 139.602C330.594 139.678 330.635 139.748 330.689 139.808C330.743 139.868 330.808 139.916 330.881 139.951C330.954 139.985 331.033 140.005 331.113 140.01L331.148 140.016Z" fill="#0E803C"/>
<path d="M329.904 121.414C329.904 121.414 327.286 133.782 312.247 133.782C297.208 133.782 288.374 120.111 288.374 107.093C288.374 99.2813 287.717 86.2699 305.377 86.2699C333.499 86.2699 311.584 125.318 329.904 121.414Z" fill="#FC892B"/>
<path d="M298.182 101.197C298.994 101.197 299.652 100.542 299.652 99.7339C299.652 98.9258 298.994 98.2706 298.182 98.2706C297.37 98.2706 296.712 98.9258 296.712 99.7339C296.712 100.542 297.37 101.197 298.182 101.197Z" fill="#54370E"/>
<path d="M308.862 107.511C308.618 107.303 308.322 107.165 308.005 107.11C307.689 107.055 307.363 107.087 307.063 107.201C307.039 107.21 307.015 107.222 306.992 107.235C306.743 107.085 306.494 106.943 306.25 106.813C306.476 106.827 306.703 106.797 306.917 106.723C307.131 106.649 307.329 106.533 307.498 106.383C308.175 105.796 308.201 105.264 308.156 104.994C308.147 104.938 308.121 104.886 308.082 104.844C308.044 104.802 307.994 104.771 307.938 104.757C307.416 104.623 305.785 104.363 305.444 106.277C305.437 106.319 305.437 106.363 305.444 106.405C301.082 104.325 298.058 105.051 297.915 105.088C297.861 105.102 297.815 105.137 297.787 105.185C297.759 105.233 297.751 105.29 297.765 105.344C297.779 105.397 297.814 105.443 297.862 105.472C297.91 105.5 297.967 105.508 298.022 105.494C298.05 105.494 300.399 104.927 303.886 106.206C302.447 107.468 303.493 108.719 303.876 109.094C303.916 109.134 303.968 109.162 304.023 109.173C304.079 109.185 304.137 109.18 304.19 109.159C304.447 109.062 304.894 108.765 305.053 107.887C305.099 107.656 305.096 107.418 305.044 107.188C304.993 106.959 304.893 106.742 304.753 106.553C305.46 106.862 306.147 107.216 306.808 107.613V107.639C307.163 109.551 308.793 109.279 309.315 109.141C309.369 109.126 309.419 109.095 309.457 109.053C309.495 109.011 309.521 108.959 309.531 108.903C309.574 108.623 309.545 108.092 308.862 107.511Z" fill="#0D562A"/>
<path d="M307.471 101.197C308.283 101.197 308.941 100.542 308.941 99.7339C308.941 98.9258 308.283 98.2706 307.471 98.2706C306.659 98.2706 306 98.9258 306 99.7339C306 100.542 306.659 101.197 307.471 101.197Z" fill="#54370E"/>
<path d="M298.788 103.444L301.698 102.226C301.765 102.198 301.839 102.186 301.912 102.19C301.985 102.194 302.056 102.215 302.12 102.251L304.567 103.61C304.643 103.653 304.706 103.715 304.75 103.79C304.793 103.865 304.816 103.95 304.814 104.037C304.813 104.124 304.788 104.209 304.743 104.283C304.697 104.356 304.632 104.417 304.555 104.457L300.505 106.549C300.395 106.606 300.267 106.618 300.149 106.584C300.03 106.55 299.929 106.471 299.867 106.364L298.555 104.118C298.523 104.059 298.502 103.994 298.497 103.927C298.491 103.86 298.499 103.793 298.521 103.729C298.543 103.666 298.578 103.607 298.624 103.558C298.67 103.509 298.726 103.47 298.788 103.444Z" fill="#8C4413"/>
<path d="M318.701 106.131C316.635 106.084 313.427 106.393 311.767 110.596C310.108 114.799 310.448 123.719 319.064 126.256C327.679 128.793 330.051 121.357 330.051 121.357C330.051 121.357 324.776 120.748 325.041 116.545C325.306 112.341 324.262 106.255 318.701 106.131Z" fill="#FFC440"/>
<path d="M302.42 87.309C302.42 87.309 299.32 85.8254 299.086 82.7689C298.851 79.7124 302.245 83.2053 303.034 87.1345L302.42 87.309Z" fill="#FC892B"/>
<path d="M303.019 87.3435C303.019 87.3435 306.119 85.8579 306.353 82.8014C306.588 79.7449 303.194 83.2378 302.405 87.169L303.019 87.3435Z" fill="#FC892B"/>
<path d="M317.375 137.082V137.067C317.375 137.067 317.375 137.067 317.375 137.055L317.294 132.215C317.295 132.181 317.289 132.148 317.277 132.117C317.264 132.087 317.245 132.059 317.221 132.035C317.197 132.012 317.169 131.994 317.137 131.983C317.106 131.972 317.072 131.967 317.039 131.969C316.973 131.97 316.91 131.997 316.864 132.044C316.817 132.092 316.792 132.155 316.792 132.221L316.87 136.838L314.47 136.682C314.437 136.679 314.403 136.683 314.372 136.694C314.341 136.704 314.312 136.721 314.287 136.743C314.262 136.764 314.242 136.791 314.227 136.82C314.213 136.85 314.204 136.882 314.202 136.915C314.199 136.981 314.221 137.046 314.265 137.096C314.309 137.146 314.371 137.176 314.437 137.181L316.248 137.299L314.174 138.433C314.145 138.449 314.119 138.47 314.098 138.495C314.077 138.521 314.062 138.55 314.053 138.582C314.043 138.613 314.04 138.647 314.044 138.679C314.048 138.712 314.058 138.743 314.074 138.772C314.096 138.811 314.128 138.844 314.166 138.867C314.205 138.89 314.249 138.902 314.294 138.902C314.337 138.902 314.378 138.891 314.415 138.87L316.635 137.652L315.899 139.509C315.887 139.54 315.881 139.572 315.881 139.605C315.882 139.638 315.889 139.671 315.902 139.701C315.916 139.731 315.935 139.758 315.959 139.781C315.983 139.804 316.011 139.822 316.042 139.834C316.071 139.845 316.102 139.85 316.134 139.85C316.184 139.85 316.233 139.835 316.274 139.807C316.316 139.78 316.348 139.74 316.366 139.694L317.357 137.191C317.357 137.191 317.357 137.181 317.357 137.177C317.358 137.172 317.358 137.166 317.357 137.161C317.369 137.136 317.375 137.109 317.375 137.082Z" fill="#54370E"/>
<path d="M307.605 137.067L307.526 132.223C307.527 132.189 307.521 132.156 307.509 132.125C307.496 132.094 307.477 132.066 307.453 132.043C307.428 132.02 307.4 132.002 307.368 131.99C307.336 131.979 307.303 131.975 307.269 131.977C307.203 131.978 307.14 132.005 307.094 132.053C307.047 132.1 307.022 132.163 307.022 132.229L307.1 136.846L304.7 136.69C304.667 136.687 304.633 136.691 304.602 136.701C304.571 136.712 304.542 136.728 304.517 136.75C304.492 136.772 304.472 136.799 304.458 136.828C304.444 136.858 304.436 136.89 304.434 136.923C304.43 136.989 304.452 137.054 304.496 137.104C304.539 137.154 304.601 137.184 304.667 137.189L306.48 137.307L304.404 138.441C304.375 138.457 304.349 138.478 304.328 138.504C304.307 138.529 304.292 138.558 304.283 138.59C304.273 138.622 304.27 138.655 304.274 138.687C304.278 138.72 304.288 138.752 304.304 138.78C304.326 138.819 304.358 138.852 304.397 138.875C304.435 138.898 304.479 138.91 304.524 138.91C304.567 138.91 304.608 138.899 304.645 138.878L306.867 137.66L306.131 139.517C306.107 139.579 306.108 139.647 306.134 139.708C306.161 139.769 306.21 139.817 306.272 139.842C306.301 139.853 306.332 139.859 306.364 139.858C306.414 139.858 306.463 139.843 306.505 139.815C306.547 139.788 306.579 139.748 306.598 139.702L307.589 137.199C307.589 137.199 307.589 137.189 307.589 137.185C307.588 137.18 307.588 137.174 307.589 137.169C307.594 137.141 307.594 137.112 307.589 137.084C307.593 137.082 307.596 137.08 307.599 137.077C307.602 137.074 307.604 137.071 307.605 137.067Z" fill="#54370E"/>
<path d="M339.069 74.052C337.372 75.9558 334.242 75.7731 332.894 73.6096C332.62 73.2056 332.465 72.733 332.447 72.2458C332.447 70.3725 335.349 66.8593 335.681 63.9023C336.014 60.9452 336.905 64.1986 336.813 65.1708C336.813 65.1708 337.914 63.5471 338.383 66.082C338.383 66.082 339.811 66.082 339.403 68.1339C339.403 68.1339 341.303 69.1487 340.439 72.0387C340.182 72.9338 339.542 73.5223 339.069 74.052Z" fill="#FC892B"/>
<path d="M356.34 69.9077C356.34 69.9077 357.27 76.3008 350.049 78.9331C342.828 81.5654 336.177 76.5463 333.876 70.2953C332.498 66.5468 329.884 60.4155 338.363 57.3265C351.86 52.4089 348.241 74.9856 356.34 69.9077Z" fill="#FFC440"/>
<path d="M337.286 65.7979C337.701 65.7979 338.036 65.4635 338.036 65.051C338.036 64.6385 337.701 64.3041 337.286 64.3041C336.872 64.3041 336.536 64.6385 336.536 65.051C336.536 65.4635 336.872 65.7979 337.286 65.7979Z" fill="#54370E"/>
<path d="M341.744 64.1722C342.158 64.1722 342.494 63.8378 342.494 63.4253C342.494 63.0129 342.158 62.6785 341.744 62.6785C341.329 62.6785 340.993 63.0129 340.993 63.4253C340.993 63.8378 341.329 64.1722 341.744 64.1722Z" fill="#54370E"/>
<path d="M338.23 66.7254L339.415 65.6274C339.442 65.6028 339.474 65.5845 339.51 65.574C339.545 65.5634 339.582 65.5609 339.619 65.5665L341.034 65.7918C341.077 65.7988 341.118 65.8174 341.152 65.8456C341.186 65.8738 341.212 65.9106 341.227 65.9521C341.242 65.9936 341.245 66.0383 341.237 66.0815C341.228 66.1247 341.208 66.1649 341.179 66.1977L339.604 67.9107C339.561 67.9569 339.502 67.985 339.438 67.9891C339.375 67.9932 339.313 67.9732 339.264 67.933L338.244 67.0846C338.219 67.0625 338.198 67.0354 338.183 67.005C338.169 66.9747 338.161 66.9417 338.159 66.9081C338.158 66.8745 338.164 66.8409 338.176 66.8095C338.188 66.7781 338.206 66.7495 338.23 66.7254Z" fill="#8C4413"/>
<path d="M337.125 58.3454C337.125 58.3454 335.375 58.1749 334.723 56.7482C334.07 55.3214 336.315 56.4052 337.39 58.1547L337.125 58.3454Z" fill="#FFC440"/>
<path d="M337.421 58.254C337.421 58.254 338.644 56.9978 338.218 55.4898C337.792 53.9819 336.778 56.2529 337.094 58.2784L337.421 58.254Z" fill="#FFC440"/>
<path d="M351.972 79.822L352.095 77.348C352.098 77.2821 352.074 77.2178 352.029 77.1691C351.985 77.1205 351.922 77.0914 351.856 77.0882C351.823 77.0851 351.79 77.0889 351.758 77.0993C351.727 77.1097 351.698 77.1264 351.673 77.1486C351.648 77.1707 351.628 77.1977 351.615 77.2278C351.601 77.2579 351.594 77.2906 351.593 77.3236L351.483 79.5561L350.396 79.4141C350.363 79.4095 350.33 79.4115 350.298 79.4199C350.266 79.4283 350.236 79.4429 350.21 79.4629C350.184 79.4829 350.162 79.508 350.146 79.5365C350.129 79.5651 350.119 79.5966 350.115 79.6292C350.106 79.6951 350.124 79.7618 350.164 79.8146C350.205 79.8675 350.265 79.9022 350.331 79.9113L350.833 79.9762L350.119 80.3071C350.085 80.3177 350.054 80.3353 350.028 80.3587C350.001 80.3822 349.98 80.4109 349.966 80.443C349.951 80.4751 349.944 80.5099 349.944 80.5451C349.944 80.5803 349.951 80.615 349.966 80.6472C349.98 80.6793 350.001 80.708 350.028 80.7314C350.054 80.7548 350.085 80.7724 350.119 80.783C350.153 80.7936 350.188 80.797 350.223 80.793C350.258 80.789 350.292 80.7776 350.323 80.7597L351.187 80.3537L350.896 80.9626C350.882 80.9923 350.874 81.0245 350.872 81.0573C350.87 81.0902 350.875 81.123 350.886 81.1539C350.898 81.1848 350.915 81.2132 350.937 81.2375C350.959 81.2618 350.986 81.2815 351.016 81.2955C351.049 81.311 351.085 81.3186 351.122 81.3178C351.169 81.3178 351.216 81.3044 351.256 81.2793C351.296 81.2542 351.328 81.2182 351.348 81.1757L351.94 79.9336C351.94 79.9336 351.94 79.9235 351.94 79.9174V79.9012C351.956 79.8772 351.967 79.8503 351.972 79.822Z" fill="#54370E"/>
<path d="M348.526 81.3788C348.531 81.3512 348.531 81.3231 348.526 81.2956L348.522 78.8195C348.522 78.7536 348.495 78.6907 348.448 78.6443C348.401 78.5979 348.338 78.5719 348.271 78.5719C348.205 78.573 348.142 78.5999 348.095 78.647C348.049 78.6941 348.023 78.7575 348.023 78.8236L348.035 81.0561L346.942 80.9729C346.909 80.9698 346.876 80.9734 346.844 80.9835C346.812 80.9936 346.783 81.0099 346.758 81.0315C346.733 81.0531 346.712 81.0796 346.698 81.1092C346.683 81.1389 346.675 81.1712 346.673 81.2042C346.668 81.2701 346.689 81.3354 346.732 81.3856C346.776 81.4358 346.837 81.4669 346.903 81.4721L347.409 81.5107L346.712 81.8638C346.682 81.879 346.656 81.8998 346.635 81.925C346.614 81.9503 346.599 81.9795 346.589 82.0109C346.58 82.0423 346.577 82.0752 346.58 82.1079C346.584 82.1405 346.594 82.172 346.61 82.2007C346.631 82.2404 346.663 82.2737 346.701 82.2969C346.74 82.3201 346.785 82.3325 346.83 82.3326C346.871 82.3327 346.912 82.3222 346.948 82.3022L347.79 81.8537L347.533 82.4869C347.521 82.5171 347.514 82.5495 347.514 82.5823C347.514 82.615 347.521 82.6474 347.534 82.6776C347.546 82.7078 347.565 82.7352 347.588 82.7582C347.612 82.7812 347.639 82.7994 347.67 82.8116C347.7 82.8253 347.733 82.8323 347.766 82.8319C347.815 82.8318 347.864 82.8168 347.905 82.7889C347.946 82.7611 347.978 82.7216 347.996 82.6756L348.518 81.4031C348.518 81.3984 348.518 81.3936 348.518 81.3889C348.518 81.3889 348.524 81.3849 348.526 81.3788Z" fill="#54370E"/>
<path d="M352.292 69.5465C350.064 70.7947 347.164 69.6054 346.599 67.1232C346.473 66.652 346.481 66.1551 346.623 65.6883C347.235 63.9186 351.132 61.5379 352.417 58.8508C353.701 56.1637 353.477 59.5307 353.069 60.4176C353.069 60.4176 354.646 59.2303 354.256 61.7896C354.256 61.7896 355.598 62.2462 354.556 64.0606C354.556 64.0606 356.018 65.6356 354.256 68.0893C353.712 68.8463 352.912 69.1974 352.292 69.5465Z" fill="#FC892B"/>
<path d="M263.19 104.846C264.514 104.846 265.588 103.778 265.588 102.46C265.588 101.141 264.514 100.073 263.19 100.073C261.865 100.073 260.791 101.141 260.791 102.46C260.791 103.778 261.865 104.846 263.19 104.846Z" fill="#F9C5CE"/>
<path d="M256.081 102.689C256.993 102.689 257.733 101.953 257.733 101.045C257.733 100.137 256.993 99.4011 256.081 99.4011C255.169 99.4011 254.429 100.137 254.429 101.045C254.429 101.953 255.169 102.689 256.081 102.689Z" fill="#F9C5CE"/>
<path d="M186.957 144H193.3C193.3 144 196.171 135.537 201.791 131.185C207.411 126.833 211.005 121.148 207.774 116.313C204.543 111.477 186.241 120.906 186.957 144Z" fill="#0D562A"/>
<path d="M191.31 139.965C191.268 139.966 191.226 139.96 191.185 139.948C191.121 139.931 191.061 139.903 191.009 139.863C190.956 139.823 190.911 139.773 190.878 139.716C190.844 139.659 190.822 139.595 190.813 139.529C190.804 139.463 190.807 139.396 190.824 139.332C194.073 126.613 204.423 120.158 204.528 120.095C204.642 120.025 204.778 120.004 204.907 120.036C205.037 120.068 205.148 120.15 205.217 120.265C205.286 120.38 205.307 120.518 205.275 120.649C205.244 120.779 205.162 120.892 205.048 120.961C204.948 121.023 194.939 127.278 191.795 139.585C191.768 139.694 191.705 139.791 191.617 139.86C191.529 139.928 191.421 139.966 191.31 139.965Z" fill="#007F36"/>
<path d="M190.667 144C190.667 144 200.72 120.543 199.402 109.541C198.085 98.5388 194.737 96 191.146 96C187.556 96 182.65 107.123 185.289 123.082C187.928 139.041 186.964 144 186.964 144H190.667Z" fill="#17994C"/>
<path d="M190.232 135.88C190.198 135.879 190.165 135.876 190.132 135.869C190.001 135.842 189.887 135.764 189.813 135.651C189.74 135.539 189.713 135.402 189.74 135.27C193.191 118.242 192.039 103.286 192.024 103.137C192.015 103.006 192.057 102.876 192.141 102.776C192.225 102.675 192.345 102.612 192.474 102.6C192.54 102.594 192.607 102.601 192.67 102.621C192.733 102.641 192.791 102.674 192.841 102.717C192.892 102.76 192.933 102.813 192.963 102.873C192.992 102.933 193.01 102.998 193.014 103.064C193.027 103.214 194.192 118.315 190.715 135.482C190.69 135.593 190.629 135.693 190.541 135.765C190.454 135.837 190.345 135.878 190.232 135.88Z" fill="#48B574"/>
<path d="M186.957 144C186.957 144 184.562 135.537 178.701 129.975C172.84 124.413 161.894 113.976 169.728 106.518C177.985 98.6598 187.316 111.717 189.829 123.566C192.098 134.261 190.667 144 190.667 144H186.957Z" fill="#48B574"/>
<path d="M188.971 142.236C188.843 142.235 188.72 142.185 188.627 142.096C188.533 142.007 188.478 141.885 188.47 141.756C187.467 123.214 175.102 113.948 174.978 113.858C174.92 113.82 174.871 113.772 174.832 113.714C174.794 113.657 174.768 113.592 174.755 113.525C174.742 113.457 174.743 113.387 174.758 113.319C174.773 113.252 174.801 113.188 174.841 113.132C174.881 113.076 174.932 113.029 174.991 112.993C175.049 112.958 175.115 112.935 175.183 112.926C175.25 112.917 175.319 112.922 175.385 112.94C175.451 112.959 175.512 112.991 175.566 113.035C175.694 113.129 188.44 122.658 189.472 141.701C189.476 141.767 189.467 141.834 189.445 141.897C189.423 141.96 189.389 142.018 189.346 142.067C189.302 142.117 189.248 142.157 189.189 142.186C189.13 142.215 189.065 142.232 188.999 142.236H188.971Z" fill="#17994C"/>
<path d="M180.639 108.204C181.722 108.204 182.6 107.316 182.6 106.221C182.6 105.127 181.722 104.239 180.639 104.239C179.555 104.239 178.677 105.127 178.677 106.221C178.677 107.316 179.555 108.204 180.639 108.204Z" fill="#F9C5CE"/>
<path d="M183.754 102.488C184.501 102.488 185.106 101.876 185.106 101.122C185.106 100.367 184.501 99.7554 183.754 99.7554C183.008 99.7554 182.402 100.367 182.402 101.122C182.402 101.876 183.008 102.488 183.754 102.488Z" fill="#F9C5CE"/>
<path d="M203.021 117.237C204.105 117.237 204.983 116.349 204.983 115.255C204.983 114.16 204.105 113.272 203.021 113.272C201.938 113.272 201.059 114.16 201.059 115.255C201.059 116.349 201.938 117.237 203.021 117.237Z" fill="#F9C5CE"/>
</g>
<defs>
<clipPath id="clip0">
<rect width="375" height="140" fill="white"/>
</clipPath>
</defs>
</svg>
