<svg width="62" height="119" viewBox="0 0 62 119" fill="none" xmlns="http://www.w3.org/2000/svg">
<path d="M34.2255 113.055L33.9444 118.124L26.3362 118.893C26.3362 118.893 25.1238 116.234 27.9703 115.408C30.4653 114.681 30.5733 114.593 30.5733 114.593L30.7666 113.172L34.2255 113.055Z" fill="#007F36"/>
<path d="M57.2308 91.8043L61.9247 92.723L61.0587 100.259C61.0587 100.259 58.1821 100.866 57.9713 97.9311C57.7855 95.3569 57.7202 95.2349 57.7202 95.2349L56.3598 94.737L57.2308 91.8043Z" fill="#007F36"/>
<path d="M48.0688 82.4636C47.3861 80.5416 48.0688 68.3329 47.6798 66.411L36.1182 69.1321L20.9169 70.4814C20.9169 70.4814 18.3867 94.3312 28.8965 113.436L35.5132 113.097L35.8948 88.1646C37.3456 91.0151 39.3763 93.3926 42.2253 94.5577C52.5394 98.7402 56.6258 96.9328 56.6258 96.9328L57.5998 90.8284C57.5998 90.8284 48.7491 84.3954 48.0688 82.4636Z" fill="white"/>
<path d="M28.771 113.657L28.7058 113.538C18.2837 94.6025 20.6759 70.7029 20.701 70.454L20.7211 70.2772L36.083 68.913L47.8479 66.1471L47.8906 66.3637C48.0638 67.2201 48.0337 69.9113 47.996 73.0307C47.9509 76.9218 47.8981 81.3333 48.2722 82.3864C48.7943 83.8577 54.688 88.4359 57.7328 90.6491L57.8382 90.7263L56.8342 97.0746L56.7288 97.1219C56.5581 97.1991 52.4364 98.9219 42.155 94.7519C39.7377 93.771 37.707 91.8391 36.1106 88.9986L35.7341 113.296L28.771 113.657ZM21.1151 70.6781C20.9168 72.8838 19.2075 95.2648 29.022 113.214L35.2973 112.893L35.6939 87.2883L36.0905 88.0675C37.6945 91.2192 39.7854 93.3354 42.3081 94.3586C51.4977 98.0929 55.7322 97.0074 56.4351 96.7734L57.3688 90.923C56.3121 90.1512 48.5232 84.4029 47.8605 82.5332C47.4639 81.4105 47.5116 77.1484 47.5618 73.0307C47.5919 70.2922 47.622 67.6931 47.499 66.6749L36.1458 69.3461L21.1151 70.6781Z" fill="#007F36"/>
<path d="M35.8947 88.1646C35.8947 88.1646 32.9328 82.3939 31.9137 77.97L35.8947 88.1646Z" fill="white"/>
<path d="M35.7065 88.2617C35.6789 88.2044 32.7219 82.4187 31.7079 78.0172L32.1296 77.9226C33.1336 82.2718 36.0629 88.0127 36.093 88.07L35.7065 88.2617Z" fill="#007F36"/>
<path d="M31.6978 78.3757C31.5178 78.3779 31.3392 78.3445 31.1724 78.2774C31.0056 78.2103 30.854 78.1108 30.7264 77.9849L30.6812 77.9351L30.0738 72.4033L30.5055 72.356L31.0954 77.7434C31.2385 77.8604 31.7154 78.1616 32.4935 77.6861L32.1521 72.2091L32.5839 72.1818L32.9428 77.9077L32.8399 77.9749C32.5094 78.2211 32.1109 78.361 31.6978 78.3757Z" fill="#007F36"/>
<path d="M57.3563 92.2648C54.934 91.8142 48.3776 86.5737 46.7209 84.5473C45.2148 82.71 45.0441 76.4787 45.0241 75.2513C42.5591 75.0024 41.4898 71.9128 41.4446 71.7784L41.8563 71.6415C41.8563 71.6738 42.9331 74.7659 45.245 74.8356H45.4533V75.0422C45.4533 75.1169 45.5085 82.3888 47.0547 84.2684C48.6361 86.1953 55.1373 91.3985 57.4341 91.8267L57.3563 92.2648Z" fill="#007F36"/>
<path d="M45.3316 71.4201L44.9001 71.4349L45.0266 75.065L45.4581 75.0502L45.3316 71.4201Z" fill="#007F36"/>
<path d="M34.0146 113.097C33.9895 112.98 31.5823 101.197 33.3118 82.8793L33.7436 82.9191C32.0191 101.167 34.4138 112.893 34.4389 113.01L34.0146 113.097Z" fill="#007F36"/>
<path d="M40.5184 7.15499C40.5184 7.15499 37.6041 6.73177 37.0896 5.71106C36.8385 5.21315 37.7397 5.21315 38.3672 5.47953C38.6508 5.59903 38.8843 5.18327 38.7136 4.92934C38.2643 4.26463 37.692 2.66137 38.0133 2.11865C38.5605 1.19254 39.813 3.88871 39.813 3.88871C39.813 3.88871 38.6885 1.03321 39.5921 0.403357C40.4958 -0.226497 40.9401 3.60988 40.9401 3.60988C40.9401 3.60988 40.4606 0.809152 41.417 0.458127C42.3734 0.107101 41.9617 3.69453 41.9617 3.69453C41.9617 3.69453 42.1349 0.995867 43.0687 1.09545C44.0024 1.19503 42.4487 6.19652 42.4487 6.19652L40.5184 7.15499Z" fill="white"/>
<path d="M40.5535 7.37741H40.4857C40.177 7.3326 37.446 6.90689 36.8963 5.81647C36.8445 5.73528 36.8209 5.63953 36.829 5.54381C36.8372 5.44808 36.8767 5.35762 36.9414 5.2862C37.2326 4.9775 38.0007 5.10446 38.4475 5.2862C38.4475 5.2862 38.4751 5.2862 38.5052 5.2613C38.5299 5.23284 38.5454 5.19776 38.5498 5.16053C38.5543 5.12329 38.5475 5.08558 38.5304 5.05218C38.1312 4.45967 37.4108 2.7145 37.825 2.01245C37.8687 1.91839 37.94 1.83957 38.0296 1.78628C38.1191 1.73299 38.2228 1.7077 38.327 1.71371C38.5956 1.71371 38.8767 1.96266 39.1328 2.29626C38.9772 1.47471 38.9596 0.585947 39.4742 0.222475C39.548 0.164787 39.6363 0.128066 39.7296 0.116229C39.8229 0.104391 39.9176 0.11788 40.0038 0.155257C40.2925 0.282224 40.5209 0.727851 40.6941 1.26061C40.792 0.7876 40.9903 0.394253 41.3618 0.264797C41.4442 0.231194 41.5341 0.21994 41.6223 0.23219C41.7105 0.24444 41.7939 0.279753 41.8638 0.334504C42.0972 0.51624 42.2102 0.961868 42.2579 1.4772C42.3339 1.32015 42.4395 1.17901 42.5691 1.06145C42.6398 0.998275 42.7229 0.950376 42.8132 0.920802C42.9035 0.891228 42.9991 0.880626 43.0937 0.889671C43.163 0.897278 43.2297 0.920249 43.2888 0.95688C43.3479 0.993512 43.3979 1.04287 43.4351 1.10128C43.9723 1.91038 42.8854 5.5476 42.6595 6.26708L42.6344 6.3567L40.5535 7.37741ZM37.2627 5.56503C37.2627 5.56503 37.2627 5.58743 37.2828 5.61482C37.6543 6.36168 39.6549 6.80482 40.4832 6.93178L42.2679 6.04551C42.7925 4.33271 43.3749 1.79088 43.0686 1.33032C43.0536 1.3104 43.0486 1.3104 43.0461 1.3104C43.0093 1.30705 42.9722 1.31178 42.9375 1.32426C42.9028 1.33674 42.8713 1.35666 42.8452 1.3826C42.5039 1.6689 42.3181 2.57509 42.2353 3.21988C42.2177 3.44643 42.1976 3.62568 42.1851 3.71779L41.7559 3.68045C41.7559 3.61821 41.7709 3.41904 41.8061 3.15266C41.8939 2.01992 41.8437 0.857307 41.5902 0.663123C41.5751 0.663123 41.5576 0.638228 41.4998 0.663123C41.038 0.829922 40.9752 2.01245 41.0806 3.02819C41.1183 3.27714 41.1434 3.47381 41.1559 3.58086L40.7267 3.64061C40.7142 3.57091 40.6815 3.36925 40.6539 3.10038C40.4682 1.89296 40.1293 0.683039 39.818 0.546115C39.803 0.546115 39.7779 0.528688 39.7176 0.57101C39.1604 0.966847 39.6047 2.76927 40.0163 3.80741L39.6172 3.97421C39.2106 3.09789 38.5806 2.14938 38.2969 2.13444C38.2618 2.13444 38.2342 2.16183 38.199 2.22158C37.948 2.64978 38.45 4.14599 38.8918 4.80572C38.9611 4.91599 38.9936 5.04513 38.9845 5.17476C38.9755 5.30439 38.9255 5.42789 38.8416 5.52768C38.778 5.61036 38.6885 5.66968 38.5871 5.69628C38.4858 5.72288 38.3783 5.71524 38.2818 5.67457C37.825 5.47789 37.3506 5.49283 37.2627 5.56503Z" fill="#007F36"/>
<path d="M6.85513 73.8845C6.85513 73.8845 8.84817 76.1077 8.51684 77.2006C8.36623 77.6985 7.80898 77.9301 7.31951 76.638C7.19651 76.3193 6.66688 76.511 6.60412 76.8471C6.46105 77.6139 5.31392 78.9632 4.73408 79.13C3.69489 79.4313 5.10307 76.7376 5.10307 76.7376C5.10307 76.7376 3.48906 79.4586 2.39214 79.3093C1.29522 79.1599 4.08647 76.1799 4.08647 76.1799C4.08647 76.1799 2.04825 78.4205 1.10445 78.0147C0.160642 77.6089 3.40372 75.4106 3.40372 75.4106C3.40372 75.4106 0.966391 77.1359 0.353921 76.4289C-0.258548 75.7218 4.7868 73.2646 4.7868 73.2646L6.85513 73.8845Z" fill="white"/>
<path d="M2.47749 79.5284C2.43904 79.5308 2.40047 79.5308 2.36202 79.5284C2.27118 79.5225 2.18398 79.4907 2.11094 79.4368C2.0379 79.3829 1.98213 79.3093 1.95036 79.2246C1.84243 78.9259 2.07587 78.423 2.41975 77.8977C1.91773 78.2039 1.41571 78.3832 1.01911 78.2164C0.937885 78.1874 0.866547 78.1362 0.813272 78.0689C0.759997 78.0015 0.72694 77.9206 0.717893 77.8355C0.687771 77.5342 0.999026 77.121 1.42073 76.7102C0.918702 76.8621 0.44931 76.877 0.188257 76.5758C0.144827 76.5248 0.11385 76.4646 0.0977397 76.3998C0.0816298 76.3351 0.0808232 76.2675 0.0953827 76.2023C0.288662 75.2687 3.95846 73.4364 4.69141 73.0804L4.76923 73.0431L6.97562 73.6904L7.01579 73.7352C7.22915 73.9841 9.08162 76.0803 8.72267 77.2554C8.69453 77.3979 8.62109 77.5278 8.51313 77.6259C8.40517 77.724 8.26836 77.7852 8.12275 77.8006C7.85919 77.8006 7.4651 77.6288 7.1187 76.7077C7.1187 76.6928 7.1187 76.6778 7.05846 76.6828C7.00375 76.6891 6.95207 76.711 6.90972 76.746C6.86738 76.7809 6.8362 76.8273 6.82 76.8795C6.66939 77.6911 5.47708 79.1325 4.79684 79.3292C4.70508 79.3684 4.60325 79.3782 4.50559 79.3573C4.40793 79.3363 4.31932 79.2856 4.25214 79.2122C4.10907 79.0379 4.12162 78.7143 4.20947 78.3558C3.68235 78.9732 3.04979 79.5284 2.47749 79.5284ZM4.15676 76.4289C3.18283 77.4844 2.24907 78.774 2.35951 79.0827C2.35951 79.0977 2.41222 79.1051 2.42226 79.1051C3.11757 79.1948 4.31992 77.6438 4.91733 76.638L5.29635 76.8471C4.80939 77.7757 4.47303 78.774 4.58348 78.9533C4.58348 78.9533 4.6136 78.9533 4.67384 78.9359C5.17587 78.7915 6.26024 77.5243 6.39077 76.8172C6.42472 76.6727 6.50353 76.5423 6.6161 76.4445C6.72868 76.3467 6.86934 76.2864 7.0183 76.272C7.12403 76.2582 7.23136 76.2805 7.32261 76.3353C7.41386 76.39 7.48359 76.474 7.52032 76.5733C7.77133 77.2255 8.00477 77.3898 8.1102 77.3898C8.21562 77.3898 8.26583 77.2878 8.3085 77.1409C8.54696 76.3592 7.28939 74.7061 6.73214 74.0763L4.80688 73.4962C2.43231 74.6588 0.474411 75.931 0.517083 76.292C0.825828 76.643 2.16121 75.9832 3.08494 75.3658L3.28073 75.2289L3.53174 75.5824L3.32591 75.7243C1.97295 76.6704 1.0668 77.579 1.15214 77.7907C1.15214 77.7907 1.15214 77.7907 1.19231 77.8156C1.74955 78.0521 3.05231 76.9616 3.8204 76.15L3.92834 76.033L4.24963 76.3218L4.15676 76.4289Z" fill="#007F36"/>
<path d="M22.7342 37.7041C21.2041 38.0101 19.7687 38.6703 18.5448 39.631C15.6255 41.9214 10.4245 46.9055 7.0685 55.3301C4.73911 61.178 3.97603 66.6998 3.80534 73.2124L7.93198 74.5045C7.93198 74.5045 13.6099 60.5257 16.6045 56.413C16.6045 56.413 17.1065 70.5163 18.718 72C20.3295 73.4838 46.7134 72.8016 48.5583 70.6283C50.4032 68.4549 42.9231 54.4039 43.6083 45.0358C44.2936 35.6677 50.4534 24.766 48.2169 16.3538C45.6817 6.87116 42.6946 6.07202 42.6946 6.07202L39.9335 7.44127C39.9335 7.44127 41.2313 31.7193 33.741 35.4909L22.7342 37.7041Z" fill="#007F36"/>
<path d="M21.3988 33.3324C21.3988 33.3324 20.0785 34.1938 18.9815 32.1897C17.8846 30.1857 20.219 30.6014 20.219 30.6014C20.498 31.5563 20.8942 32.4735 21.3988 33.3324Z" fill="white"/>
<path d="M20.701 33.8229C20.5639 33.8225 20.4274 33.8058 20.2943 33.7731C19.6819 33.6213 19.1472 33.1358 18.7104 32.3342C18.3314 31.6421 18.2787 31.0894 18.5548 30.721C19.0117 30.0936 20.1462 30.2753 20.2743 30.3002L20.4625 30.3326L20.5152 30.5168C20.7868 31.4434 21.1712 32.3338 21.6598 33.1682L21.823 33.4171L21.572 33.5814C21.3091 33.7387 21.008 33.8222 20.701 33.8229ZM19.7647 30.8703C19.4836 30.8703 19.1723 30.9176 19.0543 31.0795C18.9364 31.2413 19.0066 31.5774 19.2551 32.0429C19.6041 32.6827 20.0082 33.0636 20.4349 33.1756C20.5999 33.2146 20.7719 33.2146 20.9369 33.1756C20.5425 32.4403 20.2222 31.6681 19.9806 30.8703C19.9128 30.8703 19.83 30.8703 19.7647 30.8703Z" fill="#FC9381"/>
<path d="M18.851 38.9837C18.851 38.9837 14.8097 60.7448 15.3594 63.0949C15.9092 65.445 18.1883 64.8027 18.4318 63.5156C18.7531 61.8252 21.6448 40.231 21.2256 38.568C20.8064 36.9049 19.1322 37.3207 18.851 38.9837Z" fill="#FC7459"/>
<path d="M34.6924 35.715C34.6924 35.715 44.2007 58.1209 45.9628 59.7988C47.7249 61.4768 49.2737 59.7017 48.7717 58.4918C48.1115 56.901 37.7271 35.2519 36.4545 34.0943C35.1819 32.9367 34.0121 34.169 34.6924 35.715Z" fill="#FC7459"/>
<path d="M42.9231 53.6943C43.7891 54.1449 45.3152 54.5781 45.5436 52.2006C45.5476 52.1531 45.567 52.1082 45.5989 52.0727C45.6309 52.0371 45.6736 52.0129 45.7207 52.0036C45.7678 51.9943 45.8167 52.0005 45.8599 52.0212C45.9032 52.0419 45.9384 52.0761 45.9603 52.1184L46.6205 53.3308C46.686 53.4511 46.7258 53.5835 46.7374 53.7197C46.7491 53.8559 46.7324 53.993 46.6883 54.1225C46.3946 54.9963 45.511 56.7415 43.3925 55.3797C43.3578 55.3571 43.3294 55.3263 43.3096 55.2901L42.647 53.9682C42.6258 53.9299 42.6177 53.8858 42.6239 53.8426C42.6301 53.7994 42.6503 53.7593 42.6814 53.7284C42.7125 53.6976 42.7529 53.6776 42.7965 53.6714C42.8401 53.6652 42.8845 53.6733 42.9231 53.6943Z" fill="#007F36"/>
<path d="M25.3849 69.6872C22.1217 69.6872 19.9028 69.5653 19.845 69.5628C19.8167 69.5613 19.7889 69.5543 19.7633 69.5422C19.7376 69.5301 19.7147 69.5131 19.6957 69.4921C19.6767 69.4712 19.662 69.4468 19.6526 69.4202C19.6431 69.3937 19.639 69.3656 19.6404 69.3375C19.6419 69.3093 19.649 69.2818 19.6612 69.2564C19.6734 69.231 19.6906 69.2082 19.7117 69.1894C19.7328 69.1705 19.7574 69.156 19.7841 69.1466C19.8109 69.1372 19.8393 69.1331 19.8676 69.1346C20.0308 69.1346 36.1457 70.0183 46.1912 66.9687C46.2184 66.9602 46.247 66.9572 46.2754 66.9597C46.3038 66.9623 46.3314 66.9704 46.3566 66.9836C46.3818 66.9968 46.4041 67.0148 46.4223 67.0366C46.4404 67.0584 46.454 67.0835 46.4623 67.1106C46.4781 67.1654 46.4717 67.2241 46.4445 67.2743C46.4173 67.3245 46.3715 67.3622 46.3168 67.3794C39.9109 69.3263 31.0477 69.6872 25.3849 69.6872Z" fill="white"/>
<path d="M30.6235 69.4582C30.5687 69.4583 30.516 69.4378 30.4759 69.4008C30.4358 69.3639 30.4114 69.3132 30.4076 69.259L28.6832 42.1405C28.6795 42.0837 28.6987 42.0278 28.7366 41.9851C28.7745 41.9423 28.828 41.9163 28.8852 41.9127C28.9425 41.909 28.9988 41.9281 29.0419 41.9657C29.085 42.0033 29.1112 42.0563 29.1149 42.1131L30.8393 69.2316C30.841 69.2598 30.8371 69.2879 30.8278 69.3146C30.8185 69.3412 30.804 69.3657 30.7851 69.3868C30.7662 69.4078 30.7433 69.425 30.7177 69.4372C30.6922 69.4495 30.6644 69.4566 30.636 69.4582H30.6235Z" fill="white"/>
<path d="M32.7219 69.274C32.668 69.2742 32.6159 69.2544 32.576 69.2185C32.536 69.1825 32.5111 69.1331 32.5061 69.0798L29.9332 41.9115C29.9279 41.8547 29.9455 41.7981 29.9822 41.7542C30.0189 41.7103 30.0717 41.6827 30.129 41.6774C30.1862 41.6722 30.2433 41.6896 30.2875 41.7261C30.3318 41.7625 30.3596 41.8148 30.3649 41.8716L32.9378 69.04C32.9406 69.0681 32.9377 69.0965 32.9293 69.1235C32.921 69.1506 32.9073 69.1757 32.8891 69.1974C32.8709 69.2192 32.8485 69.2372 32.8233 69.2503C32.798 69.2634 32.7704 69.2715 32.742 69.274H32.7219Z" fill="white"/>
<path d="M28.7735 42.1578C28.1966 42.1629 27.6315 41.9955 27.152 41.6773C25.676 40.7088 25.1439 38.5454 24.9682 37.6592C24.9405 37.5161 24.9701 37.368 25.0507 37.2462C25.1313 37.1244 25.2566 37.0386 25.3999 37.0069L26.4492 36.758C26.504 36.7475 26.5607 36.7585 26.6075 36.7887C26.6543 36.8189 26.6875 36.8658 26.7002 36.9198C26.7101 36.9741 26.6987 37.0301 26.6684 37.0763C26.638 37.1226 26.5911 37.1557 26.537 37.1687L25.4878 37.4177C25.4534 37.4254 25.4235 37.4462 25.4043 37.4754C25.3851 37.5047 25.3781 37.5402 25.3849 37.5745C25.5405 38.406 26.045 40.435 27.393 41.3088C27.6992 41.5039 28.043 41.6337 28.4026 41.6898C28.7621 41.746 29.1295 41.7273 29.4814 41.635C30.4302 41.4258 32.5487 40.4848 31.7229 36.2725C31.7119 36.2167 31.6797 36.1673 31.633 36.1344C31.5863 36.1015 31.5286 36.0877 31.4719 36.0957L30.7515 36.2152C30.7234 36.2206 30.6946 36.2203 30.6666 36.2144C30.6387 36.2085 30.6122 36.1971 30.5888 36.1808C30.5654 36.1645 30.5455 36.1438 30.5303 36.1198C30.5152 36.0958 30.505 36.069 30.5005 36.041C30.4954 36.0132 30.496 35.9847 30.5021 35.9571C30.5082 35.9295 30.5198 35.9034 30.5361 35.8802C30.5524 35.8571 30.5732 35.8374 30.5973 35.8222C30.6213 35.8071 30.6481 35.7968 30.6762 35.792L31.3966 35.6725C31.5653 35.6454 31.738 35.6842 31.8785 35.7807C32.0189 35.8773 32.1161 36.0241 32.1496 36.1903C32.3831 37.3828 32.8876 41.3263 29.5768 42.0557C29.3136 42.1187 29.0442 42.1529 28.7735 42.1578Z" fill="white"/>
<path d="M25.3522 38.4933C25.2996 38.4942 25.2484 38.476 25.2083 38.4421C25.1683 38.4083 25.1421 38.361 25.1347 38.3093C25.1272 38.2576 25.1392 38.205 25.1681 38.1614C25.1971 38.1178 25.2412 38.0862 25.292 38.0725L26.66 37.6643C26.7149 37.6477 26.7742 37.6536 26.8248 37.6804C26.8754 37.7072 26.9132 37.7529 26.9298 37.8074C26.9465 37.8619 26.9406 37.9207 26.9136 37.9709C26.8865 38.0211 26.8404 38.0585 26.7855 38.075L25.415 38.4833C25.3949 38.4904 25.3736 38.4938 25.3522 38.4933Z" fill="white"/>
<path d="M25.7212 39.5388C25.6767 39.5393 25.6331 39.5261 25.5965 39.501C25.5598 39.4759 25.5319 39.4402 25.5165 39.3988C25.5011 39.3573 25.499 39.3122 25.5105 39.2695C25.522 39.2268 25.5465 39.1887 25.5806 39.1604C25.6409 39.1131 26.1304 38.8642 27.034 38.4136C27.0853 38.3886 27.1445 38.3847 27.1986 38.4029C27.2527 38.4211 27.2973 38.4599 27.3227 38.5107C27.348 38.5619 27.3519 38.6209 27.3336 38.675C27.3152 38.7291 27.2761 38.7738 27.2248 38.7994C26.6123 39.0982 25.9195 39.4442 25.8417 39.4965C25.8059 39.5207 25.7644 39.5353 25.7212 39.5388Z" fill="white"/>
<path d="M26.3563 40.7686C26.3135 40.7688 26.2715 40.7564 26.2359 40.7329C26.2002 40.7094 26.1724 40.6758 26.1559 40.6366C26.1395 40.5974 26.1353 40.5542 26.1437 40.5125C26.1521 40.4709 26.1728 40.4326 26.2032 40.4027L27.3377 39.2799C27.3576 39.2599 27.3812 39.2441 27.4073 39.2333C27.4334 39.2225 27.4613 39.2169 27.4896 39.2169C27.5179 39.2169 27.5458 39.2225 27.5719 39.2333C27.598 39.2441 27.6216 39.2599 27.6415 39.2799C27.6617 39.2998 27.6777 39.3235 27.6886 39.3495C27.6995 39.3756 27.7052 39.4035 27.7052 39.4318C27.7052 39.46 27.6995 39.4879 27.6886 39.514C27.6777 39.5401 27.6617 39.5637 27.6415 39.5836L26.5094 40.7064C26.4893 40.7264 26.4655 40.7422 26.4392 40.7528C26.4129 40.7635 26.3847 40.7689 26.3563 40.7686Z" fill="white"/>
<path d="M27.2474 41.6599C27.2093 41.66 27.1719 41.6497 27.1394 41.63C27.1147 41.6163 27.0929 41.5978 27.0755 41.5757C27.058 41.5536 27.0451 41.5282 27.0377 41.5011C27.0302 41.474 27.0282 41.4456 27.0319 41.4178C27.0356 41.3899 27.0448 41.363 27.0591 41.3387L27.9276 39.845C27.9562 39.7958 28.0034 39.7599 28.0587 39.7452C28.114 39.7305 28.173 39.7382 28.2226 39.7666C28.2721 39.795 28.3083 39.8418 28.3232 39.8966C28.338 39.9515 28.3302 40.0099 28.3016 40.0591L27.4331 41.5528C27.4145 41.5854 27.3875 41.6124 27.3548 41.6312C27.3222 41.65 27.2851 41.6599 27.2474 41.6599Z" fill="white"/>
<path d="M28.9392 42.128C28.8817 42.1254 28.8276 42.1004 28.7886 42.0584C28.7495 42.0165 28.7288 41.961 28.7309 41.9039L28.7886 40.1388C28.7959 40.0857 28.8229 40.0371 28.8643 40.0026C28.9056 39.968 28.9585 39.9499 29.0125 39.9518C29.0666 39.9536 29.118 39.9753 29.1569 40.0126C29.1957 40.05 29.2192 40.1003 29.2228 40.1538L29.1626 41.9189C29.1619 41.9472 29.1556 41.9751 29.144 42.001C29.1324 42.0269 29.1157 42.0503 29.0949 42.0697C29.0742 42.0892 29.0497 42.1043 29.023 42.1143C28.9962 42.1243 28.9677 42.129 28.9392 42.128Z" fill="white"/>
<path d="M30.7063 41.5131C30.6682 41.5133 30.6307 41.5035 30.5976 41.4847C30.5646 41.4659 30.5371 41.4388 30.5181 41.406L29.6194 39.86C29.5908 39.8105 29.5832 39.7517 29.5983 39.6966C29.6133 39.6415 29.6498 39.5946 29.6998 39.5662C29.7497 39.5378 29.809 39.5303 29.8645 39.5452C29.92 39.5602 29.9673 39.5964 29.996 39.6459L30.8921 41.1919C30.9118 41.2242 30.9224 41.2612 30.9229 41.299C30.9233 41.3368 30.9136 41.374 30.8946 41.4068C30.8757 41.4395 30.8482 41.4667 30.8151 41.4854C30.782 41.5041 30.7444 41.5136 30.7063 41.5131Z" fill="white"/>
<path d="M31.6752 40.2583C31.6259 40.2585 31.578 40.2418 31.5397 40.211L30.2846 39.1878C30.262 39.1702 30.2431 39.1483 30.2292 39.1234C30.2152 39.0985 30.2064 39.0711 30.2032 39.0427C30.2001 39.0144 30.2027 38.9857 30.2108 38.9584C30.219 38.9311 30.2326 38.9056 30.2508 38.8836C30.269 38.8615 30.2915 38.8433 30.3169 38.83C30.3424 38.8167 30.3702 38.8085 30.3988 38.806C30.4275 38.8035 30.4563 38.8067 30.4837 38.8154C30.5111 38.8241 30.5364 38.8381 30.5582 38.8567L31.8133 39.8774C31.8483 39.9053 31.8736 39.9434 31.8858 39.9863C31.8979 40.0291 31.8963 40.0747 31.8811 40.1166C31.8659 40.1586 31.8379 40.1947 31.801 40.2201C31.7641 40.2455 31.7201 40.2589 31.6752 40.2583Z" fill="white"/>
<path d="M32.0442 38.5654C32.0216 38.5654 31.9664 38.5654 30.5381 38.3165C30.5101 38.3114 30.4834 38.3009 30.4595 38.2856C30.4355 38.2703 30.4149 38.2504 30.3987 38.2272C30.3825 38.204 30.371 38.1778 30.365 38.1502C30.359 38.1226 30.3586 38.0941 30.3637 38.0663C30.3688 38.0385 30.3794 38.012 30.3948 37.9882C30.4103 37.9645 30.4303 37.944 30.4537 37.928C30.4771 37.9119 30.5035 37.9006 30.5313 37.8946C30.5592 37.8886 30.5879 37.8882 30.616 37.8933C31.118 37.9854 31.9664 38.1422 32.0492 38.1422C32.1047 38.1478 32.156 38.1741 32.1927 38.2156C32.2295 38.2572 32.2491 38.311 32.2475 38.3663C32.244 38.4183 32.2213 38.4673 32.1839 38.504C32.1464 38.5407 32.0968 38.5625 32.0442 38.5654Z" fill="white"/>
<path d="M31.8534 37.2112C31.6777 37.2112 31.3238 37.2112 30.5984 37.1788C30.5409 37.1769 30.4865 37.1525 30.447 37.111C30.4076 37.0695 30.3862 37.0143 30.3875 36.9573C30.3908 36.9009 30.4158 36.848 30.4574 36.8095C30.499 36.771 30.554 36.7499 30.6109 36.7506C31.1933 36.7681 31.866 36.7855 31.9563 36.7805C32.0106 36.7708 32.0666 36.7821 32.1127 36.812C32.1589 36.8419 32.1917 36.8882 32.2046 36.9413C32.2174 36.9945 32.2093 37.0506 32.1818 37.098C32.1543 37.1454 32.1096 37.1805 32.0568 37.1963C31.9905 37.2134 31.9216 37.2185 31.8534 37.2112Z" fill="white"/>
<path d="M26.4441 35.5532C26.4441 35.5532 26.5571 40.1514 29.0973 39.9547C31.6376 39.758 30.0462 34.6271 30.0462 34.6271L26.4441 35.5532Z" fill="white"/>
<path d="M28.9392 40.1762C28.4538 40.1815 27.9844 40.0035 27.6264 39.6783C26.3136 38.5057 26.2308 35.695 26.2283 35.568V35.3988L30.1968 34.3781L30.257 34.5722C30.3022 34.7141 31.3188 38.0576 30.3223 39.5065C30.1887 39.7044 30.01 39.8683 29.8007 39.9851C29.5914 40.1019 29.3573 40.1682 29.1174 40.1787C29.0572 40.177 28.9978 40.1762 28.9392 40.1762ZM26.6675 35.7174C26.7077 36.3323 26.9186 38.4559 27.9226 39.3497C28.0773 39.4936 28.2613 39.603 28.4622 39.6704C28.6631 39.7378 28.8763 39.7617 29.0873 39.7405C29.2621 39.7345 29.4329 39.6874 29.5857 39.603C29.7384 39.5186 29.8688 39.3993 29.9658 39.2551C30.7189 38.1522 30.1014 35.6129 29.9031 34.8859L26.6675 35.7174Z" fill="#007F36"/>
<path d="M21.587 35.4735C21.587 35.4735 17.9549 36.4693 16.7325 31.8686C15.51 27.268 18.8259 20.8698 23.3441 19.7321C27.8623 18.5944 32.9428 20.23 34.8555 25.1195C36.7683 30.0089 34.0147 32.0902 33.2114 32.6653C32.4082 33.2404 21.587 35.4735 21.587 35.4735Z" fill="#FC7459"/>
<path d="M31.9513 28.0696C31.9513 28.0696 33.1863 26.7875 33.7762 28.2912C34.4615 30.0339 33.4675 31.5276 31.9513 31.4131C32.1338 30.3059 32.1338 29.1768 31.9513 28.0696Z" fill="white"/>
<path d="M32.107 31.632H31.9338L31.6828 31.6121L31.7279 31.3756C31.9032 30.2938 31.9032 29.1912 31.7279 28.1094L31.7079 28.0048L31.7832 27.9251C31.8108 27.8977 32.4559 27.2355 33.1236 27.3675C33.49 27.4397 33.7737 27.726 33.967 28.2189C34.341 29.1724 34.2607 30.1458 33.7561 30.8254C33.5649 31.0794 33.3158 31.2848 33.0291 31.425C32.7425 31.5652 32.4265 31.6362 32.107 31.632ZM32.1823 28.1467C32.337 29.1586 32.3446 30.1873 32.2049 31.2014C32.4422 31.1919 32.6743 31.1297 32.8841 31.0194C33.094 30.9091 33.2762 30.7535 33.4173 30.564C33.8339 30.0039 33.8942 29.1848 33.5754 28.3683C33.4373 28.0222 33.2616 27.8255 33.0483 27.7832C32.7194 27.721 32.3404 28.0073 32.1823 28.1467Z" fill="#007F36"/>
<path d="M20.3169 30.5317C20.3169 30.5317 20.8943 36.9722 27.5335 35.8992C34.1728 34.8262 31.6451 27.0987 31.6451 27.0987L25.2242 24.7361L20.3169 30.5317Z" fill="white"/>
<path d="M26.1053 36.2327C24.8132 36.2721 23.5461 35.8734 22.5133 35.1025C20.3872 33.4668 20.1136 30.6686 20.1036 30.5516V30.462L25.1665 24.4871L31.8283 26.9368L31.861 27.0363C31.9137 27.1982 33.1411 31.0445 31.4819 33.7407C30.6913 35.0253 29.3785 35.8244 27.5762 36.1157C27.0899 36.1941 26.598 36.2332 26.1053 36.2327ZM20.5428 30.5989C20.6081 31.0744 21.0047 33.3996 22.7819 34.7664C23.9817 35.69 25.5681 35.9987 27.4984 35.6875C29.1676 35.4161 30.3825 34.6917 31.1029 33.5141C32.5186 31.2113 31.6476 27.8728 31.4694 27.2604L25.292 24.9899L20.5428 30.5989Z" fill="#007F36"/>
<path d="M17.2998 25.3435L12.4176 29.1749C12.3186 29.2977 12.2584 29.4468 12.2447 29.6035C12.231 29.7602 12.2644 29.9174 12.3406 30.0553C12.4169 30.1932 12.5325 30.3056 12.6731 30.3784C12.8136 30.4512 12.9728 30.4812 13.1304 30.4644C17.6662 29.9914 29.5341 28.3558 38.6308 23.6182C38.7646 23.5472 38.8758 23.4404 38.9514 23.3099C39.0271 23.1794 39.0643 23.0304 39.0588 22.8799C39.0533 22.7294 39.0054 22.5835 38.9204 22.4588C38.8354 22.334 38.7168 22.2354 38.578 22.1743L32.7094 21.7037C32.6082 21.6592 32.5174 21.5944 32.4427 21.5135C32.368 21.4325 32.3109 21.3371 32.2751 21.2332L30.9799 18.8233C30.9206 18.6816 30.8251 18.5577 30.7027 18.4638C30.5803 18.3699 30.4353 18.3093 30.2821 18.2881C26.2659 17.4143 21.8029 17.5935 17.9097 21.044C17.8071 21.1241 17.7235 21.2256 17.6649 21.3414C17.6064 21.4571 17.5742 21.5842 17.5708 21.7137L17.4654 24.8306C17.4715 25.0154 17.4129 25.1966 17.2998 25.3435Z" fill="white"/>
<path d="M13.0526 30.6836C12.8611 30.6823 12.6739 30.6276 12.5122 30.5259C12.3505 30.4241 12.2209 30.2793 12.1382 30.108C12.0555 29.9367 12.023 29.7457 12.0445 29.557C12.0659 29.3683 12.1404 29.1893 12.2594 29.0405L12.2946 29.0057L17.1441 25.1917C17.2195 25.0882 17.2591 24.9633 17.2571 24.8357L17.3625 21.7063C17.3654 21.5487 17.4029 21.3936 17.4722 21.2518C17.5416 21.1099 17.6412 20.9847 17.7641 20.8848C21.1453 17.8973 25.2543 16.9712 30.3273 18.0791C30.5149 18.1065 30.6922 18.1817 30.8417 18.2973C30.9913 18.4129 31.1081 18.5651 31.1807 18.7388L32.4785 21.1611C32.5288 21.3039 32.632 21.4223 32.7671 21.4922L38.6659 21.9902C38.842 22.0672 38.9926 22.1918 39.1005 22.3498C39.2084 22.5078 39.2693 22.6928 39.2761 22.8835C39.2829 23.0742 39.2354 23.263 39.139 23.4282C39.0426 23.5934 38.9013 23.7283 38.7312 23.8175C29.637 28.5476 17.8143 30.2006 13.153 30.6886L13.0526 30.6836ZM12.5832 29.3243C12.5165 29.4145 12.4773 29.5218 12.4702 29.6334C12.4631 29.7451 12.4884 29.8564 12.5431 29.9542C12.598 30.0549 12.6822 30.137 12.7847 30.1898C12.8871 30.2426 13.0032 30.2637 13.1179 30.2504C17.7541 29.7675 29.5115 28.1318 38.5404 23.4291C38.636 23.3789 38.7161 23.3039 38.7719 23.212C38.8277 23.1201 38.8572 23.0148 38.8572 22.9075C38.8572 22.8003 38.8277 22.695 38.7719 22.6031C38.7161 22.5112 38.636 22.4361 38.5404 22.386L32.6316 21.908C32.5056 21.853 32.3922 21.7732 32.2981 21.6735C32.2041 21.5738 32.1314 21.4563 32.0844 21.3279L30.7841 18.9031C30.7349 18.7968 30.6594 18.7046 30.5646 18.6349C30.4698 18.5653 30.3588 18.5205 30.242 18.5048C25.3071 17.4268 21.321 18.3081 18.0528 21.2035C17.9789 21.2651 17.9186 21.3411 17.8754 21.4267C17.8322 21.5123 17.8072 21.6058 17.8018 21.7014L17.6964 24.8282C17.6993 25.06 17.6222 25.2857 17.478 25.468L17.4428 25.5029L12.5832 29.3243Z" fill="#007F36"/>
<path d="M17.2245 23.9892L17.0989 24.883C17.0879 24.9616 17.0939 25.0417 17.1163 25.1179C17.1387 25.1941 17.1771 25.2648 17.2291 25.3252C17.281 25.3856 17.3452 25.4345 17.4175 25.4685C17.4899 25.5026 17.5686 25.5211 17.6487 25.5228C19.8726 25.5676 27.4181 25.4456 32.3354 21.9777C32.4421 21.9013 32.5183 21.7901 32.5509 21.6637C32.5834 21.5372 32.5703 21.4034 32.5136 21.2856L32.25 20.7255C32.217 20.6545 32.1694 20.5911 32.1103 20.5395C32.0511 20.4878 31.9817 20.449 31.9065 20.4256C31.8314 20.4021 31.7521 20.3945 31.6737 20.4033C31.5954 20.4121 31.5198 20.437 31.4518 20.4765C30.1365 21.2234 26.1806 23.0308 17.7591 23.5063C17.6274 23.513 17.5021 23.5648 17.4046 23.6529C17.3071 23.7409 17.2435 23.8598 17.2245 23.9892Z" fill="#FC7459"/>
<path d="M24.3795 31.9657C24.6226 31.8989 24.7363 31.5461 24.6334 31.1777C24.5304 30.8094 24.2499 30.565 24.0068 30.6318C23.7636 30.6986 23.65 31.0514 23.7529 31.4198C23.8558 31.7881 24.1363 32.0325 24.3795 31.9657Z" fill="#007F36"/>
<path d="M28.4431 30.975C28.6863 30.9082 28.7999 30.5554 28.697 30.187C28.5941 29.8187 28.3135 29.5742 28.0704 29.6411C27.8272 29.7079 27.7136 30.0607 27.8165 30.429C27.9194 30.7974 28.2 31.0418 28.4431 30.975Z" fill="#007F36"/>
<path d="M25.2995 33.1258L28.4372 32.3789C28.4372 32.3789 28.756 33.8602 27.2047 34.2311C25.6986 34.5846 25.2995 33.1258 25.2995 33.1258Z" fill="#FC7459"/>
<path d="M25.9245 31.3683C25.8948 31.3698 25.8652 31.3627 25.8395 31.3478C25.8138 31.3329 25.793 31.3109 25.7796 31.2845C25.7663 31.2581 25.7611 31.2284 25.7645 31.199C25.7679 31.1697 25.7799 31.142 25.799 31.1193C25.8589 31.0166 25.9411 30.9284 26.0396 30.8612C26.1382 30.794 26.2507 30.7495 26.3688 30.7309C26.5875 30.7148 26.8039 30.7845 26.9713 30.9251C26.9975 30.953 27.0124 30.9896 27.013 31.0278C27.0137 31.0659 27 31.1029 26.9748 31.1317C26.9495 31.1605 26.9144 31.179 26.8762 31.1836C26.838 31.1882 26.7994 31.1786 26.7679 31.1566C26.6677 31.0697 26.5368 31.0258 26.404 31.0347C26.3312 31.0498 26.2624 31.0797 26.2019 31.1226C26.1414 31.1654 26.0906 31.2203 26.0526 31.2836C26.0411 31.308 26.0231 31.3288 26.0005 31.3437C25.9779 31.3586 25.9516 31.3671 25.9245 31.3683Z" fill="#007F36"/>
<path d="M16.1577 56.8387C16.5743 57.7175 17.5282 58.9747 19.1698 57.2122C19.2018 57.1773 19.2443 57.1536 19.2909 57.1446C19.3376 57.1356 19.386 57.1417 19.4288 57.1621C19.4717 57.1825 19.5067 57.2161 19.5288 57.2579C19.5509 57.2996 19.5588 57.3473 19.5513 57.3939L19.3279 58.7532C19.3071 58.8883 19.2585 59.0176 19.1851 59.1333C19.1117 59.2489 19.015 59.3483 18.9012 59.4253C18.1482 59.9457 16.3685 60.8095 15.51 58.4519C15.4987 58.4129 15.4987 58.3715 15.51 58.3324L15.7862 56.881C15.7975 56.8432 15.8199 56.8095 15.8504 56.7841C15.8809 56.7587 15.9183 56.7428 15.9578 56.7383C15.9974 56.7337 16.0374 56.7409 16.073 56.7587C16.1085 56.7766 16.1379 56.8044 16.1577 56.8387Z" fill="#007F36"/>
</svg>
