<svg width="375" height="140" viewBox="0 0 375 140" fill="none" xmlns="http://www.w3.org/2000/svg">
<g clip-path="url(#clip0)">
<path d="M114 0H429V140H114V0Z" fill="#4BA36F"/>
<path d="M114 32C114 14.3269 128.327 0 146 0H397C414.673 0 429 14.3269 429 32V140H114V32Z" fill="#007F36"/>
<g clip-path="url(#clip1)">
<path d="M171.826 144.582C168.191 135.82 165.835 126.417 164.313 117.72C164.787 113.163 171.69 106.123 171.766 106.058L171.07 105.365C170.816 105.623 165.705 110.819 163.917 115.387C163.374 111.981 162.951 108.713 162.636 105.663C162.777 104.798 164.138 97.0719 168.869 90.9249L168.093 90.3238C164.834 94.5601 163.141 99.4109 162.325 102.492C161.402 92.248 161.574 85.1344 161.579 84.9819L160.6 84.9528C160.6 85.0851 160.465 90.4292 161.024 98.5094C159.43 95.0064 157.336 94.7171 157.224 94.6969L157.106 95.6747C157.139 95.6747 160.351 96.2331 161.471 103.804C161.762 106.807 162.142 110.052 162.652 113.447C161.521 111.727 160.013 110.29 158.243 109.245L157.776 110.11C157.819 110.133 162.084 112.517 163.213 117.235H163.235C163.264 117.406 163.293 117.576 163.325 117.747C163.324 117.767 163.324 117.787 163.325 117.807H163.34C164.872 126.58 167.243 136.098 170.921 144.97L171.826 144.582Z" fill="#0D562A"/>
<path d="M171.263 106.188C171.263 106.188 168.261 104.899 170.662 100.254C173.063 95.6096 176.836 98.1886 177.093 100.167C177.093 100.167 179.152 100.339 179.581 103.349C180.01 106.358 175.557 107.386 174.006 107.65C172.454 107.915 171.52 107.049 171.263 106.188Z" fill="#75A5F9"/>
<path d="M176.72 100.75C176.326 100.595 176.006 100.295 175.825 99.911C175.602 99.4154 175.182 98.7897 174.538 98.6215C173.434 98.3389 172.973 98.8211 172.812 99.162C172.651 99.5028 172.834 100.644 174.41 101.47C174.715 101.643 174.952 101.916 175.081 102.243C175.481 103.163 176.445 104.878 178.007 104.638C179.847 104.354 178.347 101.914 177.951 101.573C177.593 101.227 177.176 100.948 176.72 100.75Z" fill="#3166F7"/>
<path d="M177.583 102.246C177.997 102.246 178.334 101.908 178.334 101.492C178.334 101.076 177.997 100.739 177.583 100.739C177.168 100.739 176.831 101.076 176.831 101.492C176.831 101.908 177.168 102.246 177.583 102.246Z" fill="#FCC62D"/>
<path d="M175.722 101.961C176.137 101.961 176.474 101.623 176.474 101.207C176.474 100.791 176.137 100.454 175.722 100.454C175.308 100.454 174.971 100.791 174.971 101.207C174.971 101.623 175.308 101.961 175.722 101.961Z" fill="#FCC62D"/>
<path d="M175.656 100.09C176.07 100.09 176.407 99.753 176.407 99.3369C176.407 98.9207 176.07 98.5834 175.656 98.5834C175.241 98.5834 174.905 98.9207 174.905 99.3369C174.905 99.753 175.241 100.09 175.656 100.09Z" fill="#FCC62D"/>
<path d="M177.627 100.281C178.042 100.281 178.378 99.9437 178.378 99.5276C178.378 99.1114 178.042 98.774 177.627 98.774C177.212 98.774 176.876 99.1114 176.876 99.5276C176.876 99.9437 177.212 100.281 177.627 100.281Z" fill="#FCC62D"/>
<path d="M157.613 95.9348C157.613 95.9348 156.437 98.996 151.723 96.7534C147.008 94.5108 149.447 90.6378 151.403 90.3081C151.403 90.3081 151.499 88.2382 154.484 87.6999C157.468 87.1617 158.657 91.5954 158.97 93.1316C159.283 94.6678 158.46 95.6455 157.613 95.9348Z" fill="#75A5F9"/>
<path d="M151.998 90.6557C151.855 91.0528 151.569 91.3812 151.195 91.5752C150.71 91.8196 150.098 92.2682 149.957 92.914C149.713 94.0286 150.212 94.4659 150.565 94.6229C150.918 94.7799 152.04 94.5467 152.8 92.9365C152.961 92.6214 153.225 92.3713 153.547 92.2278C154.441 91.7927 156.122 90.7656 155.825 89.207C155.476 87.3725 153.098 88.9648 152.773 89.3752C152.439 89.7511 152.177 90.1851 151.998 90.6557Z" fill="#3166F7"/>
<path d="M152.704 90.5234C153.119 90.5234 153.455 90.186 153.455 89.7699C153.455 89.3537 153.119 89.0164 152.704 89.0164C152.289 89.0164 151.953 89.3537 151.953 89.7699C151.953 90.186 152.289 90.5234 152.704 90.5234Z" fill="#FCC62D"/>
<path d="M152.489 92.3983C152.904 92.3983 153.241 92.0609 153.241 91.6448C153.241 91.2286 152.904 90.8912 152.489 90.8912C152.075 90.8912 151.738 91.2286 151.738 91.6448C151.738 92.0609 152.075 92.3983 152.489 92.3983Z" fill="#FCC62D"/>
<path d="M150.627 92.5328C151.042 92.5328 151.379 92.1954 151.379 91.7793C151.379 91.3631 151.042 91.0258 150.627 91.0258C150.213 91.0258 149.876 91.3631 149.876 91.7793C149.876 92.1954 150.213 92.5328 150.627 92.5328Z" fill="#FCC62D"/>
<path d="M150.746 90.5504C151.161 90.5504 151.497 90.213 151.497 89.7969C151.497 89.3807 151.161 89.0433 150.746 89.0433C150.331 89.0433 149.995 89.3807 149.995 89.7969C149.995 90.213 150.331 90.5504 150.746 90.5504Z" fill="#FCC62D"/>
<path d="M161.071 84.9684C161.071 84.9684 158.087 86.2781 156.359 81.3421C154.631 76.4061 159.086 75.4149 160.7 76.581C160.7 76.581 162.234 75.1951 164.724 76.9443C167.214 78.6936 164.901 82.6585 164.031 83.9637C163.161 85.2689 161.88 85.3698 161.071 84.9684Z" fill="#75A5F9"/>
<path d="M160.87 77.2425C160.49 77.422 160.055 77.4485 159.656 77.3165C159.135 77.1551 158.389 77.0183 157.837 77.3816C156.875 77.9938 156.916 78.6554 157.045 79.012C157.175 79.3685 158.138 80.0122 159.819 79.4246C160.155 79.318 160.517 79.3298 160.845 79.4582C161.787 79.7969 163.693 80.2678 164.588 78.9581C165.641 77.4197 162.842 76.8456 162.323 76.9017C161.822 76.9267 161.33 77.0422 160.87 77.2425Z" fill="#3166F7"/>
<path d="M161.997 77.8862C162.412 77.8862 162.748 77.5488 162.748 77.1327C162.748 76.7165 162.412 76.3792 161.997 76.3792C161.582 76.3792 161.246 76.7165 161.246 77.1327C161.246 77.5488 161.582 77.8862 161.997 77.8862Z" fill="#FCC62D"/>
<path d="M160.517 79.0503C160.932 79.0503 161.268 78.7129 161.268 78.2967C161.268 77.8806 160.932 77.5432 160.517 77.5432C160.102 77.5432 159.766 77.8806 159.766 78.2967C159.766 78.7129 160.102 79.0503 160.517 79.0503Z" fill="#FCC62D"/>
<path d="M159.113 77.8167C159.528 77.8167 159.864 77.4794 159.864 77.0632C159.864 76.6471 159.528 76.3097 159.113 76.3097C158.698 76.3097 158.362 76.6471 158.362 77.0632C158.362 77.4794 158.698 77.8167 159.113 77.8167Z" fill="#FCC62D"/>
<path d="M160.602 76.507C161.017 76.507 161.353 76.1697 161.353 75.7535C161.353 75.3374 161.017 75 160.602 75C160.187 75 159.851 75.3374 159.851 75.7535C159.851 76.1697 160.187 76.507 160.602 76.507Z" fill="#FCC62D"/>
<path d="M158.686 110.29C158.686 110.29 157.3 113.255 152.753 110.696C148.206 108.137 150.898 104.437 152.878 104.244C152.878 104.244 153.118 102.187 156.131 101.855C159.144 101.524 160.025 106.029 160.233 107.585C160.441 109.142 159.551 110.059 158.686 110.29Z" fill="#3166F7"/>
<path d="M153.446 104.632C153.277 105.022 152.966 105.332 152.577 105.5C152.076 105.724 151.437 106.107 151.251 106.746C150.931 107.845 151.396 108.316 151.732 108.496C152.067 108.675 153.209 108.523 154.083 106.969C154.266 106.666 154.546 106.434 154.877 106.311C155.807 105.944 157.546 105.033 157.358 103.457C157.135 101.604 154.656 103.026 154.302 103.414C153.946 103.765 153.656 104.177 153.446 104.632Z" fill="#75A5F9"/>
<path d="M154.213 104.551C154.628 104.551 154.964 104.214 154.964 103.797C154.964 103.381 154.628 103.044 154.213 103.044C153.798 103.044 153.462 103.381 153.462 103.797C153.462 104.214 153.798 104.551 154.213 104.551Z" fill="#FCC62D"/>
<path d="M153.869 106.408C154.284 106.408 154.62 106.071 154.62 105.654C154.62 105.238 154.284 104.901 153.869 104.901C153.454 104.901 153.118 105.238 153.118 105.654C153.118 106.071 153.454 106.408 153.869 106.408Z" fill="#FCC62D"/>
<path d="M152.002 106.412C152.417 106.412 152.754 106.075 152.754 105.659C152.754 105.243 152.417 104.905 152.002 104.905C151.588 104.905 151.251 105.243 151.251 105.659C151.251 106.075 151.588 106.412 152.002 106.412Z" fill="#FCC62D"/>
<path d="M152.259 104.443C152.674 104.443 153.01 104.106 153.01 103.69C153.01 103.274 152.674 102.936 152.259 102.936C151.844 102.936 151.508 103.274 151.508 103.69C151.508 104.106 151.844 104.443 152.259 104.443Z" fill="#FCC62D"/>
<path d="M168.571 91.3107C168.571 91.3107 165.384 90.6042 166.884 85.592C168.384 80.5797 172.564 82.4007 173.185 84.307C173.185 84.307 175.238 84.0827 176.217 86.969C177.196 89.8552 173.009 91.6942 171.54 92.2346C170.071 92.7751 168.985 92.109 168.571 91.3107Z" fill="#3166F7"/>
<path d="M172.93 84.9482C172.518 84.8668 172.151 84.6311 171.904 84.2889C171.585 83.8404 171.062 83.3044 170.4 83.2618C169.262 83.19 168.907 83.7484 168.804 84.114C168.701 84.4795 169.101 85.5672 170.816 86.0852C171.149 86.1974 171.435 86.4205 171.625 86.7177C172.188 87.5474 173.454 89.0522 174.945 88.5118C176.699 87.8906 174.772 85.7735 174.321 85.5111C173.896 85.2401 173.424 85.0493 172.93 84.9482Z" fill="#75A5F9"/>
<path d="M173.91 86.2691C174.325 86.2691 174.661 85.9318 174.661 85.5156C174.661 85.0994 174.325 84.7621 173.91 84.7621C173.495 84.7621 173.159 85.0994 173.159 85.5156C173.159 85.9318 173.495 86.2691 173.91 86.2691Z" fill="#FCC62D"/>
<path d="M172.03 86.3365C172.444 86.3365 172.781 85.9991 172.781 85.583C172.781 85.1668 172.444 84.8295 172.03 84.8295C171.615 84.8295 171.278 85.1668 171.278 85.583C171.278 85.9991 171.615 86.3365 172.03 86.3365Z" fill="#FCC62D"/>
<path d="M171.618 84.5109C172.033 84.5109 172.37 84.1736 172.37 83.7574C172.37 83.3413 172.033 83.0039 171.618 83.0039C171.204 83.0039 170.867 83.3413 170.867 83.7574C170.867 84.1736 171.204 84.5109 171.618 84.5109Z" fill="#FCC62D"/>
<path d="M173.59 84.3315C174.005 84.3315 174.341 83.9941 174.341 83.578C174.341 83.1618 174.005 82.8245 173.59 82.8245C173.175 82.8245 172.839 83.1618 172.839 83.578C172.839 83.9941 173.175 84.3315 173.59 84.3315Z" fill="#FCC62D"/>
<path d="M169.085 130.586C168.939 130.719 168.759 130.809 168.565 130.847C168.372 130.884 168.171 130.867 167.986 130.797C167.801 130.728 167.639 130.609 167.517 130.452C167.396 130.296 167.32 130.11 167.297 129.913C167.013 127.222 166.946 122.407 169.425 119.115C173.026 114.331 175.358 117.222 174.904 120.178C174.484 122.831 173.158 126.706 169.085 130.586Z" fill="#43BD68"/>
<path d="M166.58 134.059C166.633 134.16 166.657 134.273 166.65 134.386C166.644 134.499 166.605 134.609 166.54 134.701C166.475 134.794 166.386 134.867 166.282 134.912C166.178 134.957 166.064 134.973 165.952 134.956C164.429 134.732 161.76 134.086 160.296 132.243C158.168 129.563 160.092 128.679 161.659 129.35C163.066 129.96 165.017 131.247 166.58 134.059Z" fill="#43BD68"/>
<path d="M167.57 137.403C167.63 137.451 167.676 137.515 167.702 137.587C167.729 137.66 167.734 137.738 167.718 137.813C167.702 137.889 167.665 137.958 167.612 138.014C167.558 138.069 167.49 138.109 167.416 138.127C166.417 138.385 164.597 138.679 163.213 137.921C161.201 136.818 162.162 135.768 163.307 135.775C164.333 135.775 165.876 136.069 167.57 137.403Z" fill="#43BD68"/>
<path d="M169.119 128.969C169.09 128.969 169.061 128.963 169.034 128.951C168.98 128.928 168.937 128.884 168.914 128.83C168.892 128.775 168.891 128.714 168.914 128.659C168.943 128.585 171.965 121.274 172.367 119.765C172.384 119.709 172.422 119.663 172.473 119.634C172.524 119.606 172.583 119.599 172.639 119.614C172.695 119.629 172.743 119.666 172.773 119.716C172.803 119.765 172.812 119.825 172.799 119.882C172.39 121.42 169.446 128.529 169.325 128.83C169.308 128.871 169.28 128.906 169.243 128.93C169.206 128.955 169.163 128.968 169.119 128.969Z" fill="#0D562A"/>
<path d="M164.854 133.665H164.796C164.706 133.64 162.574 133.046 160.647 130.727C160.609 130.681 160.591 130.622 160.596 130.563C160.601 130.503 160.63 130.449 160.676 130.411C160.721 130.373 160.78 130.354 160.839 130.36C160.899 130.365 160.953 130.394 160.991 130.44C162.829 132.651 164.892 133.225 164.912 133.232C164.971 133.24 165.025 133.271 165.062 133.318C165.098 133.366 165.114 133.426 165.106 133.485C165.099 133.545 165.068 133.599 165.02 133.635C164.973 133.672 164.913 133.688 164.854 133.68V133.665Z" fill="#0D562A"/>
<path d="M166.374 137.793C165.205 137.764 164.056 137.483 163.005 136.968C162.976 136.957 162.951 136.939 162.929 136.917C162.908 136.895 162.891 136.869 162.88 136.84C162.869 136.811 162.864 136.781 162.865 136.75C162.867 136.719 162.874 136.689 162.888 136.661C162.902 136.634 162.921 136.609 162.944 136.589C162.968 136.569 162.995 136.554 163.024 136.545C163.054 136.537 163.085 136.534 163.115 136.537C163.146 136.541 163.175 136.551 163.202 136.567C164.203 137.053 165.297 137.318 166.41 137.345C166.469 137.345 166.526 137.368 166.568 137.411C166.61 137.453 166.633 137.51 166.633 137.569C166.633 137.629 166.61 137.686 166.568 137.728C166.526 137.77 166.469 137.793 166.41 137.793H166.374Z" fill="#0D562A"/>
</g>
<g clip-path="url(#clip2)">
<path d="M307.826 144.582C304.191 135.82 301.835 126.417 300.313 117.72C300.787 113.163 307.69 106.123 307.766 106.058L307.07 105.365C306.816 105.623 301.705 110.819 299.917 115.387C299.374 111.981 298.951 108.713 298.636 105.663C298.777 104.798 300.138 97.0719 304.869 90.9249L304.093 90.3238C300.834 94.5601 299.141 99.4109 298.325 102.492C297.402 92.248 297.574 85.1344 297.579 84.9819L296.6 84.9528C296.6 85.0851 296.465 90.4292 297.024 98.5094C295.43 95.0064 293.336 94.7171 293.224 94.6969L293.106 95.6747C293.139 95.6747 296.351 96.2331 297.471 103.804C297.762 106.807 298.142 110.052 298.652 113.447C297.521 111.727 296.013 110.29 294.243 109.245L293.776 110.11C293.819 110.133 298.084 112.517 299.213 117.235H299.235C299.264 117.406 299.293 117.576 299.325 117.747C299.324 117.767 299.324 117.787 299.325 117.807H299.34C300.872 126.58 303.243 136.098 306.921 144.97L307.826 144.582Z" fill="#0D562A"/>
<path d="M307.263 106.188C307.263 106.188 304.261 104.899 306.662 100.254C309.063 95.6096 312.836 98.1886 313.093 100.167C313.093 100.167 315.152 100.339 315.581 103.349C316.01 106.358 311.557 107.386 310.006 107.65C308.455 107.915 307.52 107.049 307.263 106.188Z" fill="#75A5F9"/>
<path d="M312.72 100.75C312.326 100.595 312.006 100.295 311.825 99.911C311.602 99.4154 311.182 98.7897 310.538 98.6215C309.434 98.3389 308.973 98.8211 308.812 99.162C308.651 99.5028 308.834 100.644 310.41 101.47C310.715 101.643 310.952 101.916 311.081 102.243C311.481 103.163 312.445 104.878 314.007 104.638C315.847 104.354 314.347 101.914 313.951 101.573C313.593 101.227 313.176 100.948 312.72 100.75Z" fill="#3166F7"/>
<path d="M313.583 102.246C313.997 102.246 314.334 101.908 314.334 101.492C314.334 101.076 313.997 100.739 313.583 100.739C313.168 100.739 312.831 101.076 312.831 101.492C312.831 101.908 313.168 102.246 313.583 102.246Z" fill="#FCC62D"/>
<path d="M311.722 101.961C312.137 101.961 312.474 101.623 312.474 101.207C312.474 100.791 312.137 100.454 311.722 100.454C311.308 100.454 310.971 100.791 310.971 101.207C310.971 101.623 311.308 101.961 311.722 101.961Z" fill="#FCC62D"/>
<path d="M311.656 100.09C312.07 100.09 312.407 99.753 312.407 99.3369C312.407 98.9207 312.07 98.5834 311.656 98.5834C311.241 98.5834 310.905 98.9207 310.905 99.3369C310.905 99.753 311.241 100.09 311.656 100.09Z" fill="#FCC62D"/>
<path d="M313.627 100.281C314.042 100.281 314.378 99.9437 314.378 99.5276C314.378 99.1114 314.042 98.774 313.627 98.774C313.212 98.774 312.876 99.1114 312.876 99.5276C312.876 99.9437 313.212 100.281 313.627 100.281Z" fill="#FCC62D"/>
<path d="M293.613 95.9348C293.613 95.9348 292.437 98.996 287.723 96.7534C283.008 94.5108 285.447 90.6378 287.403 90.3081C287.403 90.3081 287.499 88.2382 290.484 87.6999C293.468 87.1617 294.657 91.5954 294.97 93.1316C295.283 94.6678 294.46 95.6455 293.613 95.9348Z" fill="#75A5F9"/>
<path d="M287.998 90.6557C287.855 91.0528 287.569 91.3812 287.195 91.5752C286.71 91.8196 286.098 92.2682 285.957 92.914C285.713 94.0286 286.212 94.4659 286.565 94.6229C286.918 94.7799 288.04 94.5467 288.8 92.9365C288.961 92.6214 289.225 92.3713 289.547 92.2278C290.441 91.7927 292.122 90.7656 291.825 89.207C291.476 87.3725 289.098 88.9648 288.774 89.3752C288.439 89.7511 288.177 90.1851 287.998 90.6557Z" fill="#3166F7"/>
<path d="M288.704 90.5234C289.119 90.5234 289.455 90.186 289.455 89.7699C289.455 89.3537 289.119 89.0164 288.704 89.0164C288.289 89.0164 287.953 89.3537 287.953 89.7699C287.953 90.186 288.289 90.5234 288.704 90.5234Z" fill="#FCC62D"/>
<path d="M288.489 92.3983C288.904 92.3983 289.241 92.0609 289.241 91.6448C289.241 91.2286 288.904 90.8912 288.489 90.8912C288.075 90.8912 287.738 91.2286 287.738 91.6448C287.738 92.0609 288.075 92.3983 288.489 92.3983Z" fill="#FCC62D"/>
<path d="M286.628 92.5328C287.042 92.5328 287.379 92.1954 287.379 91.7793C287.379 91.3631 287.042 91.0258 286.628 91.0258C286.213 91.0258 285.876 91.3631 285.876 91.7793C285.876 92.1954 286.213 92.5328 286.628 92.5328Z" fill="#FCC62D"/>
<path d="M286.746 90.5504C287.161 90.5504 287.497 90.213 287.497 89.7969C287.497 89.3807 287.161 89.0433 286.746 89.0433C286.331 89.0433 285.995 89.3807 285.995 89.7969C285.995 90.213 286.331 90.5504 286.746 90.5504Z" fill="#FCC62D"/>
<path d="M297.071 84.9684C297.071 84.9684 294.087 86.2781 292.359 81.3421C290.631 76.4061 295.086 75.4149 296.7 76.581C296.7 76.581 298.234 75.1951 300.724 76.9443C303.214 78.6936 300.901 82.6585 300.031 83.9637C299.161 85.2689 297.88 85.3698 297.071 84.9684Z" fill="#75A5F9"/>
<path d="M296.87 77.2425C296.49 77.422 296.055 77.4485 295.656 77.3165C295.135 77.1551 294.389 77.0183 293.837 77.3816C292.875 77.9938 292.916 78.6554 293.045 79.012C293.175 79.3685 294.138 80.0122 295.819 79.4246C296.155 79.318 296.517 79.3298 296.845 79.4582C297.787 79.7969 299.693 80.2678 300.588 78.9581C301.641 77.4197 298.842 76.8456 298.323 76.9017C297.822 76.9267 297.33 77.0422 296.87 77.2425Z" fill="#3166F7"/>
<path d="M297.997 77.8862C298.412 77.8862 298.748 77.5488 298.748 77.1327C298.748 76.7165 298.412 76.3792 297.997 76.3792C297.582 76.3792 297.246 76.7165 297.246 77.1327C297.246 77.5488 297.582 77.8862 297.997 77.8862Z" fill="#FCC62D"/>
<path d="M296.517 79.0503C296.932 79.0503 297.268 78.7129 297.268 78.2967C297.268 77.8806 296.932 77.5432 296.517 77.5432C296.102 77.5432 295.766 77.8806 295.766 78.2967C295.766 78.7129 296.102 79.0503 296.517 79.0503Z" fill="#FCC62D"/>
<path d="M295.113 77.8167C295.528 77.8167 295.864 77.4794 295.864 77.0632C295.864 76.6471 295.528 76.3097 295.113 76.3097C294.698 76.3097 294.362 76.6471 294.362 77.0632C294.362 77.4794 294.698 77.8167 295.113 77.8167Z" fill="#FCC62D"/>
<path d="M296.602 76.507C297.017 76.507 297.353 76.1697 297.353 75.7535C297.353 75.3374 297.017 75 296.602 75C296.187 75 295.851 75.3374 295.851 75.7535C295.851 76.1697 296.187 76.507 296.602 76.507Z" fill="#FCC62D"/>
<path d="M294.686 110.29C294.686 110.29 293.3 113.255 288.753 110.696C284.206 108.137 286.898 104.437 288.878 104.244C288.878 104.244 289.118 102.187 292.131 101.855C295.144 101.524 296.025 106.029 296.233 107.585C296.441 109.142 295.551 110.059 294.686 110.29Z" fill="#3166F7"/>
<path d="M289.446 104.632C289.277 105.022 288.966 105.332 288.577 105.5C288.076 105.724 287.437 106.107 287.251 106.746C286.931 107.845 287.396 108.316 287.732 108.496C288.067 108.675 289.209 108.523 290.083 106.969C290.266 106.666 290.546 106.434 290.877 106.311C291.807 105.944 293.546 105.033 293.358 103.457C293.135 101.604 290.656 103.026 290.302 103.414C289.946 103.765 289.656 104.177 289.446 104.632Z" fill="#75A5F9"/>
<path d="M290.213 104.551C290.628 104.551 290.964 104.214 290.964 103.797C290.964 103.381 290.628 103.044 290.213 103.044C289.798 103.044 289.462 103.381 289.462 103.797C289.462 104.214 289.798 104.551 290.213 104.551Z" fill="#FCC62D"/>
<path d="M289.869 106.408C290.284 106.408 290.62 106.071 290.62 105.654C290.62 105.238 290.284 104.901 289.869 104.901C289.454 104.901 289.118 105.238 289.118 105.654C289.118 106.071 289.454 106.408 289.869 106.408Z" fill="#FCC62D"/>
<path d="M288.002 106.412C288.417 106.412 288.754 106.075 288.754 105.659C288.754 105.243 288.417 104.905 288.002 104.905C287.588 104.905 287.251 105.243 287.251 105.659C287.251 106.075 287.588 106.412 288.002 106.412Z" fill="#FCC62D"/>
<path d="M288.259 104.443C288.674 104.443 289.01 104.106 289.01 103.69C289.01 103.274 288.674 102.936 288.259 102.936C287.844 102.936 287.508 103.274 287.508 103.69C287.508 104.106 287.844 104.443 288.259 104.443Z" fill="#FCC62D"/>
<path d="M304.571 91.3107C304.571 91.3107 301.384 90.6042 302.884 85.592C304.384 80.5797 308.564 82.4007 309.185 84.307C309.185 84.307 311.238 84.0827 312.217 86.969C313.196 89.8552 309.009 91.6942 307.54 92.2346C306.071 92.7751 304.985 92.109 304.571 91.3107Z" fill="#3166F7"/>
<path d="M308.93 84.9482C308.518 84.8668 308.151 84.6311 307.904 84.2889C307.585 83.8404 307.062 83.3044 306.4 83.2618C305.262 83.19 304.907 83.7484 304.804 84.114C304.701 84.4795 305.101 85.5672 306.816 86.0852C307.149 86.1974 307.435 86.4205 307.625 86.7177C308.188 87.5474 309.454 89.0522 310.945 88.5118C312.699 87.8906 310.773 85.7735 310.321 85.5111C309.896 85.2401 309.424 85.0493 308.93 84.9482Z" fill="#75A5F9"/>
<path d="M309.91 86.2691C310.325 86.2691 310.661 85.9318 310.661 85.5156C310.661 85.0994 310.325 84.7621 309.91 84.7621C309.495 84.7621 309.159 85.0994 309.159 85.5156C309.159 85.9318 309.495 86.2691 309.91 86.2691Z" fill="#FCC62D"/>
<path d="M308.03 86.3365C308.444 86.3365 308.781 85.9991 308.781 85.583C308.781 85.1668 308.444 84.8295 308.03 84.8295C307.615 84.8295 307.278 85.1668 307.278 85.583C307.278 85.9991 307.615 86.3365 308.03 86.3365Z" fill="#FCC62D"/>
<path d="M307.618 84.5109C308.033 84.5109 308.37 84.1736 308.37 83.7574C308.37 83.3413 308.033 83.0039 307.618 83.0039C307.204 83.0039 306.867 83.3413 306.867 83.7574C306.867 84.1736 307.204 84.5109 307.618 84.5109Z" fill="#FCC62D"/>
<path d="M309.59 84.3315C310.005 84.3315 310.341 83.9941 310.341 83.578C310.341 83.1618 310.005 82.8245 309.59 82.8245C309.175 82.8245 308.839 83.1618 308.839 83.578C308.839 83.9941 309.175 84.3315 309.59 84.3315Z" fill="#FCC62D"/>
<path d="M305.085 130.586C304.939 130.719 304.759 130.809 304.565 130.847C304.372 130.884 304.171 130.867 303.986 130.797C303.801 130.728 303.639 130.609 303.517 130.452C303.396 130.296 303.32 130.11 303.297 129.913C303.013 127.222 302.946 122.407 305.425 119.115C309.026 114.331 311.358 117.222 310.904 120.178C310.484 122.831 309.158 126.706 305.085 130.586Z" fill="#43BD68"/>
<path d="M302.58 134.059C302.633 134.16 302.657 134.273 302.65 134.386C302.644 134.499 302.605 134.609 302.54 134.701C302.475 134.794 302.386 134.867 302.282 134.912C302.178 134.957 302.064 134.973 301.952 134.956C300.429 134.732 297.76 134.086 296.296 132.243C294.168 129.563 296.092 128.679 297.659 129.35C299.066 129.96 301.017 131.247 302.58 134.059Z" fill="#43BD68"/>
<path d="M303.57 137.403C303.63 137.451 303.676 137.515 303.702 137.587C303.729 137.66 303.734 137.738 303.718 137.813C303.702 137.889 303.665 137.958 303.612 138.014C303.558 138.069 303.49 138.109 303.416 138.127C302.417 138.385 300.597 138.679 299.213 137.921C297.201 136.818 298.163 135.768 299.307 135.775C300.333 135.775 301.876 136.069 303.57 137.403Z" fill="#43BD68"/>
<path d="M305.119 128.969C305.09 128.969 305.061 128.963 305.034 128.951C304.98 128.928 304.937 128.884 304.914 128.83C304.892 128.775 304.891 128.714 304.914 128.659C304.943 128.585 307.965 121.274 308.367 119.765C308.384 119.709 308.422 119.663 308.473 119.634C308.524 119.606 308.583 119.599 308.639 119.614C308.695 119.629 308.743 119.666 308.773 119.716C308.803 119.765 308.812 119.825 308.799 119.882C308.39 121.42 305.446 128.529 305.325 128.83C305.308 128.871 305.28 128.906 305.243 128.93C305.206 128.955 305.163 128.968 305.119 128.969Z" fill="#0D562A"/>
<path d="M300.854 133.665H300.796C300.706 133.64 298.574 133.046 296.647 130.727C296.609 130.681 296.591 130.622 296.596 130.563C296.601 130.503 296.63 130.449 296.676 130.411C296.721 130.373 296.78 130.354 296.839 130.36C296.899 130.365 296.953 130.394 296.991 130.44C298.829 132.651 300.892 133.225 300.912 133.232C300.971 133.24 301.025 133.271 301.062 133.318C301.098 133.366 301.114 133.426 301.107 133.485C301.099 133.545 301.068 133.599 301.02 133.635C300.973 133.672 300.913 133.688 300.854 133.68V133.665Z" fill="#0D562A"/>
<path d="M302.374 137.793C301.205 137.764 300.056 137.483 299.005 136.968C298.976 136.957 298.951 136.939 298.929 136.917C298.908 136.895 298.891 136.869 298.88 136.84C298.869 136.811 298.864 136.781 298.865 136.75C298.867 136.719 298.874 136.689 298.888 136.661C298.902 136.634 298.921 136.609 298.944 136.589C298.968 136.569 298.995 136.554 299.024 136.545C299.054 136.537 299.085 136.534 299.115 136.537C299.146 136.541 299.175 136.551 299.202 136.567C300.203 137.053 301.297 137.318 302.41 137.345C302.469 137.345 302.526 137.368 302.568 137.411C302.61 137.453 302.633 137.51 302.633 137.569C302.633 137.629 302.61 137.686 302.568 137.728C302.526 137.77 302.469 137.793 302.41 137.793H302.374Z" fill="#0D562A"/>
</g>
<g clip-path="url(#clip3)">
<path d="M188.782 143.582C192.417 134.82 194.773 125.417 196.295 116.72C195.821 112.163 188.918 105.123 188.842 105.058L189.537 104.365C189.792 104.623 194.903 109.819 196.691 114.387C197.234 110.981 197.657 107.713 197.972 104.663C197.831 103.798 196.47 96.0719 191.739 89.9249L192.515 89.3238C195.774 93.5601 197.467 98.4109 198.283 101.492C199.206 91.248 199.034 84.1344 199.029 83.9819L200.008 83.9528C200.008 84.0851 200.142 89.4292 199.584 97.5094C201.177 94.0064 203.272 93.7171 203.384 93.6969L203.502 94.6747C203.469 94.6747 200.256 95.2331 199.137 102.804C198.846 105.807 198.466 109.052 197.956 112.447C199.087 110.727 200.595 109.29 202.365 108.245L202.832 109.11C202.789 109.133 198.524 111.517 197.395 116.235H197.373C197.344 116.406 197.315 116.576 197.283 116.747C197.284 116.767 197.284 116.787 197.283 116.807H197.268C195.736 125.58 193.365 135.098 189.687 143.97L188.782 143.582Z" fill="#0D562A"/>
<path d="M189.345 105.188C189.345 105.188 192.347 103.899 189.946 99.2541C187.545 94.6096 183.772 97.1886 183.515 99.1666C183.515 99.1666 181.456 99.3393 181.027 102.349C180.598 105.358 185.051 106.386 186.602 106.65C188.153 106.915 189.088 106.049 189.345 105.188Z" fill="#75A5F9"/>
<path d="M183.888 99.7497C184.282 99.595 184.602 99.2949 184.782 98.911C185.006 98.4154 185.426 97.7897 186.07 97.6215C187.174 97.3389 187.635 97.8211 187.796 98.162C187.957 98.5028 187.773 99.6443 186.197 100.47C185.893 100.643 185.656 100.916 185.527 101.243C185.127 102.163 184.163 103.878 182.601 103.638C180.761 103.354 182.261 100.914 182.657 100.573C183.015 100.227 183.432 99.9482 183.888 99.7497Z" fill="#3166F7"/>
<path d="M183.025 101.246C182.611 101.246 182.274 100.908 182.274 100.492C182.274 100.076 182.611 99.7385 183.025 99.7385C183.44 99.7385 183.777 100.076 183.777 100.492C183.777 100.908 183.44 101.246 183.025 101.246Z" fill="#FCC62D"/>
<path d="M184.885 100.961C184.471 100.961 184.134 100.623 184.134 100.207C184.134 99.7911 184.471 99.4537 184.885 99.4537C185.3 99.4537 185.637 99.7911 185.637 100.207C185.637 100.623 185.3 100.961 184.885 100.961Z" fill="#FCC62D"/>
<path d="M184.952 99.0904C184.537 99.0904 184.201 98.753 184.201 98.3369C184.201 97.9207 184.537 97.5834 184.952 97.5834C185.367 97.5834 185.703 97.9207 185.703 98.3369C185.703 98.753 185.367 99.0904 184.952 99.0904Z" fill="#FCC62D"/>
<path d="M182.981 99.2811C182.566 99.2811 182.23 98.9437 182.23 98.5276C182.23 98.1114 182.566 97.774 182.981 97.774C183.396 97.774 183.732 98.1114 183.732 98.5276C183.732 98.9437 183.396 99.2811 182.981 99.2811Z" fill="#FCC62D"/>
<path d="M202.995 94.9348C202.995 94.9348 204.171 97.996 208.885 95.7534C213.6 93.5108 211.161 89.6378 209.205 89.3081C209.205 89.3081 209.109 87.2382 206.124 86.6999C203.14 86.1617 201.951 90.5954 201.638 92.1316C201.325 93.6678 202.148 94.6455 202.995 94.9348Z" fill="#75A5F9"/>
<path d="M208.61 89.6557C208.752 90.0528 209.039 90.3812 209.413 90.5752C209.898 90.8196 210.51 91.2682 210.651 91.914C210.895 93.0286 210.396 93.4659 210.043 93.6229C209.69 93.7799 208.568 93.5467 207.808 91.9365C207.647 91.6214 207.383 91.3713 207.061 91.2278C206.167 90.7927 204.486 89.7656 204.783 88.207C205.132 86.3725 207.51 87.9648 207.834 88.3752C208.169 88.7511 208.431 89.1851 208.61 89.6557Z" fill="#3166F7"/>
<path d="M207.904 89.5234C207.489 89.5234 207.153 89.186 207.153 88.7699C207.153 88.3537 207.489 88.0164 207.904 88.0164C208.319 88.0164 208.655 88.3537 208.655 88.7699C208.655 89.186 208.319 89.5234 207.904 89.5234Z" fill="#FCC62D"/>
<path d="M208.118 91.3983C207.704 91.3983 207.367 91.0609 207.367 90.6448C207.367 90.2286 207.704 89.8912 208.118 89.8912C208.533 89.8912 208.87 90.2286 208.87 90.6448C208.87 91.0609 208.533 91.3983 208.118 91.3983Z" fill="#FCC62D"/>
<path d="M209.98 91.5328C209.566 91.5328 209.229 91.1954 209.229 90.7793C209.229 90.3631 209.566 90.0258 209.98 90.0258C210.395 90.0258 210.732 90.3631 210.732 90.7793C210.732 91.1954 210.395 91.5328 209.98 91.5328Z" fill="#FCC62D"/>
<path d="M209.862 89.5504C209.447 89.5504 209.111 89.213 209.111 88.7969C209.111 88.3807 209.447 88.0433 209.862 88.0433C210.277 88.0433 210.613 88.3807 210.613 88.7969C210.613 89.213 210.277 89.5504 209.862 89.5504Z" fill="#FCC62D"/>
<path d="M199.537 83.9684C199.537 83.9684 202.521 85.2781 204.249 80.3421C205.977 75.4061 201.522 74.4149 199.908 75.581C199.908 75.581 198.374 74.1951 195.884 75.9443C193.394 77.6936 195.707 81.6585 196.577 82.9637C197.447 84.2689 198.727 84.3698 199.537 83.9684Z" fill="#75A5F9"/>
<path d="M199.738 76.2425C200.118 76.422 200.553 76.4485 200.952 76.3165C201.473 76.1551 202.219 76.0183 202.771 76.3816C203.733 76.9938 203.692 77.6554 203.563 78.012C203.433 78.3685 202.47 79.0122 200.789 78.4246C200.453 78.318 200.091 78.3298 199.762 78.4582C198.821 78.7969 196.914 79.2678 196.02 77.9581C194.967 76.4197 197.766 75.8456 198.285 75.9017C198.786 75.9267 199.278 76.0422 199.738 76.2425Z" fill="#3166F7"/>
<path d="M198.611 76.8862C198.196 76.8862 197.86 76.5488 197.86 76.1327C197.86 75.7165 198.196 75.3792 198.611 75.3792C199.026 75.3792 199.362 75.7165 199.362 76.1327C199.362 76.5488 199.026 76.8862 198.611 76.8862Z" fill="#FCC62D"/>
<path d="M200.091 78.0503C199.676 78.0503 199.34 77.7129 199.34 77.2967C199.34 76.8806 199.676 76.5432 200.091 76.5432C200.506 76.5432 200.842 76.8806 200.842 77.2967C200.842 77.7129 200.506 78.0503 200.091 78.0503Z" fill="#FCC62D"/>
<path d="M201.495 76.8167C201.08 76.8167 200.743 76.4794 200.743 76.0632C200.743 75.6471 201.08 75.3097 201.495 75.3097C201.909 75.3097 202.246 75.6471 202.246 76.0632C202.246 76.4794 201.909 76.8167 201.495 76.8167Z" fill="#FCC62D"/>
<path d="M200.006 75.507C199.591 75.507 199.255 75.1697 199.255 74.7535C199.255 74.3374 199.591 74 200.006 74C200.421 74 200.757 74.3374 200.757 74.7535C200.757 75.1697 200.421 75.507 200.006 75.507Z" fill="#FCC62D"/>
<path d="M201.922 109.29C201.922 109.29 203.308 112.255 207.855 109.696C212.402 107.137 209.71 103.437 207.729 103.244C207.729 103.244 207.49 101.187 204.477 100.855C201.464 100.524 200.583 105.029 200.375 106.585C200.167 108.142 201.057 109.059 201.922 109.29Z" fill="#3166F7"/>
<path d="M207.162 103.632C207.331 104.022 207.642 104.332 208.031 104.5C208.532 104.724 209.171 105.107 209.357 105.746C209.677 106.845 209.212 107.316 208.876 107.496C208.541 107.675 207.399 107.523 206.525 105.969C206.341 105.666 206.062 105.434 205.731 105.311C204.801 104.944 203.062 104.033 203.25 102.457C203.473 100.604 205.952 102.026 206.306 102.414C206.662 102.765 206.952 103.177 207.162 103.632Z" fill="#75A5F9"/>
<path d="M206.395 103.551C205.98 103.551 205.644 103.214 205.644 102.797C205.644 102.381 205.98 102.044 206.395 102.044C206.81 102.044 207.146 102.381 207.146 102.797C207.146 103.214 206.81 103.551 206.395 103.551Z" fill="#FCC62D"/>
<path d="M206.739 105.408C206.324 105.408 205.988 105.071 205.988 104.654C205.988 104.238 206.324 103.901 206.739 103.901C207.154 103.901 207.49 104.238 207.49 104.654C207.49 105.071 207.154 105.408 206.739 105.408Z" fill="#FCC62D"/>
<path d="M208.606 105.412C208.191 105.412 207.854 105.075 207.854 104.659C207.854 104.243 208.191 103.905 208.606 103.905C209.02 103.905 209.357 104.243 209.357 104.659C209.357 105.075 209.02 105.412 208.606 105.412Z" fill="#FCC62D"/>
<path d="M208.349 103.443C207.934 103.443 207.598 103.106 207.598 102.69C207.598 102.274 207.934 101.936 208.349 101.936C208.764 101.936 209.1 102.274 209.1 102.69C209.1 103.106 208.764 103.443 208.349 103.443Z" fill="#FCC62D"/>
<path d="M192.036 90.3107C192.036 90.3107 195.224 89.6042 193.724 84.592C192.224 79.5797 188.044 81.4007 187.422 83.307C187.422 83.307 185.37 83.0827 184.391 85.969C183.412 88.8552 187.599 90.6942 189.068 91.2346C190.536 91.7751 191.623 91.109 192.036 90.3107Z" fill="#3166F7"/>
<path d="M187.677 83.9482C188.09 83.8668 188.457 83.6311 188.704 83.2889C189.023 82.8404 189.546 82.3044 190.208 82.2618C191.346 82.19 191.701 82.7484 191.804 83.114C191.907 83.4795 191.507 84.5672 189.792 85.0852C189.458 85.1974 189.173 85.4205 188.983 85.7177C188.42 86.5474 187.154 88.0522 185.663 87.5118C183.908 86.8906 185.835 84.7735 186.287 84.5111C186.712 84.2401 187.184 84.0493 187.677 83.9482Z" fill="#75A5F9"/>
<path d="M186.698 85.2691C186.283 85.2691 185.947 84.9318 185.947 84.5156C185.947 84.0994 186.283 83.7621 186.698 83.7621C187.113 83.7621 187.449 84.0994 187.449 84.5156C187.449 84.9318 187.113 85.2691 186.698 85.2691Z" fill="#FCC62D"/>
<path d="M188.578 85.3365C188.164 85.3365 187.827 84.9991 187.827 84.583C187.827 84.1668 188.164 83.8295 188.578 83.8295C188.993 83.8295 189.329 84.1668 189.329 84.583C189.329 84.9991 188.993 85.3365 188.578 85.3365Z" fill="#FCC62D"/>
<path d="M188.989 83.5109C188.575 83.5109 188.238 83.1736 188.238 82.7574C188.238 82.3413 188.575 82.0039 188.989 82.0039C189.404 82.0039 189.741 82.3413 189.741 82.7574C189.741 83.1736 189.404 83.5109 188.989 83.5109Z" fill="#FCC62D"/>
<path d="M187.018 83.3315C186.603 83.3315 186.267 82.9941 186.267 82.578C186.267 82.1618 186.603 81.8245 187.018 81.8245C187.433 81.8245 187.769 82.1618 187.769 82.578C187.769 82.9941 187.433 83.3315 187.018 83.3315Z" fill="#FCC62D"/>
<path d="M191.523 129.586C191.669 129.719 191.849 129.809 192.042 129.847C192.236 129.884 192.437 129.867 192.622 129.797C192.807 129.728 192.969 129.609 193.09 129.452C193.212 129.296 193.288 129.11 193.311 128.913C193.595 126.222 193.662 121.407 191.183 118.115C187.582 113.331 185.25 116.222 185.704 119.178C186.124 121.831 187.45 125.706 191.523 129.586Z" fill="#43BD68"/>
<path d="M194.028 133.059C193.975 133.16 193.95 133.273 193.957 133.386C193.964 133.499 194.003 133.609 194.068 133.701C194.133 133.794 194.222 133.867 194.326 133.912C194.43 133.957 194.544 133.973 194.656 133.956C196.179 133.732 198.848 133.086 200.312 131.243C202.44 128.563 200.515 127.679 198.948 128.35C197.542 128.96 195.591 130.247 194.028 133.059Z" fill="#43BD68"/>
<path d="M193.038 136.403C192.977 136.451 192.932 136.515 192.905 136.587C192.879 136.66 192.874 136.738 192.89 136.813C192.906 136.889 192.943 136.958 192.996 137.014C193.05 137.069 193.118 137.109 193.192 137.127C194.191 137.385 196.011 137.679 197.395 136.921C199.407 135.818 198.445 134.768 197.301 134.775C196.275 134.775 194.732 135.069 193.038 136.403Z" fill="#43BD68"/>
<path d="M191.489 127.969C191.518 127.969 191.547 127.963 191.574 127.951C191.628 127.928 191.671 127.884 191.694 127.83C191.716 127.775 191.717 127.714 191.694 127.659C191.665 127.585 188.643 120.274 188.241 118.765C188.224 118.709 188.186 118.663 188.135 118.634C188.084 118.606 188.025 118.599 187.969 118.614C187.913 118.629 187.865 118.666 187.835 118.716C187.805 118.765 187.796 118.825 187.809 118.882C188.218 120.42 191.162 127.529 191.283 127.83C191.3 127.871 191.328 127.906 191.365 127.93C191.401 127.955 191.445 127.968 191.489 127.969Z" fill="#0D562A"/>
<path d="M195.754 132.665H195.812C195.902 132.64 198.034 132.046 199.961 129.727C199.999 129.681 200.017 129.622 200.012 129.563C200.006 129.503 199.978 129.449 199.932 129.411C199.886 129.373 199.828 129.354 199.768 129.36C199.709 129.365 199.655 129.394 199.617 129.44C197.779 131.651 195.716 132.225 195.696 132.232C195.637 132.24 195.583 132.271 195.546 132.318C195.51 132.366 195.494 132.426 195.501 132.485C195.509 132.545 195.54 132.599 195.587 132.635C195.635 132.672 195.695 132.688 195.754 132.68V132.665Z" fill="#0D562A"/>
<path d="M194.234 136.793C195.403 136.764 196.552 136.483 197.603 135.968C197.631 135.957 197.657 135.939 197.679 135.917C197.7 135.895 197.717 135.869 197.728 135.84C197.739 135.811 197.744 135.781 197.743 135.75C197.741 135.719 197.733 135.689 197.72 135.661C197.706 135.634 197.687 135.609 197.664 135.589C197.64 135.569 197.613 135.554 197.584 135.545C197.554 135.537 197.523 135.534 197.493 135.537C197.462 135.541 197.433 135.551 197.406 135.567C196.405 136.053 195.311 136.318 194.198 136.345C194.139 136.345 194.082 136.368 194.04 136.411C193.998 136.453 193.975 136.51 193.975 136.569C193.975 136.629 193.998 136.686 194.04 136.728C194.082 136.77 194.139 136.793 194.198 136.793H194.234Z" fill="#0D562A"/>
</g>
<g clip-path="url(#clip4)">
<path d="M256.782 143.582C260.417 134.82 262.773 125.417 264.295 116.72C263.821 112.163 256.918 105.123 256.842 105.058L257.537 104.365C257.792 104.623 262.903 109.819 264.691 114.387C265.234 110.981 265.657 107.713 265.972 104.663C265.831 103.798 264.47 96.0719 259.739 89.9249L260.515 89.3238C263.774 93.5601 265.467 98.4109 266.283 101.492C267.206 91.248 267.034 84.1344 267.029 83.9819L268.008 83.9528C268.008 84.0851 268.142 89.4292 267.584 97.5094C269.177 94.0064 271.272 93.7171 271.384 93.6969L271.502 94.6747C271.469 94.6747 268.256 95.2331 267.136 102.804C266.846 105.807 266.466 109.052 265.956 112.447C267.087 110.727 268.595 109.29 270.364 108.245L270.832 109.11C270.789 109.133 266.524 111.517 265.395 116.235H265.373C265.344 116.406 265.315 116.576 265.283 116.747C265.284 116.767 265.284 116.787 265.283 116.807H265.268C263.736 125.58 261.365 135.098 257.687 143.97L256.782 143.582Z" fill="#0D562A"/>
<path d="M257.345 105.188C257.345 105.188 260.347 103.899 257.946 99.2541C255.545 94.6096 251.772 97.1886 251.515 99.1666C251.515 99.1666 249.456 99.3393 249.027 102.349C248.598 105.358 253.051 106.386 254.602 106.65C256.153 106.915 257.088 106.049 257.345 105.188Z" fill="#75A5F9"/>
<path d="M251.888 99.7497C252.282 99.595 252.602 99.2949 252.782 98.911C253.006 98.4154 253.426 97.7897 254.07 97.6215C255.174 97.3389 255.635 97.8211 255.796 98.162C255.957 98.5028 255.773 99.6443 254.197 100.47C253.893 100.643 253.656 100.916 253.527 101.243C253.127 102.163 252.163 103.878 250.601 103.638C248.761 103.354 250.261 100.914 250.657 100.573C251.015 100.227 251.432 99.9482 251.888 99.7497Z" fill="#3166F7"/>
<path d="M251.025 101.246C250.611 101.246 250.274 100.908 250.274 100.492C250.274 100.076 250.611 99.7385 251.025 99.7385C251.44 99.7385 251.776 100.076 251.776 100.492C251.776 100.908 251.44 101.246 251.025 101.246Z" fill="#FCC62D"/>
<path d="M252.885 100.961C252.471 100.961 252.134 100.623 252.134 100.207C252.134 99.7911 252.471 99.4537 252.885 99.4537C253.3 99.4537 253.637 99.7911 253.637 100.207C253.637 100.623 253.3 100.961 252.885 100.961Z" fill="#FCC62D"/>
<path d="M252.952 99.0904C252.537 99.0904 252.201 98.753 252.201 98.3369C252.201 97.9207 252.537 97.5834 252.952 97.5834C253.367 97.5834 253.703 97.9207 253.703 98.3369C253.703 98.753 253.367 99.0904 252.952 99.0904Z" fill="#FCC62D"/>
<path d="M250.981 99.2811C250.566 99.2811 250.23 98.9437 250.23 98.5276C250.23 98.1114 250.566 97.774 250.981 97.774C251.396 97.774 251.732 98.1114 251.732 98.5276C251.732 98.9437 251.396 99.2811 250.981 99.2811Z" fill="#FCC62D"/>
<path d="M270.995 94.9348C270.995 94.9348 272.171 97.996 276.885 95.7534C281.6 93.5108 279.161 89.6378 277.205 89.3081C277.205 89.3081 277.109 87.2382 274.124 86.6999C271.14 86.1617 269.951 90.5954 269.638 92.1316C269.325 93.6678 270.147 94.6455 270.995 94.9348Z" fill="#75A5F9"/>
<path d="M276.61 89.6557C276.752 90.0528 277.039 90.3812 277.413 90.5752C277.898 90.8196 278.51 91.2682 278.651 91.914C278.895 93.0286 278.396 93.4659 278.043 93.6229C277.69 93.7799 276.568 93.5467 275.808 91.9365C275.647 91.6214 275.383 91.3713 275.061 91.2278C274.167 90.7927 272.486 89.7656 272.783 88.207C273.132 86.3725 275.51 87.9648 275.834 88.3752C276.169 88.7511 276.431 89.1851 276.61 89.6557Z" fill="#3166F7"/>
<path d="M275.904 89.5234C275.489 89.5234 275.153 89.186 275.153 88.7699C275.153 88.3537 275.489 88.0164 275.904 88.0164C276.319 88.0164 276.655 88.3537 276.655 88.7699C276.655 89.186 276.319 89.5234 275.904 89.5234Z" fill="#FCC62D"/>
<path d="M276.118 91.3983C275.704 91.3983 275.367 91.0609 275.367 90.6448C275.367 90.2286 275.704 89.8912 276.118 89.8912C276.533 89.8912 276.87 90.2286 276.87 90.6448C276.87 91.0609 276.533 91.3983 276.118 91.3983Z" fill="#FCC62D"/>
<path d="M277.98 91.5328C277.566 91.5328 277.229 91.1954 277.229 90.7793C277.229 90.3631 277.566 90.0258 277.98 90.0258C278.395 90.0258 278.732 90.3631 278.732 90.7793C278.732 91.1954 278.395 91.5328 277.98 91.5328Z" fill="#FCC62D"/>
<path d="M277.862 89.5504C277.447 89.5504 277.111 89.213 277.111 88.7969C277.111 88.3807 277.447 88.0433 277.862 88.0433C278.277 88.0433 278.613 88.3807 278.613 88.7969C278.613 89.213 278.277 89.5504 277.862 89.5504Z" fill="#FCC62D"/>
<path d="M267.537 83.9684C267.537 83.9684 270.521 85.2781 272.249 80.3421C273.977 75.4061 269.522 74.4149 267.908 75.581C267.908 75.581 266.374 74.1951 263.884 75.9443C261.394 77.6936 263.707 81.6585 264.577 82.9637C265.447 84.2689 266.727 84.3698 267.537 83.9684Z" fill="#75A5F9"/>
<path d="M267.738 76.2425C268.118 76.422 268.553 76.4485 268.952 76.3165C269.473 76.1551 270.219 76.0183 270.771 76.3816C271.733 76.9938 271.692 77.6554 271.563 78.012C271.433 78.3685 270.47 79.0122 268.788 78.4246C268.453 78.318 268.091 78.3298 267.762 78.4582C266.821 78.7969 264.914 79.2678 264.02 77.9581C262.967 76.4197 265.766 75.8456 266.285 75.9017C266.786 75.9267 267.278 76.0422 267.738 76.2425Z" fill="#3166F7"/>
<path d="M266.611 76.8862C266.196 76.8862 265.86 76.5488 265.86 76.1327C265.86 75.7165 266.196 75.3792 266.611 75.3792C267.026 75.3792 267.362 75.7165 267.362 76.1327C267.362 76.5488 267.026 76.8862 266.611 76.8862Z" fill="#FCC62D"/>
<path d="M268.091 78.0503C267.676 78.0503 267.34 77.7129 267.34 77.2967C267.34 76.8806 267.676 76.5432 268.091 76.5432C268.506 76.5432 268.842 76.8806 268.842 77.2967C268.842 77.7129 268.506 78.0503 268.091 78.0503Z" fill="#FCC62D"/>
<path d="M269.495 76.8167C269.08 76.8167 268.743 76.4794 268.743 76.0632C268.743 75.6471 269.08 75.3097 269.495 75.3097C269.909 75.3097 270.246 75.6471 270.246 76.0632C270.246 76.4794 269.909 76.8167 269.495 76.8167Z" fill="#FCC62D"/>
<path d="M268.006 75.507C267.591 75.507 267.255 75.1697 267.255 74.7535C267.255 74.3374 267.591 74 268.006 74C268.421 74 268.757 74.3374 268.757 74.7535C268.757 75.1697 268.421 75.507 268.006 75.507Z" fill="#FCC62D"/>
<path d="M269.922 109.29C269.922 109.29 271.308 112.255 275.855 109.696C280.402 107.137 277.71 103.437 275.729 103.244C275.729 103.244 275.49 101.187 272.477 100.855C269.463 100.524 268.583 105.029 268.375 106.585C268.167 108.142 269.057 109.059 269.922 109.29Z" fill="#3166F7"/>
<path d="M275.162 103.632C275.331 104.022 275.642 104.332 276.031 104.5C276.532 104.724 277.171 105.107 277.357 105.746C277.677 106.845 277.212 107.316 276.876 107.496C276.541 107.675 275.399 107.523 274.525 105.969C274.341 105.666 274.062 105.434 273.731 105.311C272.801 104.944 271.062 104.033 271.25 102.457C271.473 100.604 273.952 102.026 274.306 102.414C274.662 102.765 274.952 103.177 275.162 103.632Z" fill="#75A5F9"/>
<path d="M274.395 103.551C273.98 103.551 273.644 103.214 273.644 102.797C273.644 102.381 273.98 102.044 274.395 102.044C274.81 102.044 275.146 102.381 275.146 102.797C275.146 103.214 274.81 103.551 274.395 103.551Z" fill="#FCC62D"/>
<path d="M274.739 105.408C274.324 105.408 273.988 105.071 273.988 104.654C273.988 104.238 274.324 103.901 274.739 103.901C275.154 103.901 275.49 104.238 275.49 104.654C275.49 105.071 275.154 105.408 274.739 105.408Z" fill="#FCC62D"/>
<path d="M276.606 105.412C276.191 105.412 275.854 105.075 275.854 104.659C275.854 104.243 276.191 103.905 276.606 103.905C277.02 103.905 277.357 104.243 277.357 104.659C277.357 105.075 277.02 105.412 276.606 105.412Z" fill="#FCC62D"/>
<path d="M276.349 103.443C275.934 103.443 275.598 103.106 275.598 102.69C275.598 102.274 275.934 101.936 276.349 101.936C276.764 101.936 277.1 102.274 277.1 102.69C277.1 103.106 276.764 103.443 276.349 103.443Z" fill="#FCC62D"/>
<path d="M260.036 90.3107C260.036 90.3107 263.224 89.6042 261.724 84.592C260.224 79.5797 256.044 81.4007 255.422 83.307C255.422 83.307 253.37 83.0827 252.391 85.969C251.412 88.8552 255.599 90.6942 257.068 91.2346C258.536 91.7751 259.623 91.109 260.036 90.3107Z" fill="#3166F7"/>
<path d="M255.677 83.9482C256.09 83.8668 256.457 83.6311 256.703 83.2889C257.023 82.8404 257.546 82.3044 258.208 82.2618C259.346 82.19 259.701 82.7484 259.804 83.114C259.907 83.4795 259.507 84.5672 257.792 85.0852C257.458 85.1974 257.173 85.4205 256.983 85.7177C256.42 86.5474 255.154 88.0522 253.663 87.5118C251.908 86.8906 253.835 84.7735 254.287 84.5111C254.712 84.2401 255.184 84.0493 255.677 83.9482Z" fill="#75A5F9"/>
<path d="M254.698 85.2691C254.283 85.2691 253.947 84.9318 253.947 84.5156C253.947 84.0994 254.283 83.7621 254.698 83.7621C255.113 83.7621 255.449 84.0994 255.449 84.5156C255.449 84.9318 255.113 85.2691 254.698 85.2691Z" fill="#FCC62D"/>
<path d="M256.578 85.3365C256.164 85.3365 255.827 84.9991 255.827 84.583C255.827 84.1668 256.164 83.8295 256.578 83.8295C256.993 83.8295 257.329 84.1668 257.329 84.583C257.329 84.9991 256.993 85.3365 256.578 85.3365Z" fill="#FCC62D"/>
<path d="M256.989 83.5109C256.575 83.5109 256.238 83.1736 256.238 82.7574C256.238 82.3413 256.575 82.0039 256.989 82.0039C257.404 82.0039 257.741 82.3413 257.741 82.7574C257.741 83.1736 257.404 83.5109 256.989 83.5109Z" fill="#FCC62D"/>
<path d="M255.018 83.3315C254.603 83.3315 254.267 82.9941 254.267 82.578C254.267 82.1618 254.603 81.8245 255.018 81.8245C255.433 81.8245 255.769 82.1618 255.769 82.578C255.769 82.9941 255.433 83.3315 255.018 83.3315Z" fill="#FCC62D"/>
<path d="M259.523 129.586C259.669 129.719 259.849 129.809 260.042 129.847C260.236 129.884 260.437 129.867 260.622 129.797C260.807 129.728 260.969 129.609 261.09 129.452C261.212 129.296 261.288 129.11 261.311 128.913C261.595 126.222 261.662 121.407 259.183 118.115C255.582 113.331 253.25 116.222 253.704 119.178C254.124 121.831 255.45 125.706 259.523 129.586Z" fill="#43BD68"/>
<path d="M262.028 133.059C261.975 133.16 261.95 133.273 261.957 133.386C261.964 133.499 262.003 133.609 262.068 133.701C262.133 133.794 262.222 133.867 262.326 133.912C262.43 133.957 262.544 133.973 262.656 133.956C264.179 133.732 266.848 133.086 268.312 131.243C270.44 128.563 268.515 127.679 266.948 128.35C265.542 128.96 263.591 130.247 262.028 133.059Z" fill="#43BD68"/>
<path d="M261.038 136.403C260.977 136.451 260.932 136.515 260.905 136.587C260.879 136.66 260.874 136.738 260.89 136.813C260.906 136.889 260.943 136.958 260.996 137.014C261.05 137.069 261.118 137.109 261.192 137.127C262.191 137.385 264.011 137.679 265.395 136.921C267.407 135.818 266.445 134.768 265.301 134.775C264.275 134.775 262.732 135.069 261.038 136.403Z" fill="#43BD68"/>
<path d="M259.489 127.969C259.518 127.969 259.547 127.963 259.574 127.951C259.628 127.928 259.671 127.884 259.694 127.83C259.716 127.775 259.717 127.714 259.694 127.659C259.665 127.585 256.643 120.274 256.241 118.765C256.224 118.709 256.186 118.663 256.135 118.634C256.084 118.606 256.025 118.599 255.969 118.614C255.913 118.629 255.865 118.666 255.835 118.716C255.805 118.765 255.796 118.825 255.809 118.882C256.218 120.42 259.162 127.529 259.283 127.83C259.3 127.871 259.328 127.906 259.365 127.93C259.401 127.955 259.445 127.968 259.489 127.969Z" fill="#0D562A"/>
<path d="M263.754 132.665H263.812C263.902 132.64 266.034 132.046 267.961 129.727C267.999 129.681 268.017 129.622 268.012 129.563C268.006 129.503 267.978 129.449 267.932 129.411C267.886 129.373 267.828 129.354 267.768 129.36C267.709 129.365 267.655 129.394 267.617 129.44C265.779 131.651 263.716 132.225 263.696 132.232C263.637 132.24 263.583 132.271 263.546 132.318C263.51 132.366 263.494 132.426 263.501 132.485C263.509 132.545 263.54 132.599 263.587 132.635C263.635 132.672 263.695 132.688 263.754 132.68V132.665Z" fill="#0D562A"/>
<path d="M262.234 136.793C263.403 136.764 264.552 136.483 265.603 135.968C265.631 135.957 265.657 135.939 265.679 135.917C265.7 135.895 265.717 135.869 265.728 135.84C265.739 135.811 265.744 135.781 265.743 135.75C265.741 135.719 265.733 135.689 265.72 135.661C265.706 135.634 265.687 135.609 265.664 135.589C265.64 135.569 265.613 135.554 265.584 135.545C265.554 135.537 265.523 135.534 265.493 135.537C265.462 135.541 265.433 135.551 265.406 135.567C264.405 136.053 263.311 136.318 262.198 136.345C262.139 136.345 262.082 136.368 262.04 136.411C261.998 136.453 261.975 136.51 261.975 136.569C261.975 136.629 261.998 136.686 262.04 136.728C262.082 136.77 262.139 136.793 262.198 136.793H262.234Z" fill="#0D562A"/>
</g>
<g clip-path="url(#clip5)">
<path d="M324.782 143.582C328.417 134.82 330.773 125.417 332.295 116.72C331.821 112.163 324.918 105.123 324.842 105.058L325.537 104.365C325.792 104.623 330.903 109.819 332.691 114.387C333.234 110.981 333.657 107.713 333.972 104.663C333.831 103.798 332.47 96.0719 327.739 89.9249L328.515 89.3238C331.774 93.5601 333.467 98.4109 334.283 101.492C335.206 91.248 335.034 84.1344 335.029 83.9819L336.008 83.9528C336.008 84.0851 336.142 89.4292 335.584 97.5094C337.177 94.0064 339.272 93.7171 339.384 93.6969L339.502 94.6747C339.469 94.6747 336.256 95.2331 335.136 102.804C334.846 105.807 334.466 109.052 333.956 112.447C335.087 110.727 336.595 109.29 338.364 108.245L338.832 109.11C338.789 109.133 334.524 111.517 333.395 116.235H333.373C333.344 116.406 333.315 116.576 333.283 116.747C333.284 116.767 333.284 116.787 333.283 116.807H333.268C331.736 125.58 329.365 135.098 325.687 143.97L324.782 143.582Z" fill="#0D562A"/>
<path d="M325.345 105.188C325.345 105.188 328.347 103.899 325.946 99.2541C323.545 94.6096 319.772 97.1886 319.515 99.1666C319.515 99.1666 317.456 99.3393 317.027 102.349C316.598 105.358 321.051 106.386 322.602 106.65C324.153 106.915 325.088 106.049 325.345 105.188Z" fill="#75A5F9"/>
<path d="M319.888 99.7497C320.282 99.595 320.602 99.2949 320.782 98.911C321.006 98.4154 321.426 97.7897 322.07 97.6215C323.174 97.3389 323.635 97.8211 323.796 98.162C323.957 98.5028 323.773 99.6443 322.197 100.47C321.893 100.643 321.656 100.916 321.527 101.243C321.127 102.163 320.163 103.878 318.601 103.638C316.761 103.354 318.261 100.914 318.656 100.573C319.015 100.227 319.432 99.9482 319.888 99.7497Z" fill="#3166F7"/>
<path d="M319.025 101.246C318.611 101.246 318.274 100.908 318.274 100.492C318.274 100.076 318.611 99.7385 319.025 99.7385C319.44 99.7385 319.777 100.076 319.777 100.492C319.777 100.908 319.44 101.246 319.025 101.246Z" fill="#FCC62D"/>
<path d="M320.885 100.961C320.471 100.961 320.134 100.623 320.134 100.207C320.134 99.7911 320.471 99.4537 320.885 99.4537C321.3 99.4537 321.637 99.7911 321.637 100.207C321.637 100.623 321.3 100.961 320.885 100.961Z" fill="#FCC62D"/>
<path d="M320.952 99.0904C320.537 99.0904 320.201 98.753 320.201 98.3369C320.201 97.9207 320.537 97.5834 320.952 97.5834C321.367 97.5834 321.703 97.9207 321.703 98.3369C321.703 98.753 321.367 99.0904 320.952 99.0904Z" fill="#FCC62D"/>
<path d="M318.981 99.2811C318.566 99.2811 318.23 98.9437 318.23 98.5276C318.23 98.1114 318.566 97.774 318.981 97.774C319.396 97.774 319.732 98.1114 319.732 98.5276C319.732 98.9437 319.396 99.2811 318.981 99.2811Z" fill="#FCC62D"/>
<path d="M338.995 94.9348C338.995 94.9348 340.171 97.996 344.885 95.7534C349.6 93.5108 347.161 89.6378 345.205 89.3081C345.205 89.3081 345.109 87.2382 342.124 86.6999C339.14 86.1617 337.951 90.5954 337.638 92.1316C337.325 93.6678 338.147 94.6455 338.995 94.9348Z" fill="#75A5F9"/>
<path d="M344.61 89.6557C344.752 90.0528 345.039 90.3812 345.413 90.5752C345.898 90.8196 346.51 91.2682 346.651 91.914C346.895 93.0286 346.396 93.4659 346.043 93.6229C345.69 93.7799 344.568 93.5467 343.808 91.9365C343.647 91.6214 343.383 91.3713 343.061 91.2278C342.167 90.7927 340.486 89.7656 340.783 88.207C341.132 86.3725 343.51 87.9648 343.834 88.3752C344.169 88.7511 344.431 89.1851 344.61 89.6557Z" fill="#3166F7"/>
<path d="M343.904 89.5234C343.489 89.5234 343.153 89.186 343.153 88.7699C343.153 88.3537 343.489 88.0164 343.904 88.0164C344.319 88.0164 344.655 88.3537 344.655 88.7699C344.655 89.186 344.319 89.5234 343.904 89.5234Z" fill="#FCC62D"/>
<path d="M344.118 91.3983C343.704 91.3983 343.367 91.0609 343.367 90.6448C343.367 90.2286 343.704 89.8912 344.118 89.8912C344.533 89.8912 344.87 90.2286 344.87 90.6448C344.87 91.0609 344.533 91.3983 344.118 91.3983Z" fill="#FCC62D"/>
<path d="M345.98 91.5328C345.566 91.5328 345.229 91.1954 345.229 90.7793C345.229 90.3631 345.566 90.0258 345.98 90.0258C346.395 90.0258 346.732 90.3631 346.732 90.7793C346.732 91.1954 346.395 91.5328 345.98 91.5328Z" fill="#FCC62D"/>
<path d="M345.862 89.5504C345.447 89.5504 345.111 89.213 345.111 88.7969C345.111 88.3807 345.447 88.0433 345.862 88.0433C346.277 88.0433 346.613 88.3807 346.613 88.7969C346.613 89.213 346.277 89.5504 345.862 89.5504Z" fill="#FCC62D"/>
<path d="M335.537 83.9684C335.537 83.9684 338.521 85.2781 340.249 80.3421C341.977 75.4061 337.522 74.4149 335.908 75.581C335.908 75.581 334.374 74.1951 331.884 75.9443C329.394 77.6936 331.707 81.6585 332.577 82.9637C333.447 84.2689 334.727 84.3698 335.537 83.9684Z" fill="#75A5F9"/>
<path d="M335.738 76.2425C336.118 76.422 336.553 76.4485 336.952 76.3165C337.473 76.1551 338.219 76.0183 338.771 76.3816C339.733 76.9938 339.692 77.6554 339.563 78.012C339.433 78.3685 338.47 79.0122 336.788 78.4246C336.453 78.318 336.091 78.3298 335.762 78.4582C334.821 78.7969 332.914 79.2678 332.02 77.9581C330.967 76.4197 333.766 75.8456 334.285 75.9017C334.786 75.9267 335.278 76.0422 335.738 76.2425Z" fill="#3166F7"/>
<path d="M334.611 76.8862C334.196 76.8862 333.86 76.5488 333.86 76.1327C333.86 75.7165 334.196 75.3792 334.611 75.3792C335.026 75.3792 335.362 75.7165 335.362 76.1327C335.362 76.5488 335.026 76.8862 334.611 76.8862Z" fill="#FCC62D"/>
<path d="M336.091 78.0503C335.676 78.0503 335.34 77.7129 335.34 77.2967C335.34 76.8806 335.676 76.5432 336.091 76.5432C336.506 76.5432 336.842 76.8806 336.842 77.2967C336.842 77.7129 336.506 78.0503 336.091 78.0503Z" fill="#FCC62D"/>
<path d="M337.495 76.8167C337.08 76.8167 336.743 76.4794 336.743 76.0632C336.743 75.6471 337.08 75.3097 337.495 75.3097C337.909 75.3097 338.246 75.6471 338.246 76.0632C338.246 76.4794 337.909 76.8167 337.495 76.8167Z" fill="#FCC62D"/>
<path d="M336.006 75.507C335.591 75.507 335.255 75.1697 335.255 74.7535C335.255 74.3374 335.591 74 336.006 74C336.421 74 336.757 74.3374 336.757 74.7535C336.757 75.1697 336.421 75.507 336.006 75.507Z" fill="#FCC62D"/>
<path d="M337.922 109.29C337.922 109.29 339.308 112.255 343.855 109.696C348.402 107.137 345.71 103.437 343.729 103.244C343.729 103.244 343.49 101.187 340.477 100.855C337.463 100.524 336.583 105.029 336.375 106.585C336.167 108.142 337.057 109.059 337.922 109.29Z" fill="#3166F7"/>
<path d="M343.162 103.632C343.331 104.022 343.642 104.332 344.031 104.5C344.532 104.724 345.171 105.107 345.357 105.746C345.677 106.845 345.212 107.316 344.876 107.496C344.541 107.675 343.399 107.523 342.525 105.969C342.341 105.666 342.062 105.434 341.731 105.311C340.801 104.944 339.062 104.033 339.25 102.457C339.473 100.604 341.952 102.026 342.306 102.414C342.662 102.765 342.952 103.177 343.162 103.632Z" fill="#75A5F9"/>
<path d="M342.395 103.551C341.98 103.551 341.644 103.214 341.644 102.797C341.644 102.381 341.98 102.044 342.395 102.044C342.81 102.044 343.146 102.381 343.146 102.797C343.146 103.214 342.81 103.551 342.395 103.551Z" fill="#FCC62D"/>
<path d="M342.739 105.408C342.324 105.408 341.988 105.071 341.988 104.654C341.988 104.238 342.324 103.901 342.739 103.901C343.154 103.901 343.49 104.238 343.49 104.654C343.49 105.071 343.154 105.408 342.739 105.408Z" fill="#FCC62D"/>
<path d="M344.606 105.412C344.191 105.412 343.854 105.075 343.854 104.659C343.854 104.243 344.191 103.905 344.606 103.905C345.02 103.905 345.357 104.243 345.357 104.659C345.357 105.075 345.02 105.412 344.606 105.412Z" fill="#FCC62D"/>
<path d="M344.349 103.443C343.934 103.443 343.598 103.106 343.598 102.69C343.598 102.274 343.934 101.936 344.349 101.936C344.764 101.936 345.1 102.274 345.1 102.69C345.1 103.106 344.764 103.443 344.349 103.443Z" fill="#FCC62D"/>
<path d="M328.036 90.3107C328.036 90.3107 331.224 89.6042 329.724 84.592C328.224 79.5797 324.044 81.4007 323.422 83.307C323.422 83.307 321.37 83.0827 320.391 85.969C319.412 88.8552 323.599 90.6942 325.068 91.2346C326.536 91.7751 327.623 91.109 328.036 90.3107Z" fill="#3166F7"/>
<path d="M323.677 83.9482C324.09 83.8668 324.457 83.6311 324.703 83.2889C325.023 82.8404 325.546 82.3044 326.208 82.2618C327.346 82.19 327.701 82.7484 327.804 83.114C327.907 83.4795 327.507 84.5672 325.792 85.0852C325.458 85.1974 325.173 85.4205 324.983 85.7177C324.42 86.5474 323.154 88.0522 321.663 87.5118C319.908 86.8906 321.835 84.7735 322.287 84.5111C322.712 84.2401 323.184 84.0493 323.677 83.9482Z" fill="#75A5F9"/>
<path d="M322.698 85.2691C322.283 85.2691 321.947 84.9318 321.947 84.5156C321.947 84.0994 322.283 83.7621 322.698 83.7621C323.113 83.7621 323.449 84.0994 323.449 84.5156C323.449 84.9318 323.113 85.2691 322.698 85.2691Z" fill="#FCC62D"/>
<path d="M324.578 85.3365C324.163 85.3365 323.827 84.9991 323.827 84.583C323.827 84.1668 324.163 83.8295 324.578 83.8295C324.993 83.8295 325.329 84.1668 325.329 84.583C325.329 84.9991 324.993 85.3365 324.578 85.3365Z" fill="#FCC62D"/>
<path d="M324.989 83.5109C324.575 83.5109 324.238 83.1736 324.238 82.7574C324.238 82.3413 324.575 82.0039 324.989 82.0039C325.404 82.0039 325.741 82.3413 325.741 82.7574C325.741 83.1736 325.404 83.5109 324.989 83.5109Z" fill="#FCC62D"/>
<path d="M323.018 83.3315C322.603 83.3315 322.267 82.9941 322.267 82.578C322.267 82.1618 322.603 81.8245 323.018 81.8245C323.433 81.8245 323.769 82.1618 323.769 82.578C323.769 82.9941 323.433 83.3315 323.018 83.3315Z" fill="#FCC62D"/>
<path d="M327.523 129.586C327.669 129.719 327.849 129.809 328.042 129.847C328.236 129.884 328.437 129.867 328.622 129.797C328.807 129.728 328.969 129.609 329.09 129.452C329.212 129.296 329.288 129.11 329.311 128.913C329.595 126.222 329.662 121.407 327.183 118.115C323.582 113.331 321.25 116.222 321.704 119.178C322.124 121.831 323.45 125.706 327.523 129.586Z" fill="#43BD68"/>
<path d="M330.028 133.059C329.975 133.16 329.95 133.273 329.957 133.386C329.964 133.499 330.003 133.609 330.068 133.701C330.133 133.794 330.222 133.867 330.326 133.912C330.43 133.957 330.544 133.973 330.656 133.956C332.179 133.732 334.848 133.086 336.312 131.243C338.44 128.563 336.515 127.679 334.948 128.35C333.542 128.96 331.591 130.247 330.028 133.059Z" fill="#43BD68"/>
<path d="M329.038 136.403C328.977 136.451 328.932 136.515 328.905 136.587C328.879 136.66 328.874 136.738 328.89 136.813C328.906 136.889 328.943 136.958 328.996 137.014C329.05 137.069 329.118 137.109 329.192 137.127C330.191 137.385 332.011 137.679 333.395 136.921C335.407 135.818 334.445 134.768 333.301 134.775C332.275 134.775 330.732 135.069 329.038 136.403Z" fill="#43BD68"/>
<path d="M327.489 127.969C327.518 127.969 327.547 127.963 327.574 127.951C327.628 127.928 327.671 127.884 327.694 127.83C327.716 127.775 327.717 127.714 327.694 127.659C327.665 127.585 324.643 120.274 324.241 118.765C324.224 118.709 324.186 118.663 324.135 118.634C324.084 118.606 324.025 118.599 323.969 118.614C323.913 118.629 323.865 118.666 323.835 118.716C323.805 118.765 323.796 118.825 323.809 118.882C324.218 120.42 327.162 127.529 327.283 127.83C327.3 127.871 327.328 127.906 327.365 127.93C327.401 127.955 327.445 127.968 327.489 127.969Z" fill="#0D562A"/>
<path d="M331.754 132.665H331.812C331.902 132.64 334.034 132.046 335.961 129.727C335.999 129.681 336.017 129.622 336.012 129.563C336.006 129.503 335.978 129.449 335.932 129.411C335.886 129.373 335.828 129.354 335.768 129.36C335.709 129.365 335.655 129.394 335.617 129.44C333.779 131.651 331.716 132.225 331.696 132.232C331.637 132.24 331.583 132.271 331.546 132.318C331.51 132.366 331.494 132.426 331.501 132.485C331.509 132.545 331.54 132.599 331.587 132.635C331.635 132.672 331.695 132.688 331.754 132.68V132.665Z" fill="#0D562A"/>
<path d="M330.234 136.793C331.403 136.764 332.552 136.483 333.603 135.968C333.631 135.957 333.657 135.939 333.679 135.917C333.7 135.895 333.717 135.869 333.728 135.84C333.739 135.811 333.744 135.781 333.743 135.75C333.741 135.719 333.733 135.689 333.72 135.661C333.706 135.634 333.687 135.609 333.664 135.589C333.64 135.569 333.613 135.554 333.584 135.545C333.554 135.537 333.523 135.534 333.493 135.537C333.462 135.541 333.433 135.551 333.406 135.567C332.405 136.053 331.311 136.318 330.198 136.345C330.139 136.345 330.082 136.368 330.04 136.411C329.998 136.453 329.975 136.51 329.975 136.569C329.975 136.629 329.998 136.686 330.04 136.728C330.082 136.77 330.139 136.793 330.198 136.793H330.234Z" fill="#0D562A"/>
</g>
<g clip-path="url(#clip6)">
<path d="M230.945 136.983C230.945 136.983 234.601 121.424 228.34 113.734C222.55 106.612 218.775 98.3536 217.254 91.9333C216.914 90.5026 214.863 90.6814 214.775 92.1604C214.444 97.7259 215.205 106.054 219.193 117.77C223.835 131.409 228.362 133.512 230.945 136.983Z" fill="#106933"/>
<path d="M242.132 114.483C242.132 114.483 245.1 113.464 245.83 111.073C246.56 108.682 245.348 106.525 244.442 105.529C243.537 104.533 243.063 105.799 243.063 105.799C243.063 105.799 243.063 105.083 242.22 104.806C241.376 104.529 238.406 106.319 237.86 108.741C237.315 111.162 238.913 113.65 238.913 113.65L242.132 114.483Z" fill="#FFC440"/>
<path d="M230.415 140L231.394 139.907C229.229 116.352 232.387 99.1495 232.429 98.9796L231.462 98.79C231.431 98.9617 228.234 116.306 230.415 140Z" fill="#36C06E"/>
<path d="M230.206 137.176L230.983 136.573C220.222 122.025 221.187 108.091 221.199 107.959L220.219 107.879C220.215 108.016 219.229 122.327 230.206 137.176Z" fill="#36C06E"/>
<path d="M230.913 135.282C238.416 127.215 240.872 115.232 240.895 115.111L239.93 114.912C239.907 115.029 237.504 126.737 230.197 134.585L230.913 135.282Z" fill="#36C06E"/>
<path d="M230.431 137.217C230.431 137.217 230.927 127.202 220.11 118.398C215.493 114.642 212.63 110.887 210.865 107.813C210.302 106.834 208.814 107.405 209.02 108.528C209.748 112.509 211.048 117.547 213.36 122.452C218.323 132.968 224.279 134.485 230.431 137.217Z" fill="#0D562A"/>
<path d="M234.92 97.5167C234.92 97.5167 239.563 94.9342 240.092 90.7369C240.62 86.5395 237.986 83.3115 236.186 81.9129C234.387 80.5144 233.965 82.7731 233.965 82.7731C233.965 82.7731 233.755 81.591 232.278 81.3746C230.801 81.1582 226.366 85.0337 226.155 89.231C225.945 93.4284 229.313 97.0857 229.313 97.0857L234.92 97.5167Z" fill="#FC892B"/>
<path d="M232.097 100.371C232.727 100.398 235.72 100.353 236.513 97.1089C236.543 96.9752 236.546 96.8366 236.522 96.7017C236.498 96.5668 236.447 96.4382 236.373 96.3237C236.299 96.2092 236.203 96.1113 236.091 96.0357C235.978 95.9601 235.852 95.9084 235.72 95.8838C235.05 95.7551 234.117 95.705 233.243 96.0859C233.062 96.1725 232.86 96.2017 232.663 96.1698C232.465 96.1379 232.282 96.0464 232.136 95.9071C231.711 95.4713 231.19 95.1457 230.616 94.9574C230.042 94.7692 229.432 94.7238 228.838 94.8251C228.597 94.8651 228.378 94.9939 228.224 95.1871C228.07 95.3802 227.991 95.6243 228.001 95.8731C228.059 97.1393 228.627 99.4499 231.876 100.333C231.949 100.354 232.023 100.366 232.097 100.371Z" fill="#36C06E"/>
<path d="M233.576 81.4588C233.576 81.4588 233.317 77.9124 231.49 78C229.664 78.0876 233.099 80.35 233.576 81.4588Z" fill="#FFC440"/>
<path d="M233.966 81.5009C233.966 81.5009 234.22 77.9563 236.046 78.0457C237.872 78.1352 234.438 80.3939 233.966 81.5009Z" fill="#FFC440"/>
<path d="M222.563 106.446C222.563 106.446 225.691 103.983 225.596 100.825C225.501 97.6668 223.182 95.6013 221.696 94.7857C220.21 93.9702 220.159 95.6799 220.159 95.6799C220.159 95.6799 219.868 94.8322 218.756 94.8519C217.644 94.8716 214.819 98.2499 215.147 101.381C215.475 104.513 218.393 106.793 218.393 106.793L222.563 106.446Z" fill="#FFC440"/>
<path d="M220.809 108.891C221.275 108.835 223.479 108.444 223.687 105.956C223.695 105.854 223.682 105.751 223.649 105.654C223.617 105.556 223.565 105.467 223.497 105.391C223.43 105.315 223.348 105.253 223.256 105.211C223.165 105.168 223.065 105.145 222.965 105.142C222.334 105.106 221.706 105.261 221.161 105.588C221.038 105.673 220.892 105.718 220.743 105.718C220.594 105.718 220.448 105.673 220.324 105.588C219.962 105.318 219.541 105.141 219.098 105.071C218.655 105 218.201 105.039 217.775 105.184C217.601 105.241 217.453 105.362 217.36 105.524C217.267 105.686 217.236 105.876 217.272 106.06C217.461 106.988 218.149 108.63 220.645 108.886C220.699 108.893 220.754 108.895 220.809 108.891Z" fill="#36C06E"/>
<path d="M219.724 94.7625C219.724 94.7625 219.122 92.1783 217.794 92.4627C216.466 92.747 219.244 94.0025 219.724 94.7625Z" fill="#FC892B"/>
<path d="M220.01 94.75C220.01 94.75 219.795 92.1032 221.151 91.9494C222.507 91.7956 220.237 93.8755 220.01 94.75Z" fill="#FC892B"/>
<path d="M240.201 115.842C240.564 115.925 242.315 116.211 243.102 114.412C243.134 114.337 243.15 114.256 243.15 114.175C243.15 114.093 243.134 114.013 243.103 113.938C243.071 113.863 243.025 113.796 242.968 113.739C242.91 113.683 242.842 113.639 242.767 113.61C242.303 113.418 241.794 113.369 241.302 113.469C241.189 113.501 241.068 113.497 240.957 113.459C240.845 113.42 240.747 113.348 240.676 113.253C240.472 112.954 240.201 112.71 239.885 112.54C239.57 112.37 239.219 112.28 238.862 112.276C238.717 112.273 238.575 112.324 238.465 112.421C238.354 112.517 238.283 112.652 238.264 112.798C238.169 113.542 238.264 114.954 240.073 115.805C240.114 115.822 240.157 115.834 240.201 115.842Z" fill="#36C06E"/>
<path d="M242.967 104.974C242.967 104.974 243.172 102.88 242.1 102.74C241.028 102.601 242.8 104.279 242.967 104.974Z" fill="#FC892B"/>
<path d="M243.186 105.039C243.186 105.039 243.695 103 244.751 103.25C245.807 103.501 243.576 104.443 243.186 105.039Z" fill="#FC892B"/>
<path d="M230.438 137.196C230.438 137.196 238.946 136.164 242.728 127.002C244.807 121.971 246.597 119.33 247.795 117.974C247.911 117.846 247.982 117.682 247.996 117.508C248.01 117.334 247.966 117.16 247.872 117.015C247.777 116.869 247.638 116.761 247.475 116.706C247.312 116.651 247.137 116.654 246.976 116.713C245.63 117.205 243.858 118.532 242.053 121.844C238.339 128.658 230.843 131.963 230.438 137.196Z" fill="#0D562A"/>
</g>
<g clip-path="url(#clip7)">
<path d="M367.945 136.983C367.945 136.983 371.601 121.424 365.34 113.734C359.55 106.612 355.775 98.3536 354.254 91.9333C353.914 90.5026 351.863 90.6814 351.775 92.1604C351.444 97.7259 352.205 106.054 356.193 117.77C360.835 131.409 365.362 133.512 367.945 136.983Z" fill="#106933"/>
<path d="M379.132 114.483C379.132 114.483 382.1 113.464 382.83 111.073C383.56 108.682 382.348 106.525 381.442 105.529C380.537 104.533 380.063 105.799 380.063 105.799C380.063 105.799 380.063 105.083 379.22 104.806C378.376 104.529 375.406 106.319 374.86 108.741C374.315 111.162 375.913 113.65 375.913 113.65L379.132 114.483Z" fill="#FFC440"/>
<path d="M367.415 140L368.394 139.907C366.229 116.352 369.387 99.1495 369.429 98.9796L368.462 98.79C368.431 98.9617 365.234 116.306 367.415 140Z" fill="#36C06E"/>
<path d="M367.206 137.176L367.983 136.573C357.222 122.025 358.187 108.091 358.199 107.959L357.219 107.879C357.215 108.016 356.229 122.327 367.206 137.176Z" fill="#36C06E"/>
<path d="M367.913 135.282C375.416 127.215 377.872 115.232 377.895 115.111L376.93 114.912C376.907 115.029 374.504 126.737 367.197 134.585L367.913 135.282Z" fill="#36C06E"/>
<path d="M367.431 137.217C367.431 137.217 367.927 127.202 357.11 118.398C352.493 114.642 349.63 110.887 347.865 107.813C347.302 106.834 345.814 107.405 346.02 108.528C346.748 112.509 348.048 117.547 350.36 122.452C355.323 132.968 361.279 134.485 367.431 137.217Z" fill="#0D562A"/>
<path d="M371.92 97.5167C371.92 97.5167 376.563 94.9342 377.092 90.7369C377.62 86.5395 374.986 83.3115 373.186 81.9129C371.387 80.5144 370.965 82.7731 370.965 82.7731C370.965 82.7731 370.755 81.591 369.278 81.3746C367.801 81.1582 363.366 85.0337 363.155 89.231C362.945 93.4284 366.313 97.0857 366.313 97.0857L371.92 97.5167Z" fill="#FC892B"/>
<path d="M369.097 100.371C369.727 100.398 372.72 100.353 373.513 97.1089C373.543 96.9752 373.546 96.8366 373.522 96.7017C373.498 96.5668 373.447 96.4382 373.373 96.3237C373.299 96.2092 373.203 96.1113 373.091 96.0357C372.978 95.9601 372.852 95.9084 372.72 95.8838C372.05 95.7551 371.117 95.705 370.243 96.0859C370.062 96.1725 369.86 96.2017 369.663 96.1698C369.465 96.1379 369.282 96.0464 369.136 95.9071C368.711 95.4713 368.19 95.1457 367.616 94.9574C367.042 94.7692 366.432 94.7238 365.838 94.8251C365.597 94.8651 365.378 94.9939 365.224 95.1871C365.07 95.3802 364.991 95.6243 365.001 95.8731C365.059 97.1393 365.627 99.4499 368.876 100.333C368.949 100.354 369.023 100.366 369.097 100.371Z" fill="#36C06E"/>
<path d="M370.576 81.4588C370.576 81.4588 370.317 77.9124 368.49 78C366.664 78.0876 370.099 80.35 370.576 81.4588Z" fill="#FFC440"/>
<path d="M370.966 81.5009C370.966 81.5009 371.22 77.9563 373.046 78.0457C374.872 78.1352 371.438 80.3939 370.966 81.5009Z" fill="#FFC440"/>
<path d="M359.563 106.446C359.563 106.446 362.691 103.983 362.596 100.825C362.501 97.6668 360.182 95.6013 358.696 94.7857C357.21 93.9702 357.159 95.6799 357.159 95.6799C357.159 95.6799 356.868 94.8322 355.756 94.8519C354.644 94.8716 351.819 98.2499 352.147 101.381C352.475 104.513 355.393 106.793 355.393 106.793L359.563 106.446Z" fill="#FFC440"/>
<path d="M357.809 108.891C358.275 108.835 360.479 108.444 360.687 105.956C360.695 105.854 360.682 105.751 360.649 105.654C360.617 105.556 360.565 105.467 360.497 105.391C360.43 105.315 360.348 105.253 360.256 105.211C360.165 105.168 360.065 105.145 359.965 105.142C359.334 105.106 358.706 105.261 358.161 105.588C358.038 105.673 357.892 105.718 357.743 105.718C357.594 105.718 357.448 105.673 357.324 105.588C356.962 105.318 356.541 105.141 356.098 105.071C355.655 105 355.201 105.039 354.775 105.184C354.601 105.241 354.453 105.362 354.36 105.524C354.267 105.686 354.236 105.876 354.272 106.06C354.461 106.988 355.149 108.63 357.645 108.886C357.699 108.893 357.754 108.895 357.809 108.891Z" fill="#36C06E"/>
<path d="M356.724 94.7625C356.724 94.7625 356.122 92.1783 354.794 92.4627C353.466 92.747 356.244 94.0025 356.724 94.7625Z" fill="#FC892B"/>
<path d="M357.01 94.75C357.01 94.75 356.795 92.1032 358.151 91.9494C359.507 91.7956 357.237 93.8755 357.01 94.75Z" fill="#FC892B"/>
<path d="M367.438 137.196C367.438 137.196 375.946 136.164 379.728 127.002C381.807 121.971 383.597 119.33 384.795 117.974C384.911 117.846 384.982 117.682 384.996 117.508C385.01 117.334 384.966 117.16 384.872 117.015C384.777 116.869 384.638 116.761 384.475 116.706C384.312 116.651 384.137 116.654 383.976 116.713C382.63 117.205 380.858 118.532 379.053 121.844C375.339 128.658 367.843 131.963 367.438 137.196Z" fill="#0D562A"/>
</g>
<circle cx="174" cy="71" r="2" fill="#75A5F9"/>
<circle cx="245" cy="72" r="2" fill="#FCC62D"/>
<circle cx="318" cy="73" r="2" fill="#75A5F9"/>
<circle cx="238" cy="64" r="3" fill="#FC892B"/>
<circle cx="325" cy="66" r="3" fill="#75A5F9"/>
<circle cx="182" cy="61" r="3" fill="#3166F7"/>
</g>
<defs>
<clipPath id="clip0">
<rect width="375" height="140" fill="white"/>
</clipPath>
<clipPath id="clip1">
<rect width="30.6078" height="69.9608" fill="white" transform="translate(149 75)"/>
</clipPath>
<clipPath id="clip2">
<rect width="30.6078" height="69.9608" fill="white" transform="translate(285 75)"/>
</clipPath>
<clipPath id="clip3">
<rect width="30.6078" height="69.9608" fill="white" transform="matrix(-1 0 0 1 211.608 74)"/>
</clipPath>
<clipPath id="clip4">
<rect width="30.6078" height="69.9608" fill="white" transform="matrix(-1 0 0 1 279.608 74)"/>
</clipPath>
<clipPath id="clip5">
<rect width="30.6078" height="69.9608" fill="white" transform="matrix(-1 0 0 1 347.608 74)"/>
</clipPath>
<clipPath id="clip6">
<rect width="39" height="62" fill="white" transform="matrix(-1 0 0 1 248 78)"/>
</clipPath>
<clipPath id="clip7">
<rect width="39" height="62" fill="white" transform="matrix(-1 0 0 1 385 78)"/>
</clipPath>
</defs>
</svg>
