<svg width="375" height="140" viewBox="0 0 375 140" fill="none" xmlns="http://www.w3.org/2000/svg">
<g clip-path="url(#clip0)">
<path d="M114 0H429V140H114V0Z" fill="#007F36"/>
<path d="M114 32C114 14.3269 128.327 0 146 0H397C414.673 0 429 14.3269 429 32V140H114V32Z" fill="#4BA36F"/>
<path d="M242.765 111.517C242.76 111.462 241.754 97.5582 226.555 95.6242C218.854 94.6465 212.05 96.4738 208.68 101.137C206.547 104.032 203.438 106.289 199.667 107.678C196.911 108.705 194.548 110.255 192.739 112.22C190.93 114.186 189.718 116.521 189.186 119.065C188.654 121.608 188.815 124.301 189.658 126.958C190.501 129.615 192.006 132.172 194.07 134.455C196.133 136.739 198.706 138.693 201.612 140.185C204.518 141.676 207.689 142.67 210.905 143.097C214.122 143.524 217.309 143.375 220.248 142.659C223.187 141.943 225.807 140.678 227.93 138.951C231.173 136.329 235.866 135.858 240.59 135.411C244.986 134.992 250.853 132.625 251.256 128.088C251.526 125.052 249.7 122.368 247.415 119.907C245.029 117.325 242.993 114.565 242.765 111.517Z" fill="#FFAAA1"/>
<path d="M235.584 117.212C235.364 117.299 235.115 117.34 234.857 117.333C234.598 117.325 234.337 117.269 234.091 117.168L232.619 116.564C232.4 116.477 232.198 116.358 232.025 116.213C231.851 116.067 231.709 115.898 231.608 115.716C231.506 115.534 231.447 115.342 231.433 115.151C231.419 114.96 231.451 114.775 231.527 114.606C231.603 114.437 231.722 114.287 231.876 114.165C232.031 114.044 232.217 113.953 232.426 113.898C232.634 113.844 232.86 113.826 233.09 113.846C233.32 113.867 233.549 113.925 233.765 114.017L235.235 114.619C235.543 114.745 235.815 114.937 236.018 115.171C236.221 115.406 236.348 115.674 236.385 115.945C236.421 116.216 236.365 116.479 236.224 116.703C236.082 116.927 235.86 117.104 235.584 117.212Z" fill="#FC9381"/>
<path d="M217.719 104.567C217.415 104.687 217.059 104.719 216.701 104.658C216.342 104.598 215.998 104.448 215.718 104.229C215.437 104.011 215.232 103.734 215.133 103.438C215.034 103.142 215.044 102.841 215.163 102.577L215.677 101.433C215.752 101.266 215.869 101.117 216.02 100.996C216.172 100.875 216.355 100.784 216.56 100.728C216.765 100.672 216.988 100.652 217.215 100.67C217.442 100.687 217.67 100.742 217.884 100.83C218.099 100.918 218.297 101.038 218.466 101.184C218.636 101.329 218.774 101.497 218.873 101.678C218.972 101.858 219.029 102.048 219.042 102.237C219.055 102.425 219.022 102.608 218.947 102.776L218.431 103.921C218.301 104.208 218.05 104.436 217.719 104.567Z" fill="#FC9381"/>
<path d="M229.276 131.897C229.055 131.984 228.806 132.026 228.547 132.018C228.288 132.011 228.026 131.954 227.78 131.853L226.31 131.248C225.885 131.066 225.539 130.761 225.346 130.4C225.153 130.038 225.13 129.649 225.28 129.315C225.43 128.982 225.742 128.73 226.149 128.616C226.556 128.501 227.026 128.532 227.456 128.702L228.929 129.306C229.36 129.485 229.712 129.789 229.91 130.152C230.107 130.516 230.134 130.908 229.984 131.245C229.858 131.535 229.608 131.765 229.276 131.897Z" fill="#FC9381"/>
<path d="M241.379 129.161C241.119 129.263 240.82 129.301 240.512 129.271C240.205 129.242 239.901 129.145 239.631 128.991C239.361 128.837 239.135 128.631 238.976 128.396C238.817 128.16 238.731 127.902 238.727 127.649L238.706 126.365C238.694 126.173 238.729 125.986 238.809 125.816C238.889 125.646 239.012 125.497 239.171 125.377C239.33 125.256 239.522 125.168 239.735 125.117C239.948 125.066 240.177 125.052 240.41 125.078C240.643 125.104 240.874 125.168 241.089 125.267C241.305 125.366 241.5 125.497 241.664 125.653C241.828 125.809 241.957 125.986 242.043 126.174C242.13 126.363 242.172 126.558 242.167 126.749L242.19 128.031C242.195 128.276 242.123 128.509 241.981 128.707C241.839 128.905 241.631 129.061 241.379 129.161Z" fill="#FC9381"/>
<path d="M231.027 106.768L230.863 106.833C230.658 106.889 230.435 106.909 230.208 106.892C229.981 106.874 229.754 106.82 229.539 106.732C229.324 106.643 229.126 106.523 228.957 106.377C228.787 106.232 228.649 106.064 228.551 105.883L227.877 104.645C227.768 104.462 227.702 104.269 227.683 104.075C227.663 103.882 227.691 103.694 227.764 103.521C227.836 103.348 227.953 103.194 228.107 103.069C228.26 102.944 228.448 102.85 228.658 102.793C228.867 102.735 229.095 102.716 229.328 102.736C229.561 102.755 229.793 102.814 230.011 102.907C230.23 103.001 230.429 103.128 230.598 103.28C230.768 103.432 230.903 103.607 230.996 103.794L231.672 105.031C231.854 105.369 231.889 105.732 231.77 106.052C231.651 106.373 231.386 106.627 231.027 106.768Z" fill="#FC9381"/>
<path d="M214.671 134.696L214.504 134.762C214.09 134.874 213.614 134.837 213.181 134.659C212.748 134.481 212.394 134.176 212.195 133.811L211.516 132.572C211.318 132.207 211.291 131.812 211.444 131.474C211.596 131.136 211.914 130.883 212.329 130.771C212.743 130.658 213.219 130.695 213.652 130.873C214.086 131.052 214.441 131.357 214.64 131.722L215.314 132.96C215.495 133.297 215.53 133.66 215.411 133.98C215.293 134.3 215.029 134.555 214.671 134.696Z" fill="#FC9381"/>
<path d="M221.178 121.171C220.808 121.314 220.366 121.327 219.939 121.206C219.511 121.086 219.131 120.842 218.873 120.522C218.615 120.202 218.498 119.831 218.546 119.481C218.593 119.131 218.802 118.829 219.131 118.634L220.313 117.944C220.485 117.843 220.685 117.775 220.901 117.743C221.117 117.711 221.345 117.716 221.572 117.758C221.799 117.8 222.02 117.878 222.223 117.987C222.426 118.096 222.607 118.235 222.755 118.395C222.903 118.555 223.016 118.733 223.087 118.92C223.158 119.106 223.186 119.297 223.169 119.481C223.152 119.666 223.09 119.84 222.988 119.994C222.885 120.149 222.743 120.28 222.571 120.381L221.389 121.071C221.322 121.108 221.252 121.142 221.178 121.171Z" fill="#FC9381"/>
<path d="M161.212 121.842C161.184 121.873 153.852 129.67 162.921 136.645C167.517 140.178 173.128 141.867 178.07 140.702C181.166 139.995 184.549 140.01 187.875 140.746C190.312 141.276 192.788 141.376 195.131 141.037C197.475 140.698 199.631 139.929 201.452 138.782C203.273 137.636 204.716 136.139 205.681 134.395C206.646 132.65 207.11 130.7 207.042 128.677C206.975 126.654 206.376 124.607 205.288 122.676C204.2 120.745 202.648 118.976 200.739 117.49C198.83 116.005 196.608 114.837 194.228 114.069C191.847 113.3 189.363 112.949 186.946 113.038C183.264 113.165 179.849 111.581 176.426 109.971C173.24 108.474 167.947 107.439 165.065 109.697C163.136 111.208 162.813 113.352 162.928 115.556C163.04 117.864 162.814 120.13 161.212 121.842Z" fill="#FFD1CC"/>
<path d="M169.302 121.619C169.5 121.659 169.69 121.734 169.859 121.839C170.027 121.944 170.17 122.077 170.277 122.226L170.915 123.124C171.012 123.255 171.079 123.398 171.111 123.543C171.144 123.689 171.141 123.834 171.105 123.971C171.068 124.108 170.997 124.233 170.896 124.34C170.796 124.447 170.668 124.533 170.519 124.593C170.371 124.654 170.205 124.687 170.032 124.691C169.858 124.696 169.681 124.671 169.51 124.619C169.339 124.566 169.177 124.488 169.035 124.387C168.893 124.286 168.773 124.165 168.681 124.032L168.042 123.136C167.909 122.948 167.837 122.74 167.836 122.536C167.835 122.331 167.904 122.139 168.036 121.98C168.168 121.822 168.356 121.704 168.58 121.64C168.804 121.576 169.055 121.568 169.302 121.619Z" fill="#FFBAAE"/>
<path d="M173.99 135.34C174.263 135.395 174.519 135.517 174.725 135.69C174.93 135.862 175.074 136.077 175.136 136.303C175.199 136.529 175.176 136.756 175.072 136.953C174.968 137.149 174.788 137.306 174.556 137.4L173.553 137.808C173.407 137.867 173.243 137.901 173.072 137.906C172.901 137.911 172.725 137.888 172.556 137.837C172.386 137.787 172.226 137.711 172.084 137.612C171.942 137.514 171.82 137.396 171.727 137.265C171.634 137.135 171.571 136.993 171.541 136.849C171.511 136.705 171.515 136.562 171.553 136.427C171.591 136.292 171.662 136.169 171.762 136.064C171.862 135.958 171.989 135.873 172.136 135.814L173.141 135.406C173.393 135.303 173.693 135.28 173.99 135.34Z" fill="#FFBAAE"/>
<path d="M181.983 116.268C182.181 116.307 182.372 116.383 182.541 116.488C182.71 116.593 182.853 116.726 182.96 116.876L183.596 117.773C183.776 118.036 183.833 118.334 183.754 118.602C183.675 118.87 183.466 119.086 183.174 119.205C182.881 119.324 182.527 119.336 182.189 119.238C181.85 119.14 181.553 118.939 181.362 118.681L180.724 117.783C180.538 117.519 180.477 117.219 180.554 116.948C180.631 116.678 180.839 116.458 181.134 116.338C181.385 116.233 181.685 116.208 181.983 116.268Z" fill="#FFBAAE"/>
<path d="M172.299 112.99C172.533 113.037 172.755 113.134 172.944 113.27C173.133 113.406 173.281 113.577 173.373 113.764C173.465 113.952 173.498 114.15 173.469 114.337C173.439 114.525 173.349 114.696 173.206 114.833L172.481 115.524C172.378 115.631 172.247 115.717 172.095 115.776C171.944 115.835 171.775 115.867 171.6 115.868C171.424 115.87 171.245 115.842 171.073 115.786C170.9 115.73 170.739 115.648 170.598 115.543C170.457 115.438 170.339 115.314 170.252 115.177C170.164 115.04 170.109 114.893 170.089 114.746C170.069 114.599 170.084 114.454 170.135 114.32C170.186 114.186 170.27 114.066 170.383 113.966L171.105 113.274C171.243 113.142 171.426 113.046 171.635 112.996C171.844 112.946 172.073 112.944 172.299 112.99Z" fill="#FFBAAE"/>
<path d="M166.343 128.963L166.49 128.992C166.66 129.043 166.82 129.119 166.962 129.217C167.104 129.315 167.225 129.433 167.318 129.564C167.411 129.695 167.475 129.837 167.504 129.98C167.534 130.124 167.53 130.268 167.492 130.402L167.23 131.325C167.198 131.465 167.131 131.594 167.033 131.705C166.934 131.815 166.807 131.905 166.659 131.968C166.511 132.032 166.344 132.068 166.169 132.075C165.994 132.081 165.814 132.058 165.641 132.006C165.467 131.955 165.303 131.876 165.159 131.774C165.014 131.673 164.892 131.551 164.8 131.416C164.708 131.28 164.647 131.135 164.621 130.988C164.596 130.84 164.606 130.694 164.651 130.558L164.91 129.635C164.983 129.384 165.169 129.177 165.433 129.053C165.697 128.929 166.021 128.897 166.343 128.963Z" fill="#FFBAAE"/>
<path d="M193.38 120.49L193.53 120.521C193.872 120.623 194.169 120.829 194.356 121.093C194.544 121.357 194.606 121.658 194.529 121.93L194.27 122.856C194.193 123.128 193.983 123.348 193.687 123.468C193.39 123.589 193.031 123.599 192.689 123.497C192.347 123.395 192.049 123.189 191.861 122.924C191.674 122.66 191.611 122.358 191.688 122.086L191.95 121.163C192.022 120.913 192.208 120.706 192.472 120.582C192.735 120.458 193.058 120.425 193.38 120.49Z" fill="#FFBAAE"/>
<path d="M181.233 125.146C181.563 125.215 181.867 125.381 182.084 125.612C182.301 125.844 182.415 126.122 182.404 126.394C182.392 126.665 182.257 126.909 182.023 127.076C181.79 127.244 181.476 127.323 181.144 127.298L179.955 127.203C179.781 127.19 179.608 127.148 179.445 127.08C179.282 127.013 179.132 126.921 179.004 126.81C178.876 126.699 178.773 126.571 178.7 126.433C178.627 126.295 178.585 126.151 178.578 126.008C178.571 125.864 178.598 125.725 178.658 125.598C178.717 125.471 178.809 125.359 178.926 125.267C179.044 125.176 179.186 125.107 179.343 125.065C179.501 125.023 179.671 125.008 179.845 125.022L181.034 125.117C181.1 125.123 181.167 125.133 181.233 125.146Z" fill="#FFBAAE"/>
<g clip-path="url(#clip1)">
<path d="M186.738 131.721C186.738 131.721 186.502 138.126 179.988 132.874C173.475 127.621 175.538 120.555 167.473 116.196C159.408 111.838 175.434 114.176 178.634 116.637C181.834 119.097 184.951 120.544 187.604 125.682C190.257 130.821 186.738 131.721 186.738 131.721Z" fill="#007D33"/>
<path d="M175.964 119.937C175.939 119.923 175.917 119.905 175.899 119.883C175.881 119.861 175.867 119.836 175.859 119.809C175.843 119.754 175.849 119.695 175.876 119.644C175.903 119.594 175.95 119.557 176.005 119.54C176.06 119.524 176.119 119.53 176.17 119.557C181.535 122.437 186.034 130.033 186.947 131.648C186.88 131.677 186.81 131.701 186.738 131.721C186.738 131.721 186.738 131.871 186.701 132.093C186.267 131.303 181.584 122.954 175.964 119.937Z" fill="#0D562A"/>
<path d="M188.475 134.995C188.475 134.995 194.979 134.97 188.826 129.794C182.673 124.618 174.706 123.502 171.394 122.586C168.082 121.669 165.424 120.243 165.021 121.445C164.618 122.646 170.064 125.221 173.07 129.025C176.076 132.829 182.802 139.088 186.979 138.523C190.819 138.006 188.475 134.995 188.475 134.995Z" fill="#0D562A"/>
<path d="M175.967 126.824C182.384 129.518 187.705 133.771 188.972 134.965C188.669 134.995 188.475 134.997 188.475 134.997C188.475 134.997 188.555 135.099 188.661 135.269C187.523 134.234 182.297 129.954 175.797 127.222C175.77 127.211 175.746 127.196 175.725 127.175C175.704 127.155 175.687 127.131 175.676 127.105C175.665 127.078 175.659 127.049 175.659 127.02C175.659 126.992 175.665 126.963 175.677 126.936C175.688 126.91 175.705 126.886 175.725 126.866C175.746 126.846 175.771 126.83 175.798 126.82C175.825 126.809 175.854 126.804 175.883 126.805C175.912 126.806 175.941 126.813 175.967 126.825V126.824Z" fill="#3CA064"/>
<path d="M191.319 128.013C191.319 128.013 194.59 130.415 195.763 124.99C196.935 119.566 189.255 120.902 189.867 115.89C190.479 110.879 189.079 99.8251 183.503 93.3242C177.927 86.8233 181.821 94.562 179.458 102.219C177.094 109.876 180.299 119.355 183.7 123.759C187.102 128.163 186.514 132.051 188.206 132.156C189.899 132.262 191.726 129.56 191.319 128.013Z" fill="#0D562A"/>
<path d="M186.887 130.481C186.831 130.315 186.773 130.141 186.714 129.955C187.713 130.388 189.188 130.435 190.928 130.094C190.839 130.262 190.741 130.426 190.634 130.584C189.14 130.836 187.866 130.804 186.887 130.481Z" fill="#3CA064"/>
<path d="M186.19 128.38C188.057 128.726 190.043 128.262 190.779 128.056C190.496 127.728 190.157 127.326 189.782 126.857C189.296 127.015 187.55 127.504 185.681 127.109C185.608 126.944 185.529 126.779 185.449 126.61C187.152 127.07 188.854 126.678 189.494 126.492C187.94 124.501 185.926 121.531 184.822 118.342C183.99 115.943 183.94 113.729 184.052 111.708C181.953 110.843 179.734 109.228 178.653 108.392C178.653 108.208 178.653 108.022 178.653 107.838C179.562 108.551 181.902 110.321 184.084 111.253C184.114 110.817 184.146 110.386 184.181 109.968C184.196 109.782 184.211 109.596 184.225 109.411C183.349 108.71 180.346 105.642 178.978 104.229C179.009 104.057 179.041 103.884 179.078 103.712C180.555 105.236 183.231 107.966 184.264 108.88C184.381 107.203 184.399 105.605 183.875 104.102C183.846 104 183.822 103.816 183.985 103.757C184.184 103.688 184.269 103.908 184.269 103.908L184.296 103.992C184.947 105.893 184.785 107.888 184.613 109.999C184.411 112.462 184.205 115.007 185.14 117.908C188.184 115.514 189.534 113.732 190.001 113.011C190.001 113.27 190.001 113.523 190.001 113.765C189.302 114.702 187.896 116.302 185.284 118.337C185.531 119.026 185.814 119.701 186.131 120.361C187.494 119.209 189.279 117.345 189.849 116.742C189.864 116.922 189.895 117.1 189.94 117.274C189.182 118.058 187.564 119.723 186.326 120.757C186.584 121.271 186.857 121.773 187.138 122.257C188.382 121.42 190.24 119.138 190.661 118.612C190.757 118.717 190.858 118.818 190.964 118.913C190.493 119.504 188.811 121.561 187.535 122.498C187.473 122.544 187.414 122.583 187.353 122.624C188.514 124.533 189.842 126.337 191.322 128.013C191.375 128.24 191.39 128.474 191.364 128.705L191.094 128.404C190.57 128.567 188.457 129.158 186.352 128.835C186.3 128.693 186.247 128.539 186.19 128.38Z" fill="#3CA064"/>
<path d="M214.043 118.342C214.043 118.342 207.657 119.188 211.771 111.915C215.884 104.642 223.227 105.479 226.189 96.8385C229.151 88.1983 229.523 104.307 227.629 107.861C225.735 111.414 224.821 114.713 220.169 118.181C215.518 121.648 214.043 118.342 214.043 118.342Z" fill="#007D33"/>
<path d="M223.906 105.278C223.914 105.251 223.928 105.225 223.947 105.203C223.965 105.181 223.988 105.162 224.014 105.149C224.04 105.136 224.068 105.128 224.097 105.126C224.126 105.124 224.155 105.127 224.182 105.136C224.21 105.145 224.235 105.16 224.257 105.179C224.278 105.198 224.296 105.222 224.309 105.248C224.321 105.274 224.328 105.302 224.33 105.331C224.331 105.36 224.326 105.388 224.316 105.415C222.366 111.163 215.596 116.852 214.151 118.021C214.111 117.958 214.075 117.893 214.043 117.826C214.043 117.826 213.892 117.846 213.668 117.853C214.378 117.296 221.863 111.297 223.906 105.278Z" fill="#0D562A"/>
<path d="M215.554 131.858C215.554 131.858 211.463 137.183 218.768 137.84C226.072 138.497 229.251 131.384 235.377 129.948C241.503 128.511 245.67 125.514 243.57 124.885C241.47 124.256 227.542 126.794 221.959 125.985C216.375 125.177 209.636 129.625 215.554 131.858Z" fill="#007D33"/>
<path d="M218.216 131.683C218.237 131.681 218.259 131.681 218.28 131.683C218.878 131.65 219.521 131.606 220.19 131.552C220.217 131.536 220.247 131.527 220.278 131.524C220.309 131.522 220.34 131.526 220.369 131.537C221.824 131.414 223.4 131.235 224.942 130.982C225.127 130.343 225.883 127.847 226.898 126.093L227.416 126.067C226.442 127.636 225.681 130.015 225.418 130.9C225.953 130.805 226.478 130.7 226.998 130.584C227.212 130.07 228.244 127.624 229.2 125.951L229.725 125.91C228.874 127.336 227.897 129.575 227.519 130.463C229.715 129.928 231.627 129.18 232.71 128.135C232.729 128.11 232.753 128.09 232.78 128.075C232.807 128.06 232.837 128.051 232.868 128.049C232.9 128.046 232.931 128.051 232.96 128.061C232.989 128.072 233.016 128.089 233.038 128.111C233.06 128.133 233.077 128.159 233.088 128.188C233.099 128.218 233.103 128.249 233.101 128.28C233.098 128.31 233.089 128.341 233.074 128.368C233.059 128.395 233.038 128.418 233.013 128.437C231.469 129.928 228.407 130.833 225.191 131.383C225.162 131.395 225.132 131.4 225.101 131.398C223.627 131.647 222.125 131.823 220.722 131.945C222.218 133.959 224.671 135.669 225.391 136.147C225.253 136.231 225.115 136.313 224.975 136.391C224.152 135.833 223.364 135.227 222.615 134.574C221.718 133.808 220.915 132.94 220.222 131.987C219.662 132.033 219.118 132.07 218.604 132.1C219.878 134.739 222.107 136.663 222.947 137.326C222.781 137.383 222.616 137.437 222.45 137.486C222.315 137.377 222.163 137.25 221.995 137.104C220.896 136.144 219.187 134.391 218.136 132.129C217.681 132.152 217.26 132.171 216.868 132.185C217.187 134.597 218.796 136.868 219.595 137.876C219.407 137.876 219.216 137.866 219.022 137.854C218.139 136.702 216.721 134.537 216.425 132.2C215.996 132.214 215.621 132.221 215.298 132.227C215.449 131.995 215.549 131.856 215.549 131.856C215.493 131.835 215.445 131.812 215.398 131.79C216.105 131.782 217.081 131.746 218.216 131.683Z" fill="#0D562A"/>
<path d="M209.48 117.404C209.48 117.404 210.598 123.78 214.692 116.875C218.786 109.97 218.55 101.966 218.898 98.5647C219.247 95.1635 220.218 92.3156 218.96 92.1211C217.703 91.9266 216.062 97.7099 212.804 101.289C209.546 104.868 204.47 112.527 205.731 116.53C206.89 120.208 209.48 117.404 209.48 117.404Z" fill="#0D562A"/>
<path d="M215.472 103.762C213.881 110.508 210.563 116.444 209.593 117.887C209.514 117.602 209.48 117.404 209.48 117.404C209.48 117.404 209.392 117.499 209.24 117.632C210.075 116.343 213.439 110.501 215.049 103.662C215.063 103.606 215.098 103.558 215.147 103.528C215.196 103.498 215.255 103.488 215.311 103.501C215.367 103.515 215.415 103.549 215.446 103.598C215.476 103.647 215.485 103.706 215.472 103.762Z" fill="#3CA064"/>
<path d="M210.746 130.124C210.746 130.124 209.08 133.813 214.656 133.809C220.231 133.804 217.297 126.616 222.35 126.151C227.403 125.687 237.964 121.983 243.173 115.189C248.382 108.396 241.602 113.814 233.58 113.134C225.559 112.455 216.925 117.57 213.316 121.805C209.707 126.04 205.769 126.292 206.019 127.961C206.269 129.629 209.312 130.842 210.746 130.124Z" fill="#0D562A"/>
<path d="M207.384 126.328C207.536 126.239 207.687 126.145 207.865 126.049C207.651 127.104 207.916 128.556 208.622 130.177C208.438 130.126 208.257 130.065 208.08 129.994C207.511 128.595 207.274 127.35 207.384 126.328Z" fill="#3CA064"/>
<path d="M209.301 125.206C209.354 127.097 210.23 128.928 210.589 129.602C210.849 129.257 211.174 128.849 211.555 128.38C211.298 127.941 210.449 126.344 210.442 124.443C210.593 124.338 210.734 124.226 210.884 124.112C210.792 125.866 211.536 127.439 211.852 128.022C213.481 126.09 215.974 123.499 218.872 121.755C221.054 120.441 223.218 119.923 225.228 119.605C225.633 117.382 226.753 114.882 227.35 113.653C227.53 113.611 227.712 113.572 227.892 113.534C227.383 114.562 226.139 117.219 225.686 119.537C226.121 119.474 226.55 119.415 226.968 119.36L227.525 119.286C228.028 118.285 230.404 114.716 231.506 113.088C231.683 113.088 231.86 113.077 232.036 113.076C230.85 114.834 228.735 118.013 228.054 119.212C229.721 118.971 231.3 118.651 232.666 117.823C232.762 117.774 232.938 117.71 233.03 117.858C233.141 118.036 232.936 118.167 232.936 118.167L232.859 118.211C231.129 119.246 229.136 119.51 227.025 119.788C224.563 120.112 222.025 120.45 219.368 121.971C222.362 124.427 224.397 125.357 225.204 125.664C224.95 125.723 224.701 125.778 224.459 125.826C223.398 125.345 221.522 124.318 218.971 122.207C218.347 122.594 217.744 123.011 217.163 123.459C218.581 124.538 220.789 125.885 221.5 126.311C221.326 126.364 221.158 126.431 220.997 126.512C220.068 125.948 218.089 124.719 216.81 123.733C216.356 124.092 215.927 124.464 215.51 124.84C216.595 125.873 219.228 127.198 219.834 127.496C219.749 127.614 219.67 127.736 219.596 127.861C218.918 127.526 216.542 126.325 215.354 125.283C215.296 125.232 215.246 125.182 215.193 125.132C213.564 126.662 212.073 128.333 210.739 130.124C210.528 130.225 210.3 130.289 210.068 130.312C210.133 130.221 210.211 130.113 210.302 129.988C210.033 129.512 209.007 127.576 208.878 125.465C209.016 125.381 209.157 125.3 209.301 125.206Z" fill="#3CA064"/>
<path d="M197.849 93.5066C197.849 93.5066 195.879 89.8974 195.476 85.4061C195.073 80.9149 197.028 77.4172 198.67 76.1116C200.313 74.806 200.549 85.2976 203.545 93.7011C203.545 93.7011 206.023 94.3268 206.769 94.77C208.039 95.5238 206.386 87.054 214.593 80.2757C222.801 73.4974 218.451 81.0114 218.286 84.8498C218.109 89.0139 216.563 96.6908 211.639 99.4738C211.639 99.4738 214.018 106.905 209.34 112.213C209.34 112.213 217.537 117.158 216.471 125.569C216.471 125.569 219.096 127.775 217.531 131.205C215.966 134.635 207.775 137.285 205.887 137.612C205.887 137.612 205.476 139.409 201.537 139.082C197.598 138.755 198.172 138.027 197.679 137.367L196.366 137.448C196.366 137.448 196.694 139.245 192.508 138.837C188.322 138.428 189.394 135.646 189.394 135.646C189.394 135.646 187.031 132.028 186.603 128.622C186.17 125.165 184.634 117.767 188.081 111.717C188.081 111.717 185.619 107.797 186.767 105.02C187.916 102.243 187.837 94.7308 197.849 93.5066Z" fill="#F0FCFF"/>
<path d="M209.945 96.5128C209.945 96.5128 210.933 97.1159 211.39 97.9511C211.39 97.9511 214.66 95.6052 215.801 92.0487C216.942 88.4922 216.862 84.3297 217.703 82.513C218.543 80.6963 218.612 78.8057 216.49 81.0762C214.369 83.3467 212.378 94.9238 209.945 96.5128Z" fill="#C5D7D8"/>
<path d="M197.166 109.124H197.111C196.08 108.955 195.143 108.426 194.467 107.632C193.946 108.215 192.904 108.426 192.761 108.453C192.722 108.462 192.681 108.462 192.641 108.454C192.602 108.447 192.564 108.431 192.531 108.409C192.497 108.387 192.468 108.358 192.446 108.325C192.424 108.291 192.408 108.253 192.401 108.214C192.394 108.175 192.394 108.134 192.403 108.095C192.411 108.056 192.427 108.018 192.45 107.985C192.474 107.953 192.503 107.925 192.537 107.903C192.571 107.882 192.609 107.867 192.649 107.861C192.999 107.794 194.023 107.496 194.143 107.001C194.157 106.942 194.189 106.889 194.235 106.848C194.28 106.807 194.337 106.781 194.398 106.773C194.459 106.765 194.52 106.776 194.575 106.803C194.63 106.831 194.674 106.874 194.704 106.928C194.733 106.979 195.439 108.212 197.219 108.532C197.299 108.539 197.374 108.577 197.425 108.639C197.477 108.7 197.502 108.78 197.495 108.86C197.488 108.94 197.45 109.013 197.388 109.065C197.326 109.117 197.246 109.142 197.166 109.135V109.124Z" fill="#8A9899"/>
<path d="M201.792 105.777C202.581 105.777 203.221 105.141 203.221 104.356C203.221 103.57 202.581 102.934 201.792 102.934C201.003 102.934 200.363 103.57 200.363 104.356C200.363 105.141 201.003 105.777 201.792 105.777Z" fill="#414B4C"/>
<path d="M191.474 103.004C191.561 102.226 191.171 101.545 190.603 101.482C190.036 101.42 189.506 101.999 189.419 102.776C189.332 103.554 189.722 104.235 190.289 104.297C190.857 104.36 191.387 103.781 191.474 103.004Z" fill="#414B4C"/>
<path d="M194.223 136.117C194.223 135.527 193.988 134.961 193.569 134.544C193.15 134.127 192.581 133.893 191.988 133.893C191.952 133.893 191.917 133.902 191.879 133.904C191.754 133.379 191.441 132.917 190.998 132.606C190.555 132.294 190.014 132.154 189.475 132.212C188.936 132.269 188.436 132.52 188.07 132.918C187.704 133.316 187.496 133.833 187.485 134.372C186.976 134.531 186.541 134.865 186.259 135.316C185.977 135.766 185.866 136.302 185.947 136.826C186.028 137.351 186.296 137.829 186.701 138.174C187.106 138.519 187.622 138.708 188.155 138.707C188.181 138.707 188.203 138.699 188.228 138.699C188.392 139.169 188.711 139.569 189.133 139.836C189.554 140.103 190.054 140.221 190.551 140.171C191.048 140.121 191.513 139.905 191.872 139.56C192.231 139.214 192.463 138.758 192.529 138.265C193.012 138.146 193.441 137.87 193.748 137.481C194.055 137.092 194.222 136.612 194.223 136.117Z" fill="#FC9381"/>
<path d="M189.514 136.257C189.796 136.257 190.025 136.03 190.025 135.749C190.025 135.468 189.796 135.241 189.514 135.241C189.232 135.241 189.003 135.468 189.003 135.749C189.003 136.03 189.232 136.257 189.514 136.257Z" fill="#FFAAA1"/>
<path d="M190.751 136.724C191.033 136.724 191.261 136.497 191.261 136.216C191.261 135.936 191.033 135.708 190.751 135.708C190.469 135.708 190.24 135.936 190.24 136.216C190.24 136.497 190.469 136.724 190.751 136.724Z" fill="#FFAAA1"/>
<path d="M189.728 137.487C190.01 137.487 190.238 137.26 190.238 136.979C190.238 136.699 190.01 136.471 189.728 136.471C189.446 136.471 189.217 136.699 189.217 136.979C189.217 137.26 189.446 137.487 189.728 137.487Z" fill="#FFAAA1"/>
<path d="M221.971 125.842C222.056 125.685 222.109 125.511 222.127 125.333C222.145 125.155 222.127 124.975 222.075 124.803C222.022 124.632 221.936 124.472 221.821 124.334C221.706 124.196 221.565 124.082 221.406 123.998C221.386 123.988 221.365 123.983 221.345 123.973C221.432 123.652 221.397 123.312 221.249 123.015C221.1 122.718 220.847 122.485 220.537 122.361C220.228 122.238 219.884 122.231 219.57 122.343C219.256 122.454 218.993 122.676 218.833 122.967C218.511 122.904 218.176 122.958 217.891 123.12C217.606 123.282 217.389 123.541 217.281 123.85C217.172 124.158 217.179 124.495 217.3 124.799C217.421 125.103 217.649 125.353 217.941 125.503C217.954 125.503 217.968 125.514 217.981 125.52C217.937 125.82 217.994 126.126 218.145 126.39C218.296 126.653 218.531 126.859 218.813 126.974C219.095 127.089 219.408 127.107 219.701 127.025C219.995 126.942 220.252 126.764 220.431 126.519C220.727 126.594 221.04 126.568 221.319 126.445C221.598 126.323 221.827 126.11 221.971 125.842Z" fill="#FC9381"/>
<path d="M219.529 124.605C219.702 124.605 219.842 124.465 219.842 124.292C219.842 124.12 219.702 123.98 219.529 123.98C219.355 123.98 219.215 124.12 219.215 124.292C219.215 124.465 219.355 124.605 219.529 124.605Z" fill="#FFAAA1"/>
<path d="M220.062 125.211C220.235 125.211 220.376 125.071 220.376 124.899C220.376 124.726 220.235 124.586 220.062 124.586C219.889 124.586 219.748 124.726 219.748 124.899C219.748 125.071 219.889 125.211 220.062 125.211Z" fill="#FFAAA1"/>
<path d="M219.288 125.331C219.461 125.331 219.601 125.191 219.601 125.019C219.601 124.847 219.461 124.707 219.288 124.707C219.114 124.707 218.974 124.847 218.974 125.019C218.974 125.191 219.114 125.331 219.288 125.331Z" fill="#FFAAA1"/>
<path d="M221.721 133.893C221.917 133.755 222.084 133.58 222.212 133.378C222.34 133.176 222.427 132.95 222.468 132.714C222.508 132.479 222.502 132.237 222.448 132.004C222.395 131.771 222.296 131.551 222.157 131.356C222.14 131.33 222.118 131.312 222.099 131.288C222.405 130.959 222.577 130.529 222.582 130.081C222.587 129.633 222.425 129.199 222.127 128.863C221.829 128.527 221.417 128.313 220.969 128.263C220.522 128.212 220.072 128.328 219.705 128.589C219.36 128.313 218.926 128.172 218.483 128.192C218.041 128.212 217.621 128.392 217.303 128.699C216.984 129.005 216.789 129.416 216.754 129.856C216.719 130.295 216.846 130.732 217.112 131.084C217.124 131.101 217.139 131.115 217.151 131.13C216.912 131.461 216.793 131.862 216.813 132.269C216.832 132.676 216.989 133.064 217.258 133.372C217.527 133.679 217.892 133.887 218.294 133.962C218.697 134.036 219.113 133.974 219.475 133.785C219.783 134.05 220.172 134.206 220.579 134.225C220.986 134.245 221.388 134.128 221.721 133.893Z" fill="#FC7459"/>
<path d="M219.74 131C219.971 131 220.159 130.814 220.159 130.584C220.159 130.354 219.971 130.168 219.74 130.168C219.51 130.168 219.322 130.354 219.322 130.584C219.322 130.814 219.51 131 219.74 131Z" fill="#FFAAA1"/>
<path d="M220.012 132.042C220.243 132.042 220.43 131.855 220.43 131.626C220.43 131.396 220.243 131.21 220.012 131.21C219.781 131.21 219.594 131.396 219.594 131.626C219.594 131.855 219.781 132.042 220.012 132.042Z" fill="#FFAAA1"/>
<path d="M219.015 131.722C219.246 131.722 219.433 131.536 219.433 131.306C219.433 131.076 219.246 130.89 219.015 130.89C218.784 130.89 218.596 131.076 218.596 131.306C218.596 131.536 218.784 131.722 219.015 131.722Z" fill="#FFAAA1"/>
<path d="M216.896 132.274C216.817 131.983 216.679 131.712 216.492 131.476C216.304 131.241 216.069 131.045 215.803 130.903C215.537 130.76 215.244 130.673 214.943 130.646C214.642 130.62 214.338 130.654 214.051 130.748C213.764 130.842 213.499 130.994 213.272 131.193C213.045 131.392 212.862 131.635 212.733 131.907C212.604 132.179 212.531 132.475 212.521 132.775C212.51 133.076 212.561 133.376 212.671 133.656C212.431 133.864 212.24 134.121 212.108 134.408C211.977 134.696 211.908 135.008 211.908 135.324C211.907 135.64 211.975 135.953 212.105 136.241C212.236 136.529 212.427 136.786 212.666 136.994C212.904 137.203 213.185 137.358 213.488 137.45C213.792 137.542 214.112 137.569 214.427 137.528C214.742 137.487 215.045 137.38 215.314 137.213C215.584 137.046 215.815 136.824 215.992 136.562C216.239 136.658 216.501 136.709 216.766 136.712C217.344 136.709 217.899 136.483 218.312 136.081C218.726 135.679 218.967 135.133 218.984 134.558C219.001 133.983 218.793 133.424 218.403 132.998C218.014 132.573 217.473 132.315 216.896 132.278V132.274Z" fill="#FC9381"/>
<path d="M215.346 133.83C215.628 133.83 215.857 133.602 215.857 133.322C215.857 133.041 215.628 132.814 215.346 132.814C215.064 132.814 214.836 133.041 214.836 133.322C214.836 133.602 215.064 133.83 215.346 133.83Z" fill="#FFAAA1"/>
<path d="M215.889 135.028C216.171 135.028 216.4 134.801 216.4 134.52C216.4 134.24 216.171 134.012 215.889 134.012C215.607 134.012 215.378 134.24 215.378 134.52C215.378 134.801 215.607 135.028 215.889 135.028Z" fill="#FFAAA1"/>
<path d="M214.624 134.849C214.906 134.849 215.134 134.621 215.134 134.341C215.134 134.06 214.906 133.833 214.624 133.833C214.342 133.833 214.113 134.06 214.113 134.341C214.113 134.621 214.342 134.849 214.624 134.849Z" fill="#FFAAA1"/>
<path d="M185.273 125.575C185.326 125.403 185.342 125.222 185.322 125.043C185.302 124.864 185.245 124.692 185.155 124.535C185.066 124.379 184.946 124.242 184.801 124.133C184.657 124.025 184.492 123.946 184.317 123.903C184.141 123.86 183.959 123.852 183.78 123.881C183.602 123.91 183.431 123.975 183.279 124.072C183.126 124.168 182.995 124.295 182.893 124.443C182.791 124.592 182.72 124.76 182.685 124.936C182.498 124.967 182.32 125.037 182.162 125.142C182.004 125.246 181.87 125.383 181.77 125.543C181.669 125.703 181.604 125.883 181.579 126.07C181.553 126.257 181.568 126.447 181.622 126.628C181.676 126.809 181.769 126.976 181.893 127.119C182.017 127.262 182.171 127.376 182.343 127.456C182.515 127.535 182.702 127.576 182.892 127.578C183.082 127.58 183.269 127.541 183.443 127.465C183.538 127.591 183.656 127.7 183.79 127.784C184.084 127.967 184.439 128.029 184.778 127.957C185.118 127.884 185.415 127.683 185.608 127.396C185.802 127.109 185.875 126.759 185.813 126.419C185.751 126.079 185.559 125.777 185.276 125.575H185.273Z" fill="#FC9381"/>
<path d="M184.151 125.919C184.32 125.919 184.457 125.783 184.457 125.615C184.457 125.446 184.32 125.31 184.151 125.31C183.981 125.31 183.844 125.446 183.844 125.615C183.844 125.783 183.981 125.919 184.151 125.919Z" fill="#FFAAA1"/>
<path d="M184.041 126.7C184.21 126.7 184.347 126.564 184.347 126.396C184.347 126.227 184.21 126.091 184.041 126.091C183.872 126.091 183.735 126.227 183.735 126.396C183.735 126.564 183.872 126.7 184.041 126.7Z" fill="#FFAAA1"/>
<path d="M183.458 126.207C183.627 126.207 183.764 126.071 183.764 125.903C183.764 125.734 183.627 125.598 183.458 125.598C183.289 125.598 183.152 125.734 183.152 125.903C183.152 126.071 183.289 126.207 183.458 126.207Z" fill="#FFAAA1"/>
<path d="M187.576 134.309C187.926 134.003 188.152 133.581 188.212 133.122C188.271 132.662 188.161 132.197 187.901 131.813C187.641 131.428 187.25 131.151 186.8 131.033C186.35 130.915 185.872 130.963 185.455 131.17C185.242 131.277 185.051 131.421 184.891 131.597C184.639 131.493 184.367 131.443 184.094 131.452C183.821 131.461 183.553 131.528 183.308 131.648C183.063 131.768 182.847 131.939 182.674 132.149C182.501 132.36 182.375 132.604 182.304 132.867C182.234 133.13 182.221 133.404 182.266 133.672C182.311 133.94 182.413 134.196 182.565 134.421C182.717 134.647 182.916 134.838 183.149 134.981C183.381 135.124 183.642 135.215 183.913 135.25C183.939 135.524 184.025 135.789 184.165 136.027C184.304 136.265 184.494 136.47 184.72 136.628C184.947 136.785 185.205 136.893 185.477 136.942C185.75 136.991 186.029 136.981 186.297 136.912C186.565 136.843 186.815 136.717 187.029 136.543C187.244 136.369 187.418 136.151 187.539 135.904C187.661 135.656 187.727 135.386 187.734 135.11C187.74 134.835 187.686 134.562 187.576 134.309Z" fill="#FC7459"/>
<path d="M186.176 133.958C186.419 133.958 186.616 133.762 186.616 133.521C186.616 133.279 186.419 133.083 186.176 133.083C185.933 133.083 185.737 133.279 185.737 133.521C185.737 133.762 185.933 133.958 186.176 133.958Z" fill="#FFAAA1"/>
<path d="M185.453 134.831C185.696 134.831 185.893 134.635 185.893 134.394C185.893 134.152 185.696 133.956 185.453 133.956C185.211 133.956 185.014 134.152 185.014 134.394C185.014 134.635 185.211 134.831 185.453 134.831Z" fill="#FFAAA1"/>
<path d="M185.111 133.792C185.354 133.792 185.551 133.596 185.551 133.355C185.551 133.113 185.354 132.918 185.111 132.918C184.868 132.918 184.672 133.113 184.672 133.355C184.672 133.596 184.868 133.792 185.111 133.792Z" fill="#FFAAA1"/>
<path d="M185.355 130.409C185.712 130.409 186.002 130.121 186.002 129.765C186.002 129.41 185.712 129.121 185.355 129.121C184.998 129.121 184.708 129.41 184.708 129.765C184.708 130.121 184.998 130.409 185.355 130.409Z" fill="#FC9381"/>
<path d="M180.211 125.649C180.568 125.649 180.858 125.361 180.858 125.006C180.858 124.65 180.568 124.362 180.211 124.362C179.854 124.362 179.564 124.65 179.564 125.006C179.564 125.361 179.854 125.649 180.211 125.649Z" fill="#FC7459"/>
<path d="M223.646 128.021C224.004 128.021 224.293 127.733 224.293 127.377C224.293 127.022 224.004 126.733 223.646 126.733C223.289 126.733 222.999 127.022 222.999 127.377C222.999 127.733 223.289 128.021 223.646 128.021Z" fill="#FC7459"/>
<path d="M217.433 121.053C217.79 121.053 218.08 120.764 218.08 120.409C218.08 120.053 217.79 119.765 217.433 119.765C217.076 119.765 216.786 120.053 216.786 120.409C216.786 120.764 217.076 121.053 217.433 121.053Z" fill="#FC7459"/>
<path d="M218.301 118.722C218.658 118.722 218.948 118.434 218.948 118.078C218.948 117.722 218.658 117.434 218.301 117.434C217.944 117.434 217.654 117.722 217.654 118.078C217.654 118.434 217.944 118.722 218.301 118.722Z" fill="#FC9381"/>
<path d="M193.229 105.851L194.066 106.873C194.144 106.968 194.25 107.036 194.369 107.067C194.489 107.098 194.615 107.09 194.729 107.045L196.295 106.432C196.427 106.378 196.535 106.278 196.598 106.151C196.663 106.021 196.676 105.87 196.634 105.73C196.593 105.591 196.5 105.472 196.373 105.397L194.879 104.52C194.798 104.472 194.707 104.445 194.613 104.44C194.519 104.436 194.425 104.454 194.34 104.493L193.438 104.907C193.346 104.95 193.265 105.016 193.206 105.099C193.147 105.182 193.111 105.279 193.102 105.381V105.437C193.088 105.586 193.134 105.735 193.229 105.851Z" fill="#8A9899"/>
</g>
<path d="M340.434 124.471C340.434 124.471 332.58 125.976 327.487 124.256C322.394 122.535 314.331 116.53 317.726 106.202C321.12 95.8732 325.71 100.579 322.182 84.4949C319.637 72.8889 329.823 70.3116 331.943 63.4334C334.063 56.5552 331.097 43.6589 339.16 40.6641C347.222 37.6693 347.65 48.8294 348.072 53.9873C348.493 59.1452 352.756 62.5858 357.412 65.5933C362.068 68.6007 364.204 81.07 362.505 87.0975C360.806 93.1251 359.107 99.5605 366.324 103.858C373.54 108.156 372.691 117.162 367.173 123.171C361.655 129.18 355.713 123.171 351.045 123.171C346.376 123.171 342.342 124.256 340.434 124.471Z" fill="#007F36"/>
<path d="M353.746 104.513C351.541 106.356 348.437 109.092 345.558 111.957C345.065 104.684 344.602 96.9136 344.284 89.542C346.005 84.7984 347.241 83.9477 347.984 83.0022C348.827 81.927 355.167 75.4789 352.209 77.6261C349.82 79.3591 345.652 83.8118 344.118 85.4594C343.947 80.7411 343.844 76.2631 343.844 72.2754C343.844 70.2577 343.01 85.0356 342.011 101.717C340.037 99.5478 333.832 92.9258 330.357 90.3895C326.157 87.3378 335.156 96.493 336.359 98.0172C337.423 99.3707 339.197 100.576 341.667 107.485C340.677 123.772 339.606 144.258 339.05 147.616L348.053 148.018C348.053 148.018 346.891 130.973 345.792 115.284C346.617 113.703 348.347 111.154 351.953 107.552C360.335 99.162 354.523 103.852 353.746 104.513Z" fill="#F4F4F4"/>
<path d="M338.164 62.8261C337.811 61.4031 337.726 58.5379 341.233 55.5526C341.355 55.4472 341.503 55.3773 341.66 55.3503C341.818 55.3233 341.981 55.3403 342.13 55.3994C342.279 55.4585 342.409 55.5575 342.507 55.6859C342.605 55.8142 342.667 55.9671 342.685 56.1282C342.941 58.1743 342.844 61.8205 339.375 63.4017C339.259 63.4559 339.133 63.4837 339.006 63.4834C338.878 63.483 338.753 63.4544 338.637 63.3996C338.522 63.3447 338.419 63.265 338.338 63.1659C338.256 63.0669 338.196 62.9509 338.164 62.8261Z" fill="#3CA064"/>
<path d="M336.071 77.3827C334.716 76.8672 332.324 75.3145 331.909 70.7005C331.894 70.5404 331.922 70.3791 331.989 70.2337C332.057 70.0883 332.163 69.964 332.294 69.874C332.426 69.7841 332.579 69.7317 332.738 69.7224C332.896 69.7132 333.054 69.7474 333.195 69.8214C335.003 70.7701 337.907 72.9142 337.255 76.7123C337.232 76.8415 337.181 76.964 337.106 77.071C337.03 77.1779 336.933 77.2666 336.82 77.3307C336.706 77.3948 336.581 77.4328 336.451 77.4417C336.322 77.4507 336.192 77.4306 336.071 77.3827Z" fill="#3CA064"/>
<path d="M351.925 72.8667C350.573 72.3512 348.194 70.7985 347.763 66.1814C347.747 66.021 347.774 65.8593 347.842 65.7134C347.91 65.5675 348.015 65.4428 348.147 65.3524C348.278 65.262 348.432 65.2094 348.591 65.2C348.75 65.1906 348.908 65.2249 349.049 65.2991C350.86 66.2478 353.761 68.3888 353.093 72.19C353.07 72.3176 353.02 72.4385 352.946 72.5444C352.871 72.6503 352.776 72.7385 352.664 72.803C352.553 72.8674 352.429 72.9065 352.302 72.9175C352.174 72.9285 352.046 72.9112 351.925 72.8667Z" fill="#3CA064"/>
<path d="M352.809 99.7091C351.454 99.1968 349.062 97.6441 348.646 93.027C348.632 92.8671 348.66 92.7062 348.728 92.5613C348.797 92.4163 348.902 92.2925 349.033 92.2029C349.165 92.1134 349.318 92.0613 349.476 92.0521C349.634 92.043 349.792 92.0771 349.933 92.151C351.741 93.0997 354.645 95.2406 353.977 99.0387C353.953 99.166 353.903 99.2866 353.829 99.392C353.754 99.4975 353.658 99.5852 353.547 99.649C353.436 99.7129 353.312 99.7514 353.184 99.7617C353.057 99.7721 352.929 99.7541 352.809 99.7091Z" fill="#3CA064"/>
<path d="M337.745 86.212C336.496 86.9299 333.779 87.7742 330.016 85.1336C329.886 85.042 329.782 84.9165 329.716 84.7703C329.65 84.6241 329.625 84.4626 329.641 84.3028C329.658 84.143 329.718 83.9907 329.813 83.862C329.908 83.7333 330.035 83.6329 330.182 83.5714C332.056 82.7808 335.55 81.9112 337.989 84.8743C338.07 84.9746 338.128 85.0914 338.16 85.2168C338.191 85.3421 338.196 85.473 338.173 85.6003C338.15 85.7276 338.099 85.8482 338.025 85.9539C337.952 86.0595 337.856 86.1476 337.745 86.212Z" fill="#3CA064"/>
<path d="M361.79 114.866C361.634 113.412 361.937 110.562 365.815 108.099C365.949 108.014 366.104 107.967 366.262 107.963C366.421 107.959 366.578 107.999 366.716 108.077C366.854 108.156 366.969 108.271 367.048 108.41C367.128 108.549 367.169 108.707 367.167 108.867C367.145 110.929 366.558 114.522 362.908 115.622C362.785 115.659 362.655 115.667 362.529 115.648C362.402 115.628 362.281 115.58 362.175 115.508C362.068 115.436 361.979 115.341 361.912 115.231C361.845 115.12 361.804 114.995 361.79 114.866Z" fill="#3CA064"/>
<path d="M331.506 106.075C330.151 105.56 327.759 104.007 327.34 99.3897C327.325 99.229 327.352 99.0669 327.42 98.9207C327.488 98.7745 327.593 98.6494 327.725 98.5588C327.857 98.4682 328.011 98.4153 328.17 98.4057C328.33 98.3961 328.488 98.4301 328.63 98.5043C330.438 99.453 333.342 101.594 332.69 105.395C332.667 105.525 332.617 105.648 332.542 105.756C332.467 105.864 332.37 105.953 332.256 106.018C332.143 106.083 332.017 106.122 331.887 106.132C331.758 106.142 331.627 106.122 331.506 106.075Z" fill="#3CA064"/>
<path d="M352.25 85.8737C352.562 84.4443 353.749 81.8416 358.202 80.7633C358.356 80.7272 358.517 80.7338 358.668 80.7822C358.82 80.8306 358.955 80.9192 359.061 81.0387C359.167 81.1581 359.239 81.3041 359.27 81.4614C359.301 81.6188 359.291 81.7817 359.238 81.9333C358.567 83.8782 356.875 87.0912 353.068 86.9521C352.94 86.9463 352.815 86.9123 352.702 86.8525C352.588 86.7927 352.489 86.7084 352.411 86.6057C352.333 86.503 352.278 86.3842 352.251 86.2578C352.223 86.1313 352.222 86.0002 352.25 85.8737Z" fill="#3CA064"/>
<path d="M355.56 120.79C354.205 120.274 351.813 118.721 351.394 114.104C351.381 113.944 351.41 113.784 351.478 113.639C351.547 113.494 351.652 113.37 351.784 113.281C351.916 113.191 352.069 113.139 352.227 113.13C352.385 113.121 352.543 113.155 352.684 113.228C354.492 114.177 357.396 116.318 356.728 120.119C356.704 120.247 356.654 120.367 356.58 120.473C356.505 120.578 356.409 120.666 356.298 120.73C356.187 120.794 356.063 120.832 355.936 120.842C355.808 120.853 355.68 120.835 355.56 120.79Z" fill="#3CA064"/>
<path d="M333.48 116.131C332.343 117.036 329.795 118.285 325.673 116.258C325.528 116.188 325.405 116.079 325.316 115.944C325.228 115.809 325.177 115.651 325.17 115.489C325.162 115.327 325.199 115.166 325.275 115.023C325.35 114.88 325.463 114.76 325.601 114.677C327.34 113.605 330.66 112.21 333.517 114.762C333.614 114.848 333.692 114.955 333.743 115.075C333.795 115.195 333.82 115.325 333.817 115.456C333.813 115.587 333.781 115.715 333.723 115.832C333.664 115.949 333.581 116.051 333.48 116.131Z" fill="#3CA064"/>
<path d="M342.264 122.418C342.232 122.418 342.201 122.407 342.177 122.385C342.154 122.363 342.139 122.333 342.136 122.301C342.026 121.087 342.026 119.528 342.026 119.512C342.031 119.482 342.046 119.454 342.07 119.434C342.093 119.414 342.122 119.403 342.153 119.403C342.183 119.403 342.213 119.414 342.236 119.434C342.259 119.454 342.274 119.482 342.279 119.512C342.279 119.512 342.279 121.077 342.389 122.279C342.391 122.313 342.38 122.347 342.359 122.373C342.337 122.399 342.306 122.415 342.273 122.418H342.264Z" fill="#F9C5CE"/>
<path d="M344.762 133.809C344.731 133.81 344.7 133.799 344.677 133.778C344.654 133.756 344.639 133.727 344.637 133.695C344.528 132.481 344.528 130.922 344.528 130.906C344.528 130.873 344.541 130.84 344.564 130.817C344.588 130.793 344.619 130.78 344.652 130.78C344.686 130.78 344.717 130.793 344.741 130.817C344.764 130.84 344.777 130.873 344.777 130.906C344.777 130.922 344.777 132.468 344.887 133.67C344.888 133.687 344.887 133.704 344.882 133.72C344.877 133.736 344.87 133.75 344.859 133.763C344.849 133.776 344.836 133.787 344.821 133.795C344.807 133.803 344.791 133.808 344.774 133.809H344.762Z" fill="#F9C5CE"/>
<path d="M344.331 125.385C344.314 125.383 344.298 125.379 344.283 125.371C344.268 125.363 344.255 125.353 344.244 125.34C344.233 125.327 344.225 125.312 344.22 125.296C344.215 125.279 344.214 125.262 344.215 125.245C344.325 124.044 344.325 122.494 344.325 122.478C344.329 122.448 344.345 122.42 344.368 122.4C344.391 122.38 344.421 122.369 344.451 122.369C344.482 122.369 344.511 122.38 344.534 122.4C344.557 122.42 344.573 122.448 344.578 122.478C344.578 122.494 344.578 124.06 344.468 125.268C344.465 125.301 344.449 125.333 344.423 125.355C344.398 125.376 344.364 125.387 344.331 125.385Z" fill="#F9C5CE"/>
<path d="M342.145 137.357C342.129 137.356 342.113 137.351 342.098 137.343C342.083 137.335 342.071 137.325 342.06 137.312C342.05 137.299 342.042 137.284 342.037 137.268C342.032 137.252 342.031 137.235 342.033 137.218C342.139 136.017 342.142 134.467 342.142 134.451C342.142 134.418 342.155 134.385 342.178 134.362C342.202 134.338 342.234 134.325 342.267 134.325C342.3 134.325 342.332 134.338 342.356 134.362C342.38 134.385 342.394 134.417 342.395 134.451C342.395 134.467 342.395 136.032 342.282 137.24C342.281 137.257 342.277 137.274 342.269 137.289C342.262 137.304 342.251 137.317 342.238 137.328C342.225 137.339 342.211 137.348 342.194 137.352C342.178 137.357 342.162 137.359 342.145 137.357Z" fill="#F9C5CE"/>
<path d="M343.613 140.88C343.596 140.879 343.58 140.874 343.566 140.866C343.551 140.858 343.538 140.847 343.528 140.835C343.517 140.822 343.509 140.807 343.505 140.791C343.5 140.775 343.498 140.758 343.5 140.741C343.606 139.539 343.609 137.993 343.609 137.977C343.609 137.96 343.612 137.944 343.618 137.928C343.624 137.912 343.633 137.898 343.645 137.886C343.657 137.874 343.671 137.864 343.686 137.858C343.701 137.851 343.718 137.848 343.734 137.848C343.751 137.848 343.768 137.851 343.783 137.857C343.799 137.864 343.813 137.874 343.825 137.886C343.837 137.898 343.846 137.912 343.853 137.928C343.859 137.943 343.862 137.96 343.862 137.977C343.862 137.993 343.862 139.558 343.75 140.766C343.749 140.783 343.744 140.8 343.737 140.815C343.729 140.83 343.719 140.843 343.706 140.854C343.693 140.864 343.678 140.872 343.662 140.877C343.646 140.881 343.629 140.883 343.613 140.88Z" fill="#F9C5CE"/>
<path d="M342.57 130.89C342.537 130.886 342.507 130.87 342.486 130.844C342.465 130.818 342.455 130.785 342.457 130.751C342.563 129.546 342.567 128 342.567 127.984C342.567 127.951 342.58 127.918 342.603 127.895C342.627 127.871 342.658 127.858 342.691 127.858C342.725 127.858 342.756 127.871 342.78 127.895C342.803 127.918 342.816 127.951 342.816 127.984C342.816 127.984 342.816 129.565 342.707 130.773C342.706 130.79 342.701 130.807 342.694 130.822C342.686 130.837 342.676 130.85 342.663 130.861C342.65 130.872 342.635 130.88 342.619 130.885C342.603 130.89 342.586 130.892 342.57 130.89Z" fill="#F9C5CE"/>
<path d="M344.015 102.138C343.984 102.138 343.953 102.126 343.929 102.104C343.905 102.083 343.891 102.053 343.887 102.021C343.781 100.81 343.778 99.2506 343.778 99.2348C343.775 99.2163 343.776 99.1974 343.781 99.1793C343.786 99.1613 343.795 99.1446 343.807 99.1303C343.819 99.1161 343.834 99.1047 343.851 99.0968C343.868 99.089 343.886 99.0849 343.905 99.0849C343.923 99.0849 343.941 99.089 343.958 99.0968C343.975 99.1047 343.99 99.1161 344.002 99.1303C344.014 99.1446 344.023 99.1613 344.028 99.1793C344.033 99.1974 344.034 99.2163 344.031 99.2348C344.031 99.2506 344.031 100.797 344.14 101.999C344.142 102.016 344.14 102.033 344.135 102.049C344.131 102.065 344.122 102.08 344.112 102.093C344.101 102.106 344.088 102.117 344.073 102.124C344.058 102.132 344.042 102.137 344.025 102.138H344.015Z" fill="#F9C5CE"/>
<path d="M341.52 104.257C341.497 104.257 341.474 104.25 341.454 104.238C341.435 104.226 341.418 104.208 341.408 104.187C340.855 103.106 340.271 101.657 340.265 101.657C340.253 101.626 340.254 101.591 340.267 101.56C340.28 101.528 340.303 101.503 340.334 101.49C340.365 101.477 340.4 101.477 340.431 101.49C340.461 101.503 340.486 101.528 340.499 101.559C340.499 101.575 341.083 103.007 341.633 104.089C341.64 104.104 341.645 104.12 341.646 104.137C341.647 104.154 341.645 104.17 341.64 104.186C341.635 104.202 341.626 104.217 341.616 104.229C341.605 104.242 341.591 104.252 341.577 104.26C341.558 104.263 341.539 104.262 341.52 104.257Z" fill="#F9C5CE"/>
<path d="M343.566 95.9743C343.534 95.9737 343.504 95.9614 343.481 95.9399C343.458 95.9183 343.444 95.8889 343.441 95.8573C343.332 94.643 343.332 93.0839 343.332 93.0681C343.332 93.0342 343.345 93.0017 343.368 92.9775C343.391 92.9533 343.423 92.9392 343.457 92.9384C343.49 92.9392 343.522 92.9531 343.546 92.9773C343.57 93.0014 343.584 93.0339 343.585 93.0681C343.585 93.0839 343.585 94.6303 343.694 95.8352C343.695 95.8518 343.693 95.8685 343.688 95.8844C343.683 95.9002 343.675 95.9149 343.664 95.9275C343.653 95.9401 343.64 95.9505 343.625 95.958C343.611 95.9655 343.595 95.97 343.578 95.9712L343.566 95.9743Z" fill="#F9C5CE"/>
<path d="M343.581 88.8368H343.544C343.512 88.8266 343.485 88.8039 343.469 88.7737C343.453 88.7435 343.45 88.7082 343.46 88.6755C343.828 87.5149 344.425 86.0761 344.431 86.0634C344.444 86.0322 344.469 86.0074 344.5 85.9944C344.531 85.9814 344.565 85.9812 344.596 85.9938C344.612 86.0004 344.625 86.0099 344.637 86.0219C344.649 86.0339 344.658 86.0481 344.664 86.0637C344.67 86.0793 344.673 86.096 344.673 86.1128C344.672 86.1295 344.669 86.1461 344.662 86.1614C344.662 86.1772 344.066 87.6035 343.7 88.7546C343.691 88.779 343.675 88.8 343.654 88.8147C343.632 88.8295 343.607 88.8372 343.581 88.8368Z" fill="#F9C5CE"/>
<path d="M342.848 115.018C342.816 115.018 342.786 115.005 342.763 114.984C342.74 114.962 342.726 114.933 342.723 114.901C342.613 113.687 342.613 112.128 342.613 112.112C342.618 112.082 342.633 112.054 342.657 112.034C342.68 112.014 342.709 112.003 342.74 112.003C342.77 112.003 342.8 112.014 342.823 112.034C342.846 112.054 342.862 112.082 342.866 112.112C342.866 112.128 342.866 113.677 342.976 114.879C342.978 114.913 342.968 114.947 342.946 114.973C342.924 114.999 342.894 115.015 342.86 115.018H342.848Z" fill="#F9C5CE"/>
<path d="M345.468 114.123C345.443 114.124 345.419 114.116 345.399 114.101C345.385 114.092 345.373 114.08 345.363 114.067C345.353 114.053 345.347 114.037 345.343 114.021C345.34 114.004 345.34 113.987 345.343 113.971C345.346 113.954 345.352 113.938 345.361 113.924C346.008 112.899 346.951 111.663 346.96 111.653C346.981 111.626 347.011 111.609 347.044 111.604C347.077 111.599 347.111 111.608 347.138 111.628C347.164 111.65 347.18 111.68 347.184 111.714C347.188 111.747 347.18 111.781 347.16 111.808C347.16 111.808 346.223 113.045 345.574 114.063C345.562 114.081 345.546 114.096 345.528 114.107C345.509 114.117 345.489 114.123 345.468 114.123Z" fill="#F9C5CE"/>
<path d="M343.088 107.941C343.055 107.937 343.025 107.92 343.004 107.894C342.983 107.868 342.973 107.835 342.976 107.802C343.082 106.597 343.082 105.05 343.082 105.035C343.083 105.001 343.096 104.969 343.12 104.945C343.144 104.921 343.176 104.908 343.21 104.908C343.243 104.908 343.275 104.921 343.298 104.945C343.322 104.969 343.335 105.001 343.335 105.035C343.335 105.035 343.335 106.616 343.225 107.824C343.224 107.841 343.22 107.857 343.212 107.872C343.205 107.888 343.194 107.901 343.181 107.912C343.168 107.923 343.154 107.931 343.138 107.936C343.122 107.941 343.105 107.943 343.088 107.941Z" fill="#F9C5CE"/>
<path d="M343.947 118.465C343.93 118.464 343.914 118.459 343.9 118.451C343.885 118.443 343.872 118.432 343.862 118.419C343.851 118.407 343.844 118.392 343.839 118.376C343.834 118.36 343.833 118.343 343.834 118.326C343.94 117.124 343.944 115.578 343.944 115.562C343.944 115.529 343.957 115.496 343.98 115.473C344.004 115.449 344.035 115.436 344.068 115.436C344.102 115.436 344.133 115.449 344.157 115.473C344.18 115.496 344.193 115.529 344.193 115.562C344.193 115.578 344.193 117.143 344.084 118.348C344.083 118.365 344.078 118.382 344.071 118.397C344.063 118.412 344.053 118.425 344.04 118.436C344.027 118.447 344.012 118.455 343.996 118.46C343.98 118.465 343.963 118.467 343.947 118.465Z" fill="#F9C5CE"/>
<path d="M344.371 111.998C344.338 111.995 344.307 111.979 344.286 111.953C344.264 111.927 344.253 111.893 344.256 111.859C344.365 110.657 344.365 109.108 344.365 109.092C344.37 109.062 344.385 109.034 344.408 109.014C344.432 108.994 344.461 108.983 344.492 108.983C344.522 108.983 344.552 108.994 344.575 109.014C344.598 109.034 344.613 109.062 344.618 109.092C344.618 109.108 344.618 110.673 344.509 111.881C344.506 111.915 344.489 111.946 344.464 111.968C344.438 111.99 344.405 112.001 344.371 111.998Z" fill="#F9C5CE"/>
<g clip-path="url(#clip2)">
<path d="M300.859 147H303.793C303.793 147 303.592 140.586 311.256 132.575C318.919 124.564 320.027 114.596 318.312 112.915C316.596 111.234 313.07 111.533 310.75 113.8C310.75 113.8 316.598 106.501 314.784 97.8953C312.969 89.2894 305.206 97.5989 303.996 101.352C303.996 101.352 303.592 84.3595 292.3 88.7078C281.007 93.056 286.25 109.257 286.25 109.257C286.25 109.257 282.307 107.087 280.492 111.236C278.677 115.386 281.806 122.695 291.18 130.007C300.554 137.319 300.859 147 300.859 147Z" fill="#56C482"/>
<path d="M315.573 116.193C315.548 116.153 315.515 116.118 315.476 116.09C315.437 116.063 315.393 116.043 315.346 116.032C315.3 116.022 315.251 116.02 315.204 116.028C315.156 116.036 315.111 116.053 315.07 116.078C308.822 119.904 305.567 127.685 303.938 133.551C303.407 135.459 303.01 137.291 302.714 138.923C302.987 107.131 311.441 99.6027 311.533 99.5253C311.607 99.4637 311.653 99.3759 311.661 99.2811C311.669 99.1863 311.638 99.0924 311.575 99.0199C311.512 98.9475 311.422 98.9025 311.326 98.8948C311.229 98.8871 311.133 98.9174 311.059 98.979C310.714 99.2798 303.531 105.583 302.191 131.693C299.827 97.8776 291.979 93.9297 291.611 93.7638C291.523 93.7236 291.422 93.7193 291.331 93.7519C291.24 93.7844 291.166 93.8512 291.125 93.9374C291.084 94.0236 291.079 94.1223 291.112 94.2117C291.146 94.3011 291.214 94.3738 291.302 94.414C291.327 94.4273 293.706 95.6194 296.204 102.219C298.43 108.091 301.186 119.526 301.929 140.86C296.676 122.215 284.352 114.041 284.221 113.957C284.14 113.906 284.042 113.889 283.949 113.909C283.855 113.928 283.773 113.983 283.72 114.061C283.667 114.139 283.647 114.235 283.665 114.327C283.684 114.419 283.738 114.501 283.817 114.554C283.851 114.576 287.239 116.799 291.153 121.525C294.764 125.885 299.574 133.329 301.987 144.041C301.906 144.888 301.879 145.381 301.877 145.397C301.874 145.444 301.881 145.491 301.898 145.535C301.914 145.579 301.939 145.62 301.971 145.655C302.003 145.69 302.042 145.718 302.086 145.739C302.129 145.759 302.176 145.77 302.224 145.773H302.242C302.336 145.773 302.427 145.737 302.495 145.674C302.563 145.61 302.603 145.524 302.608 145.432C302.608 145.211 303.85 123.79 315.456 116.679C315.537 116.629 315.594 116.55 315.616 116.46C315.638 116.369 315.623 116.273 315.573 116.193Z" fill="#3CA064"/>
<path d="M284.894 121.112C285.557 121.676 287.081 122.598 289.273 121.693C289.329 121.669 289.379 121.632 289.417 121.584C289.455 121.536 289.48 121.48 289.49 121.42C289.5 121.361 289.494 121.3 289.473 121.242C289.453 121.185 289.418 121.134 289.372 121.094C288.695 120.499 287.155 119.522 284.977 120.512C284.921 120.538 284.873 120.576 284.836 120.625C284.799 120.673 284.776 120.73 284.767 120.79C284.759 120.849 284.766 120.91 284.788 120.967C284.81 121.023 284.847 121.073 284.894 121.112Z" fill="#007F36"/>
<path d="M307.976 117.841C307.411 118.504 306.497 120.008 307.454 122.14C307.48 122.195 307.52 122.243 307.569 122.28C307.619 122.316 307.677 122.339 307.738 122.348C307.8 122.357 307.862 122.35 307.92 122.329C307.978 122.307 308.03 122.272 308.071 122.226C308.664 121.563 309.637 120.03 308.59 117.911C308.563 117.857 308.522 117.811 308.472 117.776C308.422 117.741 308.363 117.719 308.302 117.712C308.241 117.705 308.179 117.713 308.122 117.736C308.065 117.758 308.015 117.794 307.976 117.841Z" fill="#007F36"/>
<path d="M312.389 126.431C311.628 126 309.953 125.374 307.976 126.663C307.925 126.697 307.884 126.743 307.856 126.797C307.827 126.851 307.814 126.911 307.815 126.971C307.817 127.032 307.834 127.091 307.865 127.143C307.895 127.196 307.939 127.24 307.992 127.271C308.764 127.731 310.475 128.408 312.42 127.035C312.47 126.999 312.51 126.953 312.536 126.898C312.563 126.844 312.575 126.784 312.572 126.724C312.569 126.664 312.55 126.606 312.518 126.555C312.486 126.504 312.442 126.461 312.389 126.431Z" fill="#007F36"/>
<path d="M288.291 112.577C287.896 113.344 287.354 115.01 288.783 116.879C288.82 116.927 288.87 116.965 288.926 116.99C288.983 117.014 289.045 117.024 289.106 117.019C289.168 117.014 289.227 116.994 289.279 116.961C289.33 116.927 289.372 116.881 289.401 116.828C289.826 116.045 290.417 114.339 288.905 112.508C288.866 112.462 288.815 112.425 288.758 112.403C288.701 112.38 288.64 112.372 288.579 112.379C288.518 112.386 288.459 112.407 288.409 112.442C288.359 112.476 288.318 112.523 288.291 112.577Z" fill="#007F36"/>
<path d="M294.446 119.718C294.049 120.486 293.509 122.151 294.936 124.02C294.973 124.068 295.023 124.107 295.079 124.131C295.136 124.156 295.198 124.166 295.259 124.161C295.321 124.156 295.38 124.136 295.432 124.102C295.484 124.069 295.526 124.023 295.554 123.969C295.979 123.186 296.572 121.481 295.06 119.65C295.021 119.603 294.971 119.567 294.914 119.544C294.857 119.522 294.795 119.514 294.734 119.52C294.673 119.527 294.615 119.549 294.564 119.583C294.514 119.618 294.473 119.664 294.446 119.718Z" fill="#007F36"/>
<path d="M316.415 119.345C315.592 119.046 313.836 118.71 312.109 120.309C312.064 120.351 312.032 120.403 312.013 120.461C311.995 120.519 311.992 120.581 312.004 120.64C312.016 120.699 312.043 120.755 312.083 120.801C312.122 120.848 312.173 120.884 312.231 120.906C313.073 121.231 314.869 121.614 316.553 119.935C316.596 119.892 316.627 119.839 316.644 119.781C316.661 119.723 316.662 119.662 316.648 119.603C316.635 119.544 316.606 119.49 316.566 119.445C316.525 119.4 316.473 119.365 316.415 119.345Z" fill="#007F36"/>
<path d="M292.401 105.212C292.956 105.875 294.302 107.039 296.615 106.51C296.676 106.496 296.731 106.467 296.777 106.427C296.823 106.386 296.858 106.334 296.878 106.277C296.898 106.22 296.903 106.158 296.893 106.098C296.883 106.039 296.857 105.982 296.818 105.935C296.252 105.238 294.898 104.02 292.586 104.634C292.527 104.65 292.473 104.681 292.429 104.723C292.385 104.764 292.352 104.816 292.334 104.874C292.315 104.931 292.312 104.992 292.323 105.051C292.335 105.11 292.362 105.165 292.401 105.212Z" fill="#007F36"/>
<path d="M289.173 96.984C289.661 97.6984 290.882 98.9745 293.236 98.6826C293.297 98.6741 293.355 98.6507 293.405 98.6144C293.454 98.5782 293.494 98.5303 293.52 98.4752C293.545 98.4201 293.556 98.3595 293.552 98.2992C293.547 98.2388 293.527 98.1805 293.494 98.1296C293.008 97.3821 291.785 96.0373 289.415 96.4266C289.354 96.4369 289.297 96.462 289.249 96.4994C289.201 96.5368 289.163 96.5855 289.139 96.6409C289.115 96.6963 289.106 96.7567 289.112 96.8167C289.118 96.8766 289.139 96.9341 289.173 96.984Z" fill="#007F36"/>
<path d="M303.159 104.048C303.051 104.902 303.116 106.656 305.1 107.937C305.152 107.969 305.211 107.989 305.273 107.993C305.335 107.998 305.397 107.987 305.453 107.962C305.509 107.937 305.558 107.898 305.595 107.85C305.632 107.801 305.656 107.744 305.664 107.684C305.795 106.8 305.766 105.006 303.714 103.781C303.661 103.75 303.602 103.732 303.54 103.729C303.478 103.727 303.417 103.739 303.362 103.766C303.307 103.793 303.259 103.832 303.224 103.882C303.188 103.931 303.166 103.988 303.159 104.048Z" fill="#007F36"/>
<path d="M299.317 97.0261C299.486 97.871 299.543 99.6249 297.651 101.036C297.601 101.073 297.543 101.096 297.481 101.105C297.419 101.113 297.356 101.106 297.298 101.084C297.239 101.062 297.188 101.025 297.148 100.978C297.108 100.931 297.081 100.875 297.069 100.815C296.877 99.95 296.782 98.1607 298.744 96.7917C298.795 96.7569 298.854 96.7353 298.915 96.7288C298.977 96.7223 299.039 96.7311 299.096 96.7545C299.153 96.7779 299.204 96.8151 299.242 96.8625C299.281 96.91 299.307 96.9663 299.317 97.0261Z" fill="#007F36"/>
<path d="M313.143 103.674C312.662 104.396 311.452 105.689 309.093 105.408C309.032 105.4 308.974 105.377 308.924 105.342C308.874 105.306 308.834 105.258 308.808 105.203C308.782 105.149 308.771 105.088 308.775 105.028C308.779 104.967 308.798 104.909 308.831 104.858C309.31 104.106 310.522 102.75 312.894 103.122C312.955 103.131 313.012 103.155 313.061 103.191C313.11 103.228 313.148 103.276 313.173 103.331C313.198 103.386 313.208 103.447 313.203 103.507C313.197 103.567 313.177 103.624 313.143 103.674Z" fill="#007F36"/>
</g>
<g clip-path="url(#clip3)">
<path d="M324.307 141H328.077C328.077 141 328.039 138.412 332.111 132.674C336.184 126.935 339.408 123.392 337.376 120.86C335.345 118.329 329.119 121.817 326.292 129.405C323.466 136.992 324.307 141 324.307 141Z" fill="#FC7459"/>
<path d="M326.708 139.683H326.68C326.621 139.675 326.568 139.645 326.531 139.599C326.495 139.552 326.478 139.493 326.485 139.434C328.009 126.635 334.323 123.577 334.59 123.449C334.644 123.423 334.707 123.42 334.763 123.44C334.819 123.461 334.865 123.502 334.891 123.556C334.916 123.61 334.919 123.672 334.899 123.728C334.879 123.784 334.837 123.83 334.783 123.855C334.719 123.885 328.429 126.957 326.932 139.485C326.926 139.54 326.9 139.591 326.858 139.627C326.817 139.663 326.763 139.683 326.708 139.683Z" fill="#F9AFA2"/>
<path d="M326.57 141C326.57 141 330.924 127.78 327.817 120.355C324.709 112.93 322.611 116.755 321.759 119.061C320.907 121.366 321.08 127.218 322.036 132.055C322.621 134.999 322.854 138.001 322.729 141H326.57Z" fill="#F9C5CE"/>
<path d="M322.175 140.996C322.175 140.996 322.272 138.299 318.369 132C314.466 125.7 313.336 122.662 314.351 121.251C315.365 119.839 319.33 119.623 322.103 126.374C324.875 133.126 324.307 140.996 324.307 140.996H322.175Z" fill="#FC9381"/>
<path d="M325.431 139.683H325.411C325.382 139.68 325.353 139.672 325.327 139.659C325.301 139.645 325.278 139.627 325.259 139.604C325.24 139.582 325.226 139.556 325.217 139.528C325.208 139.5 325.205 139.471 325.208 139.441C326.463 125.385 324.349 119.283 324.326 119.223C324.317 119.171 324.326 119.118 324.352 119.072C324.378 119.026 324.42 118.991 324.47 118.973C324.52 118.955 324.574 118.954 324.624 118.973C324.674 118.991 324.716 119.026 324.742 119.072C324.764 119.134 326.913 125.313 325.648 139.48C325.642 139.534 325.617 139.584 325.577 139.622C325.537 139.659 325.485 139.681 325.431 139.683Z" fill="#FFEEEB"/>
<path d="M323.452 138.984C323.398 138.984 323.346 138.964 323.305 138.929C323.264 138.893 323.238 138.844 323.23 138.791C322.382 132.661 320.583 128.975 319.221 126.961C317.749 124.787 316.462 124.045 316.45 124.038C316.4 124.008 316.365 123.96 316.35 123.904C316.336 123.848 316.344 123.789 316.372 123.739C316.401 123.689 316.448 123.651 316.503 123.635C316.559 123.618 316.618 123.624 316.67 123.65C316.887 123.771 322.019 126.76 323.675 138.73C323.683 138.789 323.667 138.849 323.631 138.896C323.595 138.943 323.542 138.974 323.483 138.983L323.452 138.984Z" fill="#FC7459"/>
</g>
</g>
<defs>
<clipPath id="clip0">
<rect width="375" height="140" fill="white"/>
</clipPath>
<clipPath id="clip1">
<rect width="80" height="65" fill="white" transform="translate(165 76)"/>
</clipPath>
<clipPath id="clip2">
<rect width="39" height="59" fill="white" transform="translate(280 88)"/>
</clipPath>
<clipPath id="clip3">
<rect width="24" height="25" fill="white" transform="translate(314 116)"/>
</clipPath>
</defs>
</svg>
