<svg width="375" height="144" viewBox="0 0 375 144" fill="none" xmlns="http://www.w3.org/2000/svg">
<g clip-path="url(#clip0)">
<path d="M151 32C151 14.3269 165.327 0 183 0H359C376.673 0 391 14.3269 391 32V144H151V32Z" fill="#4BA36F"/>
<path d="M210.976 125.129C210.94 125.172 201.858 136.347 211.471 145.172C216.342 149.645 222.545 151.527 228.269 149.573C231.851 148.376 235.689 148.142 239.391 148.895C242.108 149.429 244.909 149.374 247.602 148.733C250.295 148.092 252.816 146.88 254.994 145.181C257.172 143.481 258.954 141.335 260.218 138.887C261.483 136.44 262.2 133.75 262.32 131.002C262.44 128.254 261.961 125.512 260.915 122.965C259.87 120.418 258.282 118.126 256.261 116.245C254.24 114.364 251.834 112.939 249.207 112.069C246.58 111.198 243.795 110.901 241.042 111.199C236.85 111.65 233.14 109.747 229.405 107.806C225.944 106 220.028 104.987 216.534 108.28C214.199 110.481 213.622 113.43 213.533 116.422C213.438 119.57 212.954 122.667 210.976 125.129Z" fill="#FC7459"/>
<path d="M238.918 115.567C238.761 115.179 238.467 114.86 238.091 114.671C237.715 114.482 237.282 114.436 236.874 114.54C236.466 114.645 236.11 114.894 235.873 115.24C235.636 115.586 235.534 116.007 235.586 116.422C235.613 116.635 235.68 116.841 235.784 117.03C235.619 117.212 235.495 117.428 235.42 117.662C235.346 117.896 235.323 118.144 235.352 118.387C235.382 118.631 235.463 118.866 235.591 119.076C235.719 119.286 235.891 119.466 236.095 119.605C236.299 119.744 236.53 119.838 236.773 119.881C237.017 119.924 237.266 119.915 237.506 119.854C237.746 119.794 237.969 119.683 238.162 119.53C238.355 119.376 238.513 119.184 238.625 118.965C238.825 119.014 239.033 119.027 239.237 119.003C239.686 118.948 240.095 118.722 240.379 118.373C240.662 118.023 240.798 117.578 240.756 117.131C240.715 116.684 240.499 116.271 240.156 115.979C239.813 115.687 239.369 115.539 238.918 115.567Z" fill="#FC9381"/>
<path d="M216.789 131.215C216.701 130.997 216.569 130.8 216.401 130.634C216.233 130.469 216.033 130.339 215.813 130.253C215.594 130.168 215.358 130.127 215.122 130.135C214.886 130.143 214.654 130.198 214.44 130.298C214.226 130.398 214.035 130.54 213.879 130.716C213.722 130.892 213.604 131.098 213.53 131.321C213.457 131.544 213.43 131.779 213.451 132.013C213.473 132.247 213.542 132.474 213.655 132.68C213.489 132.863 213.364 133.079 213.289 133.313C213.214 133.548 213.19 133.795 213.22 134.04C213.249 134.284 213.33 134.519 213.459 134.73C213.587 134.94 213.759 135.121 213.963 135.26C214.168 135.399 214.4 135.493 214.643 135.536C214.887 135.578 215.138 135.569 215.378 135.507C215.617 135.446 215.841 135.335 216.034 135.18C216.227 135.026 216.385 134.833 216.496 134.613C216.696 134.662 216.903 134.675 217.108 134.653C217.567 134.611 217.99 134.39 218.285 134.038C218.58 133.685 218.721 133.231 218.679 132.776C218.637 132.32 218.414 131.899 218.059 131.606C217.705 131.314 217.248 131.173 216.789 131.215Z" fill="#FC9381"/>
<path d="M228.499 138.288C228.471 138.062 228.399 137.844 228.287 137.647C228.175 137.449 228.024 137.275 227.844 137.135C227.664 136.995 227.458 136.891 227.238 136.83C227.018 136.769 226.788 136.752 226.561 136.78C226.386 136.802 226.216 136.852 226.058 136.927C225.852 136.68 225.58 136.494 225.274 136.392C224.968 136.29 224.639 136.275 224.324 136.349C224.01 136.423 223.722 136.584 223.495 136.812C223.268 137.04 223.109 137.327 223.037 137.64C222.638 137.7 222.271 137.896 222.002 138.196C221.733 138.496 221.577 138.879 221.562 139.281C221.548 139.682 221.675 140.076 221.921 140.394C222.168 140.713 222.518 140.935 222.913 141.024C222.902 141.14 222.902 141.256 222.913 141.371C222.94 141.597 223.013 141.816 223.126 142.015C223.238 142.213 223.39 142.388 223.571 142.528C223.752 142.668 223.959 142.771 224.181 142.832C224.402 142.892 224.634 142.908 224.861 142.879C225.265 142.83 225.639 142.639 225.914 142.341C226.173 142.438 226.451 142.473 226.726 142.444C227.184 142.387 227.601 142.152 227.885 141.791C228.169 141.43 228.297 140.971 228.242 140.516C228.207 140.248 228.109 139.992 227.955 139.769C228.157 139.583 228.312 139.351 228.407 139.094C228.501 138.836 228.533 138.56 228.499 138.288Z" fill="#FC9381"/>
<path d="M240.615 145.11C240.983 144.835 241.228 144.426 241.294 143.973C241.361 143.52 241.244 143.059 240.969 142.691C240.862 142.552 240.734 142.431 240.59 142.331C240.704 142.03 240.731 141.704 240.669 141.389C240.606 141.074 240.456 140.782 240.235 140.547C240.014 140.312 239.732 140.144 239.42 140.06C239.108 139.976 238.778 139.98 238.469 140.073C238.218 139.757 237.865 139.539 237.469 139.456C237.074 139.372 236.662 139.429 236.304 139.615C235.946 139.802 235.665 140.107 235.51 140.478C235.354 140.848 235.335 141.261 235.454 141.645C235.348 141.694 235.247 141.753 235.153 141.823C234.887 142.019 234.682 142.286 234.564 142.594C234.446 142.902 234.419 143.237 234.487 143.56C234.555 143.882 234.714 144.179 234.947 144.414C235.179 144.649 235.474 144.813 235.797 144.887C235.843 145.18 235.964 145.457 236.15 145.689C236.335 145.922 236.579 146.103 236.855 146.214C237.132 146.325 237.434 146.363 237.73 146.323C238.026 146.284 238.306 146.169 238.544 145.989C238.76 145.825 238.934 145.614 239.053 145.371C239.316 145.454 239.594 145.473 239.866 145.428C240.137 145.383 240.394 145.274 240.615 145.11Z" fill="#FC9381"/>
<path d="M227.454 122.532C227.252 122.426 227.031 122.361 226.804 122.34C226.576 122.319 226.347 122.343 226.129 122.41C225.91 122.477 225.708 122.586 225.532 122.731C225.356 122.877 225.211 123.055 225.105 123.255C225.091 123.282 225.086 123.309 225.075 123.336C224.667 123.233 224.235 123.282 223.86 123.473C223.485 123.663 223.192 123.983 223.037 124.372C222.882 124.761 222.875 125.193 223.017 125.587C223.159 125.981 223.44 126.31 223.809 126.513C223.729 126.921 223.8 127.344 224.009 127.703C224.218 128.063 224.551 128.336 224.946 128.471C225.341 128.607 225.772 128.596 226.16 128.44C226.548 128.285 226.866 127.996 227.056 127.626C227.056 127.61 227.056 127.591 227.078 127.573C227.462 127.628 227.854 127.553 228.19 127.361C228.527 127.169 228.788 126.87 228.933 126.512C229.078 126.154 229.098 125.758 228.989 125.388C228.88 125.018 228.649 124.695 228.334 124.47C228.425 124.096 228.389 123.702 228.229 123.351C228.07 123 227.797 122.712 227.454 122.532Z" fill="#FC9381"/>
<path d="M225.403 114.124C225.347 113.669 225.112 113.254 224.749 112.971C224.387 112.688 223.926 112.559 223.468 112.613C223.438 112.613 223.414 112.629 223.384 112.632C223.238 112.238 222.952 111.911 222.581 111.713C222.209 111.514 221.777 111.456 221.366 111.551C220.955 111.646 220.593 111.887 220.348 112.229C220.103 112.57 219.992 112.989 220.036 113.406C219.658 113.576 219.354 113.875 219.178 114.249C219.003 114.623 218.968 115.047 219.08 115.444C219.193 115.841 219.444 116.185 219.79 116.414C220.136 116.643 220.552 116.741 220.964 116.691L221.018 116.677C221.191 117.022 221.474 117.298 221.824 117.463C222.173 117.629 222.568 117.673 222.946 117.588C223.323 117.504 223.661 117.297 223.906 116.999C224.151 116.701 224.288 116.33 224.296 115.946C224.659 115.81 224.966 115.556 225.167 115.225C225.368 114.895 225.451 114.507 225.403 114.124Z" fill="#FC9381"/>
<path d="M224.306 139.491C224.524 139.465 224.68 139.268 224.653 139.051C224.626 138.835 224.428 138.681 224.21 138.707C223.992 138.733 223.837 138.93 223.863 139.147C223.89 139.364 224.088 139.518 224.306 139.491Z" fill="#FFAAA1"/>
<path d="M225.306 139.735C225.524 139.709 225.679 139.512 225.652 139.295C225.626 139.078 225.427 138.924 225.209 138.951C224.991 138.977 224.836 139.174 224.863 139.391C224.889 139.607 225.088 139.762 225.306 139.735Z" fill="#FFAAA1"/>
<path d="M224.588 140.421C224.806 140.395 224.961 140.198 224.935 139.981C224.908 139.764 224.71 139.61 224.492 139.637C224.274 139.663 224.118 139.86 224.145 140.077C224.171 140.293 224.37 140.448 224.588 140.421Z" fill="#FFAAA1"/>
<path d="M237.344 142.198C237.562 142.171 237.717 141.974 237.69 141.758C237.664 141.541 237.465 141.387 237.247 141.413C237.029 141.44 236.874 141.637 236.9 141.853C236.927 142.07 237.125 142.224 237.344 142.198Z" fill="#FFAAA1"/>
<path d="M238.08 142.916C238.299 142.889 238.454 142.692 238.427 142.476C238.401 142.259 238.202 142.105 237.984 142.131C237.766 142.158 237.611 142.355 237.637 142.571C237.664 142.788 237.862 142.942 238.08 142.916Z" fill="#FFAAA1"/>
<path d="M237.111 143.141C237.329 143.114 237.484 142.917 237.458 142.701C237.431 142.484 237.233 142.33 237.015 142.356C236.797 142.383 236.641 142.58 236.668 142.796C236.695 143.013 236.893 143.167 237.111 143.141Z" fill="#FFAAA1"/>
<path d="M221.775 114.672C221.993 114.645 222.148 114.448 222.122 114.231C222.095 114.015 221.897 113.861 221.679 113.887C221.46 113.913 221.305 114.11 221.332 114.327C221.358 114.544 221.557 114.698 221.775 114.672Z" fill="#FFAAA1"/>
<path d="M222.777 114.915C222.995 114.889 223.15 114.691 223.124 114.475C223.097 114.258 222.899 114.104 222.681 114.13C222.463 114.157 222.307 114.354 222.334 114.57C222.361 114.787 222.559 114.941 222.777 114.915Z" fill="#FFAAA1"/>
<path d="M222.057 115.601C222.275 115.575 222.43 115.378 222.403 115.161C222.377 114.945 222.178 114.79 221.96 114.817C221.742 114.843 221.587 115.04 221.614 115.257C221.64 115.473 221.838 115.628 222.057 115.601Z" fill="#FFAAA1"/>
<path d="M237.867 116.912C238.085 116.885 238.24 116.688 238.214 116.472C238.187 116.255 237.989 116.101 237.771 116.127C237.553 116.154 237.397 116.351 237.424 116.567C237.451 116.784 237.649 116.938 237.867 116.912Z" fill="#FFAAA1"/>
<path d="M238.4 117.79C238.618 117.764 238.773 117.567 238.747 117.35C238.72 117.133 238.522 116.979 238.304 117.006C238.086 117.032 237.93 117.229 237.957 117.446C237.984 117.662 238.182 117.817 238.4 117.79Z" fill="#FFAAA1"/>
<path d="M237.403 117.768C237.622 117.741 237.777 117.544 237.75 117.328C237.724 117.111 237.525 116.957 237.307 116.983C237.089 117.009 236.934 117.207 236.96 117.423C236.987 117.64 237.185 117.794 237.403 117.768Z" fill="#FFAAA1"/>
<path d="M226.197 125.245C226.415 125.219 226.57 125.022 226.544 124.805C226.517 124.588 226.319 124.434 226.101 124.461C225.883 124.487 225.727 124.684 225.754 124.901C225.781 125.117 225.979 125.271 226.197 125.245Z" fill="#FFAAA1"/>
<path d="M226.575 126.198C226.793 126.172 226.949 125.975 226.922 125.758C226.896 125.542 226.697 125.387 226.479 125.414C226.261 125.44 226.106 125.637 226.132 125.854C226.159 126.07 226.357 126.225 226.575 126.198Z" fill="#FFAAA1"/>
<path d="M225.596 126.013C225.815 125.987 225.97 125.79 225.943 125.573C225.917 125.357 225.718 125.202 225.5 125.229C225.282 125.255 225.127 125.452 225.153 125.669C225.18 125.885 225.378 126.04 225.596 126.013Z" fill="#FFAAA1"/>
<path d="M215.725 132.552C215.943 132.526 216.098 132.329 216.071 132.112C216.045 131.896 215.846 131.741 215.628 131.768C215.41 131.794 215.255 131.991 215.282 132.208C215.308 132.425 215.506 132.579 215.725 132.552Z" fill="#FFAAA1"/>
<path d="M216.213 133.458C216.431 133.431 216.586 133.234 216.559 133.018C216.533 132.801 216.334 132.647 216.116 132.673C215.898 132.699 215.743 132.897 215.77 133.113C215.796 133.33 215.995 133.484 216.213 133.458Z" fill="#FFAAA1"/>
<path d="M215.218 133.384C215.436 133.358 215.591 133.16 215.565 132.944C215.538 132.727 215.34 132.573 215.122 132.599C214.903 132.626 214.748 132.823 214.775 133.039C214.801 133.256 215 133.41 215.218 133.384Z" fill="#FFAAA1"/>
<path d="M238.325 132.169C238.531 132.052 238.71 131.894 238.852 131.706C238.993 131.517 239.095 131.301 239.149 131.072C239.204 130.843 239.211 130.605 239.169 130.373C239.128 130.141 239.039 129.921 238.908 129.724C238.777 129.528 238.607 129.36 238.409 129.231C238.21 129.103 237.987 129.016 237.753 128.976C237.52 128.937 237.28 128.945 237.05 129.001C236.82 129.057 236.603 129.159 236.414 129.301C236.208 129.165 235.976 129.074 235.731 129.034C235.487 128.994 235.237 129.007 234.998 129.071C234.759 129.135 234.537 129.249 234.346 129.406C234.155 129.562 234 129.757 233.891 129.978C233.782 130.199 233.722 130.44 233.715 130.686C233.707 130.932 233.753 131.176 233.848 131.403C233.944 131.63 234.087 131.834 234.268 132.001C234.449 132.168 234.664 132.296 234.899 132.374C234.88 132.577 234.897 132.783 234.948 132.981C235.065 133.416 235.349 133.787 235.738 134.017C236.127 134.247 236.591 134.317 237.032 134.212C237.472 134.106 237.854 133.835 238.095 133.454C238.337 133.074 238.419 132.615 238.325 132.175V132.169Z" fill="#FC9381"/>
<path d="M237.326 131.593C237.538 131.536 237.663 131.318 237.605 131.108C237.547 130.897 237.328 130.773 237.116 130.831C236.904 130.889 236.779 131.106 236.837 131.316C236.895 131.527 237.114 131.651 237.326 131.593Z" fill="#FFAAA1"/>
<path d="M236.497 132.203C236.709 132.145 236.834 131.928 236.776 131.717C236.718 131.507 236.499 131.383 236.287 131.44C236.075 131.498 235.951 131.715 236.009 131.926C236.067 132.136 236.285 132.26 236.497 132.203Z" fill="#FFAAA1"/>
<path d="M236.425 131.217C236.636 131.159 236.761 130.942 236.703 130.731C236.645 130.521 236.427 130.397 236.215 130.454C236.003 130.512 235.878 130.729 235.936 130.94C235.994 131.15 236.213 131.274 236.425 131.217Z" fill="#FFAAA1"/>
<path d="M270.597 122.247C270.559 122.21 259.932 112.478 250.463 121.457C245.664 126.008 243.38 132.046 244.977 137.855C245.947 141.49 245.934 145.315 244.942 148.944C243.242 155.317 282.897 158.621 282.648 152.992C282.462 148.804 284.61 145.239 286.794 141.653C288.824 138.323 290.223 132.513 287.144 128.844C285.084 126.384 282.164 125.618 279.168 125.349C276.01 125.048 272.936 124.374 270.597 122.247Z" fill="#F9C5CE"/>
<path d="M254.858 131.175C255.259 131.044 255.599 130.773 255.814 130.411C256.029 130.05 256.104 129.623 256.024 129.211C255.945 128.798 255.717 128.429 255.383 128.171C255.05 127.914 254.633 127.786 254.211 127.812C253.995 127.825 253.784 127.879 253.588 127.97C253.417 127.793 253.209 127.655 252.979 127.565C252.748 127.476 252.501 127.437 252.254 127.452C251.879 127.47 251.52 127.609 251.231 127.847C250.941 128.085 250.737 128.41 250.649 128.773C250.56 129.135 250.592 129.517 250.739 129.86C250.887 130.203 251.142 130.49 251.467 130.677C251.406 130.869 251.377 131.068 251.383 131.269C251.396 131.726 251.591 132.159 251.925 132.473C252.26 132.787 252.706 132.956 253.166 132.944C253.626 132.931 254.062 132.737 254.379 132.405C254.695 132.072 254.865 131.629 254.852 131.172L254.858 131.175Z" fill="#FFAEC3"/>
<path d="M262.208 138.812C262.554 139.05 262.975 139.156 263.393 139.109C263.811 139.063 264.198 138.867 264.482 138.558C264.766 138.249 264.927 137.848 264.936 137.43C264.945 137.012 264.801 136.605 264.53 136.285C264.39 136.122 264.221 135.985 264.032 135.882C264.069 135.639 264.054 135.392 263.987 135.156C263.92 134.92 263.804 134.701 263.645 134.514C263.487 134.326 263.289 134.174 263.067 134.068C262.844 133.962 262.602 133.905 262.355 133.899C262.109 133.894 261.864 133.941 261.637 134.037C261.41 134.133 261.206 134.276 261.039 134.457C260.872 134.637 260.746 134.851 260.669 135.084C260.592 135.316 260.566 135.563 260.592 135.806C260.395 135.873 260.211 135.975 260.051 136.108C259.69 136.392 259.457 136.807 259.404 137.261C259.351 137.715 259.482 138.172 259.768 138.531C260.054 138.89 260.472 139.121 260.929 139.173C261.387 139.226 261.847 139.096 262.208 138.812Z" fill="#FFAEC3"/>
<path d="M253.751 144.366C253.979 144.353 254.202 144.295 254.408 144.196C254.614 144.097 254.798 143.959 254.95 143.79C255.102 143.62 255.219 143.423 255.294 143.208C255.369 142.994 255.401 142.767 255.388 142.54C255.375 142.365 255.336 142.193 255.272 142.03C255.534 141.841 255.737 141.583 255.859 141.286C255.981 140.988 256.017 140.662 255.963 140.346C255.909 140.029 255.766 139.733 255.552 139.493C255.337 139.252 255.059 139.076 254.749 138.984C254.717 138.583 254.544 138.206 254.261 137.919C253.978 137.631 253.602 137.452 253.199 137.412C252.796 137.371 252.392 137.473 252.056 137.698C251.721 137.923 251.476 138.259 251.364 138.645C251.248 138.633 251.131 138.633 251.015 138.645C250.684 138.663 250.365 138.775 250.096 138.967C249.828 139.16 249.62 139.425 249.498 139.731C249.376 140.036 249.344 140.371 249.407 140.694C249.47 141.017 249.625 141.315 249.854 141.554C249.701 141.886 249.658 142.258 249.733 142.616C249.808 142.974 249.996 143.299 250.27 143.543C250.544 143.787 250.889 143.939 251.255 143.974C251.621 144.01 251.989 143.929 252.306 143.742C252.48 143.952 252.701 144.118 252.953 144.227C253.204 144.335 253.477 144.383 253.751 144.366Z" fill="#FFAEC3"/>
<path d="M268.524 132.594C268.671 132.824 268.87 133.015 269.106 133.153C269.342 133.29 269.608 133.37 269.881 133.385C270.154 133.4 270.427 133.35 270.677 133.239C270.927 133.128 271.146 132.959 271.317 132.747C271.612 132.88 271.938 132.928 272.259 132.886C272.58 132.844 272.883 132.713 273.133 132.509C273.383 132.304 273.57 132.034 273.673 131.73C273.777 131.425 273.792 131.098 273.718 130.785C274.05 130.556 274.292 130.22 274.401 129.833C274.51 129.447 274.48 129.034 274.316 128.667C274.151 128.301 273.863 128.002 273.501 127.824C273.139 127.646 272.725 127.599 272.332 127.691C272.29 127.583 272.238 127.479 272.175 127.382C271.995 127.105 271.74 126.886 271.438 126.75C271.137 126.613 270.802 126.566 270.475 126.612C270.147 126.659 269.839 126.798 269.589 127.013C269.338 127.228 269.155 127.51 269.06 127.825C268.785 127.852 268.521 127.944 268.289 128.094C268.097 128.218 267.932 128.378 267.803 128.565C267.674 128.753 267.583 128.963 267.535 129.186C267.488 129.408 267.486 129.637 267.527 129.86C267.569 130.083 267.655 130.296 267.78 130.487C267.93 130.709 268.13 130.893 268.365 131.024C268.265 131.28 268.228 131.555 268.255 131.828C268.283 132.101 268.375 132.363 268.524 132.594Z" fill="#FFAEC3"/>
<path d="M263.878 126.022C263.996 125.827 264.075 125.612 264.11 125.387C264.145 125.162 264.135 124.933 264.08 124.712C264.026 124.492 263.928 124.284 263.792 124.101C263.657 123.918 263.486 123.763 263.29 123.645C263.266 123.629 263.239 123.621 263.215 123.608C263.343 123.21 263.321 122.779 263.153 122.396C262.986 122.013 262.684 121.703 262.304 121.525C261.923 121.346 261.491 121.311 261.086 121.426C260.682 121.54 260.333 121.797 260.105 122.148C259.703 122.05 259.278 122.098 258.909 122.284C258.539 122.47 258.248 122.781 258.089 123.16C257.929 123.54 257.912 123.964 258.039 124.356C258.167 124.747 258.431 125.081 258.784 125.296C258.801 125.305 258.818 125.313 258.836 125.32C258.754 125.697 258.803 126.09 258.974 126.437C259.145 126.783 259.428 127.062 259.778 127.229C260.128 127.396 260.524 127.441 260.903 127.357C261.282 127.273 261.622 127.065 261.867 126.766C262.238 126.885 262.638 126.876 263.003 126.741C263.368 126.606 263.676 126.352 263.878 126.022Z" fill="#FFAEC3"/>
<path d="M275.818 144.083C276.276 144.052 276.704 143.843 277.008 143.501C277.312 143.158 277.468 142.711 277.442 142.255C277.442 142.226 277.442 142.202 277.442 142.172C277.845 142.05 278.19 141.787 278.413 141.432C278.635 141.076 278.72 140.652 278.651 140.239C278.582 139.825 278.365 139.451 278.038 139.186C277.712 138.92 277.3 138.782 276.879 138.796C276.734 138.407 276.454 138.084 276.089 137.884C275.724 137.684 275.299 137.622 274.891 137.708C274.484 137.795 274.121 138.025 273.87 138.355C273.62 138.686 273.497 139.095 273.526 139.508C273.526 139.527 273.526 139.543 273.526 139.565C273.167 139.714 272.87 139.979 272.682 140.317C272.494 140.655 272.426 141.046 272.488 141.427C272.551 141.808 272.74 142.157 273.027 142.418C273.313 142.679 273.679 142.836 274.067 142.866C274.179 143.234 274.413 143.554 274.731 143.775C275.048 143.996 275.431 144.104 275.818 144.083Z" fill="#FFAEC3"/>
<path d="M253.521 140.699C253.55 140.483 253.397 140.285 253.179 140.257C252.962 140.228 252.762 140.38 252.734 140.596C252.705 140.812 252.858 141.011 253.076 141.039C253.293 141.067 253.493 140.915 253.521 140.699Z" fill="#F7A1BC"/>
<path d="M253.309 141.65C253.338 141.434 253.185 141.235 252.967 141.207C252.749 141.178 252.549 141.33 252.52 141.547C252.491 141.763 252.645 141.962 252.862 141.99C253.08 142.019 253.28 141.867 253.309 141.65Z" fill="#F7A1BC"/>
<path d="M252.666 140.892C252.695 140.676 252.541 140.477 252.324 140.449C252.106 140.42 251.906 140.572 251.877 140.789C251.848 141.005 252.002 141.203 252.219 141.232C252.437 141.261 252.637 141.108 252.666 140.892Z" fill="#F7A1BC"/>
<path d="M271.674 129.841C271.703 129.624 271.55 129.426 271.332 129.397C271.114 129.368 270.914 129.521 270.885 129.737C270.857 129.953 271.01 130.152 271.228 130.181C271.445 130.209 271.645 130.057 271.674 129.841Z" fill="#F7A1BC"/>
<path d="M270.908 130.523C270.937 130.307 270.783 130.108 270.566 130.079C270.348 130.051 270.148 130.203 270.119 130.419C270.09 130.636 270.244 130.834 270.461 130.863C270.679 130.892 270.879 130.739 270.908 130.523Z" fill="#F7A1BC"/>
<path d="M270.743 129.55C270.772 129.333 270.618 129.135 270.401 129.106C270.183 129.078 269.983 129.23 269.954 129.446C269.925 129.662 270.078 129.861 270.296 129.89C270.514 129.918 270.714 129.766 270.743 129.55Z" fill="#F7A1BC"/>
<path d="M276.295 140.479C276.324 140.262 276.171 140.064 275.953 140.035C275.735 140.007 275.535 140.159 275.506 140.375C275.478 140.592 275.631 140.79 275.849 140.819C276.067 140.847 276.266 140.695 276.295 140.479Z" fill="#F7A1BC"/>
<path d="M275.862 141.513C275.891 141.296 275.738 141.098 275.52 141.07C275.303 141.042 275.103 141.194 275.075 141.41C275.046 141.626 275.199 141.824 275.417 141.852C275.634 141.881 275.834 141.729 275.862 141.513Z" fill="#F7A1BC"/>
<path d="M275.34 140.701C275.369 140.484 275.216 140.286 274.998 140.257C274.78 140.229 274.58 140.381 274.552 140.597C274.523 140.814 274.676 141.012 274.894 141.041C275.112 141.069 275.312 140.917 275.34 140.701Z" fill="#F7A1BC"/>
<path d="M261.875 147.849C262.004 148.037 262.169 148.197 262.36 148.321C262.551 148.445 262.765 148.53 262.99 148.572C263.214 148.613 263.445 148.611 263.668 148.564C263.892 148.517 264.103 148.427 264.292 148.298C264.315 148.281 264.336 148.262 264.357 148.242C264.67 148.523 265.075 148.68 265.497 148.685C265.919 148.69 266.328 148.543 266.648 148.27C266.968 147.997 267.177 147.618 267.236 147.203C267.295 146.788 267.2 146.366 266.968 146.016C267.228 145.692 267.361 145.287 267.344 144.873C267.327 144.46 267.161 144.066 266.875 143.765C266.59 143.463 266.206 143.273 265.791 143.23C265.377 143.187 264.961 143.293 264.619 143.53C264.603 143.53 264.592 143.556 264.576 143.567C264.263 143.342 263.883 143.228 263.497 143.242C263.111 143.256 262.741 143.398 262.446 143.646C262.151 143.893 261.948 144.232 261.869 144.607C261.79 144.983 261.84 145.374 262.01 145.718C261.751 146.007 261.596 146.374 261.572 146.76C261.547 147.147 261.654 147.53 261.875 147.849Z" fill="#FFAEC3"/>
<path d="M254.578 129.963C254.607 129.746 254.454 129.548 254.236 129.519C254.018 129.491 253.818 129.643 253.79 129.859C253.761 130.076 253.914 130.274 254.132 130.303C254.35 130.331 254.55 130.179 254.578 129.963Z" fill="#F7A1BC"/>
<path d="M253.667 130.434C253.696 130.217 253.543 130.019 253.325 129.99C253.107 129.961 252.907 130.114 252.879 130.33C252.85 130.546 253.003 130.745 253.221 130.774C253.439 130.802 253.638 130.65 253.667 130.434Z" fill="#F7A1BC"/>
<path d="M253.752 129.448C253.781 129.231 253.627 129.033 253.41 129.004C253.192 128.975 252.992 129.128 252.963 129.344C252.934 129.56 253.087 129.759 253.305 129.788C253.523 129.816 253.723 129.664 253.752 129.448Z" fill="#F7A1BC"/>
<path d="M279.839 132.828C279.573 133.153 279.436 133.564 279.453 133.983C279.469 134.402 279.64 134.8 279.931 135.104C280.222 135.407 280.615 135.595 281.036 135.631C281.456 135.667 281.876 135.55 282.215 135.301C282.39 135.174 282.539 135.015 282.654 134.833C282.894 134.889 283.144 134.892 283.386 134.843C283.628 134.793 283.856 134.693 284.056 134.548C284.355 134.33 284.577 134.022 284.688 133.67C284.799 133.317 284.794 132.939 284.673 132.589C284.552 132.24 284.322 131.939 284.016 131.728C283.71 131.518 283.345 131.411 282.973 131.422C282.915 131.229 282.823 131.047 282.702 130.884C282.435 130.522 282.037 130.278 281.591 130.203C281.145 130.128 280.688 130.229 280.316 130.483C279.943 130.738 279.686 131.127 279.597 131.567C279.509 132.007 279.597 132.464 279.842 132.841L279.839 132.828Z" fill="#FFAEC3"/>
<path d="M281.494 133.579C281.522 133.362 281.369 133.164 281.151 133.135C280.934 133.107 280.734 133.259 280.705 133.475C280.676 133.691 280.829 133.89 281.047 133.919C281.265 133.947 281.465 133.795 281.494 133.579Z" fill="#F7A1BC"/>
<path d="M282.001 132.689C282.03 132.473 281.877 132.274 281.659 132.246C281.441 132.217 281.241 132.369 281.212 132.586C281.184 132.802 281.337 133.001 281.555 133.029C281.772 133.058 281.972 132.906 282.001 132.689Z" fill="#F7A1BC"/>
<path d="M282.352 133.634C282.38 133.418 282.227 133.22 282.01 133.191C281.792 133.163 281.593 133.315 281.564 133.531C281.536 133.747 281.689 133.945 281.906 133.974C282.124 134.002 282.323 133.85 282.352 133.634Z" fill="#F7A1BC"/>
<path d="M261.945 124.684C261.973 124.468 261.82 124.27 261.603 124.241C261.385 124.213 261.186 124.365 261.157 124.581C261.128 124.797 261.282 124.995 261.499 125.024C261.717 125.052 261.916 124.9 261.945 124.684Z" fill="#F7A1BC"/>
<path d="M261.05 124.944C261.079 124.728 260.925 124.529 260.708 124.501C260.49 124.472 260.29 124.624 260.261 124.841C260.232 125.057 260.386 125.255 260.603 125.284C260.821 125.313 261.021 125.16 261.05 124.944Z" fill="#F7A1BC"/>
<path d="M261.218 124.042C261.246 123.826 261.093 123.627 260.875 123.599C260.658 123.571 260.458 123.723 260.43 123.939C260.401 124.155 260.554 124.353 260.772 124.382C260.989 124.41 261.189 124.258 261.218 124.042Z" fill="#F7A1BC"/>
<path d="M263.027 137.468C263.056 137.251 262.903 137.053 262.685 137.024C262.467 136.995 262.267 137.148 262.238 137.364C262.21 137.58 262.363 137.779 262.581 137.808C262.798 137.836 262.998 137.684 263.027 137.468Z" fill="#F7A1BC"/>
<path d="M262.022 137.021C262.051 136.805 261.898 136.607 261.68 136.578C261.463 136.55 261.263 136.702 261.234 136.918C261.206 137.134 261.359 137.332 261.577 137.361C261.794 137.389 261.994 137.237 262.022 137.021Z" fill="#F7A1BC"/>
<path d="M262.993 136.496C263.022 136.28 262.869 136.081 262.651 136.052C262.433 136.024 262.233 136.176 262.205 136.392C262.176 136.609 262.329 136.807 262.547 136.836C262.765 136.865 262.965 136.712 262.993 136.496Z" fill="#F7A1BC"/>
<g clip-path="url(#clip1)">
<path d="M183.655 146.853C183.655 146.853 236.268 143.073 235.82 131.698C235.544 124.519 229.253 130.593 225.126 131.376C219.315 132.481 228.751 129.14 224.93 124.913C221.398 120.98 183.655 146.853 183.655 146.853Z" fill="#04963F"/>
<path d="M176.345 148C176.345 148 123.732 144.204 124.173 132.829C124.449 125.654 130.739 131.724 134.866 132.508C140.677 133.613 131.242 130.276 135.062 126.044C138.602 122.126 176.345 148 176.345 148Z" fill="#0D562A"/>
<path d="M134.287 75.0305C134.253 75.0649 125.116 83.8831 132.569 92.6135C136.347 97.0474 141.567 99.3485 146.761 98.2439C150.02 97.5769 153.398 97.78 156.553 98.8325C158.861 99.5741 161.302 99.8113 163.711 99.5279C166.119 99.2445 168.438 98.4472 170.509 97.1904C172.58 95.9335 174.355 94.2466 175.713 92.2444C177.072 90.2423 177.981 87.972 178.379 85.5881C178.777 83.2043 178.656 80.7629 178.022 78.4302C177.388 76.0975 176.257 73.9283 174.707 72.0703C173.156 70.2123 171.222 68.7092 169.035 67.6634C166.849 66.6175 164.462 66.0535 162.038 66.0096C158.329 65.9638 155.291 63.9035 152.23 61.805C149.392 59.8594 144.34 58.3648 140.934 60.857C138.656 62.5351 137.839 65.0617 137.44 67.6647C137.041 70.4245 136.274 73.081 134.287 75.0305Z" fill="#0D562A"/>
<path d="M159.729 69.6409C159.625 69.2936 159.4 68.9945 159.095 68.7969C158.79 68.5993 158.425 68.516 158.064 68.5619C157.704 68.6078 157.371 68.7799 157.126 69.0476C156.88 69.3152 156.739 69.6609 156.725 70.0231C156.727 70.2128 156.764 70.4006 156.833 70.5774C156.662 70.7183 156.524 70.8945 156.427 71.0938C156.331 71.2932 156.28 71.5109 156.276 71.7321C156.273 71.9532 156.318 72.1724 156.408 72.3746C156.497 72.5768 156.63 72.7572 156.797 72.9034C156.963 73.0495 157.16 73.1579 157.372 73.221C157.585 73.2842 157.809 73.3006 158.029 73.2691C158.248 73.2377 158.458 73.1591 158.645 73.0389C158.831 72.9187 158.989 72.7596 159.107 72.5726C159.278 72.6371 159.458 72.6707 159.641 72.672C160.047 72.6837 160.442 72.5338 160.738 72.2553C161.034 71.9768 161.207 71.5925 161.219 71.187C161.231 70.7815 161.08 70.388 160.801 70.093C160.521 69.798 160.136 69.6258 159.729 69.6141V69.6409Z" fill="#FC9381"/>
<path d="M138.713 80.9744C138.609 80.6271 138.385 80.328 138.08 80.1304C137.775 79.9327 137.41 79.8495 137.049 79.8954C136.688 79.9413 136.356 80.1134 136.11 80.381C135.865 80.6487 135.723 80.9944 135.71 81.3566C135.712 81.5463 135.748 81.7341 135.818 81.9109C135.647 82.0518 135.508 82.228 135.412 82.4273C135.316 82.6267 135.265 82.8444 135.261 83.0656C135.258 83.2867 135.302 83.5059 135.392 83.7081C135.482 83.9103 135.615 84.0907 135.781 84.2369C135.948 84.383 136.144 84.4913 136.357 84.5545C136.57 84.6176 136.794 84.6341 137.013 84.6026C137.233 84.5712 137.443 84.4926 137.629 84.3724C137.816 84.2522 137.973 84.0931 138.092 83.9061C138.262 83.9706 138.443 84.0042 138.625 84.0055C139.032 84.0172 139.427 83.8673 139.723 83.5888C140.019 83.3103 140.192 82.926 140.204 82.5205C140.215 82.115 140.065 81.7215 139.785 81.4265C139.506 81.1315 139.12 80.9593 138.713 80.9476V80.9744Z" fill="#FC9381"/>
<path d="M148.187 88.405C148.187 87.9995 148.026 87.6106 147.738 87.3239C147.45 87.0372 147.06 86.8761 146.653 86.8761C146.498 86.8801 146.344 86.9058 146.197 86.9525C146.041 86.7176 145.823 86.5301 145.566 86.4109C145.31 86.2917 145.026 86.2454 144.745 86.277C144.464 86.3086 144.197 86.417 143.974 86.5902C143.751 86.7634 143.581 86.9946 143.481 87.2583C143.133 87.2797 142.803 87.4187 142.544 87.6523C142.286 87.8859 142.115 88.2003 142.06 88.5435C142.006 88.8867 142.07 89.2384 142.242 89.5405C142.415 89.8426 142.685 90.0771 143.009 90.2054C142.989 90.3061 142.979 90.4085 142.979 90.5112C142.984 90.7987 143.072 91.0787 143.23 91.3191C143.388 91.5595 143.611 91.7505 143.874 91.8703C144.136 91.99 144.427 92.0336 144.713 91.996C144.999 91.9585 145.269 91.8413 145.491 91.6579C145.723 91.7807 145.984 91.841 146.246 91.8331C146.509 91.8252 146.766 91.7492 146.99 91.6127C147.214 91.4762 147.399 91.2838 147.527 91.0545C147.654 90.8252 147.719 90.5668 147.716 90.3048C147.715 90.0665 147.657 89.8318 147.547 89.6206C147.741 89.4817 147.901 89.2995 148.012 89.0885C148.123 88.8774 148.183 88.6434 148.187 88.405Z" fill="#FC9381"/>
<path d="M170.553 77.0678C170.903 76.8661 171.159 76.535 171.265 76.1463C171.371 75.7577 171.319 75.343 171.121 74.9922C171.042 74.86 170.943 74.7402 170.829 74.6368C170.957 74.3853 171.013 74.1034 170.99 73.8223C170.968 73.5412 170.867 73.2718 170.701 73.0439C170.534 72.8161 170.307 72.6386 170.046 72.5311C169.784 72.4237 169.498 72.3904 169.218 72.4351C169.027 72.1424 168.742 71.9236 168.409 71.8151C168.076 71.7066 167.716 71.7149 167.388 71.8386C167.061 71.9623 166.785 72.1939 166.608 72.495C166.431 72.7962 166.363 73.1486 166.414 73.4939C166.317 73.5251 166.223 73.5661 166.134 73.6162C165.885 73.7619 165.681 73.9751 165.548 74.231C165.415 74.4869 165.357 74.7752 165.381 75.0626C165.405 75.3499 165.51 75.6246 165.684 75.855C165.858 76.0853 166.094 76.262 166.364 76.3645C166.373 76.6062 166.44 76.8423 166.56 77.0525C166.691 77.2767 166.876 77.4641 167.1 77.5971C167.323 77.7301 167.577 77.8043 167.837 77.8127C168.097 77.8211 168.355 77.7634 168.586 77.6452C168.818 77.5269 169.016 77.3519 169.161 77.1366C169.382 77.2355 169.623 77.2809 169.865 77.2689C170.107 77.2569 170.343 77.188 170.553 77.0678Z" fill="#FC9381"/>
<path d="M148.966 74.5031C148.632 74.2725 148.22 74.1832 147.82 74.2549C147.421 74.3265 147.066 74.5532 146.833 74.8853L146.799 74.9503C146.456 74.8326 146.082 74.8399 145.744 74.9708C145.406 75.1017 145.125 75.3478 144.952 75.6653C144.778 75.9829 144.724 76.3514 144.797 76.7054C144.87 77.0595 145.067 77.3761 145.353 77.5992C145.258 77.9431 145.288 78.309 145.435 78.6338C145.583 78.9586 145.84 79.2217 146.161 79.3777C146.483 79.5337 146.849 79.5727 147.197 79.4881C147.545 79.4034 147.851 79.2004 148.065 78.9141C148.065 78.9141 148.065 78.8835 148.092 78.8721C148.419 78.9516 148.763 78.9216 149.072 78.7866C149.38 78.6517 149.636 78.4193 149.798 78.1253C149.961 77.8313 150.022 77.4922 149.972 77.1601C149.922 76.8281 149.764 76.5216 149.522 76.2881C149.641 75.9712 149.65 75.624 149.55 75.301C149.449 74.978 149.244 74.6974 148.966 74.5031Z" fill="#FC9381"/>
<path d="M148.072 66.9232C148.072 66.5177 147.911 66.1288 147.623 65.8421C147.335 65.5553 146.945 65.3943 146.538 65.3943H146.461C146.362 65.0471 146.143 64.7461 145.843 64.5444C145.543 64.3428 145.18 64.2535 144.82 64.2924C144.46 64.3313 144.126 64.4959 143.876 64.757C143.626 65.0181 143.476 65.3589 143.454 65.7192C143.117 65.8378 142.832 66.0701 142.648 66.376C142.464 66.6819 142.394 67.0421 142.448 67.3944C142.503 67.7467 142.679 68.0689 142.947 68.3053C143.215 68.5417 143.557 68.6775 143.915 68.6892H143.964C144.085 69.0024 144.306 69.2674 144.593 69.4432C144.88 69.619 145.217 69.6959 145.552 69.662C145.887 69.628 146.201 69.4852 146.447 69.2556C146.692 69.0259 146.855 68.7221 146.91 68.391C147.24 68.309 147.532 68.1204 147.743 67.8548C147.953 67.5892 148.069 67.2615 148.072 66.9232Z" fill="#FC9381"/>
<path d="M144.394 89.0128C144.587 89.0128 144.743 88.8571 144.743 88.665C144.743 88.4729 144.587 88.3171 144.394 88.3171C144.201 88.3171 144.045 88.4729 144.045 88.665C144.045 88.8571 144.201 89.0128 144.394 89.0128Z" fill="#FFAAA1"/>
<path d="M145.242 89.3339C145.434 89.3339 145.591 89.1782 145.591 88.9861C145.591 88.794 145.434 88.6382 145.242 88.6382C145.049 88.6382 144.893 88.794 144.893 88.9861C144.893 89.1782 145.049 89.3339 145.242 89.3339Z" fill="#FFAAA1"/>
<path d="M144.54 89.8576C144.732 89.8576 144.889 89.7019 144.889 89.5098C144.889 89.3177 144.732 89.1619 144.54 89.1619C144.347 89.1619 144.191 89.3177 144.191 89.5098C144.191 89.7019 144.347 89.8576 144.54 89.8576Z" fill="#FFAAA1"/>
<path d="M168.002 74.1743C168.195 74.1743 168.351 74.0185 168.351 73.8264C168.351 73.6343 168.195 73.4786 168.002 73.4786C167.809 73.4786 167.653 73.6343 167.653 73.8264C167.653 74.0185 167.809 74.1743 168.002 74.1743Z" fill="#FFAAA1"/>
<path d="M168.57 74.8776C168.763 74.8776 168.919 74.7218 168.919 74.5297C168.919 74.3376 168.763 74.1819 168.57 74.1819C168.377 74.1819 168.221 74.3376 168.221 74.5297C168.221 74.7218 168.377 74.8776 168.57 74.8776Z" fill="#FFAAA1"/>
<path d="M167.699 74.9731C167.892 74.9731 168.048 74.8174 168.048 74.6253C168.048 74.4332 167.892 74.2775 167.699 74.2775C167.506 74.2775 167.35 74.4332 167.35 74.6253C167.35 74.8174 167.506 74.9731 167.699 74.9731Z" fill="#FFAAA1"/>
<path d="M144.847 67.0188C145.039 67.0188 145.196 66.8631 145.196 66.671C145.196 66.4789 145.039 66.3231 144.847 66.3231C144.654 66.3231 144.498 66.4789 144.498 66.671C144.498 66.8631 144.654 67.0188 144.847 67.0188Z" fill="#FFAAA1"/>
<path d="M145.694 67.3398C145.887 67.3398 146.043 67.1841 146.043 66.992C146.043 66.7999 145.887 66.6442 145.694 66.6442C145.501 66.6442 145.345 66.7999 145.345 66.992C145.345 67.1841 145.501 67.3398 145.694 67.3398Z" fill="#FFAAA1"/>
<path d="M144.992 67.8635C145.185 67.8635 145.341 67.7077 145.341 67.5156C145.341 67.3235 145.185 67.1678 144.992 67.1678C144.8 67.1678 144.643 67.3235 144.643 67.5156C144.643 67.7077 144.8 67.8635 144.992 67.8635Z" fill="#FFAAA1"/>
<path d="M158.666 70.6882C158.859 70.6882 159.015 70.5325 159.015 70.3404C159.015 70.1483 158.859 69.9926 158.666 69.9926C158.474 69.9926 158.317 70.1483 158.317 70.3404C158.317 70.5325 158.474 70.6882 158.666 70.6882Z" fill="#FFAAA1"/>
<path d="M159.038 71.5101C159.231 71.5101 159.387 71.3544 159.387 71.1623C159.387 70.9702 159.231 70.8145 159.038 70.8145C158.846 70.8145 158.689 70.9702 158.689 71.1623C158.689 71.3544 158.846 71.5101 159.038 71.5101Z" fill="#FFAAA1"/>
<path d="M158.172 71.3878C158.364 71.3878 158.521 71.232 158.521 71.0399C158.521 70.8478 158.364 70.6921 158.172 70.6921C157.979 70.6921 157.822 70.8478 157.822 71.0399C157.822 71.232 157.979 71.3878 158.172 71.3878Z" fill="#FFAAA1"/>
<path d="M147.574 76.7468C147.766 76.7468 147.923 76.591 147.923 76.3989C147.923 76.2068 147.766 76.0511 147.574 76.0511C147.381 76.0511 147.225 76.2068 147.225 76.3989C147.225 76.591 147.381 76.7468 147.574 76.7468Z" fill="#FFAAA1"/>
<path d="M147.804 77.6182C147.997 77.6182 148.153 77.4625 148.153 77.2704C148.153 77.0783 147.997 76.9225 147.804 76.9225C147.611 76.9225 147.455 77.0783 147.455 77.2704C147.455 77.4625 147.611 77.6182 147.804 77.6182Z" fill="#FFAAA1"/>
<path d="M146.968 77.3545C147.16 77.3545 147.317 77.1988 147.317 77.0067C147.317 76.8146 147.16 76.6589 146.968 76.6589C146.775 76.6589 146.619 76.8146 146.619 77.0067C146.619 77.1988 146.775 77.3545 146.968 77.3545Z" fill="#FFAAA1"/>
<path d="M137.639 82.0331C137.832 82.0331 137.989 81.8774 137.989 81.6853C137.989 81.4932 137.832 81.3375 137.639 81.3375C137.447 81.3375 137.29 81.4932 137.29 81.6853C137.29 81.8774 137.447 82.0331 137.639 82.0331Z" fill="#FFAAA1"/>
<path d="M137.969 82.874C138.162 82.874 138.318 82.7183 138.318 82.5262C138.318 82.3341 138.162 82.1783 137.969 82.1783C137.777 82.1783 137.62 82.3341 137.62 82.5262C137.62 82.7183 137.777 82.874 137.969 82.874Z" fill="#FFAAA1"/>
<path d="M137.11 82.7059C137.303 82.7059 137.459 82.5501 137.459 82.358C137.459 82.1659 137.303 82.0102 137.11 82.0102C136.917 82.0102 136.761 82.1659 136.761 82.358C136.761 82.5501 136.917 82.7059 137.11 82.7059Z" fill="#FFAAA1"/>
<path d="M205.936 62.3554C205.936 62.3057 205.76 49.6345 194.265 49.042C188.438 48.7439 183.176 50.9494 180.407 55.4981C178.66 58.3196 176.196 60.6311 173.265 62.1987C171.14 63.3636 169.291 64.9713 167.846 66.9122C166.401 68.8531 165.392 71.0817 164.889 73.4461C164.386 75.8105 164.4 78.2552 164.931 80.6136C165.461 82.9721 166.495 85.1889 167.963 87.113C169.431 89.0372 171.298 90.6235 173.436 91.7638C175.574 92.9042 177.934 93.5719 180.355 93.7213C182.776 93.8708 185.2 93.4985 187.464 92.6299C189.727 91.7613 191.776 90.4168 193.471 88.6879C196.048 86.0122 199.638 85.2478 203.263 84.4565C206.635 83.7303 211.203 81.1043 211.701 76.9149C212.035 74.1093 210.758 71.7891 209.128 69.7097C207.413 67.508 205.982 65.1305 205.936 62.3554Z" fill="#48B574"/>
<path d="M190.675 57.7303C191 57.8917 191.373 57.9327 191.726 57.8459C192.079 57.7591 192.389 57.5501 192.602 57.2563C192.815 56.9625 192.916 56.6029 192.888 56.2417C192.859 55.8804 192.703 55.541 192.447 55.2839C192.307 55.1549 192.144 55.0525 191.967 54.982C191.982 54.7608 191.949 54.5389 191.87 54.3318C191.79 54.1247 191.667 53.9373 191.508 53.7825C191.348 53.6278 191.157 53.5094 190.947 53.4356C190.738 53.3617 190.514 53.3343 190.293 53.3551C190.071 53.3758 189.857 53.4444 189.665 53.5559C189.472 53.6674 189.307 53.8193 189.179 54.001C189.052 54.1826 188.965 54.3898 188.926 54.608C188.887 54.8262 188.896 55.0504 188.952 55.2648C188.787 55.3414 188.639 55.4491 188.515 55.5821C188.277 55.876 188.157 56.2471 188.178 56.624C188.198 57.0009 188.358 57.3569 188.626 57.6236C188.894 57.8903 189.251 58.0487 189.63 58.0684C190.008 58.0881 190.38 57.9676 190.675 57.7303Z" fill="#FFAEC3"/>
<path d="M190.218 67.0531C190.239 67.2666 190.305 67.4733 190.411 67.6598C190.517 67.8464 190.662 68.0085 190.835 68.1357C191.008 68.2629 191.207 68.3524 191.417 68.3982C191.627 68.4441 191.845 68.4454 192.056 68.402C192.266 68.3586 192.466 68.2714 192.64 68.1462C192.815 68.0211 192.962 67.8606 193.07 67.6754C193.179 67.4901 193.247 67.2842 193.27 67.071C193.294 66.8577 193.272 66.642 193.206 66.4377C193.393 66.3175 193.552 66.1581 193.671 65.9707C193.79 65.7833 193.866 65.5724 193.895 65.3525C193.924 65.1326 193.905 64.909 193.839 64.6973C193.772 64.4856 193.661 64.2908 193.511 64.1264C193.362 63.9621 193.178 63.8321 192.973 63.7454C192.768 63.6588 192.547 63.6177 192.325 63.6248C192.102 63.632 191.884 63.6873 191.685 63.7869C191.486 63.8865 191.312 64.028 191.173 64.2016C191.012 64.1164 190.836 64.0619 190.655 64.0411C190.275 64.0235 189.901 64.1478 189.607 64.3896C189.314 64.6315 189.121 64.9737 189.066 65.3495C189.011 65.7253 189.099 66.1079 189.312 66.4229C189.525 66.7378 189.848 66.9624 190.218 67.0531Z" fill="#FFAEC3"/>
<path d="M181.534 65.0234C181.83 65.2997 182.224 65.448 182.629 65.4358C183.035 65.4236 183.419 65.252 183.698 64.9584C183.801 64.844 183.888 64.7153 183.955 64.5762C184.233 64.6246 184.52 64.5954 184.783 64.4916C185.046 64.3878 185.275 64.2135 185.445 63.988C185.615 63.7625 185.719 63.4946 185.746 63.2139C185.772 62.9332 185.721 62.6506 185.596 62.3974C185.82 62.13 185.946 61.7943 185.952 61.446C185.959 61.0977 185.846 60.7576 185.632 60.482C185.418 60.2064 185.116 60.0119 184.776 59.9306C184.436 59.8494 184.079 59.8862 183.763 60.0351C183.705 59.9505 183.638 59.8723 183.563 59.802C183.35 59.6067 183.086 59.4754 182.802 59.4232C182.517 59.3711 182.223 59.4003 181.955 59.5074C181.686 59.6145 181.453 59.7952 181.283 60.0286C181.113 60.262 181.012 60.5386 180.993 60.8264C180.748 60.9147 180.529 61.064 180.357 61.2602C180.186 61.4564 180.068 61.6929 180.013 61.9474C179.959 62.2019 179.971 62.466 180.048 62.7146C180.125 62.9633 180.264 63.1882 180.453 63.3683C180.629 63.5294 180.841 63.6483 181.07 63.7161C181.039 63.955 181.064 64.198 181.145 64.4252C181.226 64.6524 181.359 64.8573 181.534 65.0234Z" fill="#FFAEC3"/>
<path d="M198.027 67.3054C197.981 67.5015 197.975 67.7046 198.008 67.9033C198.041 68.1019 198.113 68.2921 198.22 68.4629C198.326 68.6337 198.466 68.7819 198.631 68.8987C198.795 69.0156 198.981 69.099 199.178 69.144C199.329 69.1789 199.484 69.1892 199.638 69.1746C199.734 69.4396 199.902 69.6731 200.123 69.8491C200.344 70.0251 200.609 70.1369 200.89 70.1721C201.17 70.2073 201.455 70.1646 201.713 70.0486C201.971 69.9326 202.191 69.7478 202.35 69.5148C202.694 69.5755 203.048 69.5176 203.354 69.3507C203.66 69.1838 203.9 68.9178 204.035 68.5967C204.169 68.2755 204.189 67.9184 204.092 67.5843C203.995 67.2501 203.786 66.959 203.501 66.7588C203.544 66.6669 203.577 66.5708 203.601 66.4721C203.666 66.1907 203.65 65.8965 203.555 65.6236C203.46 65.3507 203.289 65.1103 203.062 64.9303C202.835 64.7502 202.562 64.638 202.274 64.6064C201.985 64.5749 201.694 64.6254 201.433 64.7521C201.253 64.5924 201.035 64.4796 200.801 64.4233C200.547 64.3642 200.282 64.3704 200.032 64.4413C199.781 64.5122 199.553 64.6455 199.368 64.8287C199.184 65.0119 199.049 65.2388 198.977 65.4882C198.905 65.7377 198.897 66.0013 198.956 66.2543C198.728 66.3431 198.525 66.4849 198.364 66.6677C198.202 66.8506 198.087 67.0692 198.027 67.3054Z" fill="#FFAEC3"/>
<path d="M199.443 60.3602C199.838 60.2748 200.183 60.0374 200.404 59.6995C200.625 59.3617 200.702 58.9507 200.62 58.556C200.62 58.5331 200.62 58.5101 200.62 58.4872C200.943 58.3197 201.195 58.0435 201.332 57.708C201.469 57.3724 201.482 56.9992 201.369 56.6549C201.256 56.3106 201.023 56.0176 200.713 55.8282C200.403 55.6387 200.036 55.5651 199.677 55.6204C199.491 55.3137 199.204 55.0815 198.864 54.9644C198.525 54.8473 198.155 54.8527 197.819 54.9796C197.483 55.1065 197.202 55.3469 197.026 55.6589C196.849 55.9709 196.788 56.3347 196.854 56.6868V56.7327C196.571 56.9156 196.357 57.1859 196.244 57.5021C196.131 57.8183 196.126 58.1627 196.229 58.4822C196.332 58.8017 196.537 59.0786 196.814 59.2702C197.09 59.4617 197.422 59.5573 197.759 59.5422C197.91 59.8447 198.156 60.089 198.461 60.237C198.766 60.385 199.111 60.4283 199.443 60.3602Z" fill="#FFAEC3"/>
<path d="M195.059 78.914C195.354 79.1908 195.748 79.3398 196.153 79.3283C196.558 79.3168 196.943 79.1459 197.222 78.8529C197.238 78.8334 197.254 78.813 197.268 78.7917C197.589 78.9586 197.959 79.0069 198.313 78.928C198.666 78.8492 198.98 78.6482 199.199 78.3608C199.418 78.0734 199.528 77.718 199.51 77.3575C199.491 76.9971 199.345 76.6548 199.098 76.3912C199.246 76.0648 199.274 75.6969 199.178 75.3517C199.082 75.0065 198.867 74.7059 198.571 74.5025C198.275 74.299 197.917 74.2056 197.559 74.2385C197.201 74.2715 196.866 74.4286 196.612 74.6826C196.601 74.6959 196.591 74.71 196.581 74.7247C196.27 74.5979 195.925 74.5766 195.601 74.6641C195.276 74.7515 194.989 74.9429 194.784 75.2088C194.579 75.4746 194.468 75.8002 194.467 76.1354C194.466 76.4707 194.575 76.7969 194.779 77.064C194.613 77.3597 194.551 77.7018 194.602 78.0367C194.652 78.3715 194.813 78.6801 195.059 78.914Z" fill="#FFAEC3"/>
<path d="M183.617 62.7645C183.81 62.7645 183.966 62.6088 183.966 62.4167C183.966 62.2246 183.81 62.0688 183.617 62.0688C183.424 62.0688 183.268 62.2246 183.268 62.4167C183.268 62.6088 183.424 62.7645 183.617 62.7645Z" fill="#F7A1BC"/>
<path d="M182.804 63.1581C182.997 63.1581 183.153 63.0024 183.153 62.8103C183.153 62.6182 182.997 62.4625 182.804 62.4625C182.611 62.4625 182.455 62.6182 182.455 62.8103C182.455 63.0024 182.611 63.1581 182.804 63.1581Z" fill="#F7A1BC"/>
<path d="M182.9 62.2905C183.092 62.2905 183.249 62.1348 183.249 61.9427C183.249 61.7506 183.092 61.5948 182.9 61.5948C182.707 61.5948 182.551 61.7506 182.551 61.9427C182.551 62.1348 182.707 62.2905 182.9 62.2905Z" fill="#F7A1BC"/>
<path d="M201.499 67.7068C201.691 67.7068 201.848 67.5511 201.848 67.3589C201.848 67.1668 201.691 67.0111 201.499 67.0111C201.306 67.0111 201.15 67.1668 201.15 67.3589C201.15 67.5511 201.306 67.7068 201.499 67.7068Z" fill="#F7A1BC"/>
<path d="M200.597 67.6342C200.79 67.6342 200.946 67.4784 200.946 67.2863C200.946 67.0942 200.79 66.9385 200.597 66.9385C200.404 66.9385 200.248 67.0942 200.248 67.2863C200.248 67.4784 200.404 67.6342 200.597 67.6342Z" fill="#F7A1BC"/>
<path d="M201.123 66.9347C201.316 66.9347 201.472 66.779 201.472 66.5869C201.472 66.3947 201.316 66.239 201.123 66.239C200.93 66.239 200.774 66.3947 200.774 66.5869C200.774 66.779 200.93 66.9347 201.123 66.9347Z" fill="#F7A1BC"/>
<path d="M197.456 77.0984C197.649 77.0984 197.805 76.9427 197.805 76.7506C197.805 76.5585 197.649 76.4028 197.456 76.4028C197.263 76.4028 197.107 76.5585 197.107 76.7506C197.107 76.9427 197.263 77.0984 197.456 77.0984Z" fill="#F7A1BC"/>
<path d="M196.643 77.4921C196.836 77.4921 196.992 77.3364 196.992 77.1443C196.992 76.9522 196.836 76.7964 196.643 76.7964C196.45 76.7964 196.294 76.9522 196.294 77.1443C196.294 77.3364 196.45 77.4921 196.643 77.4921Z" fill="#F7A1BC"/>
<path d="M196.739 76.6244C196.931 76.6244 197.088 76.4687 197.088 76.2766C197.088 76.0845 196.931 75.9288 196.739 75.9288C196.546 75.9288 196.39 76.0845 196.39 76.2766C196.39 76.4687 196.546 76.6244 196.739 76.6244Z" fill="#F7A1BC"/>
<path d="M191.081 56.8817C191.274 56.8817 191.43 56.726 191.43 56.5339C191.43 56.3418 191.274 56.186 191.081 56.186C190.888 56.186 190.732 56.3418 190.732 56.5339C190.732 56.726 190.888 56.8817 191.081 56.8817Z" fill="#F7A1BC"/>
<path d="M190.226 56.5875C190.419 56.5875 190.575 56.4317 190.575 56.2396C190.575 56.0475 190.419 55.8918 190.226 55.8918C190.033 55.8918 189.877 56.0475 189.877 56.2396C189.877 56.4317 190.033 56.5875 190.226 56.5875Z" fill="#F7A1BC"/>
<path d="M190.909 56.0447C191.101 56.0447 191.258 55.8889 191.258 55.6968C191.258 55.5047 191.101 55.349 190.909 55.349C190.716 55.349 190.559 55.5047 190.559 55.6968C190.559 55.8889 190.716 56.0447 190.909 56.0447Z" fill="#F7A1BC"/>
<path d="M199.013 58.3992C199.206 58.3992 199.362 58.2435 199.362 58.0514C199.362 57.8593 199.206 57.7036 199.013 57.7036C198.82 57.7036 198.664 57.8593 198.664 58.0514C198.664 58.2435 198.82 58.3992 199.013 58.3992Z" fill="#F7A1BC"/>
<path d="M198.219 57.9635C198.412 57.9635 198.568 57.8078 198.568 57.6157C198.568 57.4236 198.412 57.2678 198.219 57.2678C198.026 57.2678 197.87 57.4236 197.87 57.6157C197.87 57.8078 198.026 57.9635 198.219 57.9635Z" fill="#F7A1BC"/>
<path d="M198.986 57.543C199.179 57.543 199.335 57.3873 199.335 57.1952C199.335 57.0031 199.179 56.8474 198.986 56.8474C198.794 56.8474 198.637 57.0031 198.637 57.1952C198.637 57.3873 198.794 57.543 198.986 57.543Z" fill="#F7A1BC"/>
<path d="M191.369 66.8162C191.562 66.8162 191.718 66.6604 191.718 66.4683C191.718 66.2762 191.562 66.1205 191.369 66.1205C191.176 66.1205 191.02 66.2762 191.02 66.4683C191.02 66.6604 191.176 66.8162 191.369 66.8162Z" fill="#F7A1BC"/>
<path d="M191.139 65.9446C191.331 65.9446 191.488 65.7889 191.488 65.5968C191.488 65.4047 191.331 65.249 191.139 65.249C190.946 65.249 190.79 65.4047 190.79 65.5968C190.79 65.7889 190.946 65.9446 191.139 65.9446Z" fill="#F7A1BC"/>
<path d="M191.971 66.2084C192.164 66.2084 192.32 66.0527 192.32 65.8606C192.32 65.6685 192.164 65.5128 191.971 65.5128C191.778 65.5128 191.622 65.6685 191.622 65.8606C191.622 66.0527 191.778 66.2084 191.971 66.2084Z" fill="#F7A1BC"/>
<path d="M216.799 112.681C216.799 112.681 230.174 96.8564 223.622 78.4324C221.475 72.3854 218.065 72.6377 217.812 77.4233C217.558 82.209 217.179 91.1495 214.398 93.7946C214.398 93.7946 215.284 85.8632 213.247 78.054C211.21 70.2449 209.96 64.7024 204.022 70.1187C198.085 75.5351 193.808 82.079 192.788 83.715C192.788 83.715 194.687 78.3025 192.404 77.1672C190.122 76.032 175.344 94.9261 174.078 108.274L194.575 134.595L207.716 133.712L216.799 112.681Z" fill="#0D562A"/>
<path d="M195.496 120.922C195.453 120.923 195.411 120.914 195.373 120.895C195.334 120.879 195.299 120.855 195.269 120.825C195.239 120.795 195.215 120.76 195.199 120.721C195.183 120.682 195.175 120.64 195.175 120.598C195.176 120.556 195.184 120.514 195.201 120.475C195.277 120.288 203.09 101.745 205.445 78.4286C205.456 78.3441 205.499 78.2669 205.566 78.2135C205.632 78.16 205.717 78.1343 205.802 78.1419C205.887 78.1506 205.965 78.1925 206.019 78.2585C206.073 78.3244 206.098 78.409 206.09 78.4936C203.723 101.898 195.876 120.54 195.795 120.72C195.77 120.779 195.729 120.829 195.676 120.865C195.623 120.901 195.56 120.921 195.496 120.922Z" fill="#17994C"/>
<path d="M161.773 101.948C161.773 101.948 160.396 83.3404 157.642 79.3728C154.888 75.4051 151.363 85.4886 151.67 92.3383C151.977 99.1881 153.814 110.338 153.814 110.338C153.814 110.338 145.548 96.306 141.107 94.4865C136.665 92.6671 134.97 93.2672 137.436 100.281C139.902 107.295 150.14 117.214 150.14 117.214C150.14 117.214 144.628 114.011 141.567 109.895C138.506 105.778 136.964 102.724 135.752 103.637C134.54 104.551 135.445 116.913 149.223 124.079L164.834 121.335L161.773 101.948Z" fill="#48B574"/>
<path d="M167.599 139.637C167.599 139.637 151.72 114.409 161.574 80.0073C166.56 62.6192 168.428 57.8565 172.168 58.2731C175.907 58.6898 175.236 63.85 175.236 63.85C175.236 63.85 177.921 64.4731 182.907 65.7153C182.907 65.7153 185.105 60.5131 189.163 62.2064C194.621 64.4807 182.696 74.0902 199.343 102.567C211.805 123.888 209.316 136.724 209.316 136.724L182.938 143.142L167.599 139.637Z" fill="#63342D"/>
<path d="M171.232 73.3678C171.852 73.3678 172.356 72.8664 172.356 72.2478C172.356 71.6293 171.852 71.1279 171.232 71.1279C170.611 71.1279 170.108 71.6293 170.108 72.2478C170.108 72.8664 170.611 73.3678 171.232 73.3678Z" fill="#EDCCCC"/>
<path d="M182.294 75.6612C182.914 75.6612 183.418 75.1598 183.418 74.5412C183.418 73.9227 182.914 73.4213 182.294 73.4213C181.673 73.4213 181.17 73.9227 181.17 74.5412C181.17 75.1598 181.673 75.6612 182.294 75.6612Z" fill="#EDCCCC"/>
<path d="M210.758 131.564C210.758 131.564 212.135 128.208 220.554 124.546C228.973 120.884 228.992 118.9 228.513 117.528C228.033 116.156 223.461 118.139 223.461 118.139C223.461 118.139 227.903 115.697 229.894 111.121C231.884 106.546 232.494 105.006 230.81 104.241C229.127 103.477 225.441 107.139 225.441 107.139C225.441 107.139 231.259 100.732 227.585 92.8007C223.91 84.8693 222.391 84.8654 220.861 89.1351C219.33 93.4047 217.792 98.1368 219.177 102.559C219.177 102.559 217.8 97.5252 215.502 97.9724C213.205 98.4196 212.748 102.854 213.968 107.735C215.188 112.616 215.345 115.059 215.345 115.059C215.345 115.059 212.898 109.872 210.742 111.397C208.587 112.922 209.534 117.803 210.301 120.712C211.068 123.621 210.758 131.564 210.758 131.564Z" fill="#48B574"/>
<path d="M211.302 128.571C211.258 128.571 211.215 128.562 211.174 128.545C211.134 128.527 211.098 128.5 211.069 128.468C211.038 128.438 211.015 128.402 210.998 128.363C210.982 128.324 210.974 128.282 210.974 128.24C210.974 128.198 210.982 128.156 210.998 128.117C211.015 128.078 211.038 128.042 211.069 128.013C211.118 127.963 216.396 122.868 219.035 113.293C221.758 103.412 222.514 98.3165 222.871 95.8702C222.884 95.7865 222.93 95.7114 222.998 95.6607C223.066 95.61 223.151 95.5878 223.235 95.5988C223.279 95.6047 223.321 95.6195 223.359 95.6422C223.396 95.665 223.429 95.6952 223.454 95.731C223.48 95.7669 223.498 95.8075 223.507 95.8505C223.516 95.8935 223.516 95.9379 223.507 95.981C223.124 98.4388 222.384 103.561 219.653 113.476C216.968 123.235 211.559 128.445 211.506 128.494C211.449 128.542 211.377 128.569 211.302 128.571Z" fill="#17994C"/>
<path d="M182.746 144.51C182.746 144.51 195.603 144.204 203.106 141.766C210.608 139.327 218.41 133.681 220.401 129.561C222.391 125.44 216.565 131.854 213.819 131.545C211.072 131.235 212.748 128.341 215.196 124.221C217.643 120.1 216.576 115.372 212.127 113.392C207.678 111.412 203.397 117.039 201.863 119.493C200.329 121.946 200.486 125.746 195.281 123.154C190.076 120.563 188.377 122.696 188.546 124.374C188.715 126.052 189.769 131.254 187.169 133.681C184.568 136.108 180.127 137.339 180.265 139.797C180.403 142.255 182.746 144.51 182.746 144.51Z" fill="#17994C"/>
<path d="M182.746 144.51C182.746 144.51 167.132 145.882 151.363 135.967C135.595 126.052 132.995 119.798 132.078 112.016C131.161 104.234 141.26 112.933 146.005 121.476C146.005 121.476 140.953 102.865 144.781 92.044C148.609 81.2228 154.731 85.1637 155.958 88.535C157.186 91.9064 155.805 124.083 169.276 133.995C169.276 133.995 160.243 119.504 168.509 116.148C176.774 112.792 181.979 126.052 182.746 144.51Z" fill="#007F36"/>
<path d="M199.562 142.695C199.945 142.61 200.329 142.522 200.712 142.431C201.826 141.206 202.851 139.904 203.781 138.536C206.934 133.897 209.188 128.711 210.428 123.246C210.439 123.166 210.42 123.084 210.373 123.017C210.327 122.951 210.257 122.903 210.178 122.885C210.099 122.867 210.015 122.879 209.945 122.919C209.874 122.959 209.82 123.024 209.795 123.101C207.233 134.392 201.307 140.963 199.562 142.695Z" fill="#48B574"/>
<path d="M191.718 143.895C193.21 142.045 195.745 137.702 195.016 130.1C195.013 130.057 195 130.016 194.981 129.979C194.961 129.941 194.934 129.908 194.901 129.881C194.868 129.854 194.83 129.834 194.789 129.822C194.749 129.809 194.706 129.805 194.664 129.809C194.579 129.819 194.501 129.861 194.447 129.926C194.392 129.992 194.366 130.076 194.372 130.161C195.139 138.299 192.005 142.633 190.77 143.99L191.718 143.895Z" fill="#48B574"/>
<path d="M171.094 121.901C171.084 121.816 171.04 121.739 170.973 121.686C170.906 121.634 170.82 121.61 170.735 121.62C170.65 121.63 170.573 121.673 170.52 121.74C170.467 121.807 170.443 121.893 170.453 121.977C171.891 133.72 176.368 141.315 178.65 144.529C178.938 144.529 179.21 144.552 179.471 144.56C177.338 141.663 172.582 134.029 171.094 121.901Z" fill="#17994C"/>
<path d="M160.726 140.68C148.203 120.039 149.787 94.6165 149.806 94.3527C149.812 94.2676 149.783 94.1837 149.727 94.1195C149.67 94.0554 149.59 94.0162 149.505 94.0106C149.419 94.0051 149.335 94.0335 149.271 94.0898C149.207 94.1461 149.167 94.2255 149.162 94.3107C149.162 94.5706 147.578 119.577 159.736 140.283C160.055 140.42 160.4 140.554 160.726 140.68Z" fill="#17994C"/>
<path d="M147.152 133.188C138.364 123.613 136.259 115.223 136.232 115.104C136.212 115.021 136.16 114.949 136.087 114.905C136.014 114.86 135.926 114.846 135.842 114.866C135.759 114.885 135.687 114.937 135.642 115.01C135.597 115.083 135.583 115.17 135.603 115.254C135.633 115.38 136.37 118.361 138.832 122.841C140.545 125.916 142.55 128.821 144.82 131.514C145.554 132.057 146.331 132.615 147.152 133.188Z" fill="#17994C"/>
<path d="M179.498 79.6925C179.818 78.2496 178.273 76.6826 176.047 76.1925C173.821 75.7024 171.758 76.4748 171.438 77.9177C171.118 79.3607 172.663 80.9277 174.888 81.4178C177.114 81.9079 179.178 81.1355 179.498 79.6925Z" fill="#A06660"/>
<path d="M177.737 79.5792C175.662 79.1205 175.746 78.2949 175.75 78.2757L175.911 77.538C176.46 77.5801 175.083 77.2743 175.597 77.4692L175.428 78.2337C175.409 78.2872 175.102 79.0211 173.077 78.5739C173.034 78.5648 172.99 78.5727 172.954 78.596C172.918 78.6193 172.892 78.656 172.883 78.6981C172.874 78.7402 172.882 78.7842 172.905 78.8204C172.929 78.8566 172.965 78.882 173.008 78.8911C174.507 79.2199 175.194 78.937 175.501 78.6618C175.666 79.044 176.168 79.5868 177.668 79.9156C177.689 79.9209 177.711 79.9219 177.732 79.9187C177.753 79.9155 177.774 79.908 177.792 79.8967C177.811 79.8854 177.827 79.8705 177.839 79.8529C177.852 79.8353 177.86 79.8155 177.865 79.7944C177.87 79.7734 177.87 79.7516 177.866 79.7305C177.862 79.7093 177.854 79.6891 177.842 79.6712C177.83 79.6532 177.815 79.6379 177.797 79.626C177.778 79.6142 177.758 79.606 177.737 79.6021V79.5792Z" fill="#63342D"/>
<path d="M177.048 77.2025C177.121 76.8791 176.681 76.5052 176.065 76.3673C175.449 76.2295 174.891 76.3799 174.818 76.7032C174.745 77.0266 175.185 77.4005 175.801 77.5384C176.417 77.6763 176.975 77.5259 177.048 77.2025Z" fill="#D3A9A9"/>
<path d="M185.086 66.3154L188.538 67.1449C188.538 67.1449 189.501 64.58 187.706 64.0373C185.911 63.4945 185.086 66.3154 185.086 66.3154Z" fill="#70423F"/>
<path d="M169.464 62.5733L172.916 63.4027C172.916 63.4027 173.863 60.8494 172.064 60.2913C170.265 59.7332 169.464 62.5733 169.464 62.5733Z" fill="#70423F"/>
</g>
</g>
<defs>
<clipPath id="clip0">
<rect width="375" height="144" fill="white"/>
</clipPath>
<clipPath id="clip1">
<rect width="112" height="99" fill="white" transform="translate(124 49)"/>
</clipPath>
</defs>
</svg>
