<svg width="375" height="140" viewBox="0 0 375 140" fill="none" xmlns="http://www.w3.org/2000/svg">
<g clip-path="url(#clip0)">
<path d="M114 0H429V140H114V0Z" fill="#007F36"/>
<path d="M114 32C114 14.3269 128.327 0 146 0H397C414.673 0 429 14.3269 429 32V140H114V32Z" fill="#4BA36F"/>
<g clip-path="url(#clip1)">
<path d="M192.57 141.031H173.872C173.872 141.031 165.333 130.813 162.083 124.681C158.832 118.55 155.164 110.74 168.218 118.495C168.218 118.495 164.063 114.917 162.434 109.995C160.806 105.073 162.286 102.688 169.547 107.758C169.547 107.758 165.098 100.749 166.286 97.4743C167.473 94.1995 175.333 98.3677 179.484 103.741C179.484 103.741 179.633 90.0201 187.938 90.1695C196.244 90.319 195.36 107.758 194.026 110.152C194.026 110.152 198.029 106.871 200.551 109.407C203.073 111.942 206.687 121.138 192.57 141.031Z" fill="#0E803C"/>
<path d="M236.655 117.272H217.957C217.957 117.272 209.422 107.053 206.17 100.923C202.917 94.7926 199.253 86.9817 212.305 94.7363C212.305 94.7363 208.15 91.1579 206.521 86.2361C204.893 81.3143 206.373 78.9298 213.641 83.9994C213.641 83.9994 209.19 76.9903 210.377 73.7156C211.565 70.4408 219.424 74.6106 223.578 79.9823C223.578 79.9823 223.725 66.263 232.032 66.4125C240.339 66.5619 239.447 84.009 238.105 86.3952C238.105 86.3952 242.109 83.114 244.63 85.6496C247.15 88.1852 250.773 97.3796 236.655 117.272Z" fill="#0E803C"/>
<path d="M210.497 141.552L221.759 141.418C221.759 141.418 232.756 128.231 231.962 126.099C231.167 123.966 228.383 125.033 227.589 125.967C227.589 125.967 236.332 117.308 233.822 113.445C231.311 109.582 224.415 117.041 224.415 117.041C224.415 117.041 235.014 94.3956 229.05 90.528C223.086 86.6603 215.669 102.518 215.669 102.518C215.669 102.518 216.327 88.942 213.147 88.942C209.967 88.942 206.523 102.529 208.113 110.522C208.113 110.522 205.994 102.263 202.416 103.728C198.838 105.194 198.972 121.304 210.497 141.552Z" fill="#0D562A"/>
<path d="M220.812 141.892L227.823 141.852C227.823 141.852 234.669 137.755 234.173 137.093C233.678 136.431 231.947 136.762 231.457 137.051C231.457 137.051 236.9 134.361 235.334 133.161C233.768 131.96 229.477 134.277 229.477 134.277C229.477 134.277 236.075 127.243 232.364 126.042C228.654 124.842 224.033 129.767 224.033 129.767C224.033 129.767 224.446 125.546 222.466 125.546C220.486 125.546 218.343 129.767 219.332 132.25C219.332 132.25 218.012 129.679 215.786 130.14C213.559 130.601 213.636 135.603 220.812 141.892Z" fill="#0E803C"/>
<path d="M191.065 82.8006C191.065 82.8006 188.915 72.4236 183.074 67.9277C177.233 63.4317 174.125 88.3346 175.764 94.7331L185.832 92.8306L191.065 82.8006Z" fill="#A3381F"/>
<path d="M197.428 83.4048C197.428 83.4048 202.331 68.6218 207.835 65.4194C213.339 62.2169 217.381 78.2179 217.903 82.9725C218.426 87.7272 217.646 97.9323 214.721 100.873L197.428 83.4048Z" fill="#A3381F"/>
<path d="M202.008 85.431C202.008 85.431 202.406 70.166 208.768 66.97C211.391 65.6523 214.921 74.3759 216.132 80.3598C217.344 86.3437 216.334 96.0828 213.913 99.7335L202.008 85.431Z" fill="#EDC1BC"/>
<path d="M185.161 86.4466C185.161 86.4466 188.053 77.3438 183.243 69.6084C181.731 67.1741 178.906 70.3171 177.09 79.5484C175.275 88.7797 177.09 94.3587 177.09 94.3587L185.161 86.4466Z" fill="#EDC1BC"/>
<path d="M187.635 114.41C187.635 114.41 174.051 108.947 172.689 103.484C171.328 98.0207 179.296 88.0631 181.811 86.5012C181.811 86.5012 180.109 84.7031 180.693 83.7133C181.276 82.7235 183.646 84.528 183.646 84.528C183.646 84.528 181.498 82.0326 182.013 80.8017C182.527 79.5709 184.445 79.8698 185.72 82.5484C185.72 82.5484 193.768 79.9292 200.95 82.6657C200.95 82.6657 203.787 78.0058 204.946 78.7064C206.104 79.407 205.185 82.3732 205.185 82.3732C205.185 82.3732 207.79 80.5687 208.717 81.2677C209.644 81.9667 207.675 84.6421 207.675 84.6421C207.675 84.6421 211.902 86.5703 214.855 97.1594C217.809 107.749 212.139 110.496 200.378 113.638C200.378 113.638 200.858 117.724 206.657 129.602C212.457 141.479 209.123 139.725 207.79 141.41C206.457 143.096 192.677 140.829 190.591 138.5C188.506 136.172 187.635 114.41 187.635 114.41Z" fill="#FC7459"/>
<path d="M207.477 138.897C206.157 139.649 206.7 141.687 208.217 141.659C214.08 141.552 224.567 139.619 234.536 128.944C249.456 112.969 245.391 98.6168 241.82 90.5408C238.25 82.4648 230.729 99.1471 229.703 104.262C228.829 108.619 229.213 126.918 212.105 136.32C210.151 137.392 208.642 138.235 207.477 138.897Z" fill="#FC7459"/>
<path d="M186.083 98.8836C186.754 98.8836 187.298 97.8016 187.298 96.4669C187.298 95.1322 186.754 94.0502 186.083 94.0502C185.412 94.0502 184.869 95.1322 184.869 96.4669C184.869 97.8016 185.412 98.8836 186.083 98.8836Z" fill="#A3381F"/>
<path d="M200.447 98.8836C201.118 98.8836 201.662 97.8016 201.662 96.4669C201.662 95.1322 201.118 94.0502 200.447 94.0502C199.776 94.0502 199.232 95.1322 199.232 96.4669C199.232 97.8016 199.776 98.8836 200.447 98.8836Z" fill="#A3381F"/>
<path d="M192.872 107.247C195.53 107.247 197.685 105.423 197.685 103.174C197.685 100.924 195.53 99.1005 192.872 99.1005C190.214 99.1005 188.058 100.924 188.058 103.174C188.058 105.423 190.214 107.247 192.872 107.247Z" fill="#FFC8BD"/>
<path d="M192.977 102.333C193.833 102.333 194.528 101.987 194.528 101.56C194.528 101.134 193.833 100.788 192.977 100.788C192.121 100.788 191.427 101.134 191.427 101.56C191.427 101.987 192.121 102.333 192.977 102.333Z" fill="#A3381F"/>
<path d="M241.82 90.5376C238.248 82.46 230.729 99.1455 229.703 104.26C229.384 105.843 229.224 109.273 228.345 113.443C228.976 115.201 230.082 111.795 230.082 111.795C230.082 111.795 230.796 107.938 231.6 105.6L232.315 109.37C232.315 109.37 234.189 104.972 235.262 102.727C235.262 102.727 235.974 105.868 236.689 106.857C236.689 106.857 238.926 105.062 239.457 103.085C239.457 103.085 241.154 106.228 241.154 109.101C241.154 109.101 242.225 107.755 242.404 106.318C242.404 106.318 243.832 109.46 243.474 111.525C243.254 112.81 243.474 113.568 243.853 113.662C246.795 104.087 244.198 95.9205 241.82 90.5376Z" fill="#EDC1BC"/>
<path d="M202.487 134.16C201.471 133.382 199.01 134.482 198.157 134.893C198.157 134.825 198.171 134.758 198.174 134.692C199.258 133.456 202.628 129.338 200.14 128.535C198.334 127.95 196.258 129.2 194.927 130.249C194.753 128.84 194.045 127.371 192.196 127.349C188.875 127.309 188.816 131.008 188.816 131.008C187.155 129.561 184.012 128.437 183.542 129.319C183.072 130.201 184.846 132.094 184.846 132.094C181.941 130.726 181.348 131.371 182 132.696C182.652 134.022 184.312 134.988 184.312 134.988C179.093 132.899 180.558 135.004 181.859 136.656C183.16 138.307 186.572 141.063 186.572 141.063H194.048L194.067 141.045L196.557 141.031C196.557 141.031 201.97 137.792 201.578 137.269C201.212 136.779 199.993 136.977 199.515 137.191C200.116 136.882 203.621 135.029 202.487 134.16Z" fill="#0D562A"/>
<path d="M174.342 112.426C174.193 112.246 174.005 112.104 173.791 112.012C173.578 111.919 173.345 111.879 173.113 111.895C172.881 111.911 172.656 111.982 172.457 112.102C172.258 112.222 172.09 112.388 171.967 112.587C171.916 112.673 171.834 112.737 171.737 112.765C171.641 112.792 171.538 112.782 171.449 112.736L171.391 112.707C171.045 112.544 170.649 112.522 170.288 112.648C169.927 112.774 169.628 113.036 169.457 113.38C169.285 113.723 169.253 114.121 169.369 114.487C169.484 114.854 169.738 115.161 170.075 115.342C170.105 115.358 170.137 115.373 170.169 115.386C170.486 115.539 170.736 115.804 170.872 116.13C170.932 116.259 171.018 116.374 171.125 116.468C171.232 116.562 171.357 116.632 171.492 116.674C171.628 116.717 171.77 116.73 171.911 116.714C172.052 116.698 172.188 116.652 172.31 116.58C172.556 116.423 172.843 116.344 173.133 116.355C173.287 116.366 173.441 116.341 173.584 116.284C173.727 116.227 173.856 116.138 173.96 116.024C174.06 115.914 174.135 115.784 174.18 115.642C174.224 115.5 174.238 115.35 174.219 115.203C174.161 114.854 174.233 114.495 174.421 114.197C174.441 114.168 174.46 114.139 174.477 114.108C174.628 113.847 174.695 113.546 174.671 113.246C174.646 112.945 174.532 112.659 174.342 112.426Z" fill="#FFAAA1"/>
<path d="M171.265 112.996C171.251 113.022 171.245 113.051 171.248 113.079C171.251 113.108 171.263 113.135 171.281 113.157C171.362 113.24 171.463 113.3 171.574 113.33C171.686 113.36 171.803 113.359 171.914 113.327C172.025 113.295 172.125 113.234 172.204 113.15C172.283 113.066 172.338 112.962 172.363 112.849C172.37 112.811 172.364 112.772 172.348 112.737C172.332 112.702 172.305 112.673 172.272 112.654C172.251 112.643 172.227 112.636 172.203 112.635C172.179 112.633 172.154 112.636 172.132 112.645C172.044 112.681 171.957 112.816 171.89 112.863C171.814 112.906 171.728 112.929 171.641 112.931C171.579 112.931 171.465 112.877 171.392 112.892C171.364 112.899 171.339 112.912 171.317 112.93C171.295 112.948 171.278 112.971 171.265 112.996Z" fill="#FF8980"/>
<path d="M171.82 113.345C171.82 113.345 171.521 112.211 171.118 111.677C171.186 111.599 171.275 111.542 171.375 111.513C171.475 111.485 171.58 111.486 171.679 111.517C171.679 111.517 171.746 112.791 171.985 113.307L171.82 113.345Z" fill="#8E4539"/>
<path d="M175.198 128.234C175.05 128.054 174.861 127.912 174.647 127.82C174.434 127.728 174.201 127.688 173.969 127.703C173.737 127.719 173.512 127.79 173.313 127.91C173.113 128.03 172.945 128.196 172.822 128.395C172.771 128.482 172.688 128.546 172.592 128.573C172.495 128.601 172.392 128.591 172.303 128.544L172.247 128.515C171.9 128.346 171.501 128.321 171.136 128.445C170.77 128.569 170.469 128.833 170.295 129.179C170.122 129.526 170.091 129.927 170.21 130.295C170.328 130.664 170.586 130.972 170.928 131.151L171.023 131.196C171.341 131.347 171.592 131.611 171.727 131.938C171.787 132.067 171.873 132.183 171.98 132.277C172.087 132.371 172.212 132.441 172.347 132.483C172.483 132.526 172.626 132.539 172.766 132.523C172.907 132.506 173.043 132.46 173.166 132.388C173.412 132.232 173.699 132.154 173.99 132.166C174.141 132.177 174.292 132.154 174.432 132.099C174.573 132.044 174.7 131.958 174.804 131.848C174.907 131.738 174.986 131.606 175.033 131.462C175.079 131.317 175.094 131.165 175.075 131.014C175.017 130.665 175.089 130.307 175.277 130.008C175.296 129.979 175.315 129.95 175.333 129.92C175.484 129.659 175.553 129.357 175.529 129.056C175.505 128.754 175.389 128.468 175.198 128.234Z" fill="#FFAAA1"/>
<path d="M172.119 128.805C172.105 128.83 172.099 128.858 172.101 128.887C172.104 128.916 172.115 128.943 172.133 128.965C172.213 129.05 172.314 129.112 172.426 129.144C172.539 129.175 172.657 129.175 172.769 129.144C172.881 129.113 172.983 129.051 173.063 128.966C173.143 128.881 173.198 128.776 173.223 128.662C173.229 128.624 173.224 128.585 173.207 128.55C173.191 128.516 173.165 128.487 173.132 128.467C173.11 128.456 173.087 128.45 173.063 128.448C173.038 128.446 173.014 128.45 172.991 128.457C172.902 128.494 172.816 128.629 172.75 128.678C172.673 128.718 172.588 128.742 172.501 128.745C172.437 128.745 172.323 128.69 172.251 128.705C172.223 128.711 172.197 128.723 172.174 128.74C172.151 128.757 172.132 128.779 172.119 128.805Z" fill="#FF8980"/>
<path d="M172.672 129.153C172.672 129.153 172.374 128.019 171.972 127.487C172.039 127.408 172.128 127.351 172.227 127.322C172.327 127.294 172.432 127.295 172.531 127.326C172.531 127.326 172.598 128.599 172.836 129.115L172.672 129.153Z" fill="#8E4539"/>
<path d="M185.848 121.525C185.87 121.293 185.836 121.058 185.751 120.841C185.665 120.624 185.529 120.431 185.354 120.277C185.179 120.123 184.971 120.013 184.746 119.955C184.52 119.898 184.285 119.895 184.058 119.948C183.961 119.973 183.858 119.959 183.77 119.91C183.682 119.861 183.617 119.78 183.587 119.684C183.587 119.665 183.574 119.644 183.566 119.625C183.444 119.253 183.18 118.946 182.833 118.771C182.486 118.595 182.083 118.565 181.714 118.688C181.345 118.811 181.039 119.076 180.864 119.425C180.69 119.774 180.66 120.179 180.782 120.55C180.793 120.584 180.804 120.618 180.817 120.648C180.934 120.982 180.925 121.347 180.792 121.675C180.743 121.809 180.722 121.952 180.732 122.095C180.741 122.237 180.781 122.376 180.847 122.503C180.913 122.629 181.005 122.74 181.117 122.829C181.228 122.917 181.357 122.981 181.495 123.017C181.778 123.082 182.036 123.23 182.235 123.444C182.336 123.561 182.462 123.653 182.603 123.714C182.744 123.775 182.898 123.804 183.051 123.798C183.199 123.791 183.344 123.753 183.476 123.684C183.607 123.615 183.722 123.519 183.812 123.401C184.017 123.113 184.319 122.912 184.662 122.833L184.765 122.811C185.054 122.733 185.312 122.568 185.506 122.338C185.699 122.108 185.819 121.825 185.848 121.525Z" fill="#FFAAA1"/>
<path d="M183.272 119.74C183.243 119.747 183.216 119.763 183.197 119.787C183.178 119.81 183.167 119.839 183.165 119.869C183.164 119.985 183.193 120.099 183.251 120.199C183.309 120.299 183.393 120.382 183.493 120.438C183.594 120.494 183.708 120.522 183.823 120.519C183.938 120.515 184.051 120.481 184.148 120.418C184.179 120.397 184.203 120.366 184.216 120.33C184.229 120.294 184.23 120.254 184.22 120.218C184.212 120.194 184.2 120.172 184.185 120.154C184.169 120.135 184.149 120.12 184.127 120.11C184.021 120.094 183.914 120.088 183.807 120.094C183.724 120.068 183.647 120.024 183.584 119.964C183.539 119.919 183.497 119.803 183.435 119.76C183.411 119.744 183.384 119.735 183.356 119.732C183.327 119.728 183.299 119.731 183.272 119.74Z" fill="#FF8980"/>
<path d="M183.417 120.38C183.417 120.38 184.004 119.366 184.095 118.704C184.198 118.695 184.302 118.717 184.393 118.767C184.484 118.817 184.558 118.893 184.606 118.985C184.606 118.985 183.758 119.933 183.564 120.467L183.417 120.38Z" fill="#8E4539"/>
<path d="M233.555 82.2174C233.565 81.9884 233.521 81.7604 233.426 81.552C233.331 81.3436 233.188 81.1609 233.009 81.0189C232.831 80.8769 232.621 80.7796 232.397 80.7352C232.174 80.6907 231.943 80.7003 231.723 80.7632C231.629 80.7939 231.527 80.7868 231.437 80.7434C231.348 80.7 231.279 80.6236 231.244 80.5302L231.222 80.4723C231.078 80.1223 230.804 79.8428 230.458 79.6939C230.111 79.545 229.721 79.5386 229.37 79.676C229.019 79.8133 228.736 80.0836 228.581 80.4287C228.426 80.7737 228.412 81.1661 228.542 81.5216L228.58 81.6164C228.712 81.9367 228.723 82.2949 228.609 82.6223C228.566 82.7566 228.552 82.8985 228.568 83.0386C228.584 83.1786 228.629 83.3138 228.7 83.4351C228.772 83.5565 228.868 83.6613 228.982 83.7428C229.097 83.8242 229.227 83.8804 229.365 83.9078C229.647 83.9537 229.909 84.0842 230.116 84.2821C230.22 84.3916 230.349 84.4758 230.49 84.5284C230.632 84.581 230.784 84.6006 230.934 84.5858C231.078 84.5723 231.218 84.527 231.343 84.4532C231.468 84.3793 231.576 84.2787 231.658 84.1584C231.842 83.8671 232.127 83.6539 232.457 83.5591C232.491 83.5591 232.523 83.543 232.556 83.5318C232.836 83.4417 233.082 83.2673 233.261 83.0323C233.439 82.7973 233.542 82.5128 233.555 82.2174Z" fill="#FFAAA1"/>
<path d="M230.94 80.5992C230.912 80.6082 230.888 80.6258 230.871 80.6494C230.853 80.673 230.843 80.7015 230.843 80.731C230.848 80.8441 230.884 80.9538 230.946 81.0483C231.008 81.1428 231.094 81.2188 231.196 81.2681C231.297 81.3175 231.41 81.3384 231.522 81.3287C231.635 81.319 231.742 81.279 231.834 81.213C231.863 81.1898 231.885 81.1581 231.896 81.1222C231.906 81.0863 231.906 81.0479 231.894 81.0122C231.886 80.9899 231.873 80.9696 231.857 80.9525C231.84 80.9354 231.82 80.9218 231.799 80.9125C231.692 80.9013 231.585 80.9013 231.479 80.9125C231.396 80.8924 231.319 80.8528 231.254 80.7968C231.207 80.7551 231.159 80.6362 231.094 80.604C231.07 80.5928 231.044 80.5866 231.018 80.5858C230.991 80.585 230.965 80.5895 230.94 80.5992Z" fill="#FF8980"/>
<path d="M231.116 81.2195C231.116 81.2195 231.64 80.1959 231.695 79.5436C231.796 79.5294 231.898 79.5455 231.99 79.5898C232.082 79.6341 232.159 79.7047 232.211 79.7926C232.211 79.7926 231.428 80.7567 231.265 81.2966L231.116 81.2195Z" fill="#8E4539"/>
<path d="M216.768 121.347C216.779 121.118 216.735 120.889 216.64 120.68C216.545 120.471 216.402 120.288 216.223 120.146C216.043 120.004 215.833 119.906 215.609 119.862C215.385 119.818 215.153 119.828 214.934 119.891C214.839 119.922 214.737 119.915 214.647 119.872C214.558 119.828 214.489 119.752 214.454 119.658C214.454 119.638 214.44 119.618 214.432 119.599C214.293 119.242 214.019 118.954 213.67 118.8C213.321 118.646 212.925 118.638 212.569 118.777C212.214 118.916 211.928 119.192 211.775 119.543C211.622 119.894 211.613 120.292 211.752 120.65L211.79 120.743C211.923 121.063 211.933 121.421 211.819 121.749C211.777 121.883 211.763 122.025 211.779 122.165C211.795 122.305 211.84 122.44 211.911 122.561C211.983 122.683 212.079 122.787 212.193 122.869C212.307 122.95 212.437 123.007 212.575 123.034C212.856 123.082 213.117 123.215 213.321 123.415C213.426 123.524 213.554 123.608 213.696 123.66C213.838 123.712 213.989 123.732 214.139 123.717C214.284 123.704 214.423 123.659 214.548 123.585C214.673 123.511 214.781 123.411 214.863 123.291C215.048 123 215.332 122.787 215.662 122.692L215.762 122.665C216.044 122.576 216.292 122.402 216.472 122.166C216.652 121.93 216.756 121.644 216.768 121.347Z" fill="#FFAAA1"/>
<path d="M214.152 119.729C214.124 119.738 214.1 119.756 214.083 119.78C214.065 119.803 214.055 119.832 214.055 119.861C214.053 119.975 214.085 120.087 214.147 120.184C214.209 120.28 214.297 120.355 214.401 120.401C214.501 120.458 214.615 120.483 214.729 120.474C214.843 120.465 214.952 120.421 215.041 120.349C215.07 120.326 215.092 120.295 215.103 120.259C215.114 120.223 215.113 120.184 215.101 120.149C215.093 120.126 215.08 120.106 215.064 120.089C215.047 120.072 215.027 120.058 215.006 120.049C214.899 120.038 214.792 120.038 214.686 120.049C214.603 120.028 214.526 119.989 214.461 119.933C214.416 119.891 214.368 119.773 214.301 119.74C214.255 119.717 214.201 119.713 214.152 119.729Z" fill="#FF8980"/>
<path d="M214.328 120.349C214.328 120.349 214.852 119.326 214.907 118.672C215.008 118.658 215.11 118.674 215.202 118.719C215.294 118.763 215.37 118.833 215.423 118.921C215.423 118.921 214.64 119.893 214.477 120.426L214.328 120.349Z" fill="#8E4539"/>
<path d="M223.706 104.912C223.552 104.743 223.36 104.614 223.147 104.534C222.933 104.454 222.704 104.426 222.477 104.453C222.251 104.48 222.034 104.56 221.845 104.687C221.656 104.815 221.499 104.985 221.388 105.186C221.342 105.273 221.265 105.339 221.172 105.371C221.079 105.403 220.978 105.398 220.888 105.357L220.831 105.332C220.481 105.178 220.085 105.169 219.73 105.308C219.375 105.448 219.089 105.723 218.935 106.074C218.782 106.425 218.773 106.823 218.912 107.181C219.05 107.538 219.324 107.826 219.674 107.98L219.768 108.018C220.087 108.151 220.346 108.397 220.495 108.709C220.56 108.834 220.651 108.943 220.76 109.03C220.87 109.118 220.997 109.18 221.133 109.215C221.269 109.25 221.41 109.255 221.548 109.231C221.686 109.207 221.817 109.154 221.933 109.076C222.168 108.91 222.446 108.819 222.732 108.814C222.883 108.816 223.033 108.785 223.169 108.721C223.306 108.658 223.427 108.564 223.523 108.447C223.616 108.335 223.683 108.204 223.72 108.062C223.757 107.921 223.762 107.773 223.736 107.63C223.661 107.291 223.714 106.937 223.883 106.635C223.901 106.606 223.918 106.577 223.934 106.547C224.065 106.283 224.114 105.986 224.073 105.694C224.032 105.402 223.904 105.129 223.706 104.912Z" fill="#FFAAA1"/>
<path d="M220.72 105.627C220.707 105.653 220.702 105.683 220.706 105.711C220.71 105.74 220.723 105.767 220.743 105.788C220.826 105.865 220.928 105.918 221.039 105.942C221.149 105.965 221.264 105.958 221.371 105.922C221.478 105.885 221.574 105.82 221.647 105.733C221.72 105.647 221.769 105.542 221.788 105.43C221.792 105.393 221.785 105.355 221.767 105.322C221.75 105.289 221.722 105.262 221.689 105.245C221.667 105.235 221.643 105.23 221.619 105.23C221.595 105.23 221.572 105.235 221.55 105.245C221.465 105.285 221.39 105.423 221.326 105.473C221.252 105.517 221.17 105.544 221.085 105.552C221.004 105.535 220.921 105.526 220.839 105.525C220.813 105.532 220.789 105.546 220.769 105.563C220.748 105.581 220.732 105.603 220.72 105.627Z" fill="#FF8980"/>
<path d="M221.28 105.941C221.28 105.941 220.931 104.845 220.51 104.345C220.571 104.263 220.655 104.202 220.751 104.168C220.847 104.134 220.951 104.129 221.05 104.154C221.05 104.154 221.179 105.398 221.44 105.891L221.28 105.941Z" fill="#8E4539"/>
<path d="M222.99 87.5424C222.343 87.2001 221.248 86.2714 221.326 83.9446C221.329 83.864 221.354 83.7857 221.397 83.7179C221.441 83.65 221.501 83.5952 221.573 83.559C221.645 83.5229 221.725 83.5068 221.805 83.5125C221.885 83.5181 221.962 83.5453 222.028 83.5911C222.875 84.1792 224.195 85.4358 223.618 87.2869C223.598 87.3486 223.565 87.4052 223.521 87.4526C223.477 87.5001 223.423 87.5373 223.363 87.5616C223.303 87.586 223.239 87.5969 223.174 87.5935C223.11 87.5902 223.047 87.5727 222.99 87.5424Z" fill="#007F36"/>
<path d="M207.026 118.816C206.357 118.519 205.201 117.671 205.109 115.344C205.106 115.263 205.125 115.183 205.163 115.113C205.202 115.042 205.259 114.983 205.328 114.942C205.397 114.901 205.476 114.879 205.556 114.879C205.637 114.879 205.716 114.901 205.785 114.942C206.67 115.469 208.076 116.629 207.629 118.514C207.613 118.577 207.584 118.635 207.544 118.685C207.504 118.735 207.454 118.776 207.396 118.804C207.339 118.833 207.277 118.849 207.213 118.851C207.149 118.853 207.085 118.841 207.026 118.816Z" fill="#007F36"/>
<path d="M216.086 113.848C216.535 113.268 217.634 112.346 219.901 112.829C219.979 112.846 220.052 112.884 220.111 112.939C220.17 112.994 220.213 113.064 220.236 113.141C220.259 113.218 220.26 113.301 220.241 113.379C220.221 113.457 220.181 113.529 220.124 113.586C219.399 114.322 217.938 115.41 216.228 114.515C216.171 114.485 216.121 114.442 216.082 114.39C216.043 114.338 216.016 114.278 216.002 114.215C215.989 114.151 215.989 114.086 216.004 114.022C216.018 113.959 216.046 113.899 216.086 113.848Z" fill="#007F36"/>
<path d="M173.159 124.243C172.429 124.225 171.037 123.886 170.073 121.77C170.04 121.696 170.027 121.615 170.036 121.535C170.044 121.455 170.074 121.379 170.122 121.314C170.17 121.25 170.235 121.199 170.309 121.168C170.383 121.137 170.464 121.127 170.543 121.138C171.564 121.285 173.303 121.815 173.608 123.729C173.618 123.793 173.614 123.859 173.595 123.921C173.577 123.984 173.546 124.042 173.503 124.091C173.46 124.14 173.407 124.179 173.348 124.205C173.288 124.231 173.224 124.244 173.159 124.243Z" fill="#007F36"/>
<path d="M174.569 137.544C174.586 136.81 174.923 135.41 177.028 134.441C177.101 134.408 177.182 134.395 177.261 134.404C177.341 134.412 177.417 134.442 177.481 134.491C177.545 134.539 177.595 134.604 177.626 134.678C177.657 134.753 177.667 134.834 177.656 134.914C177.511 135.939 176.983 137.689 175.08 137.994C175.016 138.004 174.951 138 174.888 137.982C174.826 137.964 174.768 137.932 174.72 137.889C174.671 137.846 174.632 137.793 174.606 137.734C174.58 137.674 174.567 137.609 174.569 137.544Z" fill="#007F36"/>
<path d="M195.667 132.809C195.678 132.293 195.914 131.31 197.394 130.628C197.446 130.607 197.502 130.599 197.557 130.606C197.612 130.613 197.665 130.634 197.71 130.668C197.754 130.701 197.789 130.746 197.811 130.797C197.833 130.849 197.842 130.905 197.835 130.961C197.733 131.681 197.356 132.91 196.025 133.125C195.98 133.131 195.935 133.127 195.892 133.113C195.849 133.1 195.809 133.078 195.775 133.048C195.742 133.018 195.714 132.981 195.696 132.94C195.677 132.899 195.667 132.854 195.667 132.809Z" fill="#007F36"/>
<path d="M194.158 139.085C194.17 138.569 194.406 137.586 195.886 136.905C195.937 136.883 195.994 136.875 196.049 136.882C196.104 136.889 196.157 136.91 196.201 136.944C196.246 136.978 196.281 137.022 196.303 137.074C196.325 137.125 196.333 137.182 196.327 137.237C196.225 137.957 195.848 139.186 194.516 139.402C194.472 139.407 194.426 139.403 194.383 139.39C194.34 139.376 194.301 139.354 194.267 139.324C194.233 139.294 194.206 139.257 194.187 139.216C194.169 139.175 194.159 139.13 194.158 139.085Z" fill="#007F36"/>
<path d="M190.309 135.505C189.85 135.272 189.072 134.633 189.1 132.995C189.103 132.939 189.121 132.885 189.151 132.838C189.181 132.791 189.223 132.753 189.272 132.727C189.322 132.701 189.377 132.689 189.433 132.691C189.488 132.693 189.542 132.71 189.589 132.74C190.19 133.143 191.132 134.011 190.748 135.311C190.734 135.354 190.712 135.394 190.681 135.428C190.651 135.462 190.614 135.49 190.572 135.508C190.53 135.526 190.485 135.536 190.44 135.535C190.395 135.535 190.35 135.524 190.309 135.505Z" fill="#007F36"/>
<path d="M187.355 138.304C186.842 138.319 185.853 138.132 185.099 136.683C185.074 136.632 185.063 136.576 185.067 136.52C185.071 136.464 185.089 136.411 185.12 136.364C185.151 136.317 185.194 136.28 185.244 136.255C185.294 136.23 185.35 136.218 185.405 136.222C186.126 136.288 187.366 136.596 187.651 137.927C187.659 137.971 187.657 138.017 187.646 138.061C187.635 138.105 187.615 138.147 187.587 138.182C187.559 138.218 187.524 138.247 187.484 138.268C187.444 138.289 187.4 138.302 187.355 138.304Z" fill="#007F36"/>
</g>
<g clip-path="url(#clip2)">
<path d="M298.636 126.697C298.636 126.697 278.252 129.92 277.072 113.225C275.891 96.5297 290.068 91.5536 288.879 78.6668C287.69 65.78 290.068 59.6333 298.636 58.166C307.204 56.6987 315.774 65.1947 314.59 74.5672C313.407 83.9396 311.636 96.2385 316.364 103.267C321.093 110.296 319.319 118.204 312.226 122.891C305.133 127.579 298.636 126.697 298.636 126.697Z" fill="#0D562A"/>
<path d="M300.986 114.698C301.016 110.447 301.016 106.624 300.986 103.226C304.408 100.926 305.729 96.3447 306.228 93.5054C306.264 93.2931 305.954 93.2033 305.885 93.4074C304.512 97.9698 301.95 99.9624 300.964 100.583C300.808 86.5339 300.261 80.9562 300.006 84.8462C299.833 87.5166 299.663 101.073 298.803 113.19C292.125 107.582 289.335 103.188 288.259 101.01C288.239 100.976 288.208 100.949 288.17 100.936C288.133 100.922 288.092 100.922 288.054 100.936C288.017 100.95 287.985 100.976 287.966 101.011C287.947 101.046 287.94 101.086 287.948 101.125C289.906 109.4 296.609 114.319 298.622 115.629C298.271 119.962 297.823 123.997 297.249 127.122C295.75 135.182 294.643 146 294.643 146H302.939C302.939 146 300.824 138.901 300.986 114.698Z" fill="#F4F4F4"/>
<path d="M311.223 81.6039C311.105 81.3504 310.928 81.1283 310.707 80.9559C310.485 80.7836 310.225 80.666 309.949 80.6128C309.672 80.5596 309.387 80.5724 309.116 80.6501C308.845 80.7277 308.597 80.8681 308.392 81.0595C308.304 81.1422 308.188 81.1884 308.067 81.1884C307.946 81.1884 307.829 81.1422 307.741 81.0595L307.684 81.0105C307.327 80.7216 306.872 80.5812 306.413 80.6188C305.954 80.6565 305.528 80.8693 305.224 81.2123C304.92 81.5554 304.763 82.002 304.785 82.4579C304.807 82.9139 305.006 83.3436 305.341 83.6565L305.438 83.7354C305.765 84.0072 305.979 84.3891 306.039 84.8079C306.07 84.9755 306.136 85.1346 306.233 85.2753C306.33 85.4159 306.456 85.5349 306.602 85.6246C306.748 85.7144 306.912 85.7728 307.082 85.7962C307.252 85.8197 307.425 85.8076 307.59 85.7607C307.927 85.6587 308.286 85.6587 308.623 85.7607C308.8 85.8198 308.987 85.8385 309.172 85.8154C309.357 85.7923 309.535 85.728 309.691 85.6273C309.841 85.5309 309.969 85.4029 310.063 85.2523C310.158 85.1018 310.219 84.9324 310.24 84.7562C310.284 84.3391 310.479 83.952 310.79 83.6674L310.883 83.583C311.135 83.3261 311.303 82.9994 311.364 82.646C311.424 82.2926 311.376 81.9292 311.223 81.6039Z" fill="#FC7459"/>
<path d="M307.442 81.3318C307.416 81.3568 307.399 81.3893 307.394 81.4245C307.388 81.4597 307.393 81.4959 307.409 81.5278C307.477 81.6516 307.577 81.7546 307.7 81.8253C307.823 81.896 307.963 81.9318 308.105 81.9287C308.247 81.9256 308.385 81.8838 308.505 81.8078C308.624 81.7317 308.72 81.6245 308.782 81.4979C308.801 81.4563 308.806 81.4102 308.798 81.3655C308.79 81.3208 308.768 81.2797 308.736 81.2474C308.714 81.2277 308.688 81.2126 308.66 81.2032C308.632 81.1939 308.603 81.1904 308.574 81.193C308.458 81.2093 308.315 81.34 308.222 81.3726C308.119 81.3971 308.012 81.3971 307.909 81.3726C307.838 81.3536 307.72 81.2583 307.634 81.2529C307.598 81.2502 307.562 81.2559 307.529 81.2696C307.495 81.2833 307.466 81.3046 307.442 81.3318Z" fill="#CE422C"/>
<path d="M307.986 81.9035C307.986 81.9035 307.986 80.5016 307.667 79.7638C307.77 79.6921 307.892 79.6518 308.018 79.6479C308.144 79.644 308.269 79.6768 308.376 79.7421C308.376 79.7421 308.068 81.2338 308.192 81.9008L307.986 81.9035Z" fill="#8E4539"/>
<path d="M287.709 103.969C287.591 103.716 287.414 103.495 287.193 103.323C286.971 103.151 286.712 103.033 286.436 102.98C286.159 102.927 285.874 102.94 285.604 103.017C285.334 103.094 285.086 103.234 284.881 103.425C284.795 103.51 284.679 103.558 284.558 103.561C284.437 103.563 284.32 103.52 284.23 103.439L284.172 103.39C283.816 103.101 283.36 102.96 282.901 102.998C282.443 103.036 282.016 103.248 281.713 103.591C281.409 103.935 281.251 104.381 281.273 104.837C281.295 105.293 281.495 105.723 281.83 106.036L281.926 106.115C282.253 106.386 282.467 106.768 282.528 107.187C282.558 107.355 282.624 107.514 282.721 107.655C282.818 107.796 282.944 107.915 283.09 108.005C283.236 108.095 283.4 108.153 283.57 108.176C283.74 108.2 283.914 108.187 284.079 108.14C284.416 108.038 284.775 108.038 285.112 108.14C285.288 108.199 285.476 108.218 285.661 108.195C285.846 108.171 286.023 108.107 286.18 108.006C286.33 107.91 286.457 107.782 286.552 107.631C286.647 107.481 286.707 107.312 286.729 107.135C286.773 106.718 286.968 106.331 287.278 106.046L287.372 105.962C287.627 105.704 287.796 105.375 287.856 105.018C287.917 104.662 287.865 104.296 287.709 103.969Z" fill="#FC7459"/>
<path d="M283.917 103.697C283.891 103.722 283.874 103.755 283.868 103.79C283.862 103.825 283.868 103.861 283.884 103.893C283.947 104.017 284.045 104.12 284.167 104.189C284.289 104.257 284.428 104.288 284.568 104.277C284.708 104.282 284.847 104.245 284.966 104.171C285.086 104.098 285.18 103.99 285.238 103.863C285.257 103.822 285.262 103.775 285.253 103.73C285.245 103.685 285.222 103.644 285.188 103.613C285.167 103.593 285.141 103.578 285.113 103.568C285.085 103.559 285.056 103.555 285.026 103.558C284.914 103.575 284.771 103.705 284.678 103.738C284.575 103.763 284.468 103.763 284.365 103.738C284.293 103.719 284.175 103.624 284.09 103.618C284.057 103.618 284.025 103.625 283.995 103.639C283.965 103.653 283.938 103.673 283.917 103.697Z" fill="#CE422C"/>
<path d="M284.458 104.277C284.458 104.277 284.458 102.875 284.142 102.137C284.245 102.066 284.367 102.025 284.493 102.022C284.619 102.018 284.743 102.05 284.851 102.116C284.851 102.116 284.543 103.607 284.667 104.277H284.458Z" fill="#8E4539"/>
<path d="M314.115 113.337C313.997 113.083 313.82 112.861 313.598 112.689C313.376 112.516 313.117 112.399 312.84 112.345C312.563 112.292 312.278 112.305 312.008 112.383C311.737 112.46 311.489 112.601 311.284 112.792C311.197 112.876 311.081 112.925 310.96 112.927C310.838 112.93 310.721 112.886 310.63 112.806L310.573 112.757C310.216 112.468 309.76 112.327 309.301 112.365C308.843 112.403 308.416 112.616 308.113 112.959C307.809 113.302 307.651 113.748 307.673 114.204C307.695 114.66 307.895 115.09 308.23 115.403L308.326 115.482C308.653 115.753 308.868 116.135 308.928 116.554C308.959 116.722 309.025 116.881 309.122 117.022C309.219 117.162 309.345 117.281 309.491 117.371C309.637 117.461 309.8 117.519 309.97 117.543C310.141 117.566 310.314 117.554 310.479 117.507C310.816 117.405 311.175 117.405 311.512 117.507C311.685 117.565 311.869 117.584 312.051 117.563C312.233 117.542 312.407 117.481 312.562 117.385C312.718 117.289 312.849 117.16 312.948 117.007C313.047 116.855 313.111 116.682 313.135 116.503C313.175 116.085 313.371 115.697 313.684 115.414L313.774 115.329C314.03 115.072 314.2 114.742 314.261 114.386C314.322 114.03 314.271 113.663 314.115 113.337Z" fill="#FC7459"/>
<path d="M310.334 113.064C310.308 113.089 310.291 113.122 310.285 113.157C310.279 113.192 310.285 113.228 310.301 113.26C310.368 113.384 310.469 113.487 310.592 113.558C310.714 113.628 310.854 113.664 310.996 113.661C311.138 113.658 311.277 113.616 311.396 113.54C311.516 113.464 311.612 113.357 311.674 113.23C311.693 113.188 311.699 113.142 311.69 113.096C311.682 113.051 311.66 113.01 311.627 112.977C311.605 112.958 311.579 112.943 311.551 112.934C311.524 112.925 311.494 112.922 311.465 112.925C311.35 112.942 311.207 113.072 311.116 113.105C311.013 113.13 310.906 113.13 310.803 113.105C310.729 113.086 310.614 112.991 310.529 112.985C310.492 112.983 310.456 112.988 310.422 113.002C310.388 113.016 310.358 113.037 310.334 113.064Z" fill="#CE422C"/>
<path d="M310.877 113.636C310.877 113.636 310.877 112.234 310.562 111.496C310.664 111.424 310.786 111.384 310.911 111.38C311.037 111.376 311.161 111.409 311.267 111.475C311.267 111.475 310.96 112.966 311.083 113.633L310.877 113.636Z" fill="#8E4539"/>
<path d="M299.171 70.5221C299.053 70.269 298.875 70.0473 298.654 69.8754C298.432 69.7034 298.172 69.586 297.896 69.5329C297.619 69.4798 297.334 69.4924 297.064 69.5697C296.793 69.647 296.545 69.7868 296.34 69.9777C296.252 70.0604 296.136 70.1065 296.015 70.1065C295.893 70.1065 295.777 70.0604 295.689 69.9777L295.631 69.9287C295.275 69.6398 294.819 69.4994 294.36 69.537C293.902 69.5747 293.475 69.7875 293.172 70.1305C292.868 70.4736 292.71 70.9202 292.732 71.3761C292.754 71.8321 292.954 72.2618 293.289 72.5747L293.385 72.6536C293.712 72.9254 293.926 73.3073 293.987 73.7261C294.018 73.8937 294.084 74.0528 294.181 74.1935C294.278 74.3341 294.404 74.4531 294.55 74.5428C294.696 74.6325 294.859 74.691 295.029 74.7144C295.2 74.7379 295.373 74.7258 295.538 74.6789C295.875 74.5769 296.234 74.5769 296.571 74.6789C296.747 74.738 296.935 74.7567 297.12 74.7336C297.305 74.7105 297.482 74.6462 297.639 74.5455C297.789 74.4491 297.916 74.3211 298.011 74.1705C298.106 74.02 298.166 73.8506 298.188 73.6744C298.231 73.2572 298.426 72.87 298.737 72.5856L298.828 72.5012C299.081 72.2446 299.249 71.918 299.31 71.5646C299.371 71.2112 299.323 70.8476 299.171 70.5221Z" fill="#FC7459"/>
<path d="M295.398 70.2499C295.372 70.2756 295.356 70.3085 295.35 70.3441C295.344 70.3797 295.349 70.4162 295.365 70.4486C295.434 70.5715 295.535 70.6734 295.657 70.7433C295.78 70.8132 295.92 70.8484 296.062 70.845C296.203 70.8417 296.341 70.7999 296.46 70.7242C296.58 70.6486 296.676 70.542 296.738 70.416C296.757 70.3746 296.763 70.3282 296.755 70.2834C296.747 70.2385 296.724 70.1973 296.691 70.1655C296.67 70.1458 296.644 70.1307 296.616 70.1213C296.588 70.1119 296.559 70.1085 296.529 70.1111C296.414 70.1274 296.271 70.2581 296.181 70.2907C296.078 70.3152 295.971 70.3152 295.868 70.2907C295.793 70.2717 295.675 70.1764 295.593 70.171C295.557 70.1678 295.52 70.1734 295.486 70.1871C295.452 70.2008 295.422 70.2223 295.398 70.2499Z" fill="#CE422C"/>
<path d="M295.947 70.8161C295.947 70.8161 295.947 69.4142 295.632 68.6792C295.734 68.6069 295.855 68.566 295.981 68.5617C296.106 68.5573 296.23 68.5897 296.337 68.6547C296.337 68.6547 296.03 70.1464 296.153 70.8161H295.947Z" fill="#8E4539"/>
<path d="M291.142 93.5191C290.837 92.3077 290.76 89.8713 293.811 87.337C293.917 87.2495 294.045 87.1918 294.181 87.1701C294.317 87.1484 294.457 87.1633 294.585 87.2134C294.713 87.2635 294.826 87.3469 294.91 87.4549C294.995 87.5628 295.049 87.6913 295.066 87.827C295.288 89.5692 295.206 92.6643 292.191 94.0227C292.09 94.0677 291.979 94.0903 291.868 94.0887C291.757 94.0871 291.648 94.0614 291.548 94.0134C291.448 93.9654 291.36 93.8962 291.29 93.8108C291.22 93.7254 291.169 93.6258 291.142 93.5191Z" fill="#0E803C"/>
<path d="M305.792 109.37C305.487 108.162 305.41 105.723 308.461 103.188C308.567 103.101 308.695 103.043 308.831 103.021C308.967 103 309.106 103.015 309.235 103.065C309.363 103.115 309.475 103.198 309.56 103.306C309.645 103.414 309.698 103.543 309.716 103.678C309.938 105.42 309.856 108.516 306.841 109.874C306.739 109.919 306.629 109.942 306.518 109.94C306.407 109.938 306.298 109.913 306.198 109.865C306.098 109.817 306.01 109.748 305.939 109.662C305.869 109.577 305.819 109.477 305.792 109.37Z" fill="#0E803C"/>
<path d="M290.922 121.217C289.703 120.912 287.501 119.824 286.693 115.961C286.666 115.828 286.675 115.691 286.72 115.563C286.764 115.435 286.842 115.322 286.946 115.234C287.049 115.146 287.175 115.087 287.309 115.063C287.443 115.039 287.581 115.051 287.709 115.098C289.357 115.727 292.073 117.262 291.856 120.542C291.847 120.651 291.814 120.756 291.761 120.85C291.707 120.945 291.633 121.028 291.545 121.092C291.456 121.156 291.355 121.2 291.247 121.222C291.14 121.243 291.029 121.242 290.922 121.217Z" fill="#0E803C"/>
<path d="M309.526 74.8558C308.389 74.3113 306.443 72.8332 306.404 68.8887C306.403 68.7516 306.439 68.6168 306.508 68.4983C306.578 68.3798 306.679 68.2821 306.799 68.2155C306.92 68.1489 307.057 68.1158 307.195 68.1198C307.334 68.1238 307.468 68.1647 307.585 68.2381C309.081 69.1718 311.429 71.1999 310.586 74.3739C310.556 74.4799 310.504 74.5782 310.432 74.662C310.36 74.7457 310.27 74.8128 310.169 74.8587C310.068 74.9046 309.958 74.9281 309.847 74.9276C309.736 74.9271 309.627 74.9025 309.526 74.8558Z" fill="#0E803C"/>
</g>
<g clip-path="url(#clip3)">
<path d="M332.113 123.96C332.113 123.96 307.016 121.655 309.125 97.913C311.234 74.1712 324.605 70.6048 324.605 55.1702C324.605 39.7356 318.339 39.9049 319.445 31.2946C320.604 22.3075 336.57 19.0769 342.9 48.5834C349.229 78.09 367.296 79.4718 360.494 103.921C353.692 128.37 332.113 123.96 332.113 123.96Z" fill="#0E803C"/>
<path d="M333.352 110.775C333.308 104.601 333.383 102.785 333.416 97.8419C328.4 94.4994 326.469 87.8389 325.733 83.7099C325.68 83.4041 326.147 83.273 326.236 83.5706C328.231 90.2011 332.007 93.0985 333.46 93.9997C333.685 73.5758 334.419 61.7295 334.791 67.3851C335.047 71.2656 335.255 88.4124 336.52 106.018C345.689 103.456 347.57 98.257 349.149 95.0947C349.176 95.0427 349.222 95.0022 349.277 94.9809C349.333 94.9596 349.394 94.9589 349.45 94.979C349.506 94.9992 349.553 95.0387 349.581 95.0901C349.609 95.1416 349.618 95.2015 349.604 95.2586C346.751 107.288 339.776 110.215 336.823 112.121C337.334 118.421 337.992 124.282 338.843 128.826C341.038 140.544 341.746 145.992 341.746 145.992L333.452 145.924C333.452 145.924 333.588 145.956 333.352 110.775Z" fill="#F4F4F4"/>
<path d="M359.18 98.3281C359.148 98.0501 359.049 97.7836 358.892 97.5504C358.735 97.3172 358.524 97.124 358.276 96.9867C358.028 96.8494 357.75 96.7719 357.466 96.7606C357.181 96.7493 356.898 96.8045 356.64 96.9217C356.53 96.9757 356.403 96.9859 356.286 96.9503C356.168 96.9147 356.069 96.836 356.009 96.7305L355.97 96.665C355.722 96.2773 355.331 95.9994 354.878 95.8899C354.426 95.7804 353.948 95.8478 353.545 96.078C353.142 96.3082 352.846 96.6832 352.719 97.1238C352.592 97.5644 352.644 98.0364 352.864 98.44C352.886 98.4755 352.905 98.511 352.93 98.5465C353.155 98.9077 353.236 99.3374 353.158 99.7536C353.133 99.923 353.145 100.096 353.192 100.261C353.239 100.425 353.32 100.579 353.431 100.711C353.542 100.843 353.68 100.95 353.836 101.027C353.992 101.103 354.162 101.147 354.336 101.154C354.693 101.159 355.04 101.269 355.331 101.471C355.479 101.581 355.649 101.657 355.83 101.694C356.011 101.731 356.198 101.728 356.378 101.686C356.558 101.644 356.726 101.563 356.87 101.449C357.014 101.336 357.131 101.192 357.212 101.029C357.384 100.641 357.696 100.33 358.088 100.155L358.204 100.103C358.531 99.9398 358.8 99.6824 358.974 99.3653C359.148 99.0481 359.22 98.6863 359.18 98.3281Z" fill="#FFAAA1"/>
<path d="M355.643 96.8725C355.609 96.8879 355.582 96.9135 355.564 96.9455C355.547 96.9774 355.54 97.0141 355.545 97.05C355.573 97.1863 355.637 97.3128 355.731 97.4161C355.826 97.5194 355.947 97.5956 356.082 97.6368C356.217 97.6779 356.361 97.6824 356.498 97.6498C356.636 97.6172 356.761 97.5486 356.862 97.4514C356.894 97.4178 356.915 97.3755 356.921 97.33C356.928 97.2846 356.92 97.2383 356.899 97.1975C356.884 97.172 356.864 97.1498 356.84 97.1323C356.816 97.1149 356.789 97.1027 356.76 97.0964C356.646 97.0746 356.482 97.1538 356.368 97.1565C356.261 97.1481 356.157 97.1154 356.065 97.0609C356.001 97.0172 355.92 96.8916 355.837 96.8561C355.805 96.8449 355.772 96.8405 355.738 96.8434C355.704 96.8462 355.672 96.8561 355.643 96.8725Z" fill="#FF8980"/>
<path d="M355.976 97.588C355.976 97.588 356.426 96.2526 356.368 95.4552C356.49 95.4191 356.62 95.4191 356.742 95.455C356.864 95.4909 356.972 95.5613 357.054 95.6573C357.054 95.6573 356.273 96.979 356.176 97.6535L355.976 97.588Z" fill="#8E4539"/>
<path d="M326.761 109.049C326.588 108.828 326.363 108.65 326.106 108.53C325.848 108.41 325.566 108.353 325.282 108.361C324.997 108.37 324.719 108.445 324.47 108.581C324.221 108.716 324.008 108.907 323.849 109.139C323.784 109.241 323.681 109.315 323.562 109.344C323.443 109.374 323.317 109.357 323.21 109.298C323.188 109.283 323.165 109.271 323.14 109.26C322.722 109.035 322.231 108.984 321.774 109.116C321.317 109.248 320.932 109.553 320.704 109.964C320.475 110.375 320.423 110.858 320.557 111.308C320.692 111.757 321.002 112.135 321.42 112.359C321.456 112.38 321.493 112.399 321.532 112.416C321.914 112.612 322.211 112.938 322.365 113.334C322.435 113.499 322.541 113.647 322.675 113.766C322.81 113.886 322.97 113.976 323.143 114.028C323.303 114.076 323.47 114.092 323.637 114.076C323.803 114.059 323.964 114.011 324.11 113.932C324.417 113.754 324.772 113.672 325.127 113.697C325.315 113.716 325.504 113.693 325.682 113.63C325.859 113.567 326.02 113.466 326.153 113.334C326.28 113.207 326.377 113.055 326.438 112.888C326.499 112.72 326.522 112.542 326.505 112.365C326.447 111.946 326.546 111.521 326.783 111.168C326.808 111.136 326.833 111.1 326.856 111.065C327.051 110.759 327.146 110.403 327.129 110.042C327.112 109.682 326.984 109.336 326.761 109.049Z" fill="#FFAAA1"/>
<path d="M322.968 109.606C322.947 109.635 322.936 109.67 322.936 109.706C322.936 109.742 322.947 109.777 322.968 109.806C323.064 109.909 323.185 109.984 323.321 110.025C323.456 110.065 323.6 110.069 323.738 110.035C323.875 110.002 324.001 109.932 324.101 109.834C324.201 109.736 324.273 109.613 324.308 109.478C324.317 109.433 324.312 109.387 324.294 109.345C324.275 109.303 324.244 109.267 324.205 109.243C324.179 109.229 324.15 109.22 324.121 109.217C324.091 109.214 324.061 109.218 324.033 109.227C323.921 109.265 323.81 109.426 323.727 109.478C323.632 109.526 323.526 109.551 323.419 109.549C323.344 109.549 323.207 109.478 323.116 109.492C323.085 109.5 323.055 109.514 323.03 109.534C323.005 109.554 322.984 109.578 322.968 109.606Z" fill="#FF8980"/>
<path d="M323.633 110.046C323.633 110.046 323.316 108.681 322.843 108.023C322.928 107.93 323.039 107.863 323.162 107.832C323.286 107.801 323.415 107.807 323.535 107.848C323.535 107.848 323.566 109.374 323.835 110L323.633 110.046Z" fill="#8E4539"/>
<path d="M323.207 87.0743C323.145 86.8014 323.017 86.5469 322.835 86.332C322.653 86.117 322.421 85.9476 322.159 85.8378C321.897 85.7279 321.613 85.6807 321.329 85.7001C321.045 85.7195 320.77 85.8048 320.526 85.9492C320.422 86.0132 320.297 86.0361 320.176 86.0133C320.055 85.9905 319.948 85.9237 319.876 85.8263L319.831 85.7635C319.691 85.577 319.515 85.4195 319.313 85.2999C319.111 85.1803 318.887 85.101 318.653 85.0665C318.182 84.9969 317.702 85.114 317.319 85.3921C316.936 85.6702 316.681 86.0866 316.61 86.5495C316.539 87.0125 316.658 87.4842 316.941 87.8608C316.966 87.8963 316.991 87.929 317.019 87.9618C317.282 88.2973 317.41 88.7164 317.377 89.1388C317.372 89.3098 317.403 89.48 317.469 89.6385C317.534 89.797 317.632 89.9404 317.757 90.0594C317.882 90.1784 318.031 90.2705 318.195 90.3297C318.358 90.3888 318.532 90.4139 318.706 90.4032C319.06 90.3676 319.417 90.4401 319.728 90.6107C319.89 90.7057 320.072 90.7636 320.26 90.7802C320.448 90.7967 320.638 90.7715 320.815 90.7063C320.984 90.6436 321.138 90.5451 321.265 90.4177C321.392 90.2903 321.488 90.1371 321.548 89.969C321.678 89.5654 321.954 89.2225 322.323 89.005C322.362 88.9859 322.399 88.964 322.435 88.9422C322.741 88.7446 322.979 88.4601 323.117 88.1265C323.255 87.7929 323.286 87.4259 323.207 87.0743Z" fill="#FFAAA1"/>
<path d="M319.531 86.0092C319.5 86.0283 319.476 86.0564 319.462 86.0898C319.448 86.1231 319.445 86.1599 319.453 86.1949C319.496 86.3274 319.574 86.4462 319.68 86.5387C319.785 86.6312 319.914 86.6941 320.053 86.7206C320.192 86.7472 320.335 86.7365 320.468 86.6896C320.601 86.6427 320.719 86.5615 320.809 86.4543C320.836 86.4162 320.85 86.3709 320.85 86.3246C320.85 86.2783 320.836 86.2331 320.809 86.1949C320.792 86.1713 320.77 86.1515 320.745 86.1369C320.72 86.1223 320.691 86.1132 320.662 86.1103C320.545 86.1103 320.384 86.1976 320.279 86.2113C320.171 86.2153 320.064 86.1938 319.967 86.1485C319.898 86.113 319.803 85.9956 319.717 85.971C319.685 85.964 319.652 85.9638 319.62 85.9704C319.588 85.977 319.558 85.9902 319.531 86.0092Z" fill="#FF8980"/>
<path d="M319.942 86.6838C319.942 86.6838 320.243 85.3184 320.095 84.521C320.212 84.4722 320.341 84.4583 320.466 84.4812C320.591 84.504 320.707 84.5625 320.798 84.6494C320.798 84.6494 320.17 86.0475 320.148 86.7275L319.942 86.6838Z" fill="#8E4539"/>
<path d="M349.366 79.7857C349.189 79.5662 348.962 79.391 348.703 79.2749C348.443 79.1587 348.16 79.1048 347.875 79.1176C347.591 79.1304 347.314 79.2095 347.066 79.3485C346.819 79.4875 346.609 79.6823 346.454 79.9168C346.389 80.0189 346.287 80.093 346.169 80.124C346.051 80.1549 345.925 80.1404 345.817 80.0834L345.748 80.0479C345.33 79.8622 344.856 79.8405 344.422 79.9872C343.988 80.1339 343.628 80.438 343.415 80.8372C343.202 81.2363 343.152 81.7004 343.276 82.1345C343.4 82.5685 343.688 82.9397 344.081 83.1719L344.195 83.2266C344.575 83.4192 344.872 83.7415 345.028 84.1332C345.098 84.2897 345.201 84.43 345.33 84.5451C345.459 84.6602 345.611 84.7474 345.776 84.8012C345.941 84.855 346.116 84.8741 346.289 84.8573C346.462 84.8406 346.63 84.7883 346.781 84.7039C347.086 84.5225 347.44 84.4359 347.796 84.4554C347.983 84.4719 348.173 84.4466 348.349 84.3813C348.526 84.3161 348.685 84.2126 348.815 84.0786C348.941 83.9497 349.036 83.7954 349.094 83.6265C349.152 83.4576 349.172 83.2782 349.152 83.1009C349.09 82.6813 349.189 82.254 349.429 81.9021C349.454 81.8693 349.477 81.8338 349.499 81.7983C349.687 81.4892 349.775 81.1311 349.751 80.7716C349.728 80.4121 349.593 80.0683 349.366 79.7857Z" fill="#FFAAA1"/>
<path d="M345.581 80.3947C345.56 80.4238 345.548 80.4587 345.548 80.4944C345.548 80.5301 345.56 80.565 345.581 80.5941C345.677 80.6955 345.8 80.7694 345.936 80.808C346.071 80.8465 346.215 80.8482 346.352 80.813C346.489 80.7777 346.613 80.7067 346.712 80.6076C346.811 80.5085 346.881 80.3849 346.914 80.25C346.924 80.2046 346.918 80.1576 346.899 80.1154C346.879 80.0733 346.847 80.0382 346.806 80.0151C346.78 80.0009 346.751 79.9923 346.721 79.9899C346.692 79.9876 346.662 79.9915 346.634 80.0015C346.525 80.0424 346.417 80.2036 346.334 80.2582C346.239 80.3059 346.134 80.3311 346.028 80.3319C345.95 80.3319 345.814 80.2636 345.722 80.28C345.692 80.2886 345.664 80.3032 345.639 80.3229C345.615 80.3426 345.595 80.3671 345.581 80.3947Z" fill="#FF8980"/>
<path d="M346.251 80.8262C346.251 80.8262 345.912 79.4608 345.431 78.8135C345.515 78.7196 345.626 78.652 345.749 78.619C345.872 78.586 346.002 78.5891 346.123 78.6279C346.123 78.6279 346.173 80.1544 346.454 80.777L346.251 80.8262Z" fill="#8E4539"/>
<path d="M334.803 61.2682C334.783 60.9906 334.696 60.7216 334.551 60.483C334.405 60.2444 334.204 60.0431 333.964 59.8954C333.724 59.7476 333.452 59.6577 333.17 59.6329C332.888 59.6081 332.604 59.6491 332.341 59.7526C332.228 59.8013 332.101 59.8058 331.985 59.7651C331.87 59.7245 331.774 59.6418 331.718 59.5341C331.718 59.5123 331.696 59.4877 331.682 59.4658C331.449 59.0729 331.071 58.7835 330.626 58.6578C330.182 58.532 329.705 58.5796 329.295 58.7907C328.885 59.0018 328.574 59.3601 328.426 59.791C328.278 60.222 328.305 60.6924 328.501 61.1043C328.52 61.1398 328.54 61.1781 328.562 61.2136C328.77 61.5836 328.833 62.0163 328.737 62.4288C328.704 62.5968 328.707 62.7697 328.747 62.9364C328.786 63.103 328.86 63.2597 328.965 63.3964C329.07 63.533 329.202 63.6466 329.355 63.7297C329.507 63.8128 329.675 63.8636 329.848 63.8788C330.204 63.8989 330.544 64.0236 330.826 64.2366C330.972 64.3555 331.142 64.4405 331.326 64.4855C331.509 64.5304 331.7 64.534 331.885 64.496C332.062 64.4588 332.228 64.384 332.372 64.2769C332.516 64.1698 332.634 64.033 332.719 63.8761C332.911 63.4975 333.237 63.2005 333.636 63.0405L333.755 62.9941C334.087 62.8441 334.364 62.5989 334.551 62.2908C334.738 61.9827 334.826 61.6262 334.803 61.2682Z" fill="#FFAAA1"/>
<path d="M331.332 59.6596C331.298 59.6744 331.27 59.6993 331.252 59.7306C331.233 59.762 331.225 59.7984 331.229 59.8344C331.251 59.9715 331.309 60.1004 331.399 60.2074C331.489 60.3144 331.607 60.3956 331.74 60.4423C331.873 60.489 332.016 60.4996 332.155 60.4728C332.293 60.4461 332.422 60.3831 332.527 60.2905C332.559 60.2581 332.581 60.2168 332.59 60.172C332.598 60.1272 332.593 60.0809 332.574 60.0392C332.561 60.0131 332.542 59.9899 332.519 59.9711C332.496 59.9523 332.469 59.9383 332.441 59.93C332.307 59.933 332.174 59.9476 332.043 59.9737C331.938 59.9608 331.837 59.9233 331.749 59.8645C331.685 59.8208 331.61 59.6897 331.529 59.6514C331.498 59.6393 331.464 59.6337 331.43 59.6351C331.396 59.6365 331.363 59.6449 331.332 59.6596Z" fill="#FF8980"/>
<path d="M331.635 60.3888C331.635 60.3888 332.143 59.0752 332.121 58.2751C332.244 58.2447 332.374 58.2504 332.494 58.2917C332.614 58.333 332.719 58.4079 332.796 58.5072C332.796 58.5072 331.963 59.7934 331.829 60.4625L331.635 60.3888Z" fill="#8E4539"/>
<path d="M336.722 43.5478C336.541 43.3321 336.31 43.1617 336.049 43.0507C335.788 42.9398 335.504 42.8913 335.219 42.9095C334.935 42.9276 334.66 43.0118 334.415 43.155C334.171 43.2983 333.964 43.4965 333.813 43.7335C333.75 43.837 333.649 43.913 333.531 43.9459C333.413 43.9789 333.286 43.9664 333.177 43.911L333.107 43.8755C332.681 43.6669 332.188 43.6333 331.736 43.7821C331.285 43.9309 330.912 44.2498 330.7 44.6688C330.487 45.0878 330.453 45.5725 330.605 46.0162C330.756 46.46 331.081 46.8265 331.507 47.0351C331.543 47.056 331.582 47.0743 331.621 47.0897C332.01 47.2711 332.317 47.5884 332.482 47.9799C332.559 48.1414 332.671 48.2846 332.809 48.3996C332.948 48.5146 333.11 48.5988 333.285 48.6463C333.446 48.6897 333.614 48.7007 333.779 48.6786C333.945 48.6566 334.103 48.6019 334.247 48.5179C334.548 48.3287 334.901 48.2335 335.258 48.2448C335.443 48.2571 335.627 48.2291 335.8 48.1629C335.972 48.0967 336.127 47.9939 336.254 47.8618C336.381 47.7297 336.476 47.5717 336.534 47.399C336.591 47.2263 336.609 47.0433 336.586 46.863C336.515 46.4454 336.603 46.0166 336.834 45.6587C336.859 45.626 336.881 45.5905 336.903 45.555C337.083 45.2417 337.162 44.8822 337.13 44.5238C337.098 44.1654 336.956 43.8251 336.722 43.5478Z" fill="#FFAAA1"/>
<path d="M332.952 44.2306C332.933 44.2612 332.924 44.2971 332.927 44.3329C332.93 44.3687 332.945 44.4027 332.969 44.4299C333.068 44.5261 333.192 44.5946 333.327 44.6285C333.462 44.6623 333.604 44.6602 333.738 44.6224C333.872 44.5846 333.993 44.5125 334.089 44.4134C334.186 44.3143 334.254 44.1918 334.286 44.0585C334.293 44.013 334.287 43.9663 334.266 43.9247C334.246 43.8832 334.213 43.8488 334.172 43.8264C334.145 43.8147 334.115 43.8086 334.086 43.8086C334.056 43.8086 334.027 43.8147 334 43.8264C333.891 43.8701 333.786 44.0312 333.705 44.0995C333.611 44.1493 333.506 44.1764 333.399 44.1787C333.322 44.1787 333.183 44.1159 333.094 44.1322C333.036 44.1464 332.985 44.1815 332.952 44.2306Z" fill="#FF8980"/>
<path d="M333.63 44.6619C333.63 44.6619 333.263 43.2965 332.771 42.6657C332.851 42.5688 332.958 42.4969 333.079 42.4591C333.2 42.4212 333.33 42.419 333.452 42.4527C333.452 42.4527 333.533 43.9792 333.825 44.5964L333.63 44.6619Z" fill="#8E4539"/>
<path d="M327.061 78.7016C325.95 78.1172 324.035 76.5415 324.169 72.5873C324.173 72.4491 324.215 72.3147 324.29 72.1982C324.366 72.0816 324.472 71.9874 324.598 71.9255C324.723 71.8636 324.864 71.8363 325.004 71.8466C325.144 71.8568 325.279 71.9042 325.394 71.9837C326.867 72.986 329.165 75.1215 328.173 78.2646C328.138 78.3721 328.08 78.4707 328.002 78.5534C327.924 78.636 327.829 78.7006 327.722 78.7424C327.616 78.7842 327.501 78.8023 327.387 78.7952C327.273 78.7881 327.161 78.7562 327.061 78.7016Z" fill="#0D562A"/>
<path d="M327.111 37.4635C326.619 36.3111 326.164 33.9134 328.82 30.9314C328.912 30.8286 329.031 30.7522 329.164 30.71C329.297 30.6678 329.438 30.6614 329.574 30.6916C329.71 30.7217 329.836 30.7873 329.937 30.8813C330.039 30.9754 330.113 31.0946 330.151 31.2263C330.646 32.9194 331.043 35.9998 328.239 37.8049C328.145 37.8646 328.038 37.9032 327.927 37.9182C327.815 37.9332 327.702 37.9241 327.595 37.8916C327.487 37.8591 327.388 37.804 327.305 37.73C327.221 37.6561 327.155 37.5651 327.111 37.4635Z" fill="#0D562A"/>
<path d="M345.145 116.188C344.947 114.953 345.097 112.512 348.404 110.254C348.519 110.176 348.653 110.129 348.793 110.12C348.932 110.11 349.071 110.138 349.196 110.2C349.321 110.261 349.426 110.355 349.502 110.471C349.577 110.586 349.619 110.72 349.624 110.857C349.688 112.616 349.318 115.699 346.156 116.788C346.049 116.824 345.936 116.836 345.824 116.824C345.712 116.812 345.605 116.777 345.508 116.719C345.412 116.662 345.329 116.585 345.267 116.493C345.204 116.401 345.162 116.297 345.145 116.188Z" fill="#0D562A"/>
<path d="M318.211 102.61C317.869 101.406 317.728 98.9643 320.745 96.3427C320.85 96.2527 320.978 96.1921 321.115 96.1671C321.252 96.1421 321.394 96.1536 321.525 96.2004C321.656 96.2472 321.772 96.3276 321.86 96.4333C321.949 96.539 322.007 96.6661 322.029 96.8014C322.307 98.541 322.307 101.646 319.287 103.082C319.185 103.13 319.075 103.155 318.963 103.157C318.851 103.158 318.74 103.136 318.638 103.091C318.535 103.046 318.444 102.979 318.37 102.896C318.297 102.813 318.242 102.716 318.211 102.61Z" fill="#0D562A"/>
<path d="M341.427 70.2443C340.538 69.354 339.204 67.2813 340.565 63.5538C340.613 63.4249 340.694 63.3109 340.802 63.2237C340.909 63.1365 341.039 63.0793 341.177 63.058C341.314 63.0368 341.455 63.0524 341.585 63.1031C341.714 63.1538 341.828 63.2378 341.913 63.3462C343.008 64.7389 344.533 67.4588 342.605 70.1542C342.539 70.2441 342.454 70.3188 342.356 70.3731C342.258 70.4274 342.149 70.46 342.037 70.4686C341.925 70.4771 341.812 70.4615 341.707 70.4228C341.601 70.384 341.506 70.3231 341.427 70.2443Z" fill="#0D562A"/>
</g>
</g>
<defs>
<clipPath id="clip0">
<rect width="375" height="140" fill="white"/>
</clipPath>
<clipPath id="clip1">
<rect width="88" height="77" fill="white" transform="translate(159 65)"/>
</clipPath>
<clipPath id="clip2">
<rect width="42" height="88" fill="white" transform="translate(277 58)"/>
</clipPath>
<clipPath id="clip3">
<rect width="53" height="121" fill="white" transform="translate(309 25)"/>
</clipPath>
</defs>
</svg>
