<svg width="375" height="140" viewBox="0 0 375 140" fill="none" xmlns="http://www.w3.org/2000/svg">
<g clip-path="url(#clip0)">
<path d="M114 0H429V140H114V0Z" fill="#4BA36F"/>
<path d="M114 32C114 14.3269 128.327 0 146 0H397C414.673 0 429 14.3269 429 32V140H114V32Z" fill="#007F36"/>
<g clip-path="url(#clip1)">
<path d="M320.128 140H338.438C338.438 140 346.796 130.157 349.981 124.252C353.165 118.347 356.753 110.824 343.972 118.293C343.972 118.293 348.038 114.845 349.636 110.107C351.233 105.368 349.781 103.067 342.665 107.951C342.665 107.951 347.022 101.194 345.86 98.0403C344.699 94.8868 337.001 98.9066 332.936 104.073C332.936 104.073 332.79 90.8583 324.656 91.0021C316.523 91.146 317.395 107.951 318.7 110.25C318.7 110.25 314.78 107.09 312.31 109.531C309.84 111.973 306.304 120.839 320.128 140Z" fill="#3CA064"/>
<path d="M327.59 101.311C327.59 101.311 326.642 100.486 325.817 100.767C325.155 100.992 325.199 101.257 325.136 101.341C325.136 101.341 325.12 101.341 325.113 101.341C324.982 101.322 324.708 101.079 324.186 101.349C323.814 101.574 323.517 101.903 323.331 102.294C323.273 102.407 323.201 102.513 323.118 102.609C322.592 103.233 322.37 103.967 322.592 104.636C322.998 105.88 324.766 106.428 326.537 105.859C328.308 105.291 329.412 103.822 329.004 102.585C328.804 101.978 328.28 101.538 327.59 101.311Z" fill="#F38625"/>
<path d="M324.535 101.662C325.034 101.502 325.373 101.173 325.292 100.926C325.211 100.679 324.741 100.609 324.243 100.769C323.744 100.929 323.405 101.259 323.486 101.505C323.567 101.752 324.037 101.822 324.535 101.662Z" fill="#3B6608"/>
<path d="M325.832 101.246C326.33 101.086 326.669 100.756 326.588 100.509C326.508 100.263 326.038 100.192 325.539 100.352C325.04 100.512 324.701 100.842 324.782 101.088C324.863 101.335 325.333 101.406 325.832 101.246Z" fill="#3B6608"/>
<path d="M325.129 101.23C325.277 101.182 325.299 100.844 325.178 100.474C325.056 100.105 324.838 99.8437 324.69 99.8912C324.542 99.9388 324.52 100.277 324.641 100.646C324.762 101.016 324.98 101.277 325.129 101.23Z" fill="#3B6608"/>
<path d="M323.65 120.187C323.65 120.187 322.697 119.362 321.877 119.643C321.215 119.868 321.259 120.133 321.198 120.216C321.19 120.219 321.181 120.219 321.173 120.216C321.042 120.197 320.768 119.955 320.246 120.225C319.874 120.45 319.577 120.779 319.391 121.169C319.333 121.281 319.261 121.386 319.178 121.481C318.652 122.107 318.43 122.84 318.652 123.51C319.059 124.754 320.826 125.3 322.597 124.734C324.368 124.167 325.472 122.708 325.066 121.46C324.864 120.852 324.34 120.414 323.65 120.187Z" fill="#F38625"/>
<path d="M320.599 120.537C321.097 120.377 321.436 120.047 321.355 119.801C321.275 119.554 320.805 119.484 320.306 119.644C319.807 119.803 319.468 120.133 319.549 120.38C319.63 120.626 320.1 120.697 320.599 120.537Z" fill="#3B6608"/>
<path d="M321.893 120.123C322.392 119.963 322.731 119.633 322.65 119.386C322.569 119.14 322.099 119.069 321.6 119.229C321.102 119.389 320.763 119.719 320.844 119.965C320.924 120.212 321.394 120.282 321.893 120.123Z" fill="#3B6608"/>
<path d="M321.19 120.105C321.338 120.057 321.36 119.719 321.239 119.349C321.118 118.98 320.9 118.719 320.751 118.766C320.603 118.814 320.581 119.152 320.702 119.522C320.823 119.891 321.042 120.152 321.19 120.105Z" fill="#3B6608"/>
<path d="M342.242 115.467C342.242 115.467 342.156 114.216 341.377 113.84C340.748 113.537 340.59 113.757 340.487 113.771C340.482 113.771 340.478 113.77 340.474 113.768C340.47 113.766 340.466 113.762 340.464 113.759C340.385 113.655 340.366 113.291 339.804 113.118C339.379 113.017 338.934 113.041 338.523 113.187C338.401 113.225 338.275 113.25 338.148 113.26C337.33 113.332 336.649 113.696 336.324 114.323C335.724 115.486 336.582 117.11 338.239 117.947C339.896 118.783 341.731 118.52 342.331 117.356C342.624 116.789 342.568 116.11 342.242 115.467Z" fill="#F38625"/>
<path d="M340.893 113.589C341.012 113.358 340.73 112.98 340.263 112.744C339.796 112.508 339.321 112.504 339.202 112.735C339.083 112.966 339.365 113.345 339.832 113.581C340.299 113.816 340.774 113.82 340.893 113.589Z" fill="#3B6608"/>
<path d="M342.106 114.201C342.225 113.97 341.943 113.592 341.476 113.356C341.009 113.12 340.533 113.116 340.414 113.347C340.295 113.578 340.577 113.957 341.044 114.192C341.511 114.428 341.986 114.432 342.106 114.201Z" fill="#3B6608"/>
<path d="M341.135 113.188C341.314 112.842 341.346 112.505 341.207 112.435C341.068 112.365 340.811 112.589 340.633 112.935C340.454 113.281 340.422 113.618 340.56 113.688C340.699 113.758 340.956 113.534 341.135 113.188Z" fill="#3B6608"/>
<path d="M336.277 130.701C336.277 130.701 336.191 129.451 335.412 129.075C334.783 128.772 334.625 128.991 334.522 129.004C334.518 129.005 334.513 129.004 334.509 129.002C334.505 129 334.502 128.997 334.499 128.994C334.42 128.888 334.401 128.526 333.839 128.353C333.414 128.25 332.969 128.275 332.558 128.422C332.436 128.46 332.311 128.484 332.183 128.493C331.365 128.566 330.682 128.93 330.36 129.557C329.759 130.722 330.615 132.343 332.274 133.182C333.933 134.021 335.766 133.754 336.367 132.589C336.664 132.021 336.608 131.344 336.277 130.701Z" fill="#F38625"/>
<path d="M334.934 128.823C335.053 128.592 334.771 128.214 334.304 127.978C333.837 127.742 333.362 127.738 333.243 127.969C333.124 128.2 333.406 128.579 333.873 128.814C334.34 129.05 334.815 129.054 334.934 128.823Z" fill="#3B6608"/>
<path d="M336.147 129.435C336.266 129.204 335.984 128.826 335.517 128.59C335.05 128.354 334.574 128.35 334.455 128.581C334.336 128.812 334.618 129.19 335.085 129.426C335.552 129.662 336.027 129.666 336.147 129.435Z" fill="#3B6608"/>
<path d="M335.174 128.421C335.353 128.075 335.385 127.738 335.246 127.668C335.108 127.598 334.85 127.822 334.672 128.168C334.493 128.514 334.461 128.851 334.6 128.921C334.738 128.991 334.996 128.767 335.174 128.421Z" fill="#3B6608"/>
<path d="M316.517 116.47H316.529C317.258 116.406 317.818 115.951 317.776 115.441C317.771 115.362 317.75 115.286 317.717 115.214C317.676 115.124 317.654 115.027 317.654 114.928C317.654 114.83 317.676 114.732 317.717 114.642C317.757 114.544 317.774 114.438 317.766 114.332C317.739 114.005 317.468 113.736 317.079 113.601C316.989 113.577 316.908 113.527 316.846 113.458C316.784 113.389 316.743 113.304 316.729 113.213C316.687 112.693 316.028 112.326 315.283 112.397C314.583 112.461 314.043 112.889 314.043 113.372C314.042 113.38 314.042 113.388 314.043 113.397C314.037 113.506 314.003 113.613 313.944 113.706C313.884 113.799 313.801 113.875 313.703 113.927C313.564 114.002 313.447 114.113 313.367 114.249C313.286 114.384 313.245 114.539 313.246 114.696C313.262 114.827 313.309 114.953 313.384 115.062C313.46 115.172 313.561 115.261 313.679 115.323C313.779 115.368 313.86 115.447 313.907 115.545C313.953 115.644 313.963 115.756 313.933 115.86C313.899 115.957 313.888 116.059 313.901 116.16C313.966 116.642 314.567 116.988 315.268 116.949C315.64 116.936 315.998 116.801 316.284 116.564C316.349 116.508 316.431 116.475 316.517 116.47Z" fill="#007F36"/>
<path d="M330.372 117.683H330.382C331.113 117.628 331.679 117.163 331.642 116.668C331.637 116.589 331.618 116.513 331.586 116.441C331.545 116.351 331.523 116.254 331.523 116.155C331.523 116.056 331.545 115.959 331.586 115.869C331.627 115.771 331.645 115.665 331.638 115.559C331.616 115.231 331.348 114.959 330.96 114.821C330.87 114.796 330.789 114.746 330.727 114.676C330.664 114.607 330.624 114.521 330.61 114.429C330.575 113.909 329.929 113.535 329.175 113.597C328.475 113.655 327.93 114.077 327.924 114.559V114.585C327.916 114.694 327.879 114.799 327.818 114.89C327.757 114.981 327.673 115.055 327.574 115.105C327.434 115.178 327.316 115.288 327.234 115.423C327.152 115.558 327.108 115.712 327.108 115.869C327.124 116.002 327.173 116.13 327.251 116.24C327.328 116.35 327.432 116.44 327.553 116.501C327.653 116.547 327.733 116.626 327.779 116.725C327.824 116.824 327.832 116.936 327.8 117.04C327.766 117.136 327.755 117.239 327.767 117.34C327.825 117.822 328.424 118.175 329.124 118.144C329.497 118.135 329.856 118.004 330.144 117.77C330.209 117.718 330.288 117.687 330.372 117.683Z" fill="#007F36"/>
<path d="M343.901 127.779H343.913C344.64 127.854 345.28 127.504 345.336 127.002C345.344 126.924 345.338 126.845 345.318 126.769C345.295 126.674 345.292 126.574 345.31 126.477C345.327 126.38 345.366 126.288 345.421 126.206C345.48 126.117 345.516 126.015 345.528 125.91C345.565 125.582 345.353 125.269 344.994 125.064C344.909 125.025 344.837 124.961 344.787 124.882C344.738 124.803 344.713 124.711 344.716 124.617C344.773 124.098 344.206 123.618 343.452 123.545C342.752 123.479 342.14 123.798 342.051 124.273V124.297C342.025 124.404 341.971 124.502 341.895 124.582C341.819 124.663 341.723 124.722 341.617 124.754C341.465 124.802 341.33 124.89 341.225 125.008C341.12 125.126 341.049 125.27 341.021 125.425C341.014 125.558 341.04 125.69 341.097 125.811C341.153 125.932 341.238 126.037 341.345 126.118C341.435 126.181 341.499 126.273 341.526 126.379C341.553 126.484 341.541 126.596 341.492 126.693C341.441 126.781 341.411 126.88 341.405 126.981C341.375 127.466 341.9 127.918 342.596 128.012C342.964 128.068 343.341 128.002 343.666 127.823C343.738 127.784 343.82 127.769 343.901 127.779Z" fill="#007F36"/>
<path d="M341.182 105.114V105.104C341.384 104.411 341.151 103.718 340.657 103.581C340.581 103.559 340.501 103.55 340.422 103.555C340.322 103.561 340.223 103.546 340.129 103.512C340.036 103.477 339.951 103.424 339.879 103.356C339.801 103.283 339.708 103.229 339.606 103.198C339.285 103.104 338.935 103.257 338.667 103.567C338.612 103.644 338.537 103.702 338.449 103.736C338.361 103.77 338.265 103.778 338.173 103.758C337.67 103.609 337.087 104.077 336.882 104.797C336.692 105.463 336.899 106.119 337.355 106.294H337.379C337.48 106.34 337.568 106.41 337.634 106.499C337.7 106.587 337.742 106.691 337.756 106.8C337.777 106.955 337.841 107.101 337.939 107.223C338.038 107.345 338.168 107.439 338.316 107.493C338.448 107.526 338.586 107.525 338.718 107.492C338.85 107.458 338.971 107.394 339.071 107.303C339.149 107.226 339.253 107.18 339.362 107.173C339.472 107.165 339.581 107.197 339.669 107.263C339.747 107.329 339.84 107.376 339.94 107.4C340.417 107.514 340.962 107.084 341.177 106.424C341.299 106.076 341.299 105.697 341.177 105.348C341.154 105.272 341.156 105.19 341.182 105.114Z" fill="#007F36"/>
<path d="M325.712 134.272C326.273 133.806 326.465 133.109 326.141 132.721C326.092 132.661 326.033 132.609 325.966 132.568C325.88 132.519 325.806 132.451 325.748 132.371C325.689 132.292 325.649 132.2 325.628 132.104C325.604 132.001 325.557 131.904 325.489 131.822C325.278 131.567 324.899 131.501 324.503 131.61C324.414 131.645 324.316 131.653 324.223 131.632C324.129 131.612 324.044 131.564 323.978 131.496C323.645 131.094 322.897 131.16 322.32 131.643C321.795 132.09 321.588 132.75 321.868 133.145L321.883 133.166C321.942 133.259 321.975 133.366 321.981 133.476C321.986 133.586 321.962 133.695 321.912 133.793C321.841 133.934 321.811 134.091 321.823 134.248C321.835 134.404 321.89 134.554 321.982 134.682C322.074 134.782 322.188 134.858 322.317 134.903C322.445 134.948 322.582 134.961 322.716 134.941C322.826 134.918 322.939 134.936 323.036 134.991C323.133 135.046 323.206 135.134 323.242 135.239C323.271 135.336 323.322 135.426 323.391 135.502C323.722 135.859 324.416 135.803 324.967 135.374C325.266 135.154 325.481 134.841 325.577 134.485C325.597 134.401 325.645 134.326 325.712 134.272Z" fill="#007F36"/>
</g>
<g clip-path="url(#clip2)">
<path d="M211.88 125.68C211.88 125.68 231.781 128.856 232.934 112.408C234.086 95.9596 220.244 91.0571 221.407 78.361C222.57 65.6649 220.244 59.6092 211.88 58.1636C203.517 56.7181 195.153 65.0883 196.306 74.3221C197.458 83.5558 199.19 95.6726 194.577 102.597C189.963 109.522 191.692 117.313 198.614 121.931C205.535 126.549 211.88 125.68 211.88 125.68Z" fill="#2A533B"/>
<path d="M210.241 112.174C210.215 107.989 210.215 104.222 210.241 100.873C206.899 98.5932 205.609 94.0796 205.135 91.2823C205.097 91.0758 205.403 90.9847 205.467 91.1885C206.808 95.6833 209.311 97.6438 210.271 98.2553C210.424 84.414 210.96 78.9188 211.206 82.7512C211.375 85.3822 211.542 98.738 212.381 110.675C218.905 105.15 221.626 100.816 222.677 98.679C222.694 98.6422 222.725 98.6132 222.763 98.5978C222.801 98.5824 222.843 98.5817 222.881 98.5958C222.919 98.6099 222.951 98.6379 222.97 98.6741C222.988 98.7103 222.993 98.7522 222.982 98.7917C221.082 106.942 214.525 111.788 212.56 113.081C212.903 117.35 213.34 121.322 213.9 124.401C215.364 132.345 216.444 143 216.444 143H208.335C208.335 143 210.4 136.006 210.241 112.174Z" fill="#F4F4F4"/>
<path d="M216.731 93.4009C216.552 92.6876 216.509 91.2554 218.297 89.7455C218.359 89.6939 218.434 89.66 218.513 89.6472C218.593 89.6344 218.675 89.6433 218.75 89.6729C218.825 89.7025 218.891 89.7518 218.94 89.8155C218.99 89.8792 219.021 89.9551 219.031 90.0352C219.163 91.065 219.112 92.8967 217.345 93.7013C217.286 93.7275 217.221 93.7403 217.156 93.7389C217.091 93.7376 217.027 93.7221 216.969 93.6935C216.91 93.6649 216.859 93.6239 216.818 93.5734C216.777 93.5229 216.747 93.464 216.731 93.4009Z" fill="#3CA064"/>
<path d="M223.739 109.248C223.441 108.055 223.366 105.655 226.344 103.158C226.448 103.071 226.572 103.015 226.705 102.993C226.838 102.972 226.974 102.987 227.1 103.036C227.225 103.085 227.335 103.167 227.417 103.274C227.5 103.38 227.552 103.507 227.569 103.64C227.786 105.357 227.706 108.406 224.763 109.744C224.664 109.789 224.556 109.811 224.448 109.809C224.339 109.808 224.233 109.783 224.135 109.735C224.037 109.688 223.951 109.62 223.883 109.536C223.814 109.452 223.765 109.353 223.739 109.248Z" fill="#3CA064"/>
<path d="M203.583 110.056C202.393 109.761 200.243 108.688 199.452 104.877C199.425 104.745 199.434 104.608 199.479 104.481C199.523 104.354 199.6 104.241 199.703 104.154C199.806 104.067 199.93 104.009 200.063 103.987C200.195 103.965 200.332 103.978 200.457 104.027C202.066 104.644 204.717 106.159 204.505 109.39C204.496 109.498 204.465 109.603 204.412 109.697C204.359 109.792 204.286 109.873 204.198 109.937C204.11 110 204.01 110.043 203.903 110.064C203.797 110.084 203.688 110.082 203.583 110.056Z" fill="#3CA064"/>
<path d="M202.62 119.416C202.403 118.573 202.352 116.87 204.435 115.084C204.508 115.024 204.596 114.984 204.69 114.969C204.784 114.954 204.88 114.964 204.969 114.998C205.057 115.032 205.135 115.089 205.194 115.163C205.254 115.237 205.292 115.326 205.306 115.419C205.473 116.634 205.43 118.796 203.35 119.764C203.279 119.795 203.203 119.81 203.127 119.808C203.05 119.807 202.975 119.789 202.906 119.756C202.837 119.723 202.775 119.675 202.726 119.617C202.677 119.558 202.641 119.489 202.62 119.416Z" fill="#3CA064"/>
<path d="M213.576 76.5453C213.531 75.7997 213.753 74.3569 215.809 73.1956C215.881 73.1558 215.961 73.1358 216.043 73.1378C216.125 73.1397 216.205 73.1636 216.274 73.2068C216.344 73.2501 216.4 73.3111 216.438 73.3837C216.476 73.4562 216.494 73.5376 216.49 73.6193C216.428 74.668 216.042 76.4809 214.134 76.9556C214.07 76.971 214.003 76.9722 213.938 76.9591C213.874 76.946 213.813 76.919 213.76 76.88C213.707 76.8409 213.663 76.7907 213.631 76.7329C213.599 76.6751 213.581 76.6111 213.576 76.5453Z" fill="#3CA064"/>
<path d="M208.668 69.1755C208.352 68.5023 208.017 67.0782 209.491 65.2411C209.542 65.1772 209.61 65.1282 209.687 65.0995C209.763 65.0707 209.847 65.0632 209.927 65.0778C210.008 65.0923 210.083 65.1284 210.145 65.1821C210.207 65.2359 210.253 65.3054 210.279 65.3833C210.614 66.3783 210.933 68.2046 209.338 69.3578C209.284 69.3957 209.222 69.4211 209.157 69.4324C209.091 69.4437 209.024 69.4405 208.961 69.4231C208.897 69.4058 208.837 69.3746 208.787 69.3318C208.736 69.289 208.696 69.2356 208.668 69.1755Z" fill="#3CA064"/>
<path d="M206.532 85.0496C205.422 84.5132 203.521 83.0543 203.484 79.1682C203.483 79.0335 203.518 78.9011 203.586 78.7848C203.654 78.6685 203.752 78.5725 203.869 78.507C203.987 78.4414 204.12 78.4088 204.254 78.4123C204.389 78.4159 204.52 78.4556 204.634 78.5272C206.097 79.4498 208.387 81.4478 207.566 84.5722C207.538 84.6769 207.486 84.774 207.416 84.8568C207.346 84.9396 207.258 85.006 207.16 85.0515C207.061 85.097 206.954 85.1204 206.846 85.12C206.737 85.1197 206.63 85.0956 206.532 85.0496Z" fill="#3CA064"/>
<path d="M220.012 118.879C220.109 118.12 220.61 116.707 222.908 115.929C222.987 115.902 223.072 115.898 223.154 115.916C223.236 115.933 223.312 115.973 223.374 116.03C223.435 116.087 223.48 116.159 223.505 116.24C223.529 116.32 223.531 116.405 223.511 116.487C223.243 117.533 222.511 119.289 220.495 119.399C220.428 119.402 220.36 119.39 220.298 119.364C220.236 119.339 220.18 119.3 220.134 119.25C220.088 119.201 220.053 119.142 220.032 119.078C220.011 119.014 220.005 118.946 220.012 118.879Z" fill="#3CA064"/>
</g>
<g clip-path="url(#clip3)">
<path d="M173.332 116.897C173.332 116.897 146.64 121.255 145.093 98.6791C143.547 76.1027 162.113 69.3736 160.556 51.9471C158.999 34.5206 162.113 26.2086 173.332 24.2245C184.552 22.2403 195.775 33.7292 194.225 46.4033C192.675 59.0774 190.356 75.7088 196.548 85.2135C202.74 94.7182 200.417 105.412 191.129 111.751C181.84 118.09 173.332 116.897 173.332 116.897Z" fill="#3CA064"/>
<path d="M176.411 100.671C176.449 94.9231 176.449 89.7524 176.411 85.1583C180.891 82.0478 182.621 75.8524 183.275 72.013C183.322 71.7259 182.916 71.6044 182.826 71.8805C181.028 78.0501 177.673 80.7446 176.382 81.5839C176.177 62.5856 175.461 55.043 175.127 60.3033C174.9 63.9145 174.677 82.2466 173.552 98.6313C164.807 91.0481 161.153 85.1068 159.744 82.1619C159.718 82.1151 159.677 82.0793 159.628 82.0608C159.579 82.0423 159.525 82.0424 159.476 82.061C159.427 82.0797 159.386 82.1157 159.36 82.1626C159.335 82.2094 159.327 82.264 159.337 82.3165C161.901 93.5071 170.679 100.159 173.315 101.93C172.854 107.79 172.268 113.245 171.517 117.471C169.553 128.371 168.104 143 168.104 143H178.967C178.967 143 176.199 133.4 176.411 100.671Z" fill="#F4F4F4"/>
<path d="M189.816 55.9191C189.662 55.5762 189.43 55.2758 189.139 55.0428C188.849 54.8097 188.509 54.6507 188.147 54.5788C187.785 54.5069 187.411 54.5241 187.057 54.6292C186.702 54.7342 186.377 54.924 186.109 55.1828C185.994 55.2947 185.841 55.3571 185.683 55.3571C185.524 55.3571 185.372 55.2947 185.257 55.1828L185.181 55.1166C184.714 54.7259 184.118 54.536 183.517 54.5869C182.916 54.6378 182.358 54.9256 181.96 55.3895C181.562 55.8535 181.356 56.4574 181.385 57.0739C181.413 57.6905 181.675 58.2715 182.114 58.6946L182.24 58.8014C182.668 59.1689 182.948 59.6854 183.027 60.2518C183.068 60.4783 183.155 60.6935 183.282 60.8837C183.409 61.0739 183.573 61.2348 183.765 61.3561C183.956 61.4775 184.17 61.5565 184.393 61.5882C184.616 61.6199 184.843 61.6035 185.059 61.5402C185.499 61.4022 185.97 61.4022 186.411 61.5402C186.642 61.6201 186.888 61.6454 187.131 61.6141C187.373 61.5829 187.605 61.4959 187.81 61.3598C188.007 61.2294 188.173 61.0563 188.297 60.8527C188.422 60.6491 188.501 60.4201 188.529 60.1818C188.586 59.6178 188.841 59.0943 189.248 58.7094L189.37 58.5952C189.701 58.2479 189.92 57.8061 190 57.3282C190.08 56.8503 190.016 56.3589 189.816 55.9191Z" fill="#FC7459"/>
<path d="M184.865 55.5509C184.831 55.5847 184.809 55.6286 184.801 55.6762C184.793 55.7239 184.801 55.7728 184.822 55.8159C184.91 55.9834 185.042 56.1226 185.203 56.2182C185.363 56.3139 185.547 56.3623 185.733 56.3581C185.919 56.3539 186.1 56.2973 186.256 56.1945C186.413 56.0917 186.538 55.9467 186.62 55.7755C186.644 55.7193 186.651 55.6569 186.64 55.5965C186.629 55.5361 186.601 55.4804 186.558 55.4368C186.53 55.4101 186.497 55.3897 186.46 55.377C186.423 55.3644 186.385 55.3596 186.346 55.3632C186.195 55.3853 186.008 55.562 185.886 55.6061C185.751 55.6393 185.611 55.6393 185.476 55.6061C185.383 55.5804 185.228 55.4515 185.117 55.4442C185.069 55.4405 185.022 55.4483 184.978 55.4668C184.935 55.4854 184.896 55.5142 184.865 55.5509Z" fill="#CE422C"/>
<path d="M185.577 56.324C185.577 56.324 185.577 54.4282 185.159 53.4306C185.294 53.3336 185.454 53.2791 185.619 53.2739C185.784 53.2686 185.947 53.3129 186.087 53.4012C186.087 53.4012 185.684 55.4185 185.846 56.3203L185.577 56.324Z" fill="#8E4539"/>
<path d="M159.024 86.1633C158.87 85.821 158.638 85.5213 158.348 85.2887C158.058 85.0561 157.718 84.8974 157.356 84.8255C156.995 84.7536 156.622 84.7707 156.268 84.8753C155.914 84.9798 155.589 85.169 155.32 85.4271C155.208 85.5414 155.057 85.6071 154.898 85.6106C154.739 85.614 154.585 85.5549 154.468 85.4455L154.393 85.3792C153.926 84.9885 153.329 84.7986 152.728 84.8495C152.127 84.9005 151.569 85.1882 151.171 85.6522C150.774 86.1161 150.567 86.72 150.596 87.3365C150.625 87.9531 150.886 88.5342 151.325 88.9573L151.451 89.064C151.879 89.4315 152.16 89.948 152.239 90.5144C152.279 90.7412 152.366 90.9568 152.492 91.1473C152.619 91.3378 152.784 91.4989 152.975 91.6203C153.167 91.7417 153.381 91.8207 153.604 91.8521C153.827 91.8835 154.054 91.8667 154.27 91.8028C154.711 91.6649 155.182 91.6649 155.623 91.8028C155.854 91.8827 156.1 91.908 156.342 91.8767C156.584 91.8455 156.817 91.7586 157.021 91.6224C157.218 91.492 157.385 91.3189 157.509 91.1153C157.633 90.9118 157.712 90.6827 157.741 90.4444C157.798 89.8806 158.054 89.3573 158.46 88.972L158.582 88.8579C158.916 88.5089 159.138 88.0635 159.217 87.5817C159.296 87.0999 159.229 86.6048 159.024 86.1633Z" fill="#FC7459"/>
<path d="M154.058 85.7951C154.024 85.8286 154.002 85.8725 153.994 85.9203C153.986 85.9681 153.994 86.0171 154.015 86.0602C154.097 86.2281 154.226 86.3672 154.386 86.4597C154.545 86.5522 154.728 86.5938 154.911 86.5792C155.095 86.5856 155.276 86.5358 155.433 86.4361C155.589 86.3365 155.713 86.1915 155.788 86.0197C155.813 85.9633 155.82 85.9005 155.808 85.8398C155.797 85.7791 155.767 85.7236 155.723 85.681C155.695 85.6539 155.662 85.6333 155.625 85.6206C155.589 85.6079 155.55 85.6034 155.511 85.6074C155.364 85.6295 155.177 85.8062 155.055 85.8503C154.92 85.8835 154.779 85.8835 154.645 85.8503C154.551 85.8246 154.396 85.6957 154.285 85.6884C154.242 85.6884 154.199 85.6979 154.16 85.7164C154.121 85.7348 154.086 85.7616 154.058 85.7951Z" fill="#CE422C"/>
<path d="M154.767 86.5793C154.767 86.5793 154.767 84.6835 154.353 83.6859C154.488 83.5889 154.648 83.5344 154.813 83.5291C154.978 83.5239 155.141 83.5682 155.281 83.6565C155.281 83.6565 154.878 85.6737 155.04 86.5793H154.767Z" fill="#8E4539"/>
<path d="M193.603 98.8302C193.448 98.4873 193.216 98.1869 192.926 97.9539C192.636 97.7209 192.295 97.5618 191.933 97.4899C191.571 97.418 191.198 97.4353 190.843 97.5403C190.489 97.6453 190.164 97.8351 189.895 98.094C189.782 98.2078 189.63 98.273 189.471 98.2764C189.312 98.2799 189.158 98.2212 189.04 98.1124L188.964 98.0461C188.497 97.6554 187.9 97.4655 187.3 97.5164C186.699 97.5674 186.141 97.8551 185.743 98.3191C185.345 98.783 185.139 99.3869 185.168 100.003C185.196 100.62 185.458 101.201 185.897 101.624L186.023 101.731C186.451 102.098 186.731 102.615 186.81 103.181C186.851 103.408 186.938 103.623 187.065 103.813C187.192 104.003 187.356 104.164 187.547 104.286C187.739 104.407 187.953 104.486 188.176 104.518C188.399 104.549 188.625 104.533 188.842 104.47C189.282 104.332 189.753 104.332 190.194 104.47C190.421 104.548 190.662 104.574 190.9 104.545C191.138 104.516 191.367 104.434 191.57 104.304C191.773 104.175 191.946 104 192.075 103.794C192.205 103.588 192.288 103.355 192.319 103.111C192.373 102.546 192.629 102.022 193.038 101.639L193.157 101.525C193.492 101.177 193.714 100.731 193.794 100.249C193.874 99.7674 193.807 99.272 193.603 98.8302Z" fill="#FC7459"/>
<path d="M188.651 98.4619C188.617 98.4957 188.595 98.5396 188.587 98.5872C188.58 98.6348 188.587 98.6837 188.608 98.7269C188.696 98.8943 188.828 99.0335 188.989 99.1292C189.15 99.2248 189.333 99.2732 189.519 99.2691C189.705 99.2649 189.886 99.2083 190.043 99.1055C190.199 99.0027 190.325 98.8577 190.406 98.6864C190.431 98.6298 190.439 98.5666 190.428 98.5055C190.417 98.4443 190.388 98.388 190.345 98.3441C190.316 98.3178 190.283 98.298 190.246 98.286C190.209 98.2739 190.171 98.2699 190.133 98.2741C189.982 98.2962 189.795 98.4729 189.676 98.5171C189.541 98.5502 189.401 98.5502 189.266 98.5171C189.169 98.4913 189.018 98.3625 188.906 98.3551C188.859 98.3515 188.811 98.3592 188.767 98.3777C188.722 98.3963 188.683 98.4251 188.651 98.4619Z" fill="#CE422C"/>
<path d="M189.363 99.235C189.363 99.235 189.363 97.3392 188.949 96.3417C189.084 96.2445 189.243 96.1899 189.407 96.1846C189.572 96.1794 189.734 96.2238 189.874 96.3122C189.874 96.3122 189.471 98.3295 189.633 99.2313L189.363 99.235Z" fill="#8E4539"/>
<path d="M174.034 40.9333C173.879 40.591 173.646 40.2912 173.356 40.0587C173.066 39.8261 172.726 39.6674 172.364 39.5955C172.002 39.5237 171.629 39.5407 171.274 39.6453C170.92 39.7499 170.595 39.9389 170.326 40.197C170.211 40.3089 170.059 40.3713 169.9 40.3713C169.742 40.3713 169.589 40.3089 169.474 40.197L169.399 40.1308C168.932 39.7401 168.335 39.5502 167.734 39.6011C167.133 39.652 166.575 39.9398 166.177 40.4037C165.78 40.8677 165.573 41.4716 165.602 42.0881C165.631 42.7047 165.892 43.2857 166.331 43.7088L166.457 43.8156C166.885 44.1831 167.166 44.6996 167.245 45.266C167.286 45.4925 167.372 45.7077 167.499 45.8979C167.626 46.0881 167.791 46.249 167.982 46.3703C168.173 46.4917 168.387 46.5707 168.61 46.6024C168.833 46.6341 169.06 46.6177 169.276 46.5544C169.717 46.4164 170.188 46.4164 170.628 46.5544C170.86 46.6343 171.106 46.6596 171.348 46.6283C171.59 46.5971 171.823 46.5101 172.027 46.374C172.224 46.2436 172.391 46.0705 172.515 45.8669C172.639 45.6633 172.718 45.4343 172.746 45.196C172.803 44.6319 173.059 44.1082 173.466 43.7236L173.584 43.6094C173.915 43.2625 174.136 42.8209 174.216 42.343C174.296 41.865 174.233 41.3734 174.034 40.9333Z" fill="#FC7459"/>
<path d="M169.093 40.5652C169.059 40.5999 169.037 40.6444 169.029 40.6925C169.022 40.7407 169.029 40.7901 169.05 40.8339C169.139 41.0001 169.272 41.1379 169.432 41.2324C169.593 41.3269 169.776 41.3745 169.962 41.37C170.147 41.3654 170.328 41.3089 170.484 41.2066C170.64 41.1043 170.766 40.9601 170.848 40.7897C170.873 40.7337 170.881 40.6711 170.87 40.6105C170.859 40.5498 170.83 40.4941 170.786 40.4511C170.758 40.4243 170.724 40.404 170.688 40.3913C170.651 40.3786 170.613 40.3739 170.574 40.3775C170.423 40.3995 170.236 40.5762 170.118 40.6204C169.983 40.6535 169.842 40.6535 169.708 40.6204C169.611 40.5946 169.456 40.4658 169.348 40.4584C169.3 40.4542 169.252 40.4617 169.208 40.4802C169.163 40.4988 169.124 40.5279 169.093 40.5652Z" fill="#CE422C"/>
<path d="M169.812 41.3308C169.812 41.3308 169.812 39.435 169.399 38.4411C169.532 38.3434 169.691 38.2881 169.856 38.2822C170.02 38.2763 170.182 38.3201 170.323 38.408C170.323 38.408 169.92 40.4252 170.082 41.3308H169.812Z" fill="#8E4539"/>
<path d="M163.519 72.0314C163.12 70.3933 163.019 67.0987 167.014 63.6715C167.153 63.5532 167.32 63.4753 167.499 63.4459C167.677 63.4165 167.86 63.4367 168.028 63.5045C168.196 63.5722 168.343 63.685 168.454 63.831C168.565 63.9769 168.635 64.1507 168.658 64.3342C168.949 66.6901 168.841 70.8755 164.893 72.7124C164.76 72.7734 164.616 72.8039 164.47 72.8017C164.325 72.7995 164.182 72.7647 164.051 72.6998C163.92 72.6349 163.804 72.5414 163.713 72.426C163.621 72.3105 163.555 72.1758 163.519 72.0314Z" fill="#FFAAA1"/>
<path d="M182.703 93.4668C182.304 91.8323 182.204 88.534 186.199 85.1069C186.337 84.9886 186.505 84.9106 186.683 84.8812C186.861 84.8518 187.044 84.8721 187.212 84.9398C187.38 85.0076 187.527 85.1203 187.638 85.2663C187.749 85.4123 187.819 85.5861 187.842 85.7695C188.133 88.1254 188.025 92.3109 184.077 94.1478C183.944 94.2087 183.8 94.2392 183.655 94.237C183.509 94.2349 183.366 94.2001 183.235 94.1352C183.104 94.0703 182.989 93.9768 182.897 93.8613C182.805 93.7458 182.739 93.6112 182.703 93.4668Z" fill="#FFAAA1"/>
<path d="M163.232 109.487C161.635 109.075 158.751 107.602 157.694 102.379C157.659 102.2 157.671 102.014 157.729 101.841C157.787 101.668 157.889 101.514 158.025 101.396C158.16 101.277 158.324 101.197 158.5 101.165C158.676 101.132 158.857 101.149 159.024 101.212C161.182 102.062 164.738 104.138 164.454 108.574C164.443 108.721 164.4 108.863 164.33 108.991C164.26 109.119 164.163 109.23 164.047 109.317C163.931 109.404 163.798 109.464 163.657 109.493C163.517 109.522 163.372 109.52 163.232 109.487Z" fill="#FFAAA1"/>
<path d="M187.594 46.7935C186.105 46.0573 183.556 44.0584 183.505 38.7245C183.503 38.5391 183.551 38.3567 183.642 38.1965C183.733 38.0362 183.865 37.9041 184.023 37.8141C184.181 37.724 184.36 37.6793 184.541 37.6847C184.722 37.6901 184.899 37.7454 185.051 37.8447C187.011 39.1073 190.086 41.8497 188.982 46.142C188.943 46.2853 188.874 46.4182 188.779 46.5315C188.685 46.6447 188.568 46.7355 188.435 46.7975C188.303 46.8595 188.16 46.8913 188.014 46.8906C187.869 46.8899 187.725 46.8568 187.594 46.7935Z" fill="#FFAAA1"/>
</g>
</g>
<defs>
<clipPath id="clip0">
<rect width="375" height="140" fill="white"/>
</clipPath>
<clipPath id="clip1">
<rect width="43" height="49" fill="white" transform="translate(310 91)"/>
</clipPath>
<clipPath id="clip2">
<rect width="41" height="85" fill="white" transform="translate(192 58)"/>
</clipPath>
<clipPath id="clip3">
<rect width="55" height="119" fill="white" transform="translate(145 24)"/>
</clipPath>
</defs>
</svg>
