<svg width="375" height="140" viewBox="0 0 375 140" fill="none" xmlns="http://www.w3.org/2000/svg">
<g clip-path="url(#clip0)">
<path d="M114 0H429V140H114V0Z" fill="#007F36"/>
<path d="M114 32C114 14.3269 128.327 0 146 0H397C414.673 0 429 14.3269 429 32V140H114V32Z" fill="#4BA36F"/>
<g clip-path="url(#clip1)">
<path d="M169.702 115.643C169.702 115.643 160.478 117.382 154.495 115.395C148.512 113.408 139.036 106.448 143.022 94.5184C147.009 82.589 152.403 88.0136 148.256 69.4131C145.268 55.9926 157.238 53.0102 159.718 45.0551C162.199 37.0999 158.734 22.1882 168.206 18.71C177.679 15.2317 178.18 28.1563 178.677 34.121C179.175 40.0856 184.163 44.0632 189.649 47.5415C195.135 51.0197 197.626 65.4355 195.633 72.3954C193.639 79.3553 191.643 86.8112 200.12 91.784C208.598 96.7568 207.616 107.192 201.118 114.152C194.621 121.111 187.656 114.152 182.17 114.152C176.684 114.152 171.948 115.395 169.702 115.643Z" fill="#007F36"/>
<path d="M171.147 95.9993C169.982 114.834 168.724 138.526 168.08 142.409L178.643 142.874C178.643 142.874 177.28 123.173 175.989 105.018C176.957 103.187 178.991 100.242 183.226 96.0808C193.108 86.3763 186.252 91.8009 185.342 92.5516C182.749 94.6848 179.103 97.8471 175.72 101.162C175.14 92.7486 174.599 83.7642 174.22 75.2384C176.265 69.7425 177.696 68.7846 178.568 67.6739C179.563 66.4341 187.012 58.9748 183.536 61.4613C180.732 63.4687 175.822 68.6114 174.03 70.5238C173.829 65.0652 173.689 59.8852 173.689 55.2758C173.689 52.9422 172.708 70.0312 171.535 89.3213C169.201 86.8213 161.93 79.1617 157.824 76.2303C152.904 72.6875 163.487 83.2887 164.898 85.0516C166.148 86.6175 168.23 88.0102 171.147 95.9993Z" fill="#F4F4F4"/>
<path d="M167.041 44.3519C166.632 42.7113 166.533 39.3995 170.653 35.9518C170.795 35.8243 170.97 35.7389 171.158 35.7055C171.346 35.672 171.54 35.6918 171.717 35.7625C171.894 35.8333 172.048 35.9521 172.161 36.1057C172.274 36.2592 172.342 36.4412 172.357 36.6311C172.66 39.0088 172.547 43.2038 168.472 45.055C168.333 45.1197 168.182 45.1525 168.029 45.1509C167.875 45.1493 167.725 45.1135 167.587 45.046C167.45 44.9785 167.329 44.8811 167.235 44.7609C167.14 44.6408 167.074 44.501 167.041 44.3519Z" fill="#3CA064"/>
<path d="M164.578 61.1896C162.986 60.5951 160.192 58.8118 159.688 53.4586C159.664 53.2719 159.693 53.0823 159.771 52.9108C159.849 52.7394 159.973 52.5927 160.129 52.4872C160.285 52.3817 160.468 52.3214 160.656 52.313C160.845 52.3045 161.032 52.3484 161.197 52.4395C163.324 53.5333 166.734 56.0129 165.968 60.4049C165.943 60.556 165.885 60.6996 165.798 60.8253C165.71 60.9509 165.596 61.0553 165.462 61.1306C165.328 61.206 165.18 61.2505 165.026 61.2606C164.873 61.2708 164.72 61.2465 164.578 61.1896Z" fill="#3CA064"/>
<path d="M183.206 55.9654C181.615 55.3709 178.82 53.5876 178.313 48.2344C178.288 48.0474 178.317 47.8573 178.394 47.6854C178.472 47.5134 178.595 47.3662 178.752 47.2602C178.908 47.1543 179.091 47.0937 179.28 47.0851C179.469 47.0766 179.657 47.1205 179.822 47.212C181.948 48.3057 185.359 50.7853 184.572 55.1807C184.547 55.3288 184.489 55.4696 184.403 55.5929C184.317 55.7162 184.205 55.819 184.074 55.894C183.944 55.969 183.798 56.0143 183.648 56.0266C183.498 56.0389 183.347 56.018 183.206 55.9654Z" fill="#3CA064"/>
<path d="M184.252 87.0081C182.661 86.4137 179.867 84.6304 179.362 79.2806C179.344 79.0951 179.377 78.9082 179.457 78.7397C179.536 78.5711 179.66 78.4271 179.815 78.3228C179.97 78.2185 180.15 78.1578 180.337 78.147C180.523 78.1362 180.709 78.1758 180.875 78.2615C183.001 79.3587 186.412 81.8383 185.625 86.2303C185.599 86.3786 185.541 86.5194 185.454 86.6426C185.367 86.7658 185.254 86.8682 185.123 86.9426C184.991 87.017 184.845 87.0614 184.695 87.0728C184.544 87.0841 184.393 87.062 184.252 87.0081Z" fill="#3CA064"/>
<path d="M166.533 71.4001C165.051 72.229 161.875 73.2038 157.449 70.1535C157.291 70.0507 157.164 69.9062 157.084 69.736C157.003 69.5658 156.971 69.3767 156.991 69.1895C157.012 69.0023 157.084 68.8245 157.2 68.6757C157.315 68.5269 157.47 68.4129 157.647 68.3465C159.855 67.4294 163.954 66.4239 166.82 69.8512C166.917 69.9663 166.988 70.1015 167.026 70.2471C167.065 70.3927 167.071 70.545 167.044 70.6931C167.016 70.8413 166.956 70.9815 166.868 71.1037C166.78 71.226 166.666 71.3272 166.533 71.4001Z" fill="#3CA064"/>
<path d="M194.794 104.539C194.61 102.84 194.965 99.5591 199.524 96.7092C199.682 96.6113 199.864 96.5574 200.05 96.5534C200.236 96.5493 200.42 96.5951 200.582 96.686C200.744 96.777 200.879 96.9097 200.972 97.0703C201.065 97.231 201.113 97.4136 201.112 97.5992C201.084 99.9769 200.396 104.138 196.106 105.412C195.962 105.455 195.81 105.466 195.661 105.444C195.512 105.422 195.369 105.367 195.244 105.284C195.118 105.2 195.013 105.09 194.935 104.961C194.858 104.833 194.81 104.688 194.794 104.539Z" fill="#3CA064"/>
<path d="M159.214 94.3689C157.623 93.7745 154.829 91.9912 154.321 86.6414C154.303 86.4559 154.336 86.269 154.416 86.1005C154.495 85.9319 154.619 85.7879 154.774 85.6836C154.929 85.5793 155.109 85.5185 155.296 85.5078C155.482 85.497 155.668 85.5366 155.834 85.6223C157.96 86.7161 161.371 89.1957 160.587 93.5911C160.562 93.7394 160.503 93.8802 160.416 94.0034C160.33 94.1266 160.216 94.229 160.085 94.3034C159.954 94.3778 159.808 94.4222 159.657 94.4336C159.506 94.4449 159.355 94.4228 159.214 94.3689Z" fill="#3CA064"/>
<path d="M183.57 71.0061C183.938 69.3553 185.332 66.3458 190.562 65.0992C190.745 65.0556 190.935 65.0621 191.114 65.1178C191.293 65.1735 191.454 65.2765 191.579 65.4158C191.704 65.555 191.789 65.7254 191.825 65.9089C191.86 66.0924 191.846 66.2821 191.782 66.4579C190.992 68.7065 189.005 72.4226 184.531 72.2595C184.38 72.2545 184.232 72.2161 184.097 72.147C183.962 72.0778 183.845 71.9798 183.753 71.8598C183.661 71.7399 183.597 71.6011 183.565 71.4534C183.534 71.3058 183.535 71.153 183.57 71.0061Z" fill="#3CA064"/>
<path d="M187.472 111.387C185.881 110.792 183.087 109.009 182.582 103.656C182.558 103.468 182.587 103.278 182.665 103.106C182.743 102.934 182.867 102.787 183.024 102.682C183.181 102.576 183.364 102.516 183.553 102.508C183.742 102.5 183.93 102.544 184.095 102.637C186.218 103.73 189.629 106.21 188.845 110.605C188.82 110.754 188.762 110.895 188.675 111.019C188.588 111.142 188.475 111.245 188.344 111.32C188.213 111.395 188.066 111.439 187.915 111.451C187.765 111.462 187.613 111.44 187.472 111.387Z" fill="#3CA064"/>
<path d="M161.548 105.999C160.213 107.045 157.221 108.489 152.382 106.145C152.211 106.068 152.064 105.944 151.959 105.788C151.853 105.633 151.793 105.451 151.784 105.263C151.776 105.076 151.819 104.889 151.911 104.725C152.002 104.56 152.137 104.424 152.301 104.332C154.345 103.088 158.243 101.475 161.599 104.427C161.713 104.526 161.803 104.649 161.863 104.787C161.923 104.925 161.951 105.075 161.946 105.225C161.941 105.375 161.903 105.523 161.834 105.657C161.766 105.79 161.668 105.908 161.548 105.999Z" fill="#3CA064"/>
<path d="M171.852 113.268C171.816 113.268 171.78 113.254 171.753 113.23C171.725 113.206 171.707 113.172 171.702 113.136C171.576 111.73 171.573 109.929 171.573 109.909C171.573 109.869 171.589 109.831 171.617 109.803C171.645 109.775 171.683 109.76 171.723 109.76C171.763 109.76 171.801 109.775 171.829 109.803C171.857 109.831 171.873 109.869 171.873 109.909C171.873 109.926 171.873 111.719 171.999 113.109C172.001 113.128 171.999 113.147 171.993 113.166C171.987 113.184 171.978 113.201 171.966 113.216C171.953 113.231 171.938 113.243 171.921 113.252C171.904 113.261 171.885 113.267 171.866 113.268H171.852Z" fill="#F9C5CE"/>
<path d="M174.789 126.444C174.752 126.445 174.717 126.431 174.689 126.407C174.661 126.382 174.644 126.348 174.64 126.312C174.513 124.906 174.51 123.102 174.51 123.085C174.51 123.045 174.526 123.007 174.554 122.979C174.582 122.951 174.62 122.935 174.66 122.935C174.7 122.935 174.738 122.951 174.766 122.979C174.794 123.007 174.81 123.045 174.81 123.085C174.81 123.102 174.81 124.892 174.936 126.285C174.938 126.304 174.936 126.323 174.93 126.342C174.925 126.36 174.915 126.377 174.903 126.392C174.891 126.407 174.875 126.419 174.858 126.428C174.841 126.437 174.822 126.443 174.803 126.444H174.789Z" fill="#F9C5CE"/>
<path d="M170.592 140.595C170.555 140.595 170.52 140.582 170.492 140.557C170.465 140.533 170.448 140.499 170.445 140.463C170.319 139.056 170.316 137.256 170.316 137.236C170.316 137.197 170.333 137.16 170.361 137.132C170.389 137.105 170.426 137.09 170.465 137.09C170.485 137.088 170.504 137.091 170.522 137.097C170.541 137.103 170.558 137.113 170.572 137.125C170.587 137.138 170.599 137.153 170.607 137.17C170.616 137.188 170.621 137.206 170.622 137.226C170.622 137.246 170.622 139.036 170.752 140.425C170.755 140.464 170.742 140.503 170.716 140.533C170.691 140.563 170.655 140.581 170.615 140.585L170.592 140.595Z" fill="#F9C5CE"/>
<path d="M174.285 116.685C174.246 116.681 174.209 116.662 174.184 116.631C174.159 116.601 174.146 116.562 174.149 116.522C174.275 115.133 174.278 113.343 174.278 113.326C174.278 113.287 174.294 113.25 174.321 113.222C174.348 113.194 174.386 113.178 174.425 113.177C174.465 113.177 174.503 113.192 174.531 113.22C174.559 113.248 174.575 113.286 174.575 113.326C174.575 113.343 174.575 115.147 174.445 116.55C174.444 116.569 174.439 116.588 174.43 116.606C174.421 116.623 174.409 116.639 174.394 116.651C174.379 116.664 174.362 116.674 174.343 116.679C174.324 116.685 174.305 116.687 174.285 116.685Z" fill="#F9C5CE"/>
<path d="M171.713 130.548C171.674 130.542 171.638 130.523 171.614 130.492C171.589 130.462 171.577 130.423 171.58 130.384C171.706 128.995 171.709 127.205 171.709 127.188C171.709 127.149 171.725 127.112 171.752 127.084C171.779 127.056 171.817 127.04 171.856 127.039C171.895 127.039 171.934 127.054 171.962 127.083C171.99 127.111 172.006 127.149 172.006 127.188C172.006 127.205 172.006 129.009 171.876 130.412C171.874 130.431 171.869 130.45 171.86 130.468C171.851 130.485 171.838 130.501 171.823 130.514C171.808 130.526 171.79 130.536 171.771 130.542C171.752 130.547 171.732 130.549 171.713 130.548Z" fill="#F9C5CE"/>
<path d="M173.437 134.613C173.398 134.609 173.363 134.59 173.338 134.56C173.313 134.531 173.301 134.492 173.304 134.454C173.43 133.065 173.433 131.274 173.433 131.254C173.433 131.215 173.449 131.178 173.476 131.151C173.504 131.123 173.541 131.108 173.58 131.108C173.619 131.108 173.657 131.123 173.685 131.151C173.713 131.178 173.729 131.215 173.73 131.254C173.73 131.274 173.73 133.078 173.6 134.481C173.596 134.52 173.576 134.556 173.546 134.581C173.515 134.605 173.476 134.617 173.437 134.613Z" fill="#F9C5CE"/>
<path d="M176.139 139.199C176.12 139.197 176.101 139.192 176.084 139.183C176.067 139.174 176.051 139.162 176.039 139.147C176.027 139.132 176.017 139.115 176.012 139.096C176.006 139.078 176.004 139.059 176.006 139.039C176.132 137.65 176.132 135.86 176.132 135.843C176.132 135.803 176.148 135.765 176.176 135.737C176.204 135.709 176.242 135.694 176.282 135.694C176.322 135.694 176.36 135.709 176.388 135.737C176.416 135.765 176.432 135.803 176.432 135.843C176.432 135.86 176.432 137.664 176.302 139.067C176.297 139.105 176.277 139.141 176.247 139.165C176.217 139.19 176.178 139.202 176.139 139.199Z" fill="#F9C5CE"/>
<path d="M172.213 123.068C172.174 123.064 172.138 123.046 172.113 123.016C172.087 122.986 172.074 122.947 172.077 122.908C172.207 121.519 172.207 119.729 172.207 119.712C172.203 119.691 172.205 119.669 172.211 119.648C172.217 119.628 172.227 119.608 172.241 119.592C172.255 119.576 172.273 119.563 172.292 119.554C172.312 119.545 172.333 119.54 172.355 119.54C172.376 119.54 172.398 119.545 172.417 119.554C172.437 119.563 172.455 119.576 172.469 119.592C172.483 119.608 172.493 119.628 172.499 119.648C172.505 119.669 172.506 119.691 172.503 119.712C172.503 119.729 172.503 121.533 172.374 122.935C172.372 122.955 172.366 122.973 172.357 122.99C172.348 123.008 172.336 123.023 172.321 123.035C172.306 123.047 172.289 123.057 172.271 123.062C172.252 123.068 172.233 123.07 172.213 123.068Z" fill="#F9C5CE"/>
<path d="M173.91 89.8173C173.873 89.8173 173.837 89.8034 173.81 89.7781C173.783 89.7529 173.766 89.7183 173.764 89.6814C173.634 88.2785 173.634 86.4749 173.634 86.4579C173.634 86.4387 173.638 86.4197 173.646 86.402C173.653 86.3843 173.664 86.3682 173.677 86.3546C173.691 86.341 173.707 86.3303 173.725 86.3229C173.743 86.3156 173.762 86.3118 173.781 86.3118C173.82 86.3118 173.858 86.3271 173.886 86.3544C173.914 86.3817 173.93 86.4188 173.931 86.4579C173.931 86.4749 173.931 88.265 174.057 89.6576C174.059 89.6768 174.057 89.6962 174.051 89.7146C174.045 89.7331 174.036 89.7502 174.024 89.765C174.011 89.7799 173.996 89.7921 173.979 89.8011C173.962 89.8101 173.943 89.8155 173.924 89.8173H173.91Z" fill="#F9C5CE"/>
<path d="M170.98 92.2663C170.953 92.2669 170.926 92.2599 170.902 92.2461C170.879 92.2323 170.86 92.2122 170.847 92.1882C170.196 90.9348 169.515 89.267 169.508 89.25C169.5 89.2322 169.496 89.213 169.496 89.1936C169.495 89.1741 169.499 89.1548 169.506 89.1368C169.514 89.1188 169.524 89.1023 169.538 89.0885C169.552 89.0747 169.568 89.0638 169.586 89.0564C169.623 89.0418 169.664 89.0422 169.7 89.0574C169.737 89.0727 169.765 89.1016 169.781 89.1379C169.781 89.1379 170.462 90.8125 171.109 92.0523C171.127 92.0866 171.131 92.1265 171.12 92.1635C171.108 92.2004 171.082 92.2313 171.048 92.2493C171.027 92.261 171.004 92.2668 170.98 92.2663Z" fill="#F9C5CE"/>
<path d="M173.382 82.6705C173.345 82.6706 173.309 82.6566 173.282 82.6314C173.255 82.6061 173.238 82.5715 173.236 82.5346C173.11 81.1318 173.106 79.3281 173.106 79.3077C173.107 79.2687 173.123 79.2315 173.151 79.2042C173.179 79.1769 173.217 79.1616 173.256 79.1617C173.275 79.1617 173.294 79.1654 173.312 79.1728C173.33 79.1801 173.346 79.1909 173.36 79.2044C173.373 79.218 173.384 79.2341 173.392 79.2518C173.399 79.2695 173.403 79.2885 173.403 79.3077C173.403 79.3281 173.403 81.1182 173.532 82.5074C173.535 82.5465 173.522 82.5852 173.497 82.6151C173.471 82.6449 173.435 82.6636 173.396 82.6671L173.382 82.6705Z" fill="#F9C5CE"/>
<path d="M173.403 74.4334H173.355C173.318 74.421 173.287 74.3944 173.269 74.3595C173.251 74.3245 173.248 74.284 173.26 74.2466C173.689 72.9049 174.391 71.2439 174.401 71.2269C174.416 71.1908 174.445 71.1624 174.482 71.1477C174.518 71.1331 174.559 71.1334 174.595 71.1488C174.631 71.1641 174.66 71.1931 174.675 71.2294C174.689 71.2657 174.689 71.3063 174.674 71.3424C174.674 71.3424 173.968 73.0068 173.542 74.3383C173.531 74.3663 173.512 74.3904 173.487 74.4074C173.462 74.4243 173.433 74.4334 173.403 74.4334Z" fill="#F9C5CE"/>
<path d="M172.537 104.712C172.5 104.712 172.464 104.698 172.437 104.673C172.41 104.648 172.393 104.613 172.391 104.576C172.261 103.173 172.261 101.37 172.261 101.353C172.261 101.314 172.277 101.276 172.304 101.248C172.331 101.22 172.369 101.204 172.408 101.203C172.447 101.203 172.486 101.219 172.514 101.247C172.542 101.275 172.558 101.313 172.558 101.353C172.558 101.37 172.558 103.16 172.684 104.552C172.686 104.572 172.684 104.591 172.678 104.609C172.672 104.628 172.663 104.645 172.651 104.66C172.638 104.675 172.623 104.687 172.606 104.696C172.589 104.705 172.57 104.71 172.551 104.712H172.537Z" fill="#F9C5CE"/>
<path d="M175.617 103.676C175.588 103.676 175.56 103.668 175.536 103.652C175.503 103.631 175.48 103.597 175.472 103.559C175.464 103.521 175.471 103.481 175.491 103.448C176.251 102.26 177.359 100.833 177.369 100.819C177.393 100.789 177.428 100.769 177.467 100.764C177.506 100.758 177.545 100.769 177.577 100.792C177.592 100.804 177.606 100.819 177.615 100.835C177.625 100.852 177.632 100.871 177.634 100.89C177.637 100.909 177.635 100.929 177.63 100.948C177.625 100.966 177.616 100.984 177.604 100.999C177.604 101.016 176.497 102.433 175.744 103.608C175.73 103.629 175.711 103.646 175.689 103.658C175.667 103.669 175.642 103.676 175.617 103.676Z" fill="#F9C5CE"/>
<path d="M172.82 96.5258C172.801 96.5241 172.782 96.5186 172.765 96.5097C172.748 96.5007 172.733 96.4884 172.72 96.4736C172.708 96.4588 172.699 96.4416 172.693 96.4232C172.687 96.4047 172.685 96.3854 172.687 96.3662C172.813 94.9735 172.817 93.1834 172.817 93.1664C172.817 93.1277 172.832 93.0906 172.86 93.0632C172.887 93.0358 172.924 93.0204 172.963 93.0204C173.002 93.0204 173.04 93.0357 173.068 93.063C173.096 93.0903 173.112 93.1274 173.113 93.1664C173.113 93.1868 173.113 94.9871 172.984 96.3933C172.979 96.4324 172.96 96.4683 172.929 96.4931C172.898 96.5179 172.859 96.5296 172.82 96.5258Z" fill="#F9C5CE"/>
<path d="M173.829 108.693C173.79 108.689 173.755 108.67 173.73 108.64C173.705 108.61 173.693 108.572 173.696 108.533C173.822 107.141 173.825 105.351 173.825 105.334C173.825 105.294 173.841 105.257 173.868 105.229C173.895 105.201 173.933 105.185 173.972 105.184C174.011 105.184 174.05 105.2 174.078 105.228C174.106 105.256 174.122 105.294 174.122 105.334C174.122 105.351 174.122 107.154 173.992 108.557C173.99 108.577 173.985 108.596 173.976 108.613C173.967 108.631 173.954 108.646 173.939 108.659C173.924 108.672 173.906 108.681 173.887 108.687C173.868 108.693 173.848 108.695 173.829 108.693Z" fill="#F9C5CE"/>
<path d="M174.329 101.22C174.29 101.216 174.254 101.196 174.228 101.166C174.203 101.136 174.19 101.097 174.193 101.057C174.323 99.6678 174.323 97.8777 174.323 97.8607C174.319 97.8394 174.321 97.8177 174.327 97.797C174.333 97.7763 174.343 97.7571 174.357 97.7408C174.371 97.7245 174.389 97.7114 174.408 97.7024C174.428 97.6934 174.449 97.6888 174.471 97.6888C174.492 97.6888 174.514 97.6934 174.533 97.7024C174.553 97.7114 174.571 97.7245 174.585 97.7408C174.599 97.7571 174.609 97.7763 174.615 97.797C174.621 97.8177 174.622 97.8394 174.619 97.8607C174.619 97.8607 174.619 99.6814 174.49 101.084C174.488 101.104 174.483 101.123 174.474 101.14C174.466 101.158 174.453 101.173 174.438 101.186C174.423 101.199 174.406 101.208 174.387 101.214C174.369 101.22 174.349 101.222 174.329 101.22Z" fill="#F9C5CE"/>
<path d="M150.624 99.678C151.829 99.678 152.805 98.7047 152.805 97.5041C152.805 96.3034 151.829 95.3301 150.624 95.3301C149.42 95.3301 148.443 96.3034 148.443 97.5041C148.443 98.7047 149.42 99.678 150.624 99.678Z" fill="#FC7B6D"/>
<path d="M192.177 98.5775C193.382 98.5775 194.358 97.6042 194.358 96.4035C194.358 95.2029 193.382 94.2296 192.177 94.2296C190.973 94.2296 189.997 95.2029 189.997 96.4035C189.997 97.6042 190.973 98.5775 192.177 98.5775Z" fill="#FC7B6D"/>
<path d="M171.989 52.8369C173.193 52.8369 174.169 51.8637 174.169 50.663C174.169 49.4624 173.193 48.4891 171.989 48.4891C170.784 48.4891 169.808 49.4624 169.808 50.663C169.808 51.8637 170.784 52.8369 171.989 52.8369Z" fill="#FC7B6D"/>
<path d="M154.519 65.6019C155.723 65.6019 156.7 64.6286 156.7 63.428C156.7 62.2274 155.723 61.2541 154.519 61.2541C153.314 61.2541 152.338 62.2274 152.338 63.428C152.338 64.6286 153.314 65.6019 154.519 65.6019Z" fill="#FC7B6D"/>
<g clip-path="url(#clip2)">
<path d="M215 130.426C215 130.426 198.984 133.026 198.057 119.556C197.129 106.087 208.268 102.072 207.334 91.6744C206.4 81.277 208.268 76.3178 215 75.134C221.732 73.9502 228.465 80.8048 227.536 88.3667C226.606 95.9286 225.214 105.852 228.929 111.522C232.645 117.193 231.251 123.574 225.678 127.356C220.105 131.138 215 130.426 215 130.426Z" fill="#008E39"/>
<path d="M216.846 120.745C216.869 117.315 216.869 114.23 216.846 111.489C219.535 109.634 220.573 105.937 220.965 103.646C220.993 103.475 220.749 103.403 220.696 103.567C219.617 107.248 217.604 108.856 216.829 109.357C216.706 98.0217 216.277 93.5214 216.076 96.66C215.94 98.8145 215.807 109.752 215.131 119.528C209.884 115.003 207.692 111.459 206.846 109.702C206.831 109.674 206.806 109.652 206.777 109.641C206.747 109.63 206.715 109.63 206.685 109.641C206.656 109.653 206.631 109.674 206.616 109.702C206.601 109.73 206.596 109.763 206.602 109.794C208.141 116.471 213.407 120.439 214.989 121.496C214.713 124.992 214.361 128.247 213.91 130.769C212.732 137.272 211.862 146 211.862 146H218.38C218.38 146 216.719 140.272 216.846 120.745Z" fill="#F4F4F4"/>
<path d="M224.89 94.0441C224.797 93.8395 224.658 93.6603 224.484 93.5213C224.31 93.3823 224.105 93.2874 223.888 93.2445C223.671 93.2016 223.447 93.2119 223.234 93.2745C223.021 93.3372 222.827 93.4504 222.665 93.6049C222.596 93.6716 222.505 93.7088 222.41 93.7088C222.315 93.7088 222.223 93.6716 222.154 93.6049L222.109 93.5653C221.829 93.3322 221.471 93.2189 221.11 93.2493C220.749 93.2797 220.415 93.4514 220.176 93.7282C219.937 94.005 219.814 94.3653 219.831 94.7332C219.848 95.101 220.005 95.4477 220.268 95.7001L220.344 95.7638C220.601 95.9831 220.769 96.2913 220.816 96.6292C220.841 96.7643 220.893 96.8928 220.969 97.0062C221.045 97.1197 221.144 97.2157 221.259 97.2881C221.374 97.3605 221.502 97.4076 221.636 97.4266C221.769 97.4455 221.906 97.4357 222.035 97.3979C222.3 97.3156 222.582 97.3156 222.847 97.3979C222.985 97.4456 223.133 97.4607 223.278 97.442C223.424 97.4234 223.563 97.3715 223.686 97.2903C223.804 97.2125 223.904 97.1092 223.978 96.9877C224.053 96.8663 224.1 96.7296 224.117 96.5875C224.151 96.2509 224.305 95.9386 224.549 95.7089L224.622 95.6409C224.821 95.4336 224.952 95.17 225 94.8849C225.048 94.5997 225.009 94.3065 224.89 94.0441Z" fill="#FC7459"/>
<path d="M221.919 93.8245C221.899 93.8447 221.885 93.8709 221.881 93.8993C221.876 93.9277 221.88 93.9569 221.893 93.9826C221.946 94.0825 222.025 94.1656 222.122 94.2227C222.218 94.2797 222.328 94.3086 222.44 94.3061C222.551 94.3036 222.66 94.2698 222.754 94.2085C222.848 94.1472 222.923 94.0606 222.972 93.9585C222.986 93.9249 222.991 93.8877 222.984 93.8517C222.977 93.8156 222.96 93.7824 222.935 93.7564C222.918 93.7405 222.898 93.7283 222.876 93.7208C222.854 93.7132 222.831 93.7104 222.808 93.7125C222.717 93.7257 222.605 93.8311 222.532 93.8574C222.451 93.8772 222.366 93.8772 222.286 93.8574C222.23 93.8421 222.137 93.7652 222.07 93.7608C222.042 93.7586 222.013 93.7633 221.987 93.7743C221.961 93.7854 221.937 93.8026 221.919 93.8245Z" fill="#CE422C"/>
<path d="M222.346 94.2858C222.346 94.2858 222.346 93.1547 222.096 92.5595C222.177 92.5016 222.272 92.469 222.371 92.4659C222.47 92.4628 222.568 92.4892 222.652 92.5419C222.652 92.5419 222.411 93.7455 222.508 94.2836L222.346 94.2858Z" fill="#8E4539"/>
<path d="M206.415 112.089C206.322 111.885 206.183 111.706 206.009 111.567C205.835 111.428 205.631 111.334 205.414 111.291C205.197 111.248 204.973 111.258 204.761 111.321C204.548 111.383 204.353 111.496 204.192 111.65C204.125 111.718 204.034 111.757 203.939 111.759C203.844 111.761 203.751 111.726 203.681 111.661L203.636 111.621C203.356 111.388 202.997 111.275 202.637 111.305C202.276 111.336 201.941 111.507 201.703 111.784C201.464 112.061 201.34 112.421 201.358 112.789C201.375 113.157 201.532 113.504 201.795 113.756L201.871 113.82C202.128 114.039 202.296 114.347 202.343 114.685C202.367 114.82 202.419 114.949 202.495 115.063C202.572 115.176 202.67 115.272 202.785 115.345C202.9 115.417 203.028 115.464 203.162 115.483C203.296 115.502 203.432 115.492 203.562 115.454C203.827 115.371 204.109 115.371 204.373 115.454C204.512 115.501 204.66 115.517 204.805 115.498C204.951 115.479 205.09 115.427 205.213 115.346C205.331 115.268 205.431 115.165 205.505 115.044C205.58 114.922 205.627 114.786 205.644 114.643C205.679 114.307 205.832 113.995 206.076 113.765L206.149 113.697C206.35 113.489 206.482 113.223 206.53 112.935C206.577 112.648 206.537 112.352 206.415 112.089Z" fill="#FC7459"/>
<path d="M203.435 111.869C203.415 111.889 203.401 111.916 203.396 111.944C203.392 111.973 203.396 112.002 203.409 112.027C203.458 112.128 203.536 112.211 203.631 112.266C203.727 112.321 203.837 112.346 203.946 112.337C204.057 112.341 204.166 112.311 204.26 112.252C204.353 112.192 204.428 112.106 204.473 112.003C204.488 111.97 204.492 111.932 204.485 111.896C204.478 111.86 204.46 111.827 204.434 111.801C204.417 111.785 204.397 111.773 204.375 111.765C204.353 111.758 204.33 111.755 204.307 111.757C204.218 111.771 204.106 111.876 204.033 111.902C203.952 111.922 203.868 111.922 203.787 111.902C203.731 111.887 203.638 111.81 203.571 111.806C203.545 111.806 203.52 111.811 203.496 111.822C203.473 111.833 203.452 111.849 203.435 111.869Z" fill="#CE422C"/>
<path d="M203.86 112.337C203.86 112.337 203.86 111.206 203.612 110.611C203.693 110.553 203.789 110.521 203.888 110.517C203.987 110.514 204.084 110.541 204.169 110.593C204.169 110.593 203.927 111.797 204.024 112.337H203.86Z" fill="#8E4539"/>
<path d="M227.162 119.647C227.069 119.442 226.93 119.263 226.756 119.124C226.581 118.985 226.377 118.89 226.16 118.847C225.943 118.804 225.719 118.814 225.506 118.877C225.293 118.94 225.098 119.053 224.937 119.207C224.869 119.275 224.778 119.314 224.683 119.316C224.587 119.318 224.495 119.283 224.424 119.218L224.378 119.179C224.098 118.946 223.74 118.832 223.38 118.863C223.019 118.893 222.684 119.065 222.446 119.342C222.207 119.618 222.083 119.979 222.101 120.347C222.118 120.714 222.275 121.061 222.538 121.314L222.614 121.377C222.871 121.597 223.039 121.905 223.086 122.243C223.111 122.378 223.163 122.506 223.239 122.62C223.315 122.733 223.414 122.829 223.529 122.902C223.643 122.974 223.772 123.021 223.905 123.04C224.039 123.059 224.175 123.049 224.305 123.011C224.569 122.929 224.852 122.929 225.116 123.011C225.253 123.058 225.397 123.073 225.54 123.056C225.683 123.039 225.82 122.99 225.942 122.913C226.064 122.835 226.167 122.731 226.245 122.608C226.323 122.485 226.373 122.346 226.391 122.201C226.424 121.864 226.577 121.551 226.823 121.322L226.894 121.254C227.095 121.047 227.229 120.781 227.277 120.493C227.324 120.206 227.284 119.91 227.162 119.647Z" fill="#FC7459"/>
<path d="M224.191 119.427C224.17 119.447 224.157 119.473 224.152 119.502C224.148 119.53 224.152 119.559 224.165 119.585C224.218 119.685 224.297 119.768 224.393 119.825C224.49 119.882 224.6 119.911 224.711 119.908C224.823 119.906 224.932 119.872 225.026 119.811C225.119 119.749 225.195 119.663 225.244 119.561C225.259 119.527 225.263 119.489 225.257 119.453C225.25 119.416 225.233 119.383 225.207 119.357C225.19 119.341 225.17 119.329 225.148 119.322C225.126 119.315 225.102 119.312 225.08 119.315C224.989 119.328 224.877 119.433 224.806 119.46C224.725 119.48 224.64 119.48 224.56 119.46C224.501 119.444 224.411 119.368 224.344 119.363C224.315 119.361 224.286 119.366 224.26 119.377C224.233 119.388 224.21 119.405 224.191 119.427Z" fill="#CE422C"/>
<path d="M224.618 119.888C224.618 119.888 224.618 118.757 224.37 118.162C224.45 118.104 224.546 118.071 224.644 118.068C224.743 118.065 224.84 118.091 224.924 118.144C224.924 118.144 224.683 119.348 224.78 119.886L224.618 119.888Z" fill="#8E4539"/>
<path d="M215.42 85.1031C215.327 84.8988 215.188 84.72 215.014 84.5812C214.84 84.4425 214.635 84.3478 214.418 84.3049C214.201 84.262 213.977 84.2722 213.765 84.3346C213.552 84.397 213.357 84.5098 213.196 84.6638C213.127 84.7305 213.035 84.7678 212.94 84.7678C212.845 84.7678 212.754 84.7305 212.685 84.6638L212.639 84.6243C212.359 84.3912 212.001 84.2779 211.641 84.3082C211.28 84.3386 210.945 84.5103 210.706 84.7871C210.468 85.0639 210.344 85.4242 210.361 85.7921C210.379 86.1599 210.535 86.5066 210.799 86.7591L210.874 86.8228C211.131 87.042 211.3 87.3502 211.347 87.6881C211.371 87.8233 211.423 87.9517 211.5 88.0652C211.576 88.1786 211.674 88.2746 211.789 88.347C211.904 88.4194 212.032 88.4666 212.166 88.4855C212.3 88.5044 212.436 88.4946 212.566 88.4568C212.83 88.3745 213.113 88.3745 213.377 88.4568C213.516 88.5045 213.664 88.5196 213.809 88.5009C213.954 88.4823 214.094 88.4304 214.216 88.3492C214.335 88.2714 214.434 88.1681 214.509 88.0467C214.584 87.9252 214.631 87.7886 214.648 87.6464C214.682 87.3098 214.835 86.9974 215.079 86.7679L215.151 86.6998C215.349 86.4928 215.481 86.2293 215.53 85.9441C215.578 85.659 215.54 85.3657 215.42 85.1031Z" fill="#FC7459"/>
<path d="M212.456 84.8834C212.436 84.9041 212.422 84.9307 212.418 84.9594C212.413 84.9881 212.417 85.0176 212.43 85.0438C212.484 85.1429 212.563 85.2251 212.659 85.2815C212.756 85.3379 212.866 85.3663 212.977 85.3636C213.088 85.3609 213.197 85.3272 213.29 85.2661C213.384 85.2051 213.459 85.1191 213.509 85.0174C213.524 84.984 213.528 84.9466 213.522 84.9104C213.515 84.8742 213.498 84.841 213.472 84.8153C213.455 84.7994 213.435 84.7873 213.413 84.7797C213.391 84.7721 213.368 84.7693 213.345 84.7714C213.254 84.7846 213.142 84.89 213.071 84.9164C212.99 84.9361 212.905 84.9361 212.825 84.9164C212.766 84.901 212.674 84.8241 212.609 84.8197C212.58 84.8172 212.551 84.8217 212.525 84.8327C212.498 84.8438 212.474 84.8612 212.456 84.8834Z" fill="#CE422C"/>
<path d="M212.887 85.3402C212.887 85.3402 212.887 84.2091 212.639 83.6161C212.719 83.5578 212.815 83.5248 212.913 83.5213C213.012 83.5178 213.109 83.5439 213.194 83.5963C213.194 83.5963 212.952 84.7999 213.049 85.3402H212.887Z" fill="#8E4539"/>
<path d="M209.112 103.657C208.872 102.68 208.812 100.714 211.209 98.6696C211.292 98.599 211.392 98.5525 211.499 98.5349C211.606 98.5174 211.716 98.5295 211.817 98.5699C211.918 98.6103 212.006 98.6776 212.072 98.7647C212.139 98.8518 212.181 98.9555 212.195 99.0649C212.369 100.471 212.305 102.968 209.936 104.064C209.856 104.1 209.77 104.118 209.682 104.117C209.595 104.116 209.509 104.095 209.431 104.056C209.352 104.017 209.283 103.962 209.228 103.893C209.172 103.824 209.133 103.744 209.112 103.657Z" fill="#FFAAA1"/>
<path d="M220.622 116.447C220.383 115.471 220.322 113.503 222.719 111.459C222.802 111.388 222.903 111.342 223.01 111.324C223.117 111.307 223.226 111.319 223.327 111.359C223.428 111.399 223.516 111.467 223.583 111.554C223.649 111.641 223.692 111.745 223.705 111.854C223.88 113.26 223.815 115.757 221.446 116.853C221.367 116.889 221.28 116.907 221.193 116.906C221.106 116.905 221.02 116.884 220.941 116.845C220.863 116.807 220.793 116.751 220.738 116.682C220.683 116.613 220.643 116.533 220.622 116.447Z" fill="#FFAAA1"/>
<path d="M208.939 126.005C207.981 125.759 206.251 124.88 205.616 121.764C205.595 121.657 205.602 121.546 205.637 121.443C205.672 121.34 205.733 121.248 205.815 121.177C205.896 121.106 205.995 121.059 206.1 121.039C206.205 121.02 206.314 121.03 206.415 121.068C207.709 121.575 209.843 122.814 209.673 125.46C209.665 125.548 209.64 125.632 209.598 125.709C209.556 125.785 209.498 125.852 209.428 125.903C209.359 125.955 209.279 125.991 209.194 126.008C209.11 126.026 209.023 126.025 208.939 126.005Z" fill="#FFAAA1"/>
<path d="M223.556 88.5995C222.663 88.1602 221.133 86.9676 221.103 83.7852C221.102 83.6746 221.13 83.5657 221.185 83.4701C221.24 83.3746 221.319 83.2957 221.414 83.242C221.509 83.1883 221.616 83.1616 221.725 83.1648C221.833 83.168 221.939 83.201 222.031 83.2603C223.207 84.0136 225.051 85.6498 224.389 88.2107C224.366 88.2963 224.324 88.3756 224.268 88.4431C224.211 88.5107 224.141 88.5648 224.061 88.6019C223.982 88.6389 223.896 88.6578 223.809 88.6574C223.721 88.657 223.635 88.6372 223.556 88.5995Z" fill="#FFAAA1"/>
</g>
</g>
<g clip-path="url(#clip3)">
<path d="M335.699 123.79C335.699 123.79 361.425 127.862 362.915 106.77C364.405 85.6777 346.511 79.3909 348.015 63.1101C349.518 46.8292 346.511 39.0636 335.699 37.2099C324.888 35.3562 314.077 46.0898 315.567 57.9307C317.057 69.7717 319.295 85.3097 313.332 94.1895C307.368 103.069 309.603 113.06 318.55 118.982C327.497 124.904 335.699 123.79 335.699 123.79Z" fill="#007F36"/>
<path d="M333.58 106.471C333.546 101.103 333.546 96.2724 333.58 91.9781C329.259 89.0548 327.593 83.2667 326.979 79.6797C326.931 79.4149 327.326 79.298 327.409 79.5593C329.141 85.3233 332.378 87.8374 333.618 88.6215C333.816 70.8721 334.509 63.8253 334.828 68.7398C335.046 72.1136 335.261 89.2405 336.346 104.548C344.78 97.4635 348.297 91.9058 349.655 89.1649C349.678 89.1176 349.718 89.0805 349.766 89.0608C349.815 89.041 349.87 89.0401 349.919 89.0582C349.969 89.0763 350.01 89.1121 350.034 89.1585C350.058 89.205 350.064 89.2588 350.05 89.3093C347.594 99.7608 339.118 105.975 336.578 107.633C337.021 113.108 337.586 118.201 338.31 122.15C340.202 132.336 341.599 146 341.599 146H331.117C331.117 146 333.785 137.031 333.58 106.471Z" fill="#F4F4F4"/>
<path d="M341.97 82.3965C341.738 81.4817 341.682 79.6452 343.994 77.709C344.074 77.6428 344.17 77.5993 344.273 77.5829C344.376 77.5665 344.482 77.5779 344.579 77.6159C344.676 77.6538 344.761 77.717 344.825 77.7987C344.889 77.8804 344.93 77.9777 344.943 78.0804C345.113 79.401 345.047 81.7499 342.763 82.7817C342.686 82.8152 342.603 82.8317 342.519 82.8299C342.435 82.8282 342.352 82.8083 342.277 82.7717C342.201 82.735 342.135 82.6824 342.082 82.6177C342.029 82.5529 341.991 82.4774 341.97 82.3965Z" fill="#3CA064"/>
<path d="M351.028 102.718C350.643 101.188 350.546 98.1099 354.396 94.9081C354.53 94.7976 354.691 94.7247 354.863 94.6973C355.035 94.6698 355.211 94.6887 355.373 94.752C355.535 94.8153 355.676 94.9207 355.783 95.0571C355.89 95.1934 355.958 95.3558 355.98 95.5272C356.26 97.7282 356.156 101.638 352.352 103.355C352.224 103.412 352.085 103.44 351.945 103.438C351.805 103.436 351.667 103.403 351.54 103.343C351.414 103.282 351.303 103.195 351.214 103.087C351.126 102.979 351.062 102.853 351.028 102.718Z" fill="#3CA064"/>
<path d="M324.973 103.754C323.434 103.375 320.655 102 319.633 97.1126C319.599 96.9435 319.61 96.7681 319.668 96.6051C319.725 96.442 319.825 96.2971 319.958 96.1857C320.091 96.0742 320.251 96.0003 320.423 95.9716C320.594 95.9428 320.77 95.9604 320.933 96.0224C323.012 96.8134 326.439 98.7566 326.165 102.901C326.154 103.039 326.113 103.173 326.044 103.294C325.976 103.415 325.881 103.52 325.768 103.601C325.655 103.682 325.525 103.738 325.387 103.764C325.25 103.791 325.109 103.787 324.973 103.754Z" fill="#3CA064"/>
<path d="M323.729 115.756C323.448 114.676 323.382 112.493 326.075 110.202C326.169 110.125 326.283 110.074 326.404 110.054C326.525 110.035 326.65 110.047 326.764 110.091C326.879 110.135 326.979 110.208 327.056 110.303C327.133 110.398 327.183 110.512 327.201 110.632C327.416 112.19 327.36 114.962 324.671 116.203C324.58 116.242 324.482 116.262 324.383 116.26C324.284 116.258 324.187 116.235 324.098 116.193C324.008 116.15 323.929 116.089 323.866 116.014C323.802 115.939 323.755 115.851 323.729 115.756Z" fill="#3CA064"/>
<path d="M337.891 60.7816C337.832 59.8256 338.12 57.9753 340.778 56.4862C340.87 56.4351 340.975 56.4095 341.08 56.412C341.186 56.4145 341.289 56.4451 341.379 56.5005C341.469 56.556 341.542 56.6343 341.591 56.7273C341.64 56.8203 341.663 56.9247 341.658 57.0295C341.578 58.3742 341.079 60.6991 338.612 61.3078C338.529 61.3275 338.443 61.3291 338.359 61.3123C338.276 61.2955 338.197 61.2609 338.128 61.2108C338.06 61.1607 338.003 61.0963 337.962 61.0222C337.921 60.9481 337.897 60.866 337.891 60.7816Z" fill="#3CA064"/>
<path d="M331.546 51.3309C331.138 50.4677 330.704 48.6415 332.61 46.2857C332.677 46.2036 332.764 46.1409 332.863 46.104C332.962 46.0671 333.07 46.0575 333.174 46.0762C333.279 46.0948 333.376 46.1411 333.456 46.21C333.536 46.279 333.596 46.3681 333.629 46.468C334.062 47.7439 334.474 50.0859 332.413 51.5648C332.342 51.6133 332.262 51.6459 332.178 51.6604C332.094 51.6748 332.007 51.6708 331.925 51.6485C331.842 51.6262 331.765 51.5862 331.7 51.5313C331.635 51.4765 331.582 51.4081 331.546 51.3309Z" fill="#3CA064"/>
<path d="M328.785 71.6871C327.35 70.9993 324.893 69.1284 324.845 64.1451C324.844 63.9724 324.889 63.8026 324.977 63.6535C325.064 63.5043 325.191 63.3812 325.343 63.2972C325.495 63.2132 325.667 63.1712 325.841 63.1758C326.015 63.1804 326.184 63.2313 326.331 63.3232C328.223 64.5062 331.183 67.0684 330.122 71.075C330.085 71.2092 330.019 71.3338 329.928 71.4399C329.837 71.5461 329.724 71.6313 329.597 71.6896C329.469 71.7479 329.331 71.7779 329.19 71.7775C329.05 71.777 328.912 71.7462 328.785 71.6871Z" fill="#3CA064"/>
<path d="M346.211 115.068C346.336 114.095 346.984 112.283 349.954 111.285C350.056 111.251 350.167 111.246 350.273 111.268C350.379 111.291 350.476 111.342 350.556 111.415C350.636 111.488 350.694 111.581 350.725 111.684C350.756 111.787 350.759 111.896 350.733 112.001C350.387 113.342 349.441 115.594 346.835 115.735C346.748 115.739 346.661 115.724 346.58 115.691C346.5 115.658 346.427 115.608 346.368 115.545C346.309 115.481 346.264 115.406 346.237 115.324C346.21 115.241 346.201 115.154 346.211 115.068Z" fill="#3CA064"/>
</g>
<path d="M305.099 126.404C305.099 126.404 310.68 127.457 314.299 126.254C317.917 125.052 323.649 120.843 321.236 113.628C318.824 106.414 315.56 109.695 318.067 98.445C319.877 90.3268 312.639 88.5231 311.13 83.7133C309.62 78.9036 311.733 69.8852 306.019 67.7792C300.305 65.6733 299.974 73.4926 299.671 77.1033C299.368 80.714 296.352 83.1155 293.037 85.2215C289.721 87.3275 288.212 96.0435 289.418 100.252C290.624 104.461 291.83 108.972 286.692 111.978C281.554 114.984 282.181 121.295 286.106 125.503C290.031 129.712 294.25 125.503 297.568 125.503C300.887 125.503 303.743 126.254 305.099 126.404Z" fill="#008E39"/>
<path d="M309.178 112.429C307.614 113.72 305.406 115.632 303.358 117.637C303.017 112.541 302.676 107.107 302.455 101.957C303.678 98.6318 304.554 98.0442 305.082 97.3852C305.685 96.6311 310.193 92.1237 308.087 93.625C306.384 94.8377 303.419 97.9525 302.339 99.104C302.216 95.8057 302.141 92.6739 302.141 89.8852C302.141 88.4722 301.548 98.8085 300.84 110.476C299.426 108.965 295.03 104.332 292.546 102.558C289.561 100.422 295.954 106.825 296.812 107.891C297.569 108.839 298.829 109.681 300.591 114.515C299.889 125.908 299.126 140.235 298.731 142.582L305.126 142.864C305.126 142.864 304.305 130.945 303.521 119.97C304.107 118.859 305.338 117.08 307.9 114.563C313.87 108.693 309.73 111.984 309.178 112.429Z" fill="#F4F4F4"/>
<path d="M304.019 73.5095C304.901 74.0394 306.367 75.4117 306.08 78.642C306.071 78.7555 306.031 78.8644 305.964 78.9568C305.897 79.0493 305.806 79.1219 305.701 79.167C305.596 79.212 305.481 79.2277 305.368 79.2124C305.254 79.1971 305.147 79.1514 305.058 79.0802C303.913 78.197 302.159 76.3628 303.109 73.822C303.141 73.7357 303.191 73.6576 303.257 73.5932C303.323 73.5289 303.402 73.48 303.49 73.45C303.577 73.4201 303.669 73.4099 303.761 73.4202C303.853 73.4305 303.941 73.461 304.019 73.5095Z" fill="#007F36"/>
<path d="M295.681 87.7011C296.042 86.7398 297.132 85.0551 300.369 84.7493C300.482 84.7393 300.595 84.7595 300.697 84.8079C300.799 84.8563 300.886 84.9311 300.949 85.0244C301.012 85.1178 301.049 85.2263 301.055 85.3387C301.062 85.451 301.038 85.563 300.986 85.6631C300.322 86.9436 298.816 88.9987 296.151 88.5265C296.062 88.5098 295.978 88.474 295.904 88.4215C295.83 88.369 295.769 88.3011 295.724 88.2225C295.679 88.144 295.652 88.0566 295.645 87.9666C295.637 87.8765 295.65 87.7859 295.681 87.7011Z" fill="#007F36"/>
<path d="M314.152 91.8315C314.578 92.7656 315.001 94.7221 312.926 97.2221C312.854 97.3085 312.76 97.3739 312.654 97.4116C312.548 97.4493 312.433 97.4578 312.323 97.4363C312.212 97.4147 312.11 97.3639 312.026 97.2892C311.942 97.2144 311.879 97.1185 311.846 97.0115C311.406 95.6358 311.011 93.1222 313.232 91.5767C313.308 91.526 313.393 91.4922 313.483 91.4776C313.572 91.463 313.664 91.468 313.751 91.4923C313.839 91.5165 313.92 91.5594 313.989 91.6179C314.058 91.6765 314.114 91.7494 314.152 91.8315Z" fill="#007F36"/>
<path d="M305.913 104.145C305.487 103.211 305.061 101.251 307.136 98.7541C307.208 98.6677 307.302 98.6022 307.408 98.5645C307.514 98.5269 307.629 98.5183 307.739 98.5399C307.85 98.5614 307.952 98.6122 308.036 98.687C308.12 98.7617 308.182 98.8576 308.216 98.9647C308.656 100.323 309.051 102.854 306.833 104.399C306.758 104.451 306.673 104.485 306.583 104.5C306.493 104.515 306.401 104.51 306.314 104.486C306.226 104.461 306.145 104.418 306.075 104.359C306.006 104.301 305.951 104.227 305.913 104.145Z" fill="#007F36"/>
<path d="M297.811 99.644C296.915 100.147 294.993 100.738 292.318 98.8933C292.226 98.829 292.152 98.7412 292.106 98.639C292.059 98.5368 292.04 98.4241 292.052 98.3124C292.064 98.2007 292.106 98.0943 292.173 98.0041C292.24 97.9139 292.33 97.8433 292.434 97.7996C293.769 97.2459 296.25 96.6379 297.984 98.7099C298.042 98.7799 298.083 98.8615 298.106 98.9492C298.129 99.0368 298.132 99.1282 298.115 99.2172C298.099 99.3061 298.063 99.3904 298.01 99.4641C297.958 99.5379 297.89 99.5992 297.811 99.644Z" fill="#007F36"/>
<path d="M308.568 90.2656C307.631 89.8444 306.012 88.6522 305.913 85.4117C305.91 85.2994 305.937 85.1883 305.992 85.0901C306.046 84.9919 306.126 84.9101 306.224 84.8534C306.321 84.7968 306.432 84.7673 306.545 84.7681C306.657 84.7689 306.768 84.8 306.864 84.858C308.104 85.5985 310.067 87.2357 309.426 89.8478C309.404 89.9356 309.362 90.0174 309.305 90.0877C309.248 90.1579 309.176 90.2149 309.094 90.2547C309.012 90.2944 308.923 90.316 308.832 90.3178C308.741 90.3197 308.651 90.3019 308.568 90.2656Z" fill="#007F36"/>
<path d="M314.895 119.688C314.783 118.669 314.997 116.675 317.754 114.953C317.849 114.895 317.959 114.862 318.071 114.86C318.183 114.858 318.293 114.885 318.391 114.939C318.489 114.993 318.57 115.073 318.627 115.169C318.684 115.265 318.714 115.375 318.715 115.486C318.698 116.927 318.282 119.44 315.686 120.211C315.599 120.236 315.508 120.242 315.419 120.228C315.33 120.214 315.244 120.181 315.169 120.132C315.094 120.082 315.031 120.016 314.983 119.94C314.936 119.863 314.906 119.777 314.895 119.688Z" fill="#007F36"/>
<path d="M294.165 116.427C293.204 116.067 291.514 114.98 291.207 111.753C291.196 111.641 291.216 111.529 291.264 111.427C291.312 111.325 291.387 111.238 291.48 111.175C291.574 111.112 291.682 111.076 291.795 111.069C291.908 111.063 292.02 111.087 292.12 111.139C293.408 111.801 295.47 113.299 294.996 115.959C294.979 116.047 294.943 116.132 294.89 116.205C294.837 116.279 294.768 116.34 294.689 116.384C294.61 116.429 294.522 116.456 294.432 116.463C294.341 116.471 294.25 116.458 294.165 116.427Z" fill="#007F36"/>
<path d="M312.711 104.838C313.713 105.058 315.539 105.901 316.296 109.053C316.322 109.163 316.317 109.277 316.284 109.385C316.25 109.492 316.188 109.588 316.104 109.664C316.02 109.739 315.917 109.791 315.807 109.813C315.696 109.835 315.581 109.827 315.475 109.79C314.112 109.311 311.856 108.115 311.955 105.418C311.959 105.328 311.982 105.239 312.024 105.159C312.066 105.078 312.125 105.008 312.197 104.952C312.269 104.897 312.353 104.858 312.442 104.838C312.53 104.818 312.622 104.818 312.711 104.838Z" fill="#007F36"/>
<path d="M306.762 122.13C307.123 121.169 308.213 119.484 311.45 119.182C311.563 119.171 311.676 119.191 311.778 119.239C311.88 119.287 311.967 119.361 312.03 119.454C312.093 119.548 312.13 119.656 312.137 119.768C312.143 119.881 312.119 119.993 312.067 120.092C311.403 121.373 309.896 123.431 307.232 122.956C307.143 122.94 307.058 122.904 306.984 122.852C306.91 122.799 306.848 122.731 306.803 122.653C306.758 122.574 306.731 122.486 306.724 122.396C306.717 122.306 306.73 122.215 306.762 122.13Z" fill="#007F36"/>
<path d="M295.183 122.412C294.373 123.044 292.563 123.917 289.64 122.497C289.538 122.448 289.452 122.373 289.39 122.279C289.328 122.185 289.292 122.076 289.287 121.964C289.282 121.851 289.307 121.74 289.36 121.641C289.413 121.541 289.492 121.458 289.589 121.4C290.825 120.649 293.183 119.675 295.211 121.461C295.279 121.522 295.332 121.596 295.369 121.679C295.405 121.762 295.422 121.852 295.419 121.943C295.417 122.034 295.394 122.123 295.353 122.204C295.313 122.285 295.255 122.356 295.183 122.412Z" fill="#007F36"/>
<path d="M301.017 124.97C300.995 124.969 300.974 124.961 300.957 124.946C300.941 124.931 300.931 124.911 300.928 124.889C300.853 124.039 300.85 122.949 300.85 122.939C300.847 122.926 300.848 122.912 300.851 122.899C300.854 122.886 300.861 122.873 300.869 122.863C300.878 122.853 300.889 122.844 300.901 122.838C300.913 122.833 300.927 122.83 300.94 122.83C300.954 122.83 300.967 122.833 300.979 122.838C300.992 122.844 301.003 122.853 301.011 122.863C301.02 122.873 301.026 122.886 301.029 122.899C301.033 122.912 301.033 122.926 301.03 122.939C301.03 122.939 301.03 124.033 301.109 124.872C301.11 124.895 301.102 124.918 301.087 124.937C301.072 124.955 301.051 124.967 301.027 124.97H301.017Z" fill="#F9C5CE"/>
<path d="M302.802 132.939C302.78 132.939 302.758 132.931 302.742 132.915C302.725 132.9 302.715 132.88 302.714 132.857C302.635 132.008 302.635 130.918 302.635 130.908C302.635 130.896 302.637 130.884 302.641 130.873C302.645 130.862 302.652 130.852 302.66 130.843C302.668 130.834 302.678 130.828 302.689 130.823C302.7 130.818 302.712 130.816 302.724 130.816C302.748 130.817 302.77 130.827 302.787 130.844C302.803 130.861 302.813 130.884 302.813 130.908C302.813 130.908 302.813 132.001 302.891 132.84C302.893 132.864 302.885 132.888 302.87 132.906C302.855 132.925 302.833 132.936 302.809 132.939H302.802Z" fill="#F9C5CE"/>
<path d="M300.257 141.495C300.234 141.495 300.213 141.487 300.196 141.472C300.18 141.457 300.17 141.436 300.168 141.414C300.09 140.568 300.09 139.474 300.09 139.464C300.094 139.443 300.105 139.424 300.122 139.411C300.138 139.397 300.159 139.39 300.18 139.39C300.201 139.39 300.222 139.397 300.239 139.411C300.255 139.424 300.266 139.443 300.27 139.464C300.27 139.464 300.27 140.558 300.345 141.4C300.347 141.412 300.346 141.424 300.342 141.435C300.339 141.446 300.333 141.457 300.326 141.466C300.318 141.475 300.308 141.482 300.298 141.487C300.287 141.492 300.275 141.495 300.264 141.495H300.257Z" fill="#F9C5CE"/>
<path d="M302.489 127.035C302.477 127.034 302.465 127.031 302.454 127.026C302.444 127.02 302.434 127.013 302.427 127.004C302.419 126.994 302.413 126.984 302.41 126.972C302.406 126.961 302.405 126.949 302.407 126.937C302.482 126.098 302.485 125.014 302.485 125.004C302.485 124.981 302.495 124.958 302.511 124.942C302.528 124.925 302.55 124.916 302.574 124.916C302.597 124.916 302.62 124.925 302.636 124.942C302.653 124.958 302.662 124.981 302.662 125.004C302.662 125.004 302.662 126.105 302.584 126.954C302.584 126.966 302.581 126.977 302.576 126.988C302.571 126.998 302.563 127.008 302.554 127.016C302.545 127.023 302.535 127.029 302.524 127.032C302.512 127.036 302.5 127.037 302.489 127.035Z" fill="#F9C5CE"/>
<path d="M300.935 135.418C300.923 135.418 300.911 135.414 300.901 135.409C300.89 135.403 300.881 135.396 300.873 135.387C300.865 135.377 300.86 135.367 300.856 135.355C300.853 135.344 300.852 135.332 300.853 135.32C300.928 134.481 300.932 133.397 300.932 133.387C300.931 133.375 300.933 133.364 300.937 133.353C300.942 133.342 300.948 133.332 300.956 133.324C300.965 133.315 300.975 133.309 300.986 133.305C300.997 133.3 301.008 133.298 301.02 133.299C301.044 133.299 301.066 133.308 301.083 133.325C301.099 133.341 301.109 133.364 301.109 133.387C301.109 133.387 301.109 134.488 301.03 135.337C301.03 135.349 301.027 135.36 301.022 135.371C301.017 135.382 301.01 135.391 301.001 135.399C300.992 135.406 300.981 135.412 300.97 135.415C300.959 135.419 300.947 135.42 300.935 135.418Z" fill="#F9C5CE"/>
<path d="M301.978 137.878C301.966 137.877 301.955 137.874 301.944 137.868C301.934 137.863 301.924 137.856 301.917 137.847C301.909 137.838 301.903 137.828 301.9 137.817C301.896 137.806 301.895 137.794 301.896 137.783C301.971 136.94 301.974 135.857 301.974 135.846C301.974 135.823 301.983 135.801 302 135.784C302.017 135.767 302.039 135.758 302.063 135.758C302.086 135.758 302.109 135.767 302.125 135.784C302.142 135.801 302.151 135.823 302.151 135.846C302.151 135.846 302.151 136.95 302.073 137.796C302.073 137.808 302.07 137.82 302.065 137.83C302.06 137.841 302.052 137.85 302.043 137.858C302.034 137.866 302.024 137.871 302.013 137.875C302.001 137.878 301.989 137.879 301.978 137.878Z" fill="#F9C5CE"/>
<path d="M303.613 140.649C303.59 140.647 303.569 140.636 303.553 140.618C303.538 140.6 303.53 140.578 303.531 140.554C303.61 139.712 303.61 138.628 303.61 138.618C303.614 138.597 303.625 138.579 303.642 138.565C303.658 138.551 303.679 138.544 303.7 138.544C303.721 138.544 303.742 138.551 303.758 138.565C303.775 138.579 303.786 138.597 303.79 138.618C303.79 138.618 303.79 139.722 303.712 140.571C303.709 140.594 303.696 140.615 303.678 140.63C303.66 140.644 303.636 140.651 303.613 140.649Z" fill="#F9C5CE"/>
<path d="M301.235 130.894C301.212 130.891 301.19 130.88 301.175 130.863C301.16 130.845 301.152 130.822 301.153 130.799C301.231 129.956 301.231 128.873 301.231 128.863C301.235 128.842 301.247 128.823 301.263 128.81C301.28 128.796 301.3 128.789 301.322 128.789C301.343 128.789 301.364 128.796 301.38 128.81C301.397 128.823 301.408 128.842 301.412 128.863C301.412 128.863 301.412 129.963 301.334 130.812C301.331 130.836 301.319 130.858 301.301 130.873C301.282 130.888 301.259 130.896 301.235 130.894Z" fill="#F9C5CE"/>
<path d="M302.264 110.785C302.253 110.786 302.242 110.784 302.231 110.78C302.221 110.776 302.211 110.77 302.203 110.763C302.195 110.755 302.188 110.746 302.183 110.736C302.179 110.726 302.176 110.715 302.176 110.704C302.097 109.855 302.097 108.764 302.097 108.754C302.097 108.731 302.107 108.708 302.123 108.692C302.14 108.675 302.162 108.666 302.186 108.666C302.209 108.666 302.232 108.675 302.248 108.692C302.265 108.708 302.274 108.731 302.274 108.754C302.274 108.754 302.274 109.848 302.353 110.687C302.354 110.699 302.353 110.711 302.35 110.722C302.346 110.734 302.341 110.744 302.333 110.754C302.325 110.763 302.316 110.77 302.305 110.776C302.295 110.781 302.283 110.784 302.271 110.785H302.264Z" fill="#F9C5CE"/>
<path d="M300.492 112.266C300.475 112.267 300.459 112.262 300.444 112.254C300.43 112.245 300.418 112.233 300.41 112.219C300.018 111.461 299.603 110.452 299.599 110.442C299.595 110.431 299.593 110.42 299.593 110.408C299.593 110.396 299.596 110.385 299.6 110.374C299.605 110.363 299.612 110.353 299.621 110.345C299.629 110.337 299.639 110.331 299.65 110.327C299.661 110.322 299.672 110.319 299.684 110.319C299.696 110.319 299.708 110.321 299.719 110.325C299.729 110.33 299.739 110.336 299.747 110.345C299.756 110.353 299.762 110.363 299.766 110.374C299.766 110.374 300.182 111.393 300.57 112.137C300.576 112.147 300.58 112.159 300.581 112.17C300.582 112.182 300.581 112.194 300.578 112.205C300.574 112.216 300.568 112.226 300.561 112.235C300.553 112.244 300.543 112.251 300.533 112.256L300.492 112.266Z" fill="#F9C5CE"/>
<path d="M301.944 106.461C301.921 106.461 301.9 106.453 301.883 106.438C301.867 106.423 301.857 106.402 301.855 106.38C301.777 105.531 301.777 104.44 301.777 104.43C301.781 104.409 301.792 104.39 301.809 104.377C301.825 104.363 301.846 104.356 301.867 104.356C301.888 104.356 301.909 104.363 301.926 104.377C301.942 104.39 301.953 104.409 301.957 104.43C301.957 104.43 301.957 105.524 302.036 106.366C302.037 106.389 302.029 106.412 302.014 106.43C301.999 106.447 301.977 106.459 301.954 106.461H301.944Z" fill="#F9C5CE"/>
<path d="M301.954 101.482H301.927C301.905 101.473 301.887 101.457 301.876 101.437C301.866 101.416 301.863 101.392 301.869 101.37C302.131 100.558 302.55 99.5523 302.55 99.5421C302.559 99.5205 302.576 99.5033 302.598 99.4944C302.62 99.4855 302.644 99.4855 302.666 99.4946C302.688 99.5036 302.705 99.5208 302.714 99.5425C302.723 99.5641 302.723 99.5884 302.714 99.61C302.714 99.61 302.288 100.629 302.032 101.424C302.026 101.44 302.015 101.454 302.001 101.464C301.987 101.474 301.971 101.48 301.954 101.482Z" fill="#F9C5CE"/>
<path d="M301.439 119.794C301.417 119.794 301.396 119.785 301.379 119.77C301.363 119.755 301.353 119.734 301.351 119.712C301.272 118.863 301.272 117.772 301.272 117.762C301.277 117.741 301.288 117.723 301.304 117.709C301.321 117.696 301.341 117.688 301.363 117.688C301.384 117.688 301.405 117.696 301.421 117.709C301.438 117.723 301.449 117.741 301.453 117.762C301.453 117.762 301.453 118.856 301.528 119.695C301.529 119.707 301.528 119.719 301.525 119.73C301.522 119.742 301.516 119.752 301.508 119.762C301.501 119.771 301.491 119.778 301.481 119.784C301.47 119.789 301.458 119.793 301.446 119.794H301.439Z" fill="#F9C5CE"/>
<path d="M303.297 119.169C303.281 119.172 303.265 119.172 303.249 119.169C303.239 119.162 303.23 119.154 303.223 119.144C303.216 119.134 303.211 119.123 303.208 119.112C303.206 119.1 303.205 119.088 303.208 119.076C303.21 119.064 303.215 119.053 303.222 119.043C303.682 118.326 304.349 117.463 304.356 117.453C304.372 117.435 304.393 117.424 304.416 117.421C304.439 117.418 304.463 117.423 304.482 117.436C304.498 117.453 304.507 117.476 304.507 117.499C304.507 117.522 304.498 117.545 304.482 117.562C304.482 117.562 303.801 118.428 303.355 119.138C303.34 119.155 303.319 119.166 303.297 119.169Z" fill="#F9C5CE"/>
<path d="M301.606 114.844C301.583 114.842 301.562 114.831 301.547 114.813C301.531 114.795 301.523 114.773 301.524 114.749C301.603 113.907 301.603 112.827 301.603 112.813C301.607 112.792 301.618 112.773 301.635 112.76C301.651 112.746 301.672 112.739 301.693 112.739C301.715 112.739 301.735 112.746 301.752 112.76C301.768 112.773 301.779 112.792 301.783 112.813C301.783 112.813 301.783 113.917 301.705 114.766C301.701 114.789 301.689 114.81 301.67 114.824C301.652 114.838 301.629 114.846 301.606 114.844Z" fill="#F9C5CE"/>
<path d="M302.216 122.205C302.193 122.203 302.171 122.191 302.155 122.172C302.14 122.154 302.133 122.13 302.135 122.107C302.213 121.268 302.213 120.184 302.213 120.174C302.217 120.153 302.228 120.134 302.245 120.121C302.261 120.107 302.282 120.1 302.303 120.1C302.325 120.1 302.345 120.107 302.362 120.121C302.378 120.134 302.389 120.153 302.394 120.174C302.394 120.174 302.394 121.274 302.315 122.124C302.314 122.136 302.311 122.147 302.306 122.158C302.3 122.168 302.293 122.178 302.283 122.185C302.274 122.193 302.263 122.199 302.252 122.202C302.24 122.206 302.228 122.207 302.216 122.205Z" fill="#F9C5CE"/>
<path d="M302.516 117.681C302.504 117.68 302.492 117.677 302.482 117.671C302.471 117.666 302.462 117.658 302.454 117.649C302.446 117.64 302.441 117.629 302.437 117.618C302.434 117.606 302.433 117.594 302.434 117.582C302.509 116.743 302.513 115.66 302.513 115.649C302.512 115.638 302.514 115.626 302.518 115.615C302.523 115.604 302.529 115.594 302.537 115.586C302.546 115.578 302.556 115.571 302.567 115.567C302.578 115.563 302.589 115.561 302.601 115.561C302.625 115.561 302.647 115.57 302.664 115.587C302.68 115.604 302.69 115.626 302.69 115.649C302.69 115.649 302.69 116.75 302.611 117.599C302.611 117.611 302.608 117.623 302.603 117.633C302.598 117.644 302.591 117.653 302.582 117.661C302.573 117.669 302.562 117.674 302.551 117.678C302.54 117.681 302.528 117.682 302.516 117.681Z" fill="#F9C5CE"/>
<path d="M312.997 116.383C313.564 116.383 314.023 115.925 314.023 115.361C314.023 114.796 313.564 114.338 312.997 114.338C312.431 114.338 311.972 114.796 311.972 115.361C311.972 115.925 312.431 116.383 312.997 116.383Z" fill="#F7A1BC"/>
<path d="M311.75 101.947C312.317 101.947 312.776 101.489 312.776 100.925C312.776 100.36 312.317 99.9022 311.75 99.9022C311.184 99.9022 310.725 100.36 310.725 100.925C310.725 101.489 311.184 101.947 311.75 101.947Z" fill="#F7A1BC"/>
<path d="M297.224 119.321C297.791 119.321 298.25 118.864 298.25 118.299C298.25 117.734 297.791 117.276 297.224 117.276C296.658 117.276 296.199 117.734 296.199 118.299C296.199 118.864 296.658 119.321 297.224 119.321Z" fill="#F7A1BC"/>
<path d="M295.981 93.9816C296.547 93.9816 297.006 93.5239 297.006 92.9592C297.006 92.3945 296.547 91.9368 295.981 91.9368C295.414 91.9368 294.955 92.3945 294.955 92.9592C294.955 93.5239 295.414 93.9816 295.981 93.9816Z" fill="#F7A1BC"/>
<path d="M303.456 83.2717C304.023 83.2717 304.482 82.814 304.482 82.2493C304.482 81.6847 304.023 81.2269 303.456 81.2269C302.89 81.2269 302.431 81.6847 302.431 82.2493C302.431 82.814 302.89 83.2717 303.456 83.2717Z" fill="#F7A1BC"/>
<path d="M258.305 145H262.533C262.533 145 264.448 139.534 268.194 136.724C271.94 133.913 274.337 130.242 272.183 127.119C270.029 123.996 257.827 130.085 258.305 145Z" fill="#0D562A"/>
<path d="M261.206 142.394C261.178 142.395 261.15 142.391 261.124 142.383C261.081 142.372 261.041 142.354 261.006 142.328C260.971 142.302 260.941 142.27 260.918 142.233C260.896 142.196 260.881 142.155 260.875 142.113C260.869 142.07 260.872 142.027 260.883 141.985C263.048 133.771 269.949 129.602 270.019 129.561C270.094 129.516 270.186 129.502 270.272 129.523C270.358 129.544 270.432 129.597 270.478 129.671C270.524 129.745 270.538 129.835 270.517 129.919C270.496 130.003 270.441 130.076 270.366 130.121C270.299 130.161 263.626 134.2 261.53 142.148C261.512 142.219 261.47 142.281 261.412 142.326C261.353 142.37 261.281 142.395 261.206 142.394Z" fill="#007F36"/>
<path d="M260.778 145C260.778 145 267.48 129.851 266.602 122.745C265.724 115.64 263.491 114 261.098 114C258.704 114 255.434 121.184 257.193 131.491C258.952 141.797 258.309 145 258.309 145H260.778Z" fill="#007F36"/>
<path d="M260.488 139.756C260.465 139.755 260.443 139.753 260.421 139.749C260.334 139.731 260.258 139.681 260.209 139.608C260.16 139.536 260.142 139.447 260.16 139.362C262.461 128.365 261.693 118.706 261.682 118.609C261.676 118.524 261.704 118.441 261.761 118.376C261.817 118.311 261.897 118.271 261.983 118.263C262.027 118.258 262.071 118.263 262.113 118.276C262.155 118.289 262.194 118.31 262.228 118.338C262.261 118.366 262.289 118.4 262.309 118.439C262.328 118.477 262.34 118.519 262.343 118.562C262.352 118.659 263.128 128.412 260.81 139.499C260.794 139.57 260.753 139.635 260.694 139.682C260.636 139.728 260.563 139.754 260.488 139.756Z" fill="#48B574"/>
<path d="M258.305 145C258.305 145 256.708 139.534 252.8 135.942C248.893 132.35 241.596 125.61 246.819 120.793C252.323 115.718 258.544 124.151 260.219 131.803C261.732 138.71 260.778 145 260.778 145H258.305Z" fill="#0D562A"/>
<path d="M259.648 143.861C259.562 143.86 259.48 143.828 259.418 143.771C259.356 143.713 259.318 143.634 259.314 143.551C258.644 131.576 250.401 125.591 250.319 125.533C250.28 125.509 250.247 125.477 250.222 125.44C250.196 125.404 250.178 125.362 250.17 125.318C250.161 125.274 250.162 125.229 250.172 125.185C250.182 125.142 250.201 125.101 250.227 125.064C250.254 125.028 250.288 124.998 250.327 124.975C250.366 124.952 250.41 124.937 250.455 124.931C250.5 124.925 250.546 124.929 250.59 124.941C250.634 124.953 250.675 124.974 250.71 125.002C250.796 125.063 259.293 131.216 259.981 143.515C259.984 143.558 259.978 143.601 259.963 143.642C259.949 143.682 259.926 143.72 259.897 143.752C259.868 143.784 259.832 143.81 259.793 143.829C259.753 143.847 259.71 143.858 259.666 143.861H259.648Z" fill="#17994C"/>
<path d="M254.093 121.881C254.815 121.881 255.4 121.308 255.4 120.601C255.4 119.894 254.815 119.321 254.093 119.321C253.37 119.321 252.785 119.894 252.785 120.601C252.785 121.308 253.37 121.881 254.093 121.881Z" fill="#F9C5CE"/>
<path d="M256.169 118.19C256.667 118.19 257.071 117.795 257.071 117.308C257.071 116.82 256.667 116.425 256.169 116.425C255.672 116.425 255.268 116.82 255.268 117.308C255.268 117.795 255.672 118.19 256.169 118.19Z" fill="#F9C5CE"/>
<path d="M269.014 127.715C269.736 127.715 270.322 127.142 270.322 126.435C270.322 125.728 269.736 125.155 269.014 125.155C268.292 125.155 267.706 125.728 267.706 126.435C267.706 127.142 268.292 127.715 269.014 127.715Z" fill="#F9C5CE"/>
</g>
<defs>
<clipPath id="clip0">
<rect width="375" height="140" fill="white"/>
</clipPath>
<clipPath id="clip1">
<rect width="92" height="125" fill="white" transform="translate(142 18)"/>
</clipPath>
<clipPath id="clip2">
<rect width="33" height="71" fill="white" transform="translate(198 75)"/>
</clipPath>
<clipPath id="clip3">
<rect width="53" height="109" fill="white" transform="translate(310 37)"/>
</clipPath>
</defs>
</svg>
