<svg width="375" height="140" viewBox="0 0 375 140" fill="none" xmlns="http://www.w3.org/2000/svg">
<g clip-path="url(#clip0)">
<path d="M114 0H429V140H114V0Z" fill="#007F36"/>
<path d="M114 32C114 14.3269 128.327 0 146 0H397C414.673 0 429 14.3269 429 32V140H114V32Z" fill="#4BA36F"/>
<g clip-path="url(#clip1)">
<path d="M284.486 147.001H288.775C288.775 147.001 288.481 137.543 299.681 125.73C310.881 113.918 312.501 99.2188 309.994 96.7402C307.487 94.2615 302.334 94.7018 298.942 98.0447C298.942 98.0447 307.49 87.2822 304.837 74.5923C302.185 61.9023 290.84 74.1552 289.072 79.6898C289.072 79.6898 288.481 54.6328 271.976 61.0446C255.471 67.4564 263.135 91.3459 263.135 91.3459C263.135 91.3459 257.372 88.1465 254.719 94.2648C252.067 100.383 256.639 111.162 270.34 121.944C284.041 132.726 284.486 147.001 284.486 147.001Z" fill="#F9C5CE"/>
<path d="M305.992 101.573C305.955 101.513 305.907 101.462 305.85 101.421C305.793 101.381 305.728 101.352 305.66 101.336C305.592 101.32 305.521 101.318 305.451 101.329C305.382 101.341 305.316 101.366 305.256 101.403C296.125 107.045 291.368 118.519 288.986 127.168C288.21 129.982 287.63 132.683 287.198 135.09C287.597 88.2108 299.952 77.1091 300.087 76.995C300.195 76.9042 300.262 76.7746 300.273 76.6349C300.285 76.4951 300.24 76.3566 300.148 76.2498C300.056 76.1429 299.925 76.0766 299.784 76.0653C299.642 76.0539 299.502 76.0986 299.394 76.1894C298.889 76.633 288.392 85.9278 286.432 124.428C282.978 74.5653 271.508 68.7437 270.97 68.4991C270.841 68.4399 270.694 68.4336 270.561 68.4816C270.427 68.5296 270.319 68.628 270.259 68.7552C270.199 68.8823 270.193 69.0278 270.241 69.1596C270.29 69.2914 270.389 69.3987 270.518 69.458C270.554 69.4775 274.031 71.2354 277.683 80.9673C280.936 89.6262 284.964 106.487 286.05 137.946C278.373 110.453 260.36 98.3993 260.169 98.2753C260.051 98.201 259.908 98.1754 259.771 98.2041C259.634 98.2329 259.514 98.3136 259.436 98.429C259.359 98.5444 259.331 98.6852 259.357 98.8212C259.384 98.9571 259.463 99.0773 259.578 99.1559C259.628 99.1885 264.58 102.466 270.3 109.436C275.579 115.864 282.609 126.842 286.135 142.636C286.017 143.885 285.977 144.613 285.974 144.636C285.97 144.705 285.98 144.774 286.004 144.84C286.028 144.905 286.064 144.965 286.111 145.017C286.159 145.068 286.216 145.11 286.279 145.14C286.343 145.17 286.412 145.187 286.482 145.19H286.508C286.645 145.19 286.778 145.138 286.877 145.045C286.977 144.951 287.036 144.823 287.043 144.688C287.043 144.362 288.857 112.775 305.82 102.29C305.938 102.216 306.022 102.1 306.054 101.966C306.086 101.832 306.064 101.691 305.992 101.573Z" fill="#F4F4F4"/>
<path d="M261.152 108.826C262.122 109.657 264.349 111.017 267.552 109.684C267.635 109.648 267.707 109.593 267.763 109.522C267.818 109.452 267.855 109.369 267.869 109.281C267.884 109.193 267.876 109.103 267.846 109.019C267.816 108.935 267.765 108.859 267.697 108.8C266.708 107.922 264.458 106.481 261.274 107.942C261.192 107.979 261.121 108.036 261.068 108.107C261.014 108.179 260.98 108.263 260.968 108.351C260.955 108.439 260.966 108.529 260.998 108.612C261.03 108.695 261.083 108.768 261.152 108.826Z" fill="#48B574"/>
<path d="M294.888 104.002C294.063 104.981 292.727 107.198 294.126 110.342C294.163 110.424 294.221 110.494 294.294 110.548C294.366 110.601 294.451 110.636 294.541 110.649C294.63 110.661 294.722 110.652 294.807 110.62C294.891 110.589 294.967 110.537 295.026 110.469C295.894 109.491 297.316 107.231 295.785 104.107C295.745 104.027 295.686 103.958 295.613 103.907C295.539 103.855 295.454 103.823 295.365 103.813C295.276 103.802 295.185 103.814 295.102 103.847C295.019 103.88 294.945 103.934 294.888 104.002Z" fill="#48B574"/>
<path d="M301.337 116.669C300.226 116.033 297.778 115.11 294.888 117.012C294.813 117.062 294.753 117.13 294.712 117.21C294.671 117.289 294.651 117.377 294.653 117.466C294.655 117.555 294.68 117.643 294.725 117.72C294.77 117.797 294.834 117.862 294.911 117.909C296.039 118.587 298.54 119.585 301.383 117.56C301.456 117.508 301.514 117.439 301.553 117.359C301.592 117.279 301.609 117.191 301.605 117.102C301.6 117.014 301.573 116.928 301.527 116.852C301.48 116.777 301.415 116.714 301.337 116.669Z" fill="#48B574"/>
<path d="M266.117 96.2402C265.54 97.3719 264.748 99.8277 266.836 102.584C266.891 102.655 266.963 102.711 267.046 102.747C267.128 102.784 267.219 102.799 267.309 102.791C267.399 102.784 267.486 102.754 267.561 102.704C267.637 102.655 267.698 102.588 267.74 102.509C268.36 101.354 269.225 98.8395 267.014 96.1391C266.957 96.0705 266.884 96.0171 266.801 95.9837C266.718 95.9504 266.627 95.9382 266.538 95.9482C266.449 95.9583 266.363 95.9903 266.29 96.0413C266.216 96.0923 266.157 96.1607 266.117 96.2402Z" fill="#48B574"/>
<path d="M275.114 106.771C274.533 107.903 273.745 110.359 275.829 113.114C275.884 113.186 275.956 113.242 276.039 113.278C276.122 113.315 276.212 113.33 276.302 113.322C276.392 113.315 276.479 113.285 276.554 113.235C276.63 113.186 276.691 113.119 276.733 113.039C277.354 111.885 278.221 109.37 276.011 106.67C275.954 106.601 275.88 106.548 275.797 106.515C275.714 106.481 275.624 106.469 275.534 106.479C275.445 106.489 275.36 106.521 275.286 106.572C275.213 106.623 275.154 106.692 275.114 106.771Z" fill="#48B574"/>
<path d="M307.223 106.22C306.019 105.78 303.452 105.284 300.928 107.642C300.863 107.704 300.816 107.781 300.789 107.867C300.762 107.952 300.757 108.042 300.775 108.13C300.793 108.218 300.832 108.299 300.89 108.368C300.948 108.436 301.022 108.49 301.106 108.522C302.337 109.002 304.963 109.566 307.424 107.091C307.487 107.027 307.532 106.949 307.557 106.863C307.581 106.778 307.583 106.688 307.563 106.601C307.543 106.514 307.501 106.434 307.442 106.368C307.383 106.301 307.307 106.25 307.223 106.22Z" fill="#48B574"/>
<path d="M272.125 85.3799C272.936 86.3583 274.902 88.0737 278.284 87.2943C278.372 87.2736 278.453 87.2313 278.52 87.1713C278.588 87.1113 278.638 87.0355 278.668 86.9509C278.698 86.8664 278.705 86.7758 278.69 86.6876C278.675 86.5994 278.637 86.5164 278.581 86.4463C277.753 85.419 275.773 83.622 272.395 84.5286C272.309 84.5523 272.23 84.5971 272.165 84.6587C272.101 84.7203 272.053 84.797 272.026 84.8816C271.999 84.9662 271.994 85.0561 272.011 85.1431C272.028 85.2301 272.067 85.3115 272.125 85.3799Z" fill="#48B574"/>
<path d="M267.407 73.2476C268.12 74.301 269.904 76.1828 273.345 75.7523C273.435 75.7398 273.52 75.7052 273.592 75.6518C273.664 75.5983 273.722 75.5277 273.759 75.4465C273.797 75.3652 273.813 75.276 273.806 75.1869C273.8 75.0979 273.77 75.0119 273.721 74.937C273.012 73.8346 271.224 71.8517 267.76 72.4257C267.672 72.4409 267.588 72.4778 267.518 72.533C267.448 72.5882 267.392 72.6599 267.357 72.7417C267.322 72.8234 267.308 72.9125 267.317 73.0009C267.326 73.0892 267.357 73.1741 267.407 73.2476Z" fill="#48B574"/>
<path d="M287.848 83.6644C287.689 84.9233 287.785 87.5095 290.685 89.3979C290.761 89.4464 290.848 89.4753 290.938 89.4818C291.028 89.4884 291.118 89.4724 291.2 89.4353C291.282 89.3983 291.354 89.3414 291.408 89.2699C291.462 89.1983 291.497 89.1145 291.509 89.0261C291.701 87.7215 291.658 85.0766 288.659 83.2698C288.582 83.2239 288.495 83.1979 288.405 83.1941C288.315 83.1903 288.225 83.2089 288.144 83.2482C288.064 83.2875 287.994 83.3461 287.942 83.4189C287.89 83.4916 287.858 83.576 287.848 83.6644Z" fill="#48B574"/>
<path d="M282.233 73.3097C282.48 74.5555 282.563 77.1418 279.798 79.2225C279.725 79.2767 279.639 79.3117 279.549 79.324C279.458 79.3363 279.366 79.3257 279.281 79.2931C279.196 79.2604 279.12 79.2069 279.062 79.1375C279.004 79.0681 278.964 78.9851 278.947 78.8964C278.667 77.6212 278.528 74.9828 281.395 72.964C281.469 72.9127 281.555 72.8808 281.645 72.8712C281.735 72.8616 281.826 72.8747 281.91 72.9092C281.994 72.9437 282.067 72.9984 282.123 73.0685C282.18 73.1385 282.217 73.2215 282.233 73.3097Z" fill="#48B574"/>
<path d="M302.439 83.1132C301.736 84.1764 299.968 86.0843 296.521 85.6701C296.431 85.6583 296.346 85.6244 296.273 85.5716C296.201 85.5187 296.143 85.4486 296.104 85.3677C296.066 85.2868 296.049 85.1977 296.055 85.1086C296.061 85.0195 296.09 84.9334 296.138 84.858C296.837 83.7492 298.609 81.75 302.076 82.2979C302.165 82.3114 302.249 82.3469 302.32 82.401C302.391 82.455 302.448 82.526 302.484 82.6072C302.52 82.6885 302.535 82.7774 302.527 82.8659C302.519 82.9543 302.489 83.0394 302.439 83.1132Z" fill="#48B574"/>
</g>
<path d="M324.709 147H332.561C332.561 147 336.117 136.421 343.075 130.981C350.032 125.542 354.483 118.435 350.482 112.391C346.482 106.346 323.822 118.133 324.709 147Z" fill="#0D562A"/>
<path d="M330.098 141.957C330.045 141.957 329.994 141.95 329.944 141.935C329.865 141.914 329.79 141.878 329.725 141.829C329.659 141.779 329.604 141.716 329.563 141.645C329.521 141.573 329.494 141.494 329.482 141.411C329.471 141.329 329.476 141.245 329.496 141.165C333.518 125.267 346.334 117.198 346.463 117.118C346.604 117.031 346.773 117.005 346.933 117.045C347.093 117.085 347.231 117.188 347.316 117.331C347.402 117.475 347.428 117.648 347.389 117.811C347.349 117.974 347.248 118.115 347.107 118.202C346.983 118.279 334.591 126.097 330.699 141.481C330.665 141.617 330.587 141.738 330.478 141.824C330.37 141.911 330.235 141.957 330.098 141.957Z" fill="#007F36"/>
<path d="M329.302 147C329.302 147 341.748 117.679 340.117 103.926C338.486 90.1735 334.34 87 329.895 87C325.45 87 319.377 100.904 322.644 120.853C325.911 140.801 324.717 147 324.717 147H329.302Z" fill="#17994C"/>
<path d="M328.763 136.85C328.721 136.849 328.68 136.845 328.639 136.836C328.478 136.802 328.336 136.704 328.245 136.564C328.154 136.424 328.121 136.253 328.154 136.088C332.427 114.803 331.001 96.1081 330.982 95.9211C330.97 95.7571 331.022 95.5951 331.127 95.4697C331.231 95.3443 331.379 95.2655 331.54 95.2501C331.621 95.2422 331.703 95.2511 331.781 95.2761C331.859 95.3012 331.932 95.342 331.994 95.3961C332.056 95.4502 332.108 95.5165 332.144 95.5911C332.181 95.6657 332.203 95.7471 332.208 95.8304C332.224 96.0174 333.667 114.894 329.362 136.352C329.331 136.491 329.255 136.616 329.147 136.706C329.038 136.797 328.903 136.847 328.763 136.85Z" fill="#48B574"/>
<path d="M324.709 147C324.709 147 321.744 136.421 314.487 129.469C307.23 122.516 293.679 109.47 303.378 100.148C313.6 90.3247 325.154 106.646 328.264 121.458C331.073 134.826 329.302 147 329.302 147H324.709Z" fill="#48B574"/>
<path d="M327.202 144.795C327.044 144.794 326.891 144.732 326.776 144.62C326.66 144.509 326.591 144.357 326.582 144.195C325.34 121.018 310.031 109.435 309.877 109.322C309.806 109.275 309.744 109.214 309.697 109.143C309.65 109.071 309.617 108.991 309.601 108.906C309.585 108.821 309.587 108.734 309.605 108.649C309.623 108.565 309.658 108.485 309.708 108.415C309.757 108.345 309.821 108.286 309.893 108.242C309.966 108.197 310.047 108.169 310.131 108.157C310.215 108.146 310.3 108.152 310.382 108.175C310.463 108.199 310.539 108.239 310.605 108.293C310.764 108.412 326.545 120.322 327.822 144.126C327.827 144.209 327.816 144.293 327.789 144.371C327.762 144.45 327.72 144.522 327.666 144.584C327.612 144.646 327.546 144.697 327.472 144.733C327.399 144.769 327.319 144.79 327.237 144.795H327.202Z" fill="#17994C"/>
<path d="M316.886 102.254C318.227 102.254 319.315 101.145 319.315 99.7767C319.315 98.4082 318.227 97.2989 316.886 97.2989C315.545 97.2989 314.457 98.4082 314.457 99.7767C314.457 101.145 315.545 102.254 316.886 102.254Z" fill="#F9C5CE"/>
<path d="M320.743 95.1097C321.668 95.1097 322.417 94.3452 322.417 93.402C322.417 92.4588 321.668 91.6942 320.743 91.6942C319.819 91.6942 319.069 92.4588 319.069 93.402C319.069 94.3452 319.819 95.1097 320.743 95.1097Z" fill="#F9C5CE"/>
<path d="M344.598 113.546C345.939 113.546 347.027 112.437 347.027 111.068C347.027 109.7 345.939 108.59 344.598 108.59C343.256 108.59 342.169 109.7 342.169 111.068C342.169 112.437 343.256 113.546 344.598 113.546Z" fill="#F9C5CE"/>
</g>
<defs>
<clipPath id="clip0">
<rect width="375" height="140" fill="white"/>
</clipPath>
<clipPath id="clip1">
<rect width="57" height="87" fill="white" transform="translate(254 60)"/>
</clipPath>
</defs>
</svg>
