<svg width="375" height="96" viewBox="0 0 375 96" fill="none" xmlns="http://www.w3.org/2000/svg">
<g clip-path="url(#clip0)">
<path d="M219 32C219 14.3269 233.327 0 251 0H291C308.673 0 323 14.3269 323 32V96H219V32Z" fill="#4BA36F"/>
<path d="M307.991 91.6437C307.991 91.6437 306.686 99.8526 299.211 92.0701C291.736 84.2877 295.481 75.5 285.896 68.6344C276.311 61.7688 295.91 67.0148 301.882 72.459C305.569 76.1355 307.467 76.9743 310.028 84.0135C312.589 91.0528 307.991 91.6437 307.991 91.6437Z" fill="#04963F"/>
<path d="M296.123 74.7812C296.063 74.7383 296.022 74.6732 296.009 74.6001C295.997 74.5271 296.014 74.452 296.056 74.3913C296.077 74.3613 296.104 74.3358 296.135 74.3163C296.166 74.2968 296.201 74.2837 296.237 74.2777C296.273 74.2718 296.31 74.2731 296.345 74.2816C296.381 74.2901 296.414 74.3057 296.444 74.3274C302.826 78.875 307.367 89.3593 308.275 91.5828C308.184 91.6084 308.091 91.6287 307.997 91.6438C307.997 91.6438 307.966 91.8296 307.894 92.1159C307.458 91.0346 302.804 79.5482 296.123 74.7812Z" fill="#007F36"/>
<path d="M321.699 96.9711C321.699 96.9711 322.284 105.649 329.874 100.06C337.464 94.4703 334.478 84.8298 339.156 78.217C343.833 71.6042 345.296 65.1193 342.738 66.3042C340.179 67.4891 328.923 81.8204 322.856 85.7984C316.789 89.7765 314.097 99.8373 321.699 96.9711Z" fill="#04963F"/>
<path d="M324.115 94.5313C324.132 94.5097 324.151 94.4903 324.173 94.4734C324.721 93.9312 325.302 93.3433 325.901 92.7189C325.914 92.6808 325.935 92.6461 325.963 92.6172C325.991 92.5882 326.025 92.5657 326.062 92.5514C327.358 91.1929 328.726 89.679 329.998 88.1164C329.631 87.3367 328.236 84.2602 327.718 81.6833C327.878 81.531 328.021 81.3787 328.196 81.2203C328.593 83.5779 329.886 86.5447 330.385 87.6169C330.821 87.0686 331.239 86.5173 331.639 85.9629C330.921 83.8646 330.315 81.7294 329.822 79.5664L330.291 79.079C330.756 81.2165 331.341 83.3257 332.044 85.3964C333.703 83.0022 334.908 80.6446 335.072 78.6952C335.075 78.6588 335.085 78.6234 335.101 78.5909C335.118 78.5584 335.141 78.5295 335.169 78.5059C335.196 78.4823 335.228 78.4644 335.263 78.4532C335.297 78.4421 335.334 78.4379 335.37 78.4409C335.406 78.4439 335.441 78.454 335.474 78.4707C335.506 78.4874 335.535 78.5104 335.558 78.5382C335.582 78.5661 335.599 78.5983 335.611 78.6331C335.622 78.6679 335.626 78.7045 335.623 78.7409C335.405 81.5097 333.225 85.0004 330.594 88.2779C330.578 88.3132 330.553 88.3437 330.521 88.3662C329.31 89.8648 328.018 91.3177 326.77 92.6306C329.925 93.319 333.734 92.8925 334.845 92.7463C334.781 92.9443 334.718 93.1423 334.651 93.3372C333.383 93.4953 332.108 93.5756 330.83 93.5779C329.315 93.5956 327.803 93.4351 326.325 93.0996C325.823 93.6205 325.329 94.12 324.863 94.5861C328.336 96.0725 332.129 96.0451 333.491 95.9781C333.382 96.173 333.27 96.3649 333.149 96.5568C332.928 96.5568 332.674 96.5568 332.386 96.5568C330.512 96.5568 327.379 96.3131 324.433 94.9973C324.018 95.4054 323.625 95.7862 323.258 96.1334C325.62 98.2077 329.105 99.0515 330.739 99.3469C330.556 99.5053 330.365 99.6607 330.167 99.813C328.336 99.4444 325.129 98.5489 322.853 96.5203C322.449 96.898 322.095 97.2269 321.79 97.5072C321.733 97.1538 321.717 96.9315 321.717 96.9315C321.645 96.9589 321.578 96.9772 321.505 97.0015C322.159 96.4228 323.074 95.5608 324.115 94.5313Z" fill="#007F36"/>
<path d="M305.79 97.1264C305.79 97.1264 314.076 98.1164 307.055 90.4862C300.034 82.856 290.062 80.1725 285.99 78.4759C281.918 76.7793 278.757 74.5192 278.054 76.0056C277.352 77.4921 283.882 81.6559 287.113 87.026C290.343 92.396 297.927 101.507 303.334 101.436C308.302 101.373 305.79 97.1264 305.79 97.1264Z" fill="#0D562A"/>
<path d="M291.146 84.638C298.89 89.1217 305.002 95.4299 306.428 97.1661C306.047 97.1661 305.79 97.1265 305.79 97.1265C305.861 97.2499 305.926 97.377 305.983 97.5072C304.7 95.9842 298.717 89.6669 290.87 85.1314C290.806 85.0939 290.76 85.0326 290.74 84.9607C290.721 84.8889 290.731 84.8124 290.767 84.7476C290.803 84.6826 290.863 84.6345 290.934 84.614C291.005 84.5934 291.081 84.602 291.146 84.638Z" fill="#3CA064"/>
<path d="M313.147 95.9477C313.147 95.9477 314.681 100.961 320.049 96.2035C325.417 91.4457 316.471 86.9468 320.958 82.192C325.444 77.4373 332.462 64.83 331.693 53.7792C330.924 42.7284 329.008 53.7792 320.703 59.9503C312.399 66.1215 308.436 78.4638 308.563 85.6645C308.69 92.8652 305.096 96.4625 306.761 97.8758C308.427 99.2891 312.381 97.8758 313.147 95.9477Z" fill="#0D562A"/>
<path d="M306.683 95.1222C306.752 94.906 306.828 94.6806 306.907 94.443C307.606 95.6614 309.093 96.8402 311.145 97.8179C310.925 97.9271 310.699 98.0227 310.467 98.1043C308.735 97.2209 307.446 96.2127 306.683 95.1222Z" fill="#3CA064"/>
<path d="M307.576 92.3961C309.235 94.1902 311.639 95.2288 312.556 95.5822C312.514 95.0217 312.474 94.3425 312.447 93.5657C310.759 92.9859 309.239 91.995 308.024 90.6812C308.075 90.4528 308.121 90.2182 308.169 89.9806C309.571 91.7686 311.627 92.6672 312.429 92.9626C312.353 89.6943 312.553 85.0431 313.858 80.8792C314.839 77.7388 316.483 75.3965 318.151 73.3679C316.637 70.858 315.599 67.4709 315.123 65.7529C315.26 65.558 315.402 65.3661 315.544 65.1742C315.929 66.6088 316.991 70.2579 318.529 72.9018C318.893 72.4693 319.256 72.0459 319.61 71.6378L320.086 71.0895C319.719 69.6853 318.974 64.1782 318.644 61.6469L319.144 61.184C319.498 63.9071 320.167 68.7989 320.534 70.5534C321.938 68.8933 323.183 67.2424 323.794 65.2717C323.846 65.1437 323.961 64.9305 324.173 64.9975C324.433 65.0767 324.345 65.3783 324.345 65.3783L324.312 65.4879C323.528 67.9734 321.832 69.929 320.037 71.9972C317.939 74.4096 315.777 76.9073 314.518 80.6478C319.492 80.4894 322.244 79.6609 323.298 79.271C323.104 79.5451 322.91 79.8101 322.72 80.0629C321.281 80.5046 318.605 81.0955 314.351 81.2143C314.078 82.1156 313.852 83.0306 313.673 83.9557C315.959 83.8003 319.232 83.2307 320.276 83.0419C320.16 83.2368 320.059 83.4405 319.974 83.6511C318.599 83.8948 315.647 84.3852 313.576 84.5131C313.449 85.2472 313.346 85.9782 313.274 86.7001C315.199 86.7793 318.865 85.8259 319.701 85.6005C319.719 85.7873 319.747 85.9731 319.783 86.1579C318.844 86.4107 315.544 87.2667 313.501 87.2667C313.401 87.2667 313.31 87.2667 313.216 87.2667C312.951 90.1445 312.939 93.0403 313.18 95.9203C313.062 96.1986 312.897 96.4542 312.692 96.6757C312.692 96.5325 312.662 96.3711 312.644 96.1609C311.978 95.9264 309.347 94.9182 307.421 92.9687C307.449 92.8073 307.512 92.6063 307.576 92.3961Z" fill="#3CA064"/>
<path d="M327.954 78.156C327.954 78.156 331.66 79.1125 332.45 77.4067C333.24 75.701 331.675 75.1436 330.903 75.1862C330.903 75.1862 331.487 73.1089 329.731 73.0266C327.191 72.9048 327.954 78.156 327.954 78.156Z" fill="#F9C5CE"/>
<path d="M323.579 81.4488C323.579 81.4488 329.683 80.7513 328.481 74.1019C327.279 67.4526 323.062 74.5253 322.729 76.5387C322.396 78.5521 323.579 81.4488 323.579 81.4488Z" fill="#FC7459"/>
<path d="M323.74 81.4945C323.74 81.4945 327.745 86.1762 332.52 81.4336C337.294 76.691 329.123 77.1692 327.297 78.016C325.472 78.8628 323.74 81.4945 323.74 81.4945Z" fill="#FF8477"/>
<path d="M333.107 75.375C333.455 75.375 333.737 75.0914 333.737 74.7415C333.737 74.3916 333.455 74.1079 333.107 74.1079C332.759 74.1079 332.477 74.3916 332.477 74.7415C332.477 75.0914 332.759 75.375 333.107 75.375Z" fill="#FC7459"/>
<path d="M333.652 73.8217C334 73.8217 334.282 73.538 334.282 73.1881C334.282 72.8382 334 72.5546 333.652 72.5546C333.304 72.5546 333.022 72.8382 333.022 73.1881C333.022 73.538 333.304 73.8217 333.652 73.8217Z" fill="#FC7459"/>
<path d="M332.005 73.7698C332.353 73.7698 332.635 73.4862 332.635 73.1362C332.635 72.7863 332.353 72.5027 332.005 72.5027C331.657 72.5027 331.375 72.7863 331.375 73.1362C331.375 73.4862 331.657 73.7698 332.005 73.7698Z" fill="#FC7459"/>
<path d="M305.469 62.4754C305.469 62.4754 308.881 58.9877 307.53 57.0231C306.18 55.0584 304.56 56.4322 304.112 57.3125C304.112 57.3125 302.217 55.3387 301 57.2272C299.253 59.9442 305.469 62.4754 305.469 62.4754Z" fill="#F9C5CE"/>
<path d="M306.434 69.2771C306.434 69.2771 309.42 62.2135 301.385 59.2863C293.35 56.3591 298.381 65.5488 300.352 67.1875C302.323 68.8263 306.434 69.2771 306.434 69.2771Z" fill="#FF8477"/>
<path d="M306.428 69.2557C306.428 69.2557 314.106 67.8241 311.987 59.5086C309.868 51.193 305.151 60.5229 304.915 63.0845C304.679 65.6462 306.428 69.2557 306.428 69.2557Z" fill="#FC7459"/>
<path d="M305.045 55.3813C305.486 55.3813 305.844 55.0213 305.844 54.5772C305.844 54.1331 305.486 53.7731 305.045 53.7731C304.603 53.7731 304.246 54.1331 304.246 54.5772C304.246 55.0213 304.603 55.3813 305.045 55.3813Z" fill="#FC7459"/>
<path d="M303.698 53.7852C304.139 53.7852 304.497 53.4251 304.497 52.981C304.497 52.5369 304.139 52.1769 303.698 52.1769C303.256 52.1769 302.898 52.5369 302.898 52.981C302.898 53.4251 303.256 53.7852 303.698 53.7852Z" fill="#FC7459"/>
<path d="M302.587 55.5732C303.028 55.5732 303.386 55.2132 303.386 54.7691C303.386 54.325 303.028 53.965 302.587 53.965C302.145 53.965 301.787 54.325 301.787 54.7691C301.787 55.2132 302.145 55.5732 302.587 55.5732Z" fill="#FC7459"/>
<path d="M286.438 74.7446C286.438 74.7446 287.189 72.189 286.035 71.595C284.882 71.0011 284.461 72.0794 284.47 72.6154C284.47 72.6154 283.056 72.1586 282.956 73.38C282.811 75.1375 286.438 74.7446 286.438 74.7446Z" fill="#F9C5CE"/>
<path d="M288.596 77.8606C288.596 77.8606 288.266 73.5963 283.665 74.2816C279.063 74.9669 283.822 78.0647 285.178 78.3419C286.535 78.6191 288.596 77.8606 288.596 77.8606Z" fill="#FC7459"/>
<path d="M288.63 77.751C288.63 77.751 291.96 75.0797 288.805 71.6286C285.651 68.1775 285.778 73.8887 286.329 75.1802C286.88 76.4717 288.63 77.751 288.63 77.751Z" fill="#FF8477"/>
<path d="M284.219 71.5037C284.459 71.5037 284.654 71.3073 284.654 71.0651C284.654 70.8228 284.459 70.6265 284.219 70.6265C283.978 70.6265 283.783 70.8228 283.783 71.0651C283.783 71.3073 283.978 71.5037 284.219 71.5037Z" fill="#FC7459"/>
<path d="M283.165 71.0864C283.406 71.0864 283.601 70.89 283.601 70.6477C283.601 70.4055 283.406 70.2091 283.165 70.2091C282.924 70.2091 282.729 70.4055 282.729 70.6477C282.729 70.89 282.924 71.0864 283.165 71.0864Z" fill="#FC7459"/>
<path d="M283.089 72.2286C283.33 72.2286 283.525 72.0322 283.525 71.7899C283.525 71.5477 283.33 71.3513 283.089 71.3513C282.848 71.3513 282.653 71.5477 282.653 71.7899C282.653 72.0322 282.848 72.2286 283.089 72.2286Z" fill="#FC7459"/>
<path d="M316.31 98.3449C316.379 98.3445 316.445 98.3189 316.495 98.2728C316.546 98.2268 316.578 98.1635 316.586 98.0951C317.73 87.8058 323.873 81.7504 323.934 81.6895C323.964 81.6652 323.989 81.6348 324.007 81.6002C324.025 81.5656 324.036 81.5277 324.038 81.4887C324.041 81.4498 324.035 81.4107 324.022 81.374C324.009 81.3374 323.988 81.3039 323.961 81.2758C323.934 81.2476 323.902 81.2255 323.866 81.2107C323.83 81.1959 323.791 81.1888 323.753 81.1899C323.714 81.191 323.676 81.2003 323.641 81.217C323.606 81.2338 323.574 81.2578 323.549 81.2874C323.486 81.3483 317.191 87.5347 316.035 98.0403C316.027 98.1134 316.049 98.1866 316.095 98.2437C316.141 98.3008 316.207 98.3372 316.28 98.3449H316.31Z" fill="#FC7459"/>
<path d="M313.159 98.692H313.186C313.259 98.6843 313.326 98.6481 313.373 98.5912C313.42 98.5343 313.443 98.4611 313.437 98.3874C312.269 85.442 306.919 68.5064 306.867 68.3358C306.844 68.2656 306.794 68.2074 306.728 68.1739C306.663 68.1403 306.587 68.1339 306.516 68.1561C306.449 68.1785 306.393 68.2262 306.36 68.2891C306.326 68.3521 306.318 68.4255 306.338 68.4942C306.389 68.6648 311.721 85.5517 312.883 98.424C312.886 98.4956 312.917 98.5634 312.968 98.6132C313.019 98.6631 313.087 98.6913 313.159 98.692Z" fill="#FC7459"/>
<path d="M307.101 99.612C307.149 99.612 307.196 99.5983 307.237 99.5724C307.3 99.5354 307.347 99.4746 307.366 99.4033C307.385 99.332 307.376 99.2559 307.34 99.1916C301.242 88.5977 288.938 77.6505 288.814 77.5408C288.787 77.5164 288.755 77.4976 288.72 77.4856C288.686 77.4736 288.649 77.4686 288.612 77.4709C288.576 77.4731 288.54 77.4826 288.507 77.4988C288.474 77.515 288.445 77.5375 288.421 77.5652C288.373 77.6216 288.349 77.6947 288.354 77.7688C288.359 77.8428 288.393 77.9119 288.448 77.9612C288.569 78.0678 300.809 88.9419 306.858 99.4719C306.883 99.5144 306.918 99.5497 306.961 99.5743C307.003 99.5988 307.052 99.6118 307.101 99.612Z" fill="#FC7459"/>
</g>
<defs>
<clipPath id="clip0">
<rect width="375" height="96" fill="white"/>
</clipPath>
</defs>
</svg>
