<svg width="375" height="140" viewBox="0 0 375 140" fill="none" xmlns="http://www.w3.org/2000/svg">
<g clip-path="url(#clip0)">
<path d="M114 32C114 14.3269 128.327 0 146 0H397C414.673 0 429 14.3269 429 32V175H114V32Z" fill="#007F36"/>
<g clip-path="url(#clip1)">
<path d="M332.955 140H356.375C356.375 140 367.065 127.545 371.139 120.074C375.212 112.602 379.801 103.083 363.453 112.534C363.453 112.534 368.654 108.172 370.697 102.175C372.741 96.1793 370.883 93.2679 361.782 99.4481C361.782 99.4481 367.354 90.8979 365.869 86.9078C364.383 82.9177 354.538 88.004 349.337 94.5416C349.337 94.5416 349.151 77.8205 338.747 78.0025C328.344 78.1844 329.46 99.4481 331.129 102.357C331.129 102.357 326.114 98.3585 322.955 101.448C319.796 104.537 315.274 115.755 332.955 140Z" fill="#3CA064"/>
<path d="M342.499 91.0468C342.499 91.0468 341.287 90.0032 340.231 90.3584C339.384 90.6434 339.44 90.9788 339.36 91.0841C339.36 91.0841 339.339 91.0841 339.331 91.0841C339.162 91.0599 338.813 90.753 338.145 91.095C337.669 91.3798 337.289 91.7953 337.052 92.2899C336.977 92.433 336.885 92.5669 336.778 92.6889C336.106 93.4781 335.822 94.4077 336.106 95.2539C336.626 96.828 338.887 97.5208 341.152 96.8017C343.418 96.0826 344.829 94.2235 344.307 92.6582C344.052 91.8908 343.382 91.334 342.499 91.0468Z" fill="#F38625"/>
<path d="M338.592 91.4911C339.23 91.2887 339.663 90.8716 339.56 90.5595C339.456 90.2473 338.855 90.1583 338.217 90.3607C337.579 90.5631 337.146 90.9802 337.249 91.2923C337.353 91.6044 337.954 91.6934 338.592 91.4911Z" fill="#3B6608"/>
<path d="M340.25 90.9638C340.888 90.7615 341.321 90.3444 341.218 90.0323C341.114 89.7201 340.513 89.6311 339.875 89.8335C339.237 90.0358 338.804 90.4529 338.907 90.7651C339.011 91.0772 339.612 91.1662 340.25 90.9638Z" fill="#3B6608"/>
<path d="M339.351 90.9436C339.54 90.8835 339.568 90.4557 339.413 89.9881C339.258 89.5204 338.979 89.1901 338.789 89.2502C338.6 89.3103 338.572 89.7381 338.727 90.2057C338.882 90.6734 339.161 91.0037 339.351 90.9436Z" fill="#3B6608"/>
<path d="M337.459 114.93C337.459 114.93 336.24 113.887 335.192 114.242C334.345 114.527 334.401 114.862 334.322 114.968C334.312 114.971 334.301 114.971 334.291 114.968C334.123 114.944 333.773 114.637 333.106 114.979C332.629 115.263 332.249 115.679 332.012 116.173C331.937 116.315 331.846 116.448 331.739 116.568C331.067 117.36 330.782 118.287 331.067 119.135C331.587 120.709 333.847 121.4 336.113 120.683C338.378 119.966 339.79 118.12 339.27 116.542C339.012 115.772 338.342 115.218 337.459 114.93Z" fill="#F38625"/>
<path d="M333.556 115.373C334.194 115.171 334.628 114.754 334.524 114.442C334.421 114.129 333.82 114.04 333.182 114.243C332.544 114.445 332.11 114.862 332.214 115.174C332.317 115.487 332.918 115.576 333.556 115.373Z" fill="#3B6608"/>
<path d="M335.212 114.849C335.85 114.647 336.284 114.229 336.18 113.917C336.077 113.605 335.476 113.516 334.838 113.719C334.2 113.921 333.766 114.338 333.87 114.65C333.973 114.962 334.574 115.051 335.212 114.849Z" fill="#3B6608"/>
<path d="M334.313 114.826C334.502 114.766 334.53 114.338 334.375 113.871C334.221 113.403 333.941 113.073 333.752 113.133C333.562 113.193 333.534 113.621 333.689 114.088C333.844 114.556 334.123 114.886 334.313 114.826Z" fill="#3B6608"/>
<path d="M361.24 108.958C361.24 108.958 361.13 107.375 360.133 106.9C359.329 106.516 359.127 106.794 358.995 106.812C358.989 106.812 358.983 106.811 358.978 106.808C358.973 106.805 358.969 106.801 358.966 106.797C358.865 106.665 358.84 106.205 358.121 105.986C357.578 105.858 357.009 105.889 356.483 106.073C356.327 106.122 356.166 106.153 356.003 106.165C354.957 106.257 354.085 106.718 353.671 107.511C352.902 108.982 354 111.037 356.12 112.096C358.24 113.155 360.586 112.821 361.354 111.348C361.728 110.631 361.657 109.772 361.24 108.958Z" fill="#F38625"/>
<path d="M359.515 106.582C359.667 106.29 359.306 105.811 358.709 105.513C358.112 105.215 357.504 105.21 357.351 105.502C357.199 105.794 357.559 106.273 358.157 106.571C358.754 106.87 359.362 106.875 359.515 106.582Z" fill="#3B6608"/>
<path d="M361.065 107.357C361.218 107.064 360.857 106.585 360.26 106.287C359.662 105.989 359.054 105.984 358.902 106.276C358.749 106.568 359.11 107.047 359.708 107.345C360.305 107.644 360.913 107.649 361.065 107.357Z" fill="#3B6608"/>
<path d="M359.824 106.075C360.052 105.637 360.093 105.21 359.916 105.122C359.739 105.033 359.409 105.316 359.181 105.754C358.953 106.192 358.911 106.619 359.089 106.707C359.266 106.796 359.595 106.513 359.824 106.075Z" fill="#3B6608"/>
<path d="M353.61 128.234C353.61 128.234 353.501 126.653 352.504 126.177C351.699 125.794 351.497 126.07 351.365 126.087C351.36 126.087 351.354 126.086 351.349 126.084C351.344 126.082 351.34 126.078 351.336 126.074C351.235 125.94 351.211 125.482 350.491 125.263C349.949 125.133 349.379 125.164 348.853 125.351C348.698 125.399 348.537 125.429 348.374 125.441C347.328 125.533 346.454 125.993 346.041 126.787C345.273 128.26 346.368 130.312 348.49 131.373C350.612 132.434 352.956 132.097 353.725 130.623C354.106 129.904 354.034 129.047 353.61 128.234Z" fill="#F38625"/>
<path d="M351.893 125.858C352.045 125.565 351.684 125.087 351.087 124.788C350.49 124.49 349.882 124.485 349.729 124.777C349.577 125.07 349.937 125.548 350.535 125.847C351.132 126.145 351.74 126.15 351.893 125.858Z" fill="#3B6608"/>
<path d="M353.443 126.632C353.596 126.34 353.235 125.861 352.638 125.563C352.04 125.264 351.432 125.259 351.28 125.552C351.127 125.844 351.488 126.323 352.086 126.621C352.683 126.919 353.291 126.924 353.443 126.632Z" fill="#3B6608"/>
<path d="M352.2 125.349C352.428 124.912 352.469 124.485 352.292 124.396C352.114 124.307 351.785 124.591 351.557 125.028C351.329 125.466 351.287 125.893 351.465 125.982C351.642 126.07 351.971 125.787 352.2 125.349Z" fill="#3B6608"/>
<path d="M328.335 110.228H328.351C329.283 110.147 330 109.57 329.946 108.925C329.939 108.826 329.913 108.729 329.87 108.638C329.818 108.525 329.79 108.401 329.79 108.277C329.79 108.152 329.818 108.028 329.87 107.915C329.922 107.791 329.944 107.656 329.933 107.522C329.899 107.108 329.552 106.768 329.055 106.597C328.939 106.566 328.836 106.504 328.756 106.417C328.677 106.329 328.625 106.222 328.606 106.106C328.553 105.448 327.71 104.984 326.758 105.074C325.862 105.155 325.171 105.696 325.171 106.308C325.17 106.318 325.17 106.328 325.171 106.338C325.164 106.477 325.12 106.612 325.044 106.73C324.968 106.847 324.862 106.944 324.737 107.009C324.558 107.104 324.409 107.245 324.306 107.417C324.203 107.588 324.15 107.784 324.152 107.983C324.172 108.149 324.232 108.308 324.329 108.446C324.425 108.584 324.554 108.698 324.705 108.776C324.834 108.833 324.937 108.932 324.997 109.057C325.057 109.182 325.068 109.323 325.03 109.456C324.987 109.578 324.973 109.708 324.99 109.835C325.073 110.445 325.841 110.883 326.738 110.833C327.214 110.817 327.672 110.646 328.037 110.346C328.12 110.275 328.225 110.234 328.335 110.228Z" fill="#007F36"/>
<path d="M346.057 111.762H346.07C347.005 111.692 347.728 111.105 347.681 110.478C347.675 110.379 347.651 110.281 347.61 110.19C347.557 110.077 347.53 109.953 347.53 109.829C347.53 109.704 347.557 109.581 347.61 109.467C347.662 109.343 347.685 109.209 347.677 109.075C347.648 108.66 347.305 108.316 346.81 108.141C346.694 108.109 346.59 108.046 346.511 107.958C346.431 107.87 346.379 107.761 346.362 107.645C346.317 106.987 345.49 106.514 344.526 106.593C343.63 106.665 342.933 107.2 342.927 107.81V107.842C342.916 107.98 342.869 108.113 342.791 108.229C342.712 108.344 342.605 108.437 342.478 108.5C342.299 108.593 342.148 108.732 342.043 108.903C341.938 109.073 341.883 109.268 341.882 109.467C341.903 109.636 341.966 109.797 342.065 109.937C342.164 110.076 342.297 110.19 342.452 110.267C342.579 110.324 342.682 110.425 342.74 110.55C342.798 110.676 342.808 110.817 342.768 110.949C342.724 111.071 342.71 111.2 342.725 111.328C342.799 111.938 343.565 112.385 344.461 112.346C344.938 112.335 345.397 112.168 345.766 111.872C345.848 111.806 345.95 111.768 346.057 111.762Z" fill="#007F36"/>
<path d="M363.362 124.537H363.377C364.307 124.632 365.125 124.189 365.197 123.553C365.207 123.454 365.2 123.355 365.174 123.259C365.144 123.138 365.141 123.012 365.163 122.889C365.186 122.767 365.235 122.65 365.307 122.547C365.381 122.434 365.428 122.305 365.443 122.172C365.49 121.757 365.219 121.361 364.76 121.102C364.651 121.052 364.559 120.972 364.495 120.871C364.432 120.771 364.4 120.654 364.404 120.536C364.478 119.879 363.752 119.271 362.788 119.179C361.892 119.096 361.11 119.499 360.996 120.1V120.131C360.962 120.266 360.893 120.391 360.796 120.492C360.699 120.593 360.576 120.668 360.44 120.709C360.246 120.77 360.073 120.881 359.939 121.03C359.804 121.18 359.714 121.362 359.678 121.558C359.669 121.726 359.703 121.894 359.775 122.046C359.847 122.199 359.956 122.332 360.093 122.435C360.208 122.514 360.29 122.631 360.324 122.765C360.359 122.898 360.343 123.039 360.281 123.163C360.216 123.274 360.177 123.399 360.169 123.527C360.131 124.14 360.803 124.713 361.692 124.831C362.163 124.903 362.645 124.819 363.061 124.592C363.153 124.543 363.258 124.524 363.362 124.537Z" fill="#007F36"/>
<path d="M359.884 95.859V95.8459C360.142 94.9689 359.844 94.092 359.212 93.9188C359.115 93.8905 359.013 93.8793 358.912 93.8859C358.784 93.8932 358.657 93.8746 358.537 93.8312C358.418 93.7878 358.309 93.7206 358.217 93.6338C358.118 93.5421 357.998 93.4739 357.868 93.4343C357.458 93.3159 357.009 93.5088 356.667 93.9013C356.597 93.998 356.5 94.0725 356.388 94.1154C356.276 94.1583 356.153 94.1677 356.035 94.1424C355.392 93.9539 354.646 94.5458 354.383 95.4578C354.141 96.2997 354.406 97.1306 354.988 97.352H355.02C355.149 97.4093 355.262 97.4983 355.346 97.6104C355.431 97.7225 355.484 97.854 355.501 97.9922C355.529 98.1881 355.61 98.373 355.736 98.5274C355.863 98.6817 356.029 98.7998 356.218 98.8692C356.387 98.9099 356.564 98.9092 356.732 98.8672C356.901 98.8251 357.056 98.7429 357.184 98.628C357.284 98.5311 357.416 98.4727 357.557 98.4634C357.697 98.4541 357.836 98.4947 357.948 98.5776C358.049 98.6611 358.168 98.7205 358.296 98.7508C358.905 98.8955 359.602 98.3518 359.878 97.5165C360.034 97.0755 360.034 96.596 359.878 96.155C359.848 96.0581 359.85 95.9545 359.884 95.859Z" fill="#007F36"/>
<path d="M340.097 132.752C340.814 132.162 341.06 131.281 340.646 130.79C340.583 130.713 340.507 130.648 340.422 130.597C340.312 130.534 340.217 130.449 340.142 130.348C340.068 130.246 340.016 130.131 339.989 130.009C339.959 129.879 339.898 129.756 339.812 129.652C339.541 129.33 339.057 129.246 338.551 129.385C338.437 129.428 338.312 129.438 338.192 129.412C338.072 129.386 337.963 129.326 337.878 129.24C337.453 128.731 336.496 128.814 335.759 129.426C335.087 129.992 334.822 130.827 335.181 131.327L335.199 131.353C335.274 131.471 335.317 131.606 335.324 131.745C335.331 131.884 335.301 132.023 335.237 132.147C335.146 132.325 335.107 132.523 335.122 132.721C335.138 132.919 335.209 133.11 335.326 133.272C335.443 133.398 335.59 133.493 335.754 133.55C335.918 133.607 336.093 133.624 336.265 133.598C336.405 133.57 336.55 133.593 336.674 133.662C336.798 133.732 336.892 133.843 336.937 133.975C336.975 134.099 337.04 134.213 337.128 134.309C337.551 134.76 338.439 134.69 339.144 134.146C339.527 133.868 339.801 133.472 339.924 133.022C339.95 132.916 340.011 132.821 340.097 132.752Z" fill="#007F36"/>
</g>
<g clip-path="url(#clip2)">
<path d="M293.404 144.632L306.121 144.999C306.121 144.999 321.031 116.938 319.935 112.691C318.839 108.444 314.48 111.767 311.208 115.274C311.208 115.274 316.661 102.357 312.118 98.8428C307.575 95.3285 303.532 113.542 303.532 113.542C303.532 113.542 305.944 92.9344 301.212 90.5336C296.48 88.1328 296.489 107.704 296.489 107.704C296.489 107.704 294.13 86.1039 287.041 88.1328C279.952 90.1616 285.769 114.724 285.769 114.724C285.769 114.724 282.497 108.074 276.862 111.212C271.227 114.35 278.862 128.568 293.404 144.632Z" fill="#3CA064"/>
<path d="M314.387 119.847C314.006 119.851 313.626 119.892 313.253 119.97C313.317 119.497 313.317 119.017 313.253 118.544C313.243 118.461 313.211 118.382 313.16 118.315C313.109 118.249 313.041 118.197 312.964 118.166C312.887 118.135 312.803 118.126 312.722 118.139C312.64 118.152 312.563 118.188 312.499 118.242C311.973 118.671 311.534 119.201 311.208 119.801C310.805 119.181 310.262 118.668 309.624 118.306C309.553 118.264 309.472 118.241 309.389 118.242C309.306 118.242 309.225 118.266 309.154 118.309C309.083 118.352 309.025 118.414 308.986 118.488C308.947 118.562 308.928 118.645 308.932 118.729C309.032 121.152 310.23 122.028 310.92 122.335C310.941 122.34 310.962 122.343 310.984 122.346C311.005 122.36 311.028 122.372 311.052 122.382C312.97 122.907 314.2 121.473 314.768 120.562C314.811 120.492 314.835 120.412 314.838 120.329C314.84 120.246 314.821 120.165 314.782 120.092C314.744 120.019 314.687 119.958 314.617 119.915C314.548 119.872 314.468 119.849 314.387 119.847Z" fill="#FFAAA1"/>
<path d="M295.622 130.252C295.326 130.495 295.054 130.767 294.811 131.063C294.57 130.653 294.275 130.278 293.934 129.949C293.874 129.891 293.8 129.85 293.72 129.83C293.64 129.811 293.556 129.814 293.477 129.838C293.398 129.863 293.327 129.908 293.271 129.97C293.215 130.032 293.177 130.108 293.16 130.19C293.011 130.86 292.993 131.553 293.105 132.23C292.411 131.999 291.672 131.94 290.952 132.058C290.87 132.071 290.792 132.105 290.728 132.157C290.663 132.21 290.614 132.28 290.585 132.358C290.556 132.437 290.548 132.522 290.562 132.605C290.577 132.688 290.613 132.765 290.666 132.829C292.23 134.662 293.703 134.593 294.433 134.388C294.452 134.379 294.471 134.369 294.488 134.357C294.514 134.356 294.54 134.351 294.565 134.343C296.389 133.544 296.475 131.642 296.361 130.557C296.35 130.476 296.318 130.399 296.268 130.334C296.219 130.269 296.153 130.219 296.078 130.188C296.003 130.157 295.922 130.147 295.842 130.158C295.761 130.169 295.686 130.202 295.622 130.252Z" fill="#FFAAA1"/>
<path d="M285.963 119.079C285.684 119.341 285.43 119.63 285.205 119.941C284.941 119.545 284.626 119.188 284.269 118.879C284.206 118.824 284.129 118.787 284.048 118.773C283.966 118.758 283.883 118.766 283.805 118.796C283.728 118.825 283.659 118.875 283.607 118.941C283.555 119.006 283.522 119.085 283.51 119.168C283.403 119.846 283.428 120.54 283.584 121.208C282.877 121.021 282.137 121.011 281.425 121.177C281.344 121.194 281.269 121.233 281.208 121.29C281.147 121.347 281.102 121.419 281.078 121.499C281.054 121.579 281.051 121.665 281.071 121.746C281.09 121.828 281.13 121.903 281.188 121.963C282.863 123.691 284.33 123.522 285.045 123.282C285.067 123.282 285.08 123.257 285.1 123.248C285.119 123.239 285.15 123.248 285.174 123.23C286.944 122.311 286.909 120.409 286.729 119.346C286.715 119.263 286.679 119.186 286.626 119.121C286.572 119.057 286.503 119.009 286.424 118.981C286.346 118.954 286.262 118.949 286.181 118.966C286.1 118.983 286.025 119.022 285.963 119.079Z" fill="#FFAAA1"/>
<path d="M292.903 105.296C292.394 105.59 291.939 105.974 291.561 106.429C291.419 105.821 291.174 105.243 290.835 104.721C290.79 104.649 290.727 104.591 290.652 104.552C290.577 104.514 290.494 104.497 290.41 104.502C290.327 104.508 290.246 104.537 290.177 104.585C290.108 104.633 290.053 104.699 290.017 104.777C289.675 105.482 289.515 106.265 289.555 107.05C289.073 106.921 288.576 106.856 288.077 106.857C287.991 106.855 287.907 106.877 287.832 106.921C287.758 106.965 287.697 107.028 287.656 107.105C287.615 107.181 287.595 107.268 287.599 107.355C287.603 107.442 287.63 107.526 287.678 107.598C288.255 108.523 289.507 109.979 291.454 109.447C291.477 109.436 291.5 109.423 291.522 109.409C291.544 109.409 291.566 109.409 291.587 109.409C292.289 109.097 293.504 108.206 293.607 105.748C293.615 105.66 293.599 105.573 293.561 105.494C293.523 105.415 293.464 105.349 293.392 105.302C293.319 105.255 293.234 105.23 293.148 105.229C293.062 105.228 292.977 105.251 292.903 105.296Z" fill="#FFAAA1"/>
<path d="M308.096 136.55C307.523 136.429 306.932 136.412 306.353 136.499C306.64 135.947 306.833 135.349 306.921 134.731C306.934 134.646 306.925 134.558 306.894 134.478C306.862 134.398 306.81 134.328 306.742 134.276C306.675 134.223 306.595 134.191 306.51 134.181C306.426 134.171 306.34 134.185 306.263 134.221C305.547 134.521 304.918 135 304.434 135.615C304.158 135.193 303.828 134.81 303.454 134.475C303.392 134.418 303.315 134.379 303.232 134.362C303.15 134.345 303.064 134.352 302.985 134.381C302.905 134.409 302.835 134.459 302.782 134.525C302.728 134.591 302.693 134.671 302.68 134.755C302.507 135.836 302.496 137.769 304.303 138.68C304.328 138.687 304.354 138.693 304.379 138.697C304.399 138.697 304.412 138.724 304.434 138.731C305.162 138.971 306.655 139.12 308.335 137.346C308.393 137.284 308.433 137.209 308.452 137.126C308.472 137.044 308.469 136.958 308.445 136.877C308.42 136.796 308.375 136.723 308.314 136.666C308.253 136.608 308.177 136.568 308.096 136.55Z" fill="#FFAAA1"/>
<path d="M301.63 117.676C301.046 117.729 300.477 117.888 299.948 118.144C300.066 117.531 300.078 116.901 299.983 116.284C299.972 116.2 299.938 116.12 299.885 116.053C299.833 115.987 299.764 115.936 299.685 115.906C299.607 115.875 299.522 115.867 299.439 115.882C299.356 115.897 299.279 115.934 299.216 115.99C298.616 116.488 298.153 117.133 297.869 117.865C297.482 117.545 297.057 117.276 296.602 117.066C296.526 117.031 296.441 117.017 296.358 117.026C296.275 117.036 296.196 117.067 296.128 117.118C296.061 117.169 296.009 117.237 295.976 117.316C295.944 117.394 295.933 117.48 295.944 117.565C296.091 118.649 296.637 120.5 298.628 120.834C298.654 120.836 298.679 120.836 298.705 120.834C298.725 120.841 298.747 120.847 298.768 120.85C299.534 120.863 301.003 120.562 302.099 118.366C302.138 118.29 302.155 118.204 302.149 118.118C302.144 118.032 302.115 117.95 302.067 117.879C302.019 117.808 301.953 117.752 301.876 117.716C301.799 117.68 301.714 117.667 301.63 117.676Z" fill="#FFAAA1"/>
</g>
<g clip-path="url(#clip3)">
<path d="M176.752 124.149C176.752 124.149 156.39 122.282 158.101 103.053C159.812 83.8246 170.66 80.9361 170.66 68.4353C170.66 55.9346 165.577 56.0717 166.474 49.0981C167.414 41.8192 180.368 39.2027 185.503 63.1006C190.639 86.9984 205.297 88.1176 199.778 107.919C194.259 127.721 176.752 124.149 176.752 124.149Z" fill="#3CA064"/>
<path d="M177.757 113.471C177.721 108.47 177.782 106.999 177.809 102.996C173.74 100.289 172.173 94.8944 171.576 91.5502C171.533 91.3025 171.912 91.1963 171.984 91.4374C173.603 96.8075 176.666 99.1542 177.845 99.8841C178.028 83.3425 178.623 73.7479 178.925 78.3284C179.132 81.4713 179.302 95.3588 180.327 109.618C187.767 107.543 189.293 103.332 190.573 100.771C190.596 100.729 190.633 100.696 190.678 100.679C190.723 100.662 190.773 100.661 190.818 100.677C190.863 100.694 190.901 100.726 190.924 100.767C190.947 100.809 190.954 100.857 190.943 100.904C188.628 110.646 182.969 113.017 180.573 114.561C180.988 119.664 181.522 124.41 182.212 128.09C183.993 137.581 184.568 141.993 184.568 141.993L177.838 141.938C177.838 141.938 177.949 141.965 177.757 113.471Z" fill="#F4F4F4"/>
<path d="M198.712 103.39C198.686 103.165 198.606 102.949 198.478 102.76C198.351 102.571 198.18 102.414 197.978 102.303C197.777 102.192 197.552 102.129 197.321 102.12C197.091 102.111 196.861 102.156 196.651 102.251C196.562 102.294 196.459 102.303 196.364 102.274C196.268 102.245 196.188 102.181 196.139 102.096L196.108 102.043C195.907 101.729 195.589 101.504 195.222 101.415C194.855 101.326 194.467 101.381 194.14 101.567C193.813 101.754 193.573 102.057 193.47 102.414C193.367 102.771 193.409 103.153 193.588 103.48C193.606 103.509 193.621 103.538 193.642 103.567C193.824 103.859 193.89 104.207 193.827 104.544C193.806 104.681 193.815 104.821 193.854 104.955C193.892 105.088 193.958 105.213 194.048 105.319C194.138 105.426 194.25 105.514 194.376 105.575C194.503 105.637 194.641 105.673 194.782 105.679C195.072 105.682 195.353 105.772 195.589 105.935C195.709 106.024 195.847 106.086 195.994 106.116C196.141 106.146 196.293 106.144 196.439 106.109C196.585 106.075 196.721 106.01 196.838 105.918C196.955 105.826 197.05 105.709 197.116 105.577C197.255 105.263 197.508 105.011 197.826 104.869L197.92 104.827C198.186 104.695 198.404 104.487 198.545 104.23C198.686 103.973 198.744 103.68 198.712 103.39Z" fill="#FFAAA1"/>
<path d="M195.842 102.211C195.815 102.223 195.793 102.244 195.778 102.27C195.764 102.296 195.759 102.325 195.763 102.355C195.785 102.465 195.838 102.567 195.914 102.651C195.991 102.735 196.089 102.796 196.199 102.83C196.308 102.863 196.425 102.867 196.536 102.84C196.648 102.814 196.75 102.758 196.832 102.68C196.858 102.652 196.874 102.618 196.879 102.581C196.885 102.545 196.878 102.507 196.861 102.474C196.849 102.453 196.833 102.435 196.814 102.421C196.794 102.407 196.772 102.397 196.748 102.392C196.656 102.374 196.523 102.439 196.43 102.441C196.344 102.434 196.259 102.407 196.185 102.363C196.133 102.328 196.068 102.226 196 102.197C195.974 102.188 195.947 102.185 195.92 102.187C195.892 102.189 195.866 102.197 195.842 102.211Z" fill="#FF8980"/>
<path d="M196.112 102.79C196.112 102.79 196.478 101.709 196.43 101.063C196.529 101.034 196.635 101.034 196.734 101.063C196.833 101.092 196.921 101.149 196.987 101.227C196.987 101.227 196.354 102.297 196.275 102.843L196.112 102.79Z" fill="#8E4539"/>
<path d="M172.41 112.073C172.269 111.893 172.087 111.749 171.878 111.652C171.67 111.555 171.44 111.509 171.21 111.516C170.979 111.523 170.753 111.584 170.551 111.693C170.349 111.803 170.176 111.958 170.047 112.146C169.994 112.229 169.911 112.288 169.814 112.312C169.718 112.336 169.616 112.322 169.529 112.274C169.511 112.263 169.492 112.252 169.472 112.243C169.133 112.062 168.734 112.02 168.363 112.127C167.993 112.234 167.68 112.481 167.495 112.814C167.31 113.147 167.268 113.538 167.377 113.902C167.486 114.266 167.738 114.572 168.077 114.754C168.106 114.771 168.136 114.786 168.167 114.8C168.478 114.958 168.718 115.223 168.843 115.543C168.9 115.677 168.986 115.796 169.095 115.893C169.204 115.991 169.334 116.063 169.475 116.105C169.604 116.144 169.74 116.157 169.875 116.144C170.01 116.131 170.14 116.091 170.259 116.028C170.508 115.883 170.796 115.817 171.084 115.837C171.237 115.853 171.39 115.834 171.534 115.783C171.678 115.732 171.809 115.65 171.916 115.543C172.019 115.441 172.098 115.317 172.148 115.182C172.197 115.046 172.216 114.901 172.203 114.758C172.155 114.419 172.235 114.075 172.428 113.789C172.448 113.763 172.469 113.734 172.487 113.705C172.645 113.458 172.722 113.169 172.709 112.877C172.695 112.586 172.591 112.305 172.41 112.073Z" fill="#FFAAA1"/>
<path d="M169.333 112.524C169.316 112.548 169.307 112.576 169.307 112.605C169.307 112.634 169.316 112.662 169.333 112.686C169.41 112.769 169.509 112.83 169.619 112.863C169.729 112.896 169.846 112.899 169.957 112.871C170.068 112.844 170.17 112.788 170.252 112.708C170.333 112.629 170.391 112.529 170.419 112.42C170.427 112.384 170.423 112.346 170.408 112.312C170.393 112.278 170.368 112.25 170.336 112.23C170.315 112.218 170.292 112.211 170.268 112.209C170.244 112.207 170.219 112.209 170.196 112.217C170.106 112.248 170.016 112.378 169.948 112.42C169.871 112.459 169.785 112.479 169.698 112.478C169.637 112.478 169.527 112.42 169.452 112.431C169.427 112.438 169.403 112.45 169.383 112.466C169.362 112.482 169.345 112.502 169.333 112.524Z" fill="#FF8980"/>
<path d="M169.872 112.88C169.872 112.88 169.615 111.774 169.231 111.241C169.3 111.166 169.39 111.113 169.49 111.087C169.59 111.062 169.695 111.066 169.793 111.1C169.793 111.1 169.818 112.336 170.036 112.843L169.872 112.88Z" fill="#8E4539"/>
<path d="M169.527 94.2751C169.476 94.054 169.372 93.848 169.224 93.6739C169.077 93.4998 168.889 93.3626 168.676 93.2736C168.464 93.1846 168.233 93.1464 168.003 93.1621C167.772 93.1778 167.549 93.247 167.351 93.3639C167.267 93.4157 167.165 93.4343 167.067 93.4158C166.97 93.3973 166.882 93.3432 166.824 93.2643L166.787 93.2135C166.674 93.0624 166.531 92.9348 166.367 92.838C166.203 92.7411 166.021 92.6769 165.832 92.649C165.45 92.5926 165.06 92.6874 164.75 92.9127C164.439 93.1379 164.232 93.4751 164.174 93.8501C164.117 94.225 164.213 94.6071 164.443 94.9121C164.463 94.9408 164.484 94.9674 164.506 94.9939C164.719 95.2656 164.823 95.6051 164.797 95.9472C164.793 96.0857 164.818 96.2235 164.871 96.3519C164.924 96.4803 165.004 96.5964 165.105 96.6928C165.206 96.7892 165.327 96.8637 165.46 96.9117C165.592 96.9596 165.734 96.9799 165.874 96.9712C166.162 96.9424 166.452 97.0011 166.704 97.1393C166.836 97.2162 166.983 97.2631 167.136 97.2765C167.288 97.2899 167.442 97.2695 167.586 97.2167C167.723 97.1659 167.848 97.0862 167.951 96.983C168.054 96.8798 168.132 96.7557 168.181 96.6195C168.286 96.2927 168.51 96.015 168.81 95.8388C168.841 95.8233 168.871 95.8056 168.9 95.7879C169.148 95.6279 169.341 95.3975 169.453 95.1273C169.565 94.8571 169.591 94.5599 169.527 94.2751Z" fill="#FFAAA1"/>
<path d="M166.544 93.4124C166.519 93.4279 166.499 93.4507 166.488 93.4777C166.477 93.5046 166.474 93.5344 166.481 93.5628C166.516 93.6701 166.579 93.7663 166.665 93.8413C166.75 93.9162 166.855 93.9671 166.967 93.9886C167.08 94.0101 167.196 94.0014 167.304 93.9635C167.412 93.9255 167.508 93.8597 167.581 93.7729C167.603 93.742 167.614 93.7054 167.614 93.6679C167.614 93.6304 167.603 93.5938 167.581 93.5628C167.567 93.5437 167.55 93.5276 167.529 93.5158C167.508 93.504 167.485 93.4966 167.462 93.4943C167.367 93.4943 167.236 93.565 167.151 93.5761C167.063 93.5793 166.977 93.5619 166.898 93.5252C166.842 93.4965 166.765 93.4014 166.695 93.3815C166.669 93.3758 166.642 93.3756 166.616 93.381C166.59 93.3863 166.566 93.397 166.544 93.4124Z" fill="#FF8980"/>
<path d="M166.878 93.9588C166.878 93.9588 167.121 92.8529 167.002 92.2071C167.097 92.1675 167.201 92.1563 167.303 92.1748C167.404 92.1933 167.498 92.2407 167.572 92.311C167.572 92.311 167.063 93.4434 167.045 93.9942L166.878 93.9588Z" fill="#8E4539"/>
<path d="M190.749 88.3719C190.606 88.1941 190.422 88.0523 190.211 87.9582C190.001 87.8641 189.771 87.8204 189.54 87.8308C189.31 87.8412 189.085 87.9053 188.884 88.0178C188.683 88.1304 188.513 88.2882 188.387 88.4781C188.334 88.5608 188.252 88.6208 188.156 88.6459C188.06 88.671 187.958 88.6592 187.871 88.613L187.814 88.5843C187.475 88.4338 187.09 88.4163 186.738 88.5351C186.387 88.6539 186.094 88.9002 185.922 89.2235C185.749 89.5468 185.708 89.9227 185.809 90.2742C185.909 90.6258 186.143 90.9264 186.462 91.1145L186.554 91.1587C186.863 91.3147 187.103 91.5757 187.23 91.893C187.287 92.0198 187.371 92.1334 187.475 92.2266C187.58 92.3198 187.703 92.3905 187.837 92.434C187.971 92.4776 188.113 92.4931 188.253 92.4795C188.394 92.466 188.53 92.4236 188.653 92.3553C188.9 92.2083 189.187 92.1382 189.476 92.154C189.628 92.1673 189.782 92.1468 189.925 92.094C190.068 92.0412 190.197 91.9573 190.303 91.8488C190.405 91.7444 190.482 91.6195 190.529 91.4826C190.576 91.3458 190.592 91.2005 190.576 91.057C190.526 90.7171 190.606 90.3711 190.801 90.086C190.822 90.0595 190.84 90.0307 190.858 90.002C191.01 89.7516 191.082 89.4616 191.062 89.1704C191.043 88.8793 190.934 88.6008 190.749 88.3719Z" fill="#FFAAA1"/>
<path d="M187.679 88.8651C187.662 88.8887 187.652 88.9169 187.652 88.9459C187.652 88.9748 187.662 89.003 187.679 89.0266C187.757 89.1088 187.857 89.1686 187.967 89.1998C188.077 89.231 188.194 89.2324 188.305 89.2039C188.415 89.1753 188.516 89.1178 188.597 89.0376C188.677 88.9573 188.734 88.8572 188.761 88.7479C188.768 88.7112 188.764 88.6731 188.748 88.6389C188.732 88.6048 188.706 88.5764 188.673 88.5577C188.652 88.5462 188.628 88.5392 188.604 88.5373C188.58 88.5354 188.556 88.5386 188.533 88.5466C188.445 88.5798 188.357 88.7103 188.29 88.7545C188.213 88.7932 188.128 88.8136 188.042 88.8143C187.979 88.8143 187.868 88.759 187.794 88.7722C187.769 88.7792 187.746 88.791 187.726 88.807C187.707 88.823 187.69 88.8427 187.679 88.8651Z" fill="#FF8980"/>
<path d="M188.222 89.2146C188.222 89.2146 187.947 88.1087 187.557 87.5845C187.626 87.5084 187.715 87.4537 187.815 87.4269C187.915 87.4002 188.02 87.4027 188.119 87.4341C188.119 87.4341 188.159 88.6705 188.387 89.1748L188.222 89.2146Z" fill="#8E4539"/>
<path d="M178.934 73.3742C178.918 73.1494 178.848 72.9315 178.73 72.7382C178.611 72.545 178.448 72.382 178.254 72.2623C178.059 72.1427 177.838 72.0698 177.609 72.0497C177.381 72.0296 177.15 72.0628 176.937 72.1467C176.846 72.1861 176.742 72.1898 176.648 72.1568C176.555 72.1239 176.477 72.057 176.432 71.9697C176.432 71.952 176.414 71.9321 176.403 71.9144C176.213 71.5962 175.907 71.3618 175.546 71.26C175.185 71.1581 174.798 71.1967 174.465 71.3676C174.133 71.5386 173.88 71.8288 173.76 72.1778C173.64 72.5269 173.662 72.9078 173.821 73.2415C173.837 73.2702 173.853 73.3012 173.871 73.3299C174.04 73.6297 174.091 73.9801 174.013 74.3142C173.986 74.4502 173.989 74.5903 174.021 74.7253C174.053 74.8603 174.113 74.9872 174.198 75.0979C174.283 75.2085 174.391 75.3005 174.514 75.3678C174.638 75.4351 174.774 75.4763 174.915 75.4886C175.203 75.5049 175.479 75.6058 175.708 75.7783C175.826 75.8746 175.964 75.9435 176.113 75.9799C176.262 76.0163 176.417 76.0192 176.567 75.9885C176.71 75.9583 176.845 75.8977 176.962 75.811C177.079 75.7242 177.175 75.6135 177.243 75.4864C177.4 75.1797 177.664 74.9392 177.987 74.8096L178.084 74.772C178.353 74.6506 178.579 74.452 178.73 74.2025C178.882 73.9529 178.953 73.6641 178.934 73.3742Z" fill="#FFAAA1"/>
<path d="M176.118 72.0714C176.091 72.0834 176.068 72.1035 176.053 72.1289C176.038 72.1544 176.032 72.1838 176.035 72.213C176.052 72.3241 176.1 72.4284 176.173 72.5151C176.246 72.6018 176.341 72.6675 176.449 72.7053C176.557 72.7432 176.673 72.7517 176.786 72.7301C176.898 72.7084 177.003 72.6574 177.088 72.5823C177.114 72.5561 177.132 72.5227 177.139 72.4864C177.146 72.4501 177.141 72.4126 177.126 72.3789C177.115 72.3577 177.1 72.3389 177.081 72.3237C177.063 72.3085 177.041 72.2972 177.018 72.2904C176.91 72.2928 176.802 72.3047 176.696 72.3258C176.61 72.3153 176.528 72.285 176.457 72.2373C176.405 72.2019 176.344 72.0958 176.278 72.0648C176.253 72.0549 176.225 72.0504 176.198 72.0516C176.17 72.0527 176.143 72.0595 176.118 72.0714Z" fill="#FF8980"/>
<path d="M176.364 72.662C176.364 72.662 176.777 71.5981 176.759 70.9501C176.859 70.9254 176.964 70.9301 177.061 70.9635C177.159 70.9969 177.244 71.0576 177.306 71.1381C177.306 71.1381 176.63 72.1798 176.522 72.7217L176.364 72.662Z" fill="#8E4539"/>
<path d="M180.492 59.0221C180.345 58.8474 180.158 58.7094 179.946 58.6196C179.734 58.5297 179.503 58.4905 179.272 58.5051C179.042 58.5198 178.818 58.588 178.62 58.704C178.422 58.82 178.254 58.9806 178.131 59.1725C178.08 59.2564 177.998 59.3179 177.902 59.3446C177.806 59.3713 177.704 59.3612 177.615 59.3163L177.559 59.2876C177.213 59.1186 176.813 59.0914 176.447 59.2119C176.08 59.3324 175.778 59.5907 175.605 59.9301C175.433 60.2694 175.406 60.662 175.528 61.0214C175.651 61.3808 175.914 61.6776 176.26 61.8465C176.29 61.8635 176.321 61.8783 176.353 61.8908C176.669 62.0377 176.918 62.2947 177.052 62.6118C177.114 62.7426 177.205 62.8585 177.317 62.9517C177.43 63.0449 177.561 63.113 177.703 63.1515C177.834 63.1866 177.97 63.1955 178.104 63.1777C178.238 63.1598 178.367 63.1155 178.483 63.0475C178.728 62.8943 179.014 62.8172 179.304 62.8263C179.453 62.8363 179.603 62.8136 179.743 62.76C179.883 62.7064 180.009 62.6231 180.112 62.5161C180.215 62.4091 180.292 62.2812 180.339 62.1413C180.385 62.0014 180.4 61.8532 180.381 61.7072C180.324 61.3689 180.395 61.0216 180.582 60.7318C180.602 60.7053 180.62 60.6765 180.638 60.6478C180.784 60.3941 180.849 60.1029 180.823 59.8126C180.796 59.5224 180.681 59.2467 180.492 59.0221Z" fill="#FFAAA1"/>
<path d="M177.433 59.5751C177.417 59.6 177.41 59.629 177.413 59.658C177.415 59.6871 177.427 59.7146 177.446 59.7366C177.527 59.8145 177.627 59.87 177.737 59.8974C177.846 59.9248 177.962 59.9231 178.07 59.8925C178.179 59.8619 178.277 59.8035 178.356 59.7232C178.434 59.643 178.489 59.5438 178.515 59.4358C178.521 59.3989 178.516 59.3611 178.499 59.3275C178.483 59.2938 178.456 59.266 178.423 59.2478C178.4 59.2383 178.377 59.2334 178.353 59.2334C178.329 59.2334 178.305 59.2383 178.283 59.2478C178.195 59.2832 178.109 59.4137 178.044 59.469C177.967 59.5093 177.882 59.5313 177.796 59.5331C177.733 59.5331 177.62 59.4823 177.548 59.4955C177.501 59.507 177.46 59.5354 177.433 59.5751Z" fill="#FF8980"/>
<path d="M177.983 59.9246C177.983 59.9246 177.685 58.8187 177.286 58.3078C177.351 58.2293 177.438 58.1711 177.536 58.1405C177.634 58.1098 177.739 58.108 177.839 58.1353C177.839 58.1353 177.904 59.3717 178.141 59.8715L177.983 59.9246Z" fill="#8E4539"/>
<path d="M172.653 87.4939C171.752 87.0205 170.198 85.7444 170.307 82.5418C170.31 82.4299 170.344 82.321 170.405 82.2266C170.467 82.1323 170.553 82.056 170.655 82.0058C170.757 81.9557 170.871 81.9336 170.984 81.9419C171.098 81.9502 171.207 81.9886 171.301 82.053C172.496 82.8647 174.36 84.5943 173.555 87.14C173.527 87.227 173.48 87.3069 173.417 87.3738C173.354 87.4407 173.276 87.493 173.19 87.5269C173.104 87.5608 173.011 87.5754 172.918 87.5697C172.825 87.564 172.735 87.5381 172.653 87.4939Z" fill="#007F36"/>
<path d="M172.694 54.0944C172.295 53.1611 171.925 51.2192 174.08 48.8039C174.155 48.7207 174.252 48.6588 174.359 48.6246C174.467 48.5904 174.582 48.5853 174.692 48.6097C174.803 48.6341 174.904 48.6872 174.987 48.7634C175.069 48.8396 175.129 48.9361 175.16 49.0428C175.562 50.4141 175.884 52.9089 173.609 54.3709C173.533 54.4192 173.446 54.4506 173.356 54.4627C173.265 54.4748 173.173 54.4675 173.086 54.4412C172.999 54.4148 172.919 54.3702 172.851 54.3103C172.783 54.2504 172.73 54.1767 172.694 54.0944Z" fill="#007F36"/>
<path d="M187.325 117.854C187.165 116.855 187.287 114.877 189.969 113.048C190.063 112.985 190.171 112.948 190.285 112.94C190.398 112.932 190.511 112.955 190.612 113.005C190.713 113.055 190.799 113.131 190.86 113.224C190.921 113.318 190.955 113.426 190.959 113.537C191.011 114.962 190.711 117.459 188.146 118.341C188.059 118.37 187.967 118.38 187.876 118.37C187.786 118.36 187.698 118.331 187.62 118.285C187.542 118.239 187.475 118.176 187.424 118.102C187.373 118.027 187.339 117.943 187.325 117.854Z" fill="#007F36"/>
<path d="M165.473 106.858C165.196 105.882 165.081 103.905 167.529 101.782C167.615 101.709 167.718 101.66 167.829 101.639C167.941 101.619 168.055 101.629 168.162 101.666C168.268 101.704 168.362 101.77 168.434 101.855C168.506 101.941 168.553 102.044 168.571 102.153C168.796 103.562 168.796 106.077 166.346 107.24C166.264 107.279 166.174 107.299 166.083 107.301C165.992 107.302 165.902 107.283 165.819 107.247C165.736 107.211 165.662 107.157 165.603 107.09C165.543 107.022 165.499 106.943 165.473 106.858Z" fill="#007F36"/>
<path d="M184.308 80.6441C183.587 79.923 182.505 78.2443 183.61 75.2253C183.648 75.1209 183.714 75.0286 183.802 74.958C183.889 74.8873 183.994 74.841 184.106 74.8238C184.217 74.8066 184.332 74.8192 184.437 74.8603C184.542 74.9013 184.634 74.9694 184.703 75.0572C185.591 76.1852 186.829 78.3881 185.264 80.5711C185.211 80.6439 185.142 80.7044 185.063 80.7484C184.983 80.7924 184.895 80.8188 184.804 80.8257C184.713 80.8327 184.621 80.82 184.536 80.7886C184.45 80.7573 184.373 80.7079 184.308 80.6441Z" fill="#007F36"/>
</g>
<g clip-path="url(#clip4)">
<path d="M215 129.426C215 129.426 198.984 132.026 198.057 118.556C197.129 105.087 208.268 101.072 207.334 90.6743C206.4 80.277 208.268 75.3178 215 74.134C221.732 72.9502 228.465 79.8048 227.536 87.3667C226.606 94.9286 225.214 104.852 228.929 110.522C232.645 116.193 231.251 122.574 225.678 126.356C220.105 130.138 215 129.426 215 129.426Z" fill="#0D562A"/>
<path d="M216.846 119.745C216.869 116.315 216.869 113.23 216.846 110.489C219.535 108.634 220.573 104.937 220.965 102.646C220.993 102.475 220.749 102.403 220.696 102.567C219.617 106.248 217.604 107.856 216.829 108.357C216.706 97.0217 216.277 92.5214 216.076 95.66C215.94 97.8145 215.807 108.752 215.131 118.528C209.884 114.003 207.692 110.459 206.846 108.702C206.831 108.674 206.806 108.652 206.777 108.641C206.747 108.63 206.715 108.63 206.685 108.641C206.656 108.653 206.631 108.674 206.616 108.702C206.601 108.73 206.596 108.763 206.602 108.794C208.141 115.471 213.407 119.439 214.989 120.496C214.713 123.992 214.361 127.247 213.91 129.769C212.732 136.272 211.862 145 211.862 145H218.38C218.38 145 216.719 139.272 216.846 119.745Z" fill="#F4F4F4"/>
<path d="M224.89 93.0441C224.797 92.8395 224.658 92.6603 224.484 92.5213C224.31 92.3822 224.105 92.2874 223.888 92.2445C223.671 92.2015 223.447 92.2118 223.234 92.2745C223.021 92.3372 222.827 92.4504 222.665 92.6049C222.596 92.6716 222.505 92.7088 222.41 92.7088C222.315 92.7088 222.223 92.6716 222.154 92.6049L222.109 92.5653C221.829 92.3322 221.471 92.2189 221.11 92.2493C220.749 92.2797 220.415 92.4514 220.176 92.7282C219.937 93.005 219.814 93.3653 219.831 93.7331C219.848 94.101 220.005 94.4477 220.268 94.7001L220.344 94.7638C220.601 94.9831 220.769 95.2913 220.816 95.6292C220.841 95.7643 220.893 95.8928 220.969 96.0062C221.045 96.1197 221.144 96.2157 221.259 96.2881C221.374 96.3605 221.502 96.4076 221.636 96.4265C221.769 96.4454 221.906 96.4357 222.035 96.3979C222.3 96.3156 222.582 96.3156 222.847 96.3979C222.985 96.4456 223.133 96.4606 223.278 96.442C223.424 96.4234 223.563 96.3715 223.686 96.2903C223.804 96.2125 223.904 96.1092 223.978 95.9877C224.053 95.8663 224.1 95.7296 224.117 95.5874C224.151 95.2509 224.305 94.9386 224.549 94.7089L224.622 94.6408C224.821 94.4336 224.952 94.17 225 93.8848C225.048 93.5997 225.009 93.3065 224.89 93.0441Z" fill="#FC7459"/>
<path d="M221.919 92.8245C221.899 92.8447 221.885 92.8708 221.881 92.8993C221.876 92.9277 221.88 92.9569 221.893 92.9826C221.946 93.0825 222.025 93.1656 222.122 93.2226C222.218 93.2797 222.328 93.3086 222.44 93.3061C222.551 93.3036 222.66 93.2698 222.754 93.2085C222.848 93.1471 222.923 93.0606 222.972 92.9585C222.986 92.9249 222.991 92.8877 222.984 92.8517C222.977 92.8156 222.96 92.7824 222.935 92.7564C222.918 92.7405 222.898 92.7283 222.876 92.7207C222.854 92.7132 222.831 92.7104 222.808 92.7125C222.717 92.7256 222.605 92.8311 222.532 92.8574C222.451 92.8772 222.366 92.8772 222.286 92.8574C222.23 92.8421 222.137 92.7652 222.07 92.7608C222.042 92.7586 222.013 92.7633 221.987 92.7743C221.961 92.7854 221.937 92.8026 221.919 92.8245Z" fill="#CE422C"/>
<path d="M222.346 93.2857C222.346 93.2857 222.346 92.1546 222.096 91.5594C222.177 91.5015 222.272 91.469 222.371 91.4659C222.47 91.4628 222.568 91.4892 222.652 91.5419C222.652 91.5419 222.411 92.7454 222.508 93.2835L222.346 93.2857Z" fill="#8E4539"/>
<path d="M206.415 111.089C206.322 110.885 206.183 110.706 206.009 110.567C205.835 110.428 205.631 110.334 205.414 110.291C205.197 110.248 204.973 110.258 204.761 110.321C204.548 110.383 204.353 110.496 204.192 110.65C204.125 110.718 204.034 110.757 203.939 110.759C203.844 110.761 203.751 110.726 203.681 110.661L203.636 110.621C203.356 110.388 202.997 110.275 202.637 110.305C202.276 110.336 201.941 110.507 201.703 110.784C201.464 111.061 201.34 111.421 201.358 111.789C201.375 112.157 201.532 112.504 201.795 112.756L201.871 112.82C202.128 113.039 202.296 113.347 202.343 113.685C202.367 113.82 202.419 113.949 202.495 114.063C202.572 114.176 202.67 114.272 202.785 114.345C202.9 114.417 203.028 114.464 203.162 114.483C203.296 114.502 203.432 114.492 203.562 114.454C203.827 114.371 204.109 114.371 204.373 114.454C204.512 114.501 204.66 114.517 204.805 114.498C204.951 114.479 205.09 114.427 205.213 114.346C205.331 114.268 205.431 114.165 205.505 114.044C205.58 113.922 205.627 113.785 205.644 113.643C205.679 113.307 205.832 112.995 206.076 112.765L206.149 112.697C206.35 112.488 206.482 112.223 206.53 111.935C206.577 111.648 206.537 111.352 206.415 111.089Z" fill="#FC7459"/>
<path d="M203.435 110.869C203.415 110.889 203.401 110.916 203.396 110.944C203.392 110.973 203.396 111.002 203.409 111.027C203.458 111.128 203.536 111.211 203.631 111.266C203.727 111.321 203.837 111.346 203.946 111.337C204.057 111.341 204.166 111.311 204.26 111.252C204.353 111.192 204.428 111.106 204.473 111.003C204.488 110.97 204.492 110.932 204.485 110.896C204.478 110.86 204.46 110.827 204.434 110.801C204.417 110.785 204.397 110.773 204.375 110.765C204.353 110.758 204.33 110.755 204.307 110.757C204.218 110.77 204.106 110.876 204.033 110.902C203.952 110.922 203.868 110.922 203.787 110.902C203.731 110.887 203.638 110.81 203.571 110.806C203.545 110.806 203.52 110.811 203.496 110.822C203.473 110.833 203.452 110.849 203.435 110.869Z" fill="#CE422C"/>
<path d="M203.86 111.337C203.86 111.337 203.86 110.206 203.612 109.611C203.693 109.553 203.789 109.521 203.888 109.517C203.987 109.514 204.084 109.541 204.169 109.593C204.169 109.593 203.927 110.797 204.024 111.337H203.86Z" fill="#8E4539"/>
<path d="M227.162 118.647C227.069 118.442 226.93 118.263 226.756 118.124C226.581 117.985 226.377 117.89 226.16 117.847C225.943 117.804 225.719 117.814 225.506 117.877C225.293 117.94 225.098 118.053 224.937 118.207C224.869 118.275 224.778 118.314 224.683 118.316C224.587 118.318 224.495 118.283 224.424 118.218L224.378 118.179C224.098 117.946 223.74 117.832 223.38 117.863C223.019 117.893 222.684 118.065 222.446 118.342C222.207 118.618 222.083 118.979 222.101 119.347C222.118 119.714 222.275 120.061 222.538 120.314L222.614 120.377C222.871 120.597 223.039 120.905 223.086 121.243C223.111 121.378 223.163 121.506 223.239 121.62C223.315 121.733 223.414 121.829 223.529 121.902C223.643 121.974 223.772 122.021 223.905 122.04C224.039 122.059 224.175 122.049 224.305 122.011C224.569 121.929 224.852 121.929 225.116 122.011C225.253 122.058 225.397 122.073 225.54 122.056C225.683 122.039 225.82 121.99 225.942 121.913C226.064 121.835 226.167 121.731 226.245 121.608C226.323 121.485 226.373 121.346 226.391 121.201C226.424 120.864 226.577 120.551 226.823 120.322L226.894 120.254C227.095 120.047 227.229 119.781 227.277 119.493C227.324 119.206 227.284 118.91 227.162 118.647Z" fill="#FC7459"/>
<path d="M224.191 118.427C224.17 118.447 224.157 118.473 224.152 118.502C224.148 118.53 224.152 118.559 224.165 118.585C224.218 118.685 224.297 118.768 224.393 118.825C224.49 118.882 224.6 118.911 224.711 118.908C224.823 118.906 224.932 118.872 225.026 118.811C225.119 118.749 225.195 118.663 225.244 118.561C225.259 118.527 225.263 118.489 225.257 118.453C225.25 118.416 225.233 118.383 225.207 118.357C225.19 118.341 225.17 118.329 225.148 118.322C225.126 118.315 225.102 118.312 225.08 118.315C224.989 118.328 224.877 118.433 224.806 118.46C224.725 118.48 224.64 118.48 224.56 118.46C224.501 118.444 224.411 118.368 224.344 118.363C224.315 118.361 224.286 118.366 224.26 118.377C224.233 118.388 224.21 118.405 224.191 118.427Z" fill="#CE422C"/>
<path d="M224.618 118.888C224.618 118.888 224.618 117.757 224.37 117.162C224.45 117.104 224.546 117.071 224.644 117.068C224.743 117.065 224.84 117.091 224.924 117.144C224.924 117.144 224.683 118.348 224.78 118.886L224.618 118.888Z" fill="#8E4539"/>
<path d="M215.42 84.1031C215.327 83.8988 215.188 83.72 215.014 83.5812C214.84 83.4425 214.635 83.3478 214.418 83.3049C214.201 83.262 213.977 83.2722 213.765 83.3346C213.552 83.397 213.357 83.5098 213.196 83.6638C213.127 83.7305 213.035 83.7678 212.94 83.7678C212.845 83.7678 212.754 83.7305 212.685 83.6638L212.639 83.6243C212.359 83.3912 212.001 83.2779 211.641 83.3082C211.28 83.3386 210.945 83.5103 210.706 83.7871C210.468 84.0639 210.344 84.4242 210.361 84.7921C210.379 85.1599 210.535 85.5066 210.799 85.7591L210.874 85.8228C211.131 86.042 211.3 86.3502 211.347 86.6881C211.371 86.8233 211.423 86.9517 211.5 87.0652C211.576 87.1786 211.674 87.2746 211.789 87.347C211.904 87.4194 212.032 87.4666 212.166 87.4855C212.3 87.5044 212.436 87.4946 212.566 87.4568C212.83 87.3745 213.113 87.3745 213.377 87.4568C213.516 87.5045 213.664 87.5196 213.809 87.5009C213.954 87.4823 214.094 87.4304 214.216 87.3492C214.335 87.2714 214.434 87.1681 214.509 87.0467C214.584 86.9252 214.631 86.7886 214.648 86.6464C214.682 86.3098 214.835 85.9974 215.079 85.7679L215.151 85.6998C215.349 85.4928 215.481 85.2293 215.53 84.9441C215.578 84.659 215.54 84.3657 215.42 84.1031Z" fill="#FC7459"/>
<path d="M212.456 83.8834C212.436 83.9042 212.422 83.9307 212.418 83.9594C212.413 83.9881 212.417 84.0176 212.43 84.0438C212.484 84.1429 212.563 84.2252 212.659 84.2815C212.756 84.3379 212.866 84.3663 212.977 84.3636C213.088 84.3609 213.197 84.3272 213.29 84.2661C213.384 84.2051 213.459 84.1191 213.509 84.0174C213.524 83.984 213.528 83.9466 213.522 83.9105C213.515 83.8743 213.498 83.841 213.472 83.8154C213.455 83.7994 213.435 83.7873 213.413 83.7797C213.391 83.7721 213.368 83.7693 213.345 83.7714C213.254 83.7846 213.142 83.89 213.071 83.9164C212.99 83.9362 212.905 83.9362 212.825 83.9164C212.766 83.901 212.674 83.8241 212.609 83.8197C212.58 83.8172 212.551 83.8217 212.525 83.8328C212.498 83.8438 212.474 83.8612 212.456 83.8834Z" fill="#CE422C"/>
<path d="M212.887 84.3402C212.887 84.3402 212.887 83.2091 212.639 82.6161C212.719 82.5578 212.815 82.5248 212.913 82.5213C213.012 82.5178 213.109 82.5439 213.194 82.5963C213.194 82.5963 212.952 83.7999 213.049 84.3402H212.887Z" fill="#8E4539"/>
<path d="M209.112 102.657C208.872 101.68 208.812 99.7143 211.209 97.6696C211.292 97.599 211.392 97.5525 211.499 97.5349C211.606 97.5174 211.716 97.5295 211.817 97.5699C211.918 97.6103 212.006 97.6776 212.072 97.7647C212.139 97.8518 212.181 97.9555 212.195 98.0649C212.369 99.4705 212.305 101.968 209.936 103.064C209.856 103.1 209.77 103.118 209.682 103.117C209.595 103.116 209.509 103.095 209.431 103.056C209.352 103.017 209.283 102.962 209.228 102.893C209.172 102.824 209.133 102.744 209.112 102.657Z" fill="#FFAAA1"/>
<path d="M220.622 115.447C220.383 114.471 220.322 112.503 222.719 110.459C222.802 110.388 222.903 110.342 223.01 110.324C223.117 110.307 223.226 110.319 223.327 110.359C223.428 110.399 223.516 110.467 223.583 110.554C223.649 110.641 223.692 110.745 223.705 110.854C223.88 112.26 223.815 114.757 221.446 115.853C221.367 115.889 221.28 115.907 221.193 115.906C221.106 115.905 221.02 115.884 220.941 115.845C220.863 115.807 220.793 115.751 220.738 115.682C220.683 115.613 220.643 115.533 220.622 115.447Z" fill="#FFAAA1"/>
<path d="M208.939 125.005C207.981 124.759 206.251 123.88 205.616 120.764C205.595 120.657 205.602 120.546 205.637 120.443C205.672 120.34 205.733 120.248 205.815 120.177C205.896 120.106 205.995 120.059 206.1 120.039C206.205 120.02 206.314 120.03 206.415 120.068C207.709 120.575 209.843 121.814 209.673 124.46C209.665 124.548 209.64 124.632 209.598 124.709C209.556 124.785 209.498 124.852 209.428 124.903C209.359 124.955 209.279 124.991 209.194 125.008C209.11 125.026 209.023 125.025 208.939 125.005Z" fill="#FFAAA1"/>
<path d="M223.556 87.5995C222.663 87.1602 221.133 85.9676 221.103 82.7852C221.102 82.6746 221.13 82.5657 221.185 82.4701C221.24 82.3746 221.319 82.2957 221.414 82.242C221.509 82.1883 221.616 82.1616 221.725 82.1648C221.833 82.168 221.939 82.201 222.031 82.2603C223.207 83.0136 225.051 84.6498 224.389 87.2107C224.366 87.2963 224.324 87.3756 224.268 87.4431C224.211 87.5107 224.141 87.5648 224.061 87.6019C223.982 87.6389 223.896 87.6578 223.809 87.6574C223.721 87.657 223.635 87.6372 223.556 87.5995Z" fill="#FFAAA1"/>
</g>
</g>
<defs>
<clipPath id="clip0">
<rect width="375" height="140" fill="white"/>
</clipPath>
<clipPath id="clip1">
<rect width="55" height="62" fill="white" transform="translate(320 78)"/>
</clipPath>
<clipPath id="clip2">
<rect width="45" height="57" fill="white" transform="translate(275 88)"/>
</clipPath>
<clipPath id="clip3">
<rect width="43" height="98" fill="white" transform="translate(158 44)"/>
</clipPath>
<clipPath id="clip4">
<rect width="33" height="71" fill="white" transform="translate(198 74)"/>
</clipPath>
</defs>
</svg>
