<svg width="243" height="239" viewBox="0 0 243 239" fill="none" xmlns="http://www.w3.org/2000/svg">
<g clip-path="url(#clip0)">
<path d="M173.87 91.9603C173.87 91.9603 183.184 90.869 185.523 93.6907C187.863 96.5123 188.835 102.058 190.588 109.258C192.341 116.458 193.998 135.04 192.829 137.862C191.66 140.683 188.056 141.559 183.673 141.462L179.29 141.365L171.498 141.17L173.87 91.9603Z" fill="#CECAC9"/>
<path d="M159.7 218.013C159.7 218.013 159.763 226.482 159.254 227.375C159.254 227.375 155.369 227.246 155.237 232.087H172.452C172.452 232.087 171.942 219.286 171.814 217.629L159.7 218.013Z" fill="#A4A1A0"/>
<path d="M142.855 193.565C142.855 193.565 146.647 203.181 146.739 209.882L121.459 209.979C121.459 209.979 120.097 206.289 122.915 203.181C125.734 200.073 130.208 203.763 132.348 202.113C134.488 200.463 132.445 193.856 132.445 193.856L142.855 193.565Z" fill="#A4A1A0"/>
<path d="M175.707 135.355C175.707 135.355 174.54 201.257 172.187 219.074C172.187 219.074 163.774 219.409 159.062 218.905C159.062 218.905 158.445 189.713 157.435 179.461C156.425 169.208 154.165 151.541 154.165 151.541C154.165 151.541 137.88 163.491 135.188 165.849C135.188 165.849 140.207 172.319 143.908 195.513H131.793C131.793 195.513 123.213 178.623 120.518 172.904C117.823 167.186 114.184 164.162 117.886 158.951C121.589 153.741 146.154 134.412 146.154 134.412L175.707 135.355Z" fill="#E5E3E2"/>
<path d="M166.208 219.485C163.766 219.485 161.049 219.423 159.027 219.207L158.761 219.178V218.911C158.754 218.62 158.131 189.614 157.134 179.49C156.232 170.332 154.308 155.07 153.929 152.085C151.435 153.92 138.489 163.452 135.599 165.889C135.999 166.485 137.074 168.253 138.448 171.865C141.296 179.355 143.154 188.828 144.212 195.455L144.268 195.805H131.604L131.519 195.64C131.434 195.471 122.909 178.686 120.246 173.033C119.649 171.764 119.014 170.646 118.4 169.565C116.308 165.883 114.657 162.977 117.642 158.773C121.326 153.587 144.966 134.961 145.971 134.171L146.057 134.103H146.167L176.016 135.052V135.35C176.005 136.01 174.82 201.474 172.489 219.103L172.455 219.356L172.2 219.367C172.148 219.378 169.416 219.485 166.208 219.485ZM159.357 218.636C163.566 219.047 170.502 218.834 171.915 218.785C174.14 201.445 175.314 140.483 175.399 135.654L146.254 134.722C144.648 135.991 121.657 154.17 118.131 159.13C115.371 163.018 116.86 165.641 118.923 169.27C119.542 170.361 120.183 171.49 120.791 172.779C123.308 178.122 131.073 193.436 131.972 195.204H143.544C142.485 188.647 140.658 179.44 137.889 172.143C136.205 167.695 134.952 166.045 134.94 166.029L134.766 165.803L134.98 165.615C137.65 163.281 153.31 151.785 153.977 151.297L154.392 150.992L154.457 151.502C154.479 151.679 156.73 169.291 157.729 179.43C158.682 189.055 159.291 215.663 159.357 218.631V218.636Z" fill="#A4A1A0"/>
<path d="M170.239 75.8971C170.239 75.8971 167.366 77.0927 166.168 78.8873L162.457 79.604L162.214 82.2353C162.214 82.2353 157.905 84.7466 158.624 86.54C159.342 88.3334 164.13 89.7691 164.13 89.7691V97.5418L173.95 92.5096V88.8075L175.631 84.9806L170.239 75.8971Z" fill="#E5E3E2"/>
<path d="M163.83 98.0329V89.9862C162.859 89.6745 159.025 88.3479 158.344 86.6479C157.604 84.7987 161.09 82.5554 161.93 82.0485L162.173 79.3457L165.986 78.6084C167.256 76.8199 170.002 75.6618 170.12 75.6133L170.362 75.5115L175.962 84.96L174.253 88.8718V92.7011L163.83 98.0329ZM162.738 79.8538L162.505 82.4135L162.37 82.4924C161.311 83.1096 158.402 85.16 158.908 86.4223C159.452 87.7829 162.927 89.09 164.22 89.4732L164.436 89.5387V97.041L173.645 92.3289V88.7505L175.285 85.0073L170.115 76.2863C169.413 76.6125 167.356 77.6553 166.42 79.0559L166.349 79.1614L162.738 79.8538Z" fill="#A4A1A0"/>
<path d="M170.245 75.8705C170.245 75.8705 171.348 81.8898 169.577 83.9536C169.577 83.9536 173.317 82.9714 174.005 84.2495C174.694 85.5275 173.71 87.6896 171.841 88.0825C171.841 88.0825 171.151 91.0315 173.905 91.0315C173.905 91.0315 176.66 89.9511 178.137 88.673L176.66 82.775L170.245 75.8705Z" fill="#CECAC9"/>
<path d="M176.784 89.7413L169.951 75.2909L171.711 74.1038C171.711 74.1038 177.032 78.9347 179.928 81.4411C183.869 84.8533 176.784 89.7413 176.784 89.7413Z" fill="#E5E3E2"/>
<path d="M176.663 90.1935L169.561 75.1901L171.734 73.7253L171.91 73.8842C171.964 73.9327 177.261 78.7406 180.123 81.2167C181.038 82.0073 181.473 82.9434 181.415 83.9972C181.346 85.268 180.566 86.6649 179.109 88.1539C178.446 88.8265 177.726 89.4411 176.958 89.991L176.663 90.1935ZM170.337 75.3999L176.902 89.278C177.832 88.5735 180.691 86.2308 180.815 83.962C180.862 83.0938 180.507 82.3456 179.731 81.6726C177.159 79.45 172.63 75.3514 171.683 74.4929L170.337 75.3999Z" fill="#A4A1A0"/>
<path d="M171.711 74.1086L166.701 67.9923C166.701 67.9923 165.836 68.8144 166.485 70.0246C167.135 71.2348 169.951 75.2909 169.951 75.2909L171.711 74.1086Z" fill="#A4A1A0"/>
<path d="M169.872 75.7141L169.702 75.4715C169.587 75.3054 166.867 71.3827 166.217 70.1713C165.617 69.0521 166.134 68.116 166.492 67.7764L166.729 67.5509L172.157 74.1777L169.872 75.7141ZM166.716 68.4858C166.56 68.7708 166.422 69.2619 166.755 69.8815C167.297 70.8916 169.414 73.9801 170.032 74.8762L171.268 74.0443L166.716 68.4858Z" fill="#A4A1A0"/>
<path d="M173.95 92.5095C173.95 92.5095 170.867 108.357 171.001 112.263C171.135 116.168 173.09 123.074 177.799 124.729L177.203 135.452C177.203 135.452 158.615 137.703 143.673 135.584C143.673 135.584 145.251 116.367 152.277 101.608L161.253 92.3665L163.188 92.4271L164.139 97.5321L173.95 92.5095Z" fill="#A4A1A0"/>
<path d="M165.839 133.859C164.756 133.859 163.727 133.808 162.852 133.738C160.527 133.567 158.763 133.262 158.745 133.259L158.849 132.662C158.919 132.674 165.807 133.852 170.467 132.826L170.598 133.419C169.112 133.749 167.42 133.859 165.839 133.859Z" fill="#E5E3E2"/>
<path d="M185.814 119.032C185.814 119.032 187.178 121.112 187.756 121.901C187.756 121.901 179.763 127.955 176.673 130.709C176.634 130.743 176.588 130.77 176.539 130.787C176.489 130.804 176.437 130.811 176.385 130.807C176.333 130.804 176.282 130.79 176.235 130.767C176.188 130.743 176.147 130.711 176.113 130.671C175.715 130.186 174.747 129.449 172.894 130.221C170.309 131.297 166.157 133.967 165.423 134.555C164.689 135.143 164.639 136.072 164.937 136.463C165.217 136.835 165.804 136.854 166.281 136.647C166.293 136.647 166.303 136.655 166.293 136.664C166.082 136.847 165.45 137.47 165.82 138.128C166.241 138.877 166.841 138.686 167.322 138.412C167.329 138.408 167.337 138.405 167.346 138.404C167.354 138.404 167.363 138.405 167.371 138.408C167.379 138.412 167.386 138.417 167.391 138.423C167.397 138.43 167.401 138.438 167.403 138.446C167.455 138.689 167.678 139.416 168.418 139.499C168.907 139.541 169.395 139.408 169.793 139.121C169.807 139.112 169.823 139.106 169.839 139.104C169.856 139.103 169.873 139.106 169.888 139.113C169.903 139.12 169.916 139.131 169.925 139.145C169.935 139.159 169.94 139.175 169.941 139.192C169.973 139.694 170.388 140.669 171.456 140.283C172.826 139.788 174.514 138.877 175.108 138.547C175.132 138.533 175.16 138.526 175.188 138.525C175.216 138.524 175.243 138.529 175.269 138.541C175.294 138.553 175.316 138.571 175.333 138.593C175.351 138.615 175.362 138.641 175.368 138.668C175.528 139.428 176.299 141.659 179.738 140.677C183.854 139.502 199.586 129.907 201.056 127.508C202.526 125.11 203.311 120.112 201.645 117.865C199.978 115.618 193.41 108.563 193.41 108.563L185.814 119.032Z" fill="#E5E3E2"/>
<path d="M178.156 141.222C177.558 141.237 176.968 141.087 176.45 140.789C175.592 140.272 175.237 139.435 175.101 138.891C174.372 139.293 172.832 140.104 171.551 140.567C170.966 140.779 170.556 140.635 170.315 140.477C169.998 140.25 169.774 139.916 169.684 139.536C169.284 139.754 168.828 139.846 168.375 139.801C167.669 139.722 167.339 139.194 167.191 138.815C166.912 138.953 166.595 138.99 166.292 138.92C166.131 138.869 165.982 138.785 165.853 138.675C165.725 138.564 165.621 138.429 165.547 138.276C165.443 138.094 165.389 137.887 165.392 137.676C165.394 137.466 165.452 137.26 165.56 137.08C165.392 137.075 165.226 137.034 165.075 136.959C164.924 136.884 164.791 136.777 164.686 136.646C164.267 136.087 164.411 134.972 165.23 134.317C166.049 133.663 170.207 131.011 172.773 129.941C173.471 129.65 175.217 129.12 176.344 130.477C176.35 130.485 176.358 130.492 176.368 130.497C176.377 130.502 176.388 130.505 176.398 130.505C176.411 130.506 176.423 130.505 176.435 130.501C176.447 130.497 176.458 130.49 176.467 130.482C179.234 128.018 185.988 122.862 187.333 121.839C186.706 120.945 185.611 119.276 185.56 119.199L185.445 119.024L193.374 108.083L193.625 108.353C193.895 108.641 200.224 115.441 201.88 117.681C202.685 118.772 203.019 120.536 202.82 122.652C202.647 124.5 202.067 126.42 201.307 127.66C200.478 129.011 195.723 132.235 191.54 134.802C187.597 137.228 182.161 140.292 179.812 140.961C179.275 141.124 178.717 141.212 178.156 141.222ZM175.186 138.224C175.254 138.224 175.321 138.239 175.383 138.268C175.452 138.299 175.512 138.346 175.559 138.405C175.607 138.464 175.639 138.533 175.655 138.606C175.746 139.036 176.01 139.819 176.764 140.274C177.463 140.696 178.433 140.733 179.647 140.388C183.818 139.197 199.434 129.573 200.79 127.351C202.146 125.13 203.012 120.233 201.397 118.046C199.94 116.082 194.655 110.355 193.436 109.041L186.185 119.046C186.526 119.563 187.534 121.087 188.006 121.728L188.181 121.971L187.938 122.15C187.858 122.211 179.926 128.228 176.873 130.942C176.803 131.004 176.721 131.052 176.632 131.082C176.543 131.112 176.449 131.124 176.356 131.117C176.264 131.111 176.174 131.087 176.092 131.045C176.01 131.003 175.938 130.945 175.879 130.875C175.515 130.443 174.665 129.821 173.009 130.511C170.532 131.542 166.376 134.191 165.611 134.802C164.982 135.306 164.992 136.05 165.174 136.293C165.356 136.535 165.82 136.526 166.155 136.38C166.224 136.349 166.302 136.345 166.374 136.367C166.446 136.389 166.507 136.436 166.547 136.5C166.587 136.564 166.603 136.64 166.591 136.714C166.58 136.789 166.542 136.856 166.484 136.905C166.325 137.043 165.82 137.532 166.079 137.996C166.115 138.078 166.167 138.151 166.232 138.212C166.297 138.273 166.373 138.321 166.456 138.353C166.63 138.4 166.861 138.34 167.165 138.166C167.213 138.138 167.268 138.122 167.324 138.119C167.38 138.116 167.435 138.127 167.486 138.149C167.538 138.171 167.583 138.205 167.619 138.248C167.654 138.291 167.679 138.342 167.692 138.397C167.743 138.623 167.919 139.157 168.444 139.215C168.86 139.251 169.275 139.135 169.612 138.89C169.67 138.849 169.738 138.825 169.809 138.819C169.879 138.813 169.95 138.826 170.014 138.857C170.078 138.888 170.132 138.935 170.172 138.993C170.211 139.052 170.234 139.12 170.239 139.191C170.252 139.411 170.373 139.804 170.651 139.987C170.835 140.109 171.063 140.117 171.347 140.014C172.682 139.529 174.314 138.652 174.955 138.297C175.024 138.254 175.104 138.229 175.186 138.224Z" fill="#A4A1A0"/>
<path d="M169.219 74.0783C169.045 73.7145 167.298 72.5735 167.046 72.2594C166.779 71.932 165.879 70.8188 165.643 70.5278C165.234 70.0258 162.532 69.1564 161.985 69.0169C161.075 68.7841 157.852 69.4692 154.474 70.3083C153.648 70.5145 150.252 71.6725 149.236 72.046C144.36 73.8406 137.892 76.917 137.378 81.1222C136.865 85.3275 147.543 95.94 147.543 95.94L153.909 87.4168C153.74 87.4168 148.411 83.3255 147.064 82.3166C147.064 82.3166 161.978 77.4663 164.969 75.9578C165.634 75.9578 166.426 75.9432 167.266 75.8729C169.577 75.6753 169.495 74.6579 169.219 74.0783Z" fill="#E5E3E2"/>
<path d="M147.577 96.4106L147.334 96.168C146.894 95.7303 136.558 85.399 137.083 81.0968C137.499 77.7015 141.553 74.5646 149.138 71.7744C150.164 71.3961 153.564 70.2356 154.408 70.0271C160.183 68.5914 161.544 68.6023 162.066 68.7357C162.098 68.7429 165.338 69.679 165.884 70.3484L166.553 71.1742C166.848 71.5379 167.15 71.9126 167.287 72.08C167.548 72.3144 167.822 72.5326 168.109 72.7336C168.891 73.3192 169.375 73.6939 169.499 73.9546C169.717 74.4106 169.721 74.8604 169.513 75.223C169.206 75.7565 168.46 76.0718 167.297 76.1737C166.575 76.2331 165.82 76.2598 165.045 76.2598C162.236 77.6373 150.46 81.5236 147.716 82.4221L148.856 83.2867C150.615 84.6206 153.519 86.8287 153.984 87.1112H154.508L147.577 96.4106ZM161.499 69.2813C160.678 69.2813 158.783 69.559 154.548 70.6152C153.739 70.8152 150.33 71.9793 149.342 72.3431C144.286 74.2032 138.159 77.2444 137.679 81.1707C137.233 84.834 145.921 93.8702 147.512 95.489L153.472 87.4968C152.945 87.1403 151.696 86.2078 148.486 83.7693C147.799 83.2479 147.219 82.8077 146.885 82.5567L146.417 82.2063L146.972 82.0256C147.121 81.9771 161.904 77.1595 164.835 75.685L164.901 75.6523H164.974C165.754 75.6523 166.517 75.6292 167.244 75.5686C168.169 75.4922 168.787 75.2618 168.982 74.9211C169.118 74.6846 169.039 74.4081 168.948 74.2166C168.855 74.0529 168.158 73.5314 167.741 73.2186C167.246 72.8548 166.935 72.6123 166.813 72.4631L166.077 71.5549L165.411 70.7316C165.115 70.3678 162.749 69.536 161.912 69.3225C161.777 69.2923 161.638 69.2785 161.499 69.2813Z" fill="#A4A1A0"/>
<path d="M154.456 86.5036C154.456 86.5036 158.066 89.1931 161.254 92.3713L163.189 92.4319L163.021 99.1788L173.946 92.5095C173.946 92.5095 178.01 92.9776 183.028 97.8061C188.045 102.635 194.182 108.883 194.182 108.883C194.182 108.883 192.745 114.767 185.373 119.675L178.642 112.34C178.642 112.34 178.174 121.486 177.731 125.791L177.195 135.451C177.195 135.451 172.614 136.005 166.174 136.3L165.657 136.323L165.172 136.343C163.061 136.429 160.777 136.486 158.405 136.486C153.606 136.486 148.451 136.256 143.669 135.578C143.669 135.578 145.247 116.367 152.27 101.608L146.258 95.6659C146.258 95.6659 148.217 89.3702 154.457 86.4975L154.456 86.5036ZM154.457 85.8912C154.37 85.891 154.283 85.9101 154.204 85.947C150.848 87.4906 148.712 89.9958 147.51 91.8256C146.209 93.807 145.7 95.4185 145.678 95.4852C145.646 95.5906 145.643 95.7028 145.67 95.8096C145.697 95.9164 145.753 96.0139 145.831 96.0915L151.537 101.737C147.993 109.328 145.887 118.016 144.739 124.014C143.474 130.616 143.066 135.48 143.062 135.533C143.049 135.687 143.096 135.841 143.193 135.961C143.289 136.082 143.428 136.162 143.582 136.183C147.862 136.79 152.848 137.098 158.403 137.098C160.588 137.098 162.874 137.049 165.193 136.955L165.686 136.934L166.205 136.91C172.594 136.613 177.224 136.061 177.27 136.052C177.411 136.035 177.542 135.969 177.64 135.865C177.737 135.761 177.795 135.626 177.803 135.484L178.339 125.839C178.672 122.593 179.022 116.57 179.173 113.815L184.927 120.085C185.025 120.192 185.158 120.26 185.302 120.277C185.446 120.295 185.591 120.26 185.712 120.18C187.864 118.746 190.887 116.299 193.062 112.755C194.378 110.613 194.762 109.09 194.775 109.026C194.799 108.926 194.798 108.821 194.77 108.722C194.743 108.622 194.691 108.531 194.618 108.458C194.558 108.396 188.416 102.152 183.45 97.3684C178.343 92.4538 174.191 91.9263 174.018 91.9117C173.994 91.9105 173.971 91.9105 173.947 91.9117C173.836 91.9118 173.727 91.9424 173.632 92.0003L163.654 98.0875L163.79 92.4526C163.794 92.2928 163.734 92.138 163.624 92.022C163.514 91.9059 163.363 91.838 163.203 91.8329L161.503 91.7784C158.369 88.679 154.851 86.0501 154.815 86.0234C154.71 85.9447 154.583 85.9022 154.451 85.9022L154.457 85.8912Z" fill="#E5E3E2"/>
<path d="M173.95 92.5096C173.95 92.5096 178.014 92.9777 183.031 97.8062C188.048 102.635 194.186 108.883 194.186 108.883C194.186 108.883 192.749 114.767 185.377 119.675L178.645 112.34C178.645 112.34 178.014 124.698 177.524 127.448L153.416 105.573L152.559 101.906L146.254 95.672C146.254 95.672 148.212 89.3763 154.453 86.5037C154.453 86.5037 158.063 89.1932 161.251 92.3714L164.136 97.537L173.95 92.5096Z" fill="#A4A1A0"/>
<path d="M165.708 98.9933C165.295 99.2164 164.13 99.5523 163.846 98.7617C163.562 97.971 164.59 96.4371 166.871 94.9953C169.152 93.5536 173.946 90.8568 174.923 91.1357C175.9 91.4146 175.854 93.4141 175.296 93.8798C174.738 94.3454 168.035 97.7382 165.708 98.9933Z" fill="#A4A1A0"/>
<path d="M164.672 99.5609C164.494 99.5638 164.318 99.5342 164.152 99.4736C164.014 99.4226 163.89 99.3418 163.788 99.2369C163.685 99.1321 163.607 99.0058 163.56 98.8673C163.195 97.8244 164.457 96.1668 166.709 94.7444C166.778 94.7008 173.576 90.4434 175.007 90.8496C175.472 90.983 175.802 91.4025 175.935 92.0307C176.086 92.7485 175.962 93.7283 175.49 94.1175C175.126 94.4219 172.698 95.6939 169.309 97.4534C167.935 98.1676 166.638 98.8418 165.851 99.265C165.486 99.4525 165.082 99.5538 164.672 99.5609ZM174.741 91.4183C173.945 91.4183 170.633 92.9789 167.034 95.2537C164.719 96.7173 163.943 98.1276 164.133 98.6623C164.151 98.719 164.183 98.7705 164.225 98.8127C164.267 98.8548 164.319 98.8864 164.375 98.9048C164.701 99.0261 165.277 98.8818 165.569 98.7242C166.359 98.2985 167.658 97.6231 169.033 96.9053C171.583 95.5787 174.762 93.9272 175.103 93.641C175.321 93.4591 175.467 92.7655 175.346 92.1458C175.297 91.9142 175.167 91.5141 174.846 91.4183C174.811 91.4129 174.776 91.4129 174.741 91.4183Z" fill="#E5E3E2"/>
<path d="M164.441 92.124C164.441 92.124 162.601 91.5723 162.165 92.9255C161.729 94.2788 162.31 97.7116 162.601 98.5338C162.891 99.3559 164.057 99.4032 164.15 97.2278C164.242 95.0524 164.441 92.124 164.441 92.124Z" fill="#A4A1A0"/>
<path d="M163.223 99.3583C162.834 99.3583 162.471 99.0758 162.314 98.6307C162.004 97.7528 161.41 94.2788 161.876 92.8297C162.292 91.5347 163.793 91.6098 164.527 91.8305L164.759 91.8996L164.743 92.1422C164.743 92.1713 164.548 95.0924 164.453 97.235C164.374 99.0018 163.649 99.2965 163.341 99.3437C163.302 99.3516 163.263 99.3565 163.223 99.3583ZM163.618 92.3119C163.165 92.3119 162.638 92.4453 162.454 93.0189C162.041 94.3006 162.611 97.6534 162.887 98.4319C162.961 98.6405 163.112 98.7702 163.251 98.7508C163.506 98.712 163.8 98.216 163.845 97.2144C163.925 95.4331 164.071 93.1231 164.119 92.3641C163.952 92.3315 163.783 92.3141 163.613 92.3119H163.618Z" fill="#E5E3E2"/>
<path d="M167.046 72.2678C167.046 72.2678 166.474 72.9274 165.493 72.5819C164.513 72.2363 163.59 71.1425 163.59 71.1425L161.283 70.6805" fill="#E5E3E2"/>
<path d="M166.053 72.9868C165.827 72.9844 165.604 72.9434 165.393 72.8656C164.497 72.5503 163.674 71.6882 163.43 71.4165L161.224 70.9764C161.145 70.9603 161.075 70.9135 161.031 70.8463C160.986 70.7791 160.97 70.697 160.987 70.6181C161.003 70.5391 161.049 70.4698 161.117 70.4253C161.184 70.3809 161.266 70.3649 161.345 70.381L163.756 70.866L163.824 70.9461C163.834 70.957 164.708 71.9828 165.596 72.2969C166.36 72.5649 166.803 72.0871 166.821 72.0677C166.875 72.0108 166.949 71.977 167.027 71.9733C167.106 71.9696 167.183 71.9964 167.242 72.048C167.301 72.0996 167.337 72.172 167.344 72.25C167.351 72.3281 167.327 72.4057 167.278 72.4666C167.119 72.6312 166.929 72.7621 166.718 72.8515C166.508 72.9409 166.282 72.9869 166.053 72.9868Z" fill="#A4A1A0"/>
<path d="M166.901 74.6373C165.984 74.6373 164.681 73.1507 163.411 71.544C163.329 71.4385 163.257 71.3476 163.198 71.2748L163.67 70.894C163.731 70.968 163.803 71.0614 163.887 71.1681C164.448 71.8762 166.151 74.031 166.901 74.031C167.142 74.0323 167.379 73.9783 167.595 73.8732C167.81 73.768 167.999 73.6146 168.146 73.4247L168.648 73.7655C168.445 74.0367 168.182 74.2568 167.878 74.4082C167.575 74.5595 167.241 74.638 166.901 74.6373Z" fill="#A4A1A0"/>
<path d="M168.412 75.925C167.979 75.925 166.833 75.7722 166.083 74.2553L166.627 73.9873C167.355 75.457 168.487 75.3211 168.498 75.3211L168.583 75.9214C168.526 75.9268 168.469 75.928 168.412 75.925Z" fill="#A4A1A0"/>
<path d="M166.902 74.3342L164.179 73.8152C164.179 73.8152 161.543 71.6713 158.716 74.3003" fill="#E5E3E2"/>
<path d="M166.901 74.6372C166.883 74.639 166.863 74.639 166.844 74.6372L164.046 74.1037L163.987 74.0552C163.887 73.9752 161.515 72.115 158.926 74.5305C158.896 74.5575 158.861 74.5784 158.824 74.592C158.786 74.6055 158.746 74.6115 158.706 74.6096C158.665 74.6077 158.626 74.5979 158.59 74.5808C158.553 74.5637 158.521 74.5396 158.494 74.5099C158.467 74.4802 158.446 74.4455 158.432 74.4077C158.419 74.37 158.413 74.3299 158.415 74.2898C158.416 74.2497 158.426 74.2104 158.443 74.1741C158.461 74.1378 158.485 74.1052 158.514 74.0782C161.245 71.5318 163.862 73.2064 164.307 73.5265L166.962 74.0334C167.043 74.0409 167.117 74.0801 167.168 74.1423C167.22 74.2045 167.245 74.2846 167.237 74.365C167.23 74.4454 167.19 74.5195 167.128 74.571C167.066 74.6225 166.986 74.6472 166.905 74.6397L166.901 74.6372Z" fill="#A4A1A0"/>
<path d="M166.284 136.967C166.217 136.967 166.153 136.945 166.1 136.904C166.047 136.864 166.009 136.807 165.992 136.743C165.974 136.679 165.978 136.611 166.003 136.55C166.028 136.488 166.072 136.437 166.129 136.403L171.67 133.129C171.739 133.088 171.822 133.076 171.9 133.097C171.978 133.117 172.045 133.167 172.086 133.236C172.127 133.306 172.138 133.388 172.118 133.466C172.098 133.544 172.048 133.611 171.978 133.652L166.438 136.919C166.392 136.949 166.338 136.966 166.284 136.967Z" fill="#A4A1A0"/>
<path d="M167.313 138.412C170.712 136.552 172.881 135.076 172.881 135.076L167.313 138.412Z" fill="#E5E3E2"/>
<path d="M167.313 138.715C167.245 138.716 167.18 138.693 167.126 138.652C167.072 138.611 167.034 138.553 167.017 138.487C167.001 138.422 167.006 138.352 167.034 138.291C167.061 138.229 167.108 138.177 167.167 138.145C170.517 136.314 172.688 134.84 172.71 134.825C172.743 134.803 172.78 134.787 172.819 134.779C172.858 134.771 172.898 134.77 172.938 134.778C172.977 134.785 173.014 134.8 173.048 134.822C173.081 134.844 173.11 134.872 173.132 134.905C173.155 134.938 173.17 134.975 173.179 135.014C173.187 135.053 173.187 135.093 173.18 135.132C173.172 135.171 173.157 135.208 173.135 135.242C173.114 135.275 173.085 135.304 173.053 135.326C173.031 135.341 170.835 136.832 167.459 138.678C167.414 138.702 167.364 138.715 167.313 138.715Z" fill="#A4A1A0"/>
<path d="M169.789 139.451C169.723 139.452 169.658 139.43 169.605 139.39C169.552 139.349 169.514 139.293 169.496 139.229C169.479 139.165 169.483 139.097 169.508 139.035C169.532 138.973 169.577 138.921 169.634 138.888L173.849 136.39C173.883 136.368 173.921 136.354 173.961 136.348C174.001 136.342 174.042 136.344 174.081 136.353C174.12 136.363 174.157 136.38 174.189 136.404C174.221 136.428 174.249 136.458 174.269 136.493C174.29 136.528 174.303 136.566 174.309 136.606C174.314 136.646 174.312 136.686 174.302 136.725C174.291 136.764 174.273 136.801 174.249 136.833C174.224 136.864 174.194 136.891 174.159 136.911L169.944 139.409C169.897 139.437 169.844 139.452 169.789 139.451Z" fill="#A4A1A0"/>
<path d="M175.643 130.274C175.643 130.274 176.338 130.464 178.642 134.783L175.643 130.274Z" fill="#E5E3E2"/>
<path d="M178.642 135.086C178.586 135.086 178.532 135.071 178.485 135.043C178.438 135.014 178.399 134.973 178.373 134.925C176.336 131.106 175.598 130.597 175.529 130.559C175.457 130.531 175.398 130.475 175.366 130.405C175.333 130.334 175.329 130.254 175.354 130.18C175.378 130.107 175.431 130.046 175.5 130.009C175.568 129.973 175.648 129.965 175.723 129.986C175.916 130.038 176.714 130.529 178.909 134.643C178.947 134.714 178.955 134.797 178.933 134.873C178.91 134.95 178.858 135.015 178.787 135.053C178.742 135.076 178.692 135.088 178.642 135.086Z" fill="#A4A1A0"/>
<path d="M144.887 83.2829C144.812 83.2853 144.74 83.2603 144.683 83.2128C144.626 83.1653 144.588 83.0985 144.577 83.0251C144.566 82.9517 144.582 82.8768 144.623 82.8145C144.663 82.7523 144.725 82.7071 144.797 82.6875L146.973 82.0182C147.05 81.9945 147.134 82.0024 147.205 82.04C147.276 82.0777 147.329 82.142 147.353 82.2188C147.377 82.2957 147.369 82.3788 147.331 82.4499C147.293 82.5209 147.229 82.5741 147.152 82.5978L144.975 83.2671C144.947 83.277 144.917 83.2823 144.887 83.2829Z" fill="#A4A1A0"/>
<path d="M166.273 136.648C166.285 136.648 166.295 136.656 166.285 136.665C166.074 136.848 165.441 137.471 165.811 138.13" fill="#E5E3E2"/>
<path d="M165.811 138.432C165.758 138.432 165.705 138.417 165.658 138.39C165.612 138.363 165.573 138.323 165.547 138.276C165.11 137.5 165.699 136.8 166.001 136.512C166.033 136.448 166.086 136.398 166.151 136.369C166.221 136.338 166.298 136.334 166.371 136.356C166.443 136.378 166.505 136.426 166.545 136.49C166.585 136.554 166.601 136.63 166.589 136.704C166.578 136.778 166.539 136.846 166.482 136.894C166.323 137.032 165.818 137.521 166.076 137.985C166.102 138.032 166.115 138.084 166.115 138.137C166.114 138.189 166.1 138.241 166.073 138.287C166.046 138.333 166.008 138.371 165.962 138.397C165.916 138.423 165.864 138.437 165.811 138.438V138.432Z" fill="#A4A1A0"/>
<path d="M165.61 137.086C165.432 137.093 165.254 137.057 165.093 136.98C164.932 136.903 164.792 136.789 164.686 136.645C164.267 136.086 164.411 134.972 165.23 134.317C165.293 134.267 165.373 134.244 165.453 134.253C165.533 134.262 165.606 134.302 165.657 134.365C165.707 134.428 165.73 134.508 165.721 134.588C165.712 134.668 165.672 134.741 165.609 134.791C164.98 135.295 164.99 136.039 165.172 136.282C165.354 136.524 165.736 136.544 166.289 136.314C166.363 136.283 166.447 136.283 166.521 136.314C166.595 136.345 166.655 136.404 166.686 136.478C166.716 136.552 166.716 136.636 166.686 136.71C166.655 136.785 166.596 136.844 166.522 136.875C166.234 137.004 165.925 137.076 165.61 137.086Z" fill="#A4A1A0"/>
<path d="M170.484 109.411C165.796 109.411 163.301 107.843 163.165 107.754L163.494 107.245C163.538 107.273 167.872 109.979 175.807 108.174L175.942 108.766C174.152 109.183 172.322 109.4 170.484 109.411Z" fill="#E5E3E2"/>
<path d="M175.287 132.404L174.68 132.393C174.761 127.509 176.204 109.755 176.218 109.577L176.825 109.625C176.81 109.805 175.368 127.538 175.287 132.404Z" fill="#E5E3E2"/>
<path d="M156.845 136.574H156.238C156.288 126.32 158.276 116.558 159.936 110.172C161.734 103.26 163.546 98.6962 163.564 98.6526L164.128 98.8769C164.056 99.0576 156.936 117.073 156.845 136.574Z" fill="#E5E3E2"/>
<path d="M170.029 123.878C164.607 123.878 160.042 122.114 159.981 122.091L160.204 121.526C160.283 121.557 168.21 124.616 175.468 122.567L175.632 123.15C173.807 123.648 171.921 123.893 170.029 123.878Z" fill="#E5E3E2"/>
<path d="M178.809 113.293C178.766 113.293 178.724 113.284 178.685 113.267C178.646 113.249 178.612 113.223 178.583 113.192C178.481 113.078 176.064 110.325 173.294 103.127C173.28 103.09 173.273 103.05 173.274 103.01C173.275 102.971 173.284 102.931 173.3 102.895C173.316 102.858 173.339 102.826 173.368 102.798C173.397 102.771 173.431 102.749 173.468 102.735C173.506 102.72 173.545 102.714 173.585 102.715C173.625 102.716 173.664 102.724 173.701 102.741C173.737 102.757 173.77 102.78 173.798 102.809C173.825 102.838 173.847 102.872 173.861 102.909C175.284 106.607 176.615 109.093 177.482 110.534C178.421 112.091 179.03 112.782 179.036 112.788C179.075 112.832 179.1 112.886 179.109 112.943C179.118 113.001 179.109 113.06 179.086 113.114C179.062 113.167 179.023 113.212 178.974 113.244C178.925 113.276 178.868 113.293 178.809 113.293Z" fill="#E5E3E2"/>
<path d="M151.877 102.004C151.819 102.004 151.763 101.988 151.714 101.957C151.665 101.926 151.627 101.882 151.602 101.83C151.577 101.778 151.568 101.721 151.575 101.663C151.582 101.606 151.606 101.553 151.642 101.508C151.688 101.451 156.407 95.7448 161.127 91.873C161.189 91.822 161.269 91.7979 161.349 91.8058C161.429 91.8138 161.503 91.8532 161.554 91.9154C161.605 91.9777 161.629 92.0576 161.621 92.1376C161.613 92.2177 161.574 92.2913 161.512 92.3423C156.839 96.1753 152.157 101.837 152.111 101.894C152.082 101.928 152.047 101.956 152.006 101.975C151.966 101.994 151.921 102.004 151.877 102.004Z" fill="#E5E3E2"/>
<path d="M179.036 93.1256C179.036 93.1256 175.245 93.4299 174.19 99.0333C173.454 102.938 175.334 122.453 179.089 125.201C179.089 125.201 180.038 126.464 178.768 128.26C178.768 128.26 174.547 125.612 172.801 118.003C171.056 110.394 170.16 104.28 170.636 99.3656C171.111 94.4509 174.858 92.2283 176.285 91.8584C176.285 91.8584 178.243 91.6996 179.036 93.1256Z" fill="#CECAC9"/>
<path d="M156.621 136.961L156.582 136.354C158.511 136.233 158.866 131.67 158.966 128.248C159.063 124.897 160.247 119.08 161.03 115.23C161.272 114.017 161.492 112.96 161.627 112.212C161.932 110.514 162.696 108.061 163.371 105.892C163.939 104.063 164.477 102.335 164.534 101.684C164.645 100.412 163.454 99.4274 163.442 99.4177L163.825 98.946C163.884 98.9945 165.282 100.14 165.139 101.735C165.076 102.452 164.555 104.129 163.95 106.07C163.281 108.222 162.523 110.662 162.224 112.318C162.088 113.073 161.873 114.128 161.624 115.35C160.845 119.179 159.666 124.966 159.571 128.265C159.45 132.483 159 136.812 156.621 136.961Z" fill="#E5E3E2"/>
<path d="M158.8 107.763C152.851 107.763 150.48 104.947 150.371 104.814L150.841 104.429C150.848 104.438 151.556 105.278 153.14 106.021C154.608 106.707 157.146 107.439 160.916 107.041L160.979 107.648C160.255 107.724 159.528 107.762 158.8 107.763Z" fill="#E5E3E2"/>
<path d="M156.911 121.863C149.571 121.863 146.147 119.285 146 119.171L146.37 118.686C146.38 118.693 147.296 119.388 149.162 120.046C150.88 120.653 153.775 121.353 157.825 121.238L157.843 121.845C157.524 121.857 157.213 121.863 156.911 121.863Z" fill="#E5E3E2"/>
<path d="M155.736 133.3C147.878 133.3 143.898 131.852 143.726 131.788L143.939 131.219C143.949 131.219 145.031 131.619 147.123 131.996C149.057 132.344 152.272 132.748 156.622 132.687L156.63 133.294C156.327 133.298 156.029 133.3 155.736 133.3Z" fill="#E5E3E2"/>
<path d="M95.5969 239L95.0203 238.81C95.9162 236.29 97.0669 233.867 98.4545 231.58C101.429 226.738 104.888 223.991 108.47 223.633C112.194 223.261 112.79 220.587 113.481 217.491C114.27 213.959 115.163 209.954 121.455 209.677H146.786L146.823 209.687C146.909 209.709 148.946 210.236 151.009 211.944C152.914 213.52 155.186 216.437 155.186 221.386C155.186 223.363 156.677 224.945 159.876 226.369C162.783 227.661 166.779 228.648 170.644 229.602C178.763 231.607 187.154 233.68 187.619 238.879L187.012 238.932C186.59 234.165 178.408 232.142 170.502 230.191C162.315 228.169 154.582 226.259 154.582 221.386C154.582 217.612 153.258 214.596 150.646 212.426C149.488 211.461 148.152 210.733 146.712 210.284H121.475C115.654 210.543 114.851 214.143 114.069 217.625C113.39 220.672 112.687 223.822 108.527 224.237C106.17 224.479 102.6 225.991 98.9741 231.888C97.6085 234.138 96.4769 236.521 95.5969 239Z" fill="#A4A1A0"/>
<path d="M90.4036 126.497L89.8804 126.189L142.399 36.8858C145.158 32.1939 149.12 28.3214 153.875 25.6668C158.63 23.0122 164.008 21.6715 169.455 21.7826C174.901 21.8938 180.219 23.4528 184.862 26.2992C189.505 29.1457 193.305 33.1766 195.87 37.9771L243.005 126.2L242.469 126.486L195.334 38.2657C192.82 33.5601 189.096 29.6087 184.545 26.8184C179.995 24.0281 174.781 22.4997 169.443 22.3905C164.104 22.2814 158.833 23.5953 154.172 26.1972C149.51 28.7991 145.627 32.5949 142.922 37.1938L90.4036 126.497Z" fill="#A4A1A0"/>
<path d="M0.523217 164.362L0 164.054L37.8593 99.6785C39.8561 96.2834 42.7226 93.4813 46.1637 91.5605C49.6049 89.6397 53.4964 88.6697 57.4375 88.7504C61.3787 88.831 65.2271 89.9594 68.5867 92.0194C71.9462 94.0793 74.6954 96.9964 76.5513 100.47L110.526 164.065L109.989 164.351L76.0159 100.755C74.2109 97.3764 71.537 94.5391 68.2694 92.5356C65.0018 90.5321 61.2587 89.4346 57.4254 89.3563C53.5921 89.278 49.8071 90.2216 46.4602 92.0901C43.1134 93.9585 40.3255 96.6842 38.3837 99.9865L0.523217 164.362Z" fill="#A4A1A0"/>
<path d="M65 38C74.3888 38 82 30.6127 82 21.5C82 12.3873 74.3888 5 65 5C55.6112 5 48 12.3873 48 21.5C48 30.6127 55.6112 38 65 38Z" fill="#CECAC9"/>
<path d="M68.1304 29.7471C69.2482 29.7269 70.3685 30.0296 71.4776 29.8814C74.6441 29.457 76.4067 25.6856 79.4766 24.7912C83.3758 23.6511 87.2135 27.61 91.2368 27.0716C93.3131 26.7929 95.0231 25.3676 96.8096 24.2642C99.3187 22.7161 102.263 21.7229 105.18 22.0688C108.972 22.5185 112.144 25.1016 115.718 26.4546C119.733 27.9748 124.136 27.9039 128.417 27.7341C129.49 27.6923 130.614 27.6543 131.581 28.1256C132.548 28.5968 133.278 29.7573 132.897 30.7707C132.593 31.5752 131.736 32.0047 130.932 32.291C126.039 34.0367 120.363 33.3133 115.85 35.9103C113.942 37.0087 112.389 38.6265 110.665 40.0023C108.433 41.7758 105.707 43.2061 102.873 42.9755C98.4543 42.6145 94.8851 38.3743 90.459 38.591C87.2749 38.7481 84.1461 41.2311 81.1753 40.0719C80.139 39.6678 79.2935 38.857 78.2522 38.4706C76.0943 37.6725 73.7784 38.8507 71.5741 39.5044C63.9289 41.7758 60.8615 29.8776 68.1304 29.7471Z" fill="#E5E3E2"/>
<path d="M103.446 43C103.233 43 103.022 42.9914 102.811 42.9742C100.697 42.8057 98.774 41.7851 96.9153 40.7989C94.8018 39.6737 92.7951 38.6088 90.5498 38.7195C89.3463 38.7773 88.1155 39.188 86.9245 39.5803C85.0484 40.2062 83.1077 40.853 81.2192 40.1324C80.7037 39.9165 80.2111 39.6508 79.7484 39.3392C79.3033 39.0372 78.8269 38.7829 78.3274 38.5805C76.7211 37.9989 74.9532 38.5891 73.2425 39.1609C72.8036 39.3085 72.3486 39.4598 71.9047 39.5901C69.4766 40.2972 67.1803 39.6909 65.6188 37.9263C64.0759 36.1888 63.5699 33.6962 64.388 31.8653C65.0494 30.3896 66.4742 29.5522 68.4 29.5178C68.8766 29.5183 69.3528 29.547 69.826 29.6039C70.47 29.6691 71.078 29.7268 71.6822 29.6506C73.2561 29.444 74.4671 28.3644 75.7476 27.2208C76.8902 26.2001 78.0713 25.1451 79.5632 24.7196C81.7065 24.1048 83.825 24.9409 85.8727 25.7464C87.6381 26.4411 89.4632 27.1593 91.2635 26.922C92.8163 26.7178 94.2025 25.8152 95.5427 24.9545C95.9083 24.7171 96.2887 24.4724 96.6617 24.2437C98.6596 23.0337 101.759 21.6749 105.154 22.0696C107.581 22.3512 109.772 23.4838 111.892 24.5794C113.115 25.2115 114.378 25.8657 115.672 26.344C119.526 27.7717 123.763 27.7372 128.135 27.5663C129.185 27.5257 130.373 27.479 131.418 27.9758C132.464 28.4726 133.33 29.7514 132.876 30.927C132.513 31.8714 131.485 32.3252 130.744 32.5834C128.649 33.3138 126.393 33.6077 124.22 33.8918C121.209 34.284 118.364 34.6554 115.848 36.0744C114.589 36.7827 113.461 37.7456 112.366 38.6764C111.842 39.1241 111.3 39.5864 110.75 40.0193C108.22 42.0003 105.766 42.9988 103.446 43ZM90.8581 38.0973C93.1407 38.0973 95.2096 39.1941 97.21 40.2566C99.0114 41.2133 100.875 42.2032 102.862 42.3618C105.205 42.5499 107.73 41.5994 110.366 39.5335C110.909 39.1093 111.446 38.6518 111.966 38.2092C113.085 37.2586 114.233 36.2761 115.543 35.5371C118.166 34.0615 121.205 33.663 124.143 33.2794C126.288 33.0003 128.506 32.7113 130.54 32.0018C131.162 31.7829 132.032 31.4115 132.3 30.7057C132.617 29.8793 131.963 28.9104 131.151 28.5242C130.249 28.0938 129.142 28.1369 128.167 28.175C123.729 28.3471 119.418 28.3816 115.461 26.9133C114.134 26.4215 112.85 25.7587 111.607 25.118C109.442 23.999 107.398 22.9415 105.086 22.6734C101.863 22.3045 98.9045 23.6031 96.9886 24.7639C96.6157 24.9877 96.2427 25.2312 95.8834 25.466C94.4848 26.3711 93.0388 27.3105 91.3455 27.5319C89.3849 27.7889 87.4827 27.04 85.6439 26.3182C83.6025 25.5152 81.6755 24.7577 79.736 25.3099C78.3821 25.696 77.2495 26.7031 76.1641 27.677C74.8686 28.8329 73.5296 30.0281 71.7642 30.2593C71.0879 30.3478 70.4141 30.2802 69.7638 30.215C69.3149 30.1619 68.8633 30.1344 68.4112 30.1326C66.2715 30.1695 65.3515 31.2307 64.9561 32.1137C64.2438 33.7122 64.7187 35.981 66.085 37.5242C66.9081 38.4514 68.7344 39.8754 71.7294 38.9999C72.1621 38.8769 72.6096 38.7244 73.0435 38.5793C74.855 37.9731 76.7285 37.3496 78.54 38.0026C79.0816 38.2198 79.598 38.494 80.0804 38.8203C80.5107 39.11 80.9687 39.3571 81.448 39.5581C83.1264 40.2 84.8781 39.6159 86.7318 38.9974C87.9614 38.5879 89.2345 38.1637 90.525 38.1022C90.6331 38.0997 90.7462 38.0973 90.8581 38.0973Z" fill="#A4A1A0"/>
<path d="M19.5886 58C16.8988 58.0024 14.3009 57.0051 12.2836 55.1958C12.1209 55.048 11.9608 54.8926 11.8043 54.7435C11.2252 54.1859 10.6782 53.6584 9.98941 53.4053C9.03331 53.0532 7.99835 53.2888 6.9018 53.5394C5.80524 53.79 4.67418 54.0406 3.57516 53.696C3.21618 53.5921 2.88838 53.3988 2.62153 53.1334C2.12869 52.6322 1.93034 52.0859 2.02151 51.5296C2.25068 50.1338 4.32429 49.0725 5.56377 48.4385C5.76829 48.3332 5.94448 48.243 6.08247 48.1666C9.07891 46.5089 10.4354 46.1768 13.6499 47.1642C15.9042 47.8462 18.3226 47.699 20.4806 46.7482C21.3776 46.3485 22.2339 45.8022 23.0619 45.2722C24.0475 44.6457 25.0763 43.9854 26.2025 43.5556C29.5291 42.2863 33.542 43.2449 35.9643 45.8887C36.1158 46.0541 36.2612 46.2257 36.4029 46.3899C36.8144 46.8735 37.2025 47.3283 37.7003 47.6341C38.3915 48.0588 39.2182 48.1516 40.0942 48.2493C40.3246 48.2743 40.5637 48.3019 40.7965 48.3345C41.8648 48.4861 43.2521 48.9184 43.7954 50.1225C43.9256 50.4194 43.9951 50.74 43.9997 51.065C44.0044 51.39 43.9441 51.7126 43.8225 52.0133C43.4689 52.9555 42.5757 53.8601 41.5481 54.315C39.4536 55.2447 37.1446 55.0041 34.9145 54.7723C33.3128 54.6032 31.6458 54.4303 30.0823 54.6996C28.6038 54.9502 27.2017 55.6068 25.8414 56.2383C24.6734 56.7809 23.466 57.3422 22.1932 57.668C21.3419 57.8879 20.467 57.9994 19.5886 58ZM8.9175 52.6009C9.35375 52.5958 9.78747 52.6687 10.1989 52.8164C11.0083 53.1146 11.6281 53.711 12.2281 54.2887C12.3809 54.4353 12.5386 54.5869 12.6938 54.7285C13.9516 55.8562 15.459 56.6579 17.0874 57.065C18.7157 57.4721 20.4168 57.4727 22.0454 57.0665C23.2639 56.7533 24.4455 56.2045 25.5877 55.6745C26.9848 55.0254 28.4288 54.3551 29.9825 54.0869C31.6273 53.8025 33.3326 53.9817 34.9811 54.1533C37.2296 54.3889 39.355 54.6107 41.3041 53.7461C42.1875 53.3539 42.9514 52.5884 43.2496 51.7952C43.3427 51.5724 43.3896 51.3325 43.3875 51.0904C43.3854 50.8483 43.3343 50.6092 43.2373 50.3881C42.811 49.4434 41.6356 49.09 40.714 48.9597C40.4898 48.9284 40.2556 48.9021 40.0289 48.877C39.1258 48.7755 38.1919 48.6715 37.3837 48.1754C36.8033 47.8183 36.3647 47.2983 35.9397 46.8058C35.8017 46.643 35.6587 46.4751 35.5158 46.3184C33.2598 43.8551 29.5205 42.9617 26.4205 44.1445C25.3536 44.553 24.3568 45.1895 23.3921 45.806C22.5456 46.3473 21.6671 46.9061 20.7307 47.3246C18.4378 48.3339 15.8688 48.4905 13.4738 47.7669C10.4502 46.8359 9.244 47.1329 6.37939 48.7179C6.23277 48.7981 6.05167 48.8908 5.84345 48.9973C4.78262 49.5399 2.80881 50.551 2.63139 51.6286C2.57348 51.9819 2.71517 52.329 3.06386 52.6924C3.26063 52.8828 3.50058 53.021 3.76244 53.0946C4.70129 53.3953 5.70546 53.166 6.76752 52.9242C7.47597 52.7663 8.20536 52.6009 8.9175 52.6009Z" fill="#A4A1A0"/>
</g>
<defs>
<clipPath id="clip0">
<rect width="243" height="239" fill="white"/>
</clipPath>
</defs>
</svg>
