<svg width="375" height="140" viewBox="0 0 375 140" fill="none" xmlns="http://www.w3.org/2000/svg">
<g clip-path="url(#clip0)">
<path d="M114 0H429V140H114V0Z" fill="#4BA36F"/>
<path d="M114 32C114 14.3269 128.327 0 146 0H397C414.673 0 429 14.3269 429 32V175H114V32Z" fill="#007F36"/>
<g clip-path="url(#clip1)">
<path d="M158.869 140L169.826 139.871C169.826 139.871 180.525 127.088 179.751 125.023C178.977 122.957 176.271 123.99 175.498 124.893C175.498 124.893 184.005 116.5 181.562 112.756C179.12 109.013 172.41 116.242 172.41 116.242C172.41 116.242 182.716 94.2951 176.916 90.5574C171.117 86.8196 163.896 102.169 163.896 102.169C163.896 102.169 164.548 89 161.447 89C158.347 89 155.002 102.169 156.55 109.916C156.55 109.916 154.488 101.911 151.007 103.331C147.525 104.751 147.656 120.374 158.869 140Z" fill="#0D562A"/>
<path d="M165.211 115.357C165.759 115.357 166.203 114.912 166.203 114.364C166.203 113.815 165.759 113.37 165.211 113.37C164.663 113.37 164.219 113.815 164.219 114.364C164.219 114.912 164.663 115.357 165.211 115.357Z" fill="#FC7459"/>
<path d="M171.412 105.79C171.959 105.79 172.404 105.345 172.404 104.797C172.404 104.248 171.959 103.803 171.412 103.803C170.864 103.803 170.42 104.248 170.42 104.797C170.42 105.345 170.864 105.79 171.412 105.79Z" fill="#FC7459"/>
<path d="M160.929 105.722C161.477 105.722 161.921 105.277 161.921 104.728C161.921 104.179 161.477 103.734 160.929 103.734C160.381 103.734 159.937 104.179 159.937 104.728C159.937 105.277 160.381 105.722 160.929 105.722Z" fill="#FC7459"/>
<path d="M160.061 127.317C160.609 127.317 161.053 126.872 161.053 126.323C161.053 125.774 160.609 125.329 160.061 125.329C159.513 125.329 159.069 125.774 159.069 126.323C159.069 126.872 159.513 127.317 160.061 127.317Z" fill="#FC7459"/>
<path d="M167.744 133.4C168.292 133.4 168.736 132.955 168.736 132.406C168.736 131.857 168.292 131.413 167.744 131.413C167.196 131.413 166.752 131.857 166.752 132.406C166.752 132.955 167.196 133.4 167.744 133.4Z" fill="#FC7459"/>
<path d="M154.857 117.76C155.405 117.76 155.849 117.316 155.849 116.767C155.849 116.218 155.405 115.773 154.857 115.773C154.309 115.773 153.865 116.218 153.865 116.767C153.865 117.316 154.309 117.76 154.857 117.76Z" fill="#FC7459"/>
<path d="M171.707 122.106C172.255 122.106 172.699 121.661 172.699 121.112C172.699 120.563 172.255 120.118 171.707 120.118C171.159 120.118 170.715 120.563 170.715 121.112C170.715 121.661 171.159 122.106 171.707 122.106Z" fill="#FC7459"/>
</g>
<g clip-path="url(#clip2)">
<path d="M184.955 140H208.375C208.375 140 219.065 127.545 223.139 120.074C227.212 112.602 231.801 103.083 215.453 112.534C215.453 112.534 220.654 108.172 222.697 102.175C224.741 96.1793 222.883 93.2679 213.782 99.4481C213.782 99.4481 219.354 90.8979 217.869 86.9078C216.383 82.9177 206.538 88.004 201.337 94.5416C201.337 94.5416 201.151 77.8205 190.747 78.0025C180.344 78.1844 181.46 99.4481 183.129 102.357C183.129 102.357 178.114 98.3585 174.955 101.448C171.796 104.537 167.274 115.755 184.955 140Z" fill="#3CA064"/>
<path d="M194.499 91.0468C194.499 91.0468 193.287 90.0032 192.231 90.3584C191.384 90.6434 191.44 90.9788 191.36 91.0841C191.36 91.0841 191.339 91.0841 191.331 91.0841C191.162 91.0599 190.813 90.753 190.145 91.095C189.669 91.3798 189.289 91.7953 189.052 92.2899C188.977 92.433 188.885 92.5669 188.778 92.6889C188.106 93.4781 187.822 94.4077 188.106 95.2539C188.626 96.828 190.887 97.5208 193.152 96.8017C195.418 96.0826 196.829 94.2235 196.307 92.6582C196.052 91.8908 195.382 91.334 194.499 91.0468Z" fill="#F38625"/>
<path d="M190.592 91.4911C191.23 91.2887 191.663 90.8717 191.56 90.5595C191.456 90.2474 190.855 90.1584 190.217 90.3607C189.579 90.5631 189.146 90.9802 189.249 91.2923C189.353 91.6045 189.954 91.6935 190.592 91.4911Z" fill="#3B6608"/>
<path d="M192.25 90.9638C192.888 90.7615 193.321 90.3444 193.218 90.0322C193.114 89.7201 192.513 89.6311 191.875 89.8335C191.237 90.0358 190.804 90.4529 190.907 90.765C191.011 91.0772 191.612 91.1662 192.25 90.9638Z" fill="#3B6608"/>
<path d="M191.351 90.9436C191.54 90.8835 191.568 90.4557 191.413 89.988C191.258 89.5204 190.979 89.19 190.789 89.2501C190.6 89.3102 190.572 89.7381 190.727 90.2057C190.882 90.6733 191.161 91.0037 191.351 90.9436Z" fill="#3B6608"/>
<path d="M189.459 114.93C189.459 114.93 188.24 113.887 187.192 114.242C186.345 114.527 186.401 114.862 186.322 114.968C186.312 114.971 186.301 114.971 186.291 114.968C186.123 114.944 185.773 114.637 185.106 114.979C184.629 115.263 184.249 115.679 184.012 116.173C183.937 116.315 183.846 116.448 183.739 116.568C183.067 117.36 182.782 118.287 183.067 119.135C183.587 120.709 185.847 121.4 188.113 120.683C190.378 119.966 191.79 118.12 191.27 116.542C191.012 115.772 190.342 115.218 189.459 114.93Z" fill="#F38625"/>
<path d="M185.556 115.373C186.194 115.171 186.628 114.754 186.524 114.442C186.421 114.129 185.82 114.04 185.182 114.243C184.544 114.445 184.11 114.862 184.214 115.174C184.317 115.487 184.918 115.576 185.556 115.373Z" fill="#3B6608"/>
<path d="M187.212 114.849C187.85 114.647 188.284 114.229 188.18 113.917C188.077 113.605 187.476 113.516 186.838 113.719C186.2 113.921 185.766 114.338 185.87 114.65C185.973 114.962 186.574 115.051 187.212 114.849Z" fill="#3B6608"/>
<path d="M186.313 114.826C186.502 114.766 186.53 114.338 186.375 113.871C186.221 113.403 185.941 113.073 185.752 113.133C185.562 113.193 185.534 113.621 185.689 114.088C185.844 114.556 186.123 114.886 186.313 114.826Z" fill="#3B6608"/>
<path d="M213.24 108.958C213.24 108.958 213.13 107.375 212.133 106.9C211.329 106.516 211.127 106.794 210.995 106.812C210.989 106.812 210.983 106.811 210.978 106.808C210.973 106.805 210.969 106.801 210.966 106.797C210.865 106.665 210.84 106.205 210.121 105.985C209.578 105.858 209.009 105.889 208.483 106.073C208.327 106.122 208.166 106.153 208.003 106.165C206.957 106.257 206.085 106.718 205.671 107.511C204.902 108.982 206 111.037 208.12 112.096C210.24 113.155 212.586 112.821 213.354 111.348C213.728 110.631 213.657 109.772 213.24 108.958Z" fill="#F38625"/>
<path d="M211.515 106.582C211.667 106.29 211.306 105.811 210.709 105.513C210.112 105.215 209.504 105.21 209.351 105.502C209.199 105.794 209.559 106.273 210.157 106.571C210.754 106.87 211.362 106.875 211.515 106.582Z" fill="#3B6608"/>
<path d="M213.065 107.357C213.218 107.064 212.857 106.585 212.26 106.287C211.662 105.989 211.054 105.984 210.902 106.276C210.749 106.568 211.11 107.047 211.708 107.346C212.305 107.644 212.913 107.649 213.065 107.357Z" fill="#3B6608"/>
<path d="M211.824 106.075C212.052 105.637 212.093 105.21 211.916 105.122C211.739 105.033 211.409 105.316 211.181 105.754C210.953 106.192 210.911 106.619 211.089 106.707C211.266 106.796 211.595 106.513 211.824 106.075Z" fill="#3B6608"/>
<path d="M205.61 128.234C205.61 128.234 205.501 126.653 204.504 126.177C203.699 125.793 203.497 126.07 203.365 126.087C203.36 126.087 203.354 126.086 203.349 126.084C203.344 126.082 203.34 126.078 203.336 126.074C203.235 125.94 203.211 125.482 202.491 125.263C201.949 125.133 201.379 125.164 200.853 125.351C200.698 125.399 200.537 125.429 200.374 125.44C199.328 125.533 198.454 125.993 198.041 126.787C197.273 128.26 198.368 130.312 200.49 131.373C202.612 132.434 204.956 132.097 205.725 130.623C206.106 129.904 206.034 129.047 205.61 128.234Z" fill="#F38625"/>
<path d="M203.893 125.858C204.045 125.565 203.684 125.087 203.087 124.788C202.49 124.49 201.882 124.485 201.729 124.777C201.577 125.07 201.937 125.548 202.535 125.847C203.132 126.145 203.74 126.15 203.893 125.858Z" fill="#3B6608"/>
<path d="M205.443 126.632C205.596 126.34 205.235 125.861 204.638 125.563C204.04 125.264 203.432 125.259 203.28 125.552C203.127 125.844 203.488 126.323 204.086 126.621C204.683 126.919 205.291 126.924 205.443 126.632Z" fill="#3B6608"/>
<path d="M204.2 125.349C204.428 124.912 204.469 124.485 204.292 124.396C204.114 124.307 203.785 124.591 203.557 125.028C203.329 125.466 203.287 125.893 203.465 125.982C203.642 126.07 203.971 125.787 204.2 125.349Z" fill="#3B6608"/>
<path d="M180.335 110.228H180.351C181.283 110.147 182 109.57 181.946 108.925C181.939 108.826 181.913 108.729 181.87 108.638C181.818 108.525 181.79 108.401 181.79 108.277C181.79 108.152 181.818 108.028 181.87 107.915C181.922 107.791 181.944 107.656 181.933 107.522C181.899 107.108 181.552 106.768 181.055 106.597C180.939 106.566 180.836 106.504 180.756 106.417C180.677 106.329 180.625 106.222 180.606 106.106C180.553 105.448 179.71 104.984 178.758 105.074C177.862 105.155 177.171 105.696 177.171 106.308C177.17 106.318 177.17 106.328 177.171 106.338C177.164 106.477 177.12 106.612 177.044 106.73C176.968 106.847 176.862 106.944 176.737 107.009C176.558 107.104 176.409 107.245 176.306 107.417C176.203 107.588 176.15 107.784 176.152 107.983C176.172 108.149 176.232 108.308 176.329 108.446C176.425 108.584 176.554 108.698 176.705 108.776C176.834 108.833 176.937 108.932 176.997 109.057C177.057 109.182 177.068 109.323 177.03 109.456C176.987 109.578 176.973 109.708 176.99 109.835C177.073 110.445 177.841 110.883 178.738 110.833C179.214 110.817 179.672 110.646 180.037 110.346C180.12 110.275 180.225 110.234 180.335 110.228Z" fill="#007F36"/>
<path d="M198.057 111.762H198.07C199.005 111.692 199.728 111.105 199.681 110.478C199.675 110.379 199.651 110.281 199.61 110.19C199.557 110.077 199.53 109.953 199.53 109.829C199.53 109.704 199.557 109.581 199.61 109.467C199.662 109.343 199.685 109.209 199.677 109.074C199.648 108.66 199.305 108.316 198.81 108.141C198.694 108.109 198.59 108.046 198.511 107.958C198.431 107.87 198.379 107.761 198.362 107.645C198.317 106.987 197.49 106.514 196.526 106.593C195.63 106.665 194.933 107.2 194.927 107.809V107.842C194.916 107.98 194.869 108.113 194.791 108.229C194.712 108.344 194.605 108.437 194.478 108.5C194.299 108.593 194.148 108.732 194.043 108.903C193.938 109.073 193.883 109.268 193.882 109.467C193.903 109.636 193.966 109.797 194.065 109.937C194.164 110.076 194.297 110.19 194.452 110.267C194.579 110.324 194.682 110.425 194.74 110.55C194.798 110.676 194.808 110.817 194.768 110.949C194.724 111.071 194.71 111.2 194.725 111.328C194.799 111.938 195.565 112.385 196.461 112.345C196.938 112.335 197.397 112.168 197.766 111.872C197.848 111.806 197.95 111.768 198.057 111.762Z" fill="#007F36"/>
<path d="M215.362 124.537H215.377C216.307 124.632 217.125 124.189 217.197 123.553C217.207 123.454 217.2 123.355 217.174 123.259C217.144 123.138 217.141 123.012 217.163 122.889C217.186 122.767 217.235 122.65 217.307 122.547C217.381 122.434 217.428 122.305 217.443 122.172C217.49 121.757 217.219 121.361 216.76 121.102C216.651 121.052 216.559 120.972 216.495 120.871C216.432 120.771 216.4 120.654 216.404 120.536C216.478 119.879 215.752 119.271 214.788 119.179C213.892 119.096 213.11 119.499 212.996 120.1V120.131C212.962 120.266 212.893 120.391 212.796 120.492C212.699 120.593 212.576 120.668 212.44 120.709C212.246 120.77 212.073 120.881 211.939 121.03C211.804 121.18 211.714 121.362 211.678 121.558C211.669 121.726 211.703 121.894 211.775 122.046C211.847 122.199 211.956 122.332 212.093 122.435C212.208 122.514 212.29 122.631 212.324 122.765C212.359 122.898 212.343 123.039 212.281 123.163C212.216 123.274 212.177 123.399 212.169 123.527C212.131 124.14 212.803 124.713 213.692 124.831C214.163 124.903 214.645 124.819 215.061 124.592C215.153 124.543 215.258 124.524 215.362 124.537Z" fill="#007F36"/>
<path d="M211.884 95.859V95.8459C212.142 94.9689 211.844 94.092 211.212 93.9188C211.115 93.8904 211.013 93.8793 210.912 93.8859C210.784 93.8932 210.657 93.8746 210.537 93.8312C210.418 93.7878 210.309 93.7206 210.217 93.6338C210.118 93.5421 209.998 93.4738 209.868 93.4343C209.458 93.3159 209.009 93.5088 208.667 93.9012C208.597 93.9979 208.5 94.0724 208.388 94.1153C208.276 94.1583 208.153 94.1677 208.035 94.1424C207.392 93.9539 206.646 94.5458 206.383 95.4578C206.141 96.2997 206.406 97.1306 206.988 97.352H207.02C207.149 97.4093 207.262 97.4983 207.346 97.6104C207.431 97.7225 207.484 97.854 207.501 97.9922C207.529 98.188 207.61 98.3729 207.736 98.5273C207.863 98.6817 208.029 98.7998 208.218 98.8691C208.387 98.9099 208.564 98.9092 208.732 98.8671C208.901 98.825 209.056 98.7429 209.184 98.628C209.284 98.5311 209.416 98.4726 209.557 98.4634C209.697 98.4541 209.836 98.4946 209.948 98.5775C210.049 98.6611 210.168 98.7204 210.296 98.7507C210.905 98.8954 211.602 98.3517 211.878 97.5164C212.034 97.0755 212.034 96.5959 211.878 96.155C211.848 96.0581 211.85 95.9545 211.884 95.859Z" fill="#007F36"/>
<path d="M192.097 132.752C192.814 132.162 193.06 131.281 192.646 130.79C192.583 130.713 192.507 130.648 192.422 130.597C192.312 130.534 192.217 130.449 192.142 130.348C192.068 130.246 192.016 130.131 191.989 130.009C191.959 129.879 191.898 129.756 191.812 129.652C191.541 129.33 191.057 129.246 190.551 129.385C190.437 129.428 190.312 129.438 190.192 129.412C190.072 129.386 189.963 129.326 189.878 129.24C189.453 128.731 188.496 128.815 187.759 129.426C187.087 129.992 186.822 130.827 187.181 131.327L187.199 131.353C187.274 131.471 187.317 131.606 187.324 131.745C187.331 131.884 187.301 132.023 187.237 132.147C187.146 132.325 187.107 132.523 187.122 132.721C187.138 132.92 187.209 133.11 187.326 133.272C187.443 133.398 187.59 133.493 187.754 133.55C187.918 133.607 188.093 133.624 188.265 133.598C188.405 133.57 188.55 133.593 188.674 133.662C188.798 133.732 188.892 133.843 188.937 133.975C188.975 134.099 189.04 134.213 189.128 134.309C189.551 134.76 190.439 134.69 191.144 134.146C191.526 133.868 191.801 133.472 191.924 133.022C191.95 132.916 192.011 132.821 192.097 132.752Z" fill="#007F36"/>
</g>
<g clip-path="url(#clip3)">
<path d="M329.549 120.595C329.549 120.595 303.979 118.252 306.127 94.1182C308.276 69.984 321.899 66.3586 321.899 50.6689C321.899 34.9792 315.515 35.1513 316.642 26.3987C317.823 17.263 334.09 13.979 340.539 43.9733C346.988 73.9675 365.396 75.3722 358.466 100.225C351.535 125.078 329.549 120.595 329.549 120.595Z" fill="#3CA064"/>
<path d="M330.811 107.193C330.766 100.916 330.843 99.0705 330.877 94.046C325.766 90.6482 323.799 83.8776 323.049 79.6804C322.995 79.3695 323.47 79.2362 323.561 79.5388C325.594 86.2788 329.441 89.2241 330.922 90.1402C331.151 69.3788 331.899 57.3367 332.278 63.0857C332.538 67.0303 332.751 84.4606 334.039 102.357C343.381 99.7533 345.298 94.4679 346.906 91.2534C346.934 91.2004 346.98 91.1593 347.037 91.1376C347.094 91.116 347.156 91.1153 347.213 91.1358C347.27 91.1562 347.318 91.1964 347.347 91.2487C347.376 91.301 347.384 91.3619 347.37 91.4199C344.463 103.648 337.357 106.624 334.347 108.561C334.868 114.966 335.539 120.923 336.406 125.542C338.642 137.454 339.364 142.992 339.364 142.992L330.913 142.922C330.913 142.922 331.052 142.956 330.811 107.193Z" fill="#F4F4F4"/>
<path d="M357.126 94.5401C357.094 94.2576 356.993 93.9866 356.833 93.7496C356.673 93.5125 356.458 93.3161 356.205 93.1765C355.953 93.037 355.67 92.9582 355.38 92.9467C355.09 92.9352 354.802 92.9913 354.539 93.1105C354.427 93.1653 354.297 93.1758 354.178 93.1396C354.058 93.1034 353.957 93.0234 353.896 92.9162L353.856 92.8495C353.604 92.4554 353.205 92.1729 352.744 92.0616C352.283 91.9503 351.796 92.0188 351.385 92.2528C350.975 92.4868 350.673 92.868 350.543 93.3159C350.414 93.7638 350.467 94.2436 350.691 94.6539C350.714 94.69 350.734 94.7261 350.759 94.7622C350.988 95.1293 351.071 95.5661 350.991 95.9891C350.966 96.1614 350.978 96.3369 351.025 96.5045C351.073 96.6721 351.157 96.828 351.27 96.9621C351.383 97.0963 351.523 97.2057 351.682 97.2834C351.841 97.3611 352.014 97.4053 352.192 97.4132C352.555 97.4175 352.909 97.5298 353.205 97.7352C353.356 97.8465 353.529 97.9238 353.714 97.9616C353.898 97.9993 354.089 97.9966 354.272 97.9537C354.455 97.9107 354.626 97.8285 354.773 97.713C354.92 97.5975 355.039 97.4515 355.122 97.2855C355.297 96.8915 355.615 96.575 356.014 96.3972L356.133 96.3445C356.466 96.1785 356.739 95.9168 356.917 95.5944C357.094 95.2721 357.167 94.9042 357.126 94.5401Z" fill="#FFAAA1"/>
<path d="M353.523 93.0604C353.489 93.0761 353.461 93.1021 353.443 93.1346C353.425 93.1671 353.418 93.2044 353.424 93.2409C353.451 93.3794 353.517 93.508 353.613 93.613C353.709 93.718 353.833 93.7955 353.97 93.8374C354.108 93.8792 354.254 93.8837 354.394 93.8506C354.534 93.8174 354.663 93.7477 354.765 93.6489C354.798 93.6148 354.819 93.5717 354.825 93.5255C354.832 93.4794 354.824 93.4323 354.802 93.3908C354.787 93.3648 354.767 93.3423 354.743 93.3246C354.718 93.3069 354.69 93.2944 354.661 93.2881C354.545 93.2659 354.378 93.3464 354.262 93.3491C354.152 93.3406 354.047 93.3073 353.953 93.252C353.888 93.2076 353.806 93.0799 353.721 93.0438C353.688 93.0324 353.654 93.0279 353.62 93.0308C353.586 93.0337 353.552 93.0438 353.523 93.0604Z" fill="#FF8980"/>
<path d="M353.862 93.7878C353.862 93.7878 354.321 92.4304 354.261 91.6198C354.386 91.5831 354.518 91.583 354.642 91.6196C354.767 91.6561 354.877 91.7276 354.961 91.8252C354.961 91.8252 354.165 93.1688 354.066 93.8544L353.862 93.7878Z" fill="#8E4539"/>
<path d="M324.096 105.439C323.919 105.213 323.691 105.032 323.428 104.911C323.166 104.789 322.879 104.73 322.589 104.739C322.299 104.748 322.015 104.825 321.762 104.962C321.508 105.1 321.291 105.294 321.129 105.53C321.062 105.634 320.958 105.708 320.836 105.738C320.715 105.768 320.587 105.751 320.478 105.691C320.455 105.677 320.432 105.664 320.407 105.652C319.981 105.424 319.48 105.372 319.015 105.506C318.549 105.64 318.157 105.951 317.924 106.368C317.692 106.786 317.638 107.277 317.775 107.734C317.912 108.191 318.229 108.575 318.655 108.803C318.691 108.825 318.729 108.844 318.768 108.861C319.158 109.06 319.46 109.392 319.617 109.794C319.688 109.962 319.796 110.112 319.933 110.234C320.07 110.356 320.233 110.446 320.41 110.499C320.573 110.548 320.744 110.565 320.913 110.548C321.082 110.532 321.246 110.482 321.395 110.402C321.708 110.221 322.069 110.137 322.431 110.163C322.623 110.182 322.816 110.159 322.997 110.095C323.178 110.031 323.341 109.928 323.476 109.794C323.606 109.665 323.705 109.51 323.767 109.34C323.829 109.17 323.853 108.989 323.836 108.809C323.776 108.383 323.877 107.951 324.119 107.593C324.144 107.559 324.17 107.523 324.192 107.487C324.391 107.177 324.488 106.814 324.471 106.448C324.454 106.082 324.323 105.73 324.096 105.439Z" fill="#FFAAA1"/>
<path d="M320.232 106.005C320.211 106.034 320.199 106.07 320.199 106.106C320.199 106.142 320.211 106.178 320.232 106.207C320.329 106.312 320.453 106.389 320.591 106.43C320.729 106.471 320.876 106.475 321.016 106.441C321.156 106.406 321.284 106.336 321.386 106.236C321.488 106.136 321.561 106.011 321.597 105.874C321.606 105.829 321.601 105.781 321.582 105.739C321.564 105.696 321.532 105.66 321.492 105.636C321.465 105.621 321.436 105.612 321.406 105.609C321.376 105.606 321.345 105.61 321.316 105.619C321.203 105.658 321.09 105.822 321.005 105.874C320.908 105.923 320.8 105.948 320.691 105.946C320.614 105.946 320.475 105.874 320.382 105.888C320.35 105.897 320.321 105.911 320.295 105.931C320.269 105.951 320.248 105.976 320.232 106.005Z" fill="#FF8980"/>
<path d="M320.909 106.452C320.909 106.452 320.586 105.064 320.105 104.395C320.191 104.3 320.304 104.233 320.43 104.201C320.555 104.17 320.687 104.175 320.81 104.217C320.81 104.217 320.841 105.769 321.115 106.405L320.909 106.452Z" fill="#8E4539"/>
<path d="M320.475 83.1004C320.411 82.8229 320.281 82.5643 320.096 82.3458C319.91 82.1272 319.674 81.955 319.407 81.8434C319.141 81.7317 318.851 81.6838 318.561 81.7034C318.272 81.7231 317.992 81.8099 317.743 81.9567C317.637 82.0217 317.51 82.045 317.387 82.0218C317.264 81.9987 317.155 81.9308 317.081 81.8317L317.035 81.7679C316.893 81.5783 316.713 81.4182 316.507 81.2966C316.301 81.1751 316.073 81.0945 315.835 81.0594C315.356 80.9886 314.867 81.1077 314.476 81.3904C314.086 81.6731 313.826 82.0963 313.754 82.5669C313.681 83.0375 313.803 83.517 314.091 83.8998C314.117 83.9359 314.142 83.9692 314.17 84.0025C314.438 84.3436 314.568 84.7697 314.536 85.199C314.53 85.3728 314.562 85.5458 314.628 85.7069C314.695 85.8681 314.795 86.0138 314.923 86.1348C315.05 86.2558 315.202 86.3494 315.368 86.4095C315.534 86.4697 315.712 86.4952 315.889 86.4843C316.25 86.4481 316.614 86.5218 316.931 86.6952C317.096 86.7918 317.281 86.8507 317.473 86.8675C317.664 86.8843 317.857 86.8586 318.038 86.7924C318.211 86.7287 318.367 86.6285 318.496 86.499C318.625 86.3695 318.724 86.2138 318.785 86.0429C318.917 85.6327 319.198 85.2841 319.575 85.063C319.615 85.0435 319.651 85.0213 319.688 84.9991C320 84.7983 320.243 84.5091 320.383 84.1699C320.524 83.8308 320.556 83.4578 320.475 83.1004Z" fill="#FFAAA1"/>
<path d="M316.73 82.0176C316.698 82.037 316.673 82.0656 316.659 82.0995C316.645 82.1334 316.642 82.1708 316.651 82.2064C316.694 82.3411 316.774 82.4618 316.881 82.5559C316.989 82.6499 317.12 82.7138 317.261 82.7408C317.403 82.7678 317.549 82.7569 317.685 82.7093C317.82 82.6616 317.94 82.579 318.032 82.4701C318.059 82.4313 318.074 82.3853 318.074 82.3383C318.074 82.2912 318.059 82.2452 318.032 82.2064C318.015 82.1824 317.992 82.1622 317.967 82.1474C317.941 82.1325 317.912 82.1233 317.882 82.1203C317.763 82.1203 317.599 82.2092 317.491 82.2231C317.382 82.2271 317.273 82.2052 317.174 82.1592C317.103 82.1231 317.007 82.0038 316.919 81.9788C316.887 81.9717 316.853 81.9714 316.82 81.9781C316.788 81.9848 316.757 81.9983 316.73 82.0176Z" fill="#FF8980"/>
<path d="M317.149 82.7033C317.149 82.7033 317.455 81.3153 317.305 80.5048C317.424 80.4551 317.555 80.441 317.683 80.4642C317.81 80.4875 317.928 80.5469 318.021 80.6352C318.021 80.6352 317.381 82.0565 317.358 82.7477L317.149 82.7033Z" fill="#8E4539"/>
<path d="M347.127 75.6913C346.947 75.4681 346.716 75.2901 346.452 75.172C346.188 75.0539 345.899 74.9991 345.609 75.0121C345.319 75.0251 345.036 75.1056 344.785 75.2469C344.533 75.3881 344.319 75.5861 344.16 75.8245C344.094 75.9284 343.991 76.0037 343.87 76.0352C343.75 76.0666 343.622 76.0519 343.512 75.9939L343.441 75.9578C343.015 75.769 342.532 75.7469 342.09 75.8961C341.648 76.0452 341.281 76.3543 341.064 76.7601C340.847 77.1659 340.797 77.6377 340.923 78.0789C341.049 78.5201 341.342 78.8974 341.742 79.1335L341.859 79.189C342.246 79.3848 342.548 79.7124 342.708 80.1106C342.779 80.2697 342.884 80.4124 343.015 80.5293C343.147 80.6463 343.301 80.735 343.47 80.7897C343.638 80.8443 343.816 80.8638 343.993 80.8467C344.169 80.8297 344.34 80.7766 344.494 80.6908C344.805 80.5064 345.165 80.4183 345.528 80.4382C345.719 80.4549 345.912 80.4292 346.092 80.3629C346.272 80.2965 346.434 80.1914 346.567 80.0551C346.694 79.9241 346.791 79.7673 346.851 79.5955C346.91 79.4238 346.93 79.2415 346.909 79.0613C346.846 78.6347 346.947 78.2004 347.192 77.8427C347.218 77.8094 347.24 77.7733 347.263 77.7372C347.455 77.4229 347.545 77.0589 347.52 76.6935C347.496 76.328 347.359 75.9785 347.127 75.6913Z" fill="#FFAAA1"/>
<path d="M343.271 76.3104C343.249 76.34 343.238 76.3754 343.238 76.4117C343.238 76.448 343.249 76.4834 343.271 76.513C343.369 76.6161 343.494 76.6913 343.633 76.7304C343.771 76.7696 343.918 76.7713 344.057 76.7355C344.196 76.6997 344.323 76.6275 344.424 76.5268C344.525 76.426 344.596 76.3004 344.63 76.1632C344.639 76.1171 344.634 76.0693 344.614 76.0264C344.594 75.9836 344.561 75.948 344.519 75.9245C344.493 75.91 344.464 75.9013 344.433 75.8989C344.403 75.8965 344.372 75.9005 344.344 75.9106C344.234 75.9523 344.123 76.116 344.038 76.1716C343.942 76.22 343.835 76.2457 343.727 76.2465C343.647 76.2465 343.509 76.1771 343.415 76.1938C343.384 76.2025 343.356 76.2173 343.331 76.2374C343.306 76.2574 343.286 76.2823 343.271 76.3104Z" fill="#FF8980"/>
<path d="M343.954 76.7489C343.954 76.7489 343.608 75.3609 343.118 74.703C343.204 74.6075 343.317 74.5387 343.442 74.5052C343.567 74.4716 343.7 74.4748 343.823 74.5142C343.823 74.5142 343.874 76.066 344.16 76.6989L343.954 76.7489Z" fill="#8E4539"/>
<path d="M332.29 56.8676C332.269 56.5854 332.181 56.3119 332.033 56.0694C331.884 55.8269 331.679 55.6223 331.435 55.4721C331.19 55.3219 330.913 55.2305 330.626 55.2053C330.338 55.1801 330.049 55.2217 329.781 55.3269C329.667 55.3765 329.537 55.381 329.419 55.3397C329.301 55.2984 329.204 55.2144 329.147 55.1049C329.147 55.0827 329.124 55.0577 329.11 55.0355C328.873 54.6361 328.487 54.3419 328.034 54.214C327.581 54.0862 327.095 54.1346 326.678 54.3492C326.26 54.5638 325.943 54.928 325.792 55.3661C325.642 55.8041 325.669 56.2823 325.869 56.701C325.888 56.7371 325.908 56.776 325.931 56.8121C326.144 57.1883 326.207 57.6281 326.109 58.0474C326.076 58.2182 326.079 58.3939 326.119 58.5634C326.159 58.7328 326.235 58.8921 326.342 59.031C326.448 59.1699 326.584 59.2853 326.739 59.3698C326.894 59.4543 327.065 59.5059 327.242 59.5214C327.604 59.5418 327.951 59.6686 328.238 59.8851C328.386 60.0059 328.56 60.0924 328.747 60.1381C328.934 60.1837 329.128 60.1874 329.317 60.1488C329.497 60.1109 329.666 60.0349 329.813 59.926C329.96 59.8172 330.08 59.6781 330.166 59.5186C330.362 59.1338 330.694 58.8319 331.101 58.6692L331.222 58.622C331.56 58.4696 331.843 58.2204 332.033 57.9072C332.224 57.594 332.313 57.2315 332.29 56.8676Z" fill="#FFAAA1"/>
<path d="M328.753 55.2325C328.719 55.2475 328.69 55.2728 328.672 55.3047C328.653 55.3366 328.645 55.3735 328.649 55.4102C328.671 55.5496 328.73 55.6806 328.822 55.7893C328.914 55.8981 329.033 55.9806 329.169 56.0281C329.304 56.0756 329.45 56.0863 329.591 56.0591C329.733 56.032 329.864 55.9679 329.971 55.8737C330.004 55.8409 330.026 55.7989 330.035 55.7533C330.044 55.7078 330.038 55.6607 330.019 55.6184C330.005 55.5918 329.986 55.5682 329.963 55.5491C329.939 55.53 329.912 55.5158 329.883 55.5073C329.747 55.5104 329.611 55.5252 329.478 55.5517C329.371 55.5386 329.268 55.5006 329.178 55.4407C329.113 55.3963 329.036 55.263 328.954 55.2242C328.922 55.2118 328.888 55.2061 328.853 55.2076C328.818 55.209 328.784 55.2175 328.753 55.2325Z" fill="#FF8980"/>
<path d="M329.062 55.9737C329.062 55.9737 329.58 54.6384 329.557 53.8251C329.683 53.7942 329.815 53.8 329.937 53.842C330.06 53.8839 330.167 53.9601 330.245 54.061C330.245 54.061 329.396 55.3685 329.26 56.0486L329.062 55.9737Z" fill="#8E4539"/>
<path d="M334.246 38.8544C334.061 38.6351 333.826 38.4619 333.56 38.3491C333.293 38.2363 333.004 38.187 332.714 38.2055C332.425 38.2239 332.144 38.3094 331.895 38.4551C331.646 38.6007 331.436 38.8022 331.281 39.0431C331.217 39.1483 331.114 39.2255 330.994 39.2591C330.873 39.2926 330.744 39.2799 330.633 39.2236L330.562 39.1875C330.128 38.9754 329.625 38.9413 329.165 39.0925C328.705 39.2437 328.325 39.568 328.109 39.9939C327.893 40.4198 327.858 40.9125 328.012 41.3636C328.167 41.8147 328.497 42.1872 328.932 42.3993C328.969 42.4205 329.008 42.4391 329.048 42.4548C329.445 42.6392 329.757 42.9617 329.925 43.3597C330.004 43.5239 330.117 43.6694 330.259 43.7864C330.4 43.9033 330.565 43.9888 330.743 44.0371C330.907 44.0812 331.078 44.0924 331.247 44.07C331.415 44.0476 331.577 43.992 331.723 43.9066C332.03 43.7143 332.389 43.6175 332.754 43.629C332.941 43.6415 333.13 43.6131 333.305 43.5457C333.481 43.4784 333.639 43.3739 333.768 43.2396C333.897 43.1054 333.995 42.9447 334.053 42.7692C334.112 42.5937 334.13 42.4076 334.107 42.2244C334.034 41.7998 334.124 41.3639 334.359 41.0002C334.384 40.9669 334.407 40.9308 334.43 40.8947C334.613 40.5763 334.694 40.2108 334.661 39.8465C334.628 39.4822 334.483 39.1362 334.246 38.8544Z" fill="#FFAAA1"/>
<path d="M330.404 39.5484C330.385 39.5795 330.376 39.616 330.379 39.6524C330.382 39.6889 330.397 39.7234 330.421 39.751C330.522 39.8488 330.648 39.9185 330.786 39.9529C330.923 39.9873 331.068 39.9852 331.204 39.9467C331.341 39.9083 331.465 39.835 331.563 39.7343C331.661 39.6335 331.73 39.509 331.763 39.3735C331.771 39.3272 331.764 39.2797 331.743 39.2375C331.722 39.1953 331.689 39.1604 331.647 39.1375C331.619 39.1256 331.589 39.1194 331.559 39.1194C331.529 39.1194 331.499 39.1256 331.471 39.1375C331.361 39.182 331.253 39.3457 331.171 39.4151C331.075 39.4657 330.969 39.4933 330.86 39.4956C330.781 39.4956 330.639 39.4318 330.548 39.4484C330.489 39.4628 330.438 39.4985 330.404 39.5484Z" fill="#FF8980"/>
<path d="M331.095 39.987C331.095 39.987 330.721 38.599 330.22 37.9578C330.301 37.8592 330.41 37.7862 330.534 37.7477C330.657 37.7092 330.789 37.707 330.914 37.7412C330.914 37.7412 330.996 39.293 331.293 39.9204L331.095 39.987Z" fill="#8E4539"/>
<path d="M324.402 74.5892C323.269 73.9952 321.319 72.3934 321.455 68.3739C321.459 68.2335 321.502 68.0968 321.579 67.9783C321.656 67.8599 321.764 67.7641 321.892 67.7012C322.02 67.6383 322.163 67.6105 322.306 67.6209C322.449 67.6314 322.586 67.6796 322.703 67.7604C324.204 68.7792 326.545 70.9499 325.534 74.1451C325.499 74.2543 325.44 74.3546 325.361 74.4386C325.281 74.5226 325.184 74.5882 325.076 74.6307C324.967 74.6732 324.851 74.6916 324.734 74.6844C324.617 74.6772 324.504 74.6447 324.402 74.5892Z" fill="#007F36"/>
<path d="M324.453 32.6695C323.952 31.4981 323.488 29.0608 326.194 26.0294C326.288 25.925 326.409 25.8472 326.544 25.8044C326.68 25.7615 326.824 25.755 326.963 25.7857C327.101 25.8163 327.229 25.8829 327.332 25.9786C327.436 26.0742 327.511 26.1953 327.55 26.3292C328.054 28.0503 328.459 31.1816 325.602 33.0165C325.506 33.0772 325.397 33.1165 325.284 33.1318C325.17 33.147 325.055 33.1378 324.945 33.1047C324.836 33.0717 324.735 33.0156 324.65 32.9405C324.565 32.8653 324.498 32.7728 324.453 32.6695Z" fill="#007F36"/>
<path d="M342.827 112.695C342.626 111.44 342.779 108.958 346.147 106.663C346.265 106.583 346.401 106.536 346.543 106.527C346.685 106.517 346.827 106.545 346.955 106.608C347.082 106.671 347.189 106.766 347.266 106.883C347.343 107.001 347.386 107.137 347.39 107.276C347.455 109.064 347.079 112.198 343.857 113.306C343.749 113.342 343.633 113.354 343.519 113.342C343.405 113.33 343.295 113.293 343.197 113.235C343.099 113.177 343.015 113.099 342.951 113.005C342.887 112.912 342.844 112.806 342.827 112.695Z" fill="#007F36"/>
<path d="M315.385 98.8928C315.037 97.6686 314.892 95.1869 317.967 92.5219C318.074 92.4305 318.204 92.3689 318.344 92.3434C318.483 92.318 318.628 92.3297 318.761 92.3773C318.894 92.4249 319.013 92.5066 319.103 92.6141C319.193 92.7215 319.253 92.8507 319.275 92.9883C319.558 94.7566 319.558 97.9128 316.481 99.373C316.378 99.4214 316.265 99.4472 316.151 99.4487C316.037 99.4501 315.924 99.4272 315.819 99.3815C315.715 99.3358 315.622 99.2685 315.547 99.1841C315.472 99.0997 315.417 99.0003 315.385 98.8928Z" fill="#007F36"/>
<path d="M339.039 65.9921C338.133 65.0871 336.774 62.9801 338.161 59.191C338.209 59.0599 338.292 58.9441 338.402 58.8554C338.512 58.7668 338.643 58.7086 338.784 58.687C338.924 58.6655 339.068 58.6813 339.2 58.7328C339.332 58.7844 339.447 58.8697 339.534 58.98C340.649 60.3957 342.204 63.1606 340.239 65.9005C340.172 65.9918 340.086 66.0678 339.986 66.123C339.886 66.1782 339.775 66.2113 339.66 66.22C339.546 66.2288 339.431 66.2129 339.324 66.1735C339.216 66.1341 339.119 66.0722 339.039 65.9921Z" fill="#007F36"/>
</g>
</g>
<defs>
<clipPath id="clip0">
<rect width="375" height="140" fill="white"/>
</clipPath>
<clipPath id="clip1">
<rect width="33" height="51" fill="white" transform="translate(149 89)"/>
</clipPath>
<clipPath id="clip2">
<rect width="55" height="62" fill="white" transform="translate(172 78)"/>
</clipPath>
<clipPath id="clip3">
<rect width="54" height="123" fill="white" transform="translate(306 20)"/>
</clipPath>
</defs>
</svg>
