<svg width="375" height="140" viewBox="0 0 375 140" fill="none" xmlns="http://www.w3.org/2000/svg">
<g clip-path="url(#clip0)">
<path d="M114 32C114 14.3269 128.327 0 146 0H397C414.673 0 429 14.3269 429 32V175H114V32Z" fill="#007F36"/>
<path d="M233.35 125.235C233.382 125.173 241.773 109.788 228.417 101.271C221.648 96.9581 213.856 96.0427 207.466 99.632C203.459 101.844 198.941 102.955 194.369 102.852C191.02 102.791 187.698 103.457 184.63 104.806C181.561 106.154 178.82 108.153 176.595 110.665C174.369 113.176 172.712 116.142 171.736 119.357C170.76 122.572 170.489 125.961 170.942 129.291C171.395 132.622 172.561 135.814 174.359 138.649C176.157 141.485 178.546 143.896 181.361 145.718C184.176 147.54 187.35 148.729 190.666 149.203C193.982 149.678 197.361 149.427 200.572 148.467C205.465 147.02 210.308 148.5 215.165 150.019C219.687 151.431 226.938 151.369 230.382 146.658C232.686 143.507 232.733 139.845 232.185 136.23C231.622 132.442 231.518 128.61 233.35 125.235Z" fill="#FFAAA1"/>
<path d="M222.589 128.321C222.319 128.321 222.051 128.26 221.807 128.142C221.563 128.024 221.349 127.853 221.18 127.641L220.166 126.367C220.014 126.182 219.899 125.968 219.83 125.738C219.76 125.508 219.737 125.266 219.762 125.027C219.787 124.788 219.859 124.556 219.974 124.345C220.089 124.134 220.244 123.948 220.432 123.799C220.619 123.649 220.835 123.538 221.065 123.473C221.296 123.407 221.537 123.389 221.775 123.418C222.013 123.447 222.242 123.524 222.45 123.643C222.658 123.762 222.84 123.922 222.986 124.113L223.999 125.383C224.211 125.649 224.344 125.97 224.382 126.309C224.42 126.647 224.362 126.99 224.215 127.297C224.068 127.604 223.837 127.863 223.549 128.044C223.262 128.225 222.929 128.321 222.589 128.321Z" fill="#FC9381"/>
<path d="M213.874 107.151C213.5 107.151 213.135 107.034 212.83 106.817C212.525 106.6 212.295 106.294 212.171 105.939C212.047 105.585 212.037 105.201 212.14 104.841C212.244 104.48 212.456 104.161 212.749 103.927L214.015 102.914C214.2 102.765 214.412 102.655 214.64 102.589C214.867 102.523 215.106 102.503 215.341 102.53C215.576 102.556 215.804 102.629 216.012 102.744C216.219 102.859 216.402 103.014 216.55 103.199C216.697 103.385 216.807 103.598 216.873 103.827C216.938 104.055 216.959 104.294 216.932 104.53C216.906 104.767 216.833 104.995 216.719 105.203C216.604 105.411 216.45 105.595 216.265 105.743L214.995 106.756C214.677 107.011 214.281 107.15 213.874 107.151Z" fill="#FC9381"/>
<path d="M206.619 141.448C206.347 141.449 206.079 141.388 205.834 141.27C205.59 141.152 205.375 140.98 205.205 140.768L204.196 139.494C203.908 139.118 203.779 138.644 203.837 138.173C203.894 137.703 204.134 137.274 204.503 136.978C204.872 136.683 205.343 136.545 205.812 136.594C206.282 136.643 206.714 136.875 207.015 137.24L208.029 138.513C208.323 138.888 208.459 139.365 208.405 139.839C208.35 140.314 208.112 140.748 207.74 141.046C207.423 141.305 207.027 141.447 206.619 141.448Z" fill="#FC9381"/>
<path d="M220.134 143.63C219.814 143.63 219.5 143.544 219.223 143.382C218.947 143.22 218.719 142.987 218.562 142.707C218.406 142.427 218.326 142.11 218.331 141.789C218.337 141.468 218.428 141.154 218.594 140.88L219.438 139.49C219.556 139.278 219.716 139.092 219.907 138.943C220.099 138.794 220.318 138.685 220.553 138.624C220.787 138.562 221.031 138.548 221.271 138.583C221.511 138.618 221.741 138.701 221.948 138.827C222.155 138.953 222.335 139.12 222.476 139.318C222.617 139.515 222.718 139.739 222.771 139.976C222.824 140.213 222.829 140.459 222.785 140.698C222.742 140.937 222.651 141.165 222.517 141.368L221.677 142.758C221.516 143.024 221.29 143.244 221.02 143.397C220.749 143.55 220.444 143.63 220.134 143.63Z" fill="#FC9381"/>
<path d="M225.225 115.154H225.023C224.788 115.128 224.56 115.055 224.353 114.94C224.146 114.825 223.963 114.67 223.815 114.484C223.668 114.299 223.558 114.085 223.492 113.857C223.427 113.629 223.407 113.389 223.433 113.153L223.617 111.536C223.635 111.293 223.702 111.057 223.813 110.841C223.925 110.625 224.078 110.433 224.265 110.278C224.452 110.123 224.668 110.007 224.9 109.937C225.132 109.868 225.376 109.846 225.617 109.873C225.858 109.901 226.091 109.976 226.302 110.096C226.513 110.216 226.698 110.377 226.846 110.57C226.993 110.763 227.1 110.984 227.161 111.22C227.222 111.455 227.234 111.701 227.198 111.941L227.018 113.559C226.965 113.999 226.754 114.404 226.424 114.698C226.093 114.992 225.667 115.155 225.225 115.154Z" fill="#FC9381"/>
<path d="M190.648 138.275H190.442C189.968 138.22 189.534 137.979 189.237 137.604C188.939 137.229 188.802 136.75 188.856 136.274L189.036 134.653C189.09 134.176 189.331 133.74 189.705 133.441C190.079 133.142 190.557 133.005 191.032 133.059C191.507 133.113 191.942 133.355 192.24 133.73C192.537 134.106 192.674 134.585 192.62 135.062L192.437 136.679C192.385 137.118 192.174 137.524 191.844 137.818C191.515 138.112 191.089 138.274 190.648 138.275Z" fill="#FC9381"/>
<path d="M206.031 126.479C205.578 126.476 205.143 126.302 204.812 125.992C204.48 125.682 204.278 125.258 204.244 124.804C204.211 124.351 204.348 123.902 204.63 123.546C204.912 123.189 205.317 122.953 205.764 122.883L207.369 122.64C207.603 122.605 207.842 122.616 208.072 122.673C208.301 122.73 208.518 122.833 208.708 122.974C208.899 123.115 209.06 123.292 209.182 123.496C209.304 123.699 209.385 123.925 209.421 124.16C209.456 124.395 209.445 124.635 209.388 124.865C209.331 125.096 209.229 125.313 209.088 125.504C208.948 125.695 208.771 125.857 208.568 125.979C208.365 126.102 208.14 126.183 207.906 126.219L206.301 126.461C206.212 126.473 206.121 126.479 206.031 126.479Z" fill="#FC9381"/>
<path d="M140.057 131.91C140.039 131.95 135.65 142.692 145.062 147.302C149.832 149.639 155.025 149.665 158.963 146.832C161.434 145.078 164.324 144.012 167.339 143.742C169.545 143.533 171.68 142.848 173.597 141.734C175.514 140.62 177.169 139.102 178.447 137.286C179.725 135.47 180.597 133.399 181.002 131.213C181.407 129.027 181.337 126.779 180.795 124.624C180.253 122.468 179.254 120.455 177.864 118.724C176.474 116.992 174.728 115.582 172.745 114.591C170.761 113.601 168.588 113.052 166.373 112.983C164.159 112.914 161.955 113.326 159.914 114.192C156.803 115.509 153.518 114.89 150.204 114.253C147.113 113.66 142.35 114.235 140.442 117.589C139.144 119.833 139.386 122.246 140.006 124.587C140.662 127.04 141.009 129.551 140.057 131.91Z" fill="#56C181"/>
<path d="M178.763 120.647C178.763 120.647 169.694 122.369 163.813 120.401C157.931 118.432 148.621 111.561 152.54 99.7442C156.46 87.927 161.761 93.311 157.686 74.9086C154.747 61.6297 166.51 58.6808 168.958 50.8112C171.407 42.9415 167.981 28.1864 177.292 24.7599C186.602 21.3334 187.096 34.1022 187.583 40.0035C188.07 45.9049 192.992 49.8415 198.368 53.2824C203.745 56.7234 206.211 70.9901 204.25 77.8864C202.288 84.7828 200.326 92.1459 208.66 97.0631C216.993 101.98 216.012 112.285 209.641 119.16C203.269 126.034 196.407 119.16 191.016 119.16C185.625 119.16 180.966 120.401 178.763 120.647Z" fill="#3CA064"/>
<path d="M194.135 97.8119C191.589 99.9213 188.005 103.051 184.68 106.329C184.11 98.0073 183.577 89.1173 183.209 80.6832C185.196 75.2559 186.624 74.2825 187.482 73.2007C188.456 71.9705 195.776 64.5929 192.361 67.0497C189.602 69.0325 184.788 74.127 183.018 76.0121C182.819 70.6137 182.7 65.4902 182.7 60.9276C182.7 58.6192 181.738 75.5272 180.584 94.6134C178.305 92.1313 171.14 84.5547 167.126 81.6529C162.276 78.1613 172.669 88.6361 174.057 90.3801C175.287 91.9287 177.335 93.3072 180.187 101.213C179.044 119.847 177.807 143.286 177.165 147.128L187.561 147.588C187.561 147.588 186.22 128.086 184.951 110.136C185.903 108.327 187.9 105.41 192.065 101.289C201.743 91.6899 195.033 97.0557 194.135 97.8119Z" fill="#F4F4F4"/>
<path d="M176.141 50.1164C175.734 48.4882 175.636 45.21 179.686 41.7944C179.826 41.6738 179.997 41.5938 180.179 41.5629C180.362 41.532 180.549 41.5515 180.721 41.6191C180.893 41.6867 181.044 41.8 181.157 41.9469C181.27 42.0938 181.341 42.2687 181.363 42.4529C181.658 44.7939 181.547 48.9658 177.54 50.7749C177.407 50.8369 177.261 50.8688 177.114 50.8683C176.967 50.8679 176.821 50.8352 176.688 50.7724C176.555 50.7097 176.437 50.6185 176.342 50.5051C176.248 50.3918 176.179 50.2591 176.141 50.1164Z" fill="#007F36"/>
<path d="M173.725 66.7711C172.16 66.1814 169.398 64.4048 168.919 59.1258C168.901 58.9426 168.933 58.7581 169.012 58.5917C169.09 58.4253 169.212 58.2831 169.364 58.1802C169.516 58.0772 169.693 58.0173 169.876 58.0067C170.059 57.9961 170.241 58.0352 170.404 58.1199C172.492 59.2054 175.846 61.6586 175.092 66.0041C175.065 66.152 175.007 66.2921 174.92 66.4145C174.833 66.5368 174.72 66.6383 174.589 66.7117C174.459 66.7851 174.313 66.8284 174.164 66.8387C174.015 66.849 173.865 66.8259 173.725 66.7711Z" fill="#007F36"/>
<path d="M192.033 61.6042C190.471 61.0145 187.724 59.2379 187.226 53.9553C187.208 53.7718 187.24 53.5868 187.318 53.4199C187.396 53.2529 187.517 53.1102 187.669 53.0068C187.821 52.9034 187.999 52.8432 188.182 52.8324C188.366 52.8217 188.548 52.8609 188.712 52.9458C190.803 54.0313 194.153 56.4808 193.381 60.8299C193.355 60.976 193.296 61.1144 193.211 61.2355C193.125 61.3566 193.015 61.4576 192.886 61.5313C192.758 61.605 192.615 61.6497 192.467 61.6623C192.32 61.6749 192.172 61.6551 192.033 61.6042Z" fill="#007F36"/>
<path d="M193.053 92.3158C191.488 91.7297 188.726 89.9531 188.246 84.6705C188.23 84.4876 188.263 84.3036 188.341 84.1377C188.42 83.9718 188.541 83.8302 188.693 83.7277C188.845 83.6252 189.022 83.5656 189.205 83.5552C189.387 83.5447 189.57 83.5838 189.732 83.6683C191.82 84.7537 195.173 87.2033 194.402 91.5488C194.375 91.6945 194.316 91.8324 194.231 91.9531C194.145 92.0737 194.034 92.1741 193.905 92.2471C193.777 92.3202 193.634 92.3642 193.487 92.3761C193.34 92.388 193.192 92.3674 193.053 92.3158Z" fill="#007F36"/>
<path d="M175.658 76.8732C174.216 77.6945 171.078 78.6606 166.733 75.6394C166.583 75.5345 166.463 75.3909 166.387 75.2237C166.311 75.0564 166.281 74.8716 166.3 74.6887C166.32 74.5059 166.388 74.3317 166.498 74.1844C166.608 74.0372 166.755 73.9223 166.924 73.8519C169.088 72.9474 173.123 71.9524 175.939 75.3427C176.033 75.4573 176.1 75.591 176.137 75.7345C176.173 75.8779 176.179 76.0276 176.152 76.1733C176.125 76.3189 176.067 76.4569 175.982 76.5778C175.897 76.6987 175.786 76.7995 175.658 76.8732Z" fill="#007F36"/>
<path d="M203.424 109.658C203.244 107.994 203.593 104.734 208.072 101.915C208.227 101.818 208.406 101.764 208.589 101.76C208.772 101.755 208.953 101.8 209.112 101.89C209.272 101.98 209.405 102.112 209.496 102.271C209.588 102.43 209.635 102.611 209.633 102.794C209.608 105.153 208.93 109.264 204.715 110.523C204.573 110.564 204.423 110.574 204.277 110.552C204.131 110.529 203.991 110.475 203.868 110.392C203.745 110.31 203.642 110.202 203.565 110.075C203.488 109.948 203.44 109.806 203.424 109.658Z" fill="#007F36"/>
<path d="M168.453 99.5993C166.888 99.0095 164.126 97.233 163.643 91.9504C163.625 91.7664 163.657 91.581 163.735 91.4137C163.813 91.2464 163.935 91.1034 164.088 90.9997C164.24 90.896 164.418 90.8354 164.601 90.8244C164.785 90.8135 164.969 90.8524 165.132 90.9373C167.22 92.0227 170.574 94.4723 169.82 98.8214C169.794 98.9699 169.736 99.1109 169.65 99.2342C169.563 99.3574 169.451 99.46 169.32 99.5344C169.189 99.6087 169.044 99.6531 168.894 99.6644C168.744 99.6756 168.594 99.6534 168.453 99.5993Z" fill="#007F36"/>
<path d="M192.408 76.4861C192.768 74.8507 194.139 71.8729 199.281 70.6391C199.459 70.5979 199.645 70.6053 199.82 70.6608C199.994 70.7162 200.15 70.8175 200.273 70.9542C200.395 71.0908 200.478 71.2579 200.514 71.4379C200.551 71.6179 200.538 71.8044 200.478 71.9778C199.703 74.203 197.748 77.8792 193.352 77.7199C193.205 77.7134 193.06 77.6745 192.929 77.6061C192.798 77.5376 192.684 77.4412 192.594 77.3237C192.504 77.2061 192.441 77.0703 192.408 76.9256C192.376 76.7809 192.376 76.6309 192.408 76.4861Z" fill="#007F36"/>
<path d="M196.23 116.435C194.665 115.845 191.903 114.069 191.42 108.786C191.404 108.603 191.437 108.419 191.516 108.253C191.595 108.088 191.717 107.946 191.869 107.844C192.022 107.742 192.198 107.682 192.381 107.671C192.564 107.661 192.746 107.7 192.909 107.784C194.997 108.869 198.35 111.319 197.579 115.668C197.552 115.814 197.493 115.952 197.407 116.072C197.322 116.193 197.211 116.293 197.082 116.366C196.954 116.439 196.811 116.483 196.664 116.495C196.516 116.507 196.368 116.487 196.23 116.435Z" fill="#007F36"/>
<path d="M170.732 111.105C169.42 112.14 166.477 113.569 161.717 111.25C161.55 111.17 161.408 111.046 161.306 110.891C161.204 110.736 161.145 110.556 161.137 110.37C161.128 110.185 161.17 110 161.258 109.837C161.345 109.673 161.476 109.536 161.635 109.441C163.643 108.214 167.476 106.619 170.776 109.539C170.888 109.637 170.977 109.759 171.037 109.897C171.097 110.034 171.126 110.183 171.122 110.332C171.117 110.482 171.08 110.629 171.013 110.762C170.946 110.896 170.85 111.013 170.732 111.105Z" fill="#007F36"/>
<path d="M180.876 118.298C180.839 118.299 180.803 118.285 180.776 118.26C180.749 118.235 180.732 118.201 180.728 118.165C180.602 116.775 180.602 114.991 180.602 114.973C180.607 114.938 180.625 114.907 180.652 114.884C180.679 114.861 180.713 114.848 180.748 114.848C180.783 114.848 180.817 114.861 180.844 114.884C180.871 114.907 180.888 114.938 180.894 114.973C180.894 114.973 180.894 116.764 181.02 118.139C181.023 118.178 181.011 118.216 180.986 118.246C180.961 118.276 180.925 118.295 180.887 118.298H180.876Z" fill="#F9C5CE"/>
<path d="M183.761 131.331C183.725 131.332 183.689 131.319 183.663 131.295C183.636 131.271 183.619 131.237 183.616 131.201C183.49 129.812 183.49 128.028 183.49 128.01C183.49 127.971 183.505 127.935 183.532 127.907C183.559 127.88 183.596 127.865 183.634 127.865C183.673 127.865 183.709 127.88 183.736 127.907C183.763 127.935 183.779 127.971 183.779 128.01C183.779 128.028 183.779 129.797 183.905 131.172C183.907 131.191 183.905 131.21 183.9 131.229C183.894 131.247 183.885 131.264 183.873 131.279C183.861 131.294 183.846 131.306 183.829 131.315C183.812 131.324 183.794 131.329 183.775 131.331H183.761Z" fill="#F9C5CE"/>
<path d="M183.263 121.692C183.244 121.691 183.225 121.686 183.208 121.677C183.19 121.668 183.175 121.656 183.163 121.641C183.15 121.626 183.141 121.609 183.135 121.59C183.13 121.572 183.128 121.552 183.13 121.533C183.256 120.158 183.256 118.385 183.256 118.367C183.261 118.332 183.279 118.3 183.306 118.277C183.333 118.254 183.367 118.242 183.402 118.242C183.437 118.242 183.471 118.254 183.498 118.277C183.525 118.3 183.542 118.332 183.548 118.367C183.548 118.385 183.548 120.176 183.422 121.558C183.418 121.597 183.399 121.633 183.37 121.658C183.34 121.683 183.302 121.695 183.263 121.692Z" fill="#F9C5CE"/>
<path d="M180.739 135.391C180.72 135.389 180.701 135.384 180.685 135.375C180.668 135.366 180.653 135.353 180.641 135.338C180.629 135.324 180.62 135.307 180.614 135.288C180.609 135.27 180.607 135.251 180.609 135.232C180.732 133.857 180.735 132.084 180.735 132.066C180.735 132.027 180.75 131.991 180.777 131.963C180.805 131.936 180.841 131.921 180.879 131.921C180.918 131.921 180.955 131.936 180.983 131.963C181.01 131.99 181.026 132.027 181.027 132.066C181.027 132.084 181.027 133.875 180.898 135.257C180.896 135.276 180.891 135.295 180.882 135.313C180.873 135.33 180.861 135.345 180.846 135.358C180.832 135.37 180.814 135.38 180.796 135.385C180.778 135.391 180.758 135.393 180.739 135.391Z" fill="#F9C5CE"/>
<path d="M182.434 139.422C182.415 139.42 182.396 139.414 182.379 139.405C182.363 139.396 182.348 139.384 182.336 139.369C182.324 139.354 182.315 139.337 182.309 139.319C182.304 139.301 182.302 139.281 182.304 139.262C182.426 137.887 182.43 136.118 182.43 136.1C182.43 136.081 182.433 136.062 182.44 136.044C182.447 136.026 182.458 136.009 182.471 135.995C182.484 135.982 182.5 135.971 182.518 135.963C182.536 135.956 182.555 135.952 182.574 135.952C182.594 135.952 182.613 135.956 182.631 135.963C182.649 135.97 182.665 135.981 182.679 135.995C182.693 136.009 182.703 136.025 182.711 136.043C182.718 136.061 182.722 136.081 182.722 136.1C182.722 136.118 182.722 137.909 182.592 139.291C182.591 139.311 182.586 139.329 182.577 139.346C182.568 139.364 182.556 139.379 182.541 139.391C182.526 139.403 182.509 139.412 182.49 139.417C182.472 139.423 182.453 139.424 182.434 139.422Z" fill="#F9C5CE"/>
<path d="M181.229 127.992C181.191 127.987 181.157 127.968 181.132 127.938C181.108 127.909 181.096 127.871 181.099 127.832C181.222 126.454 181.226 124.685 181.226 124.666C181.226 124.628 181.241 124.591 181.268 124.564C181.295 124.537 181.332 124.522 181.37 124.522C181.408 124.522 181.445 124.537 181.472 124.564C181.499 124.591 181.514 124.628 181.514 124.666C181.514 124.666 181.514 126.476 181.388 127.858C181.387 127.877 181.381 127.896 181.373 127.913C181.364 127.931 181.352 127.946 181.337 127.958C181.322 127.971 181.305 127.98 181.286 127.986C181.268 127.992 181.249 127.994 181.229 127.992Z" fill="#F9C5CE"/>
<path d="M182.899 95.0947C182.862 95.0949 182.826 95.0812 182.799 95.0565C182.772 95.0317 182.755 94.9976 182.751 94.9608C182.628 93.575 182.625 91.7912 182.625 91.7731C182.621 91.752 182.623 91.7303 182.629 91.7097C182.634 91.6891 182.645 91.6699 182.658 91.6536C182.672 91.6373 182.69 91.6243 182.709 91.6153C182.728 91.6063 182.749 91.6017 182.771 91.6017C182.792 91.6017 182.813 91.6063 182.833 91.6153C182.852 91.6243 182.869 91.6373 182.883 91.6536C182.897 91.6699 182.907 91.6891 182.913 91.7097C182.919 91.7303 182.92 91.752 182.917 91.7731C182.917 91.7912 182.917 93.5605 183.043 94.9355C183.045 94.9548 183.043 94.9743 183.037 94.9928C183.032 95.0114 183.022 95.0286 183.01 95.0434C182.998 95.0583 182.982 95.0705 182.965 95.0793C182.948 95.0881 182.929 95.0933 182.91 95.0947H182.899Z" fill="#F9C5CE"/>
<path d="M180.018 97.5189C179.991 97.519 179.964 97.5117 179.941 97.4976C179.918 97.4836 179.9 97.4633 179.888 97.4393C179.25 96.2018 178.575 94.5447 178.568 94.5447C178.555 94.5086 178.555 94.4687 178.57 94.4331C178.585 94.3975 178.612 94.3688 178.647 94.3529C178.683 94.3384 178.723 94.3387 178.759 94.3536C178.795 94.3684 178.823 94.3968 178.838 94.4325C178.838 94.4506 179.513 96.0897 180.147 97.3271C180.156 97.3442 180.161 97.3628 180.163 97.3819C180.164 97.401 180.162 97.4202 180.156 97.4384C180.15 97.4566 180.14 97.4734 180.128 97.4878C180.115 97.5022 180.1 97.514 180.083 97.5225C180.061 97.5261 180.039 97.5249 180.018 97.5189Z" fill="#F9C5CE"/>
<path d="M182.38 88.0427C182.343 88.042 182.309 88.028 182.282 88.0033C182.255 87.9786 182.239 87.945 182.235 87.9089C182.109 86.5195 182.109 84.7357 182.109 84.7176C182.109 84.6788 182.124 84.6416 182.151 84.6139C182.178 84.5862 182.215 84.5702 182.253 84.5692C182.292 84.5701 182.329 84.5861 182.357 84.6137C182.384 84.6413 182.4 84.6785 182.401 84.7176C182.401 84.7357 182.401 86.505 182.527 87.8835C182.529 87.9025 182.527 87.9217 182.521 87.9398C182.515 87.9579 182.505 87.9747 182.493 87.9892C182.481 88.0036 182.465 88.0155 182.448 88.024C182.431 88.0326 182.413 88.0377 182.394 88.0391L182.38 88.0427Z" fill="#F9C5CE"/>
<path d="M182.398 79.8764H182.354C182.317 79.8647 182.286 79.8388 182.268 79.8042C182.25 79.7697 182.246 79.7293 182.257 79.6919C182.682 78.364 183.371 76.7177 183.378 76.7032C183.394 76.6675 183.422 76.6391 183.458 76.6242C183.493 76.6094 183.534 76.6091 183.57 76.6236C183.587 76.6311 183.603 76.642 183.616 76.6557C183.63 76.6695 183.64 76.6857 183.647 76.7036C183.654 76.7214 183.658 76.7405 183.658 76.7597C183.657 76.7789 183.653 76.7978 183.645 76.8154C183.645 76.8334 182.956 78.4653 182.535 79.7823C182.524 79.8102 182.505 79.8343 182.481 79.8511C182.456 79.868 182.427 79.8768 182.398 79.8764Z" fill="#F9C5CE"/>
<path d="M181.55 109.832C181.514 109.831 181.479 109.817 181.453 109.792C181.426 109.768 181.409 109.734 181.406 109.698C181.28 108.309 181.28 106.525 181.28 106.507C181.285 106.472 181.303 106.44 181.33 106.417C181.356 106.394 181.391 106.381 181.426 106.381C181.461 106.381 181.495 106.394 181.522 106.417C181.549 106.44 181.566 106.472 181.572 106.507C181.572 106.525 181.572 108.298 181.698 109.673C181.701 109.711 181.689 109.75 181.664 109.78C181.639 109.809 181.603 109.828 181.565 109.832H181.55Z" fill="#F9C5CE"/>
<path d="M184.576 108.808C184.547 108.808 184.519 108.799 184.496 108.782C184.48 108.772 184.466 108.759 184.455 108.743C184.444 108.727 184.436 108.709 184.432 108.69C184.428 108.671 184.428 108.652 184.431 108.633C184.435 108.614 184.442 108.596 184.453 108.58C185.199 107.407 186.288 105.993 186.299 105.982C186.323 105.951 186.358 105.931 186.396 105.925C186.435 105.92 186.474 105.93 186.505 105.953C186.534 105.978 186.553 106.013 186.558 106.051C186.563 106.089 186.553 106.128 186.53 106.159C186.53 106.159 185.448 107.574 184.698 108.739C184.685 108.76 184.667 108.777 184.645 108.789C184.624 108.8 184.6 108.807 184.576 108.808Z" fill="#F9C5CE"/>
<path d="M181.828 101.734C181.79 101.73 181.755 101.71 181.731 101.681C181.707 101.651 181.695 101.613 181.698 101.575C181.821 100.196 181.821 98.427 181.821 98.4089C181.822 98.3702 181.838 98.3334 181.865 98.3064C181.893 98.2793 181.93 98.2642 181.968 98.2642C182.007 98.2642 182.043 98.2795 182.07 98.3066C182.098 98.3338 182.113 98.3706 182.113 98.4089C182.113 98.4089 182.113 100.218 181.986 101.6C181.985 101.62 181.98 101.638 181.971 101.656C181.962 101.673 181.95 101.688 181.935 101.701C181.921 101.713 181.903 101.723 181.885 101.728C181.867 101.734 181.847 101.736 181.828 101.734Z" fill="#F9C5CE"/>
<path d="M182.819 113.776C182.8 113.774 182.782 113.768 182.765 113.759C182.748 113.75 182.734 113.738 182.721 113.723C182.709 113.708 182.7 113.691 182.695 113.673C182.689 113.655 182.688 113.635 182.69 113.616C182.812 112.241 182.816 110.472 182.816 110.454C182.816 110.416 182.831 110.379 182.858 110.352C182.885 110.325 182.922 110.309 182.96 110.309C182.998 110.309 183.035 110.325 183.062 110.352C183.089 110.379 183.104 110.416 183.104 110.454C183.104 110.472 183.104 112.263 182.978 113.642C182.977 113.661 182.972 113.68 182.963 113.697C182.954 113.715 182.942 113.73 182.927 113.742C182.912 113.755 182.895 113.764 182.877 113.77C182.858 113.776 182.839 113.778 182.819 113.776Z" fill="#F9C5CE"/>
<path d="M183.31 106.376C183.271 106.373 183.236 106.354 183.211 106.324C183.186 106.294 183.173 106.256 183.176 106.217C183.303 104.842 183.303 103.069 183.303 103.051C183.308 103.016 183.326 102.985 183.353 102.962C183.379 102.939 183.413 102.926 183.449 102.926C183.484 102.926 183.518 102.939 183.545 102.962C183.572 102.985 183.589 103.016 183.595 103.051C183.595 103.069 183.595 104.86 183.469 106.243C183.465 106.281 183.446 106.317 183.417 106.342C183.387 106.367 183.349 106.379 183.31 106.376Z" fill="#F9C5CE"/>
<path d="M337.437 124.816C337.437 124.816 330.264 126.171 325.609 124.624C320.955 123.077 313.58 117.67 316.682 108.394C319.784 99.1193 323.98 103.34 320.753 88.8822C318.428 78.4607 327.733 76.1319 329.672 69.9512C331.612 63.7704 328.896 52.1745 336.266 49.469C343.636 46.7634 344.022 56.8121 344.409 61.4497C344.795 66.0872 348.677 69.1776 352.941 71.8711C357.206 74.5647 359.145 85.7798 357.596 91.191C356.047 96.6021 354.494 102.414 361.084 106.258C367.674 110.102 366.901 118.235 361.86 123.646C356.82 129.057 351.401 123.646 347.124 123.646C342.848 123.646 339.175 124.624 337.437 124.816Z" fill="#FC9381"/>
<path d="M349.594 106.867C347.583 108.527 344.743 110.984 342.111 113.561C341.661 107.02 341.238 100.037 340.945 93.4116C342.522 89.1388 343.648 88.3812 344.328 87.5315C345.101 86.5655 350.894 80.7695 348.19 82.7216C346.006 84.2728 342.188 88.281 340.796 89.7441C340.639 85.5033 340.547 81.479 340.547 77.8956C340.547 76.0799 339.782 89.3633 338.869 104.35C337.055 102.406 331.398 96.4539 328.208 94.1732C324.37 91.4275 332.593 99.6605 333.691 101.031C334.665 102.234 336.286 103.328 338.551 109.541C337.646 124.179 336.668 142.597 336.137 145.615L344.364 145.976C344.364 145.976 343.306 130.656 342.301 116.551C343.053 115.124 344.634 112.84 347.933 109.601C355.625 102.065 350.31 106.282 349.594 106.867Z" fill="#F4F4F4"/>
<path d="M335.361 69.4021C335.039 68.1275 334.959 65.5502 338.177 62.8727C338.288 62.78 338.422 62.7188 338.565 62.6957C338.708 62.6726 338.854 62.6883 338.989 62.7413C339.124 62.7942 339.242 62.8824 339.33 62.9965C339.419 63.1107 339.475 63.2465 339.493 63.3897C339.73 65.2295 339.641 68.5003 336.471 69.9352C336.364 69.9833 336.248 70.0074 336.13 70.006C336.013 70.0045 335.897 69.9773 335.791 69.9265C335.686 69.8757 335.592 69.8025 335.518 69.7119C335.443 69.6213 335.39 69.5155 335.361 69.4021Z" fill="#FFAAA1"/>
<path d="M333.442 82.489C332.207 82.0281 330.034 80.6292 329.64 76.4766C329.623 76.3316 329.646 76.1847 329.707 76.0518C329.768 75.919 329.864 75.8051 329.985 75.7226C330.106 75.6401 330.247 75.5921 330.393 75.5837C330.54 75.5753 330.685 75.6069 330.815 75.675C332.468 76.5288 335.12 78.4567 334.512 81.8718C334.492 81.9876 334.447 82.0977 334.38 82.1942C334.312 82.2907 334.224 82.3713 334.122 82.4302C334.02 82.4891 333.906 82.5249 333.789 82.5351C333.671 82.5452 333.553 82.5295 333.442 82.489Z" fill="#FFAAA1"/>
<path d="M347.929 78.4287C346.694 77.9677 344.521 76.5688 344.127 72.4163C344.11 72.2713 344.133 72.1244 344.194 71.9915C344.255 71.8586 344.351 71.7447 344.472 71.6622C344.592 71.5797 344.734 71.5317 344.88 71.5233C345.026 71.5149 345.172 71.5465 345.302 71.6146C346.955 72.4684 349.606 74.3964 348.999 77.8114C348.979 77.9273 348.934 78.0374 348.866 78.1339C348.799 78.2304 348.711 78.3109 348.609 78.3698C348.507 78.4287 348.393 78.4645 348.275 78.4747C348.158 78.4849 348.04 78.4692 347.929 78.4287Z" fill="#FFAAA1"/>
<path d="M348.737 102.558C347.498 102.097 345.326 100.703 344.932 96.546C344.914 96.4004 344.937 96.2529 344.998 96.1194C345.059 95.9859 345.155 95.8716 345.277 95.789C345.398 95.7063 345.54 95.6584 345.687 95.6506C345.834 95.6427 345.981 95.6751 346.11 95.7443C347.764 96.5941 350.415 98.5221 349.803 101.937C349.784 102.053 349.739 102.163 349.672 102.26C349.605 102.356 349.518 102.437 349.416 102.496C349.315 102.555 349.201 102.592 349.084 102.602C348.966 102.613 348.848 102.598 348.737 102.558Z" fill="#FFAAA1"/>
<path d="M334.975 90.4254C333.824 91.0707 331.354 91.8283 327.91 89.4594C327.79 89.3777 327.694 89.2648 327.632 89.1328C327.571 89.0008 327.547 88.8548 327.563 88.7102C327.579 88.5657 327.633 88.4282 327.722 88.3123C327.81 88.1964 327.928 88.1066 328.063 88.0525C329.781 87.3431 332.967 86.5614 335.2 89.2229C335.274 89.3132 335.327 89.4184 335.356 89.5312C335.385 89.644 335.388 89.7617 335.367 89.8762C335.346 89.9906 335.299 90.099 335.232 90.1939C335.164 90.2887 335.076 90.3677 334.975 90.4254Z" fill="#FFAAA1"/>
<path d="M356.944 116.187C356.799 114.876 357.077 112.315 360.621 110.098C360.744 110.02 360.886 109.978 361.031 109.974C361.177 109.97 361.32 110.006 361.447 110.077C361.574 110.148 361.679 110.252 361.751 110.378C361.823 110.504 361.859 110.647 361.856 110.791C361.856 112.647 361.301 115.874 357.962 116.864C357.85 116.895 357.733 116.902 357.618 116.884C357.503 116.866 357.393 116.823 357.296 116.759C357.2 116.695 357.118 116.61 357.057 116.511C356.996 116.412 356.958 116.302 356.944 116.187Z" fill="#FFAAA1"/>
<path d="M329.27 108.278C328.035 107.817 325.863 106.422 325.468 102.266C325.451 102.121 325.475 101.974 325.535 101.841C325.596 101.708 325.692 101.594 325.813 101.512C325.934 101.429 326.075 101.381 326.221 101.373C326.368 101.364 326.513 101.396 326.643 101.464C328.297 102.314 330.952 104.242 330.34 107.657C330.321 107.773 330.276 107.884 330.209 107.981C330.142 108.078 330.054 108.159 329.952 108.218C329.849 108.277 329.735 108.313 329.618 108.324C329.5 108.334 329.381 108.319 329.27 108.278Z" fill="#FFAAA1"/>
<path d="M348.226 90.1208C348.512 88.8342 349.594 86.5134 353.666 85.5273C353.807 85.4935 353.954 85.4984 354.093 85.5414C354.231 85.5844 354.356 85.6639 354.453 85.7715C354.549 85.8791 354.615 86.0109 354.643 86.1528C354.671 86.2947 354.66 86.4414 354.611 86.5775C353.995 88.3291 352.455 91.2151 348.979 91.0908C348.862 91.0858 348.747 91.0555 348.643 91.0018C348.539 90.9481 348.448 90.8724 348.376 90.78C348.305 90.6877 348.254 90.5808 348.228 90.4669C348.202 90.3531 348.202 90.2349 348.226 90.1208Z" fill="#FFAAA1"/>
<path d="M351.248 121.506C350.013 121.045 347.84 119.65 347.446 115.493C347.429 115.348 347.452 115.201 347.513 115.068C347.574 114.935 347.67 114.822 347.791 114.739C347.911 114.657 348.053 114.609 348.199 114.6C348.345 114.592 348.491 114.623 348.621 114.691C350.274 115.541 352.925 117.469 352.318 120.884C352.298 121 352.254 121.111 352.186 121.208C352.119 121.305 352.031 121.386 351.929 121.445C351.827 121.505 351.713 121.541 351.595 121.551C351.477 121.562 351.359 121.546 351.248 121.506Z" fill="#FFAAA1"/>
<path d="M331.089 117.321C330.047 118.123 327.721 119.257 323.96 117.433C323.829 117.37 323.717 117.274 323.637 117.153C323.557 117.032 323.511 116.892 323.504 116.747C323.498 116.602 323.531 116.458 323.599 116.331C323.668 116.203 323.771 116.097 323.895 116.022C325.505 115.06 328.518 113.802 331.137 116.098C331.223 116.177 331.291 116.274 331.336 116.381C331.381 116.488 331.402 116.604 331.397 116.721C331.392 116.837 331.362 116.951 331.309 117.055C331.256 117.158 331.181 117.249 331.089 117.321Z" fill="#FFAAA1"/>
<path d="M339.102 122.973C339.073 122.974 339.045 122.963 339.023 122.944C339.001 122.924 338.988 122.897 338.986 122.868C338.885 121.774 338.885 120.375 338.885 120.359C338.885 120.344 338.888 120.329 338.894 120.315C338.9 120.301 338.909 120.289 338.919 120.278C338.93 120.268 338.943 120.26 338.957 120.254C338.972 120.249 338.987 120.246 339.002 120.247C339.017 120.246 339.032 120.249 339.045 120.254C339.059 120.26 339.072 120.268 339.083 120.279C339.093 120.289 339.101 120.302 339.107 120.316C339.112 120.329 339.115 120.344 339.114 120.359C339.114 120.359 339.114 121.766 339.215 122.844C339.217 122.86 339.215 122.875 339.211 122.89C339.206 122.904 339.199 122.918 339.19 122.93C339.18 122.942 339.168 122.952 339.154 122.959C339.141 122.967 339.126 122.971 339.11 122.973H339.102Z" fill="#F9C5CE"/>
<path d="M341.383 133.214C341.355 133.214 341.327 133.203 341.306 133.184C341.285 133.164 341.273 133.138 341.271 133.109C341.17 132.019 341.17 130.616 341.17 130.6C341.175 130.574 341.189 130.55 341.21 130.532C341.231 130.515 341.258 130.505 341.285 130.505C341.312 130.505 341.338 130.515 341.359 130.532C341.38 130.55 341.394 130.574 341.399 130.6C341.399 130.6 341.399 132.007 341.5 133.089C341.501 133.119 341.491 133.149 341.472 133.172C341.453 133.195 341.425 133.21 341.395 133.214H341.383Z" fill="#F9C5CE"/>
<path d="M340.993 125.626C340.978 125.625 340.963 125.621 340.95 125.614C340.936 125.607 340.924 125.598 340.914 125.586C340.904 125.574 340.897 125.561 340.893 125.547C340.888 125.532 340.887 125.517 340.889 125.502C340.989 124.419 340.989 123.029 340.989 123.017C340.986 123 340.986 122.983 340.991 122.966C340.995 122.949 341.003 122.934 341.014 122.921C341.025 122.908 341.039 122.897 341.054 122.89C341.07 122.883 341.087 122.879 341.104 122.879C341.121 122.879 341.138 122.883 341.153 122.89C341.169 122.897 341.183 122.908 341.194 122.921C341.204 122.934 341.212 122.949 341.217 122.966C341.221 122.983 341.222 123 341.218 123.017C341.218 123.017 341.218 124.431 341.118 125.522C341.117 125.537 341.113 125.552 341.106 125.565C341.099 125.579 341.089 125.591 341.078 125.6C341.066 125.61 341.053 125.617 341.038 125.622C341.024 125.626 341.008 125.628 340.993 125.626Z" fill="#F9C5CE"/>
<path d="M338.994 136.4C338.963 136.397 338.936 136.382 338.916 136.359C338.897 136.336 338.887 136.306 338.889 136.276C338.99 135.198 338.99 133.803 338.99 133.791C338.99 133.76 339.002 133.73 339.024 133.709C339.046 133.687 339.075 133.675 339.106 133.675C339.137 133.675 339.167 133.687 339.189 133.709C339.211 133.73 339.223 133.76 339.223 133.791C339.223 133.791 339.223 135.206 339.122 136.296C339.121 136.311 339.116 136.326 339.109 136.34C339.102 136.353 339.092 136.365 339.08 136.375C339.068 136.385 339.054 136.392 339.039 136.396C339.025 136.4 339.009 136.402 338.994 136.4Z" fill="#F9C5CE"/>
<path d="M340.333 139.563C340.318 139.562 340.303 139.558 340.29 139.551C340.276 139.544 340.264 139.534 340.254 139.523C340.245 139.511 340.237 139.498 340.233 139.483C340.228 139.469 340.227 139.454 340.229 139.438C340.325 138.356 340.329 136.965 340.329 136.953C340.329 136.938 340.331 136.923 340.337 136.909C340.342 136.895 340.35 136.882 340.361 136.871C340.371 136.861 340.384 136.852 340.398 136.846C340.412 136.84 340.427 136.837 340.442 136.837C340.473 136.837 340.503 136.849 340.524 136.871C340.546 136.893 340.559 136.923 340.559 136.953C340.559 136.953 340.559 138.368 340.458 139.458C340.455 139.489 340.44 139.516 340.417 139.536C340.394 139.555 340.364 139.565 340.333 139.563Z" fill="#F9C5CE"/>
<path d="M339.38 130.588C339.365 130.587 339.35 130.582 339.336 130.575C339.322 130.568 339.31 130.558 339.301 130.546C339.291 130.534 339.284 130.52 339.279 130.505C339.275 130.491 339.274 130.475 339.275 130.46C339.372 129.382 339.376 127.991 339.376 127.975C339.375 127.96 339.378 127.945 339.383 127.931C339.389 127.917 339.397 127.905 339.408 127.894C339.418 127.884 339.431 127.875 339.445 127.87C339.459 127.865 339.474 127.862 339.489 127.863C339.504 127.862 339.519 127.865 339.533 127.87C339.547 127.875 339.56 127.884 339.571 127.894C339.582 127.905 339.59 127.917 339.596 127.931C339.602 127.945 339.605 127.96 339.605 127.975C339.605 127.975 339.605 129.39 339.505 130.484C339.501 130.514 339.486 130.541 339.463 130.56C339.439 130.58 339.41 130.59 339.38 130.588Z" fill="#F9C5CE"/>
<path d="M340.703 104.743C340.674 104.744 340.646 104.734 340.624 104.714C340.602 104.695 340.589 104.668 340.587 104.639C340.486 103.548 340.486 102.146 340.486 102.13C340.491 102.103 340.505 102.079 340.526 102.062C340.547 102.044 340.574 102.035 340.601 102.035C340.628 102.035 340.654 102.044 340.675 102.062C340.696 102.079 340.71 102.103 340.716 102.13C340.716 102.13 340.716 103.536 340.816 104.619C340.818 104.649 340.809 104.679 340.789 104.702C340.77 104.725 340.742 104.74 340.711 104.743H340.703Z" fill="#F9C5CE"/>
<path d="M338.422 106.647C338.401 106.646 338.38 106.64 338.362 106.629C338.343 106.617 338.328 106.602 338.318 106.583C337.815 105.613 337.28 104.314 337.276 104.302C337.27 104.288 337.267 104.273 337.267 104.257C337.267 104.242 337.27 104.227 337.276 104.212C337.282 104.198 337.291 104.185 337.302 104.175C337.313 104.164 337.326 104.155 337.34 104.15C337.354 104.144 337.369 104.141 337.384 104.141C337.399 104.141 337.414 104.144 337.428 104.15C337.442 104.156 337.455 104.165 337.465 104.176C337.476 104.187 337.484 104.2 337.489 104.214C337.489 104.214 338.024 105.517 338.523 106.479C338.537 106.506 338.54 106.537 338.531 106.567C338.522 106.596 338.502 106.62 338.475 106.635C338.458 106.643 338.441 106.647 338.422 106.647Z" fill="#F9C5CE"/>
<path d="M340.293 99.1875C340.264 99.1868 340.237 99.1759 340.215 99.1568C340.194 99.1377 340.18 99.1116 340.176 99.0833C340.076 97.989 340.076 96.5902 340.076 96.5741C340.076 96.5589 340.079 96.5437 340.085 96.5296C340.091 96.5155 340.099 96.5027 340.11 96.4919C340.121 96.4811 340.134 96.4726 340.148 96.4667C340.162 96.4609 340.177 96.4579 340.193 96.4579C340.208 96.4579 340.223 96.4609 340.237 96.4667C340.251 96.4726 340.264 96.4811 340.275 96.4919C340.286 96.5027 340.294 96.5155 340.3 96.5296C340.306 96.5437 340.309 96.5589 340.309 96.5741C340.309 96.5741 340.309 97.981 340.406 99.0592C340.407 99.0745 340.406 99.09 340.402 99.1047C340.397 99.1195 340.39 99.1332 340.38 99.1451C340.371 99.157 340.359 99.1669 340.345 99.1742C340.331 99.1815 340.316 99.186 340.301 99.1875H340.293Z" fill="#F9C5CE"/>
<path d="M340.305 92.7863H340.269C340.255 92.7817 340.241 92.7744 340.23 92.7646C340.218 92.7548 340.209 92.7429 340.202 92.7294C340.195 92.716 340.191 92.7013 340.19 92.6863C340.189 92.6712 340.192 92.6562 340.197 92.642C340.53 91.5998 341.078 90.3092 341.082 90.2931C341.096 90.2676 341.119 90.2482 341.146 90.2387C341.174 90.2292 341.204 90.2304 341.231 90.242C341.257 90.2535 341.279 90.2747 341.291 90.3012C341.303 90.3277 341.304 90.3578 341.295 90.3853C341.295 90.3853 340.748 91.68 340.414 92.7141C340.405 92.7359 340.391 92.7545 340.371 92.7675C340.352 92.7804 340.329 92.787 340.305 92.7863Z" fill="#F9C5CE"/>
<path d="M339.633 116.339C339.604 116.339 339.576 116.328 339.555 116.309C339.533 116.29 339.52 116.263 339.517 116.235C339.42 115.144 339.416 113.741 339.416 113.729C339.416 113.699 339.428 113.669 339.45 113.647C339.472 113.625 339.502 113.613 339.533 113.613C339.564 113.613 339.593 113.625 339.615 113.647C339.637 113.669 339.649 113.699 339.649 113.729C339.649 113.729 339.649 115.136 339.75 116.215C339.752 116.245 339.743 116.275 339.723 116.298C339.704 116.321 339.676 116.336 339.645 116.339H339.633Z" fill="#F9C5CE"/>
<path d="M342.027 115.513C342.007 115.519 341.986 115.519 341.967 115.513C341.941 115.496 341.924 115.47 341.917 115.44C341.91 115.41 341.915 115.379 341.93 115.353C342.522 114.431 343.383 113.321 343.391 113.309C343.41 113.284 343.438 113.268 343.469 113.265C343.5 113.261 343.531 113.269 343.556 113.289C343.58 113.308 343.596 113.336 343.6 113.367C343.604 113.397 343.595 113.428 343.576 113.453C343.576 113.453 342.711 114.563 342.128 115.477C342.115 115.491 342.099 115.501 342.082 115.507C342.064 115.514 342.045 115.516 342.027 115.513Z" fill="#F9C5CE"/>
<path d="M339.851 109.958C339.821 109.954 339.793 109.939 339.774 109.916C339.755 109.893 339.745 109.863 339.746 109.833C339.847 108.751 339.847 107.36 339.847 107.344C339.847 107.313 339.859 107.284 339.881 107.262C339.903 107.24 339.932 107.228 339.963 107.228C339.994 107.228 340.024 107.24 340.046 107.262C340.068 107.284 340.08 107.313 340.08 107.344C340.08 107.344 340.08 108.763 339.979 109.853C339.978 109.869 339.973 109.884 339.966 109.897C339.959 109.911 339.949 109.923 339.937 109.932C339.925 109.942 339.911 109.949 339.896 109.954C339.881 109.958 339.866 109.959 339.851 109.958Z" fill="#F9C5CE"/>
<path d="M340.655 119.421C340.625 119.418 340.597 119.403 340.578 119.38C340.558 119.357 340.548 119.327 340.551 119.297C340.651 118.219 340.651 116.828 340.651 116.812C340.651 116.781 340.663 116.751 340.685 116.73C340.707 116.708 340.737 116.696 340.768 116.696C340.799 116.696 340.828 116.708 340.85 116.73C340.872 116.751 340.884 116.781 340.884 116.812C340.884 116.812 340.884 118.227 340.784 119.317C340.78 119.347 340.764 119.375 340.74 119.395C340.716 119.414 340.686 119.423 340.655 119.421Z" fill="#F9C5CE"/>
<path d="M341.025 113.605C340.995 113.602 340.967 113.587 340.948 113.564C340.928 113.541 340.918 113.511 340.921 113.481C341.017 112.399 341.021 111.008 341.021 110.992C341.021 110.962 341.033 110.933 341.054 110.912C341.075 110.891 341.104 110.88 341.134 110.88C341.164 110.88 341.193 110.891 341.215 110.912C341.237 110.933 341.25 110.962 341.251 110.992C341.251 110.992 341.251 112.411 341.15 113.501C341.149 113.516 341.145 113.531 341.138 113.544C341.131 113.558 341.122 113.57 341.11 113.58C341.098 113.589 341.085 113.597 341.07 113.601C341.056 113.605 341.04 113.607 341.025 113.605Z" fill="#F9C5CE"/>
<path d="M313.343 133.174C313.343 133.174 317.684 133.975 320.5 133.057C323.316 132.139 327.782 128.861 325.891 123.249C324 117.638 321.466 120.191 323.429 111.449C324.837 105.14 319.209 103.737 318.034 99.9971C316.859 96.2574 318.505 89.247 314.047 87.6116C309.59 85.9762 309.356 92.0528 309.123 94.8586C308.89 97.6643 306.544 99.5322 303.961 101.168C301.379 102.803 300.208 109.585 301.145 112.852C302.083 116.118 303.024 119.63 299.037 121.95C295.051 124.271 295.517 129.193 298.567 132.464C301.616 135.735 304.899 132.464 307.482 132.464C310.064 132.464 312.289 133.065 313.343 133.174Z" fill="#FFAAA1"/>
<path d="M316.517 122.327C315.31 123.329 313.584 124.816 311.991 126.376C311.718 122.419 311.464 118.195 311.287 114.186C312.241 111.601 312.921 111.144 313.331 110.631C313.798 110.046 317.302 106.543 315.668 107.709C314.349 108.655 312.048 111.072 311.195 111.97C311.102 109.405 311.046 106.972 311.046 104.803C311.046 103.705 310.583 111.741 310.032 120.808C308.934 119.634 305.514 116.03 303.595 114.651C301.274 112.992 306.247 117.97 306.91 118.8C307.486 119.545 308.471 120.191 309.839 123.955C309.292 132.809 308.701 143.948 308.391 145.776L313.367 145.992C313.367 145.992 312.724 136.725 312.116 128.195C312.575 127.334 313.528 125.951 315.524 123.995C320.166 119.421 316.944 121.974 316.517 122.327Z" fill="#F4F4F4"/>
<path d="M312.494 92.0688C313.182 92.4697 314.321 93.5439 314.103 96.0771C314.097 96.167 314.066 96.2534 314.013 96.3267C313.961 96.4001 313.889 96.4576 313.806 96.4928C313.723 96.5281 313.631 96.5397 313.542 96.5265C313.452 96.5132 313.368 96.4756 313.299 96.4178C312.41 95.7284 311.046 94.2934 311.782 92.3294C311.805 92.2602 311.843 92.197 311.894 92.1446C311.944 92.0923 312.006 92.052 312.075 92.0269C312.143 92.0018 312.217 91.9926 312.289 91.9998C312.362 92.0071 312.432 92.0307 312.494 92.0688Z" fill="#FC9381"/>
<path d="M306.021 103.112C306.299 102.366 307.148 101.055 309.666 100.819C309.751 100.813 309.835 100.83 309.911 100.867C309.988 100.903 310.053 100.959 310.101 101.029C310.149 101.098 310.179 101.179 310.186 101.263C310.194 101.347 310.18 101.431 310.145 101.508C309.63 102.506 308.459 104.102 306.383 103.737C306.316 103.723 306.253 103.696 306.197 103.656C306.141 103.616 306.095 103.565 306.061 103.506C306.026 103.447 306.005 103.381 305.998 103.313C305.992 103.245 305.999 103.176 306.021 103.112Z" fill="#FC9381"/>
<path d="M320.383 106.318C320.713 107.044 321.043 108.567 319.43 110.511C319.374 110.578 319.301 110.63 319.218 110.659C319.136 110.689 319.046 110.695 318.96 110.679C318.874 110.662 318.794 110.622 318.729 110.564C318.663 110.505 318.615 110.43 318.589 110.347C318.247 109.276 317.941 107.324 319.667 106.122C319.726 106.083 319.792 106.057 319.862 106.046C319.931 106.034 320.002 106.038 320.07 106.057C320.138 106.075 320.201 106.108 320.255 106.154C320.309 106.199 320.353 106.255 320.383 106.318Z" fill="#FC9381"/>
<path d="M313.975 115.878C313.645 115.152 313.315 113.629 314.928 111.689C314.984 111.622 315.057 111.57 315.14 111.541C315.222 111.511 315.312 111.505 315.398 111.521C315.484 111.538 315.564 111.578 315.629 111.637C315.695 111.695 315.743 111.77 315.769 111.854C316.111 112.92 316.417 114.876 314.691 116.074C314.633 116.115 314.566 116.142 314.496 116.154C314.427 116.166 314.355 116.162 314.286 116.144C314.218 116.125 314.155 116.091 314.101 116.045C314.047 115.999 314.004 115.942 313.975 115.878Z" fill="#FC9381"/>
<path d="M307.667 112.383C306.971 112.783 305.474 113.232 303.394 111.797C303.322 111.748 303.264 111.68 303.227 111.6C303.19 111.52 303.176 111.432 303.185 111.345C303.195 111.258 303.228 111.175 303.281 111.105C303.334 111.035 303.405 110.981 303.487 110.948C304.525 110.515 306.452 110.042 307.803 111.653C307.848 111.708 307.88 111.772 307.897 111.84C307.914 111.909 307.916 111.98 307.903 112.049C307.89 112.118 307.862 112.184 307.822 112.242C307.781 112.299 307.728 112.347 307.667 112.383Z" fill="#FC9381"/>
<path d="M316.043 105.092C315.31 104.763 314.055 103.837 313.975 101.32C313.973 101.233 313.994 101.146 314.037 101.07C314.079 100.994 314.141 100.931 314.217 100.886C314.292 100.842 314.378 100.819 314.466 100.819C314.554 100.819 314.64 100.843 314.715 100.887C315.68 101.464 317.209 102.731 316.706 104.767C316.689 104.835 316.658 104.899 316.614 104.954C316.569 105.008 316.514 105.053 316.45 105.084C316.387 105.114 316.318 105.131 316.247 105.133C316.177 105.134 316.107 105.12 316.043 105.092Z" fill="#FC9381"/>
<path d="M320.963 127.963C320.874 127.161 321.043 125.622 323.183 124.279C323.258 124.233 323.344 124.208 323.431 124.207C323.519 124.205 323.606 124.227 323.682 124.27C323.759 124.313 323.822 124.375 323.866 124.451C323.91 124.527 323.932 124.613 323.932 124.7C323.932 125.822 323.598 127.774 321.578 128.372C321.51 128.391 321.439 128.396 321.37 128.385C321.3 128.375 321.233 128.349 321.175 128.31C321.116 128.271 321.067 128.22 321.03 128.16C320.993 128.1 320.97 128.033 320.963 127.963Z" fill="#FC9381"/>
<path d="M304.851 125.426C304.102 125.145 302.791 124.303 302.553 121.794C302.547 121.71 302.563 121.626 302.599 121.55C302.636 121.474 302.691 121.408 302.761 121.36C302.83 121.312 302.911 121.283 302.995 121.275C303.08 121.268 303.164 121.282 303.241 121.317C304.243 121.83 305.848 122.997 305.478 125.061C305.465 125.128 305.437 125.191 305.397 125.247C305.357 125.302 305.306 125.349 305.246 125.383C305.187 125.418 305.121 125.439 305.053 125.447C304.985 125.454 304.916 125.447 304.851 125.426Z" fill="#FC9381"/>
<path d="M319.261 116.419C320.041 116.591 321.461 117.245 322.053 119.694C322.073 119.779 322.07 119.868 322.043 119.952C322.017 120.035 321.969 120.11 321.903 120.169C321.838 120.227 321.758 120.267 321.672 120.285C321.585 120.302 321.496 120.296 321.413 120.267C320.351 119.894 318.597 118.964 318.674 116.868C318.677 116.798 318.696 116.73 318.729 116.667C318.762 116.605 318.808 116.551 318.863 116.509C318.919 116.466 318.984 116.436 319.052 116.42C319.121 116.405 319.192 116.404 319.261 116.419Z" fill="#FC9381"/>
<path d="M314.638 129.859C314.916 129.113 315.765 127.803 318.283 127.566C318.371 127.559 318.458 127.575 318.537 127.612C318.616 127.65 318.683 127.708 318.732 127.78C318.781 127.853 318.81 127.937 318.815 128.024C318.82 128.111 318.802 128.198 318.762 128.275C318.247 129.27 317.076 130.869 315.005 130.5C314.935 130.488 314.869 130.46 314.812 130.419C314.754 130.379 314.706 130.326 314.671 130.265C314.636 130.203 314.615 130.135 314.61 130.065C314.604 129.995 314.614 129.925 314.638 129.859Z" fill="#FC9381"/>
<path d="M305.631 130.079C305.003 130.568 303.595 131.25 301.318 130.147C301.24 130.108 301.174 130.049 301.127 129.976C301.079 129.903 301.052 129.818 301.048 129.731C301.045 129.644 301.064 129.558 301.106 129.481C301.147 129.404 301.208 129.339 301.282 129.294C302.244 128.708 304.074 127.951 305.655 129.338C305.708 129.385 305.75 129.443 305.777 129.508C305.805 129.573 305.819 129.643 305.816 129.714C305.814 129.785 305.796 129.854 305.764 129.917C305.732 129.98 305.687 130.035 305.631 130.079Z" fill="#FC9381"/>
<path d="M310.169 132.067C310.151 132.067 310.135 132.061 310.122 132.049C310.109 132.037 310.102 132.021 310.101 132.003C310.04 131.342 310.04 130.496 310.04 130.488C310.04 130.47 310.047 130.452 310.06 130.438C310.073 130.425 310.09 130.417 310.109 130.416C310.118 130.416 310.128 130.418 310.136 130.421C310.145 130.425 310.153 130.43 310.16 130.437C310.167 130.444 310.172 130.452 310.176 130.46C310.179 130.469 310.181 130.479 310.181 130.488C310.181 130.488 310.181 131.338 310.241 131.991C310.242 132.009 310.235 132.027 310.223 132.041C310.212 132.055 310.195 132.064 310.177 132.067H310.169Z" fill="#F9C5CE"/>
<path d="M311.553 138.26C311.535 138.26 311.518 138.254 311.504 138.242C311.491 138.23 311.482 138.214 311.48 138.196C311.42 137.539 311.42 136.689 311.42 136.681C311.42 136.672 311.422 136.662 311.426 136.654C311.429 136.645 311.435 136.638 311.442 136.631C311.448 136.625 311.456 136.62 311.465 136.617C311.474 136.613 311.483 136.612 311.493 136.613C311.511 136.613 311.528 136.62 311.541 136.633C311.554 136.645 311.561 136.663 311.561 136.681C311.561 136.681 311.561 137.531 311.621 138.184C311.622 138.193 311.622 138.203 311.619 138.212C311.616 138.22 311.612 138.229 311.606 138.236C311.6 138.243 311.592 138.249 311.584 138.253C311.575 138.257 311.566 138.26 311.557 138.26H311.553Z" fill="#F9C5CE"/>
<path d="M311.316 133.671C311.306 133.67 311.297 133.668 311.289 133.664C311.28 133.659 311.273 133.654 311.267 133.646C311.261 133.639 311.256 133.631 311.254 133.622C311.251 133.613 311.25 133.604 311.251 133.594C311.312 132.941 311.312 132.099 311.312 132.091C311.313 132.073 311.321 132.056 311.334 132.043C311.348 132.03 311.365 132.023 311.384 132.023C311.402 132.024 311.419 132.032 311.431 132.044C311.444 132.057 311.451 132.074 311.452 132.091C311.452 132.091 311.452 132.949 311.392 133.61C311.391 133.619 311.388 133.628 311.384 133.636C311.379 133.644 311.373 133.651 311.366 133.656C311.359 133.662 311.351 133.666 311.342 133.669C311.334 133.671 311.325 133.672 311.316 133.671Z" fill="#F9C5CE"/>
<path d="M310.105 140.188C310.095 140.188 310.086 140.185 310.078 140.181C310.069 140.177 310.062 140.171 310.056 140.164C310.05 140.157 310.045 140.148 310.043 140.14C310.04 140.131 310.039 140.121 310.04 140.112C310.101 139.459 310.101 138.617 310.101 138.609C310.101 138.591 310.108 138.573 310.121 138.561C310.133 138.548 310.151 138.541 310.169 138.541C310.178 138.54 310.188 138.541 310.196 138.545C310.205 138.548 310.213 138.553 310.22 138.559C310.227 138.566 310.232 138.573 310.236 138.582C310.239 138.59 310.241 138.599 310.241 138.609C310.241 138.609 310.241 139.467 310.177 140.124C310.176 140.133 310.174 140.142 310.17 140.15C310.166 140.158 310.161 140.165 310.154 140.171C310.147 140.177 310.14 140.181 310.131 140.184C310.123 140.187 310.114 140.189 310.105 140.188Z" fill="#F9C5CE"/>
<path d="M310.338 136.673C310.319 136.671 310.302 136.662 310.29 136.648C310.278 136.633 310.272 136.615 310.274 136.597C310.334 135.943 310.334 135.102 310.334 135.094C310.334 135.074 310.342 135.056 310.355 135.042C310.369 135.029 310.387 135.021 310.406 135.021C310.425 135.022 310.442 135.03 310.455 135.044C310.468 135.057 310.475 135.075 310.475 135.094C310.475 135.094 310.475 135.947 310.414 136.609C310.412 136.627 310.403 136.644 310.389 136.656C310.375 136.668 310.356 136.674 310.338 136.673Z" fill="#F9C5CE"/>
<path d="M311.138 121.041C311.121 121.041 311.104 121.034 311.092 121.022C311.079 121.01 311.071 120.994 311.07 120.976C311.01 120.319 311.01 119.469 311.01 119.461C311.009 119.452 311.011 119.443 311.014 119.435C311.017 119.426 311.022 119.418 311.028 119.412C311.035 119.405 311.043 119.4 311.051 119.397C311.06 119.394 311.069 119.393 311.078 119.393C311.087 119.393 311.096 119.395 311.104 119.398C311.113 119.402 311.12 119.407 311.127 119.413C311.133 119.419 311.138 119.427 311.141 119.435C311.145 119.443 311.147 119.452 311.147 119.461C311.147 119.461 311.147 120.311 311.207 120.964C311.208 120.973 311.207 120.982 311.205 120.991C311.202 121 311.198 121.008 311.193 121.015C311.187 121.022 311.18 121.028 311.172 121.032C311.164 121.037 311.156 121.04 311.147 121.041H311.138Z" fill="#F9C5CE"/>
<path d="M309.759 122.191C309.746 122.191 309.734 122.188 309.723 122.182C309.712 122.175 309.704 122.166 309.698 122.155C309.393 121.566 309.071 120.78 309.067 120.772C309.063 120.764 309.062 120.755 309.062 120.746C309.063 120.737 309.065 120.728 309.068 120.72C309.072 120.711 309.077 120.704 309.084 120.698C309.091 120.692 309.098 120.687 309.107 120.684C309.115 120.68 309.124 120.678 309.133 120.678C309.142 120.677 309.151 120.679 309.159 120.682C309.168 120.686 309.175 120.691 309.181 120.697C309.188 120.704 309.192 120.711 309.195 120.72C309.195 120.72 309.517 121.522 309.823 122.091C309.827 122.099 309.829 122.108 309.83 122.117C309.831 122.126 309.829 122.135 309.826 122.144C309.823 122.152 309.819 122.16 309.813 122.167C309.806 122.174 309.799 122.179 309.791 122.183C309.782 122.19 309.77 122.193 309.759 122.191Z" fill="#F9C5CE"/>
<path d="M310.885 117.682C310.868 117.681 310.852 117.674 310.839 117.662C310.826 117.65 310.819 117.635 310.817 117.617C310.756 116.956 310.756 116.11 310.756 116.102C310.756 116.084 310.763 116.066 310.776 116.053C310.789 116.039 310.806 116.031 310.825 116.03C310.834 116.03 310.844 116.032 310.852 116.036C310.861 116.039 310.869 116.045 310.876 116.051C310.883 116.058 310.888 116.066 310.892 116.075C310.895 116.084 310.897 116.093 310.897 116.102C310.897 116.102 310.897 116.952 310.957 117.605C310.959 117.624 310.953 117.642 310.941 117.656C310.929 117.671 310.912 117.68 310.893 117.682H310.885Z" fill="#F9C5CE"/>
<path d="M310.885 113.81C310.868 113.803 310.854 113.791 310.845 113.774C310.837 113.758 310.836 113.739 310.841 113.721C311.042 113.092 311.372 112.311 311.376 112.303C311.379 112.294 311.385 112.286 311.391 112.28C311.398 112.273 311.406 112.268 311.414 112.265C311.423 112.261 311.432 112.26 311.442 112.26C311.451 112.26 311.46 112.262 311.468 112.266C311.477 112.269 311.485 112.274 311.491 112.28C311.498 112.287 311.503 112.294 311.506 112.303C311.51 112.311 311.511 112.32 311.511 112.329C311.511 112.338 311.508 112.347 311.505 112.355C311.505 112.355 311.175 113.156 310.974 113.766C310.971 113.774 310.966 113.783 310.96 113.79C310.954 113.797 310.947 113.802 310.939 113.806C310.93 113.811 310.921 113.813 310.912 113.814C310.903 113.814 310.894 113.813 310.885 113.81Z" fill="#F9C5CE"/>
<path d="M310.483 128.043C310.466 128.042 310.449 128.035 310.437 128.023C310.424 128.012 310.416 127.996 310.414 127.979C310.354 127.321 310.354 126.472 310.354 126.464C310.354 126.446 310.361 126.428 310.374 126.416C310.387 126.403 310.404 126.396 310.422 126.396C310.432 126.395 310.441 126.396 310.45 126.4C310.459 126.403 310.467 126.408 310.473 126.414C310.48 126.42 310.486 126.428 310.489 126.437C310.493 126.445 310.495 126.454 310.495 126.464C310.495 126.464 310.495 127.313 310.555 127.967C310.556 127.976 310.555 127.985 310.553 127.994C310.55 128.003 310.546 128.012 310.54 128.019C310.534 128.026 310.526 128.032 310.518 128.036C310.509 128.04 310.5 128.042 310.491 128.043H310.483Z" fill="#F9C5CE"/>
<path d="M311.939 127.562H311.903C311.888 127.551 311.878 127.536 311.874 127.518C311.87 127.5 311.873 127.481 311.883 127.466C312.241 126.905 312.76 126.235 312.768 126.227C312.781 126.215 312.798 126.209 312.816 126.209C312.834 126.209 312.851 126.215 312.864 126.227C312.877 126.241 312.883 126.259 312.883 126.277C312.883 126.296 312.877 126.314 312.864 126.327C312.864 126.327 312.341 127.001 311.987 127.55C311.981 127.555 311.973 127.559 311.964 127.561C311.956 127.563 311.948 127.563 311.939 127.562Z" fill="#F9C5CE"/>
<path d="M310.628 124.195C310.609 124.193 310.592 124.184 310.58 124.17C310.568 124.156 310.562 124.137 310.563 124.119C310.624 123.466 310.624 122.624 310.624 122.616C310.624 122.607 310.625 122.597 310.629 122.589C310.633 122.58 310.638 122.573 310.645 122.566C310.652 122.56 310.66 122.555 310.669 122.552C310.677 122.548 310.687 122.547 310.696 122.548C310.714 122.548 310.732 122.555 310.744 122.568C310.757 122.58 310.764 122.598 310.764 122.616C310.764 122.616 310.764 123.474 310.704 124.131C310.704 124.14 310.701 124.149 310.697 124.158C310.693 124.166 310.687 124.174 310.68 124.18C310.673 124.186 310.664 124.19 310.655 124.193C310.646 124.195 310.637 124.196 310.628 124.195Z" fill="#F9C5CE"/>
<path d="M311.102 129.919C311.084 129.917 311.067 129.908 311.055 129.894C311.043 129.879 311.037 129.861 311.038 129.843C311.098 129.189 311.098 128.348 311.098 128.34C311.098 128.32 311.106 128.302 311.119 128.289C311.133 128.275 311.151 128.267 311.171 128.267C311.189 128.268 311.207 128.277 311.219 128.29C311.232 128.303 311.239 128.321 311.239 128.34C311.239 128.34 311.239 129.193 311.179 129.855C311.177 129.873 311.168 129.89 311.153 129.902C311.139 129.914 311.121 129.92 311.102 129.919Z" fill="#F9C5CE"/>
<path d="M311.336 126.4C311.327 126.399 311.318 126.396 311.31 126.391C311.302 126.387 311.295 126.381 311.289 126.374C311.284 126.367 311.28 126.359 311.277 126.35C311.275 126.341 311.274 126.332 311.275 126.323C311.332 125.67 311.336 124.828 311.336 124.82C311.336 124.802 311.343 124.785 311.356 124.772C311.368 124.759 311.386 124.752 311.404 124.752C311.422 124.752 311.44 124.759 311.452 124.772C311.465 124.785 311.472 124.802 311.472 124.82C311.472 124.82 311.472 125.678 311.412 126.339C311.412 126.349 311.409 126.358 311.405 126.366C311.401 126.374 311.395 126.381 311.388 126.387C311.38 126.393 311.372 126.397 311.363 126.399C311.354 126.401 311.345 126.401 311.336 126.4Z" fill="#F9C5CE"/>
</g>
<defs>
<clipPath id="clip0">
<rect width="375" height="140" fill="white"/>
</clipPath>
</defs>
</svg>
