<svg width="255" height="112" viewBox="0 0 255 112" fill="none" xmlns="http://www.w3.org/2000/svg">
<path fill-rule="evenodd" clip-rule="evenodd" d="M146.904 44.6598L147.586 44.8675C148.658 45.1943 149.792 45.2623 150.896 45.0662L151.126 45.0254C152.117 44.8492 153.027 45.6146 153.027 46.6254V51.5413C153.027 52.2766 152.501 52.9059 151.78 53.0342L150.795 53.2092C149.773 53.3909 148.719 53.224 147.802 52.7352L147.453 52.549C146.233 51.8986 144.768 51.9324 143.582 52.6296V55.5208C143.955 55.5208 144.257 55.824 144.257 56.1979C144.257 56.5718 143.955 56.875 143.582 56.875H142.233C141.86 56.875 141.558 56.5718 141.558 56.1979C141.558 55.824 141.86 55.5208 142.233 55.5208V46.0155C142.233 45.615 142.453 45.2471 142.806 45.0592C144.065 44.3875 145.539 44.2439 146.904 44.6598ZM147.194 46.1633L146.512 45.9555C145.54 45.6593 144.494 45.7416 143.582 46.1822V51.1234C145.028 50.5322 146.679 50.6028 148.086 51.3531L148.435 51.5393C149.086 51.8863 149.834 52.0047 150.56 51.8758L151.544 51.7007C151.621 51.687 151.678 51.6198 151.678 51.5413V46.6254C151.678 46.457 151.526 46.3295 151.361 46.3588L151.131 46.3996C149.819 46.6329 148.47 46.552 147.194 46.1633Z" fill="#B9B3B2"/>
<path d="M157.722 49.4365C157.722 48.7215 158.257 48.2178 158.969 48.2178C159.681 48.2178 160.216 48.7215 160.216 49.4365C160.216 50.1515 159.681 50.6553 158.969 50.6553C158.257 50.6553 157.722 50.1515 157.722 49.4365ZM160.863 49.4365C160.863 48.3803 160.054 47.6409 158.969 47.6409C157.884 47.6409 157.075 48.3803 157.075 49.4365C157.075 50.4928 157.884 51.2322 158.969 51.2322C160.054 51.2322 160.863 50.4928 160.863 49.4365ZM158.718 51.9472H158.054V54.2547H162.895V53.7103H158.718V51.9472ZM162.571 49.3472V47.129H161.908V52.4915H162.571V49.8997H163.648V49.3472H162.571Z" fill="#B9B3B2"/>
<path d="M166.337 48.3803H169.049V47.8278H165.673V52.6134H166.248C167.616 52.6134 168.572 52.5647 169.681 52.3534L169.608 51.8009C168.555 51.9878 167.624 52.0447 166.337 52.0447V48.3803ZM172.15 50.0053H170.952V47.129H170.288V54.4334H170.952V50.5578H172.15V50.0053Z" fill="#B9B3B2"/>
<path d="M173.226 47.9334H172.562V52.7353H173.113C174.367 52.7353 175.29 52.6784 176.343 52.4672L176.27 51.9147C175.274 52.1097 174.392 52.1747 173.226 52.1747V47.9334ZM177.484 47.129V48.8272H175.315V49.3715H177.484V50.4847H175.315V51.029H177.484V54.4253H178.148V47.129H177.484Z" fill="#B9B3B2"/>
<path d="M180.471 52.1503H179.807V54.2547H184.802V53.7103H180.471V52.1503ZM180.374 48.8028C180.374 48.2259 181.102 47.8847 182.252 47.8847C183.385 47.8847 184.114 48.2259 184.114 48.8028C184.114 49.3797 183.385 49.7128 182.252 49.7128C181.102 49.7128 180.374 49.3797 180.374 48.8028ZM182.584 51.0047V50.2409C183.936 50.1678 184.794 49.6397 184.794 48.8028C184.794 47.8928 183.798 47.3484 182.252 47.3484C180.689 47.3484 179.694 47.8928 179.694 48.8028C179.694 49.6478 180.552 50.1678 181.92 50.2409V51.0047H178.965V51.549H185.522V51.0047H182.584Z" fill="#B9B3B2"/>
<path d="M199.69 56.2744V46.0417C199.69 45.2938 200.294 44.6875 201.039 44.6875H207.785C208.53 44.6875 209.134 45.2938 209.134 46.0417V56.2744C209.134 56.8177 208.529 57.1397 208.081 56.8346L204.791 54.5939C204.562 54.4382 204.262 54.4382 204.033 54.5939L200.743 56.8346C200.295 57.1397 199.69 56.8177 199.69 56.2744Z" fill="#38AF6B"/>
<path d="M23.8143 17.6474C21.8039 16.9974 20.9674 15.4266 20.9674 13.8422V12.4881H19.1594V13.8287C19.1594 15.5349 18.2824 17.2006 16.191 17.8777L17.1355 19.2724C18.5522 18.7985 19.5372 17.8235 20.0904 16.5777C20.6301 17.7016 21.5476 18.5954 22.8968 19.0422L23.8143 17.6474ZM19.942 19.9902H18.161V23.9849H26.5938V22.5631H19.942V19.9902ZM26.162 15.3454V11.7297H24.381V20.8568H26.162V16.8214H27.8081V15.3454H26.162Z" fill="#A4A1A0"/>
<path d="M31.0588 17.6339H34.9446V16.2391H31.0588V14.2079H35.12V12.7589H29.2777V21.3849H30.3302C32.462 21.3849 34.1351 21.3308 36.024 21.0464L35.8621 19.6245C34.243 19.8683 32.8128 19.936 31.0588 19.9495V17.6339ZM40.3281 16.4558H38.5201V11.7297H36.7391V24.2152H38.5201V17.9318H40.3281V16.4558Z" fill="#A4A1A0"/>
<path d="M48.6385 17.6474C46.6281 16.9974 45.7916 15.4266 45.7916 13.8422V12.4881H43.9836V13.8287C43.9836 15.5349 43.1065 17.2006 41.0152 17.8777L41.9597 19.2724C43.3764 18.7985 44.3613 17.8235 44.9145 16.5777C45.4542 17.7016 46.3717 18.5954 47.721 19.0422L48.6385 17.6474ZM44.7661 19.9902H42.9851V23.9849H51.4179V22.5631H44.7661V19.9902ZM50.9862 15.3454V11.7297H49.2052V20.8568H50.9862V16.8214H52.6323V15.3454H50.9862Z" fill="#A4A1A0"/>
<path d="M64.2862 17.9995C62.5052 17.3631 61.3044 15.8193 61.3044 14.1537V12.6235H60.198V14.1266C60.198 16.0089 59.0242 17.6339 57.1757 18.2974L57.7559 19.1777C59.1996 18.636 60.279 17.5256 60.7782 16.0902C61.3179 17.3631 62.3703 18.3787 63.733 18.8797L64.2862 17.9995ZM60.225 20.0037H59.1186V23.7683H67.1467V22.861H60.225V20.0037ZM66.6204 15.6162V11.8787H65.5141V20.8568H66.6204V16.537H68.415V15.6162H66.6204Z" fill="#A4A1A0"/>
<path d="M71.2743 17.2954H75.538V16.4016H71.2743V13.8964H75.8078V12.9891H70.1679V21.1141H71.1124C73.3926 21.1141 74.9578 21.0329 76.8197 20.7079L76.7118 19.8141C74.9308 20.112 73.4196 20.2068 71.2743 20.2068V17.2954ZM80.9485 16.7672H78.9516V11.8922H77.8452V24.0256H78.9516V17.7016H80.9485V16.7672Z" fill="#A4A1A0"/>
<path d="M87.5318 23.1724C85.6158 23.1724 84.4959 22.712 84.4959 21.9131C84.4959 21.1006 85.6158 20.6402 87.5318 20.6402C89.4207 20.6402 90.5406 21.1006 90.5406 21.9131C90.5406 22.712 89.4207 23.1724 87.5318 23.1724ZM87.5318 19.787C84.9412 19.787 83.3761 20.5454 83.3761 21.9131C83.3761 23.2672 84.9412 24.0256 87.5318 24.0256C90.0954 24.0256 91.6605 23.2672 91.6605 21.9131C91.6605 20.5454 90.0954 19.787 87.5318 19.787ZM84.5904 14.4245H90.4731V15.8058H84.5904V14.4245ZM88.085 17.9724V16.686H91.566V12.2172H90.4731V13.5714H84.5904V12.2172H83.4975V16.686H86.9786V17.9724H82.0403V18.8797H92.9962V17.9724H88.085Z" fill="#A4A1A0"/>
<path d="M20.4574 50.8015C19.3888 50.4197 18.6683 49.4934 18.6683 48.494V47.5759H18.0044V48.4778C18.0044 49.6072 17.3001 50.5822 16.191 50.9803L16.5391 51.5084C17.4054 51.1834 18.053 50.5172 18.3525 49.6559C18.6764 50.4197 19.3078 51.029 20.1255 51.3297L20.4574 50.8015ZM18.0206 52.004H17.3568V54.2628H22.1736V53.7184H18.0206V52.004ZM21.8579 49.3715V47.129H21.1941V52.5159H21.8579V49.924H22.9346V49.3715H21.8579Z" fill="#B9B3B2"/>
<path d="M24.3264 50.379H26.8846V49.8428H24.3264V48.3397H27.0465V47.7953H23.6626V52.6703H24.2293C25.5974 52.6703 26.5365 52.6215 27.6537 52.4265L27.5889 51.8903C26.5203 52.069 25.6136 52.1259 24.3264 52.1259V50.379ZM30.1309 50.0622H28.9328V47.1372H28.2689V54.4172H28.9328V50.6228H30.1309V50.0622Z" fill="#B9B3B2"/>
<path d="M37.0438 50.7447H35.9671C36.1695 49.6965 36.1695 48.9247 36.1695 48.2422V47.6084H31.296V48.1447H35.5219V48.2422C35.5219 48.9247 35.5219 49.6965 35.2952 50.7447H30.4784V51.289H33.4089V54.4334H34.0809V51.289H37.0438V50.7447Z" fill="#B9B3B2"/>
<path d="M39.7423 46.7188H40.4169V54.8438H39.7423V46.7188Z" fill="#CECAC9"/>
<path d="M45.6008 52.2478H47.1875V53.7834H45.6008V52.2478ZM47.8433 52.2478H48.9523V51.7115H43.836V52.2478H44.9451V53.7834H43.7712V54.3197H49.0171V53.7834H47.8433V52.2478ZM46.7261 50.4522V49.5259H48.9362V48.9897H44.6617V47.2915H43.9979V49.5259H46.0622V50.4522H43.1155V50.9884H49.6809V50.4522H46.7261Z" fill="#B9B3B2"/>
<path d="M55.5091 47.129V54.4334H56.1729V47.129H55.5091ZM52.3437 47.6897C51.267 47.6897 50.498 48.6809 50.498 50.2328C50.498 51.7847 51.267 52.7759 52.3437 52.7759C53.4204 52.7759 54.1895 51.7847 54.1895 50.2328C54.1895 48.6809 53.4204 47.6897 52.3437 47.6897ZM52.3437 48.2909C53.0481 48.2909 53.55 49.0547 53.55 50.2328C53.55 51.419 53.0481 52.1828 52.3437 52.1828C51.6313 52.1828 51.1294 51.419 51.1294 50.2328C51.1294 49.0547 51.6313 48.2909 52.3437 48.2909Z" fill="#B9B3B2"/>
<path d="M61.5306 53.9508C62.6809 53.9508 63.5268 53.1216 63.5268 51.9791V51.9711C63.5268 50.8722 62.7283 50.0549 61.6571 50.0549C60.8863 50.0549 60.3487 50.4715 60.1392 50.9396H60.0641C60.0641 50.896 60.0641 50.8484 60.068 50.8047C60.1115 49.6106 60.5345 48.595 61.5701 48.595C62.1473 48.595 62.5465 48.8925 62.7204 49.3725L62.7362 49.4162H63.4517L63.4399 49.3646C63.2462 48.5196 62.5346 47.9562 61.578 47.9562C60.1945 47.9562 59.3842 49.0988 59.3842 51.0507V51.0586C59.3842 53.2129 60.487 53.9508 61.5306 53.9508ZM60.2341 51.9711V51.9672C60.2341 51.2213 60.7954 50.6778 61.5346 50.6778C62.2738 50.6778 62.8113 51.2253 62.8113 51.987V51.9949C62.8113 52.7368 62.2382 53.32 61.5227 53.32C60.7993 53.32 60.2341 52.7249 60.2341 51.9711Z" fill="#B9B3B2"/>
<path d="M66.2863 53.9111C67.4286 53.9111 68.2667 53.2049 68.2667 52.2488V52.2409C68.2667 51.4276 67.7014 50.9079 66.8713 50.8365V50.8206C67.5828 50.6699 68.0809 50.1858 68.0809 49.4797V49.4717C68.0809 48.6029 67.3654 47.9959 66.2783 47.9959C65.2111 47.9959 64.4758 48.6188 64.3849 49.5511L64.381 49.5907H65.0648L65.0688 49.5511C65.1281 48.9719 65.6064 48.6148 66.2783 48.6148C66.9741 48.6148 67.3654 48.9599 67.3654 49.559V49.5669C67.3654 50.1382 66.891 50.5588 66.2111 50.5588H65.5273V51.1618H66.2428C67.0413 51.1618 67.5433 51.5546 67.5433 52.2568V52.2647C67.5433 52.8717 67.0333 53.2922 66.2863 53.2922C65.5273 53.2922 65.0095 52.9034 64.9541 52.3401L64.9502 52.3004H64.2663L64.2703 52.348C64.3454 53.2526 65.1083 53.9111 66.2863 53.9111Z" fill="#B9B3B2"/>
<path d="M69.0971 53.8159H72.7891V53.1732H70.0853V53.1097L71.3818 51.7648C72.4135 50.6976 72.6942 50.2215 72.6942 49.5669V49.559C72.6942 48.6346 71.9313 47.9562 70.9352 47.9562C69.8442 47.9562 69.0615 48.6862 69.0575 49.7018L69.0655 49.7058L69.7453 49.7098L69.7493 49.7018C69.7493 49.0274 70.2039 48.5791 70.8877 48.5791C71.5597 48.5791 71.9669 49.0314 71.9669 49.6344V49.6423C71.9669 50.1422 71.7534 50.4397 71.0261 51.2292L69.0971 53.324V53.8159Z" fill="#B9B3B2"/>
<path d="M73.663 53.8159H74.3508V51.1658C74.3508 50.5627 74.7737 50.0748 75.3311 50.0748C75.8687 50.0748 76.2165 50.404 76.2165 50.9119V53.8159H76.9044V51.0666C76.9044 50.5231 77.2957 50.0748 77.8886 50.0748C78.4895 50.0748 78.778 50.3882 78.778 51.019V53.8159H79.4658V50.8603C79.4658 49.9637 78.9796 49.4638 78.11 49.4638C77.521 49.4638 77.0348 49.7613 76.8055 50.2136H76.7423C76.5446 49.7693 76.1414 49.4638 75.5643 49.4638C75.007 49.4638 74.6038 49.7296 74.414 50.1898H74.3508V49.5392H73.663V53.8159Z" fill="#B9B3B2"/>
<path d="M13.4926 39H212.507V40H13.4926V39Z" fill="#D4D1CF"/>
<rect x="0.5" y="0.5" width="225" height="64" rx="7.5" stroke="#A4A1A0"/>
<circle cx="210.41" cy="53.494" r="19.506" fill="#E5E3E2" stroke="#A4A1A0" stroke-width="2"/>
<path d="M205.001 61.1494V46.4718C205.001 45.9449 205.427 45.5227 205.945 45.5227H215.662C216.181 45.5227 216.606 45.9449 216.606 46.4718V61.1494L211.912 57.9549L211.349 58.7816L211.912 57.9549C211.243 57.4997 210.364 57.4997 209.695 57.9549L210.258 58.7816L209.695 57.9549L205.001 61.1494Z" fill="#38AF6B" stroke="#38AF6B" stroke-width="2"/>
<path d="M206.644 68.8724C205.803 67.4151 206.302 65.5518 207.76 64.7104L209.079 63.9487C210.536 63.1074 212.399 63.6067 213.241 65.0639L220.096 76.9375C219.255 75.4802 219.754 73.6169 221.211 72.7755L222.53 72.0138C223.988 71.1725 225.851 71.6718 226.692 73.129C225.851 71.6718 226.543 70.1619 228 69.3206L229.319 68.5589C230.777 67.7176 232.447 67.8633 233.289 69.3206L234.5 71C233.659 69.5428 234.47 68.6385 235.927 67.7972L237.247 67.0355C238.704 66.1942 240.567 66.6935 241.409 68.1507L246.881 77.6297C249.178 81.6077 250.035 86.255 249.309 90.7907L249.124 91.9464C248.744 94.3251 247.311 96.4056 245.225 97.6102L236.231 102.803C233.574 104.337 230.367 104.593 227.5 103.5L209.826 95.9714C208.2 95.5359 207.236 93.8652 207.671 92.2399L208.066 90.7684C208.501 89.1431 210.172 88.1785 211.797 88.6141L219.185 90.5937L206.644 68.8724Z" fill="#E5E3E2" stroke="#A4A1A0" stroke-width="2" stroke-linejoin="round"/>
<path d="M228 76L229.5 79" stroke="#A4A1A0" stroke-width="2" stroke-linecap="round" stroke-linejoin="round"/>
<path d="M236 74L237.5 77" stroke="#A4A1A0" stroke-width="2" stroke-linecap="round" stroke-linejoin="round"/>
</svg>
