<svg width="375" height="262" viewBox="0 0 375 262" fill="none" xmlns="http://www.w3.org/2000/svg">
<g clip-path="url(#clip0)">
<path d="M90.1667 192.912C90.1667 192.912 82.9 179.228 91.5567 142.097C100.213 104.967 121.27 121.278 122.833 138.51C123.833 149.524 127.517 157.807 137.833 157.2C143.5 156.866 152.647 141.664 154.5 109.473C156.353 77.2817 181.547 76.2804 186.533 92.0805C191.5 107.804 195.043 123.587 210.5 124.826C225.957 126.064 229.237 107.727 234.833 87.7784C240.557 67.3757 250.133 18.2466 289.083 26.9143C328.033 35.582 375.833 128.163 375.833 128.163L376.5 227.294C376.5 227.294 309.5 172.219 90.1667 192.912Z" fill="#FFE1CD"/>
<path d="M168.5 188.5C168.5 188.5 167.167 186.237 162.5 166.211C157.833 146.186 149.833 156.199 145.5 164.209C141.167 172.219 131.833 185.236 122.167 183.567C112.5 181.898 110.167 175.557 109.167 158.201C108.167 140.846 96.5001 142.181 93.5001 147.521C90.5001 152.861 91.1667 161.873 82.8334 162.54C74.5001 163.208 71.1667 151.192 69.8334 139.845C68.5001 128.497 65.5001 97.4573 44.5001 102.13C23.5001 106.803 -0.833252 157.534 -0.833252 157.534V211.602C-0.833252 211.602 22.5 193.84 168.5 188.5Z" fill="#007F36"/>
</g>
<g clip-path="url(#clip1)">
<path d="M375.333 226.121C375.333 226.121 359 211.436 342.333 206.096C325.667 200.755 275.333 183.066 268 180.396C260.667 177.726 230.333 166.045 223 170.05C215.667 174.055 208.667 188.74 205 201.089C201.333 213.438 193.333 238.47 197.667 253.155" fill="white"/>
<path d="M197.187 253.296C193.05 239.278 200.097 215.738 203.88 203.092C204.103 202.341 204.32 201.627 204.52 200.946C206.429 194.451 208.998 188.169 212.187 182.199C215.663 175.857 219.32 171.492 222.76 169.609C229.067 166.168 250.67 173.471 266.373 179.265L268.17 179.932C276.1 182.819 326.047 200.358 342.503 205.632C359.08 210.945 375.503 225.614 375.683 225.761L375.017 226.508C374.853 226.361 358.567 211.823 342.197 206.586C325.75 201.316 275.78 183.767 267.863 180.887C267.363 180.707 266.757 180.483 266.06 180.219C257.117 176.922 229.907 166.869 223.273 170.507C216.157 174.392 209.223 188.747 205.513 201.249L204.87 203.399C201.083 215.941 194.093 239.278 198.147 253.015L197.187 253.296Z" fill="#007F36"/>
<path d="M305.527 204.927C305.527 204.927 303 204.761 303.333 208.766C303.667 212.771 305.333 214.106 305.667 218.111C306 222.116 311.667 221.115 311 217.777L309.667 211.102L305.527 204.927Z" fill="#007F36"/>
<path d="M334.817 132.108L267 118.985C260.679 122.899 254.56 127.132 248.667 131.668C239.667 138.676 243.667 148.355 249 163.041C252.425 172.299 256.664 181.234 261.667 189.741C262.333 187.739 265.667 188.406 265.667 188.406C265.333 159.036 260.333 150.692 260.333 150.692C265.845 151.755 271.408 152.535 277 153.028C285.753 153.729 293.183 153.812 299.497 153.442C301.497 157.801 305.333 167.31 305.333 175.724C305.333 187.071 306 204.093 305.667 213.104C305.667 213.104 307.333 218.111 310.667 214.106C310.667 214.106 317 198.96 321.667 187.739C336.333 152.361 334.817 132.108 334.817 132.108Z" fill="white"/>
<path d="M308.22 216.158C308.084 216.159 307.947 216.147 307.813 216.122C306.053 215.788 305.227 213.365 305.193 213.261L305.163 213.178V213.084C305.363 207.667 305.2 199.237 305.04 191.083C304.937 185.743 304.83 180.236 304.83 175.73C304.83 167.72 301.357 158.785 299.163 153.966C291.761 154.317 284.343 154.171 276.96 153.529C270.357 152.998 263.687 151.83 261.223 151.373C262.49 154.243 265.89 164.179 266.167 188.4V189.017L265.563 188.897C265.533 188.897 262.653 188.343 262.133 189.898L261.8 190.923L261.24 190.002C256.227 181.461 251.974 172.495 248.53 163.208L247.91 161.502C242.8 147.484 239.427 138.226 248.36 131.27C254.269 126.725 260.404 122.481 266.74 118.554L266.907 118.454L267.093 118.491L335.287 131.687L335.317 132.068C335.317 132.278 335.683 137.295 334.237 146.73C332.903 155.408 329.723 169.606 322.13 187.929C317.53 199.02 311.19 214.146 311.13 214.296L311.103 214.366L311.053 214.423C310.093 215.578 309.143 216.158 308.22 216.158ZM306.17 213.028C306.39 213.625 307.063 214.963 308 215.137C308.667 215.26 309.403 214.823 310.237 213.842C310.71 212.707 316.767 198.249 321.203 187.545C328.75 169.342 331.917 155.247 333.24 146.63C334.457 138.733 334.39 133.867 334.337 132.525L267.097 119.509C265.81 120.303 257.2 125.653 248.973 132.058C240.613 138.57 243.89 147.554 248.847 161.158L249.47 162.867C252.797 171.828 256.877 180.49 261.667 188.76C262.577 187.759 264.257 187.759 265.16 187.832C264.96 173.12 263.56 163.912 262.413 158.755C261.153 153.081 259.917 150.969 259.903 150.949L259.33 149.981L260.43 150.201C265.923 151.262 271.467 152.042 277.04 152.537C285.317 153.205 292.86 153.342 299.467 152.951L299.8 152.931L299.94 153.242C302.137 158.054 305.823 167.373 305.823 175.734C305.823 180.236 305.93 185.746 306.033 191.086C306.203 199.183 306.367 207.577 306.17 213.028Z" fill="#007F36"/>
<path d="M340.667 105.968C340.256 103.068 339.7 100.191 339 97.3472C341.977 93.8394 341.843 88.4425 340.667 84.6077C339.333 80.2688 336.667 74.5949 336.667 74.5949L331.363 74.3279L331.333 74.2612L302.667 39.8841L293.333 44.8905C293.333 44.8905 292 49.8968 291 51.8994C290 53.9019 288 92.6178 288 92.6178L265.333 119.986C265.333 119.986 275 132.335 297.333 135.673C319.667 139.01 340.333 130.666 340.333 130.666C340.333 130.666 342.667 120.654 340.667 105.968Z" fill="#007F36"/>
<path d="M308.18 136.954C304.526 136.964 300.876 136.703 297.26 136.173C274.987 132.836 265.037 120.427 264.927 120.303L264.677 119.969L287.497 92.4209C287.74 87.7316 289.537 53.6817 290.54 51.6691C291.507 49.7366 292.823 44.8037 292.837 44.7536L292.893 44.5434L302.777 39.2433L331.633 73.8406L336.99 74.111L337.12 74.3813C337.147 74.4381 339.817 80.1386 341.143 84.4608C342.337 88.3424 342.527 93.7626 339.55 97.4774C340.267 100.481 340.81 103.321 341.163 105.905C343.163 120.51 340.83 130.683 340.83 130.783L340.77 131.037L340.53 131.134C340.333 131.2 325.853 136.951 308.18 136.954ZM266 119.983C267.667 121.895 277.52 132.205 297.42 135.179C318.06 138.263 337.517 131.21 339.913 130.296C340.247 128.647 341.973 119.172 340.183 106.035C339.773 103.152 339.216 100.291 338.517 97.464L338.457 97.217L338.623 97.0235C341.513 93.6158 341.29 88.2857 340.19 84.7545C339.047 81.0331 336.883 76.2604 336.34 75.0755L331.027 74.8119L330.903 74.5215L302.543 40.5182L293.76 45.2309C293.49 46.2155 292.353 50.3107 291.447 52.123C290.747 53.5448 289.3 77.1348 288.5 92.6446V92.8081L288.393 92.9383L266 119.983Z" fill="white"/>
<path d="M261.85 118.761C261.85 118.761 257.667 121.989 257 123.324C256.6 124.125 256.44 124.926 256.667 125.44C256.73 125.548 256.822 125.636 256.933 125.694C257.044 125.753 257.169 125.778 257.294 125.769C257.419 125.759 257.539 125.714 257.639 125.639C257.74 125.565 257.818 125.463 257.863 125.346C258.144 124.446 258.575 123.6 259.137 122.843C259.153 122.823 259.175 122.81 259.2 122.806C259.225 122.802 259.251 122.807 259.272 122.821C259.294 122.834 259.309 122.855 259.316 122.88C259.323 122.904 259.321 122.93 259.31 122.953C258.85 123.841 258.18 125.52 258.67 126.995C259.003 127.996 260.003 127.662 260.337 125.994C260.512 125.026 260.832 124.089 261.287 123.217C261.31 123.173 261.347 123.139 261.393 123.121C261.439 123.103 261.489 123.101 261.536 123.116C261.583 123.131 261.623 123.162 261.649 123.204C261.676 123.245 261.686 123.295 261.68 123.344C261.533 124.639 261.437 126.995 262.68 126.995C263.347 126.995 263.68 125.79 263.68 123.991C263.68 122.656 264.347 121.989 265.013 120.88C265.68 119.772 265.68 119.318 265.68 119.318L261.85 118.761Z" fill="white"/>
<path d="M259.25 128.06C258.773 128.06 258.383 127.726 258.193 127.152C258.072 126.783 258.006 126.398 257.997 126.01C257.796 126.185 257.542 126.286 257.277 126.297C257.052 126.307 256.83 126.248 256.639 126.129C256.448 126.01 256.297 125.836 256.207 125.63C255.833 124.772 256.263 123.671 256.54 123.09C257.237 121.692 261.093 118.691 261.54 118.354L261.707 118.224L266.14 118.871L266.163 119.282C266.163 119.452 266.12 119.969 265.423 121.127C265.28 121.364 265.14 121.581 265.003 121.795C264.517 122.539 264.163 123.077 264.163 123.984C264.163 126.881 263.347 127.489 262.663 127.489C262.479 127.491 262.296 127.453 262.127 127.378C261.958 127.302 261.808 127.191 261.687 127.052C261.323 126.644 261.123 125.954 261.093 124.986C260.99 125.319 260.897 125.703 260.82 126.084C260.587 127.255 260.007 128.006 259.31 128.05L259.25 128.06ZM259.213 122.306C259.332 122.305 259.448 122.34 259.547 122.406C259.671 122.487 259.76 122.612 259.797 122.756C259.835 122.899 259.818 123.052 259.75 123.183C259.337 123.988 258.707 125.52 259.14 126.838C259.161 126.923 259.207 127.001 259.27 127.062C259.347 127.045 259.677 126.728 259.843 125.897C260.029 124.878 260.366 123.892 260.843 122.973C260.921 122.825 261.048 122.708 261.202 122.644C261.357 122.58 261.529 122.573 261.688 122.624C261.847 122.674 261.984 122.78 262.073 122.921C262.163 123.063 262.199 123.231 262.177 123.397C261.977 125.166 262.177 126.104 262.437 126.401C262.465 126.435 262.501 126.462 262.541 126.48C262.582 126.498 262.626 126.507 262.67 126.504C262.737 126.504 263.17 126.037 263.17 124.001C263.17 122.796 263.657 122.049 264.17 121.261C264.3 121.064 264.433 120.857 264.57 120.633C264.745 120.348 264.9 120.05 265.033 119.742L262 119.285C260.757 120.26 257.943 122.583 257.46 123.547C257.127 124.238 256.987 124.902 257.127 125.236C257.135 125.257 257.15 125.274 257.169 125.285C257.189 125.296 257.211 125.3 257.233 125.296C257.268 125.296 257.301 125.285 257.329 125.265C257.357 125.246 257.378 125.218 257.39 125.186C257.688 124.224 258.149 123.321 258.753 122.516C258.81 122.449 258.88 122.395 258.96 122.359C259.039 122.323 259.126 122.304 259.213 122.306Z" fill="#007F36"/>
<path d="M309 65.9172C309.117 60.5771 308.333 50.2306 297 48.2281C284.333 45.9885 283.667 63.5809 282 76.9312C280.333 90.2816 278.333 93.9529 277.667 95.2879C277.667 95.2879 269.667 97.2905 261 118.317C261 118.317 259.667 120.654 264.667 119.986C269.667 119.319 287 105.968 297.667 92.6179C308.333 79.2675 308.87 71.9249 309 65.9172Z" fill="#007F36"/>
<path d="M263.077 120.607C261.793 120.607 260.967 120.316 260.573 119.729C260.426 119.484 260.346 119.204 260.342 118.918C260.337 118.632 260.409 118.349 260.55 118.1C268.503 98.8157 275.903 95.3713 277.313 94.874C278.053 93.4021 279.92 89.5506 281.503 76.8678C281.663 75.6028 281.81 74.2978 281.963 72.9728C283.017 63.7211 284.217 53.231 289.56 49.236C291.597 47.7174 294.127 47.2134 297.087 47.7341C305.553 49.2293 309.73 55.3504 309.5 65.9272H309H309.5C309.35 72.7959 308.363 80.0318 298.057 92.9315C287.61 106.005 270.143 119.759 264.723 120.483C264.178 120.559 263.628 120.6 263.077 120.607ZM261.433 118.564C261.433 118.564 261.24 118.935 261.403 119.172C261.513 119.332 262.07 119.839 264.6 119.489C269.22 118.875 286.403 105.911 297.267 92.3041C307.377 79.6513 308.347 72.5957 308.49 65.9072C308.707 55.8944 304.823 50.1171 296.903 48.722C294.187 48.2414 291.98 48.6719 290.15 50.057C285.15 53.7918 283.98 64.0515 282.947 73.0863C282.793 74.4213 282.643 75.723 282.487 76.9946C280.857 90.0345 278.903 93.9228 278.153 95.388L277.987 95.7218L277.763 95.7785C277.747 95.7785 275.79 96.3225 272.813 99.3764C270.057 102.207 265.843 107.82 261.44 118.511L261.41 118.567L261.433 118.564Z" fill="white"/>
<path d="M261.667 189.741C261.667 189.741 261.333 195.081 258.333 192.745C255.333 190.409 251.667 188.406 250.333 191.744C250.333 191.744 248.333 193.903 259.667 198.085C266 200.422 267 197.418 265.667 188.406C265.667 188.406 262.667 186.738 261.667 189.741Z" fill="#007F36"/>
<path d="M339.85 97.4573C339.81 97.2838 335.82 80.1253 330.98 75.2791L331.687 74.5715C336.73 79.6213 340.66 96.5161 340.823 97.2304L339.85 97.4573Z" fill="white"/>
<path d="M262 251.653H261C261 245.589 241.88 215.888 233.713 203.205C232.113 200.719 230.847 198.753 230.077 197.515C225.027 189.428 227.247 178.581 227.343 178.123L228.323 178.33C228.3 178.44 226.093 189.244 230.923 196.987C231.693 198.216 232.957 200.178 234.553 202.661C243.463 216.499 262 245.312 262 251.653Z" fill="#007F36"/>
<path d="M292.167 98.7924C292.167 98.7924 298.803 104.076 304.9 100.014L306.667 104.633C306.667 104.633 294.433 107.57 289.833 101.796L292.167 98.7924Z" fill="white"/>
<path d="M313.667 62.9134C313.667 62.9134 304 91.2828 305 99.6268C306 107.971 309.333 111.642 314 113.645C318.667 115.647 340.667 116.648 345.667 111.642C350.667 106.636 341.63 78.046 341.63 78.046L313.667 62.9134Z" fill="white"/>
<path d="M328.043 115.787C321.893 115.787 316.077 115.08 313.803 114.119C308.283 111.749 305.413 107.303 304.503 99.7002C303.503 91.3395 312.797 63.928 313.193 62.7665L313.383 62.2058L342.05 77.7122L342.113 77.9058C342.133 77.9792 344.397 85.1684 346.02 92.8748C348.223 103.368 348.227 109.806 346.02 112.009C343.247 114.773 335.41 115.787 328.043 115.787ZM313.95 63.6376C312.617 67.6594 304.597 92.0738 305.497 99.5667C306.373 106.869 308.973 110.944 314.197 113.184C318.917 115.21 340.573 116.034 345.313 111.288C349.207 107.39 343.73 86.4099 341.213 78.3897L313.95 63.6376Z" fill="#007F36"/>
<path d="M313.667 62.9134C313.667 62.9134 317.333 56.7022 336.507 63.4774C336.507 63.4774 342.333 68.2535 342.667 73.9274C343 79.6013 340.333 81.2701 333.667 80.6026C327 79.9351 323.333 78.6 319.667 74.2612C316 69.9223 318 62.9134 313.667 62.9134Z" fill="white"/>
<path d="M336.18 81.2434C335.407 81.2434 334.553 81.1933 333.617 81.0998C327.223 80.459 323.25 79.2775 319.283 74.5849C317.577 72.5623 317.053 70.0591 316.593 67.853C316.003 65.0194 315.593 63.414 313.667 63.414H312.79L313.237 62.6564C313.397 62.3894 317.347 56.1715 336.673 63.0068L336.757 63.0369L336.823 63.0903C337.067 63.2905 342.823 68.0733 343.157 73.8974C343.317 76.6208 342.823 78.4431 341.577 79.6313C340.453 80.7227 338.74 81.2434 336.18 81.2434ZM314.72 62.5529C316.63 63.1236 317.09 65.3298 317.573 67.6461C318.01 69.7354 318.503 72.1051 320.05 73.9341C323.403 77.9024 326.717 79.401 333.717 80.1019C337.383 80.469 339.663 80.1019 340.893 78.9071C341.893 77.9358 342.31 76.3605 342.167 73.9541C341.87 68.8743 336.883 64.452 336.253 63.918C321.787 58.8182 316.377 61.2679 314.72 62.5563V62.5529Z" fill="#007F36"/>
<path d="M333 79.0439C333.133 78.4665 334.227 78.7502 335.363 78.847C336.5 78.9438 335.27 81.2033 336.403 83.0156C337.537 84.8279 334.223 85.0182 333.693 84.2672C333.163 83.5162 332.44 81.4069 333 79.0439Z" fill="#007F36"/>
<path d="M311.777 105.998C310.798 105.953 309.853 105.623 309.057 105.05C308.946 104.977 308.869 104.862 308.843 104.732C308.817 104.602 308.843 104.467 308.917 104.356C308.99 104.245 309.104 104.169 309.234 104.142C309.364 104.116 309.5 104.142 309.61 104.216C310.507 104.813 311.757 105.281 312.59 104.803C313.423 104.326 313.793 102.951 313.667 100.825C313.333 95.151 317.18 77.0914 317.333 76.3271C317.347 76.2627 317.373 76.2015 317.41 76.1472C317.447 76.0929 317.495 76.0464 317.55 76.0105C317.605 75.9745 317.667 75.9498 317.731 75.9377C317.796 75.9256 317.862 75.9263 317.927 75.9399C317.991 75.9535 318.052 75.9797 318.106 76.0169C318.161 76.0541 318.207 76.1016 318.243 76.1568C318.279 76.212 318.304 76.2737 318.316 76.3384C318.328 76.4031 318.327 76.4696 318.313 76.534C318.273 76.7209 314.313 95.2245 314.647 100.765C314.797 103.331 314.267 104.984 313.067 105.671C312.673 105.891 312.228 106.003 311.777 105.998Z" fill="#007F36"/>
<path d="M217.04 175.376C216.983 175.27 211.34 164.466 213.003 149.136L214.003 149.243C212.373 164.262 217.873 174.802 217.93 174.906L217.04 175.376Z" fill="#007F36"/>
<path d="M214.167 149.69C216.1 149.69 217.667 148.121 217.667 146.186C217.667 144.251 216.1 142.682 214.167 142.682C212.234 142.682 210.667 144.251 210.667 146.186C210.667 148.121 212.234 149.69 214.167 149.69Z" fill="#FC7459"/>
<path d="M214.62 166.425C214.62 166.425 214.913 162.577 217.983 160.014C220.25 158.121 221.82 154.977 222.487 153.455C222.508 153.403 222.547 153.359 222.597 153.331C222.646 153.303 222.704 153.293 222.76 153.302C222.816 153.31 222.868 153.338 222.907 153.38C222.945 153.422 222.969 153.475 222.973 153.532C223.22 155.701 223.577 161.042 221.567 163.858C219 167.446 214.62 166.425 214.62 166.425Z" fill="#007F36"/>
<path d="M213 159.039C213 159.039 209.043 159.403 207.05 155.812C206.531 154.825 206.368 153.69 206.59 152.597C206.601 152.54 206.633 152.488 206.679 152.452C206.725 152.415 206.782 152.397 206.84 152.399C206.899 152.401 206.955 152.423 206.998 152.463C207.041 152.502 207.069 152.556 207.077 152.614C207.237 153.792 207.787 155.284 209.53 155.565C212.503 156.062 213 159.039 213 159.039Z" fill="#007F36"/>
<path d="M359.793 226.955L358.91 226.485C358.967 226.381 364.467 215.828 362.837 200.822L363.837 200.715C365.493 216.032 359.85 226.835 359.793 226.955Z" fill="#007F36"/>
<path d="M362.667 201.256C364.6 201.256 366.167 199.687 366.167 197.752C366.167 195.816 364.6 194.247 362.667 194.247C360.734 194.247 359.167 195.816 359.167 197.752C359.167 199.687 360.734 201.256 362.667 201.256Z" fill="#FC7459"/>
<path d="M362.214 217.991C362.214 217.991 361.92 214.142 358.85 211.579C356.584 209.687 355.013 206.543 354.347 205.021C354.325 204.968 354.286 204.924 354.237 204.896C354.187 204.869 354.129 204.858 354.073 204.867C354.017 204.876 353.965 204.904 353.927 204.945C353.888 204.987 353.865 205.041 353.86 205.098C353.613 207.267 353.257 212.607 355.267 215.424C357.827 219.012 362.214 217.991 362.214 217.991Z" fill="#007F36"/>
<path d="M363.833 210.601C363.833 210.601 367.79 210.965 369.783 207.374C370.302 206.388 370.465 205.252 370.243 204.16C370.234 204.102 370.204 204.05 370.159 204.012C370.115 203.974 370.058 203.953 370 203.953C369.942 203.953 369.885 203.974 369.84 204.012C369.796 204.05 369.766 204.102 369.757 204.16C369.597 205.338 369.047 206.83 367.303 207.11C364.333 207.627 363.833 210.601 363.833 210.601Z" fill="#007F36"/>
<path d="M270.797 116.351C267.959 116.299 265.189 115.481 262.777 113.985L263.333 113.144C263.38 113.174 267.847 116.098 272.91 115.146L273.097 116.128C272.339 116.275 271.569 116.35 270.797 116.351Z" fill="white"/>
<path d="M278.333 98.7924C278.221 98.7926 278.113 98.7553 278.024 98.6863C277.936 98.6173 277.874 98.5207 277.847 98.4119C276.973 94.9141 277.387 94.2933 277.847 94.1431C277.953 94.1075 278.068 94.1085 278.173 94.146C278.278 94.1834 278.368 94.2551 278.428 94.3497C278.488 94.4442 278.514 94.5561 278.503 94.6675C278.492 94.7789 278.444 94.8833 278.367 94.9642C278.33 95.1144 278.237 95.8219 278.823 98.1716C278.855 98.3008 278.834 98.4371 278.765 98.5509C278.696 98.6647 278.585 98.7466 278.457 98.779C278.416 98.7887 278.375 98.7932 278.333 98.7924Z" fill="white"/>
<path d="M307.363 129.939C305.917 129.939 304.454 129.903 302.977 129.832C283.937 128.894 271.457 117.817 271.333 117.686C271.235 117.598 271.176 117.474 271.169 117.342C271.163 117.21 271.208 117.08 271.297 116.982C271.385 116.884 271.509 116.825 271.641 116.818C271.773 116.811 271.902 116.857 272 116.945C272.123 117.052 284.353 127.913 303.023 128.831C323.023 129.815 340.657 123.584 340.83 123.52C340.893 123.493 340.961 123.478 341.03 123.478C341.098 123.478 341.166 123.492 341.229 123.519C341.292 123.547 341.349 123.587 341.396 123.637C341.443 123.687 341.479 123.747 341.502 123.812C341.525 123.876 341.535 123.945 341.53 124.014C341.525 124.083 341.506 124.15 341.474 124.211C341.442 124.272 341.398 124.325 341.345 124.369C341.291 124.412 341.23 124.443 341.163 124.462C341 124.522 325.687 129.939 307.363 129.939Z" fill="white"/>
<path d="M335.423 132.629C335.346 132.628 335.27 132.61 335.201 132.576C335.131 132.541 335.071 132.491 335.024 132.43C334.978 132.368 334.946 132.296 334.931 132.22C334.916 132.144 334.92 132.066 334.94 131.991C335.458 129.99 335.612 127.912 335.393 125.857C335.385 125.791 335.389 125.724 335.406 125.66C335.423 125.596 335.452 125.536 335.493 125.483C335.533 125.431 335.583 125.386 335.64 125.353C335.698 125.32 335.761 125.298 335.827 125.289C335.892 125.281 335.959 125.285 336.023 125.302C336.087 125.319 336.147 125.349 336.2 125.389C336.252 125.429 336.297 125.479 336.33 125.537C336.363 125.594 336.385 125.658 336.393 125.723C336.638 127.915 336.475 130.133 335.913 132.265C335.883 132.371 335.819 132.465 335.73 132.53C335.642 132.596 335.534 132.631 335.423 132.629Z" fill="white"/>
<path d="M333.477 133.139C333.43 133.139 333.383 133.133 333.337 133.123C333.211 133.083 333.106 132.996 333.044 132.88C332.981 132.764 332.967 132.629 333.003 132.502C333.522 130.501 333.675 128.423 333.457 126.367C333.439 126.235 333.475 126.1 333.556 125.994C333.637 125.888 333.757 125.818 333.89 125.8C334.023 125.782 334.157 125.818 334.263 125.9C334.369 125.981 334.439 126.101 334.457 126.234C334.7 128.426 334.537 130.643 333.977 132.776C333.946 132.884 333.88 132.978 333.79 133.044C333.699 133.11 333.589 133.144 333.477 133.139Z" fill="white"/>
<path d="M323.667 135.629C323.584 135.629 323.503 135.608 323.431 135.569C323.358 135.53 323.297 135.474 323.251 135.405C323.206 135.337 323.178 135.258 323.17 135.176C323.162 135.094 323.175 135.011 323.207 134.935C324.011 132.879 324.462 130.701 324.54 128.493C324.541 128.361 324.594 128.235 324.688 128.142C324.781 128.048 324.908 127.996 325.04 127.996C325.106 127.997 325.171 128.01 325.231 128.036C325.292 128.061 325.347 128.098 325.393 128.145C325.439 128.192 325.475 128.247 325.5 128.308C325.525 128.369 325.537 128.434 325.537 128.5C325.466 130.838 324.991 133.146 324.133 135.322C324.095 135.414 324.03 135.492 323.947 135.547C323.864 135.602 323.766 135.63 323.667 135.629Z" fill="white"/>
<path d="M321.667 135.873C321.6 135.874 321.535 135.861 321.473 135.836C321.412 135.81 321.356 135.772 321.309 135.725C321.262 135.677 321.225 135.62 321.2 135.558C321.175 135.496 321.163 135.43 321.164 135.363C321.165 135.296 321.18 135.23 321.207 135.169C322.012 133.112 322.462 130.934 322.54 128.727C322.542 128.595 322.595 128.469 322.689 128.376C322.782 128.283 322.908 128.231 323.04 128.23C323.173 128.232 323.3 128.286 323.393 128.381C323.486 128.476 323.538 128.604 323.537 128.737C323.465 131.074 322.991 133.381 322.133 135.556C322.097 135.65 322.033 135.731 321.95 135.788C321.866 135.844 321.767 135.874 321.667 135.873Z" fill="white"/>
<path d="M311 136.677C310.932 136.677 310.866 136.663 310.803 136.637C310.742 136.611 310.686 136.574 310.639 136.526C310.592 136.478 310.555 136.421 310.531 136.359C310.506 136.297 310.495 136.23 310.496 136.164C310.498 136.097 310.513 136.031 310.54 135.97C311.345 133.942 311.796 131.792 311.873 129.612C311.873 129.546 311.886 129.481 311.912 129.42C311.937 129.359 311.974 129.304 312.021 129.258C312.068 129.211 312.124 129.175 312.185 129.15C312.246 129.126 312.311 129.113 312.377 129.114C312.442 129.115 312.507 129.128 312.568 129.154C312.628 129.179 312.683 129.216 312.729 129.263C312.775 129.31 312.812 129.366 312.837 129.426C312.861 129.487 312.874 129.553 312.873 129.618C312.802 131.93 312.327 134.212 311.47 136.36C311.433 136.455 311.369 136.536 311.285 136.592C311.201 136.649 311.101 136.679 311 136.677Z" fill="white"/>
<path d="M309 136.677C308.932 136.677 308.866 136.663 308.803 136.637C308.742 136.611 308.686 136.573 308.639 136.526C308.592 136.478 308.555 136.421 308.531 136.359C308.506 136.297 308.494 136.23 308.496 136.163C308.498 136.097 308.512 136.031 308.54 135.97C309.345 133.942 309.796 131.792 309.873 129.612C309.873 129.479 309.926 129.351 310.02 129.258C310.113 129.164 310.241 129.111 310.373 129.111C310.506 129.111 310.633 129.164 310.727 129.258C310.821 129.351 310.873 129.479 310.873 129.612C310.802 131.924 310.327 134.205 309.47 136.353C309.434 136.449 309.37 136.532 309.286 136.59C309.202 136.648 309.102 136.678 309 136.677Z" fill="white"/>
<path d="M296.29 135.763C296.159 135.764 296.033 135.713 295.939 135.621C295.845 135.529 295.792 135.403 295.79 135.272C295.73 132.078 297.01 128.974 297.063 128.844C297.087 128.782 297.124 128.725 297.17 128.677C297.216 128.629 297.272 128.591 297.333 128.565C297.394 128.539 297.46 128.525 297.527 128.525C297.594 128.524 297.66 128.537 297.721 128.563C297.783 128.589 297.838 128.626 297.885 128.674C297.932 128.721 297.969 128.777 297.994 128.839C298.018 128.901 298.03 128.968 298.029 129.034C298.028 129.101 298.014 129.167 297.987 129.228C297.987 129.258 296.733 132.275 296.79 135.252C296.791 135.318 296.78 135.383 296.756 135.444C296.732 135.506 296.696 135.562 296.651 135.609C296.605 135.656 296.551 135.694 296.491 135.721C296.43 135.747 296.366 135.761 296.3 135.763H296.29Z" fill="white"/>
<path d="M298.21 136.153C298.079 136.153 297.953 136.102 297.86 136.01C297.766 135.918 297.713 135.794 297.71 135.663C297.65 132.472 298.93 129.365 298.987 129.234C299.043 129.121 299.141 129.033 299.26 128.988C299.379 128.944 299.511 128.947 299.628 128.996C299.745 129.045 299.839 129.137 299.891 129.254C299.943 129.37 299.948 129.501 299.907 129.622C299.907 129.652 298.653 132.669 298.71 135.629C298.711 135.695 298.7 135.76 298.676 135.822C298.652 135.883 298.616 135.939 298.571 135.986C298.525 136.034 298.471 136.072 298.411 136.098C298.35 136.124 298.286 136.139 298.22 136.14L298.21 136.153Z" fill="white"/>
<path d="M283.56 132.956C283.53 132.959 283.5 132.959 283.47 132.956C283.405 132.945 283.344 132.921 283.288 132.885C283.233 132.85 283.185 132.804 283.148 132.75C283.111 132.695 283.085 132.634 283.071 132.57C283.058 132.506 283.057 132.44 283.07 132.375C283.693 129.007 285.633 125.823 285.713 125.7C285.783 125.587 285.894 125.506 286.023 125.475C286.152 125.444 286.288 125.465 286.402 125.535C286.515 125.604 286.596 125.716 286.627 125.845C286.658 125.974 286.636 126.111 286.567 126.224C286.547 126.257 284.64 129.388 284.053 132.565C284.027 132.677 283.964 132.776 283.874 132.846C283.785 132.917 283.674 132.956 283.56 132.956Z" fill="white"/>
<path d="M285.403 133.503C285.372 133.506 285.341 133.506 285.31 133.503C285.18 133.479 285.065 133.404 284.991 133.295C284.916 133.187 284.887 133.053 284.91 132.922C285.533 129.555 287.473 126.371 287.557 126.247C287.626 126.135 287.738 126.054 287.866 126.023C287.995 125.993 288.131 126.014 288.243 126.084C288.299 126.118 288.348 126.163 288.387 126.216C288.425 126.269 288.453 126.329 288.468 126.393C288.483 126.457 288.486 126.524 288.475 126.589C288.465 126.653 288.441 126.715 288.407 126.771C288.39 126.805 286.483 129.935 285.893 133.113C285.868 133.224 285.806 133.323 285.717 133.394C285.628 133.465 285.517 133.504 285.403 133.503Z" fill="white"/>
<path d="M272.743 127.602H272.653C272.523 127.579 272.407 127.504 272.332 127.395C272.256 127.287 272.227 127.152 272.25 127.022C272.867 123.684 274.797 120.52 274.877 120.386C274.946 120.273 275.058 120.192 275.187 120.161C275.316 120.13 275.452 120.152 275.565 120.221C275.678 120.291 275.759 120.402 275.79 120.532C275.821 120.661 275.799 120.797 275.73 120.91C275.71 120.944 273.817 124.048 273.237 127.202C273.212 127.315 273.15 127.416 273.06 127.489C272.971 127.562 272.859 127.602 272.743 127.602Z" fill="white"/>
<path d="M274.333 128.994C274.302 128.997 274.271 128.997 274.24 128.994C274.11 128.97 273.995 128.895 273.921 128.786C273.846 128.677 273.817 128.543 273.84 128.413C274.447 125.106 276.153 121.134 276.223 120.967C276.276 120.845 276.374 120.749 276.497 120.699C276.62 120.65 276.758 120.651 276.88 120.704C277.002 120.756 277.098 120.854 277.148 120.978C277.197 121.101 277.196 121.239 277.143 121.361C277.143 121.401 275.41 125.4 274.81 128.594C274.787 128.704 274.728 128.804 274.642 128.877C274.555 128.95 274.446 128.991 274.333 128.994Z" fill="white"/>
<path d="M294.583 22.0547C294.583 22.0547 292.333 25.8663 293.667 32.8752L299.143 27.9255C297.757 25.8683 296.233 23.9069 294.583 22.0547Z" fill="white"/>
<path d="M293.333 33.8431L293.167 32.9686C291.813 25.8563 294.047 21.9546 294.143 21.8011L294.477 21.2137L294.93 21.7177C296.596 23.5911 298.137 25.5736 299.54 27.6519L299.773 28.009L293.333 33.8431ZM294.707 22.9592C294.197 24.2175 293.293 27.2981 293.997 31.8939L298.477 27.8455C297.313 26.1497 296.058 24.5185 294.717 22.9592H294.707Z" fill="#007F36"/>
<path d="M297.733 26.7307C297.733 26.7307 292.667 29.2039 290 34.544C287.333 39.8841 286.333 48.2281 289.333 47.5605C292.333 46.893 300 40.8854 302.333 42.2204C304.667 43.5555 307 54.9032 312.333 61.2446C317.667 67.586 325.733 77.265 335.667 75.93C340.667 75.2625 334.333 68.5873 334.667 65.5835C335 62.5797 338 63.2472 340.333 63.5809C342.667 63.9147 346.333 65.9172 348.667 63.5809C351 61.2446 353.333 55.9045 347.333 50.8981C341.333 45.8918 329.52 43.0548 322.927 29.4475L297.733 26.7307Z" fill="#FC7459"/>
<path d="M302.833 9.34524C302.833 9.34524 299.5 6.00766 295.5 8.67773C291.5 11.3478 292.833 17.6892 295.167 23.0293C297.5 28.3694 309.427 37.3809 319.833 35.3784C326.833 34.0433 321.5 24.6981 318.167 21.6943C314.833 18.6905 302.833 9.34524 302.833 9.34524Z" fill="white"/>
<path d="M316.8 36.156C312.83 36.156 308.467 34.861 304.22 32.3845C299.797 29.8013 295.973 26.1232 294.71 23.2296C292.86 19.0008 290.47 11.4346 295.223 8.26051C299.32 5.52704 302.817 8.64434 303.16 8.96474C303.707 9.39195 315.257 18.3967 318.493 21.3138C320.88 23.4599 324.62 29.1671 323.583 32.8818C323.277 33.9799 322.393 35.3884 319.917 35.859C318.889 36.0562 317.846 36.1556 316.8 36.156ZM298.72 8.14036C297.665 8.15426 296.639 8.48698 295.777 9.09491C293.997 10.2831 291.613 13.644 295.623 22.829C297.703 27.5851 307.51 35.1547 316.797 35.1581C317.784 35.1602 318.769 35.0697 319.74 34.8877C321.343 34.5807 322.287 33.8397 322.627 32.6215C323.463 29.6177 320.293 24.2776 317.833 22.0647C314.55 19.1076 302.647 9.83251 302.527 9.73906L302.48 9.69901C301.457 8.74052 300.121 8.18665 298.72 8.14036Z" fill="#007F36"/>
<path d="M304.333 9.51211C304.333 9.51211 310.887 7.90339 316.333 12.5159C320.667 16.1873 317.333 23.1962 317.333 23.1962L311.333 23.5299L304.333 16.521V9.51211Z" fill="white"/>
<path d="M311.137 24.0306L303.833 16.728V9.11827L304.213 9.02482C304.493 8.95807 311.08 7.40943 316.657 12.1321C318.563 13.7508 319.36 16.2273 318.953 19.2979C318.761 20.7184 318.367 22.1041 317.783 23.4131L317.667 23.6968L311.137 24.0306ZM304.833 16.3141L311.53 23.0293L316.997 22.7222C317.527 21.444 319.54 15.8969 315.997 12.9098C311.54 9.13162 306.263 9.69234 304.82 9.93598L304.833 16.3141Z" fill="#007F36"/>
<path d="M303.81 8.9614C303.596 8.99609 303.4 9.09915 303.25 9.25511C302.25 10.2898 298.863 14.5952 302.333 21.5274C305.13 27.1278 311.69 28.0857 315.807 28.4629C316.046 28.4849 316.284 28.4201 316.48 28.2804C316.675 28.1407 316.813 27.9354 316.87 27.7019L317.87 23.5767C317.904 23.4355 317.907 23.2886 317.879 23.1461C317.851 23.0036 317.792 22.8689 317.707 22.7514C317.622 22.6339 317.512 22.5364 317.385 22.4657C317.259 22.3949 317.118 22.3527 316.973 22.3418C314.217 22.1148 307.493 20.436 305.64 9.65895C305.596 9.39822 305.451 9.16554 305.236 9.01172C305.021 8.85789 304.754 8.79541 304.493 8.83791L303.81 8.9614Z" fill="#FC7459"/>
</g>
<defs>
<clipPath id="clip0">
<rect width="375" height="262" fill="white"/>
</clipPath>
<clipPath id="clip1">
<rect width="375" height="262" fill="white"/>
</clipPath>
</defs>
</svg>
