<svg width="375" height="140" viewBox="0 0 375 140" fill="none" xmlns="http://www.w3.org/2000/svg">
<g clip-path="url(#clip0)">
<path d="M114 0H429V140H114V0Z" fill="#4BA36F"/>
<path d="M114 32C114 14.3269 128.327 0 146 0H397C414.673 0 429 14.3269 429 32V140H114V32Z" fill="#007F36"/>
<g clip-path="url(#clip1)">
<path d="M237.401 137.195C237.401 137.195 240.782 122.93 234.991 115.879C229.636 109.35 226.144 101.778 224.738 95.8921C224.423 94.5804 222.526 94.7444 222.445 96.1004C222.138 101.203 222.842 108.839 226.531 119.58C230.824 132.084 235.012 134.012 237.401 137.195Z" fill="#106933"/>
<path d="M247.749 116.566C247.749 116.566 250.494 115.632 251.169 113.44C251.844 111.247 250.723 109.27 249.886 108.357C249.048 107.443 248.61 108.604 248.61 108.604C248.61 108.604 248.61 107.948 247.83 107.694C247.049 107.44 244.302 109.081 243.797 111.301C243.293 113.522 244.771 115.802 244.771 115.802L247.749 116.566Z" fill="#FFC440"/>
<path d="M236.911 139.961L237.816 139.876C235.814 118.28 238.735 102.508 238.774 102.352L237.88 102.179C237.85 102.336 234.894 118.237 236.911 139.961Z" fill="#36C06E"/>
<path d="M236.718 137.372L237.436 136.819C227.483 123.481 228.375 110.706 228.387 110.585L227.48 110.511C227.477 110.637 226.565 123.758 236.718 137.372Z" fill="#36C06E"/>
<path d="M237.371 135.635C244.312 128.239 246.583 117.253 246.604 117.142L245.712 116.96C245.691 117.066 243.468 127.801 236.709 134.996L237.371 135.635Z" fill="#36C06E"/>
<path d="M236.926 137.41C236.926 137.41 237.385 128.228 227.379 120.156C223.109 116.712 220.46 113.269 218.828 110.451C218.307 109.554 216.931 110.077 217.121 111.106C217.794 114.756 218.997 119.375 221.135 123.873C225.726 133.514 231.235 134.904 236.926 137.41Z" fill="#0D562A"/>
<path d="M241.078 101.011C241.078 101.011 245.373 98.6434 245.861 94.7952C246.35 90.947 243.914 87.9874 242.249 86.7052C240.584 85.423 240.195 87.4939 240.195 87.4939C240.195 87.4939 240 86.4101 238.634 86.2117C237.268 86.0133 233.166 89.5664 232.971 93.4146C232.776 97.2629 235.892 100.616 235.892 100.616L241.078 101.011Z" fill="#FC892B"/>
<path d="M238.467 103.628C239.05 103.653 241.818 103.612 242.551 100.637C242.579 100.515 242.582 100.388 242.56 100.264C242.537 100.14 242.49 100.022 242.422 99.9174C242.353 99.8124 242.265 99.7226 242.161 99.6533C242.057 99.5839 241.94 99.5366 241.818 99.5141C241.198 99.396 240.335 99.3501 239.527 99.6993C239.359 99.7787 239.172 99.8055 238.99 99.7763C238.807 99.747 238.638 99.6631 238.503 99.5354C238.11 99.1358 237.628 98.8373 237.097 98.6647C236.566 98.4921 236.002 98.4505 235.452 98.5434C235.229 98.5801 235.027 98.6982 234.885 98.8752C234.742 99.0523 234.668 99.2761 234.678 99.5042C234.732 100.665 235.257 102.784 238.263 103.593C238.329 103.612 238.398 103.624 238.467 103.628Z" fill="#36C06E"/>
<path d="M239.835 86.2887C239.835 86.2887 239.595 83.0373 237.906 83.1176C236.216 83.198 239.394 85.2721 239.835 86.2887Z" fill="#FFC440"/>
<path d="M240.195 86.3281C240.195 86.3281 240.43 83.0783 242.12 83.1603C243.809 83.2423 240.632 85.3132 240.195 86.3281Z" fill="#FFC440"/>
<path d="M229.648 109.198C229.648 109.198 232.541 106.94 232.453 104.044C232.366 101.149 230.221 99.255 228.846 98.5073C227.472 97.7596 227.425 99.3271 227.425 99.3271C227.425 99.3271 227.155 98.5499 226.127 98.568C225.098 98.586 222.485 101.683 222.789 104.554C223.092 107.425 225.791 109.516 225.791 109.516L229.648 109.198Z" fill="#FFC440"/>
<path d="M228.025 111.439C228.457 111.388 230.495 111.029 230.688 108.749C230.695 108.655 230.683 108.56 230.653 108.471C230.623 108.382 230.575 108.3 230.512 108.23C230.45 108.161 230.374 108.104 230.289 108.065C230.204 108.026 230.113 108.005 230.019 108.002C229.436 107.969 228.855 108.112 228.351 108.411C228.237 108.489 228.102 108.53 227.964 108.53C227.826 108.53 227.692 108.489 227.577 108.411C227.242 108.164 226.853 108.001 226.443 107.937C226.033 107.872 225.613 107.908 225.22 108.04C225.058 108.093 224.921 108.204 224.835 108.352C224.75 108.5 224.721 108.675 224.754 108.844C224.929 109.695 225.565 111.2 227.874 111.434C227.924 111.441 227.975 111.443 228.025 111.439Z" fill="#36C06E"/>
<path d="M227.022 98.486C227.022 98.486 226.466 96.1168 225.237 96.3775C224.009 96.6382 226.578 97.7892 227.022 98.486Z" fill="#FC892B"/>
<path d="M227.287 98.4745C227.287 98.4745 227.088 96.0479 228.342 95.9068C229.596 95.7658 227.496 97.6727 227.287 98.4745Z" fill="#FC892B"/>
<path d="M245.962 117.813C246.298 117.888 247.918 118.15 248.646 116.501C248.675 116.432 248.69 116.358 248.69 116.284C248.69 116.209 248.675 116.135 248.646 116.067C248.617 115.998 248.575 115.936 248.522 115.884C248.468 115.833 248.405 115.793 248.336 115.766C247.907 115.59 247.436 115.545 246.981 115.637C246.876 115.666 246.765 115.662 246.662 115.627C246.558 115.592 246.468 115.526 246.402 115.438C246.213 115.165 245.963 114.94 245.671 114.785C245.379 114.629 245.054 114.546 244.724 114.543C244.59 114.54 244.459 114.587 244.357 114.675C244.255 114.764 244.188 114.887 244.171 115.022C244.083 115.704 244.171 116.998 245.844 117.778C245.882 117.794 245.922 117.805 245.962 117.813Z" fill="#36C06E"/>
<path d="M248.521 107.848C248.521 107.848 248.711 105.928 247.719 105.8C246.728 105.673 248.367 107.211 248.521 107.848Z" fill="#FC892B"/>
<path d="M248.724 107.907C248.724 107.907 249.194 106.038 250.171 106.268C251.148 106.497 249.084 107.361 248.724 107.907Z" fill="#FC892B"/>
<path d="M236.932 137.39C236.932 137.39 244.802 136.444 248.3 128.044C250.223 123.432 251.878 121.01 252.987 119.767C253.094 119.65 253.16 119.499 253.173 119.34C253.186 119.18 253.145 119.021 253.058 118.888C252.97 118.754 252.841 118.654 252.691 118.604C252.54 118.554 252.378 118.556 252.229 118.611C250.984 119.062 249.345 120.278 247.676 123.315C244.24 129.562 237.307 132.592 236.932 137.39Z" fill="#0D562A"/>
</g>
<g clip-path="url(#clip2)">
<path d="M370.298 137.195C370.298 137.195 373.68 122.93 367.889 115.879C362.534 109.35 359.042 101.778 357.635 95.8921C357.32 94.5804 355.423 94.7444 355.342 96.1004C355.036 101.203 355.74 108.839 359.428 119.58C363.722 132.084 367.91 134.012 370.298 137.195Z" fill="#106933"/>
<path d="M369.808 139.961L370.714 139.876C368.711 118.28 371.632 102.508 371.671 102.352L370.777 102.179C370.748 102.336 367.791 118.237 369.808 139.961Z" fill="#36C06E"/>
<path d="M369.615 137.372L370.334 136.819C360.38 123.481 361.273 110.706 361.284 110.585L360.377 110.511C360.374 110.637 359.462 123.758 369.615 137.372Z" fill="#36C06E"/>
<path d="M370.269 135.635C377.209 128.239 379.481 117.253 379.502 117.142L378.609 116.96C378.588 117.066 376.365 127.801 369.607 134.996L370.269 135.635Z" fill="#36C06E"/>
<path d="M369.823 137.41C369.823 137.41 370.282 128.228 360.277 120.156C356.006 116.712 353.358 113.269 351.725 110.451C351.205 109.554 349.829 110.077 350.018 111.106C350.692 114.756 351.894 119.375 354.033 123.873C358.623 133.514 364.132 134.904 369.823 137.41Z" fill="#0D562A"/>
<path d="M373.975 101.011C373.975 101.011 378.27 98.6434 378.759 94.7952C379.247 90.947 376.812 87.9874 375.147 86.7052C373.482 85.423 373.092 87.4939 373.092 87.4939C373.092 87.4939 372.898 86.4101 371.531 86.2117C370.165 86.0133 366.063 89.5664 365.868 93.4146C365.674 97.2629 368.789 100.616 368.789 100.616L373.975 101.011Z" fill="#FC892B"/>
<path d="M371.364 103.628C371.947 103.653 374.715 103.612 375.449 100.637C375.476 100.515 375.479 100.388 375.457 100.264C375.435 100.14 375.388 100.022 375.319 99.9174C375.251 99.8124 375.162 99.7226 375.058 99.6533C374.954 99.5839 374.838 99.5366 374.715 99.5141C374.095 99.396 373.232 99.3501 372.424 99.6993C372.257 99.7787 372.07 99.8055 371.887 99.7763C371.705 99.747 371.535 99.6631 371.4 99.5354C371.007 99.1358 370.525 98.8373 369.994 98.6647C369.463 98.4921 368.9 98.4505 368.35 98.5434C368.127 98.5801 367.925 98.6982 367.782 98.8752C367.639 99.0523 367.566 99.2761 367.576 99.5042C367.629 100.665 368.155 102.784 371.16 103.593C371.227 103.612 371.295 103.624 371.364 103.628Z" fill="#36C06E"/>
<path d="M372.732 86.2887C372.732 86.2887 372.492 83.0373 370.803 83.1176C369.114 83.198 372.291 85.2721 372.732 86.2887Z" fill="#FFC440"/>
<path d="M373.093 86.3281C373.093 86.3281 373.328 83.0783 375.017 83.1603C376.706 83.2423 373.529 85.3132 373.093 86.3281Z" fill="#FFC440"/>
<path d="M362.545 109.198C362.545 109.198 365.439 106.94 365.351 104.044C365.263 101.149 363.118 99.255 361.744 98.5073C360.369 97.7596 360.322 99.3271 360.322 99.3271C360.322 99.3271 360.053 98.5499 359.024 98.568C357.995 98.586 355.383 101.683 355.686 104.554C355.99 107.425 358.688 109.516 358.688 109.516L362.545 109.198Z" fill="#FFC440"/>
<path d="M360.923 111.439C361.354 111.388 363.392 111.029 363.585 108.749C363.593 108.655 363.581 108.56 363.55 108.471C363.52 108.382 363.472 108.3 363.41 108.23C363.347 108.161 363.271 108.104 363.187 108.065C363.102 108.026 363.01 108.005 362.917 108.002C362.333 107.969 361.753 108.112 361.249 108.411C361.135 108.489 361 108.53 360.862 108.53C360.724 108.53 360.589 108.489 360.475 108.411C360.139 108.164 359.75 108.001 359.34 107.937C358.93 107.872 358.511 107.908 358.117 108.04C357.955 108.093 357.819 108.204 357.733 108.352C357.647 108.5 357.618 108.675 357.651 108.844C357.827 109.695 358.463 111.2 360.772 111.434C360.822 111.441 360.872 111.443 360.923 111.439Z" fill="#36C06E"/>
<path d="M359.92 98.486C359.92 98.486 359.363 96.1168 358.135 96.3775C356.906 96.6382 359.475 97.7892 359.92 98.486Z" fill="#FC892B"/>
<path d="M360.185 98.4745C360.185 98.4745 359.985 96.0479 361.239 95.9068C362.494 95.7658 360.394 97.6727 360.185 98.4745Z" fill="#FC892B"/>
<path d="M369.829 137.39C369.829 137.39 377.699 136.444 381.198 128.044C383.121 123.432 384.776 121.01 385.884 119.767C385.992 119.65 386.057 119.499 386.07 119.34C386.083 119.18 386.043 119.021 385.955 118.888C385.868 118.754 385.739 118.654 385.588 118.604C385.438 118.554 385.275 118.556 385.126 118.611C383.882 119.062 382.243 120.278 380.573 123.315C377.138 129.562 370.204 132.592 369.829 137.39Z" fill="#0D562A"/>
</g>
<g clip-path="url(#clip3)">
<path d="M183.407 131.203C183.407 131.203 182.304 138.145 175.99 131.564C169.676 124.983 172.84 117.551 164.743 111.746C156.647 105.94 173.202 110.376 178.246 114.98C181.361 118.089 182.964 118.798 185.128 124.751C187.291 130.703 183.407 131.203 183.407 131.203Z" fill="#1FA354"/>
<path d="M173.382 116.944C173.331 116.907 173.297 116.852 173.286 116.79C173.276 116.729 173.29 116.665 173.326 116.614C173.343 116.589 173.366 116.567 173.392 116.55C173.418 116.534 173.448 116.523 173.478 116.518C173.509 116.513 173.54 116.514 173.57 116.521C173.6 116.528 173.628 116.541 173.653 116.56C179.044 120.405 182.88 129.271 183.647 131.152C183.57 131.173 183.491 131.19 183.412 131.203C183.412 131.203 183.386 131.36 183.325 131.602C182.957 130.688 179.026 120.975 173.382 116.944Z" fill="#007F36"/>
<path d="M194.986 135.708C194.986 135.708 195.48 143.047 201.891 138.32C208.302 133.593 205.781 125.441 209.732 119.849C213.683 114.257 214.918 108.773 212.757 109.775C210.596 110.777 201.088 122.896 195.963 126.26C190.838 129.624 188.565 138.132 194.986 135.708Z" fill="#1FA354"/>
<path d="M197.027 133.645C197.041 133.627 197.058 133.61 197.076 133.596C197.539 133.138 198.03 132.64 198.536 132.112C198.547 132.08 198.565 132.051 198.588 132.026C198.611 132.002 198.64 131.983 198.671 131.971C199.766 130.822 200.922 129.542 201.996 128.22C201.687 127.561 200.508 124.959 200.07 122.78C200.206 122.652 200.326 122.523 200.474 122.389C200.809 124.383 201.901 126.891 202.323 127.798C202.692 127.334 203.044 126.868 203.382 126.399C202.776 124.625 202.264 122.819 201.848 120.99L202.244 120.578C202.637 122.386 203.131 124.169 203.725 125.92C205.126 123.896 206.144 121.902 206.282 120.254C206.285 120.223 206.293 120.193 206.307 120.165C206.321 120.138 206.34 120.113 206.364 120.093C206.387 120.073 206.414 120.058 206.443 120.049C206.473 120.039 206.503 120.036 206.534 120.038C206.565 120.041 206.594 120.05 206.622 120.064C206.649 120.078 206.673 120.097 206.693 120.121C206.713 120.144 206.728 120.172 206.737 120.201C206.746 120.23 206.75 120.261 206.748 120.292C206.563 122.634 204.722 125.585 202.5 128.357C202.486 128.387 202.465 128.413 202.438 128.432C201.415 129.699 200.323 130.928 199.27 132.038C201.935 132.62 205.152 132.259 206.09 132.136C206.037 132.303 205.983 132.47 205.927 132.635C204.856 132.769 203.778 132.837 202.699 132.839C201.419 132.854 200.142 132.718 198.894 132.434C198.469 132.875 198.053 133.297 197.659 133.691C200.592 134.948 203.796 134.925 204.947 134.869C204.855 135.033 204.76 135.196 204.658 135.358C204.471 135.358 204.257 135.358 204.014 135.358C202.431 135.358 199.784 135.152 197.296 134.039C196.945 134.384 196.613 134.706 196.303 135C198.298 136.754 201.242 137.467 202.623 137.717C202.467 137.851 202.306 137.983 202.139 138.111C200.592 137.8 197.884 137.042 195.961 135.327C195.62 135.646 195.32 135.925 195.063 136.162C195.014 135.863 195.002 135.675 195.002 135.675C194.94 135.698 194.884 135.713 194.823 135.734C195.375 135.245 196.147 134.516 197.027 133.645Z" fill="#007F36"/>
<path d="M181.548 135.84C181.548 135.84 188.547 136.677 182.617 130.224C176.686 123.772 168.262 121.503 164.823 120.068C161.383 118.633 158.713 116.722 158.12 117.979C157.526 119.236 163.043 122.757 165.771 127.298C168.5 131.839 174.906 139.544 179.474 139.484C183.67 139.43 181.548 135.84 181.548 135.84Z" fill="#0D562A"/>
<path d="M169.178 125.279C175.719 129.07 180.883 134.405 182.087 135.873C181.765 135.873 181.548 135.84 181.548 135.84C181.608 135.944 181.662 136.051 181.711 136.162C180.627 134.874 175.574 129.531 168.945 125.696C168.891 125.664 168.852 125.612 168.835 125.552C168.819 125.491 168.827 125.426 168.858 125.372C168.888 125.317 168.939 125.276 168.999 125.259C169.059 125.241 169.123 125.248 169.178 125.279Z" fill="#3CA064"/>
<path d="M187.762 134.843C187.762 134.843 189.058 139.082 193.593 135.059C198.127 131.036 190.57 127.231 194.36 123.21C198.15 119.19 204.078 108.529 203.428 99.1836C202.779 89.8386 201.16 99.1836 194.145 104.402C187.13 109.621 183.783 120.058 183.89 126.147C183.997 132.236 180.962 135.278 182.368 136.473C183.775 137.668 187.115 136.473 187.762 134.843Z" fill="#0D562A"/>
<path d="M182.302 134.145C182.361 133.962 182.425 133.771 182.491 133.57C183.082 134.601 184.338 135.597 186.072 136.424C185.886 136.517 185.694 136.597 185.499 136.666C184.036 135.919 182.946 135.067 182.302 134.145Z" fill="#3CA064"/>
<path d="M183.056 131.839C184.458 133.356 186.488 134.235 187.263 134.534C187.227 134.06 187.194 133.485 187.171 132.828C185.745 132.338 184.462 131.5 183.435 130.389C183.478 130.196 183.517 129.998 183.558 129.797C184.742 131.309 186.478 132.069 187.156 132.318C187.092 129.555 187.261 125.621 188.363 122.1C189.191 119.445 190.58 117.464 191.989 115.748C190.711 113.626 189.833 110.762 189.432 109.309C189.547 109.144 189.667 108.982 189.787 108.82C190.112 110.033 191.01 113.119 192.309 115.354C192.616 114.989 192.923 114.631 193.222 114.285L193.623 113.822C193.314 112.634 192.685 107.977 192.406 105.837L192.828 105.445C193.127 107.748 193.692 111.885 194.002 113.368C195.188 111.965 196.239 110.569 196.756 108.902C196.8 108.794 196.897 108.614 197.076 108.67C197.296 108.737 197.221 108.992 197.221 108.992L197.193 109.085C196.531 111.187 195.099 112.84 193.582 114.589C191.81 116.629 189.984 118.742 188.92 121.905C193.122 121.771 195.447 121.07 196.337 120.74C196.173 120.972 196.009 121.196 195.848 121.41C194.633 121.784 192.373 122.283 188.78 122.384C188.549 123.146 188.357 123.92 188.207 124.702C190.138 124.571 192.902 124.089 193.784 123.929C193.686 124.094 193.601 124.266 193.529 124.444C192.368 124.65 189.874 125.065 188.125 125.173C188.018 125.794 187.931 126.412 187.869 127.023C189.496 127.09 192.593 126.283 193.299 126.093C193.314 126.251 193.337 126.408 193.368 126.564C192.575 126.778 189.787 127.502 188.061 127.502C187.977 127.502 187.9 127.502 187.821 127.502C187.597 129.935 187.587 132.384 187.79 134.82C187.691 135.055 187.551 135.271 187.378 135.458C187.378 135.337 187.353 135.201 187.337 135.023C186.775 134.825 184.552 133.972 182.926 132.324C182.949 132.187 183.003 132.017 183.056 131.839Z" fill="#3CA064"/>
<path d="M200.27 119.798C200.27 119.798 203.4 120.606 204.068 119.164C204.735 117.722 203.413 117.25 202.761 117.286C202.761 117.286 203.254 115.53 201.771 115.46C199.625 115.357 200.27 119.798 200.27 119.798Z" fill="#F9C5CE"/>
<path d="M196.575 122.582C196.575 122.582 201.73 121.992 200.715 116.369C199.7 110.746 196.137 116.727 195.856 118.43C195.575 120.132 196.575 122.582 196.575 122.582Z" fill="#FC7459"/>
<path d="M196.71 122.621C196.71 122.621 200.093 126.58 204.126 122.569C208.159 118.559 201.257 118.963 199.715 119.679C198.173 120.395 196.71 122.621 196.71 122.621Z" fill="#FF8477"/>
<path d="M204.622 117.446C204.916 117.446 205.154 117.206 205.154 116.91C205.154 116.614 204.916 116.374 204.622 116.374C204.329 116.374 204.09 116.614 204.09 116.91C204.09 117.206 204.329 117.446 204.622 117.446Z" fill="#FC7459"/>
<path d="M205.083 116.132C205.377 116.132 205.615 115.892 205.615 115.596C205.615 115.301 205.377 115.061 205.083 115.061C204.789 115.061 204.551 115.301 204.551 115.596C204.551 115.892 204.789 116.132 205.083 116.132Z" fill="#FC7459"/>
<path d="M203.692 116.088C203.985 116.088 204.224 115.849 204.224 115.553C204.224 115.257 203.985 115.017 203.692 115.017C203.398 115.017 203.16 115.257 203.16 115.553C203.16 115.849 203.398 116.088 203.692 116.088Z" fill="#FC7459"/>
<path d="M181.277 106.537C181.277 106.537 184.159 103.588 183.018 101.927C181.877 100.265 180.509 101.427 180.131 102.172C180.131 102.172 178.53 100.502 177.502 102.099C176.026 104.397 181.277 106.537 181.277 106.537Z" fill="#F9C5CE"/>
<path d="M182.092 112.289C182.092 112.289 184.614 106.316 177.827 103.841C171.039 101.365 175.29 109.136 176.955 110.522C178.619 111.908 182.092 112.289 182.092 112.289Z" fill="#FF8477"/>
<path d="M182.087 112.271C182.087 112.271 188.573 111.061 186.782 104.029C184.992 96.9967 181.008 104.886 180.808 107.053C180.609 109.219 182.087 112.271 182.087 112.271Z" fill="#FC7459"/>
<path d="M180.918 100.538C181.291 100.538 181.594 100.234 181.594 99.8584C181.594 99.4828 181.291 99.1784 180.918 99.1784C180.546 99.1784 180.243 99.4828 180.243 99.8584C180.243 100.234 180.546 100.538 180.918 100.538Z" fill="#FC7459"/>
<path d="M179.78 99.1887C180.153 99.1887 180.456 98.8843 180.456 98.5087C180.456 98.1332 180.153 97.8287 179.78 97.8287C179.408 97.8287 179.105 98.1332 179.105 98.5087C179.105 98.8843 179.408 99.1887 179.78 99.1887Z" fill="#FC7459"/>
<path d="M178.842 100.701C179.215 100.701 179.517 100.396 179.517 100.021C179.517 99.6451 179.215 99.3407 178.842 99.3407C178.469 99.3407 178.167 99.6451 178.167 100.021C178.167 100.396 178.469 100.701 178.842 100.701Z" fill="#FC7459"/>
<path d="M165.201 116.913C165.201 116.913 165.835 114.752 164.861 114.249C163.887 113.747 163.531 114.659 163.539 115.112C163.539 115.112 162.344 114.726 162.26 115.759C162.137 117.245 165.201 116.913 165.201 116.913Z" fill="#F9C5CE"/>
<path d="M167.024 119.548C167.024 119.548 166.746 115.942 162.859 116.521C158.971 117.101 162.992 119.72 164.137 119.955C165.283 120.189 167.024 119.548 167.024 119.548Z" fill="#FC7459"/>
<path d="M167.053 119.455C167.053 119.455 169.866 117.196 167.201 114.278C164.536 111.359 164.644 116.189 165.109 117.281C165.574 118.373 167.053 119.455 167.053 119.455Z" fill="#FF8477"/>
<path d="M163.327 114.172C163.53 114.172 163.695 114.006 163.695 113.801C163.695 113.596 163.53 113.43 163.327 113.43C163.123 113.43 162.958 113.596 162.958 113.801C162.958 114.006 163.123 114.172 163.327 114.172Z" fill="#FC7459"/>
<path d="M162.437 113.819C162.64 113.819 162.805 113.653 162.805 113.448C162.805 113.243 162.64 113.077 162.437 113.077C162.233 113.077 162.068 113.243 162.068 113.448C162.068 113.653 162.233 113.819 162.437 113.819Z" fill="#FC7459"/>
<path d="M162.373 114.785C162.576 114.785 162.741 114.619 162.741 114.414C162.741 114.209 162.576 114.043 162.373 114.043C162.169 114.043 162.004 114.209 162.004 114.414C162.004 114.619 162.169 114.785 162.373 114.785Z" fill="#FC7459"/>
<path d="M190.434 136.87C190.492 136.87 190.548 136.848 190.591 136.809C190.634 136.77 190.661 136.716 190.667 136.659C191.634 127.958 196.823 122.837 196.874 122.785C196.899 122.765 196.92 122.739 196.936 122.71C196.951 122.681 196.96 122.649 196.962 122.616C196.964 122.583 196.96 122.55 196.948 122.519C196.937 122.488 196.92 122.459 196.897 122.436C196.874 122.412 196.847 122.393 196.816 122.381C196.786 122.368 196.753 122.362 196.721 122.363C196.688 122.364 196.656 122.372 196.626 122.386C196.597 122.4 196.57 122.42 196.549 122.445C196.495 122.497 191.178 127.728 190.202 136.612C190.195 136.674 190.213 136.736 190.252 136.784C190.291 136.833 190.347 136.863 190.409 136.87H190.434Z" fill="#FC7459"/>
<path d="M187.772 137.163H187.795C187.857 137.157 187.914 137.126 187.953 137.078C187.993 137.03 188.012 136.968 188.007 136.906C187.02 125.959 182.501 111.637 182.458 111.493C182.438 111.434 182.396 111.385 182.34 111.356C182.285 111.328 182.221 111.322 182.161 111.341C182.104 111.36 182.057 111.401 182.029 111.454C182.001 111.507 181.994 111.569 182.01 111.627C182.054 111.771 186.557 126.052 187.539 136.937C187.542 136.997 187.568 137.055 187.611 137.097C187.654 137.139 187.712 137.163 187.772 137.163Z" fill="#FC7459"/>
<path d="M182.655 137.941C182.696 137.941 182.735 137.93 182.77 137.908C182.824 137.877 182.863 137.825 182.879 137.765C182.895 137.705 182.887 137.64 182.857 137.586C177.706 128.627 167.313 119.37 167.209 119.277C167.185 119.257 167.158 119.241 167.129 119.231C167.1 119.22 167.069 119.216 167.038 119.218C167.007 119.22 166.977 119.228 166.949 119.242C166.921 119.255 166.897 119.275 166.876 119.298C166.836 119.346 166.815 119.407 166.82 119.47C166.824 119.533 166.852 119.591 166.899 119.633C167.001 119.723 177.341 128.918 182.45 137.823C182.471 137.859 182.501 137.889 182.537 137.91C182.573 137.93 182.613 137.941 182.655 137.941Z" fill="#FC7459"/>
</g>
<g clip-path="url(#clip4)">
<path d="M314.583 131.203C314.583 131.203 313.481 138.145 307.167 131.564C300.853 124.983 304.016 117.551 295.919 111.746C287.823 105.94 304.379 110.376 309.423 114.98C312.537 118.089 314.141 118.798 316.304 124.751C318.468 130.703 314.583 131.203 314.583 131.203Z" fill="#1FA354"/>
<path d="M304.558 116.944C304.507 116.907 304.473 116.852 304.462 116.79C304.452 116.729 304.466 116.665 304.502 116.614C304.52 116.589 304.542 116.567 304.569 116.55C304.595 116.534 304.624 116.523 304.654 116.518C304.685 116.513 304.716 116.514 304.746 116.521C304.776 116.528 304.804 116.541 304.829 116.56C310.22 120.405 314.056 129.271 314.823 131.152C314.746 131.173 314.667 131.19 314.588 131.203C314.588 131.203 314.563 131.36 314.501 131.602C314.133 130.688 310.202 120.975 304.558 116.944Z" fill="#007F36"/>
<path d="M326.163 135.708C326.163 135.708 326.656 143.047 333.067 138.32C339.479 133.593 336.957 125.441 340.908 119.849C344.859 114.257 346.095 108.773 343.934 109.775C341.773 110.777 332.264 122.896 327.14 126.26C322.015 129.624 319.741 138.132 326.163 135.708Z" fill="#1FA354"/>
<path d="M328.203 133.645C328.218 133.627 328.234 133.61 328.252 133.596C328.715 133.138 329.206 132.64 329.712 132.112C329.723 132.08 329.741 132.051 329.764 132.026C329.788 132.002 329.816 131.983 329.848 131.971C330.942 130.822 332.098 129.542 333.172 128.22C332.863 127.561 331.684 124.959 331.247 122.78C331.382 122.652 331.502 122.523 331.651 122.389C331.986 124.383 333.078 126.891 333.5 127.798C333.868 127.334 334.221 126.868 334.558 126.399C333.952 124.625 333.44 122.819 333.024 120.99L333.42 120.578C333.813 122.386 334.307 124.169 334.901 125.92C336.302 123.896 337.32 121.902 337.458 120.254C337.461 120.223 337.469 120.193 337.483 120.165C337.497 120.138 337.517 120.113 337.54 120.093C337.563 120.073 337.591 120.058 337.62 120.049C337.649 120.039 337.68 120.036 337.71 120.038C337.741 120.041 337.771 120.05 337.798 120.064C337.825 120.078 337.849 120.097 337.869 120.121C337.889 120.144 337.904 120.172 337.913 120.201C337.923 120.23 337.926 120.261 337.924 120.292C337.74 122.634 335.898 125.585 333.676 128.357C333.662 128.387 333.641 128.413 333.615 128.432C332.592 129.699 331.5 130.928 330.446 132.038C333.111 132.62 336.328 132.259 337.267 132.136C337.213 132.303 337.159 132.47 337.103 132.635C336.032 132.769 334.954 132.837 333.876 132.839C332.596 132.854 331.319 132.718 330.07 132.434C329.646 132.875 329.229 133.297 328.835 133.691C331.768 134.948 334.973 134.925 336.123 134.869C336.031 135.033 335.937 135.196 335.834 135.358C335.648 135.358 335.433 135.358 335.19 135.358C333.607 135.358 330.96 135.152 328.472 134.039C328.121 134.384 327.789 134.706 327.48 135C329.474 136.754 332.418 137.467 333.799 137.717C333.644 137.851 333.483 137.983 333.315 138.111C331.768 137.8 329.06 137.042 327.137 135.327C326.796 135.646 326.497 135.925 326.239 136.162C326.191 135.863 326.178 135.675 326.178 135.675C326.117 135.698 326.06 135.713 325.999 135.734C326.551 135.245 327.324 134.516 328.203 133.645Z" fill="#007F36"/>
<path d="M312.724 135.84C312.724 135.84 319.723 136.677 313.793 130.224C307.862 123.772 299.438 121.503 295.999 120.068C292.559 118.633 289.889 116.722 289.296 117.979C288.703 119.236 294.219 122.757 296.948 127.298C299.676 131.839 306.082 139.544 310.65 139.484C314.846 139.43 312.724 135.84 312.724 135.84Z" fill="#0D562A"/>
<path d="M300.354 125.279C306.896 129.07 312.059 134.405 313.263 135.873C312.941 135.873 312.724 135.84 312.724 135.84C312.784 135.944 312.839 136.051 312.887 136.162C311.803 134.874 306.75 129.531 300.121 125.696C300.067 125.664 300.028 125.612 300.012 125.552C299.995 125.491 300.004 125.426 300.034 125.372C300.064 125.317 300.115 125.276 300.175 125.259C300.235 125.241 300.299 125.248 300.354 125.279Z" fill="#3CA064"/>
<path d="M318.938 134.843C318.938 134.843 320.235 139.082 324.769 135.059C329.303 131.036 321.746 127.231 325.536 123.21C329.326 119.19 335.254 108.529 334.604 99.1836C333.955 89.8386 332.336 99.1836 325.321 104.402C318.307 109.621 314.959 120.058 315.066 126.147C315.174 132.236 312.138 135.278 313.545 136.473C314.951 137.668 318.291 136.473 318.938 134.843Z" fill="#0D562A"/>
<path d="M313.478 134.145C313.537 133.962 313.601 133.771 313.668 133.57C314.258 134.601 315.514 135.597 317.248 136.424C317.062 136.517 316.871 136.597 316.675 136.666C315.212 135.919 314.123 135.067 313.478 134.145Z" fill="#3CA064"/>
<path d="M314.233 131.839C315.634 133.356 317.665 134.235 318.439 134.534C318.404 134.06 318.37 133.485 318.347 132.828C316.921 132.338 315.638 131.5 314.611 130.389C314.655 130.196 314.693 129.998 314.734 129.797C315.918 131.309 317.654 132.069 318.332 132.318C318.268 129.555 318.437 125.621 319.539 122.1C320.368 119.445 321.756 117.464 323.165 115.748C321.887 113.626 321.01 110.762 320.608 109.309C320.723 109.144 320.843 108.982 320.964 108.82C321.288 110.033 322.186 113.119 323.485 115.354C323.792 114.989 324.099 114.631 324.398 114.285L324.8 113.822C324.49 112.634 323.861 107.977 323.582 105.837L324.004 105.445C324.303 107.748 324.869 111.885 325.178 113.368C326.365 111.965 327.416 110.569 327.932 108.902C327.976 108.794 328.073 108.614 328.252 108.67C328.472 108.737 328.398 108.992 328.398 108.992L328.37 109.085C327.707 111.187 326.275 112.84 324.759 114.589C322.986 116.629 321.16 118.742 320.097 121.905C324.298 121.771 326.623 121.07 327.513 120.74C327.349 120.972 327.186 121.196 327.024 121.41C325.81 121.784 323.549 122.283 319.956 122.384C319.725 123.146 319.534 123.92 319.383 124.702C321.314 124.571 324.078 124.089 324.961 123.929C324.862 124.094 324.777 124.266 324.705 124.444C323.544 124.65 321.051 125.065 319.301 125.173C319.194 125.794 319.107 126.412 319.046 127.023C320.672 127.09 323.769 126.283 324.475 126.093C324.49 126.251 324.513 126.408 324.544 126.564C323.751 126.778 320.964 127.502 319.237 127.502C319.153 127.502 319.076 127.502 318.997 127.502C318.773 129.935 318.763 132.384 318.966 134.82C318.867 135.055 318.728 135.271 318.555 135.458C318.555 135.337 318.529 135.201 318.514 135.023C317.951 134.825 315.729 133.972 314.102 132.324C314.125 132.187 314.179 132.017 314.233 131.839Z" fill="#3CA064"/>
<path d="M331.446 119.798C331.446 119.798 334.576 120.606 335.244 119.164C335.911 117.722 334.589 117.25 333.937 117.286C333.937 117.286 334.431 115.53 332.947 115.46C330.802 115.357 331.446 119.798 331.446 119.798Z" fill="#F9C5CE"/>
<path d="M327.751 122.582C327.751 122.582 332.906 121.992 331.891 116.369C330.876 110.746 327.313 116.727 327.032 118.43C326.751 120.132 327.751 122.582 327.751 122.582Z" fill="#FC7459"/>
<path d="M327.886 122.621C327.886 122.621 331.27 126.58 335.303 122.569C339.335 118.559 332.433 118.963 330.891 119.679C329.349 120.395 327.886 122.621 327.886 122.621Z" fill="#FF8477"/>
<path d="M335.799 117.446C336.092 117.446 336.331 117.206 336.331 116.91C336.331 116.614 336.092 116.374 335.799 116.374C335.505 116.374 335.267 116.614 335.267 116.91C335.267 117.206 335.505 117.446 335.799 117.446Z" fill="#FC7459"/>
<path d="M336.259 116.132C336.553 116.132 336.791 115.892 336.791 115.596C336.791 115.301 336.553 115.061 336.259 115.061C335.965 115.061 335.727 115.301 335.727 115.596C335.727 115.892 335.965 116.132 336.259 116.132Z" fill="#FC7459"/>
<path d="M334.868 116.088C335.162 116.088 335.4 115.849 335.4 115.553C335.4 115.257 335.162 115.017 334.868 115.017C334.574 115.017 334.336 115.257 334.336 115.553C334.336 115.849 334.574 116.088 334.868 116.088Z" fill="#FC7459"/>
<path d="M312.453 106.537C312.453 106.537 315.335 103.588 314.194 101.927C313.054 100.265 311.686 101.427 311.307 102.172C311.307 102.172 309.706 100.502 308.678 102.099C307.203 104.397 312.453 106.537 312.453 106.537Z" fill="#F9C5CE"/>
<path d="M313.269 112.289C313.269 112.289 315.79 106.316 309.003 103.841C302.216 101.365 306.466 109.136 308.131 110.522C309.796 111.908 313.269 112.289 313.269 112.289Z" fill="#FF8477"/>
<path d="M313.263 112.271C313.263 112.271 319.749 111.061 317.959 104.029C316.169 96.9967 312.184 104.886 311.985 107.053C311.785 109.219 313.263 112.271 313.263 112.271Z" fill="#FC7459"/>
<path d="M312.095 100.538C312.468 100.538 312.77 100.234 312.77 99.8584C312.77 99.4828 312.468 99.1784 312.095 99.1784C311.722 99.1784 311.42 99.4828 311.42 99.8584C311.42 100.234 311.722 100.538 312.095 100.538Z" fill="#FC7459"/>
<path d="M310.957 99.1887C311.33 99.1887 311.632 98.8843 311.632 98.5087C311.632 98.1332 311.33 97.8287 310.957 97.8287C310.584 97.8287 310.282 98.1332 310.282 98.5087C310.282 98.8843 310.584 99.1887 310.957 99.1887Z" fill="#FC7459"/>
<path d="M310.018 100.701C310.391 100.701 310.693 100.396 310.693 100.021C310.693 99.6451 310.391 99.3407 310.018 99.3407C309.645 99.3407 309.343 99.6451 309.343 100.021C309.343 100.396 309.645 100.701 310.018 100.701Z" fill="#FC7459"/>
<path d="M296.377 116.913C296.377 116.913 297.011 114.752 296.037 114.249C295.063 113.747 294.707 114.659 294.715 115.112C294.715 115.112 293.521 114.726 293.436 115.759C293.314 117.245 296.377 116.913 296.377 116.913Z" fill="#F9C5CE"/>
<path d="M298.201 119.548C298.201 119.548 297.922 115.942 294.035 116.521C290.148 117.101 294.168 119.72 295.313 119.955C296.459 120.189 298.201 119.548 298.201 119.548Z" fill="#FC7459"/>
<path d="M298.229 119.455C298.229 119.455 301.042 117.196 298.377 114.278C295.712 111.359 295.82 116.189 296.285 117.281C296.751 118.373 298.229 119.455 298.229 119.455Z" fill="#FF8477"/>
<path d="M294.503 114.172C294.706 114.172 294.871 114.006 294.871 113.801C294.871 113.596 294.706 113.43 294.503 113.43C294.299 113.43 294.135 113.596 294.135 113.801C294.135 114.006 294.299 114.172 294.503 114.172Z" fill="#FC7459"/>
<path d="M293.613 113.819C293.816 113.819 293.981 113.653 293.981 113.448C293.981 113.243 293.816 113.077 293.613 113.077C293.409 113.077 293.245 113.243 293.245 113.448C293.245 113.653 293.409 113.819 293.613 113.819Z" fill="#FC7459"/>
<path d="M293.549 114.785C293.752 114.785 293.917 114.619 293.917 114.414C293.917 114.209 293.752 114.043 293.549 114.043C293.346 114.043 293.181 114.209 293.181 114.414C293.181 114.619 293.346 114.785 293.549 114.785Z" fill="#FC7459"/>
<path d="M321.611 136.87C321.668 136.87 321.724 136.848 321.767 136.809C321.81 136.77 321.837 136.716 321.843 136.659C322.81 127.958 327.999 122.837 328.05 122.785C328.076 122.765 328.097 122.739 328.112 122.71C328.127 122.681 328.136 122.649 328.138 122.616C328.141 122.583 328.136 122.55 328.125 122.519C328.113 122.488 328.096 122.459 328.073 122.436C328.05 122.412 328.023 122.393 327.993 122.381C327.962 122.368 327.93 122.362 327.897 122.363C327.864 122.364 327.832 122.372 327.802 122.386C327.773 122.4 327.747 122.42 327.725 122.445C327.671 122.497 322.355 127.728 321.378 136.612C321.371 136.674 321.39 136.736 321.428 136.784C321.467 136.833 321.524 136.863 321.585 136.87H321.611Z" fill="#FC7459"/>
<path d="M318.948 137.163H318.971C319.033 137.157 319.09 137.126 319.13 137.078C319.169 137.03 319.189 136.968 319.184 136.906C318.197 125.959 313.678 111.637 313.634 111.493C313.614 111.434 313.572 111.385 313.517 111.356C313.461 111.328 313.397 111.322 313.338 111.341C313.281 111.36 313.233 111.401 313.205 111.454C313.177 111.507 313.17 111.569 313.187 111.627C313.23 111.771 317.734 126.052 318.716 136.937C318.718 136.997 318.744 137.055 318.787 137.097C318.83 137.139 318.888 137.163 318.948 137.163Z" fill="#FC7459"/>
<path d="M313.831 137.941C313.872 137.941 313.912 137.93 313.946 137.908C314 137.877 314.039 137.825 314.055 137.765C314.072 137.705 314.064 137.64 314.033 137.586C308.883 128.627 298.49 119.37 298.385 119.277C298.362 119.257 298.335 119.241 298.305 119.231C298.276 119.22 298.245 119.216 298.214 119.218C298.183 119.22 298.153 119.228 298.125 119.242C298.098 119.255 298.073 119.275 298.052 119.298C298.012 119.346 297.992 119.407 297.996 119.47C298 119.533 298.029 119.591 298.075 119.633C298.178 119.723 308.517 128.918 313.627 137.823C313.647 137.859 313.677 137.889 313.713 137.91C313.749 137.93 313.79 137.941 313.831 137.941Z" fill="#FC7459"/>
</g>
<g clip-path="url(#clip5)">
<path d="M152.826 139.582C149.191 130.82 146.835 121.417 145.313 112.72C145.787 108.163 152.69 101.123 152.766 101.058L152.07 100.365C151.816 100.623 146.705 105.819 144.917 110.387C144.374 106.981 143.951 103.713 143.636 100.663C143.777 99.7977 145.138 92.0719 149.869 85.9249L149.093 85.3239C145.834 89.5602 144.141 94.4109 143.325 97.4923C142.402 87.248 142.574 80.1344 142.579 79.9819L141.6 79.9528C141.6 80.0851 141.465 85.4293 142.024 93.5094C140.43 90.0064 138.336 89.7171 138.224 89.697L138.106 90.6747C138.139 90.6747 141.351 91.2332 142.471 98.8042C142.762 101.807 143.142 105.052 143.652 108.448C142.521 106.727 141.013 105.29 139.243 104.245L138.776 105.11C138.819 105.133 143.084 107.517 144.213 112.235H144.235C144.264 112.406 144.293 112.576 144.325 112.747C144.324 112.767 144.324 112.787 144.325 112.807H144.34C145.872 121.58 148.243 131.098 151.921 139.97L152.826 139.582Z" fill="#0D562A"/>
<path d="M152.263 101.188C152.263 101.188 149.261 99.8986 151.662 95.2541C154.063 90.6097 157.836 93.1887 158.093 95.1667C158.093 95.1667 160.152 95.3393 160.581 98.3489C161.01 101.359 156.557 102.386 155.006 102.65C153.454 102.915 152.52 102.049 152.263 101.188Z" fill="#75A5F9"/>
<path d="M157.72 95.7498C157.326 95.595 157.006 95.2949 156.825 94.911C156.602 94.4154 156.182 93.7897 155.538 93.6215C154.434 93.339 153.973 93.8211 153.812 94.162C153.651 94.5029 153.834 95.6444 155.41 96.4697C155.715 96.6435 155.952 96.9164 156.081 97.2434C156.481 98.1628 157.445 99.8784 159.007 99.6385C160.847 99.3537 159.347 96.9137 158.951 96.5728C158.593 96.227 158.176 95.9483 157.72 95.7498Z" fill="#3166F7"/>
<path d="M158.583 97.2456C158.997 97.2456 159.334 96.9082 159.334 96.4921C159.334 96.0759 158.997 95.7386 158.583 95.7386C158.168 95.7386 157.831 96.0759 157.831 96.4921C157.831 96.9082 158.168 97.2456 158.583 97.2456Z" fill="#FCC62D"/>
<path d="M156.722 96.9608C157.137 96.9608 157.474 96.6235 157.474 96.2073C157.474 95.7911 157.137 95.4538 156.722 95.4538C156.308 95.4538 155.971 95.7911 155.971 96.2073C155.971 96.6235 156.308 96.9608 156.722 96.9608Z" fill="#FCC62D"/>
<path d="M156.656 95.0904C157.07 95.0904 157.407 94.7531 157.407 94.3369C157.407 93.9208 157.07 93.5834 156.656 93.5834C156.241 93.5834 155.905 93.9208 155.905 94.3369C155.905 94.7531 156.241 95.0904 156.656 95.0904Z" fill="#FCC62D"/>
<path d="M158.627 95.2811C159.042 95.2811 159.378 94.9437 159.378 94.5276C159.378 94.1114 159.042 93.774 158.627 93.774C158.212 93.774 157.876 94.1114 157.876 94.5276C157.876 94.9437 158.212 95.2811 158.627 95.2811Z" fill="#FCC62D"/>
<path d="M138.613 90.9349C138.613 90.9349 137.437 93.9961 132.723 91.7534C128.008 89.5108 130.447 85.6378 132.403 85.3082C132.403 85.3082 132.499 83.2382 135.484 82.7C138.468 82.1618 139.657 86.5954 139.97 88.1316C140.283 89.6678 139.46 90.6456 138.613 90.9349Z" fill="#75A5F9"/>
<path d="M132.998 85.6557C132.855 86.0528 132.569 86.3812 132.195 86.5752C131.71 86.8196 131.098 87.2682 130.957 87.914C130.713 89.0286 131.212 89.4659 131.565 89.6229C131.918 89.7799 133.04 89.5467 133.8 87.9365C133.961 87.6214 134.225 87.3713 134.547 87.2278C135.441 86.7927 137.122 85.7656 136.825 84.207C136.476 82.3725 134.098 83.9648 133.773 84.3752C133.439 84.7511 133.177 85.1851 132.998 85.6557Z" fill="#3166F7"/>
<path d="M133.704 85.5234C134.119 85.5234 134.455 85.1861 134.455 84.7699C134.455 84.3538 134.119 84.0164 133.704 84.0164C133.289 84.0164 132.953 84.3538 132.953 84.7699C132.953 85.1861 133.289 85.5234 133.704 85.5234Z" fill="#FCC62D"/>
<path d="M133.49 87.3983C133.904 87.3983 134.241 87.0609 134.241 86.6448C134.241 86.2286 133.904 85.8912 133.49 85.8912C133.075 85.8912 132.738 86.2286 132.738 86.6448C132.738 87.0609 133.075 87.3983 133.49 87.3983Z" fill="#FCC62D"/>
<path d="M131.627 87.5329C132.042 87.5329 132.379 87.1955 132.379 86.7794C132.379 86.3632 132.042 86.0258 131.627 86.0258C131.213 86.0258 130.876 86.3632 130.876 86.7794C130.876 87.1955 131.213 87.5329 131.627 87.5329Z" fill="#FCC62D"/>
<path d="M131.746 85.5504C132.161 85.5504 132.497 85.213 132.497 84.7969C132.497 84.3807 132.161 84.0433 131.746 84.0433C131.331 84.0433 130.995 84.3807 130.995 84.7969C130.995 85.213 131.331 85.5504 131.746 85.5504Z" fill="#FCC62D"/>
<path d="M142.071 79.9685C142.071 79.9685 139.087 81.2781 137.359 76.3421C135.631 71.4061 140.086 70.4149 141.7 71.5811C141.7 71.5811 143.234 70.1951 145.724 71.9444C148.214 73.6936 145.901 77.6586 145.031 78.9638C144.161 80.269 142.88 80.3699 142.071 79.9685Z" fill="#75A5F9"/>
<path d="M141.87 72.2426C141.49 72.4221 141.055 72.4486 140.656 72.3166C140.135 72.1551 139.389 72.0183 138.837 72.3816C137.875 72.9939 137.916 73.6555 138.045 74.012C138.175 74.3686 139.138 75.0122 140.819 74.4247C141.155 74.318 141.517 74.3299 141.845 74.4583C142.787 74.7969 144.693 75.2679 145.588 73.9582C146.641 72.4198 143.842 71.8457 143.323 71.9017C142.822 71.9268 142.33 72.0423 141.87 72.2426Z" fill="#3166F7"/>
<path d="M142.997 72.8863C143.412 72.8863 143.748 72.5489 143.748 72.1327C143.748 71.7166 143.412 71.3792 142.997 71.3792C142.582 71.3792 142.246 71.7166 142.246 72.1327C142.246 72.5489 142.582 72.8863 142.997 72.8863Z" fill="#FCC62D"/>
<path d="M141.517 74.0502C141.932 74.0502 142.268 73.7129 142.268 73.2967C142.268 72.8806 141.932 72.5432 141.517 72.5432C141.102 72.5432 140.766 72.8806 140.766 73.2967C140.766 73.7129 141.102 74.0502 141.517 74.0502Z" fill="#FCC62D"/>
<path d="M140.113 72.8168C140.528 72.8168 140.864 72.4794 140.864 72.0633C140.864 71.6471 140.528 71.3097 140.113 71.3097C139.698 71.3097 139.362 71.6471 139.362 72.0633C139.362 72.4794 139.698 72.8168 140.113 72.8168Z" fill="#FCC62D"/>
<path d="M141.602 71.5071C142.017 71.5071 142.353 71.1697 142.353 70.7536C142.353 70.3374 142.017 70 141.602 70C141.187 70 140.851 70.3374 140.851 70.7536C140.851 71.1697 141.187 71.5071 141.602 71.5071Z" fill="#FCC62D"/>
<path d="M139.686 105.29C139.686 105.29 138.3 108.255 133.753 105.696C129.206 103.137 131.898 99.4367 133.878 99.2438C133.878 99.2438 134.118 97.1873 137.131 96.8554C140.144 96.5235 141.025 101.029 141.233 102.585C141.441 104.142 140.551 105.059 139.686 105.29Z" fill="#3166F7"/>
<path d="M134.446 99.6317C134.277 100.022 133.966 100.332 133.577 100.5C133.076 100.724 132.437 101.107 132.251 101.747C131.931 102.845 132.396 103.316 132.732 103.496C133.067 103.675 134.209 103.523 135.083 101.969C135.266 101.666 135.546 101.434 135.877 101.311C136.807 100.944 138.546 100.033 138.358 98.4566C138.135 96.6042 135.656 98.026 135.302 98.414C134.946 98.7645 134.656 99.1771 134.446 99.6317Z" fill="#75A5F9"/>
<path d="M135.213 99.551C135.628 99.551 135.964 99.2136 135.964 98.7975C135.964 98.3813 135.628 98.044 135.213 98.044C134.798 98.044 134.462 98.3813 134.462 98.7975C134.462 99.2136 134.798 99.551 135.213 99.551Z" fill="#FCC62D"/>
<path d="M134.869 101.408C135.284 101.408 135.62 101.071 135.62 100.654C135.62 100.238 135.284 99.9009 134.869 99.9009C134.454 99.9009 134.118 100.238 134.118 100.654C134.118 101.071 134.454 101.408 134.869 101.408Z" fill="#FCC62D"/>
<path d="M133.002 101.412C133.417 101.412 133.754 101.075 133.754 100.659C133.754 100.243 133.417 99.9054 133.002 99.9054C132.588 99.9054 132.251 100.243 132.251 100.659C132.251 101.075 132.588 101.412 133.002 101.412Z" fill="#FCC62D"/>
<path d="M133.259 99.4434C133.674 99.4434 134.01 99.1061 134.01 98.6899C134.01 98.2738 133.674 97.9364 133.259 97.9364C132.844 97.9364 132.508 98.2738 132.508 98.6899C132.508 99.1061 132.844 99.4434 133.259 99.4434Z" fill="#FCC62D"/>
<path d="M149.571 86.3106C149.571 86.3106 146.384 85.6042 147.884 80.592C149.384 75.5797 153.564 77.4007 154.185 79.3069C154.185 79.3069 156.238 79.0827 157.217 81.9689C158.196 84.8552 154.009 86.6941 152.54 87.2346C151.071 87.7751 149.985 87.109 149.571 86.3106Z" fill="#3166F7"/>
<path d="M153.93 79.9482C153.518 79.8668 153.151 79.6312 152.904 79.2889C152.585 78.8404 152.062 78.3044 151.4 78.2618C150.262 78.19 149.907 78.7484 149.804 79.114C149.701 79.4795 150.101 80.5672 151.816 81.0852C152.149 81.1974 152.435 81.4205 152.625 81.7177C153.188 82.5474 154.454 84.0522 155.945 83.5118C157.699 82.8906 155.772 80.7735 155.321 80.5111C154.896 80.2401 154.424 80.0493 153.93 79.9482Z" fill="#75A5F9"/>
<path d="M154.91 81.2692C155.325 81.2692 155.661 80.9318 155.661 80.5157C155.661 80.0995 155.325 79.7621 154.91 79.7621C154.495 79.7621 154.159 80.0995 154.159 80.5157C154.159 80.9318 154.495 81.2692 154.91 81.2692Z" fill="#FCC62D"/>
<path d="M153.03 81.3365C153.444 81.3365 153.781 80.9992 153.781 80.583C153.781 80.1668 153.444 79.8295 153.03 79.8295C152.615 79.8295 152.278 80.1668 152.278 80.583C152.278 80.9992 152.615 81.3365 153.03 81.3365Z" fill="#FCC62D"/>
<path d="M152.618 79.511C153.033 79.511 153.37 79.1737 153.37 78.7575C153.37 78.3414 153.033 78.004 152.618 78.004C152.204 78.004 151.867 78.3414 151.867 78.7575C151.867 79.1737 152.204 79.511 152.618 79.511Z" fill="#FCC62D"/>
<path d="M154.59 79.3316C155.005 79.3316 155.341 78.9942 155.341 78.578C155.341 78.1619 155.005 77.8245 154.59 77.8245C154.175 77.8245 153.839 78.1619 153.839 78.578C153.839 78.9942 154.175 79.3316 154.59 79.3316Z" fill="#FCC62D"/>
<path d="M150.085 125.586C149.939 125.719 149.759 125.809 149.565 125.847C149.372 125.884 149.171 125.867 148.986 125.798C148.801 125.728 148.639 125.609 148.517 125.452C148.396 125.296 148.32 125.11 148.297 124.913C148.013 122.222 147.946 117.407 150.425 114.115C154.026 109.331 156.358 112.222 155.904 115.178C155.484 117.831 154.158 121.706 150.085 125.586Z" fill="#43BD68"/>
<path d="M147.58 129.059C147.633 129.16 147.657 129.273 147.65 129.386C147.644 129.499 147.605 129.609 147.54 129.702C147.475 129.794 147.386 129.867 147.282 129.912C147.178 129.957 147.064 129.973 146.952 129.956C145.429 129.732 142.76 129.086 141.296 127.243C139.168 124.563 141.092 123.679 142.659 124.35C144.066 124.96 146.017 126.247 147.58 129.059Z" fill="#43BD68"/>
<path d="M148.57 132.403C148.63 132.451 148.676 132.515 148.702 132.587C148.729 132.66 148.734 132.738 148.718 132.814C148.702 132.889 148.665 132.958 148.612 133.014C148.558 133.069 148.49 133.109 148.416 133.128C147.417 133.385 145.597 133.679 144.213 132.921C142.201 131.818 143.162 130.768 144.307 130.775C145.333 130.775 146.876 131.069 148.57 132.403Z" fill="#43BD68"/>
<path d="M150.119 123.969C150.09 123.969 150.061 123.963 150.034 123.951C149.98 123.928 149.937 123.885 149.914 123.83C149.892 123.775 149.891 123.714 149.914 123.659C149.943 123.585 152.965 116.274 153.367 114.765C153.384 114.709 153.422 114.663 153.473 114.634C153.524 114.606 153.583 114.599 153.639 114.614C153.695 114.629 153.743 114.666 153.773 114.716C153.803 114.765 153.812 114.825 153.799 114.882C153.39 116.42 150.446 123.529 150.325 123.83C150.308 123.871 150.28 123.906 150.243 123.93C150.206 123.955 150.163 123.968 150.119 123.969Z" fill="#0D562A"/>
<path d="M145.854 128.665H145.796C145.706 128.64 143.574 128.046 141.647 125.727C141.609 125.681 141.591 125.622 141.596 125.563C141.601 125.503 141.63 125.449 141.676 125.411C141.721 125.373 141.78 125.354 141.839 125.36C141.899 125.365 141.953 125.394 141.991 125.44C143.829 127.651 145.892 128.225 145.912 128.232C145.971 128.24 146.025 128.271 146.062 128.318C146.098 128.366 146.114 128.426 146.106 128.485C146.099 128.545 146.068 128.599 146.02 128.635C145.973 128.672 145.913 128.688 145.854 128.68V128.665Z" fill="#0D562A"/>
<path d="M147.374 132.793C146.205 132.764 145.056 132.483 144.005 131.968C143.976 131.957 143.951 131.939 143.929 131.917C143.908 131.895 143.891 131.869 143.88 131.84C143.869 131.811 143.864 131.781 143.865 131.75C143.867 131.719 143.874 131.689 143.888 131.661C143.902 131.634 143.921 131.609 143.944 131.589C143.968 131.569 143.995 131.554 144.024 131.545C144.054 131.537 144.085 131.534 144.115 131.538C144.146 131.541 144.175 131.551 144.202 131.567C145.203 132.053 146.297 132.318 147.41 132.345C147.469 132.345 147.526 132.369 147.568 132.411C147.61 132.453 147.633 132.51 147.633 132.569C147.633 132.629 147.61 132.686 147.568 132.728C147.526 132.77 147.469 132.793 147.41 132.793H147.374Z" fill="#0D562A"/>
</g>
<g clip-path="url(#clip6)">
<path d="M266.424 139.582C270.059 130.82 272.415 121.417 273.937 112.72C273.463 108.163 266.56 101.123 266.484 101.058L267.18 100.365C267.434 100.623 272.545 105.819 274.333 110.387C274.876 106.981 275.299 103.713 275.614 100.663C275.473 99.7977 274.112 92.0719 269.381 85.9249L270.157 85.3239C273.416 89.5602 275.109 94.4109 275.925 97.4923C276.848 87.248 276.676 80.1344 276.671 79.9819L277.65 79.9528C277.65 80.0851 277.785 85.4293 277.226 93.5094C278.82 90.0064 280.914 89.7171 281.026 89.697L281.144 90.6747C281.111 90.6747 277.899 91.2332 276.779 98.8042C276.488 101.807 276.108 105.052 275.598 108.448C276.729 106.727 278.237 105.29 280.007 104.245L280.474 105.11C280.431 105.133 276.166 107.517 275.037 112.235H275.015C274.986 112.406 274.957 112.576 274.925 112.747C274.926 112.767 274.926 112.787 274.925 112.807H274.91C273.378 121.58 271.007 131.098 267.329 139.97L266.424 139.582Z" fill="#0D562A"/>
<path d="M266.987 101.188C266.987 101.188 269.989 99.8986 267.588 95.2541C265.187 90.6097 261.414 93.1887 261.157 95.1667C261.157 95.1667 259.098 95.3393 258.669 98.3489C258.24 101.359 262.693 102.386 264.244 102.65C265.795 102.915 266.73 102.049 266.987 101.188Z" fill="#75A5F9"/>
<path d="M261.53 95.7498C261.924 95.595 262.244 95.2949 262.425 94.911C262.648 94.4154 263.068 93.7897 263.712 93.6215C264.816 93.339 265.277 93.8211 265.438 94.162C265.599 94.5029 265.416 95.6444 263.84 96.4697C263.535 96.6435 263.298 96.9164 263.169 97.2434C262.769 98.1628 261.805 99.8784 260.243 99.6385C258.403 99.3537 259.903 96.9137 260.299 96.5728C260.657 96.227 261.074 95.9483 261.53 95.7498Z" fill="#3166F7"/>
<path d="M260.667 97.2456C260.253 97.2456 259.916 96.9082 259.916 96.4921C259.916 96.0759 260.253 95.7386 260.667 95.7386C261.082 95.7386 261.419 96.0759 261.419 96.4921C261.419 96.9082 261.082 97.2456 260.667 97.2456Z" fill="#FCC62D"/>
<path d="M262.528 96.9608C262.113 96.9608 261.776 96.6235 261.776 96.2073C261.776 95.7911 262.113 95.4538 262.528 95.4538C262.942 95.4538 263.279 95.7911 263.279 96.2073C263.279 96.6235 262.942 96.9608 262.528 96.9608Z" fill="#FCC62D"/>
<path d="M262.594 95.0904C262.18 95.0904 261.843 94.7531 261.843 94.3369C261.843 93.9208 262.18 93.5834 262.594 93.5834C263.009 93.5834 263.345 93.9208 263.345 94.3369C263.345 94.7531 263.009 95.0904 262.594 95.0904Z" fill="#FCC62D"/>
<path d="M260.623 95.2811C260.208 95.2811 259.872 94.9437 259.872 94.5276C259.872 94.1114 260.208 93.774 260.623 93.774C261.038 93.774 261.374 94.1114 261.374 94.5276C261.374 94.9437 261.038 95.2811 260.623 95.2811Z" fill="#FCC62D"/>
<path d="M280.637 90.9349C280.637 90.9349 281.813 93.9961 286.527 91.7534C291.242 89.5108 288.803 85.6378 286.847 85.3082C286.847 85.3082 286.751 83.2382 283.766 82.7C280.782 82.1618 279.593 86.5954 279.28 88.1316C278.967 89.6678 279.79 90.6456 280.637 90.9349Z" fill="#75A5F9"/>
<path d="M286.252 85.6557C286.395 86.0528 286.681 86.3812 287.055 86.5752C287.54 86.8196 288.152 87.2682 288.293 87.914C288.537 89.0286 288.038 89.4659 287.685 89.6229C287.332 89.7799 286.21 89.5467 285.45 87.9365C285.289 87.6214 285.025 87.3713 284.703 87.2278C283.809 86.7927 282.128 85.7656 282.425 84.207C282.774 82.3725 285.152 83.9648 285.476 84.3752C285.811 84.7511 286.073 85.1851 286.252 85.6557Z" fill="#3166F7"/>
<path d="M285.546 85.5234C285.131 85.5234 284.795 85.1861 284.795 84.7699C284.795 84.3538 285.131 84.0164 285.546 84.0164C285.961 84.0164 286.297 84.3538 286.297 84.7699C286.297 85.1861 285.961 85.5234 285.546 85.5234Z" fill="#FCC62D"/>
<path d="M285.761 87.3983C285.346 87.3983 285.009 87.0609 285.009 86.6448C285.009 86.2286 285.346 85.8912 285.761 85.8912C286.175 85.8912 286.512 86.2286 286.512 86.6448C286.512 87.0609 286.175 87.3983 285.761 87.3983Z" fill="#FCC62D"/>
<path d="M287.622 87.5329C287.208 87.5329 286.871 87.1955 286.871 86.7794C286.871 86.3632 287.208 86.0258 287.622 86.0258C288.037 86.0258 288.374 86.3632 288.374 86.7794C288.374 87.1955 288.037 87.5329 287.622 87.5329Z" fill="#FCC62D"/>
<path d="M287.504 85.5504C287.089 85.5504 286.753 85.213 286.753 84.7969C286.753 84.3807 287.089 84.0433 287.504 84.0433C287.919 84.0433 288.255 84.3807 288.255 84.7969C288.255 85.213 287.919 85.5504 287.504 85.5504Z" fill="#FCC62D"/>
<path d="M277.179 79.9685C277.179 79.9685 280.163 81.2781 281.891 76.3421C283.619 71.4061 279.164 70.4149 277.55 71.5811C277.55 71.5811 276.016 70.1951 273.526 71.9444C271.036 73.6936 273.349 77.6586 274.219 78.9638C275.089 80.269 276.37 80.3699 277.179 79.9685Z" fill="#75A5F9"/>
<path d="M277.38 72.2426C277.76 72.4221 278.195 72.4486 278.594 72.3166C279.115 72.1551 279.861 72.0183 280.413 72.3816C281.375 72.9939 281.334 73.6555 281.205 74.012C281.075 74.3686 280.112 75.0122 278.431 74.4247C278.095 74.318 277.733 74.3299 277.405 74.4583C276.463 74.7969 274.557 75.2679 273.662 73.9582C272.609 72.4198 275.408 71.8457 275.927 71.9017C276.428 71.9268 276.92 72.0423 277.38 72.2426Z" fill="#3166F7"/>
<path d="M276.253 72.8863C275.838 72.8863 275.502 72.5489 275.502 72.1327C275.502 71.7166 275.838 71.3792 276.253 71.3792C276.668 71.3792 277.004 71.7166 277.004 72.1327C277.004 72.5489 276.668 72.8863 276.253 72.8863Z" fill="#FCC62D"/>
<path d="M277.733 74.0502C277.318 74.0502 276.982 73.7129 276.982 73.2967C276.982 72.8806 277.318 72.5432 277.733 72.5432C278.148 72.5432 278.484 72.8806 278.484 73.2967C278.484 73.7129 278.148 74.0502 277.733 74.0502Z" fill="#FCC62D"/>
<path d="M279.137 72.8168C278.722 72.8168 278.386 72.4794 278.386 72.0633C278.386 71.6471 278.722 71.3097 279.137 71.3097C279.552 71.3097 279.888 71.6471 279.888 72.0633C279.888 72.4794 279.552 72.8168 279.137 72.8168Z" fill="#FCC62D"/>
<path d="M277.648 71.5071C277.233 71.5071 276.897 71.1697 276.897 70.7536C276.897 70.3374 277.233 70 277.648 70C278.063 70 278.399 70.3374 278.399 70.7536C278.399 71.1697 278.063 71.5071 277.648 71.5071Z" fill="#FCC62D"/>
<path d="M279.564 105.29C279.564 105.29 280.95 108.255 285.497 105.696C290.044 103.137 287.352 99.4367 285.372 99.2438C285.372 99.2438 285.132 97.1873 282.119 96.8554C279.106 96.5235 278.225 101.029 278.017 102.585C277.809 104.142 278.699 105.059 279.564 105.29Z" fill="#3166F7"/>
<path d="M284.804 99.6317C284.973 100.022 285.284 100.332 285.673 100.5C286.174 100.724 286.813 101.107 286.999 101.747C287.319 102.845 286.854 103.316 286.518 103.496C286.183 103.675 285.041 103.523 284.167 101.969C283.984 101.666 283.704 101.434 283.373 101.311C282.443 100.944 280.704 100.033 280.892 98.4566C281.115 96.6042 283.594 98.026 283.948 98.414C284.304 98.7645 284.594 99.1771 284.804 99.6317Z" fill="#75A5F9"/>
<path d="M284.037 99.551C283.622 99.551 283.286 99.2136 283.286 98.7975C283.286 98.3813 283.622 98.044 284.037 98.044C284.452 98.044 284.788 98.3813 284.788 98.7975C284.788 99.2136 284.452 99.551 284.037 99.551Z" fill="#FCC62D"/>
<path d="M284.381 101.408C283.966 101.408 283.63 101.071 283.63 100.654C283.63 100.238 283.966 99.9009 284.381 99.9009C284.796 99.9009 285.132 100.238 285.132 100.654C285.132 101.071 284.796 101.408 284.381 101.408Z" fill="#FCC62D"/>
<path d="M286.248 101.412C285.833 101.412 285.496 101.075 285.496 100.659C285.496 100.243 285.833 99.9054 286.248 99.9054C286.662 99.9054 286.999 100.243 286.999 100.659C286.999 101.075 286.662 101.412 286.248 101.412Z" fill="#FCC62D"/>
<path d="M285.991 99.4434C285.576 99.4434 285.24 99.1061 285.24 98.6899C285.24 98.2738 285.576 97.9364 285.991 97.9364C286.406 97.9364 286.742 98.2738 286.742 98.6899C286.742 99.1061 286.406 99.4434 285.991 99.4434Z" fill="#FCC62D"/>
<path d="M269.679 86.3106C269.679 86.3106 272.866 85.6042 271.366 80.592C269.866 75.5797 265.686 77.4007 265.065 79.3069C265.065 79.3069 263.012 79.0827 262.033 81.9689C261.054 84.8552 265.241 86.6941 266.71 87.2346C268.179 87.7751 269.265 87.109 269.679 86.3106Z" fill="#3166F7"/>
<path d="M265.32 79.9482C265.732 79.8668 266.099 79.6312 266.346 79.2889C266.665 78.8404 267.188 78.3044 267.85 78.2618C268.988 78.19 269.343 78.7484 269.446 79.114C269.549 79.4795 269.149 80.5672 267.434 81.0852C267.101 81.1974 266.815 81.4205 266.625 81.7177C266.062 82.5474 264.796 84.0522 263.305 83.5118C261.551 82.8906 263.477 80.7735 263.929 80.5111C264.354 80.2401 264.826 80.0493 265.32 79.9482Z" fill="#75A5F9"/>
<path d="M264.34 81.2692C263.925 81.2692 263.589 80.9318 263.589 80.5157C263.589 80.0995 263.925 79.7621 264.34 79.7621C264.755 79.7621 265.091 80.0995 265.091 80.5157C265.091 80.9318 264.755 81.2692 264.34 81.2692Z" fill="#FCC62D"/>
<path d="M266.22 81.3365C265.806 81.3365 265.469 80.9992 265.469 80.583C265.469 80.1668 265.806 79.8295 266.22 79.8295C266.635 79.8295 266.972 80.1668 266.972 80.583C266.972 80.9992 266.635 81.3365 266.22 81.3365Z" fill="#FCC62D"/>
<path d="M266.632 79.511C266.217 79.511 265.88 79.1737 265.88 78.7575C265.88 78.3414 266.217 78.004 266.632 78.004C267.046 78.004 267.383 78.3414 267.383 78.7575C267.383 79.1737 267.046 79.511 266.632 79.511Z" fill="#FCC62D"/>
<path d="M264.66 79.3316C264.245 79.3316 263.909 78.9942 263.909 78.578C263.909 78.1619 264.245 77.8245 264.66 77.8245C265.075 77.8245 265.411 78.1619 265.411 78.578C265.411 78.9942 265.075 79.3316 264.66 79.3316Z" fill="#FCC62D"/>
<path d="M269.165 125.586C269.311 125.719 269.491 125.809 269.685 125.847C269.878 125.884 270.079 125.867 270.264 125.798C270.449 125.728 270.611 125.609 270.733 125.452C270.854 125.296 270.93 125.11 270.953 124.913C271.237 122.222 271.304 117.407 268.825 114.115C265.224 109.331 262.892 112.222 263.346 115.178C263.766 117.831 265.092 121.706 269.165 125.586Z" fill="#43BD68"/>
<path d="M271.67 129.059C271.617 129.16 271.593 129.273 271.6 129.386C271.606 129.499 271.645 129.609 271.71 129.702C271.775 129.794 271.864 129.867 271.968 129.912C272.072 129.957 272.186 129.973 272.298 129.956C273.821 129.732 276.49 129.086 277.954 127.243C280.082 124.563 278.158 123.679 276.591 124.35C275.184 124.96 273.233 126.247 271.67 129.059Z" fill="#43BD68"/>
<path d="M270.68 132.403C270.62 132.451 270.574 132.515 270.548 132.587C270.521 132.66 270.516 132.738 270.532 132.814C270.548 132.889 270.585 132.958 270.638 133.014C270.692 133.069 270.76 133.109 270.834 133.128C271.833 133.385 273.653 133.679 275.037 132.921C277.049 131.818 276.087 130.768 274.943 130.775C273.917 130.775 272.374 131.069 270.68 132.403Z" fill="#43BD68"/>
<path d="M269.131 123.969C269.16 123.969 269.189 123.963 269.216 123.951C269.27 123.928 269.313 123.885 269.336 123.83C269.358 123.775 269.359 123.714 269.336 123.659C269.307 123.585 266.285 116.274 265.883 114.765C265.866 114.709 265.828 114.663 265.777 114.634C265.726 114.606 265.667 114.599 265.611 114.614C265.555 114.629 265.507 114.666 265.477 114.716C265.447 114.765 265.438 114.825 265.451 114.882C265.86 116.42 268.804 123.529 268.925 123.83C268.942 123.871 268.97 123.906 269.007 123.93C269.044 123.955 269.087 123.968 269.131 123.969Z" fill="#0D562A"/>
<path d="M273.396 128.665H273.454C273.544 128.64 275.676 128.046 277.603 125.727C277.641 125.681 277.659 125.622 277.654 125.563C277.649 125.503 277.62 125.449 277.574 125.411C277.529 125.373 277.47 125.354 277.411 125.36C277.351 125.365 277.297 125.394 277.259 125.44C275.421 127.651 273.358 128.225 273.338 128.232C273.279 128.24 273.225 128.271 273.188 128.318C273.152 128.366 273.136 128.426 273.143 128.485C273.151 128.545 273.182 128.599 273.23 128.635C273.277 128.672 273.337 128.688 273.396 128.68V128.665Z" fill="#0D562A"/>
<path d="M271.876 132.793C273.045 132.764 274.194 132.483 275.245 131.968C275.274 131.957 275.299 131.939 275.321 131.917C275.342 131.895 275.359 131.869 275.37 131.84C275.381 131.811 275.386 131.781 275.385 131.75C275.383 131.719 275.376 131.689 275.362 131.661C275.348 131.634 275.329 131.609 275.306 131.589C275.282 131.569 275.255 131.554 275.226 131.545C275.196 131.537 275.165 131.534 275.135 131.538C275.104 131.541 275.075 131.551 275.048 131.567C274.047 132.053 272.953 132.318 271.84 132.345C271.781 132.345 271.724 132.369 271.682 132.411C271.64 132.453 271.617 132.51 271.617 132.569C271.617 132.629 271.64 132.686 271.682 132.728C271.724 132.77 271.781 132.793 271.84 132.793H271.876Z" fill="#0D562A"/>
</g>
</g>
<defs>
<clipPath id="clip0">
<rect width="375" height="140" fill="white"/>
</clipPath>
<clipPath id="clip1">
<rect width="36.0735" height="56.8431" fill="white" transform="matrix(-1 0 0 1 253.176 83.1177)"/>
</clipPath>
<clipPath id="clip2">
<rect width="36.0735" height="56.8431" fill="white" transform="matrix(-1 0 0 1 386.074 83.1177)"/>
</clipPath>
<clipPath id="clip3">
<rect width="55.75" height="44.8186" fill="white" transform="translate(158.074 95.1422)"/>
</clipPath>
<clipPath id="clip4">
<rect width="55.75" height="44.8186" fill="white" transform="translate(289.25 95.1422)"/>
</clipPath>
<clipPath id="clip5">
<rect width="30.6078" height="69.9608" fill="white" transform="translate(130 70)"/>
</clipPath>
<clipPath id="clip6">
<rect width="30.6078" height="69.9608" fill="white" transform="matrix(-1 0 0 1 289.25 70)"/>
</clipPath>
</defs>
</svg>
