<svg width="375" height="120" viewBox="0 0 375 120" fill="none" xmlns="http://www.w3.org/2000/svg">
<g clip-path="url(#clip0)">
<path d="M183 32C183 14.3269 197.327 0 215 0H327C344.673 0 359 14.3269 359 32V120H183V32Z" fill="#007F36"/>
<path d="M229.242 110.4C229.242 110.4 233.488 111.199 236.242 110.285C238.995 109.371 243.36 106.17 241.525 100.683C239.689 95.1969 237.202 97.6886 239.111 89.1419C240.491 82.9718 234.98 81.601 233.828 77.9424C232.675 74.2837 234.287 67.4234 229.925 65.8291C225.563 64.2348 225.335 70.1715 225.104 72.9163C224.873 75.6611 222.578 77.4855 220.052 79.0863C217.526 80.6872 216.381 87.3043 217.299 90.5126C218.217 93.7209 219.134 97.1429 215.232 99.4275C211.329 101.712 211.788 106.511 214.773 109.713C217.758 112.915 220.974 109.713 223.496 109.713C226.019 109.713 228.208 110.285 229.242 110.4Z" fill="#0D562A"/>
<path d="M232.345 99.7792C231.153 100.765 229.473 102.215 227.914 103.724C227.65 99.8548 227.399 95.7228 227.227 91.8045C228.158 89.2766 228.825 88.8296 229.228 88.3266C229.684 87.7547 233.115 84.3261 231.513 85.47C230.222 86.3938 227.96 88.7572 227.138 89.6349C227.046 87.1268 226.99 84.7469 226.99 82.6266C226.99 81.5517 226.537 89.4114 225.999 98.2803C224.926 97.1297 221.578 93.6091 219.689 92.2614C217.417 90.6375 222.284 95.5059 222.935 96.3178C223.509 97.0344 224.47 97.6754 225.811 101.35C225.276 110.009 224.695 120.903 224.394 122.688L229.265 122.901C229.265 122.901 228.637 113.839 228.043 105.496C228.489 104.654 229.423 103.3 231.375 101.387C235.915 96.9424 232.755 99.4341 232.345 99.7792Z" fill="#F4F4F4"/>
<path d="M228.419 70.1879C229.08 70.5856 230.202 71.6309 229.988 74.0865C229.978 74.1711 229.947 74.2518 229.896 74.3202C229.845 74.3886 229.777 74.4423 229.698 74.4757C229.619 74.5092 229.533 74.5212 229.448 74.5106C229.363 74.4999 229.283 74.467 229.215 74.4152C228.347 73.7413 227.009 72.3377 227.733 70.418C227.758 70.3539 227.797 70.296 227.847 70.2485C227.897 70.201 227.956 70.165 228.022 70.1431C228.087 70.1211 228.157 70.1138 228.226 70.1215C228.294 70.1293 228.36 70.1519 228.419 70.1879Z" fill="#007F36"/>
<path d="M222.07 80.9732C222.344 80.2435 223.176 78.9647 225.639 78.7313C225.725 78.7236 225.811 78.7388 225.888 78.7755C225.966 78.8122 226.032 78.869 226.08 78.9399C226.128 79.0108 226.156 79.0933 226.161 79.1786C226.166 79.2639 226.147 79.349 226.108 79.425C225.603 80.4111 224.457 81.9627 222.43 81.6011C222.361 81.5891 222.297 81.5622 222.24 81.5225C222.183 81.4828 222.136 81.4311 222.102 81.3712C222.067 81.3113 222.047 81.2445 222.041 81.1758C222.036 81.107 222.045 81.0378 222.07 80.9732Z" fill="#007F36"/>
<path d="M236.129 84.1157C236.459 84.8224 236.79 86.3148 235.198 88.2115C235.144 88.2777 235.073 88.3281 234.992 88.3573C234.911 88.3864 234.824 88.3933 234.74 88.3771C234.655 88.3609 234.577 88.3223 234.513 88.2654C234.449 88.2084 234.402 88.1353 234.376 88.0537C234.046 87.0084 233.739 85.0953 235.429 83.9217C235.486 83.8824 235.551 83.856 235.62 83.8445C235.688 83.833 235.758 83.8366 235.825 83.8551C235.892 83.8736 235.954 83.9066 236.006 83.9516C236.059 83.9966 236.101 84.0527 236.129 84.1157Z" fill="#007F36"/>
<path d="M229.859 93.4744C229.529 92.7644 229.199 91.2753 230.79 89.3753C230.845 89.3092 230.917 89.2592 230.998 89.2304C231.079 89.2016 231.166 89.195 231.251 89.2115C231.335 89.228 231.414 89.2669 231.478 89.3241C231.542 89.3812 231.59 89.4545 231.616 89.5363C231.946 90.5817 232.25 92.4948 230.559 93.6683C230.502 93.7071 230.437 93.733 230.369 93.7442C230.3 93.7554 230.23 93.7517 230.164 93.7332C230.097 93.7147 230.035 93.682 229.983 93.6373C229.93 93.5926 229.888 93.537 229.859 93.4744Z" fill="#007F36"/>
<path d="M223.691 90.0557C223.008 90.437 221.545 90.884 219.511 89.4837C219.44 89.4349 219.384 89.3681 219.348 89.2903C219.313 89.2126 219.299 89.1266 219.308 89.0416C219.317 88.9565 219.349 88.8755 219.4 88.8069C219.452 88.7384 219.521 88.6849 219.6 88.652C220.617 88.2313 222.502 87.7678 223.823 89.3456C223.867 89.3989 223.898 89.4609 223.915 89.5275C223.932 89.5941 223.935 89.6635 223.922 89.7311C223.91 89.7987 223.883 89.8627 223.843 89.9188C223.803 89.9748 223.751 90.0215 223.691 90.0557Z" fill="#007F36"/>
<path d="M231.88 82.9225C231.167 82.5938 229.935 81.6996 229.859 79.2342C229.856 79.1488 229.876 79.0641 229.918 78.9891C229.959 78.9142 230.02 78.8519 230.094 78.8087C230.168 78.7655 230.253 78.7432 230.339 78.744C230.425 78.7449 230.509 78.7689 230.582 78.8135C231.526 79.3789 233.022 80.6149 232.533 82.6069C232.516 82.6736 232.485 82.7359 232.441 82.7892C232.397 82.8426 232.342 82.8858 232.28 82.9158C232.218 82.9459 232.15 82.962 232.081 82.9632C232.012 82.9643 231.943 82.9504 231.88 82.9225Z" fill="#007F36"/>
<path d="M236.697 105.292C236.611 104.519 236.776 102.991 238.873 101.692C238.946 101.647 239.03 101.621 239.116 101.619C239.202 101.617 239.287 101.638 239.362 101.68C239.436 101.723 239.498 101.784 239.541 101.859C239.583 101.933 239.605 102.018 239.603 102.103C239.603 103.198 239.273 105.108 237.292 105.693C237.226 105.711 237.157 105.715 237.089 105.703C237.022 105.692 236.958 105.667 236.902 105.629C236.845 105.591 236.798 105.541 236.762 105.483C236.727 105.425 236.705 105.359 236.697 105.292Z" fill="#007F36"/>
<path d="M220.917 102.813C220.184 102.541 218.897 101.712 218.666 99.2599C218.658 99.1748 218.673 99.0891 218.71 99.0119C218.747 98.9347 218.804 98.8688 218.875 98.8211C218.946 98.7734 219.029 98.7456 219.115 98.7407C219.201 98.7357 219.286 98.7539 219.362 98.7931C220.353 99.2961 221.911 100.437 221.548 102.455C221.535 102.523 221.508 102.587 221.468 102.643C221.428 102.699 221.376 102.746 221.316 102.78C221.256 102.814 221.189 102.835 221.121 102.84C221.052 102.846 220.982 102.837 220.917 102.813Z" fill="#007F36"/>
<path d="M235.033 94.0037C235.796 94.1713 237.186 94.8091 237.764 97.2087C237.783 97.2919 237.78 97.3787 237.754 97.4602C237.729 97.5417 237.682 97.6148 237.618 97.6719C237.554 97.7291 237.476 97.7681 237.392 97.7849C237.308 97.8017 237.221 97.7957 237.14 97.7675C236.1 97.4059 234.383 96.4954 234.458 94.4442C234.461 94.3754 234.479 94.308 234.511 94.2468C234.543 94.1856 234.587 94.1321 234.642 94.0901C234.697 94.048 234.76 94.0185 234.828 94.0036C234.895 93.9887 234.965 93.9887 235.033 94.0037Z" fill="#007F36"/>
<path d="M230.506 107.149C230.78 106.419 231.609 105.137 234.075 104.907C234.161 104.899 234.247 104.915 234.325 104.951C234.402 104.988 234.468 105.045 234.516 105.116C234.564 105.187 234.592 105.269 234.597 105.354C234.602 105.44 234.584 105.525 234.544 105.601C234.039 106.587 232.893 108.139 230.863 107.777C230.795 107.764 230.731 107.737 230.675 107.697C230.619 107.656 230.573 107.605 230.539 107.545C230.505 107.485 230.484 107.419 230.479 107.351C230.473 107.282 230.482 107.214 230.506 107.149Z" fill="#007F36"/>
<path d="M221.69 107.363C221.076 107.843 219.709 108.507 217.47 107.429C217.393 107.391 217.328 107.333 217.281 107.262C217.234 107.19 217.208 107.107 217.204 107.022C217.2 106.936 217.22 106.852 217.26 106.776C217.301 106.701 217.361 106.638 217.434 106.594C218.372 106.025 220.168 105.279 221.726 106.64C221.777 106.687 221.817 106.744 221.843 106.808C221.869 106.872 221.881 106.941 221.877 107.01C221.874 107.079 221.855 107.146 221.823 107.207C221.791 107.268 221.745 107.321 221.69 107.363Z" fill="#007F36"/>
<path d="M226.151 109.306C226.134 109.306 226.118 109.3 226.105 109.289C226.092 109.278 226.084 109.263 226.082 109.246C226.022 108.589 226.022 107.771 226.022 107.761C226.022 107.752 226.024 107.743 226.028 107.735C226.031 107.727 226.036 107.719 226.043 107.713C226.049 107.707 226.057 107.702 226.065 107.699C226.074 107.696 226.083 107.694 226.092 107.695C226.109 107.695 226.126 107.702 226.138 107.714C226.151 107.726 226.158 107.743 226.158 107.761C226.158 107.761 226.158 108.592 226.217 109.233C226.218 109.242 226.217 109.251 226.215 109.259C226.212 109.267 226.208 109.275 226.202 109.282C226.197 109.289 226.19 109.294 226.182 109.298C226.175 109.302 226.166 109.305 226.158 109.306H226.151Z" fill="#F9C5CE"/>
<path d="M227.472 115.364C227.455 115.363 227.439 115.356 227.427 115.345C227.415 115.333 227.407 115.318 227.406 115.301C227.346 114.644 227.346 113.829 227.346 113.819C227.346 113.801 227.353 113.785 227.366 113.772C227.378 113.76 227.395 113.753 227.412 113.753C227.421 113.753 227.43 113.754 227.439 113.757C227.447 113.76 227.455 113.765 227.461 113.771C227.468 113.777 227.473 113.785 227.476 113.793C227.48 113.801 227.482 113.81 227.482 113.819C227.482 113.819 227.482 114.651 227.541 115.292C227.542 115.309 227.536 115.327 227.524 115.34C227.513 115.354 227.496 115.362 227.478 115.364H227.472Z" fill="#F9C5CE"/>
<path d="M227.254 110.877C227.245 110.876 227.236 110.874 227.228 110.87C227.22 110.866 227.213 110.861 227.207 110.854C227.201 110.847 227.196 110.839 227.194 110.831C227.191 110.822 227.19 110.813 227.191 110.804C227.25 110.147 227.25 109.342 227.25 109.332C227.25 109.323 227.252 109.314 227.256 109.306C227.259 109.298 227.264 109.29 227.271 109.284C227.277 109.278 227.285 109.273 227.294 109.27C227.302 109.267 227.311 109.266 227.32 109.266C227.337 109.266 227.354 109.273 227.366 109.285C227.379 109.298 227.386 109.314 227.386 109.332C227.386 109.332 227.386 110.17 227.326 110.814C227.325 110.832 227.316 110.848 227.303 110.86C227.289 110.872 227.272 110.878 227.254 110.877Z" fill="#F9C5CE"/>
<path d="M226.068 117.251C226.059 117.25 226.051 117.248 226.043 117.244C226.034 117.24 226.027 117.235 226.021 117.228C226.016 117.221 226.011 117.213 226.008 117.205C226.006 117.196 226.005 117.187 226.006 117.178C226.065 116.521 226.065 115.716 226.065 115.706C226.063 115.696 226.063 115.685 226.065 115.675C226.068 115.665 226.072 115.656 226.079 115.648C226.085 115.639 226.093 115.633 226.103 115.628C226.112 115.624 226.122 115.622 226.133 115.622C226.143 115.622 226.153 115.624 226.163 115.628C226.172 115.633 226.18 115.639 226.187 115.648C226.193 115.656 226.198 115.665 226.2 115.675C226.203 115.685 226.203 115.696 226.2 115.706C226.2 115.706 226.2 116.544 226.141 117.188C226.139 117.206 226.131 117.222 226.117 117.234C226.104 117.246 226.086 117.252 226.068 117.251Z" fill="#F9C5CE"/>
<path d="M226.864 119.121C226.849 119.117 226.836 119.109 226.827 119.097C226.817 119.085 226.812 119.071 226.811 119.055C226.871 118.398 226.871 117.593 226.871 117.583C226.871 117.564 226.878 117.547 226.891 117.534C226.904 117.521 226.922 117.514 226.94 117.514C226.958 117.514 226.975 117.522 226.988 117.535C227.001 117.548 227.009 117.565 227.009 117.583C227.009 117.583 227.009 118.421 226.947 119.065C226.945 119.074 226.942 119.083 226.937 119.091C226.932 119.099 226.925 119.105 226.917 119.111C226.91 119.116 226.901 119.119 226.892 119.121C226.883 119.123 226.873 119.123 226.864 119.121Z" fill="#F9C5CE"/>
<path d="M228.109 121.228C228.1 121.228 228.091 121.226 228.083 121.222C228.075 121.218 228.068 121.212 228.062 121.206C228.056 121.199 228.052 121.191 228.049 121.182C228.046 121.174 228.045 121.165 228.046 121.156C228.106 120.515 228.106 119.693 228.106 119.683C228.106 119.674 228.107 119.666 228.111 119.657C228.115 119.649 228.12 119.642 228.126 119.636C228.133 119.629 228.14 119.625 228.149 119.622C228.157 119.618 228.166 119.617 228.175 119.618C228.193 119.618 228.209 119.624 228.222 119.637C228.234 119.649 228.241 119.666 228.241 119.683C228.241 119.683 228.241 120.522 228.182 121.166C228.18 121.184 228.171 121.2 228.158 121.212C228.144 121.223 228.127 121.229 228.109 121.228Z" fill="#F9C5CE"/>
<path d="M226.3 113.812C226.29 113.811 226.282 113.809 226.273 113.805C226.265 113.8 226.258 113.794 226.252 113.787C226.246 113.78 226.242 113.772 226.239 113.764C226.237 113.755 226.236 113.746 226.237 113.737C226.296 113.099 226.296 112.274 226.296 112.267C226.296 112.258 226.298 112.249 226.301 112.241C226.305 112.232 226.31 112.225 226.317 112.218C226.323 112.212 226.331 112.207 226.339 112.203C226.347 112.2 226.356 112.198 226.366 112.198C226.375 112.198 226.384 112.2 226.392 112.203C226.4 112.207 226.408 112.212 226.415 112.218C226.421 112.225 226.426 112.232 226.43 112.241C226.433 112.249 226.435 112.258 226.435 112.267C226.435 112.267 226.435 113.105 226.375 113.75C226.375 113.759 226.372 113.768 226.368 113.776C226.363 113.784 226.358 113.791 226.351 113.797C226.343 113.803 226.335 113.807 226.327 113.81C226.318 113.812 226.309 113.813 226.3 113.812Z" fill="#F9C5CE"/>
<path d="M227.082 98.5235C227.065 98.5236 227.048 98.5172 227.035 98.5057C227.022 98.4941 227.014 98.4782 227.013 98.4611C226.953 97.8036 226.953 96.9884 226.953 96.9785C226.953 96.9696 226.955 96.9608 226.959 96.9526C226.962 96.9444 226.967 96.937 226.974 96.9309C226.98 96.9247 226.988 96.9199 226.996 96.9168C227.005 96.9137 227.014 96.9124 227.023 96.9128C227.04 96.9128 227.057 96.9197 227.069 96.9321C227.082 96.9444 227.089 96.9611 227.089 96.9785C227.089 96.9785 227.089 97.8102 227.148 98.4512C227.149 98.4599 227.148 98.4686 227.146 98.4769C227.143 98.4852 227.139 98.493 227.134 98.4997C227.128 98.5064 227.121 98.512 227.114 98.5161C227.106 98.5202 227.097 98.5227 227.089 98.5235H227.082Z" fill="#F9C5CE"/>
<path d="M225.732 99.6609C225.719 99.661 225.707 99.6576 225.697 99.6513C225.686 99.6449 225.678 99.6357 225.672 99.6247C225.372 99.0462 225.058 98.2803 225.055 98.2737C225.049 98.2652 225.045 98.2556 225.044 98.2456C225.042 98.2355 225.043 98.2252 225.046 98.2155C225.049 98.2057 225.054 98.1967 225.061 98.1892C225.068 98.1816 225.076 98.1756 225.085 98.1717C225.095 98.1677 225.105 98.1659 225.115 98.1663C225.125 98.1667 225.135 98.1694 225.145 98.1741C225.154 98.1789 225.161 98.1855 225.168 98.1937C225.174 98.2018 225.178 98.2111 225.18 98.2211C225.18 98.2211 225.51 98.9903 225.791 99.5623C225.796 99.5697 225.799 99.5781 225.8 99.5867C225.801 99.5953 225.8 99.6041 225.798 99.6125C225.795 99.6209 225.791 99.6286 225.785 99.6352C225.78 99.6419 225.773 99.6473 225.765 99.651L225.732 99.6609Z" fill="#F9C5CE"/>
<path d="M226.838 95.2363C226.821 95.2356 226.805 95.2289 226.793 95.2174C226.781 95.2059 226.773 95.1904 226.772 95.1738C226.712 94.5164 226.712 93.7012 226.712 93.6913C226.712 93.6739 226.719 93.6572 226.732 93.6448C226.744 93.6325 226.761 93.6256 226.778 93.6256C226.787 93.6251 226.796 93.6265 226.805 93.6296C226.813 93.6327 226.821 93.6375 226.827 93.6436C226.834 93.6498 226.839 93.6572 226.842 93.6654C226.846 93.6736 226.848 93.6824 226.848 93.6913C226.848 93.6913 226.848 94.523 226.907 95.164C226.908 95.1729 226.907 95.1819 226.904 95.1904C226.902 95.1989 226.897 95.2068 226.891 95.2136C226.885 95.2204 226.878 95.2259 226.87 95.2298C226.862 95.2337 226.853 95.2359 226.844 95.2363H226.838Z" fill="#F9C5CE"/>
<path d="M226.848 91.4429H226.811C226.794 91.4369 226.781 91.4247 226.773 91.4088C226.765 91.3928 226.763 91.3744 226.768 91.3574C226.967 90.7427 227.29 89.9768 227.293 89.9702C227.297 89.9619 227.302 89.9542 227.308 89.9478C227.314 89.9414 227.322 89.9363 227.33 89.933C227.338 89.9296 227.347 89.9279 227.356 89.9281C227.365 89.9283 227.374 89.9303 227.383 89.9341C227.391 89.9373 227.399 89.9422 227.405 89.9485C227.412 89.9548 227.417 89.9623 227.42 89.9706C227.423 89.979 227.425 89.9879 227.425 89.9968C227.425 90.0058 227.423 90.0147 227.419 90.0228C227.419 90.0228 227.089 90.7887 226.897 91.4002C226.894 91.4111 226.887 91.4209 226.878 91.4285C226.87 91.436 226.859 91.441 226.848 91.4429Z" fill="#F9C5CE"/>
<path d="M226.448 105.374C226.431 105.373 226.415 105.367 226.403 105.355C226.391 105.344 226.384 105.328 226.382 105.312C226.323 104.654 226.323 103.836 226.323 103.829C226.322 103.82 226.324 103.811 226.327 103.803C226.33 103.795 226.335 103.787 226.341 103.78C226.347 103.774 226.354 103.769 226.363 103.765C226.371 103.762 226.38 103.76 226.389 103.76C226.398 103.76 226.407 103.762 226.415 103.765C226.424 103.769 226.431 103.774 226.438 103.78C226.444 103.787 226.449 103.794 226.453 103.803C226.456 103.811 226.458 103.82 226.458 103.829C226.458 103.829 226.458 104.661 226.517 105.298C226.518 105.316 226.512 105.334 226.501 105.347C226.489 105.361 226.473 105.369 226.455 105.371L226.448 105.374Z" fill="#F9C5CE"/>
<path d="M227.868 104.897C227.856 104.902 227.843 104.902 227.832 104.897C227.824 104.893 227.817 104.887 227.812 104.88C227.806 104.873 227.803 104.865 227.8 104.856C227.798 104.848 227.798 104.839 227.799 104.83C227.801 104.821 227.804 104.813 227.808 104.805C228.158 104.26 228.67 103.602 228.674 103.596C228.678 103.587 228.685 103.579 228.693 103.573C228.701 103.567 228.71 103.562 228.72 103.56C228.73 103.558 228.74 103.558 228.75 103.56C228.76 103.562 228.769 103.566 228.777 103.572C228.785 103.579 228.792 103.586 228.796 103.595C228.801 103.604 228.804 103.614 228.804 103.624C228.805 103.634 228.803 103.644 228.799 103.653C228.796 103.663 228.79 103.671 228.783 103.678C228.783 103.678 228.271 104.335 227.924 104.878C227.917 104.885 227.908 104.89 227.898 104.894C227.888 104.897 227.878 104.898 227.868 104.897Z" fill="#F9C5CE"/>
<path d="M226.58 101.61C226.562 101.609 226.546 101.6 226.534 101.587C226.523 101.573 226.517 101.556 226.517 101.538C226.577 100.897 226.577 100.075 226.577 100.069C226.577 100.05 226.584 100.033 226.597 100.02C226.61 100.007 226.628 99.9995 226.646 99.9995C226.655 99.9995 226.664 100.001 226.672 100.005C226.681 100.008 226.688 100.013 226.694 100.02C226.7 100.026 226.705 100.034 226.708 100.042C226.711 100.051 226.713 100.06 226.712 100.069C226.712 100.069 226.712 100.903 226.653 101.551C226.65 101.568 226.642 101.584 226.628 101.595C226.615 101.606 226.598 101.611 226.58 101.61Z" fill="#F9C5CE"/>
<path d="M227.046 107.222C227.037 107.221 227.028 107.219 227.02 107.215C227.012 107.211 227.005 107.206 226.999 107.199C226.993 107.192 226.988 107.184 226.986 107.176C226.983 107.167 226.982 107.158 226.983 107.149C227.042 106.508 227.042 105.686 227.042 105.677C227.042 105.659 227.049 105.642 227.062 105.63C227.074 105.618 227.091 105.611 227.108 105.611C227.117 105.61 227.126 105.612 227.135 105.615C227.143 105.618 227.151 105.623 227.157 105.629C227.164 105.635 227.169 105.642 227.173 105.651C227.176 105.659 227.178 105.668 227.178 105.677C227.178 105.677 227.178 106.515 227.118 107.159C227.117 107.177 227.108 107.193 227.095 107.205C227.081 107.216 227.064 107.222 227.046 107.222Z" fill="#F9C5CE"/>
<path d="M227.274 103.767C227.264 103.766 227.256 103.763 227.247 103.759C227.239 103.755 227.232 103.749 227.226 103.742C227.221 103.735 227.216 103.727 227.214 103.718C227.211 103.709 227.21 103.7 227.211 103.691C227.27 103.053 227.27 102.231 227.27 102.222C227.27 102.213 227.272 102.204 227.276 102.195C227.279 102.187 227.284 102.179 227.291 102.173C227.297 102.166 227.305 102.161 227.313 102.158C227.321 102.154 227.331 102.153 227.34 102.153C227.349 102.153 227.358 102.154 227.366 102.158C227.375 102.161 227.382 102.166 227.389 102.173C227.395 102.179 227.4 102.187 227.404 102.195C227.407 102.204 227.409 102.213 227.409 102.222C227.409 102.222 227.409 103.06 227.35 103.704C227.349 103.713 227.346 103.722 227.342 103.73C227.338 103.738 227.332 103.745 227.325 103.751C227.318 103.757 227.309 103.761 227.301 103.764C227.292 103.767 227.283 103.768 227.274 103.767Z" fill="#F9C5CE"/>
<path d="M193.073 102.218C193.073 102.218 186.05 103.533 181.493 102.028C176.936 100.522 169.725 95.2265 172.763 86.1571C175.8 77.0877 179.905 81.2263 176.748 67.0716C174.47 56.8813 183.583 54.6 185.478 48.5549C187.374 42.5097 184.719 31.1722 191.934 28.526C199.148 25.8798 199.528 35.7052 199.904 40.2415C200.281 44.7779 204.081 47.8021 208.255 50.4318C212.428 53.0616 214.33 64.0343 212.811 69.3267C211.292 74.619 209.774 80.2862 216.225 84.0632C222.677 87.8402 221.921 95.7787 216.985 101.071C212.049 106.364 206.749 101.071 202.562 101.071C198.375 101.071 194.783 102.028 193.073 102.218Z" fill="#3CA064"/>
<path d="M204.979 84.6613C202.998 86.2852 200.231 88.6881 197.652 91.2061C197.213 84.8093 196.8 77.9817 196.513 71.4994C198.055 67.3214 199.155 66.5686 199.815 65.7501C200.571 64.8067 206.241 59.1362 203.596 61.0264C201.456 62.5516 197.718 66.4634 196.358 67.9295C196.203 63.7811 196.114 59.8463 196.114 56.3421C196.114 54.5638 195.364 67.558 194.463 82.2222C192.683 80.3222 187.149 74.5006 184.025 72.2686C180.288 69.5698 188.341 77.6366 189.414 78.9515C190.365 80.1414 191.95 81.1999 194.169 87.2747C193.284 101.594 192.326 119.604 191.828 122.556L199.878 122.908C199.878 122.908 198.844 107.925 197.86 94.1285C198.597 92.738 200.145 90.5125 203.368 87.3338C210.883 79.9672 205.679 84.0894 204.979 84.6613Z" fill="#F4F4F4"/>
<path d="M191.045 48.0191C190.715 46.77 190.656 44.252 193.792 41.6354C193.901 41.5445 194.032 41.4843 194.172 41.4612C194.311 41.4381 194.455 41.4528 194.587 41.5039C194.719 41.5551 194.835 41.6406 194.922 41.7517C195.009 41.8627 195.065 41.9951 195.083 42.135C195.315 43.9331 195.229 47.1316 192.112 48.5352C192.008 48.5796 191.897 48.6013 191.784 48.5987C191.672 48.5962 191.561 48.5695 191.46 48.5205C191.358 48.4715 191.269 48.4014 191.198 48.3149C191.126 48.2283 191.074 48.1274 191.045 48.0191Z" fill="#007F36"/>
<path d="M189.17 60.8194C187.958 60.3657 185.832 59.0016 185.445 54.955C185.433 54.8145 185.459 54.6733 185.52 54.5461C185.581 54.419 185.676 54.3105 185.793 54.2319C185.911 54.1534 186.048 54.1077 186.189 54.0996C186.331 54.0915 186.472 54.1212 186.598 54.1858C188.216 55.0175 190.811 56.901 190.213 60.2441C190.191 60.3549 190.145 60.4594 190.078 60.5506C190.011 60.6417 189.924 60.7173 189.825 60.772C189.726 60.8267 189.616 60.8593 189.503 60.8675C189.39 60.8757 189.276 60.8593 189.17 60.8194Z" fill="#007F36"/>
<path d="M203.368 56.8484C202.156 56.3948 200.03 55.0306 199.643 50.9709C199.631 50.8304 199.657 50.6892 199.718 50.562C199.78 50.4348 199.874 50.3263 199.992 50.2478C200.109 50.1693 200.246 50.1235 200.387 50.1154C200.529 50.1073 200.67 50.1371 200.796 50.2017C202.414 51.0334 205.009 52.9169 204.428 56.2567C204.407 56.3706 204.362 56.4786 204.295 56.573C204.227 56.6673 204.14 56.7456 204.038 56.8022C203.937 56.8588 203.824 56.8923 203.708 56.9003C203.592 56.9083 203.476 56.8905 203.368 56.8484Z" fill="#007F36"/>
<path d="M204.141 80.4472C202.929 79.9969 200.802 78.6327 200.416 74.573C200.403 74.4322 200.429 74.2906 200.49 74.1629C200.551 74.0353 200.645 73.9262 200.763 73.8473C200.88 73.7683 201.017 73.7223 201.159 73.7141C201.301 73.7059 201.442 73.7357 201.568 73.8005C203.186 74.6354 205.782 76.519 205.2 79.8588C205.18 79.9727 205.135 80.0807 205.067 80.175C205 80.2693 204.912 80.3474 204.811 80.4037C204.709 80.4601 204.597 80.4932 204.481 80.5007C204.365 80.5083 204.249 80.49 204.141 80.4472Z" fill="#007F36"/>
<path d="M190.669 68.5804C189.54 69.2115 187.123 69.9544 183.755 67.6337C183.639 67.5527 183.546 67.4422 183.488 67.3137C183.429 67.1851 183.406 67.0433 183.421 66.903C183.436 66.7626 183.489 66.6289 183.574 66.5157C183.659 66.4026 183.772 66.3141 183.903 66.2596C185.584 65.5627 188.704 64.8001 190.887 67.4069C190.959 67.4946 191.012 67.5971 191.041 67.7072C191.069 67.8173 191.073 67.9323 191.053 68.0442C191.032 68.156 190.987 68.262 190.92 68.3546C190.854 68.4473 190.768 68.5243 190.669 68.5804Z" fill="#007F36"/>
<path d="M212.171 93.7736C212.032 92.4949 212.303 89.99 215.77 87.8238C215.89 87.7489 216.029 87.7077 216.171 87.7044C216.313 87.7012 216.453 87.736 216.577 87.8052C216.701 87.8744 216.804 87.9755 216.875 88.0979C216.946 88.2203 216.983 88.3595 216.982 88.5009C216.962 90.3122 216.437 93.4679 213.171 94.4376C213.061 94.4695 212.946 94.477 212.832 94.4597C212.719 94.4424 212.611 94.4006 212.516 94.3374C212.42 94.2741 212.34 94.1909 212.281 94.0935C212.221 93.9961 212.184 93.8869 212.171 93.7736Z" fill="#007F36"/>
<path d="M185.085 86.042C183.887 85.5917 181.747 84.2111 181.364 80.1678C181.351 80.0272 181.375 79.8855 181.436 79.7577C181.496 79.6298 181.59 79.5206 181.708 79.4416C181.826 79.3625 181.963 79.3164 182.104 79.3083C182.246 79.3002 182.387 79.3302 182.513 79.3953C184.131 80.227 186.73 82.1138 186.145 85.4536C186.125 85.5676 186.08 85.6756 186.012 85.7698C185.945 85.8641 185.857 85.9422 185.756 85.9986C185.654 86.0549 185.541 86.0881 185.425 86.0956C185.31 86.1031 185.193 86.0848 185.085 86.042Z" fill="#007F36"/>
<path d="M203.639 68.2846C203.919 67.0256 204.979 64.7377 208.961 63.791C209.1 63.7589 209.244 63.7644 209.379 63.8068C209.515 63.8493 209.636 63.9271 209.731 64.0323C209.826 64.1374 209.89 64.266 209.918 64.4045C209.946 64.5431 209.936 64.6865 209.889 64.8199C209.288 66.5292 207.776 69.3529 204.372 69.2313C204.257 69.2268 204.145 69.1973 204.044 69.145C203.942 69.0927 203.853 69.0187 203.783 68.9285C203.713 68.8382 203.664 68.7337 203.639 68.6225C203.614 68.5112 203.614 68.3959 203.639 68.2846Z" fill="#007F36"/>
<path d="M206.597 98.9805C205.389 98.5301 203.259 97.1627 202.876 93.1063C202.862 92.9652 202.887 92.8229 202.947 92.6946C203.008 92.5664 203.102 92.4568 203.221 92.3776C203.339 92.2984 203.476 92.2525 203.618 92.2448C203.761 92.2371 203.902 92.2678 204.028 92.3338C205.646 93.1654 208.245 95.0523 207.66 98.3921C207.639 98.5058 207.593 98.6135 207.525 98.7074C207.457 98.8014 207.369 98.8792 207.268 98.9354C207.166 98.9916 207.054 99.0248 206.938 99.0326C206.822 99.0404 206.705 99.0226 206.597 98.9805Z" fill="#007F36"/>
<path d="M186.859 94.8847C185.842 95.6802 183.557 96.7781 179.882 94.9964C179.754 94.934 179.646 94.8387 179.569 94.7205C179.491 94.6023 179.447 94.4656 179.441 94.3246C179.434 94.1836 179.466 94.0434 179.532 93.9187C179.599 93.7941 179.698 93.6895 179.819 93.6158C181.374 92.6724 184.339 91.4463 186.895 93.6914C186.98 93.7675 187.047 93.861 187.092 93.9655C187.136 94.0699 187.158 94.1829 187.154 94.2964C187.151 94.41 187.123 94.5214 187.072 94.623C187.02 94.7246 186.948 94.8139 186.859 94.8847Z" fill="#007F36"/>
<path d="M194.707 100.414C194.679 100.413 194.651 100.402 194.631 100.382C194.61 100.363 194.597 100.337 194.595 100.308C194.499 99.2433 194.496 97.8726 194.496 97.8594C194.496 97.8295 194.507 97.8007 194.528 97.7792C194.549 97.7577 194.578 97.7452 194.608 97.7444C194.639 97.7444 194.668 97.7565 194.69 97.7781C194.711 97.7997 194.724 97.8289 194.724 97.8594C194.724 97.8594 194.724 99.2335 194.819 100.289C194.821 100.303 194.82 100.318 194.816 100.333C194.811 100.347 194.804 100.36 194.795 100.372C194.785 100.383 194.773 100.392 194.76 100.399C194.747 100.406 194.732 100.41 194.717 100.41L194.707 100.414Z" fill="#F9C5CE"/>
<path d="M196.942 110.43C196.915 110.429 196.888 110.418 196.867 110.4C196.846 110.381 196.833 110.355 196.83 110.328C196.734 109.259 196.731 107.889 196.731 107.876C196.736 107.849 196.75 107.825 196.771 107.807C196.791 107.79 196.818 107.78 196.845 107.78C196.872 107.78 196.899 107.79 196.92 107.807C196.94 107.825 196.954 107.849 196.959 107.876C196.959 107.876 196.959 109.25 197.055 110.305C197.057 110.335 197.048 110.365 197.029 110.388C197.01 110.411 196.982 110.426 196.952 110.43H196.942Z" fill="#F9C5CE"/>
<path d="M193.75 121.185C193.721 121.186 193.694 121.175 193.673 121.156C193.653 121.137 193.64 121.111 193.637 121.084C193.538 120.018 193.538 118.648 193.538 118.631C193.538 118.602 193.55 118.573 193.571 118.552C193.592 118.531 193.621 118.52 193.65 118.52C193.68 118.52 193.709 118.531 193.73 118.552C193.751 118.573 193.763 118.602 193.763 118.631C193.763 118.648 193.763 120.009 193.862 121.064C193.864 121.079 193.862 121.094 193.858 121.108C193.854 121.122 193.847 121.135 193.837 121.147C193.828 121.158 193.816 121.168 193.802 121.174C193.789 121.181 193.774 121.185 193.759 121.185H193.75Z" fill="#F9C5CE"/>
<path d="M196.559 103.011C196.545 103.01 196.53 103.006 196.517 102.999C196.503 102.993 196.491 102.983 196.482 102.972C196.472 102.961 196.465 102.947 196.461 102.933C196.456 102.919 196.455 102.904 196.457 102.889C196.553 101.834 196.553 100.473 196.553 100.46C196.55 100.443 196.551 100.426 196.555 100.41C196.56 100.394 196.568 100.379 196.578 100.366C196.589 100.353 196.603 100.343 196.618 100.336C196.633 100.329 196.65 100.325 196.667 100.325C196.684 100.325 196.7 100.329 196.715 100.336C196.731 100.343 196.744 100.353 196.755 100.366C196.766 100.379 196.774 100.394 196.778 100.41C196.783 100.426 196.783 100.443 196.781 100.46C196.781 100.46 196.781 101.844 196.682 102.909C196.678 102.938 196.664 102.965 196.641 102.984C196.618 103.003 196.589 103.012 196.559 103.011Z" fill="#F9C5CE"/>
<path d="M194.601 113.546C194.572 113.543 194.545 113.528 194.526 113.506C194.507 113.483 194.497 113.454 194.499 113.424C194.595 112.369 194.598 111.008 194.598 110.992C194.598 110.962 194.61 110.934 194.631 110.913C194.652 110.892 194.681 110.88 194.71 110.88C194.74 110.88 194.769 110.892 194.79 110.913C194.811 110.934 194.823 110.962 194.823 110.992C194.823 111.008 194.823 112.379 194.724 113.444C194.723 113.459 194.719 113.474 194.712 113.487C194.706 113.5 194.696 113.512 194.685 113.522C194.673 113.531 194.66 113.538 194.646 113.542C194.631 113.547 194.616 113.548 194.601 113.546Z" fill="#F9C5CE"/>
<path d="M195.916 116.639C195.901 116.638 195.886 116.634 195.873 116.627C195.86 116.62 195.848 116.611 195.839 116.6C195.829 116.588 195.822 116.575 195.818 116.561C195.813 116.547 195.812 116.532 195.813 116.518C195.909 115.459 195.909 114.098 195.909 114.085C195.914 114.058 195.927 114.034 195.948 114.016C195.969 113.999 195.996 113.989 196.023 113.989C196.05 113.989 196.077 113.999 196.097 114.016C196.118 114.034 196.132 114.058 196.137 114.085C196.137 114.085 196.137 115.469 196.038 116.537C196.034 116.567 196.02 116.594 195.997 116.613C195.974 116.632 195.945 116.641 195.916 116.639Z" fill="#F9C5CE"/>
<path d="M197.973 120.124C197.943 120.12 197.917 120.106 197.898 120.083C197.88 120.06 197.871 120.031 197.874 120.002C197.969 118.944 197.969 117.583 197.969 117.57C197.969 117.54 197.981 117.511 198.002 117.49C198.023 117.47 198.052 117.458 198.082 117.458C198.111 117.458 198.14 117.47 198.161 117.49C198.182 117.511 198.194 117.54 198.194 117.57C198.194 117.57 198.194 118.953 198.098 120.022C198.095 120.052 198.08 120.079 198.056 120.098C198.033 120.117 198.003 120.126 197.973 120.124Z" fill="#F9C5CE"/>
<path d="M194.981 107.859C194.966 107.858 194.952 107.855 194.938 107.848C194.925 107.841 194.913 107.832 194.903 107.821C194.894 107.809 194.887 107.796 194.882 107.782C194.878 107.767 194.877 107.752 194.879 107.738C194.975 106.679 194.978 105.321 194.978 105.305C194.978 105.275 194.99 105.247 195.011 105.226C195.032 105.205 195.06 105.193 195.09 105.193C195.12 105.193 195.148 105.205 195.169 105.226C195.191 105.247 195.202 105.275 195.202 105.305C195.202 105.321 195.202 106.692 195.103 107.757C195.103 107.772 195.099 107.787 195.092 107.8C195.085 107.813 195.076 107.825 195.064 107.835C195.053 107.844 195.04 107.851 195.025 107.856C195.011 107.86 194.996 107.861 194.981 107.859Z" fill="#F9C5CE"/>
<path d="M196.275 82.5839C196.247 82.5848 196.22 82.5747 196.199 82.5556C196.178 82.5366 196.165 82.5102 196.163 82.482C196.064 81.4136 196.064 80.0429 196.064 80.0297C196.064 80.0001 196.076 79.9717 196.097 79.9507C196.118 79.9297 196.147 79.918 196.176 79.918C196.206 79.918 196.235 79.9297 196.256 79.9507C196.277 79.9717 196.289 80.0001 196.289 80.0297C196.289 80.0297 196.289 81.4038 196.388 82.4623C196.39 82.4917 196.38 82.5208 196.361 82.5435C196.342 82.5661 196.315 82.5806 196.285 82.5839H196.275Z" fill="#F9C5CE"/>
<path d="M194.043 84.4445C194.023 84.4448 194.003 84.4395 193.985 84.429C193.968 84.4185 193.954 84.4034 193.944 84.3853C193.449 83.432 192.927 82.1631 192.921 82.15C192.91 82.1221 192.91 82.091 192.923 82.0636C192.935 82.0361 192.957 82.0146 192.985 82.0037C193.013 81.9928 193.044 81.9934 193.072 82.0055C193.1 82.0175 193.121 82.0399 193.132 82.0678C193.132 82.0678 193.654 83.34 194.142 84.2801C194.149 84.293 194.154 84.3072 194.155 84.3218C194.157 84.3364 194.155 84.3512 194.151 84.3652C194.147 84.3793 194.139 84.3923 194.13 84.4037C194.121 84.415 194.109 84.4244 194.096 84.4313C194.08 84.4402 194.062 84.4447 194.043 84.4445Z" fill="#F9C5CE"/>
<path d="M195.873 77.1502C195.845 77.1496 195.818 77.1389 195.797 77.1202C195.777 77.1014 195.764 77.0759 195.76 77.0483C195.665 75.9799 195.661 74.6092 195.661 74.596C195.661 74.5655 195.673 74.5362 195.695 74.5147C195.717 74.4931 195.746 74.481 195.777 74.481C195.807 74.4818 195.835 74.4943 195.856 74.5158C195.877 74.5373 195.889 74.5661 195.889 74.596C195.889 74.596 195.889 75.9701 195.985 77.0253C195.988 77.0553 195.979 77.0852 195.959 77.1085C195.94 77.1319 195.913 77.1468 195.883 77.1502H195.873Z" fill="#F9C5CE"/>
<path d="M195.886 70.8881H195.853C195.837 70.8841 195.822 70.8768 195.809 70.8665C195.796 70.8563 195.785 70.8434 195.778 70.8288C195.77 70.8142 195.766 70.7981 195.765 70.7817C195.765 70.7653 195.767 70.7489 195.774 70.7336C196.104 69.7146 196.635 68.4523 196.639 68.4326C196.644 68.4189 196.653 68.4065 196.663 68.3961C196.674 68.3857 196.687 68.3775 196.701 68.372C196.714 68.3665 196.729 68.3638 196.744 68.364C196.759 68.3643 196.774 68.3675 196.787 68.3734C196.801 68.3784 196.814 68.3862 196.825 68.3964C196.835 68.4066 196.844 68.4189 196.849 68.4326C196.855 68.4462 196.858 68.4609 196.857 68.4756C196.857 68.4903 196.853 68.5048 196.847 68.518C196.847 68.518 196.312 69.7869 195.988 70.7961C195.984 70.8206 195.971 70.8429 195.953 70.8596C195.934 70.8763 195.911 70.8863 195.886 70.8881Z" fill="#F9C5CE"/>
<path d="M195.229 93.9083C195.2 93.9076 195.173 93.8965 195.152 93.8771C195.132 93.8577 195.119 93.8314 195.116 93.8032C195.021 92.7381 195.017 91.3673 195.017 91.3542C195.017 91.3242 195.029 91.2955 195.05 91.274C195.071 91.2525 195.1 91.24 195.13 91.2391C195.16 91.2391 195.19 91.2513 195.211 91.2728C195.233 91.2944 195.245 91.3237 195.245 91.3542C195.245 91.3542 195.245 92.7282 195.341 93.7834C195.343 93.7982 195.342 93.8132 195.337 93.8275C195.333 93.8417 195.326 93.855 195.316 93.8664C195.307 93.8778 195.295 93.8871 195.282 93.8938C195.268 93.9004 195.254 93.9043 195.239 93.9051L195.229 93.9083Z" fill="#F9C5CE"/>
<path d="M197.573 93.1193C197.554 93.1242 197.533 93.1242 197.514 93.1193C197.489 93.1026 197.471 93.0769 197.464 93.0476C197.457 93.0183 197.462 92.9875 197.477 92.9616C198.058 92.0609 198.9 90.9892 198.907 90.9629C198.926 90.94 198.953 90.9251 198.982 90.9214C199.012 90.9177 199.042 90.9256 199.066 90.9432C199.077 90.9522 199.087 90.9635 199.095 90.9763C199.102 90.9891 199.107 91.0033 199.109 91.018C199.11 91.0327 199.109 91.0476 199.105 91.0618C199.101 91.0761 199.095 91.0894 199.085 91.101C199.085 91.101 198.243 92.1891 197.669 93.0733C197.658 93.0879 197.643 93.0996 197.626 93.1076C197.61 93.1156 197.592 93.1196 197.573 93.1193Z" fill="#F9C5CE"/>
<path d="M195.443 87.6824C195.414 87.6791 195.387 87.6646 195.368 87.642C195.349 87.6193 195.339 87.5902 195.341 87.5608C195.44 86.5056 195.44 85.1447 195.44 85.1282C195.44 85.0986 195.452 85.0702 195.473 85.0492C195.494 85.0283 195.523 85.0165 195.552 85.0165C195.582 85.0165 195.611 85.0283 195.632 85.0492C195.653 85.0702 195.665 85.0986 195.665 85.1282C195.665 85.1447 195.665 86.5154 195.569 87.5805C195.566 87.6105 195.551 87.6379 195.527 87.657C195.504 87.676 195.474 87.6852 195.443 87.6824Z" fill="#F9C5CE"/>
<path d="M196.213 96.9391C196.183 96.9358 196.155 96.9208 196.136 96.8975C196.117 96.8741 196.108 96.8442 196.11 96.8142C196.206 95.759 196.209 94.3981 196.209 94.385C196.209 94.3553 196.221 94.3269 196.242 94.3059C196.263 94.285 196.292 94.2732 196.322 94.2732C196.351 94.2732 196.38 94.285 196.401 94.3059C196.422 94.3269 196.434 94.3553 196.434 94.385C196.434 94.385 196.434 95.7689 196.335 96.8372C196.334 96.8519 196.33 96.8662 196.323 96.8793C196.316 96.8924 196.307 96.904 196.295 96.9135C196.284 96.923 196.271 96.9301 196.257 96.9345C196.242 96.9389 196.228 96.9405 196.213 96.9391Z" fill="#F9C5CE"/>
<path d="M196.592 91.2522C196.562 91.2489 196.535 91.234 196.516 91.2106C196.496 91.1872 196.487 91.1573 196.49 91.1273C196.586 90.0721 196.589 88.7112 196.589 88.6981C196.589 88.6684 196.601 88.64 196.622 88.619C196.643 88.5981 196.672 88.5863 196.701 88.5863C196.731 88.5863 196.76 88.5981 196.781 88.619C196.802 88.64 196.814 88.6684 196.814 88.6981C196.814 88.6981 196.814 90.082 196.715 91.1503C196.713 91.165 196.709 91.1793 196.702 91.1924C196.696 91.2055 196.686 91.2171 196.675 91.2266C196.663 91.2361 196.65 91.2432 196.636 91.2476C196.622 91.252 196.607 91.2536 196.592 91.2522Z" fill="#F9C5CE"/>
<path d="M178.548 90.0819C179.465 90.0819 180.208 89.3417 180.208 88.4285C180.208 87.5153 179.465 86.775 178.548 86.775C177.63 86.775 176.887 87.5153 176.887 88.4285C176.887 89.3417 177.63 90.0819 178.548 90.0819Z" fill="#FC7B6D"/>
<path d="M210.18 89.2438C211.097 89.2438 211.841 88.5035 211.841 87.5903C211.841 86.6772 211.097 85.9369 210.18 85.9369C209.262 85.9369 208.519 86.6772 208.519 87.5903C208.519 88.5035 209.262 89.2438 210.18 89.2438Z" fill="#FC7B6D"/>
<path d="M235.251 102.784C235.683 102.784 236.033 102.435 236.033 102.005C236.033 101.574 235.683 101.226 235.251 101.226C234.819 101.226 234.468 101.574 234.468 102.005C234.468 102.435 234.819 102.784 235.251 102.784Z" fill="#F7A1BC"/>
<path d="M234.303 91.8045C234.735 91.8045 235.086 91.4557 235.086 91.0254C235.086 90.5951 234.735 90.2463 234.303 90.2463C233.871 90.2463 233.521 90.5951 233.521 91.0254C233.521 91.4557 233.871 91.8045 234.303 91.8045Z" fill="#F7A1BC"/>
<path d="M223.245 105.016C223.677 105.016 224.028 104.667 224.028 104.237C224.028 103.806 223.677 103.458 223.245 103.458C222.813 103.458 222.463 103.806 222.463 104.237C222.463 104.667 222.813 105.016 223.245 105.016Z" fill="#F7A1BC"/>
<path d="M222.298 85.7528C222.73 85.7528 223.08 85.404 223.08 84.9738C223.08 84.5435 222.73 84.1947 222.298 84.1947C221.865 84.1947 221.515 84.5435 221.515 84.9738C221.515 85.404 221.865 85.7528 222.298 85.7528Z" fill="#F7A1BC"/>
<path d="M227.99 77.6104C228.422 77.6104 228.773 77.2616 228.773 76.8313C228.773 76.401 228.422 76.0522 227.99 76.0522C227.558 76.0522 227.208 76.401 227.208 76.8313C227.208 77.2616 227.558 77.6104 227.99 77.6104Z" fill="#F7A1BC"/>
<path d="M194.813 54.4718C195.73 54.4718 196.474 53.7316 196.474 52.8184C196.474 51.9052 195.73 51.1649 194.813 51.1649C193.895 51.1649 193.152 51.9052 193.152 52.8184C193.152 53.7316 193.895 54.4718 194.813 54.4718Z" fill="#FC7B6D"/>
<path d="M181.513 64.1756C182.43 64.1756 183.174 63.4353 183.174 62.5221C183.174 61.6089 182.43 60.8687 181.513 60.8687C180.595 60.8687 179.852 61.6089 179.852 62.5221C179.852 63.4353 180.595 64.1756 181.513 64.1756Z" fill="#FC7B6D"/>
</g>
<defs>
<clipPath id="clip0">
<rect width="375" height="120" fill="white"/>
</clipPath>
</defs>
</svg>
