<svg width="375" height="140" viewBox="0 0 375 140" fill="none" xmlns="http://www.w3.org/2000/svg">
<g clip-path="url(#clip0)">
<path d="M114 0H429V140H114V0Z" fill="#007F36"/>
<path d="M114 32C114 14.3269 128.327 0 146 0H397C414.673 0 429 14.3269 429 32V140H114V32Z" fill="#4BA36F"/>
<g clip-path="url(#clip1)">
<path d="M313.241 116.324C313.241 116.324 289.091 114.057 291.12 90.7078C293.15 67.3585 306.016 63.851 306.016 48.6715C306.016 33.492 299.987 33.6585 301.051 25.1906C302.166 16.352 317.529 13.1748 323.62 42.1936C329.711 71.2124 347.096 72.5714 340.551 96.6163C334.005 120.661 313.241 116.324 313.241 116.324Z" fill="#FC7459"/>
<path d="M314.433 103.357C314.39 97.285 314.463 95.499 314.495 90.6379C309.668 87.3507 307.81 80.8003 307.102 76.7395C307.051 76.4387 307.5 76.3098 307.586 76.6025C309.505 83.1234 313.139 85.9729 314.537 86.8592C314.754 66.7729 315.46 55.1224 315.818 60.6845C316.064 64.5009 316.265 81.3643 317.481 98.6789C326.305 96.1597 328.115 91.0462 329.634 87.9361C329.66 87.8849 329.704 87.8451 329.757 87.8242C329.811 87.8032 329.87 87.8026 329.924 87.8224C329.978 87.8422 330.022 87.881 330.05 87.9316C330.077 87.9823 330.085 88.0412 330.072 88.0973C327.326 99.9277 320.615 102.807 317.773 104.681C318.265 110.877 318.898 116.641 319.717 121.11C321.829 132.634 322.511 137.992 322.511 137.992L314.529 137.925C314.529 137.925 314.66 137.957 314.433 103.357Z" fill="#F4F4F4"/>
<path d="M339.286 91.116C339.255 90.8427 339.16 90.5805 339.009 90.3512C338.858 90.1219 338.655 89.9318 338.416 89.7968C338.178 89.6618 337.91 89.5856 337.637 89.5745C337.363 89.5634 337.091 89.6176 336.842 89.7329C336.736 89.786 336.614 89.7961 336.501 89.7611C336.388 89.726 336.293 89.6486 336.235 89.5449L336.198 89.4804C335.959 89.0991 335.582 88.8258 335.147 88.7181C334.711 88.6104 334.251 88.6768 333.864 88.9032C333.476 89.1296 333.191 89.4983 333.069 89.9317C332.947 90.365 332.997 90.8291 333.208 91.2261C333.23 91.2611 333.249 91.296 333.273 91.3309C333.489 91.686 333.567 92.1086 333.492 92.518C333.468 92.6846 333.479 92.8544 333.524 93.0166C333.569 93.1787 333.648 93.3295 333.755 93.4593C333.861 93.5891 333.994 93.695 334.144 93.7702C334.294 93.8453 334.458 93.8881 334.626 93.8957C334.969 93.8999 335.302 94.0085 335.583 94.2073C335.725 94.3149 335.889 94.3897 336.063 94.4262C336.237 94.4628 336.417 94.4602 336.59 94.4186C336.763 94.377 336.925 94.2975 337.064 94.1857C337.202 94.074 337.315 93.9327 337.393 93.7722C337.558 93.3909 337.858 93.0848 338.235 92.9128L338.347 92.8617C338.662 92.7011 338.92 92.448 339.088 92.1361C339.256 91.8242 339.325 91.4683 339.286 91.116Z" fill="#FFAAA1"/>
<path d="M335.882 89.6845C335.85 89.6997 335.824 89.7248 335.807 89.7563C335.79 89.7877 335.784 89.8237 335.789 89.8591C335.815 89.9931 335.877 90.1175 335.968 90.2191C336.059 90.3207 336.175 90.3957 336.305 90.4362C336.435 90.4766 336.573 90.481 336.706 90.4489C336.838 90.4169 336.959 90.3495 337.056 90.2539C337.087 90.2208 337.106 90.1791 337.113 90.1345C337.119 90.0898 337.111 90.0443 337.091 90.0041C337.077 89.979 337.058 89.9572 337.035 89.9401C337.012 89.9229 336.985 89.9109 336.957 89.9047C336.848 89.8832 336.69 89.9611 336.58 89.9638C336.477 89.9556 336.377 89.9234 336.289 89.8698C336.227 89.8268 336.15 89.7033 336.069 89.6684C336.039 89.6573 336.006 89.6531 335.974 89.6559C335.942 89.6586 335.91 89.6684 335.882 89.6845Z" fill="#FF8980"/>
<path d="M336.203 90.3882C336.203 90.3882 336.636 89.0749 336.58 88.2907C336.698 88.2552 336.823 88.2551 336.94 88.2905C337.057 88.3258 337.162 88.395 337.241 88.4895C337.241 88.4895 336.489 89.7893 336.396 90.4527L336.203 90.3882Z" fill="#8E4539"/>
<path d="M308.091 101.66C307.924 101.442 307.708 101.267 307.46 101.149C307.213 101.032 306.941 100.975 306.667 100.983C306.394 100.992 306.126 101.066 305.886 101.199C305.646 101.332 305.442 101.52 305.289 101.749C305.226 101.849 305.127 101.921 305.012 101.95C304.898 101.979 304.777 101.963 304.674 101.904C304.652 101.89 304.63 101.878 304.607 101.867C304.205 101.646 303.731 101.596 303.292 101.725C302.852 101.855 302.482 102.156 302.262 102.56C302.043 102.964 301.992 103.439 302.121 103.881C302.251 104.323 302.549 104.695 302.952 104.915C302.986 104.936 303.022 104.955 303.059 104.971C303.427 105.164 303.713 105.485 303.861 105.874C303.928 106.036 304.03 106.181 304.159 106.299C304.289 106.417 304.443 106.505 304.61 106.556C304.763 106.604 304.925 106.62 305.084 106.604C305.244 106.587 305.399 106.539 305.54 106.462C305.835 106.287 306.177 106.206 306.519 106.231C306.699 106.25 306.882 106.227 307.053 106.165C307.223 106.103 307.378 106.004 307.505 105.874C307.628 105.749 307.722 105.6 307.78 105.435C307.839 105.27 307.861 105.095 307.845 104.92C307.789 104.509 307.884 104.091 308.112 103.744C308.136 103.712 308.16 103.677 308.182 103.642C308.37 103.342 308.461 102.991 308.445 102.637C308.429 102.283 308.305 101.942 308.091 101.66Z" fill="#FFAAA1"/>
<path d="M304.441 102.208C304.421 102.236 304.41 102.271 304.41 102.306C304.41 102.341 304.421 102.375 304.441 102.404C304.533 102.505 304.65 102.58 304.78 102.619C304.911 102.659 305.049 102.663 305.181 102.63C305.314 102.597 305.434 102.528 305.531 102.432C305.627 102.335 305.696 102.214 305.73 102.082C305.739 102.038 305.734 101.992 305.716 101.951C305.699 101.909 305.669 101.874 305.631 101.851C305.606 101.837 305.578 101.828 305.55 101.825C305.521 101.822 305.492 101.826 305.465 101.835C305.358 101.872 305.251 102.031 305.171 102.082C305.079 102.129 304.977 102.153 304.874 102.151C304.802 102.151 304.671 102.082 304.583 102.095C304.553 102.103 304.525 102.117 304.5 102.137C304.476 102.156 304.456 102.18 304.441 102.208Z" fill="#FF8980"/>
<path d="M305.08 102.64C305.08 102.64 304.775 101.297 304.321 100.65C304.403 100.559 304.509 100.494 304.628 100.463C304.746 100.433 304.871 100.438 304.987 100.478C304.987 100.478 305.016 101.98 305.275 102.595L305.08 102.64Z" fill="#8E4539"/>
<path d="M304.671 80.0483C304.611 79.7799 304.488 79.5297 304.313 79.3182C304.138 79.1068 303.915 78.9402 303.663 78.8322C303.411 78.7241 303.137 78.6778 302.864 78.6968C302.591 78.7159 302.326 78.7998 302.091 78.9418C301.991 79.0047 301.871 79.0273 301.755 79.0048C301.639 78.9824 301.535 78.9167 301.465 78.8209L301.423 78.7592C301.288 78.5758 301.118 78.4208 300.924 78.3032C300.729 78.1856 300.514 78.1076 300.289 78.0737C299.836 78.0052 299.374 78.1204 299.006 78.3939C298.637 78.6674 298.391 79.0769 298.323 79.5322C298.255 79.9875 298.37 80.4514 298.642 80.8218C298.666 80.8567 298.69 80.8889 298.717 80.9211C298.97 81.2511 299.093 81.6633 299.062 82.0787C299.057 82.2468 299.086 82.4142 299.149 82.5701C299.212 82.726 299.307 82.867 299.427 82.984C299.547 83.1011 299.691 83.1916 299.848 83.2498C300.005 83.3081 300.173 83.3327 300.34 83.3221C300.681 83.2872 301.024 83.3584 301.324 83.5262C301.48 83.6197 301.655 83.6766 301.836 83.6929C302.017 83.7092 302.199 83.6843 302.369 83.6202C302.532 83.5586 302.68 83.4617 302.802 83.3364C302.924 83.2111 303.017 83.0605 303.075 82.8951C303.2 82.4982 303.465 82.161 303.821 81.9471C303.858 81.9283 303.893 81.9068 303.928 81.8853C304.223 81.691 304.452 81.4112 304.585 81.0831C304.717 80.755 304.748 80.3941 304.671 80.0483Z" fill="#FFAAA1"/>
<path d="M301.134 79.0008C301.104 79.0195 301.08 79.0472 301.067 79.08C301.054 79.1128 301.051 79.149 301.059 79.1834C301.1 79.3138 301.175 79.4306 301.277 79.5215C301.378 79.6125 301.502 79.6743 301.636 79.7005C301.769 79.7266 301.907 79.716 302.035 79.6699C302.164 79.6239 302.277 79.5439 302.364 79.4386C302.389 79.401 302.403 79.3565 302.403 79.311C302.403 79.2655 302.389 79.221 302.364 79.1834C302.347 79.1602 302.326 79.1407 302.302 79.1263C302.277 79.112 302.25 79.1031 302.222 79.1002C302.11 79.1002 301.955 79.1861 301.853 79.1995C301.75 79.2035 301.647 79.1823 301.553 79.1378C301.487 79.1029 301.396 78.9874 301.313 78.9632C301.282 78.9563 301.25 78.9561 301.219 78.9626C301.188 78.9691 301.159 78.9821 301.134 79.0008Z" fill="#FF8980"/>
<path d="M301.529 79.6642C301.529 79.6642 301.818 78.3214 301.677 77.5372C301.789 77.4891 301.913 77.4755 302.034 77.498C302.154 77.5204 302.265 77.5779 302.353 77.6634C302.353 77.6634 301.749 79.0384 301.727 79.7072L301.529 79.6642Z" fill="#8E4539"/>
<path d="M329.842 72.8802C329.672 72.6642 329.454 72.492 329.204 72.3778C328.955 72.2635 328.682 72.2105 328.408 72.2231C328.135 72.2357 327.868 72.3135 327.63 72.4502C327.392 72.5869 327.19 72.7784 327.04 73.0091C326.978 73.1095 326.88 73.1824 326.766 73.2129C326.653 73.2433 326.532 73.229 326.428 73.1729L326.361 73.138C325.959 72.9554 325.502 72.934 325.085 73.0783C324.668 73.2226 324.321 73.5216 324.116 73.9142C323.911 74.3068 323.863 74.7632 323.982 75.1901C324.102 75.617 324.379 75.982 324.757 76.2104L324.866 76.2641C325.233 76.4536 325.518 76.7705 325.669 77.1558C325.736 77.3097 325.835 77.4477 325.959 77.5609C326.083 77.674 326.229 77.7598 326.388 77.8127C326.547 77.8656 326.715 77.8844 326.882 77.868C327.049 77.8515 327.21 77.8001 327.356 77.7171C327.649 77.5387 327.989 77.4535 328.332 77.4727C328.512 77.4889 328.694 77.464 328.864 77.3998C329.034 77.3357 329.188 77.2339 329.313 77.1021C329.434 76.9754 329.525 76.8236 329.581 76.6575C329.637 76.4913 329.656 76.3149 329.636 76.1406C329.577 75.7279 329.672 75.3077 329.904 74.9616C329.928 74.9294 329.949 74.8944 329.971 74.8595C330.152 74.5555 330.236 74.2033 330.214 73.8498C330.191 73.4962 330.061 73.158 329.842 72.8802Z" fill="#FFAAA1"/>
<path d="M326.201 73.4791C326.18 73.5078 326.169 73.542 326.169 73.5772C326.169 73.6123 326.18 73.6466 326.201 73.6752C326.293 73.775 326.411 73.8477 326.542 73.8856C326.673 73.9234 326.811 73.9251 326.943 73.8905C327.074 73.8558 327.194 73.786 327.289 73.6885C327.385 73.5911 327.452 73.4695 327.484 73.3368C327.493 73.2922 327.488 73.2459 327.469 73.2045C327.45 73.163 327.419 73.1285 327.38 73.1058C327.355 73.0918 327.327 73.0834 327.298 73.081C327.27 73.0787 327.241 73.0826 327.214 73.0924C327.11 73.1327 327.005 73.2911 326.925 73.3449C326.834 73.3918 326.733 73.4166 326.631 73.4174C326.556 73.4174 326.425 73.3502 326.337 73.3663C326.308 73.3748 326.281 73.3891 326.257 73.4085C326.234 73.4279 326.214 73.452 326.201 73.4791Z" fill="#FF8980"/>
<path d="M326.845 73.9034C326.845 73.9034 326.519 72.5605 326.056 71.924C326.137 71.8316 326.243 71.7651 326.362 71.7327C326.48 71.7002 326.605 71.7033 326.722 71.7414C326.722 71.7414 326.77 73.2427 327.04 73.855L326.845 73.9034Z" fill="#8E4539"/>
<path d="M315.829 54.6686C315.81 54.3956 315.727 54.1311 315.586 53.8964C315.446 53.6618 315.253 53.4638 315.022 53.3185C314.791 53.1732 314.529 53.0848 314.258 53.0604C313.986 53.036 313.713 53.0763 313.46 53.1781C313.352 53.226 313.229 53.2304 313.118 53.1905C313.007 53.1505 312.915 53.0692 312.861 52.9632C312.861 52.9418 312.84 52.9176 312.826 52.8961C312.602 52.5097 312.238 52.225 311.81 52.1014C311.382 51.9777 310.923 52.0245 310.529 52.2321C310.134 52.4397 309.835 52.7921 309.693 53.2159C309.55 53.6398 309.576 54.1024 309.765 54.5075C309.783 54.5424 309.802 54.58 309.824 54.6149C310.024 54.9789 310.084 55.4044 309.992 55.8101C309.96 55.9753 309.964 56.1453 310.001 56.3093C310.039 56.4732 310.111 56.6273 310.211 56.7617C310.312 56.8961 310.44 57.0078 310.586 57.0895C310.733 57.1712 310.895 57.2212 311.062 57.2362C311.403 57.2559 311.731 57.3785 312.003 57.588C312.142 57.7049 312.307 57.7886 312.483 57.8328C312.659 57.8769 312.843 57.8805 313.021 57.8431C313.191 57.8065 313.351 57.733 313.49 57.6276C313.628 57.5223 313.742 57.3878 313.824 57.2335C314.009 56.8611 314.322 56.5691 314.706 56.4117L314.821 56.366C315.14 56.2185 315.407 55.9774 315.587 55.6744C315.767 55.3714 315.851 55.0207 315.829 54.6686Z" fill="#FFAAA1"/>
<path d="M312.489 53.0867C312.457 53.1012 312.43 53.1257 312.412 53.1566C312.394 53.1874 312.387 53.2231 312.39 53.2586C312.411 53.3935 312.468 53.5202 312.554 53.6254C312.641 53.7307 312.754 53.8105 312.882 53.8564C313.01 53.9024 313.147 53.9128 313.281 53.8865C313.414 53.8602 313.538 53.7982 313.639 53.7071C313.67 53.6753 313.692 53.6347 313.7 53.5906C313.708 53.5465 313.702 53.501 313.684 53.46C313.671 53.4343 313.653 53.4115 313.631 53.393C313.609 53.3746 313.584 53.3608 313.556 53.3526C313.428 53.3555 313.3 53.3699 313.174 53.3956C313.072 53.3829 312.975 53.3461 312.89 53.2881C312.829 53.2452 312.757 53.1163 312.679 53.0787C312.649 53.0667 312.616 53.0612 312.583 53.0626C312.551 53.064 312.519 53.0722 312.489 53.0867Z" fill="#FF8980"/>
<path d="M312.781 53.8038C312.781 53.8038 313.27 52.512 313.249 51.7251C313.367 51.6952 313.492 51.7008 313.608 51.7414C313.723 51.782 313.824 51.8557 313.898 51.9534C313.898 51.9534 313.096 53.2183 312.968 53.8763L312.781 53.8038Z" fill="#8E4539"/>
<path d="M317.677 37.2412C317.502 37.029 317.28 36.8615 317.029 36.7523C316.777 36.6432 316.504 36.5956 316.23 36.6134C315.957 36.6312 315.692 36.714 315.456 36.8549C315.221 36.9958 315.023 37.1908 314.877 37.4238C314.816 37.5256 314.719 37.6003 314.605 37.6327C314.492 37.6651 314.37 37.6529 314.265 37.5984L314.198 37.5635C313.788 37.3583 313.313 37.3253 312.879 37.4716C312.444 37.6179 312.085 37.9316 311.881 38.3437C311.677 38.7557 311.644 39.2324 311.79 39.6688C311.935 40.1052 312.248 40.4657 312.658 40.6708C312.693 40.6914 312.73 40.7093 312.767 40.7245C313.142 40.9029 313.438 41.215 313.596 41.6C313.67 41.7589 313.778 41.8997 313.911 42.0128C314.045 42.1259 314.201 42.2087 314.369 42.2554C314.524 42.2981 314.685 42.3089 314.844 42.2872C315.003 42.2655 315.156 42.2117 315.294 42.1291C315.584 41.943 315.923 41.8494 316.267 41.8606C316.445 41.8726 316.623 41.8451 316.788 41.78C316.954 41.7149 317.103 41.6137 317.226 41.4839C317.348 41.354 317.44 41.1985 317.495 41.0287C317.55 40.8589 317.568 40.6789 317.545 40.5016C317.477 40.0908 317.562 39.6691 317.783 39.3172C317.808 39.285 317.829 39.2501 317.85 39.2152C318.024 38.9071 318.1 38.5535 318.069 38.201C318.038 37.8486 317.901 37.5139 317.677 37.2412Z" fill="#FFAAA1"/>
<path d="M314.048 37.9127C314.03 37.9428 314.021 37.9781 314.024 38.0133C314.027 38.0486 314.041 38.082 314.064 38.1087C314.16 38.2033 314.278 38.2707 314.409 38.304C314.539 38.3373 314.675 38.3352 314.804 38.2981C314.933 38.2609 315.05 38.1899 315.142 38.0925C315.235 37.995 315.3 37.8746 315.331 37.7435C315.339 37.6987 315.332 37.6528 315.313 37.6119C315.293 37.571 315.261 37.5373 315.222 37.5152C315.196 37.5036 315.167 37.4977 315.139 37.4977C315.11 37.4977 315.082 37.5036 315.056 37.5152C314.952 37.5582 314.85 37.7166 314.773 37.7838C314.682 37.8327 314.581 37.8594 314.478 37.8616C314.404 37.8616 314.27 37.7999 314.184 37.816C314.128 37.8299 314.08 37.8644 314.048 37.9127Z" fill="#FF8980"/>
<path d="M314.7 38.337C314.7 38.337 314.347 36.9942 313.874 36.3738C313.951 36.2784 314.054 36.2078 314.171 36.1705C314.287 36.1333 314.412 36.1311 314.529 36.1643C314.529 36.1643 314.607 37.6656 314.888 38.2725L314.7 38.337Z" fill="#8E4539"/>
<path d="M308.38 71.814C307.31 71.2393 305.468 69.6896 305.596 65.8007C305.6 65.6649 305.641 65.5327 305.713 65.4181C305.786 65.3035 305.888 65.2108 306.009 65.1499C306.13 65.0891 306.265 65.0622 306.4 65.0723C306.535 65.0824 306.665 65.129 306.775 65.2072C308.192 66.1929 310.404 68.2931 309.449 71.3843C309.416 71.49 309.36 71.587 309.285 71.6682C309.21 71.7495 309.118 71.813 309.016 71.8541C308.914 71.8953 308.803 71.913 308.693 71.9061C308.583 71.8991 308.476 71.8677 308.38 71.814Z" fill="#3CA064"/>
<path d="M308.428 31.2575C307.954 30.1242 307.516 27.7661 310.072 24.8334C310.161 24.7323 310.275 24.6571 310.403 24.6156C310.531 24.5741 310.667 24.5679 310.798 24.5975C310.929 24.6272 311.05 24.6916 311.147 24.7841C311.245 24.8767 311.316 24.9938 311.353 25.1234C311.829 26.7885 312.211 29.818 309.513 31.5932C309.422 31.6519 309.32 31.69 309.212 31.7047C309.105 31.7195 308.996 31.7105 308.893 31.6786C308.79 31.6466 308.694 31.5924 308.614 31.5196C308.534 31.4469 308.47 31.3575 308.428 31.2575Z" fill="#3CA064"/>
<path d="M325.781 108.68C325.591 107.466 325.735 105.065 328.917 102.844C329.028 102.768 329.157 102.722 329.291 102.713C329.425 102.704 329.559 102.731 329.679 102.791C329.799 102.852 329.901 102.944 329.973 103.058C330.046 103.172 330.086 103.303 330.091 103.438C330.152 105.168 329.797 108.2 326.754 109.271C326.651 109.306 326.542 109.318 326.435 109.307C326.327 109.295 326.223 109.26 326.131 109.203C326.038 109.147 325.958 109.071 325.898 108.981C325.838 108.89 325.798 108.788 325.781 108.68Z" fill="#3CA064"/>
<path d="M299.864 95.3271C299.535 94.1427 299.398 91.7417 302.302 89.1635C302.403 89.075 302.526 89.0154 302.658 88.9908C302.79 88.9662 302.926 88.9775 303.052 89.0235C303.178 89.0696 303.29 89.1487 303.375 89.2526C303.46 89.3566 303.516 89.4816 303.537 89.6147C303.805 91.3254 303.805 94.3791 300.898 95.7917C300.801 95.8385 300.695 95.8635 300.587 95.8649C300.479 95.8664 300.372 95.8442 300.274 95.8C300.175 95.7558 300.088 95.6906 300.017 95.6089C299.946 95.5273 299.894 95.4311 299.864 95.3271Z" fill="#3CA064"/>
<path d="M322.203 63.4964C321.348 62.6209 320.064 60.5824 321.374 56.9165C321.42 56.7897 321.499 56.6776 321.602 56.5918C321.706 56.506 321.83 56.4498 321.963 56.4289C322.095 56.4081 322.231 56.4234 322.356 56.4732C322.48 56.5231 322.589 56.6057 322.671 56.7123C323.725 58.082 325.193 60.757 323.337 63.4078C323.274 63.4962 323.192 63.5696 323.098 63.6231C323.003 63.6765 322.899 63.7085 322.791 63.717C322.683 63.7254 322.574 63.71 322.473 63.6719C322.371 63.6338 322.279 63.5739 322.203 63.4964Z" fill="#3CA064"/>
</g>
<g clip-path="url(#clip2)">
<path d="M264.636 127.916C264.636 127.916 244.252 131.103 243.072 114.597C241.891 98.0919 256.068 93.1723 254.879 80.4319C253.69 67.6915 256.068 61.6147 264.636 60.1641C273.204 58.7135 281.774 67.1129 280.59 76.3789C279.407 85.6449 277.636 97.8039 282.364 104.753C287.093 111.702 285.319 119.52 278.226 124.154C271.133 128.788 264.636 127.916 264.636 127.916Z" fill="#F9C5CE"/>
<path d="M266.986 116.053C267.016 111.851 267.016 108.071 266.986 104.712C270.408 102.438 271.729 97.9089 272.228 95.1019C272.264 94.892 271.954 94.8032 271.885 95.005C270.512 99.5156 267.95 101.486 266.964 102.099C266.808 88.2096 266.261 82.6953 266.006 86.5411C265.833 89.1812 265.663 102.584 264.803 114.562C258.125 109.018 255.335 104.675 254.259 102.522C254.239 102.488 254.208 102.461 254.17 102.448C254.133 102.434 254.092 102.434 254.054 102.448C254.017 102.462 253.985 102.488 253.966 102.522C253.947 102.556 253.94 102.596 253.948 102.635C255.906 110.816 262.609 115.679 264.622 116.974C264.271 121.258 263.823 125.247 263.249 128.336C261.75 136.305 260.643 147 260.643 147H268.939C268.939 147 266.824 139.981 266.986 116.053Z" fill="#F4F4F4"/>
<path d="M277.223 83.3358C277.105 83.0851 276.928 82.8655 276.707 82.6951C276.485 82.5248 276.225 82.4085 275.949 82.3559C275.672 82.3033 275.387 82.316 275.116 82.3927C274.845 82.4695 274.597 82.6083 274.392 82.7975C274.304 82.8793 274.188 82.9249 274.067 82.9249C273.946 82.9249 273.829 82.8793 273.741 82.7975L273.684 82.7491C273.327 82.4635 272.872 82.3246 272.413 82.3618C271.954 82.3991 271.528 82.6094 271.224 82.9486C270.92 83.2878 270.763 83.7293 270.785 84.1801C270.807 84.6308 271.006 85.0557 271.341 85.365L271.438 85.443C271.765 85.7117 271.979 86.0893 272.039 86.5034C272.07 86.669 272.136 86.8264 272.233 86.9654C272.33 87.1045 272.456 87.2221 272.602 87.3108C272.748 87.3995 272.912 87.4573 273.082 87.4804C273.252 87.5036 273.425 87.4916 273.59 87.4453C273.927 87.3445 274.286 87.3445 274.623 87.4453C274.8 87.5037 274.987 87.5222 275.172 87.4994C275.357 87.4766 275.535 87.413 275.691 87.3134C275.841 87.2181 275.969 87.0915 276.063 86.9427C276.158 86.7939 276.219 86.6265 276.24 86.4522C276.284 86.0399 276.479 85.6571 276.79 85.3757L276.883 85.2923C277.135 85.0384 277.303 84.7153 277.364 84.366C277.424 84.0166 277.376 83.6573 277.223 83.3358Z" fill="#FC7459"/>
<path d="M273.442 83.0666C273.416 83.0913 273.399 83.1234 273.394 83.1582C273.388 83.1931 273.393 83.2288 273.409 83.2604C273.477 83.3828 273.577 83.4846 273.7 83.5545C273.823 83.6244 273.963 83.6598 274.105 83.6568C274.247 83.6537 274.385 83.6123 274.505 83.5371C274.624 83.462 274.72 83.356 274.782 83.2308C274.801 83.1897 274.806 83.1441 274.798 83.0999C274.79 83.0558 274.768 83.0151 274.736 82.9832C274.714 82.9636 274.688 82.9488 274.66 82.9395C274.632 82.9302 274.603 82.9268 274.574 82.9294C274.458 82.9455 274.315 83.0747 274.222 83.107C274.119 83.1312 274.012 83.1312 273.909 83.107C273.838 83.0881 273.72 82.9939 273.634 82.9886C273.598 82.9859 273.562 82.9916 273.529 83.0051C273.495 83.0187 273.466 83.0398 273.442 83.0666Z" fill="#CE422C"/>
<path d="M273.986 83.6319C273.986 83.6319 273.986 82.2459 273.667 81.5165C273.77 81.4456 273.892 81.4057 274.018 81.4019C274.144 81.3981 274.269 81.4305 274.376 81.495C274.376 81.495 274.068 82.9698 274.192 83.6292L273.986 83.6319Z" fill="#8E4539"/>
<path d="M253.709 105.447C253.591 105.197 253.414 104.978 253.193 104.808C252.971 104.638 252.712 104.522 252.436 104.469C252.159 104.417 251.874 104.429 251.604 104.505C251.334 104.582 251.086 104.72 250.881 104.909C250.795 104.992 250.679 105.041 250.558 105.043C250.437 105.046 250.32 105.002 250.23 104.922L250.172 104.874C249.816 104.588 249.36 104.449 248.901 104.487C248.443 104.524 248.016 104.734 247.713 105.073C247.409 105.413 247.251 105.854 247.273 106.305C247.295 106.756 247.495 107.18 247.83 107.49L247.926 107.568C248.253 107.836 248.467 108.214 248.528 108.628C248.558 108.794 248.624 108.952 248.721 109.091C248.818 109.23 248.944 109.348 249.09 109.437C249.236 109.525 249.4 109.583 249.57 109.606C249.74 109.629 249.914 109.617 250.079 109.57C250.416 109.469 250.775 109.469 251.112 109.57C251.288 109.629 251.476 109.647 251.661 109.624C251.846 109.601 252.023 109.538 252.18 109.438C252.33 109.343 252.457 109.216 252.552 109.068C252.647 108.919 252.707 108.751 252.729 108.577C252.773 108.165 252.968 107.782 253.278 107.501L253.372 107.417C253.627 107.162 253.796 106.836 253.856 106.484C253.917 106.132 253.865 105.77 253.709 105.447Z" fill="#FC7459"/>
<path d="M249.917 105.178C249.891 105.202 249.874 105.235 249.868 105.269C249.862 105.304 249.868 105.34 249.884 105.372C249.947 105.495 250.045 105.596 250.167 105.664C250.289 105.731 250.428 105.762 250.568 105.751C250.708 105.756 250.847 105.719 250.966 105.647C251.086 105.574 251.18 105.468 251.238 105.342C251.257 105.301 251.262 105.255 251.253 105.211C251.245 105.166 251.222 105.126 251.188 105.095C251.167 105.075 251.141 105.06 251.113 105.05C251.085 105.041 251.056 105.038 251.026 105.041C250.914 105.057 250.771 105.186 250.678 105.218C250.575 105.243 250.468 105.243 250.365 105.218C250.293 105.199 250.175 105.105 250.09 105.1C250.057 105.1 250.025 105.107 249.995 105.12C249.965 105.134 249.938 105.153 249.917 105.178Z" fill="#CE422C"/>
<path d="M250.458 105.751C250.458 105.751 250.458 104.365 250.142 103.636C250.245 103.565 250.367 103.525 250.493 103.521C250.619 103.517 250.743 103.55 250.851 103.614C250.851 103.614 250.543 105.089 250.667 105.751H250.458Z" fill="#8E4539"/>
<path d="M280.115 114.708C279.997 114.457 279.82 114.238 279.598 114.067C279.376 113.897 279.117 113.78 278.84 113.728C278.563 113.675 278.278 113.688 278.008 113.765C277.737 113.842 277.489 113.98 277.284 114.17C277.197 114.253 277.081 114.3 276.96 114.303C276.838 114.305 276.721 114.263 276.63 114.183L276.573 114.135C276.216 113.849 275.76 113.71 275.301 113.747C274.843 113.785 274.416 113.995 274.113 114.334C273.809 114.673 273.651 115.115 273.673 115.566C273.695 116.016 273.895 116.441 274.23 116.75L274.326 116.828C274.653 117.097 274.868 117.475 274.928 117.889C274.959 118.054 275.025 118.212 275.122 118.351C275.219 118.49 275.345 118.608 275.491 118.696C275.637 118.785 275.8 118.843 275.97 118.866C276.141 118.889 276.314 118.877 276.479 118.831C276.816 118.73 277.175 118.73 277.512 118.831C277.685 118.888 277.869 118.907 278.051 118.886C278.233 118.865 278.407 118.805 278.562 118.71C278.718 118.615 278.849 118.488 278.948 118.337C279.047 118.186 279.111 118.015 279.135 117.838C279.175 117.425 279.371 117.041 279.684 116.761L279.774 116.678C280.03 116.423 280.2 116.098 280.261 115.745C280.322 115.393 280.271 115.031 280.115 114.708Z" fill="#FC7459"/>
<path d="M276.334 114.439C276.308 114.463 276.291 114.495 276.285 114.53C276.279 114.565 276.285 114.601 276.301 114.632C276.368 114.755 276.469 114.856 276.592 114.926C276.714 114.996 276.854 115.032 276.996 115.029C277.138 115.026 277.277 114.984 277.396 114.909C277.516 114.834 277.612 114.728 277.674 114.603C277.693 114.561 277.699 114.515 277.69 114.47C277.682 114.426 277.66 114.384 277.627 114.352C277.605 114.333 277.579 114.319 277.551 114.31C277.524 114.301 277.494 114.298 277.465 114.301C277.35 114.317 277.207 114.447 277.116 114.479C277.013 114.503 276.906 114.503 276.803 114.479C276.729 114.46 276.614 114.366 276.529 114.36C276.492 114.358 276.456 114.363 276.422 114.377C276.388 114.391 276.358 114.412 276.334 114.439Z" fill="#CE422C"/>
<path d="M276.877 115.004C276.877 115.004 276.877 113.618 276.562 112.888C276.664 112.817 276.786 112.777 276.911 112.774C277.037 112.77 277.161 112.802 277.267 112.867C277.267 112.867 276.96 114.342 277.083 115.001L276.877 115.004Z" fill="#8E4539"/>
<path d="M265.171 72.3798C265.053 72.1295 264.875 71.9104 264.654 71.7404C264.432 71.5704 264.172 71.4543 263.896 71.4018C263.619 71.3492 263.334 71.3617 263.064 71.4382C262.793 71.5146 262.545 71.6529 262.34 71.8415C262.252 71.9233 262.136 71.9689 262.015 71.9689C261.893 71.9689 261.777 71.9233 261.689 71.8415L261.631 71.7931C261.275 71.5075 260.819 71.3686 260.36 71.4059C259.902 71.4431 259.475 71.6535 259.172 71.9926C258.868 72.3318 258.71 72.7733 258.732 73.2241C258.754 73.6749 258.954 74.0997 259.289 74.409L259.385 74.487C259.712 74.7557 259.926 75.1333 259.987 75.5474C260.018 75.713 260.084 75.8704 260.181 76.0094C260.278 76.1485 260.404 76.2661 260.55 76.3548C260.696 76.4435 260.859 76.5013 261.029 76.5244C261.2 76.5476 261.373 76.5357 261.538 76.4893C261.875 76.3885 262.234 76.3885 262.571 76.4893C262.747 76.5478 262.935 76.5662 263.12 76.5434C263.305 76.5206 263.482 76.457 263.639 76.3575C263.789 76.2621 263.916 76.1356 264.011 75.9867C264.106 75.8379 264.166 75.6705 264.188 75.4963C264.231 75.0838 264.426 74.701 264.737 74.4198L264.828 74.3363C265.081 74.0827 265.249 73.7598 265.31 73.4104C265.371 73.061 265.323 72.7016 265.171 72.3798Z" fill="#FC7459"/>
<path d="M261.398 72.1107C261.372 72.1361 261.356 72.1686 261.35 72.2038C261.344 72.239 261.349 72.2751 261.365 72.3071C261.434 72.4286 261.535 72.5294 261.657 72.5985C261.78 72.6676 261.92 72.7024 262.062 72.699C262.203 72.6957 262.341 72.6544 262.46 72.5796C262.58 72.5048 262.676 72.3994 262.738 72.2748C262.757 72.2339 262.763 72.1881 262.755 72.1438C262.747 72.0994 262.724 72.0587 262.691 72.0273C262.67 72.0077 262.644 71.9928 262.616 71.9836C262.588 71.9743 262.559 71.9708 262.529 71.9734C262.414 71.9896 262.271 72.1188 262.181 72.151C262.078 72.1753 261.971 72.1753 261.868 72.151C261.793 72.1322 261.675 72.038 261.593 72.0326C261.557 72.0295 261.52 72.035 261.486 72.0486C261.452 72.0621 261.422 72.0834 261.398 72.1107Z" fill="#CE422C"/>
<path d="M261.947 72.6704C261.947 72.6704 261.947 71.2844 261.632 70.5578C261.734 70.4863 261.855 70.4459 261.981 70.4416C262.106 70.4373 262.23 70.4693 262.337 70.5336C262.337 70.5336 262.03 72.0084 262.153 72.6704H261.947Z" fill="#8E4539"/>
<path d="M257.142 95.1154C256.837 93.9178 256.76 91.5091 259.811 89.0035C259.917 88.917 260.045 88.8601 260.181 88.8386C260.317 88.8171 260.457 88.8319 260.585 88.8814C260.713 88.9309 260.826 89.0134 260.91 89.1201C260.995 89.2268 261.049 89.3539 261.066 89.488C261.288 91.2104 261.206 94.2703 258.191 95.6133C258.09 95.6578 257.979 95.6801 257.868 95.6785C257.757 95.6769 257.648 95.6515 257.548 95.6041C257.448 95.5566 257.36 95.4883 257.29 95.4038C257.22 95.3194 257.169 95.221 257.142 95.1154Z" fill="#FFAAA1"/>
<path d="M271.792 110.787C271.487 109.592 271.41 107.18 274.461 104.675C274.567 104.588 274.695 104.531 274.831 104.51C274.967 104.488 275.106 104.503 275.235 104.553C275.363 104.602 275.475 104.685 275.56 104.791C275.645 104.898 275.698 105.025 275.716 105.159C275.938 106.882 275.856 109.942 272.841 111.284C272.739 111.329 272.629 111.351 272.518 111.35C272.407 111.348 272.298 111.323 272.198 111.275C272.098 111.228 272.01 111.159 271.939 111.075C271.869 110.991 271.819 110.892 271.792 110.787Z" fill="#FFAAA1"/>
<path d="M256.922 122.499C255.703 122.198 253.501 121.121 252.693 117.302C252.666 117.171 252.675 117.035 252.72 116.909C252.764 116.783 252.842 116.67 252.946 116.583C253.049 116.496 253.175 116.438 253.309 116.414C253.443 116.391 253.581 116.403 253.709 116.449C255.357 117.071 258.073 118.589 257.856 121.832C257.847 121.939 257.814 122.043 257.761 122.136C257.707 122.23 257.633 122.311 257.545 122.375C257.456 122.438 257.355 122.482 257.247 122.503C257.14 122.525 257.029 122.523 256.922 122.499Z" fill="#FFAAA1"/>
<path d="M275.526 76.6642C274.389 76.1259 272.443 74.6646 272.404 70.7649C272.403 70.6294 272.439 70.4961 272.508 70.3789C272.578 70.2618 272.679 70.1652 272.799 70.0994C272.92 70.0335 273.057 70.0008 273.195 70.0048C273.334 70.0087 273.468 70.0491 273.585 70.1217C275.081 71.0448 277.429 73.0498 276.586 76.1878C276.556 76.2926 276.504 76.3898 276.432 76.4726C276.36 76.5553 276.27 76.6217 276.169 76.6671C276.068 76.7124 275.958 76.7356 275.847 76.7351C275.736 76.7346 275.627 76.7104 275.526 76.6642Z" fill="#FFAAA1"/>
</g>
<g clip-path="url(#clip3)">
<path d="M217.606 121.916C217.606 121.916 198.193 125.103 197.068 108.597C195.944 92.0919 209.446 87.1723 208.314 74.4319C207.181 61.6915 209.446 55.6147 217.606 54.1641C225.765 52.7135 233.927 61.1129 232.8 70.3789C231.673 79.6449 229.986 91.8039 234.49 98.7527C238.993 105.702 237.304 113.52 230.549 118.154C223.793 122.788 217.606 121.916 217.606 121.916Z" fill="#007F36"/>
<path d="M219.844 110.053C219.872 105.851 219.872 102.071 219.844 98.7124C223.103 96.4383 224.361 91.9089 224.837 89.1019C224.871 88.892 224.575 88.8032 224.51 89.005C223.202 93.5156 220.762 95.4856 219.823 96.0992C219.674 82.2096 219.154 76.6953 218.911 80.5411C218.746 83.1812 218.584 96.5836 217.765 108.562C211.405 103.018 208.748 98.6747 207.723 96.5217C207.704 96.4875 207.674 96.4613 207.638 96.4478C207.603 96.4342 207.563 96.4343 207.528 96.448C207.492 96.4616 207.462 96.4879 207.444 96.5222C207.425 96.5564 207.419 96.5963 207.427 96.6347C209.292 104.816 215.675 109.679 217.592 110.974C217.258 115.258 216.831 119.247 216.285 122.336C214.857 130.305 213.803 141 213.803 141H221.704C221.704 141 219.69 133.981 219.844 110.053Z" fill="#F4F4F4"/>
<path d="M229.594 77.3358C229.481 77.0851 229.313 76.8655 229.101 76.6951C228.89 76.5248 228.643 76.4085 228.38 76.3559C228.116 76.3033 227.844 76.316 227.587 76.3927C227.329 76.4695 227.093 76.6083 226.897 76.7975C226.814 76.8793 226.703 76.9249 226.587 76.9249C226.472 76.9249 226.361 76.8793 226.278 76.7975L226.223 76.7491C225.883 76.4635 225.449 76.3246 225.012 76.3618C224.575 76.3991 224.169 76.6094 223.88 76.9486C223.591 77.2878 223.441 77.7293 223.462 78.1801C223.482 78.6308 223.673 79.0557 223.992 79.365L224.083 79.443C224.395 79.7117 224.599 80.0893 224.656 80.5034C224.686 80.669 224.749 80.8264 224.841 80.9654C224.934 81.1045 225.053 81.2221 225.192 81.3108C225.332 81.3995 225.487 81.4573 225.649 81.4804C225.811 81.5036 225.976 81.4916 226.134 81.4453C226.454 81.3445 226.797 81.3445 227.117 81.4453C227.285 81.5037 227.464 81.5222 227.64 81.4994C227.817 81.4766 227.985 81.413 228.134 81.3134C228.278 81.2181 228.399 81.0915 228.489 80.9427C228.579 80.7939 228.637 80.6265 228.657 80.4522C228.699 80.0399 228.885 79.6571 229.18 79.3757L229.269 79.2923C229.51 79.0384 229.669 78.7153 229.727 78.366C229.785 78.0166 229.739 77.6573 229.594 77.3358Z" fill="#FC7459"/>
<path d="M225.993 77.0666C225.968 77.0913 225.952 77.1234 225.946 77.1582C225.941 77.1931 225.946 77.2288 225.961 77.2604C226.025 77.3828 226.121 77.4846 226.238 77.5545C226.355 77.6244 226.489 77.6598 226.624 77.6568C226.759 77.6537 226.891 77.6123 227.005 77.5371C227.118 77.462 227.21 77.356 227.269 77.2308C227.286 77.1897 227.292 77.1441 227.284 77.0999C227.276 77.0558 227.255 77.0151 227.224 76.9832C227.204 76.9636 227.179 76.9488 227.153 76.9395C227.126 76.9302 227.098 76.9268 227.07 76.9294C226.96 76.9455 226.824 77.0747 226.735 77.107C226.637 77.1312 226.535 77.1312 226.437 77.107C226.369 77.0881 226.257 76.9939 226.176 76.9886C226.141 76.9859 226.107 76.9916 226.075 77.0051C226.043 77.0187 226.015 77.0398 225.993 77.0666Z" fill="#CE422C"/>
<path d="M226.51 77.6319C226.51 77.6319 226.51 76.2459 226.207 75.5165C226.305 75.4456 226.421 75.4057 226.541 75.4019C226.661 75.3981 226.779 75.4305 226.882 75.495C226.882 75.495 226.589 76.9698 226.706 77.6292L226.51 77.6319Z" fill="#8E4539"/>
<path d="M207.199 99.4471C207.087 99.1969 206.918 98.9778 206.707 98.8077C206.496 98.6377 206.249 98.5216 205.986 98.4691C205.723 98.4165 205.452 98.429 205.195 98.5054C204.937 98.5819 204.701 98.7202 204.506 98.9089C204.424 98.9925 204.314 99.0405 204.198 99.043C204.083 99.0455 203.971 99.0023 203.886 98.9223L203.831 98.8739C203.491 98.5882 203.057 98.4494 202.62 98.4866C202.183 98.5239 201.778 98.7342 201.488 99.0734C201.199 99.4126 201.049 99.8541 201.07 100.305C201.091 100.756 201.281 101.18 201.6 101.49L201.692 101.568C202.003 101.836 202.207 102.214 202.264 102.628C202.294 102.794 202.357 102.952 202.449 103.091C202.541 103.23 202.661 103.348 202.8 103.437C202.939 103.525 203.095 103.583 203.257 103.606C203.42 103.629 203.585 103.617 203.742 103.57C204.063 103.469 204.405 103.469 204.725 103.57C204.894 103.629 205.073 103.647 205.249 103.624C205.425 103.601 205.594 103.538 205.743 103.438C205.886 103.343 206.007 103.216 206.097 103.068C206.188 102.919 206.245 102.751 206.266 102.577C206.308 102.165 206.493 101.782 206.789 101.501L206.878 101.417C207.121 101.162 207.282 100.836 207.339 100.484C207.397 100.132 207.348 99.7699 207.199 99.4471Z" fill="#FC7459"/>
<path d="M203.588 99.178C203.563 99.2025 203.547 99.2346 203.541 99.2695C203.535 99.3044 203.541 99.3403 203.557 99.3717C203.616 99.4945 203.71 99.5962 203.826 99.6638C203.942 99.7315 204.075 99.7619 204.208 99.7512C204.342 99.7559 204.474 99.7195 204.587 99.6466C204.701 99.5738 204.791 99.4678 204.846 99.3421C204.864 99.3009 204.869 99.255 204.861 99.2106C204.852 99.1663 204.831 99.1257 204.799 99.0945C204.778 99.0747 204.754 99.0596 204.727 99.0504C204.701 99.0411 204.672 99.0378 204.645 99.0407C204.537 99.0569 204.401 99.186 204.312 99.2183C204.214 99.2426 204.112 99.2426 204.014 99.2183C203.946 99.1995 203.834 99.1053 203.753 99.0999C203.721 99.0999 203.69 99.1069 203.662 99.1204C203.634 99.1339 203.608 99.1535 203.588 99.178Z" fill="#CE422C"/>
<path d="M204.103 99.7512C204.103 99.7512 204.103 98.3653 203.802 97.6359C203.901 97.565 204.017 97.5251 204.137 97.5213C204.257 97.5175 204.375 97.5498 204.477 97.6144C204.477 97.6144 204.184 99.0892 204.302 99.7512H204.103Z" fill="#8E4539"/>
<path d="M232.348 108.708C232.235 108.457 232.066 108.238 231.855 108.067C231.644 107.897 231.397 107.78 231.133 107.728C230.87 107.675 230.598 107.688 230.341 107.765C230.083 107.842 229.847 107.98 229.651 108.17C229.569 108.253 229.458 108.3 229.343 108.303C229.227 108.305 229.115 108.263 229.029 108.183L228.974 108.135C228.634 107.849 228.2 107.71 227.763 107.747C227.326 107.785 226.92 107.995 226.631 108.334C226.342 108.673 226.192 109.115 226.213 109.566C226.234 110.016 226.424 110.441 226.743 110.75L226.835 110.828C227.146 111.097 227.35 111.475 227.407 111.889C227.437 112.054 227.5 112.212 227.593 112.351C227.685 112.49 227.805 112.608 227.944 112.696C228.083 112.785 228.238 112.843 228.401 112.866C228.563 112.889 228.728 112.877 228.885 112.831C229.205 112.73 229.548 112.73 229.868 112.831C230.033 112.888 230.209 112.907 230.382 112.886C230.555 112.865 230.721 112.805 230.869 112.71C231.017 112.615 231.142 112.488 231.237 112.337C231.331 112.186 231.391 112.015 231.414 111.838C231.453 111.425 231.639 111.041 231.937 110.761L232.023 110.678C232.267 110.423 232.429 110.098 232.487 109.745C232.545 109.393 232.496 109.031 232.348 108.708Z" fill="#FC7459"/>
<path d="M228.746 108.439C228.722 108.463 228.706 108.495 228.7 108.53C228.694 108.565 228.699 108.601 228.715 108.632C228.779 108.755 228.875 108.856 228.992 108.926C229.109 108.996 229.242 109.032 229.377 109.029C229.513 109.026 229.644 108.984 229.758 108.909C229.872 108.834 229.963 108.728 230.022 108.603C230.041 108.561 230.046 108.515 230.038 108.47C230.03 108.426 230.009 108.384 229.978 108.352C229.957 108.333 229.933 108.319 229.906 108.31C229.88 108.301 229.851 108.298 229.824 108.301C229.714 108.317 229.578 108.447 229.492 108.479C229.394 108.503 229.291 108.503 229.193 108.479C229.123 108.46 229.013 108.366 228.932 108.36C228.897 108.358 228.862 108.363 228.83 108.377C228.798 108.391 228.769 108.412 228.746 108.439Z" fill="#CE422C"/>
<path d="M229.264 109.004C229.264 109.004 229.264 107.618 228.963 106.888C229.061 106.817 229.177 106.777 229.296 106.774C229.416 106.77 229.534 106.802 229.635 106.867C229.635 106.867 229.342 108.342 229.46 109.001L229.264 109.004Z" fill="#8E4539"/>
<path d="M218.116 66.3798C218.003 66.1295 217.834 65.9104 217.623 65.7404C217.412 65.5704 217.164 65.4543 216.901 65.4018C216.638 65.3492 216.366 65.3617 216.109 65.4382C215.851 65.5146 215.615 65.6529 215.419 65.8415C215.336 65.9233 215.225 65.9689 215.109 65.9689C214.994 65.9689 214.883 65.9233 214.799 65.8415L214.745 65.7931C214.405 65.5075 213.971 65.3686 213.534 65.4059C213.097 65.4431 212.691 65.6535 212.402 65.9926C212.113 66.3318 211.963 66.7733 211.983 67.2241C212.004 67.6749 212.194 68.0997 212.514 68.409L212.605 68.487C212.917 68.7557 213.121 69.1333 213.178 69.5474C213.208 69.713 213.271 69.8704 213.363 70.0094C213.456 70.1485 213.575 70.2661 213.714 70.3548C213.853 70.4435 214.009 70.5013 214.171 70.5244C214.333 70.5476 214.498 70.5357 214.656 70.4893C214.976 70.3885 215.319 70.3885 215.639 70.4893C215.807 70.5478 215.986 70.5662 216.162 70.5434C216.339 70.5206 216.507 70.457 216.656 70.3575C216.799 70.2621 216.921 70.1356 217.011 69.9867C217.101 69.8379 217.159 69.6705 217.179 69.4963C217.22 69.0838 217.406 68.701 217.702 68.4198L217.789 68.3363C218.029 68.0827 218.19 67.7598 218.248 67.4104C218.306 67.061 218.26 66.7016 218.116 66.3798Z" fill="#FC7459"/>
<path d="M214.522 66.1107C214.498 66.1361 214.482 66.1686 214.476 66.2038C214.47 66.239 214.475 66.2751 214.491 66.3071C214.556 66.4286 214.652 66.5294 214.769 66.5985C214.886 66.6676 215.019 66.7024 215.154 66.699C215.289 66.6957 215.42 66.6544 215.534 66.5796C215.647 66.5048 215.739 66.3994 215.798 66.2748C215.817 66.2339 215.822 66.1881 215.814 66.1438C215.806 66.0994 215.785 66.0587 215.754 66.0273C215.733 66.0077 215.709 65.9928 215.682 65.9836C215.656 65.9743 215.627 65.9708 215.6 65.9734C215.49 65.9896 215.354 66.1188 215.267 66.151C215.169 66.1753 215.067 66.1753 214.969 66.151C214.899 66.1322 214.786 66.038 214.708 66.0326C214.673 66.0295 214.638 66.035 214.606 66.0486C214.573 66.0621 214.545 66.0834 214.522 66.1107Z" fill="#CE422C"/>
<path d="M215.045 66.6704C215.045 66.6704 215.045 65.2844 214.744 64.5578C214.842 64.4863 214.957 64.4459 215.077 64.4416C215.196 64.4373 215.314 64.4693 215.416 64.5336C215.416 64.5336 215.124 66.0084 215.241 66.6704H215.045Z" fill="#8E4539"/>
<path d="M210.469 89.1154C210.178 87.9178 210.105 85.5091 213.011 83.0035C213.111 82.917 213.233 82.8601 213.363 82.8386C213.492 82.8171 213.625 82.8319 213.748 82.8814C213.87 82.9309 213.977 83.0134 214.057 83.1201C214.138 83.2268 214.189 83.3539 214.206 83.488C214.418 85.2104 214.339 88.2703 211.468 89.6133C211.371 89.6578 211.266 89.6801 211.16 89.6785C211.055 89.6769 210.95 89.6515 210.855 89.6041C210.76 89.5566 210.676 89.4883 210.609 89.4038C210.542 89.3194 210.494 89.221 210.469 89.1154Z" fill="#FFAAA1"/>
<path d="M224.421 104.787C224.13 103.592 224.057 101.18 226.963 98.6748C227.064 98.5882 227.185 98.5313 227.315 98.5098C227.445 98.4883 227.578 98.5031 227.7 98.5526C227.822 98.6021 227.929 98.6846 228.01 98.7913C228.09 98.898 228.141 99.0251 228.158 99.1592C228.37 100.882 228.291 103.942 225.42 105.284C225.323 105.329 225.218 105.351 225.113 105.35C225.007 105.348 224.903 105.323 224.807 105.275C224.712 105.228 224.628 105.159 224.561 105.075C224.495 104.991 224.447 104.892 224.421 104.787Z" fill="#FFAAA1"/>
<path d="M210.259 116.499C209.098 116.198 207.001 115.121 206.232 111.302C206.206 111.171 206.215 111.035 206.257 110.909C206.299 110.783 206.374 110.67 206.472 110.583C206.571 110.496 206.69 110.438 206.818 110.414C206.946 110.391 207.078 110.403 207.2 110.449C208.769 111.071 211.355 112.589 211.149 115.832C211.14 115.939 211.109 116.043 211.058 116.136C211.007 116.23 210.937 116.311 210.852 116.375C210.768 116.438 210.671 116.482 210.569 116.503C210.467 116.525 210.361 116.523 210.259 116.499Z" fill="#FFAAA1"/>
<path d="M227.977 70.6642C226.895 70.1259 225.04 68.6646 225.004 64.7649C225.003 64.6294 225.037 64.4961 225.103 64.3789C225.169 64.2618 225.265 64.1652 225.38 64.0994C225.495 64.0335 225.626 64.0008 225.757 64.0048C225.889 64.0087 226.017 64.0491 226.128 64.1217C227.554 65.0448 229.79 67.0498 228.987 70.1878C228.958 70.2926 228.908 70.3898 228.84 70.4726C228.771 70.5553 228.686 70.6217 228.589 70.6671C228.493 70.7124 228.389 70.7356 228.283 70.7351C228.177 70.7346 228.073 70.7104 227.977 70.6642Z" fill="#FFAAA1"/>
</g>
<g clip-path="url(#clip4)">
<path d="M176.836 142.999H178.642C178.642 142.999 178.518 139.086 183.234 134.198C187.95 129.31 188.632 123.228 187.576 122.202C186.521 121.176 184.351 121.358 182.923 122.742C182.923 122.742 186.522 118.288 185.405 113.037C184.289 107.786 179.512 112.856 178.767 115.147C178.767 115.147 178.518 104.778 171.569 107.431C164.62 110.084 167.846 119.97 167.846 119.97C167.846 119.97 165.42 118.646 164.303 121.178C163.186 123.709 165.111 128.17 170.88 132.631C176.649 137.093 176.836 142.999 176.836 142.999Z" fill="#F9C5CE"/>
<path d="M185.891 124.202C185.876 124.178 185.856 124.157 185.832 124.14C185.808 124.123 185.78 124.111 185.752 124.105C185.723 124.098 185.693 124.097 185.664 124.102C185.635 124.107 185.607 124.117 185.582 124.132C181.737 126.467 179.734 131.215 178.731 134.794C178.404 135.958 178.16 137.076 177.978 138.072C178.146 118.673 183.348 114.08 183.405 114.032C183.451 113.995 183.479 113.941 183.484 113.883C183.488 113.826 183.469 113.768 183.431 113.724C183.392 113.68 183.337 113.652 183.277 113.648C183.218 113.643 183.159 113.661 183.113 113.699C182.901 113.883 178.481 117.729 177.656 133.66C176.201 113.027 171.372 110.618 171.145 110.517C171.091 110.492 171.029 110.49 170.973 110.51C170.917 110.529 170.871 110.57 170.846 110.623C170.821 110.675 170.818 110.736 170.838 110.79C170.859 110.845 170.901 110.889 170.955 110.914C170.97 110.922 172.434 111.649 173.972 115.676C175.342 119.259 177.038 126.236 177.495 139.254C174.262 127.877 166.678 122.889 166.598 122.838C166.548 122.807 166.488 122.797 166.43 122.809C166.372 122.82 166.322 122.854 166.289 122.902C166.256 122.949 166.244 123.008 166.256 123.064C166.267 123.12 166.3 123.17 166.349 123.202C166.37 123.216 168.455 124.572 170.863 127.456C173.086 130.116 176.046 134.659 177.531 141.194C177.481 141.711 177.464 142.012 177.463 142.022C177.461 142.05 177.466 142.079 177.475 142.106C177.485 142.133 177.501 142.158 177.521 142.179C177.541 142.201 177.565 142.218 177.591 142.23C177.618 142.243 177.647 142.25 177.677 142.251H177.688C177.745 142.251 177.801 142.23 177.843 142.191C177.885 142.152 177.91 142.099 177.913 142.043C177.913 141.908 178.677 128.838 185.819 124.499C185.869 124.469 185.904 124.421 185.917 124.365C185.931 124.31 185.922 124.251 185.891 124.202Z" fill="#F4F4F4"/>
<path d="M167.011 127.204C167.42 127.548 168.357 128.111 169.706 127.559C169.741 127.544 169.772 127.521 169.795 127.492C169.818 127.463 169.834 127.429 169.84 127.392C169.846 127.356 169.842 127.318 169.83 127.284C169.817 127.249 169.796 127.218 169.767 127.193C169.351 126.83 168.403 126.233 167.063 126.838C167.028 126.853 166.998 126.877 166.976 126.907C166.953 126.936 166.939 126.971 166.934 127.007C166.929 127.044 166.933 127.081 166.947 127.115C166.96 127.15 166.982 127.18 167.011 127.204Z" fill="#48B574"/>
<path d="M181.216 125.208C180.869 125.613 180.306 126.53 180.895 127.831C180.911 127.865 180.935 127.894 180.966 127.916C180.996 127.938 181.032 127.953 181.07 127.958C181.107 127.963 181.146 127.959 181.182 127.946C181.217 127.933 181.249 127.912 181.274 127.884C181.639 127.479 182.238 126.544 181.594 125.251C181.577 125.218 181.552 125.19 181.521 125.168C181.49 125.147 181.454 125.134 181.417 125.129C181.379 125.125 181.341 125.13 181.306 125.144C181.271 125.157 181.24 125.179 181.216 125.208Z" fill="#48B574"/>
<path d="M183.932 130.449C183.463 130.186 182.433 129.804 181.216 130.591C181.185 130.612 181.159 130.64 181.142 130.673C181.125 130.706 181.116 130.742 181.117 130.779C181.118 130.816 181.128 130.852 181.147 130.884C181.166 130.916 181.193 130.943 181.226 130.962C181.701 131.243 182.754 131.656 183.951 130.818C183.982 130.796 184.006 130.768 184.022 130.735C184.039 130.702 184.046 130.665 184.044 130.628C184.042 130.592 184.031 130.556 184.011 130.525C183.992 130.494 183.964 130.468 183.932 130.449Z" fill="#48B574"/>
<path d="M169.102 121.996C168.859 122.464 168.526 123.48 169.405 124.621C169.428 124.65 169.458 124.674 169.493 124.689C169.528 124.704 169.566 124.71 169.604 124.707C169.642 124.704 169.678 124.691 169.71 124.671C169.742 124.65 169.768 124.622 169.785 124.59C170.047 124.112 170.41 123.072 169.48 121.954C169.456 121.926 169.425 121.904 169.39 121.89C169.355 121.876 169.317 121.871 169.279 121.875C169.242 121.879 169.206 121.893 169.175 121.914C169.144 121.935 169.119 121.963 169.102 121.996Z" fill="#48B574"/>
<path d="M172.89 126.354C172.646 126.822 172.314 127.838 173.191 128.978C173.214 129.008 173.245 129.031 173.28 129.046C173.314 129.061 173.353 129.067 173.39 129.064C173.428 129.061 173.465 129.049 173.497 129.028C173.528 129.008 173.554 128.98 173.572 128.947C173.833 128.47 174.198 127.429 173.268 126.312C173.244 126.283 173.213 126.261 173.178 126.247C173.143 126.234 173.105 126.229 173.067 126.233C173.03 126.237 172.994 126.25 172.963 126.271C172.932 126.292 172.907 126.321 172.89 126.354Z" fill="#48B574"/>
<path d="M186.41 126.125C185.903 125.943 184.822 125.738 183.759 126.714C183.732 126.74 183.712 126.772 183.701 126.807C183.689 126.842 183.687 126.88 183.695 126.916C183.702 126.952 183.719 126.986 183.743 127.014C183.768 127.043 183.799 127.065 183.834 127.078C184.352 127.277 185.458 127.51 186.494 126.486C186.521 126.459 186.54 126.427 186.55 126.392C186.56 126.356 186.561 126.319 186.553 126.283C186.545 126.247 186.527 126.214 186.502 126.187C186.477 126.159 186.445 126.138 186.41 126.125Z" fill="#48B574"/>
<path d="M171.632 117.502C171.973 117.907 172.801 118.617 174.225 118.294C174.262 118.286 174.296 118.268 174.324 118.243C174.353 118.218 174.374 118.187 174.387 118.152C174.399 118.117 174.402 118.08 174.396 118.043C174.389 118.007 174.374 117.972 174.35 117.943C174.001 117.518 173.168 116.775 171.745 117.15C171.709 117.16 171.676 117.178 171.649 117.204C171.621 117.229 171.601 117.261 171.59 117.296C171.579 117.331 171.576 117.368 171.584 117.404C171.591 117.44 171.607 117.474 171.632 117.502Z" fill="#48B574"/>
<path d="M169.645 112.482C169.945 112.918 170.697 113.696 172.145 113.518C172.183 113.513 172.219 113.499 172.249 113.477C172.28 113.454 172.304 113.425 172.32 113.392C172.336 113.358 172.342 113.321 172.34 113.284C172.337 113.247 172.324 113.212 172.304 113.181C172.005 112.725 171.252 111.904 169.794 112.142C169.757 112.148 169.721 112.163 169.692 112.186C169.662 112.209 169.639 112.239 169.624 112.272C169.609 112.306 169.604 112.343 169.607 112.38C169.611 112.416 169.624 112.451 169.645 112.482Z" fill="#48B574"/>
<path d="M178.252 116.792C178.185 117.313 178.225 118.383 179.446 119.165C179.478 119.185 179.515 119.197 179.553 119.199C179.591 119.202 179.629 119.195 179.663 119.18C179.698 119.165 179.728 119.141 179.751 119.112C179.773 119.082 179.788 119.047 179.793 119.011C179.874 118.471 179.856 117.377 178.593 116.629C178.561 116.61 178.524 116.599 178.486 116.598C178.448 116.596 178.411 116.604 178.377 116.62C178.343 116.636 178.313 116.66 178.291 116.691C178.27 116.721 178.256 116.756 178.252 116.792Z" fill="#48B574"/>
<path d="M175.888 112.507C175.992 113.023 176.027 114.093 174.862 114.954C174.832 114.977 174.796 114.991 174.757 114.996C174.719 115.001 174.681 114.997 174.645 114.983C174.609 114.97 174.577 114.948 174.553 114.919C174.528 114.89 174.511 114.856 174.504 114.819C174.386 114.292 174.328 113.2 175.535 112.364C175.566 112.343 175.602 112.33 175.64 112.326C175.678 112.322 175.716 112.327 175.752 112.342C175.787 112.356 175.818 112.379 175.842 112.408C175.865 112.437 175.881 112.471 175.888 112.507Z" fill="#48B574"/>
<path d="M184.395 116.564C184.1 117.004 183.355 117.793 181.903 117.622C181.866 117.617 181.83 117.603 181.799 117.581C181.769 117.559 181.744 117.53 181.728 117.497C181.712 117.463 181.705 117.427 181.707 117.39C181.71 117.353 181.722 117.317 181.742 117.286C182.037 116.827 182.783 116 184.243 116.227C184.28 116.232 184.315 116.247 184.345 116.269C184.375 116.292 184.399 116.321 184.414 116.355C184.429 116.388 184.436 116.425 184.432 116.462C184.429 116.498 184.416 116.534 184.395 116.564Z" fill="#48B574"/>
</g>
<g clip-path="url(#clip5)">
<path d="M158.448 142H161.904C161.904 142 161.87 139.619 165.602 134.34C169.335 129.06 172.29 125.801 170.428 123.472C168.567 121.143 162.859 124.352 160.268 131.332C157.677 138.313 158.448 142 158.448 142Z" fill="#FC7459"/>
<path d="M160.649 140.788H160.624C160.57 140.781 160.521 140.753 160.487 140.711C160.453 140.668 160.438 140.614 160.445 140.56C161.842 128.784 167.629 125.971 167.874 125.853C167.924 125.829 167.981 125.827 168.033 125.845C168.084 125.864 168.127 125.902 168.15 125.952C168.174 126.001 168.176 126.058 168.158 126.11C168.139 126.161 168.101 126.203 168.051 126.227C167.993 126.255 162.227 129.081 160.855 140.607C160.849 140.657 160.825 140.703 160.787 140.737C160.749 140.77 160.7 140.789 160.649 140.788Z" fill="#F9AFA2"/>
<path d="M160.522 142C160.522 142 164.514 129.837 161.665 123.006C158.816 116.175 156.894 119.695 156.112 121.816C155.331 123.937 155.49 129.32 156.366 133.77C156.903 136.479 157.116 139.241 157.002 142H160.522Z" fill="#F9C5CE"/>
<path d="M156.493 141.996C156.493 141.996 156.582 139.515 153.004 133.72C149.427 127.924 148.392 125.129 149.321 123.83C150.251 122.532 153.886 122.333 156.427 128.544C158.969 134.756 158.448 141.996 158.448 141.996H156.493Z" fill="#FC9381"/>
<path d="M159.478 140.788H159.46C159.433 140.786 159.407 140.778 159.383 140.766C159.359 140.753 159.338 140.736 159.321 140.716C159.303 140.695 159.29 140.671 159.282 140.646C159.274 140.62 159.271 140.593 159.274 140.566C160.424 127.634 158.486 122.02 158.466 121.965C158.457 121.918 158.465 121.868 158.489 121.826C158.513 121.784 158.552 121.752 158.597 121.735C158.643 121.718 158.693 121.718 158.739 121.735C158.784 121.751 158.823 121.784 158.847 121.826C158.867 121.883 160.837 127.568 159.677 140.602C159.672 140.651 159.649 140.698 159.613 140.732C159.576 140.766 159.528 140.786 159.478 140.788Z" fill="#FFEEEB"/>
<path d="M157.664 140.145C157.615 140.145 157.567 140.127 157.53 140.094C157.492 140.062 157.468 140.017 157.461 139.968C156.684 134.328 155.034 130.937 153.786 129.085C152.437 127.084 151.257 126.402 151.246 126.395C151.2 126.368 151.168 126.323 151.154 126.272C151.141 126.221 151.148 126.166 151.174 126.12C151.201 126.074 151.244 126.039 151.294 126.024C151.345 126.009 151.4 126.014 151.447 126.038C151.647 126.149 156.351 128.899 157.869 139.912C157.876 139.966 157.862 140.021 157.829 140.064C157.795 140.108 157.747 140.136 157.692 140.144L157.664 140.145Z" fill="#FC7459"/>
</g>
<g clip-path="url(#clip6)">
<path d="M354.836 142.999H356.642C356.642 142.999 356.518 139.086 361.234 134.198C365.95 129.31 366.632 123.228 365.576 122.202C364.521 121.176 362.351 121.358 360.923 122.742C360.923 122.742 364.522 118.288 363.405 113.037C362.289 107.786 357.512 112.856 356.767 115.147C356.767 115.147 356.518 104.778 349.569 107.431C342.62 110.084 345.846 119.97 345.846 119.97C345.846 119.97 343.42 118.646 342.303 121.178C341.186 123.709 343.111 128.17 348.88 132.631C354.649 137.093 354.836 142.999 354.836 142.999Z" fill="#007F36"/>
<path d="M363.891 124.202C363.876 124.178 363.856 124.157 363.832 124.14C363.808 124.123 363.78 124.111 363.752 124.105C363.723 124.098 363.693 124.097 363.664 124.102C363.635 124.107 363.607 124.117 363.582 124.132C359.737 126.467 357.734 131.215 356.731 134.794C356.404 135.958 356.16 137.076 355.978 138.072C356.146 118.673 361.348 114.08 361.405 114.032C361.451 113.995 361.479 113.941 361.484 113.883C361.488 113.826 361.469 113.768 361.431 113.724C361.392 113.68 361.337 113.652 361.277 113.648C361.218 113.643 361.159 113.661 361.113 113.699C360.901 113.883 356.481 117.729 355.656 133.66C354.201 113.027 349.372 110.618 349.145 110.517C349.091 110.492 349.029 110.49 348.973 110.51C348.917 110.529 348.871 110.57 348.846 110.623C348.821 110.675 348.818 110.736 348.838 110.79C348.859 110.845 348.901 110.889 348.955 110.914C348.97 110.922 350.434 111.649 351.972 115.676C353.342 119.259 355.038 126.236 355.495 139.254C352.262 127.877 344.678 122.889 344.598 122.838C344.548 122.807 344.488 122.797 344.43 122.809C344.372 122.82 344.322 122.854 344.289 122.902C344.256 122.949 344.245 123.008 344.256 123.064C344.267 123.12 344.3 123.17 344.349 123.202C344.37 123.216 346.455 124.572 348.863 127.456C351.086 130.116 354.046 134.659 355.531 141.194C355.481 141.711 355.464 142.012 355.463 142.022C355.461 142.05 355.466 142.079 355.475 142.106C355.485 142.133 355.501 142.158 355.521 142.179C355.541 142.201 355.565 142.218 355.591 142.23C355.618 142.243 355.647 142.25 355.677 142.251H355.688C355.746 142.251 355.801 142.23 355.843 142.191C355.885 142.152 355.91 142.099 355.913 142.043C355.913 141.908 356.677 128.838 363.819 124.499C363.869 124.469 363.904 124.421 363.917 124.365C363.931 124.31 363.922 124.251 363.891 124.202Z" fill="#3CA064"/>
<path d="M345.011 127.204C345.42 127.548 346.357 128.111 347.706 127.559C347.741 127.544 347.772 127.521 347.795 127.492C347.818 127.463 347.834 127.429 347.84 127.392C347.846 127.356 347.842 127.318 347.83 127.284C347.817 127.249 347.796 127.218 347.767 127.193C347.351 126.83 346.403 126.233 345.063 126.838C345.028 126.853 344.998 126.877 344.976 126.907C344.953 126.936 344.939 126.971 344.934 127.007C344.929 127.044 344.933 127.081 344.947 127.115C344.96 127.15 344.982 127.18 345.011 127.204Z" fill="#48B574"/>
<path d="M359.216 125.208C358.869 125.613 358.306 126.53 358.895 127.831C358.911 127.865 358.935 127.894 358.966 127.916C358.996 127.938 359.032 127.953 359.07 127.958C359.107 127.963 359.146 127.959 359.182 127.946C359.217 127.933 359.249 127.912 359.274 127.884C359.639 127.479 360.238 126.544 359.594 125.251C359.577 125.218 359.552 125.19 359.521 125.168C359.49 125.147 359.454 125.134 359.417 125.129C359.379 125.125 359.341 125.13 359.306 125.144C359.271 125.157 359.24 125.179 359.216 125.208Z" fill="#48B574"/>
<path d="M361.932 130.449C361.463 130.186 360.433 129.804 359.216 130.591C359.185 130.612 359.159 130.64 359.142 130.673C359.125 130.706 359.116 130.742 359.117 130.779C359.118 130.816 359.128 130.852 359.147 130.884C359.166 130.916 359.193 130.943 359.226 130.962C359.701 131.243 360.754 131.656 361.951 130.818C361.981 130.796 362.006 130.768 362.022 130.735C362.039 130.702 362.046 130.665 362.044 130.628C362.042 130.592 362.031 130.556 362.011 130.525C361.992 130.494 361.964 130.468 361.932 130.449Z" fill="#48B574"/>
<path d="M347.102 121.996C346.859 122.464 346.526 123.48 347.405 124.621C347.428 124.65 347.458 124.674 347.493 124.689C347.528 124.704 347.566 124.71 347.604 124.707C347.642 124.704 347.678 124.691 347.71 124.671C347.742 124.65 347.768 124.622 347.785 124.59C348.047 124.112 348.41 123.072 347.48 121.954C347.456 121.926 347.425 121.904 347.39 121.89C347.355 121.876 347.317 121.871 347.279 121.875C347.242 121.879 347.206 121.893 347.175 121.914C347.144 121.935 347.119 121.963 347.102 121.996Z" fill="#48B574"/>
<path d="M350.89 126.354C350.646 126.822 350.314 127.838 351.191 128.978C351.214 129.008 351.245 129.031 351.28 129.046C351.314 129.061 351.353 129.067 351.39 129.064C351.428 129.061 351.465 129.049 351.497 129.028C351.528 129.008 351.554 128.98 351.572 128.947C351.833 128.47 352.198 127.429 351.268 126.312C351.244 126.283 351.213 126.261 351.178 126.247C351.143 126.234 351.105 126.229 351.067 126.233C351.03 126.237 350.994 126.25 350.963 126.271C350.932 126.292 350.907 126.321 350.89 126.354Z" fill="#48B574"/>
<path d="M364.41 126.125C363.903 125.943 362.822 125.738 361.759 126.714C361.732 126.74 361.712 126.772 361.701 126.807C361.689 126.842 361.687 126.88 361.695 126.916C361.702 126.952 361.719 126.986 361.743 127.014C361.768 127.043 361.799 127.065 361.834 127.078C362.352 127.277 363.458 127.51 364.494 126.486C364.521 126.459 364.54 126.427 364.55 126.392C364.56 126.356 364.561 126.319 364.553 126.283C364.545 126.247 364.527 126.214 364.502 126.187C364.477 126.159 364.445 126.138 364.41 126.125Z" fill="#48B574"/>
<path d="M349.632 117.502C349.973 117.907 350.801 118.617 352.225 118.294C352.262 118.286 352.296 118.268 352.324 118.243C352.353 118.218 352.374 118.187 352.387 118.152C352.399 118.117 352.402 118.08 352.396 118.043C352.389 118.007 352.374 117.972 352.35 117.943C352.001 117.518 351.168 116.775 349.745 117.15C349.709 117.16 349.676 117.178 349.649 117.204C349.621 117.229 349.601 117.261 349.59 117.296C349.579 117.331 349.576 117.368 349.584 117.404C349.591 117.44 349.607 117.474 349.632 117.502Z" fill="#48B574"/>
<path d="M347.645 112.482C347.945 112.918 348.697 113.696 350.145 113.518C350.183 113.513 350.219 113.499 350.249 113.477C350.28 113.454 350.304 113.425 350.32 113.392C350.336 113.358 350.342 113.321 350.34 113.284C350.337 113.247 350.324 113.212 350.304 113.181C350.005 112.725 349.252 111.904 347.794 112.142C347.757 112.148 347.721 112.163 347.692 112.186C347.662 112.209 347.639 112.239 347.624 112.272C347.609 112.306 347.604 112.343 347.607 112.38C347.611 112.416 347.624 112.451 347.645 112.482Z" fill="#48B574"/>
<path d="M356.252 116.792C356.185 117.313 356.225 118.383 357.446 119.165C357.478 119.185 357.515 119.197 357.553 119.199C357.591 119.202 357.629 119.195 357.663 119.18C357.698 119.165 357.728 119.141 357.751 119.112C357.773 119.082 357.788 119.047 357.793 119.011C357.874 118.471 357.856 117.377 356.593 116.629C356.561 116.61 356.524 116.599 356.486 116.598C356.448 116.596 356.411 116.604 356.377 116.62C356.343 116.636 356.313 116.66 356.291 116.691C356.27 116.721 356.256 116.756 356.252 116.792Z" fill="#48B574"/>
<path d="M353.888 112.507C353.992 113.023 354.026 114.093 352.862 114.954C352.832 114.977 352.796 114.991 352.757 114.996C352.719 115.001 352.681 114.997 352.645 114.983C352.609 114.97 352.577 114.948 352.553 114.919C352.528 114.89 352.511 114.856 352.504 114.819C352.386 114.292 352.328 113.2 353.535 112.364C353.566 112.343 353.602 112.33 353.64 112.326C353.678 112.322 353.716 112.327 353.752 112.342C353.787 112.356 353.818 112.379 353.842 112.408C353.865 112.437 353.881 112.471 353.888 112.507Z" fill="#48B574"/>
<path d="M362.395 116.564C362.1 117.004 361.355 117.793 359.903 117.622C359.866 117.617 359.83 117.603 359.799 117.581C359.769 117.559 359.744 117.53 359.728 117.497C359.712 117.463 359.705 117.427 359.707 117.39C359.71 117.353 359.722 117.317 359.742 117.286C360.037 116.827 360.783 116 362.243 116.227C362.28 116.232 362.315 116.247 362.345 116.269C362.375 116.292 362.399 116.321 362.414 116.355C362.429 116.388 362.436 116.425 362.432 116.462C362.429 116.498 362.416 116.534 362.395 116.564Z" fill="#48B574"/>
</g>
</g>
<defs>
<clipPath id="clip0">
<rect width="375" height="140" fill="white"/>
</clipPath>
<clipPath id="clip1">
<rect width="51" height="119" fill="white" transform="translate(291 19)"/>
</clipPath>
<clipPath id="clip2">
<rect width="42" height="87" fill="white" transform="translate(243 60)"/>
</clipPath>
<clipPath id="clip3">
<rect width="40" height="87" fill="white" transform="translate(197 54)"/>
</clipPath>
<clipPath id="clip4">
<rect width="24" height="36" fill="white" transform="translate(164 107)"/>
</clipPath>
<clipPath id="clip5">
<rect width="22" height="23" fill="white" transform="translate(149 119)"/>
</clipPath>
<clipPath id="clip6">
<rect width="24" height="36" fill="white" transform="translate(342 107)"/>
</clipPath>
</defs>
</svg>
